<svg width="192" height="42" viewBox="0 0 192 42" fill="none" xmlns="http://www.w3.org/2000/svg">
<g clip-path="url(#clip0)">
<path d="M189.799 39.5742H178.913V41.1277H191.154V35.0771H189.799V39.5742Z" fill="black"/>
<path d="M189.799 32.4489H185.559V28.0453H184.204V32.4489H180.268V27.7066H178.913V34.0141H191.154V27.6014H189.799V32.4489Z" fill="black"/>
<path d="M182.663 26.0947H186.681C190.068 26.0947 191.412 24.8449 191.412 22.2518C191.412 20.6749 191.038 19.5068 190.501 18.5022H184.555V22.3102H185.91V20.0558H189.566C189.8 20.3828 190.103 21.1187 190.103 22.2401C190.103 23.7118 189.426 24.4944 186.751 24.4944H182.616C180.058 24.4944 179.976 22.7307 179.976 22.2401C179.976 20.6632 180.759 20.0675 182.196 20.0675V18.4555C179.638 18.3504 178.668 19.6119 178.668 22.2518C178.656 24.8449 180.222 26.0947 182.663 26.0947Z" fill="black"/>
<path d="M191.154 15.5353L188.234 14.6242V9.89354L191.154 9.01748V7.26538L178.925 11.2485V13.2342L191.154 17.1122V15.5353ZM186.879 14.2388L180.35 12.3231V12.2881L186.879 10.3257V14.2388Z" fill="black"/>
<path d="M191.154 0H189.799V4.48538H178.913V6.0506H191.154V0Z" fill="black"/>
<path d="M27.0291 21.586H20.6515C21.2238 34.1193 16.423 36.5139 12.5451 36.5139C8.25825 36.5139 6.38934 33.0914 6.38934 29.2718C6.38934 23.5249 10.2673 22.0065 14.6709 21.586H14.6593V17.8949V16.645C7.21867 17.1006 0 19.4367 0 28.8046C0 36.362 2.4179 41.7351 10.7462 41.7351C15.6521 41.7351 18.6891 39.7845 20.6398 35.2757H20.7916V40.9642H27.8C27.3328 37.9272 27.0174 34.7384 27.0174 31.6197V21.586H27.0291Z" fill="black"/>
<path d="M14.0169 5.67679C20.8385 5.67679 20.7917 11.3186 20.6399 16.5165V16.5865H27.0292V12.6852C27.0292 6.07393 24.3777 0.852661 14.2506 0.852661C5.92222 0.852661 1.24995 3.88964 0.93457 12.6852H7.86122C7.47576 8.56192 9.73013 5.67679 14.0169 5.67679Z" fill="black"/>
<path d="M52.4933 27.8701C52.7269 34.9603 48.2882 36.5139 46.8048 36.5139C40.6257 36.5139 38.7918 32.5074 38.5699 21.5859H31.8535C31.8535 21.6794 31.8535 21.7845 31.8535 21.878C31.8535 39.2471 38.4765 41.7351 46.8048 41.7351C51.1617 41.7351 59.4199 38.9318 59.1863 27.8701H52.4933Z" fill="black"/>
<path d="M46.8043 6.07393C49.2222 6.07393 52.411 7.79099 52.2592 14.2504H58.8821C59.2676 5.44317 54.6654 0.852661 46.8043 0.852661C35.3338 0.852661 32.5772 7.58074 31.9932 16.5865H38.6161C39.1301 8.0246 42.3189 6.07393 46.8043 6.07393Z" fill="black"/>
<path d="M70.2477 21.5859H63.8584V40.9525H70.2477V21.5859Z" fill="black"/>
<path d="M82.5475 0.852661C76.3217 0.852661 73.0511 1.5535 70.3996 7.5457H70.2477V1.63527H63.8584V16.5865H70.2711C70.5281 11.6923 72.5488 7.07847 79.1134 7.07847C79.7325 7.07847 80.2814 7.16023 80.8304 7.23032C81.3794 7.31208 81.9985 7.38217 82.5475 7.46393V0.852661Z" fill="black"/>
<path d="M105.582 21.5859C105.36 32.5074 103.526 36.5139 97.3468 36.5139C91.1677 36.5139 89.3338 32.5074 89.1119 21.5859H82.3955C82.3955 21.6794 82.3955 21.7845 82.3955 21.878C82.3955 39.2471 89.0185 41.7351 97.3468 41.7351C105.675 41.7351 112.298 39.2471 112.298 21.878C112.298 21.7845 112.298 21.6794 112.298 21.5859H105.582Z" fill="black"/>
<path d="M89.1708 16.5865C89.6847 8.0246 92.8619 6.07393 97.3589 6.07393C101.856 6.07393 105.033 8.03628 105.547 16.5865H112.17C111.586 7.58074 108.829 0.852661 97.3589 0.852661C85.8885 0.852661 83.1202 7.58074 82.5361 16.5865H89.1708Z" fill="black"/>
<path d="M138.661 21.5859H124.119C129.679 24.6696 136.36 26.4334 136.36 30.5217C136.36 34.5749 133.405 36.5139 129.586 36.5139C123.126 36.5139 123.044 31.2225 123.044 28.9565H115.802C115.569 37.9856 120.86 41.7234 129.352 41.7234C137.143 41.7234 143.053 38.3711 143.053 29.7274C143.065 26.0713 141.22 23.5366 138.661 21.5859Z" fill="black"/>
<path d="M129.2 16.5866C125.964 15.0331 123.441 13.4562 123.441 10.9799C123.441 7.55742 126.093 5.6885 129.515 5.6885C133.568 5.6885 135.741 7.87279 135.671 11.9961H142.761C143.31 4.20506 137.306 0.86438 130.298 0.86438C119.236 0.86438 116.748 7.48733 116.748 11.6106C116.748 13.5613 117.297 15.1966 118.196 16.5983H129.2V16.5866Z" fill="black"/>
<path d="M159.103 16.5866C155.867 15.0331 153.344 13.4562 153.344 10.9799C153.344 7.55742 155.996 5.6885 159.418 5.6885C163.472 5.6885 165.644 7.87279 165.574 11.9961H172.664C173.213 4.20506 167.209 0.86438 160.201 0.86438C149.139 0.86438 146.651 7.48733 146.651 11.6106C146.651 13.5613 147.2 15.1966 148.1 16.5983H159.103V16.5866Z" fill="black"/>
<path d="M168.564 21.5859H154.021C159.581 24.6696 166.263 26.4334 166.263 30.5217C166.263 34.5749 163.307 36.5139 159.488 36.5139C153.028 36.5139 152.947 31.2225 152.947 28.9565H145.705C145.471 37.9856 150.762 41.7234 159.254 41.7234C167.045 41.7234 172.956 38.3711 172.956 29.7274C172.967 26.0713 171.122 23.5366 168.564 21.5859Z" fill="black"/>
</g>
<defs>
<clipPath id="clip0">
<rect width="191.4" height="41.7351" fill="white"/>
</clipPath>
</defs>
</svg>
