<?xml version="1.0" encoding="UTF-8" standalone="no"?>
<svg
   width="376"
   height="203"
   viewBox="0 0 376 203"
   fill="none"
   version="1.1"
   id="svg24"
   sodipodi:docname="atoutpi-laplace.svg"
   inkscape:version="1.4.3 (0d15f75, 2025-12-25)"
   xmlns:inkscape="http://www.inkscape.org/namespaces/inkscape"
   xmlns:sodipodi="http://sodipodi.sourceforge.net/DTD/sodipodi-0.dtd"
   xmlns="http://www.w3.org/2000/svg"
   xmlns:svg="http://www.w3.org/2000/svg">
  <defs
     id="defs24" />
  <sodipodi:namedview
     id="namedview24"
     pagecolor="#ffffff"
     bordercolor="#000000"
     borderopacity="0.25"
     inkscape:showpageshadow="2"
     inkscape:pageopacity="0.0"
     inkscape:pagecheckerboard="0"
     inkscape:deskcolor="#d1d1d1"
     inkscape:zoom="0.9"
     inkscape:cx="187.77778"
     inkscape:cy="102.77778"
     inkscape:current-layer="svg24" />
  <path
     d="M168.337 189.374C167.806 188.635 167.16 188 166.41 187.516C165.302 186.754 163.952 186.304 162.417 186.304C158.655 186.304 155.39 189.177 155.39 193.47C155.39 197.832 158.678 200.705 162.44 200.705C164.252 200.705 165.844 200.082 167.033 199.147C168.245 198.201 169.075 196.897 169.352 195.547H160.813V193.966H171.58C171.556 194.959 171.326 196.216 170.818 197.278C169.329 200.498 165.902 202.379 162.44 202.379C157.432 202.379 153.463 198.524 153.463 193.447C153.463 188.3 157.501 184.585 162.463 184.585C165.948 184.585 169.168 186.535 170.506 189.339H168.337V189.374Z"
     fill="white"
     id="path1"
     style="fill:#4399ae;fill-opacity:1" />
  <path
     d="M178.538 184.919H183.015C185.704 184.919 186.962 185.242 187.839 185.796C189.235 186.627 190.181 188.462 190.181 190.412C190.204 191.566 189.881 192.801 189.166 193.77C188.15 195.166 186.915 195.489 185.335 195.651L189.604 202.078H187.516L182.669 194.589H183.223C184.434 194.589 186.096 194.566 187.031 193.712C187.931 192.835 188.335 191.785 188.335 190.562C188.335 189.281 187.712 187.943 186.639 187.25C185.785 186.696 184.711 186.627 183.154 186.627H180.465V202.102H178.538V184.919Z"
     fill="white"
     id="path2"
     style="fill:#4399ae;fill-opacity:1" />
  <path
     d="M196.263 193.551C196.263 188.266 200.371 184.619 205.217 184.619C210.248 184.619 214.172 188.473 214.172 193.505C214.172 198.536 210.271 202.39 205.217 202.39C200.14 202.39 196.263 198.467 196.263 193.574V193.551ZM198.19 193.505C198.19 197.543 201.225 200.694 205.24 200.694C209.302 200.694 212.268 197.428 212.268 193.505C212.268 189.581 209.302 186.316 205.217 186.316C201.178 186.316 198.19 189.512 198.19 193.482V193.505Z"
     fill="white"
     id="path3"
     style="fill:#4399ae;fill-opacity:1" />
  <path
     d="M223.345 184.919V195.801C223.345 197.105 223.345 198.097 224.153 199.251C224.753 200.105 225.896 200.694 227.142 200.694C228.376 200.694 229.507 200.14 230.084 199.274C230.892 198.143 230.892 197.14 230.892 195.789V184.908H232.796V195.789C232.819 197.786 232.565 199.759 230.846 201.075C229.9 201.882 228.619 202.378 227.13 202.378C225.919 202.378 224.418 202.032 223.345 201.075C221.534 199.609 221.395 197.67 221.395 195.789V184.908H223.345V184.919Z"
     fill="white"
     id="path4"
     style="fill:#4399ae;fill-opacity:1" />
  <path
     d="M245.213 184.919C247.625 184.919 248.767 185.196 249.829 186.004C250.959 186.881 251.663 188.485 251.663 190.089C251.663 191.716 250.948 193.355 249.898 194.174C248.767 195.051 247.601 195.339 245.374 195.339H242.616V202.09H240.689V184.931H245.213V184.919ZM242.616 193.643H245.351C246.794 193.643 247.671 193.482 248.525 192.928C249.263 192.443 249.805 191.347 249.805 190.147C249.805 188.912 249.275 187.827 248.502 187.343C247.648 186.789 246.759 186.627 245.305 186.627H242.616V193.643Z"
     fill="white"
     id="path5"
     style="fill:#4399ae;fill-opacity:1" />
  <path
     d="M258.298 184.919H267.807V186.616H260.202V192.581H267.761V194.278H260.202V200.405H267.807V202.102H258.298V184.919Z"
     fill="white"
     id="path6"
     style="fill:#4399ae;fill-opacity:1" />
  <path
     d="M283.547 184.919H285.566L291.243 199.597L296.944 184.919H298.963L292.143 202.078H290.309L283.547 184.919Z"
     fill="white"
     id="path7"
     style="fill:#4399ae;fill-opacity:1" />
  <path
     d="M305.564 184.919H307.468V202.078H305.564V184.919Z"
     fill="white"
     id="path8"
     style="fill:#4399ae;fill-opacity:1" />
  <path
     d="M315.557 184.919H320.681C323.115 184.919 325.712 185.45 327.431 187.493C328.827 189.027 329.497 191.047 329.497 193.482C329.497 198.651 326.554 202.09 320.773 202.09H315.557V184.919ZM317.461 200.394H320.865C325.273 200.394 327.57 197.682 327.57 193.551C327.57 191.554 327.039 189.789 325.896 188.543C324.812 187.377 323.208 186.616 320.865 186.616H317.461V200.394Z"
     fill="white"
     id="path9"
     style="fill:#4399ae;fill-opacity:1" />
  <path
     d="M335.97 193.551C335.97 188.266 340.078 184.619 344.925 184.619C349.956 184.619 353.879 188.473 353.879 193.505C353.879 198.536 349.979 202.39 344.925 202.39C339.847 202.39 335.97 198.467 335.97 193.574V193.551ZM337.897 193.505C337.897 197.543 340.932 200.694 344.948 200.694C349.01 200.694 351.975 197.428 351.975 193.505C351.975 189.581 349.01 186.316 344.925 186.316C340.886 186.316 337.897 189.512 337.897 193.482V193.505Z"
     fill="white"
     id="path10"
     style="fill:#4399ae;fill-opacity:1" />
  <path
     d="M373.185 199.251L373.162 184.919H375.02V202.078H373.162L362.984 187.631L363.03 202.078H361.172V184.919H363.123L373.185 199.251Z"
     fill="white"
     id="path11"
     style="fill:#4399ae;fill-opacity:1" />
  <path
     d="M8.81606 84.0417H1.11926L27.8446 20.0555H34.7682L61.2281 84.0417H53.4506L46.0192 66.0517H16.1667L8.81606 84.0417ZM31.041 28.087L18.3245 60.1666H43.8382L31.041 28.087Z"
     fill="white"
     id="path12"
     style="fill:#4399ae;fill-opacity:1" />
  <path
     d="M71.602 26.356H55.8622V20.0439H94.6V26.356H78.7795V84.0301H71.602V26.356Z"
     fill="white"
     id="path13"
     style="fill:#4399ae;fill-opacity:1" />
  <path
     d="M94.2539 52.2159C94.2539 32.495 109.555 18.9247 127.637 18.9247C146.401 18.9247 161.021 33.2797 161.021 52.0428C161.021 70.8059 146.493 85.161 127.637 85.161C108.701 85.161 94.2539 70.5521 94.2539 52.2967V52.2159ZM101.431 52.0428C101.431 67.0902 112.763 78.8489 127.718 78.8489C142.846 78.8489 153.924 66.6518 153.924 52.0428C153.924 37.4339 142.858 25.2368 127.637 25.2368C112.59 25.2368 101.431 37.1685 101.431 51.9621V52.0428Z"
     fill="white"
     id="path14"
     style="fill:#4399ae;fill-opacity:1" />
  <path
     d="M177.869 20.0439V60.605C177.869 65.4516 177.869 69.1673 180.892 73.4946C183.142 76.691 187.377 78.8604 192.051 78.8604C196.632 78.8604 200.867 76.7833 203.036 73.5869C206.059 69.3519 206.059 65.6362 206.059 60.6166V20.0439H213.145V60.605C213.225 68.0364 212.279 75.387 205.886 80.3259C202.344 83.3492 197.59 85.1725 192.051 85.1725C187.55 85.1725 181.931 83.8801 177.961 80.3259C171.21 74.8793 170.703 67.6095 170.703 60.605V20.0439H177.869Z"
     fill="white"
     id="path15"
     style="fill:#4399ae;fill-opacity:1" />
  <path
     d="M235.808 26.356H220.068V20.0439H258.806V26.356H242.986V84.0301H235.808V26.356Z"
     fill="white"
     id="path16"
     style="fill:#4399ae;fill-opacity:1" />
  <path
     d="M292.478 105.447H271.119V0H292.478V9.67004H280.777V95.7772H292.478V105.447Z"
     fill="white"
     id="path17"
     style="fill:#4399ae;fill-opacity:1" />
  <path
     d="M353.66 105.447H375.031V0H353.66V9.67004H365.361V95.7772H353.66V105.447Z"
     fill="white"
     id="path18"
     style="fill:#4399ae;fill-opacity:1" />
  <path
     d="M311.703 20.0439C320.692 20.0439 324.939 21.0825 328.908 24.1058C333.143 27.3946 335.74 33.3604 335.74 39.3263C335.74 45.3845 333.062 51.5235 329.162 54.5468C324.927 57.8356 320.6 58.8741 312.303 58.8741H302.01V84.0416H294.832V20.0439H311.703ZM302.021 52.562H312.222C317.588 52.562 320.865 51.962 324.073 49.8849C326.843 48.0732 328.827 43.9998 328.827 39.511C328.827 34.9298 326.843 30.8679 323.981 29.0447C320.784 26.9676 317.496 26.3676 312.049 26.3676H302.021V52.562Z"
     fill="white"
     id="path19"
     style="fill:#4399ae;fill-opacity:1" />
  <path
     d="M343.182 20.0439H350.279V84.0301H343.182V20.0439Z"
     fill="white"
     id="path20"
     style="fill:#4399ae;fill-opacity:1" />
  <path
     d="M145.223 130.696H117.586V140.181H145.223C146.504 140.181 148.027 139.362 148.027 135.473C148.016 131.526 146.493 130.696 145.223 130.696Z"
     fill="white"
     id="path21"
     style="fill:#4399ae;fill-opacity:1" />
  <path
     d="M65.9822 152.805H92.2113L79.091 133.892L65.9822 152.805Z"
     fill="white"
     id="path22"
     style="fill:#4399ae;fill-opacity:1" />
  <path
     d="M226.034 152.805H252.252L239.143 133.892L226.034 152.805Z"
     fill="white"
     id="path23"
     style="fill:#4399ae;fill-opacity:1" />
  <path
     d="M-0.00012207 105.447V176.092H375.031V105.447H-0.00012207ZM47.3 158.494H12.8894V124.164H19.4207V151.963H47.3V158.494ZM55.0083 158.09L79.0911 123.345L103.185 158.09H55.0083ZM152.066 143.216C150.312 145.57 148.074 146.712 145.224 146.712H117.587V158.494H111.055V124.164H145.235C148.085 124.164 150.324 125.307 152.09 127.661C153.74 129.83 154.57 132.461 154.57 135.473C154.559 138.485 153.717 141.081 152.066 143.216ZM205.921 158.494H171.51V124.164H178.042V151.963H205.921V158.494ZM215.049 158.09L239.131 123.345L263.226 158.09H215.049ZM307.687 130.696H280.57C276.785 130.696 276.219 133.2 276.219 134.688V147.982C276.219 149.47 276.785 151.974 280.57 151.974H307.687V158.506H280.57C277.5 158.506 274.973 157.525 272.838 155.494C270.715 153.486 269.688 151.028 269.688 147.993V134.688C269.688 131.653 270.726 129.195 272.838 127.188C274.973 125.157 277.5 124.176 280.57 124.176H307.687V130.696ZM361.449 130.696H331.181V138.058H359.476V144.589H331.181V151.951H361.38V158.482H324.639V124.164H361.449V130.696Z"
     fill="white"
     id="path24"
     style="fill:#4399ae;fill-opacity:1" />
</svg>
