<?xml version="1.0" encoding="UTF-8" standalone="no"?>
<svg
   data-logo="logo"
   viewBox="0 0 306.17801 101.12918"
   aria-hidden="true"
   focusable="false"
   version="1.1"
   id="svg18"
   sodipodi:docname="avl.svg"
   width="306.17801"
   height="101.12918"
   inkscape:version="1.4.3 (0d15f75, 2025-12-25)"
   xmlns:inkscape="http://www.inkscape.org/namespaces/inkscape"
   xmlns:sodipodi="http://sodipodi.sourceforge.net/DTD/sodipodi-0.dtd"
   xmlns="http://www.w3.org/2000/svg"
   xmlns:svg="http://www.w3.org/2000/svg">
  <defs
     id="defs18" />
  <sodipodi:namedview
     id="namedview18"
     pagecolor="#ffffff"
     bordercolor="#000000"
     borderopacity="0.25"
     inkscape:showpageshadow="2"
     inkscape:pageopacity="0.0"
     inkscape:pagecheckerboard="0"
     inkscape:deskcolor="#d1d1d1"
     inkscape:zoom="0.74"
     inkscape:cx="153.37838"
     inkscape:cy="50.675676"
     inkscape:current-layer="svg18" />
  <g
     stroke="none"
     stroke-width="1"
     fill="currentColor"
     fill-rule="evenodd"
     id="g18"
     transform="translate(-47.102,-35.763189)">
    <path
       d="m 278.678,102.745 h -0.007 v -0.006 0.006 c -9.773,-6.665 -16.505,-8.076 -21.322,-3.541 -4.53,4.248 -1.897,12.189 1.885,17.651 4.041,5.289 10.773,10.241 16.22,7.25 5.806,-3.175 6.541,-10.01 3.224,-21.36 m -7.596,18.322 c -2.547,2.022 -9.498,-4.606 -10.117,-5.463 h -0.007 c -0.622,-0.86 -4.772,-9.514 -2.071,-11.312 3.773,-2.519 13.185,2.665 13.474,3.032 0.265,0.395 2.286,10.935 -1.279,13.743"
       id="path2" />
    <path
       d="m 287.429,96.389 h -0.004 c -8.657,-4.062 -14.171,-3.811 -17.599,-3.188 -0.287,0.054 -0.511,0.183 -0.429,0.282 0.057,0.078 0.136,0.105 0.441,0.218 4.579,1.706 8.889,3.949 12.09,6.675 v 0.007 c 1.612,3.885 2.415,8.674 2.623,13.552 0.01,0.329 0.014,0.408 0.068,0.486 0.068,0.105 0.262,-0.065 0.408,-0.32 1.646,-3.062 3.589,-8.232 2.402,-17.705 -0.007,0 0,-0.007 0,-0.007"
       id="path3" />
    <path
       d="m 294.454,91.286 v 0.006 c -3.494,-2.192 -9.566,-2.474 -13.556,-1.305 -0.354,0.092 -0.503,0.204 -0.445,0.282 0.047,0.072 0.163,0.119 0.38,0.177 5.133,1.22 7.569,2.342 9.825,3.6 0.5,2.525 0.816,5.19 0.387,10.452 -0.01,0.221 -0.004,0.34 0.055,0.411 0.058,0.075 0.207,-0.024 0.397,-0.333 2.351,-3.43 3.957,-9.296 2.957,-13.284 v -0.006"
       id="path4" />
    <path
       d="m 309.933,112.894 h -0.004 v 0.007 l -0.003,-0.007 0.003,0.007 c -9.357,7.229 -12.783,13.185 -9.963,19.167 2.654,5.615 11.018,5.571 17.39,3.668 v -0.007 c 6.279,-2.203 13.072,-7.07 11.909,-13.172 -1.228,-6.502 -7.508,-9.31 -19.332,-9.663 m 15.086,12.875 c 1.137,3.046 -7.31,7.604 -8.323,7.934 -1.014,0.326 -10.529,1.601 -11.403,-1.523 -1.228,-4.361 6.61,-11.709 7.045,-11.866 0.452,-0.133 11.12,1.207 12.681,5.455"
       id="path5" />
    <path
       d="m 306.585,102.614 v 0 c -6.538,6.975 -8.001,12.295 -8.473,15.745 -0.034,0.282 0.02,0.537 0.139,0.489 0.092,-0.023 0.143,-0.088 0.34,-0.353 3.041,-3.824 6.504,-7.227 10.096,-9.419 v -0.007 c 0,0 0,0.007 0.007,0.007 4.194,-0.333 8.994,0.387 13.706,1.693 0.316,0.092 0.39,0.119 0.479,0.085 0.122,-0.034 0.021,-0.269 -0.176,-0.487 -2.41,-2.511 -6.726,-5.955 -16.111,-7.753 h -0.007"
       id="path6" />
    <path
       d="m 303.9,94.356 0.004,0.007 c -3.16,2.644 -5.307,8.324 -5.426,12.477 -0.021,0.367 0.037,0.544 0.133,0.51 0.081,-0.02 0.156,-0.119 0.282,-0.309 2.745,-4.497 4.564,-6.468 6.46,-8.226 2.564,0.316 5.194,0.833 10.068,2.862 0.208,0.078 0.327,0.112 0.408,0.078 0.092,-0.027 0.039,-0.203 -0.193,-0.486 -2.538,-3.287 -7.62,-6.625 -11.729,-6.906 0,0 -0.007,0 -0.007,-0.007"
       id="path7" />
    <path
       d="m 329.253,86.327 h -0.003 l 0.003,0.006 h -0.003 0.003 c 3.988,11.125 8.6,16.224 15.165,15.388 6.167,-0.786 8.705,-8.743 8.862,-15.388 v -0.006 c -0.16,-6.646 -2.691,-14.61 -8.862,-15.392 -6.565,-0.839 -11.177,4.259 -15.165,15.392 M 346.166,75.97 c 3.252,-0.14 4.981,9.293 4.974,10.357 l 0.007,0.006 c 0,1.064 -1.732,10.496 -4.977,10.364 -4.531,-0.183 -9.099,-9.898 -9.117,-10.364 0.018,-0.472 4.586,-10.193 9.113,-10.363"
       id="path8" />
    <path
       d="m 318.431,86.333 v 0 c 4.619,8.365 9.229,11.4 12.365,12.916 0.262,0.119 0.517,0.143 0.51403,0.021 0,-0.099 -0.048,-0.164 -0.23103,-0.435 -2.702,-4.072 -4.869,-8.417 -5.851,-12.502 v -0.007 c 0.986,-4.085 3.153,-8.43 5.851,-12.502 0.187,-0.268 0.23103,-0.343 0.23103,-0.435 0.003,-0.122 -0.25203,-0.099 -0.51803,0.021 -3.132,1.516 -7.749,4.551 -12.358,12.916 0,0 -0.003,0 -0.003,0.007"
       id="path9" />
    <path
       d="m 309.743,86.333 0.006,-0.007 c 1.535,3.824 6.284,7.624 10.199,9.021 0.337,0.129 0.527,0.123 0.527,0.031 0.004,-0.085 -0.064,-0.191 -0.207,-0.367 -3.437,-4.001 -4.742,-6.336 -5.831,-8.685 1.089,-2.335 2.394,-4.677 5.834,-8.678 0.14,-0.176 0.204,-0.282 0.197,-0.367 0.004,-0.092 -0.18,-0.099 -0.516,0.031 -3.919,1.4 -8.668,5.197 -10.203,9.014 l -0.006,0.007"
       id="path10" />
    <path
       d="m 309.933,59.759 h 0.007 c 11.824,-0.353 18.1,-3.161 19.332,-9.663 1.159,-6.102 -5.634,-10.976 -11.906,-13.172 h -0.007 c -6.375,-1.904 -14.739,-1.961 -17.386,3.661 -2.827,5.982 0.599,11.937 9.96,19.174 M 305.3,40.479 c 0.87,-3.13 10.392,-1.856 11.399,-1.529 h 0.004 c 1.013,0.33 9.46,4.888 8.33,7.933 -1.575,4.249 -12.233,5.589 -12.685,5.463 -0.442,-0.164 -8.283,-7.512 -7.048,-11.867"
       id="path11" />
    <path
       d="m 306.591,70.038 h 0.007 c 9.389,-1.798 13.702,-5.241 16.11,-7.753 0.198,-0.217 0.303,-0.452 0.177,-0.486 -0.092,-0.034 -0.166,-0.007 -0.482,0.085 -4.712,1.312 -9.512,2.029 -13.706,1.699 h -0.003 l -0.004,-0.006 c -3.588,-2.196 -7.055,-5.595 -10.096,-9.419 -0.194,-0.262 -0.248,-0.33 -0.337,-0.353 -0.119,-0.048 -0.174,0.207 -0.139,0.496 0.469,3.45 1.935,8.773 8.47,15.737 0.003,-0.006 0.003,0 0.003,0"
       id="path12" />
    <path
       d="m 303.91,78.297 -0.003,-0.007 c 4.116,-0.282 9.198,-3.613 11.735,-6.906 0.225,-0.283 0.286,-0.459 0.194,-0.494 -0.082,-0.027 -0.201,0.007 -0.415,0.085 -4.871,2.03 -7.497,2.553 -10.062,2.863 -1.891,-1.761 -3.715,-3.729 -6.463,-8.226 -0.122,-0.191 -0.201,-0.283 -0.286,-0.303 -0.088,-0.034 -0.153,0.136 -0.126,0.503 0.119,4.154 2.265,9.841 5.423,12.478 0,0 0,0.007 0.003,0.007"
       id="path13" />
    <path
       d="m 278.675,69.907 h 0.003 V 69.9 c 3.317,-11.343 2.582,-18.178 -3.222,-21.359 -5.445,-2.984 -12.184,1.961 -16.218,7.25 -3.78,5.469 -6.419,13.402 -1.885,17.651 4.813,4.541 11.549,3.124 21.322,-3.535 m -19.781,-1.553 c -2.708,-1.798 1.442,-10.452 2.072,-11.305 v -0.007 c 0.622,-0.857 7.575,-7.478 10.119,-5.463 3.562,2.808 1.541,13.349 1.284,13.743 -0.296,0.367 -9.706,5.55 -13.475,3.032"
       id="path14" />
    <path
       d="m 287.429,76.257 h 0.003 c 1.184,-9.48 -0.759,-14.643 -2.405,-17.713 -0.146,-0.255 -0.336,-0.425 -0.408,-0.319 -0.051,0.078 -0.054,0.163 -0.065,0.486 -0.207,4.878 -1.01,9.667 -2.619,13.552 v 0.007 h -0.007 c -3.197,2.726 -7.508,4.969 -12.086,6.676 -0.309,0.112 -0.388,0.139 -0.438,0.217 -0.082,0.099 0.142,0.228 0.427,0.282 3.426,0.622 8.944,0.874 17.594,-3.181 0,-0.007 0.004,-0.007 0.004,-0.007"
       id="path15" />
    <path
       d="m 294.459,81.36 h -0.006 c 1.003,-3.993 -0.602,-9.86 -2.946,-13.283 -0.197,-0.31 -0.353,-0.415 -0.408,-0.333 -0.055,0.064 -0.058,0.183 -0.051,0.411 0.428,5.255 0.109,7.913 -0.388,10.449 -2.251,1.254 -4.688,2.376 -9.824,3.603 -0.215,0.051 -0.334,0.099 -0.378,0.17 -0.057,0.078 0.089,0.19 0.443,0.282 3.986,1.169 10.065,0.887 13.552,-1.299 h 0.006"
       id="path16" />
    <path
       d="M 130.487,101.939 C 127.925,95.963 114.278,64.08 114.278,64.08 h -11.95 l 26.196,61.19 h 4.136 l 25.805,-61.19 h -11.909 c 0,0 -13.532,31.876 -16.069,37.859 m 51.977,12.485 V 64.08 h -11.62 v 61.19 h 43.864 v -10.846 h -32.244"
       id="path17"
       inkscape:label="path17" />
    <path
       d="m 81.231,64.08 h -8.045 l -26.084,61.19 h 12.117 c 0,0 5.255,-12.458 5.997,-14.212 h 24.852 c 0.766,1.704 6.392,14.212 6.392,14.212 h 12.1 z m 4.031,36.306 H 69.723 c 1.33,-3.155 5.616,-13.301 7.524,-17.825 2.014,4.487 6.576,14.633 8.015,17.825 z"
       id="path18" />
  </g>
</svg>
