<?xml version="1.0" encoding="UTF-8" standalone="no"?>
<!-- Created with Inkscape (http://www.inkscape.org/) -->

<svg
   version="1.1"
   id="svg1"
   width="114.83888"
   height="48.665138"
   viewBox="0 0 114.83888 48.665138"
   sodipodi:docname="b2m.svg"
   inkscape:version="1.4.3 (0d15f75, 2025-12-25)"
   xmlns:inkscape="http://www.inkscape.org/namespaces/inkscape"
   xmlns:sodipodi="http://sodipodi.sourceforge.net/DTD/sodipodi-0.dtd"
   xmlns="http://www.w3.org/2000/svg"
   xmlns:svg="http://www.w3.org/2000/svg">
  <defs
     id="defs1" />
  <sodipodi:namedview
     id="namedview1"
     pagecolor="#ffffff"
     bordercolor="#000000"
     borderopacity="0.25"
     inkscape:showpageshadow="2"
     inkscape:pageopacity="0.0"
     inkscape:pagecheckerboard="0"
     inkscape:deskcolor="#d1d1d1"
     showgrid="false"
     inkscape:zoom="1.65"
     inkscape:cx="57.575758"
     inkscape:cy="23.939394"
     inkscape:current-layer="g1" />
  <g
     inkscape:groupmode="layer"
     inkscape:label="Image"
     id="g1"
     transform="translate(-82.161119,-37.334871)">
    <g
       id="g2">
      <path
         style="fill:#dfe9a0"
         d="m 82.448877,84.727371 c -0.268595,-0.699946 -0.366972,-11.387446 -0.218615,-23.75 L 82.5,38.5 87,38.177148 c 8.094403,-0.580733 13.08631,0.709161 16.68972,4.312576 4.00113,4.001126 4.43734,9.149269 1.22211,14.423276 -1.66934,2.738265 -1.81687,3.572839 -0.74626,4.221512 2.59166,1.570252 3.4674,2.390406 5.09759,4.774033 1.54963,2.265823 1.52735,2.576922 -0.37605,5.25 C 106.29788,74.794771 105,74.766067 105,71.07258 105,66.508705 101.05037,64 93.865141,64 H 88 v 8.616497 8.616497 l 6.75,-0.709587 6.75,-0.709587 -2.937091,3.09309 C 95.881532,85.730704 95.073459,86 89.281524,86 85.068414,86 82.773182,85.572497 82.448877,84.727371 Z M 97.385358,56.87028 C 100.6754,55.371237 102.55209,50.900104 101.06082,48.113646 99.520481,45.235493 96.818898,44 92.065741,44 H 88 v 7 7 h 3.452947 c 1.899121,0 4.568706,-0.508374 5.932411,-1.12972 z M 110,85.367579 c 0,-0.347831 4.66387,-5.635331 10.36416,-11.75 16.43783,-17.632772 18.21947,-21.393656 13.04695,-27.540854 -5.03319,-5.981597 -15.54364,-3.217661 -16.98522,4.466606 C 115.91738,53.253913 115.29781,54 113.55538,54 c -3.1641,0 -3.44273,-0.605973 -2.31733,-5.039727 1.31848,-5.194399 7.17574,-10.516489 12.57858,-11.429293 8.61402,-1.45533 17.17137,5.394251 17.17963,13.751139 0.006,5.883879 -2.04778,9.477844 -11.26683,19.717881 l -8.55279,9.5 9.68601,0.282492 c 8.54302,0.249156 10.03715,0.569422 12.66168,2.714037 l 2.97567,2.431545 -18.25,0.03596 C 118.2125,85.983817 110,85.715411 110,85.367579 Z m 48.47513,-15.417633 c -8.88187,-17.875342 -8.4455,-17.736093 -10.0278,-3.199946 -0.37418,3.4375 -0.99189,6.25 -1.3727,6.25 -0.3808,0 -1.5339,-0.615341 -2.56244,-1.367425 -1.81376,-1.326259 -1.81838,-1.740198 -0.15344,-13.75 C 146.72791,40.792984 147.08885,39 148.15995,39 c 0.51555,0 5.02229,8.4375 10.01497,18.75 l 9.07761,18.75 9.474,-19.5 c 7.65615,-15.758365 9.63495,-19.116243 10.31275,-17.5 0.46131,1.1 2.01002,10.55 3.44157,21 1.43156,10.45 2.86571,20.497863 3.18702,22.328584 0.55872,3.183448 0.4594,3.314257 -2.27788,3 L 188.52791,85.5 l -2.18999,-15 c -1.20449,-8.25 -2.24702,-15.225 -2.31673,-15.5 -0.0697,-0.275 -3.70576,6.5875 -8.08011,15.25 -4.37434,8.6625 -8.29933,15.75 -8.72219,15.75 -0.42286,0 -4.35755,-7.222524 -8.74376,-16.050054 z m 31.24402,-29.915903 c -0.46527,-1.779204 -0.0744,-1.994382 3.37734,-1.85913 2.88064,0.112874 3.90351,0.580519 3.90351,1.784634 0,1.141924 -1.01372,1.69995 -3.37734,1.859131 -2.65107,0.17854 -3.49048,-0.205228 -3.90351,-1.784635 z"
         id="path8" />
      <path
         style="fill:#cddc6b"
         d="m 82.785232,62.403381 c -0.156877,-12.97814 -0.03934,-23.748081 0.261195,-23.933202 0.300535,-0.185121 4.55141,0.02845 9.446388,0.474609 8.246165,0.751601 9.105915,1.041694 11.703575,3.948978 3.71474,4.157516 3.83818,9.723263 0.30869,13.917827 l -2.49492,2.965044 2.74492,1.786542 c 5.48393,3.569239 6.37037,6.190591 3.37927,9.993149 l -1.86565,2.371787 -0.89259,-3.112289 C 104.14687,66.529701 100.53509,64.239516 93.75,63.443843 L 88,62.769553 v 9.252134 9.252134 l 6.583163,-0.528433 6.583167,-0.528434 -2.770258,2.891523 C 95.917151,85.695914 94.965628,86 89.348141,86 H 83.070465 Z M 97.928479,56.536985 C 102.45701,54.195189 103.39977,49.39977 100,46 98.533333,44.533333 96.666667,44 93,44 h -5 v 7 7 h 3.54966 c 1.952313,0 4.822781,-0.658357 6.378819,-1.463015 z M 111.617,83.75 c 1.0811,-1.2375 6.25029,-6.975 11.4871,-12.75 5.2368,-5.775 10.28071,-11.612628 11.20868,-12.972506 2.12096,-3.10812 2.16902,-8.362536 0.10531,-11.512157 -1.89424,-2.890986 -7.23046,-4.851518 -10.78008,-3.960619 -3.51214,0.881491 -7.27114,4.860945 -7.99085,8.459487 C 115.20588,53.220616 114.48726,54 112.89416,54 c -1.91739,0 -2.09112,-0.398836 -1.57071,-3.605771 1.34114,-8.264444 7.16395,-12.697865 15.93767,-12.134756 4.92257,0.315937 6.26352,0.856695 9.21273,3.715181 4.58618,4.445097 5.52815,10.029995 2.72608,16.162652 C 138.10358,60.536788 133.50421,66.55 128.97912,71.5 l -8.22745,9 9.87416,0.5 C 139.81869,81.4655 145,82.994048 145,85.240547 145,85.658246 137.04656,86 127.32569,86 h -17.67432 z m 46.88134,-13.753346 c -8.66379,-17.436427 -8.74706,-17.480196 -9.97452,-5.2427 -0.40018,3.989674 -1.02421,7.43727 -1.38674,7.661324 -0.36252,0.224054 -1.48497,-0.19649 -2.49431,-0.934542 -1.77563,-1.298373 -1.76127,-1.847071 0.4426,-16.911324 C 146.33815,46.006235 147.62459,39 147.94412,39 c 0.31954,0 4.79207,8.436811 9.93897,18.74847 l 9.35799,18.748469 9.43851,-18.856087 c 5.19118,-10.370848 9.6721,-18.622496 9.9576,-18.336994 0.2855,0.285501 1.82136,9.671429 3.41301,20.857618 1.59166,11.186188 3.12024,21.576024 3.39686,23.088524 0.43711,2.390036 0.18147,2.75 -1.95301,2.75 -2.89933,0 -2.8745,0.08386 -5.03428,-17 -0.86915,-6.875 -1.7907,-13.131979 -2.04788,-13.904399 -0.25719,-0.772419 -4.03582,5.865081 -8.39695,14.75 C 171.6538,78.730521 167.7176,86 167.26783,86 c -0.44978,0 -4.39605,-7.201506 -8.76949,-16.003346 z M 192.25,41.210224 C 191.0125,41.018095 190,40.217196 190,39.430449 c 0,-1.758137 3.64001,-1.909561 4.33772,-0.180449 0.40351,1 0.52017,1 0.58333,0 C 195.04692,37.25711 197,37.805126 197,39.833333 c 0,1.843447 -0.60861,2.019867 -4.75,1.376891 z"
         id="path7" />
      <path
         style="fill:#9d9da0"
         d="m 82.785232,62.403381 c -0.156877,-12.97814 -0.03934,-23.748081 0.261195,-23.933202 0.300535,-0.185121 4.55141,0.02845 9.446388,0.474609 8.246165,0.751601 9.105915,1.041694 11.703575,3.948978 3.71474,4.157516 3.83818,9.723263 0.30869,13.917827 l -2.49492,2.965044 2.74492,1.786542 c 5.48393,3.569239 6.37037,6.190591 3.37927,9.993149 l -1.86565,2.371787 -0.89259,-3.112289 C 104.14687,66.529701 100.53509,64.239516 93.75,63.443843 L 88,62.769553 v 9.252134 9.252134 l 6.583163,-0.528433 6.583167,-0.528434 -2.770258,2.891523 C 95.917151,85.695914 94.965628,86 89.348141,86 H 83.070465 Z M 97.928479,56.536985 C 102.45701,54.195189 103.39977,49.39977 100,46 98.533333,44.533333 96.666667,44 93,44 h -5 v 7 7 h 3.54966 c 1.952313,0 4.822781,-0.658357 6.378819,-1.463015 z m 27.755441,28.714779 -14.81608,-0.305987 2.66686,-3.222889 c 1.46677,-1.772588 5.43401,-6.158704 8.81608,-9.746924 10.87373,-11.536524 11.78565,-12.687268 13.11239,-16.546504 2.58182,-7.510003 -2.4903,-14.012429 -10.25375,-13.145247 -5.04556,0.563592 -7.71204,2.678685 -9.24933,7.336706 -0.78,2.363443 -1.7256,3.379081 -3.14605,3.379081 -1.71315,0 -1.92481,-0.430207 -1.35296,-2.75 3.15094,-12.782336 18.57231,-16.650776 26.45062,-6.635121 1.57022,1.996202 2.0883,4.087638 2.0883,8.430182 0,5.218959 -0.38183,6.258394 -3.96344,10.789475 -2.1799,2.757772 -6.73149,7.973181 -10.11466,11.589798 L 119.77069,81 h 9.89215 c 7.52032,0 10.44945,0.390352 12.2165,1.628039 1.82119,1.275612 2.03171,1.813481 0.97251,2.484687 -0.74352,0.471157 -1.57685,0.764033 -1.85185,0.650837 -0.275,-0.113196 -7.16724,-0.343506 -15.31608,-0.511799 z m 32.81442,-15.25511 c -8.66379,-17.436427 -8.74706,-17.480196 -9.97452,-5.2427 -0.40018,3.989674 -1.02421,7.43727 -1.38674,7.661324 -0.36252,0.224054 -1.48497,-0.19649 -2.49431,-0.934542 -1.77563,-1.298373 -1.76127,-1.847071 0.4426,-16.911324 C 146.33815,46.006235 147.62459,39 147.94412,39 c 0.31954,0 4.79207,8.436811 9.93897,18.74847 l 9.35799,18.748469 9.43851,-18.856087 c 5.19118,-10.370848 9.6721,-18.622496 9.9576,-18.336994 0.2855,0.285501 1.82136,9.671429 3.41301,20.857618 1.59166,11.186188 3.12024,21.576024 3.39686,23.088524 0.43711,2.390036 0.18147,2.75 -1.95301,2.75 -2.89933,0 -2.8745,0.08386 -5.03428,-17 -0.86915,-6.875 -1.7907,-13.131979 -2.04788,-13.904399 -0.25719,-0.772419 -4.03582,5.865081 -8.39695,14.75 C 171.6538,78.730521 167.7176,86 167.26783,86 c -0.44978,0 -4.39605,-7.201506 -8.76949,-16.003346 z M 192.25,41.210224 C 191.0125,41.018095 190,40.217196 190,39.430449 c 0,-1.758137 3.64001,-1.909561 4.33772,-0.180449 0.40351,1 0.52017,1 0.58333,0 C 195.04692,37.25711 197,37.805126 197,39.833333 c 0,1.843447 -0.60861,2.019867 -4.75,1.376891 z"
         id="path6" />
      <path
         style="fill:#c2da13"
         d="m 125.68392,85.251764 -14.81608,-0.305987 2.66686,-3.222889 c 1.46677,-1.772588 5.43401,-6.158704 8.81608,-9.746924 10.87373,-11.536524 11.78565,-12.687268 13.11239,-16.546504 2.58182,-7.510003 -2.4903,-14.012429 -10.25375,-13.145247 -5.04556,0.563592 -7.71204,2.678685 -9.24933,7.336706 -0.78,2.363443 -1.7256,3.379081 -3.14605,3.379081 -1.71315,0 -1.92481,-0.430207 -1.35296,-2.75 3.15094,-12.782336 18.57231,-16.650776 26.45062,-6.635121 1.57022,1.996202 2.0883,4.087638 2.0883,8.430182 0,5.218959 -0.38183,6.258394 -3.96344,10.789475 -2.1799,2.757772 -6.73149,7.973181 -10.11466,11.589798 L 119.77069,81 h 9.89215 c 7.52032,0 10.44945,0.390352 12.2165,1.628039 1.82119,1.275612 2.03171,1.813481 0.97251,2.484687 -0.74352,0.471157 -1.57685,0.764033 -1.85185,0.650837 -0.275,-0.113196 -7.16724,-0.343506 -15.31608,-0.511799 z M 83,62 V 39 h 7.032119 c 9.212883,0 13.588011,1.846596 15.560571,6.567601 1.76661,4.228081 1.17838,8.182419 -1.77584,11.938101 -1.12467,1.429793 -1.88106,2.712122 -1.68085,2.84962 0.2002,0.137499 1.62199,1.037601 3.15954,2.000228 4.20064,2.629939 5.4811,6.128796 3.17533,8.676635 -1.84092,2.034195 -1.84964,2.03046 -2.90866,-1.245937 C 104.18549,65.526964 99.234451,63.003621 92.25,63.001554 L 87,63 v 9 9 h 6 c 3.3,0 6,0.36 6,0.8 0,2.180809 -2.930175,3.2 -9.2,3.2 H 83 Z m 15.913425,-5.776105 c 1.743975,-1.296282 2.683815,-3.047021 2.885085,-5.37435 0.41553,-4.804948 -2.337446,-7.063837 -9.314007,-7.642388 L 87,42.75234 v 7.457163 c 0,4.10144 0.3375,7.799078 0.75,8.216974 1.245404,1.261695 8.402525,-0.15043 11.163425,-2.202582 z M 158.33115,68.75 c -4.73703,-9.456151 -8.36078,-15.622875 -8.66752,-14.75 -0.28992,0.825 -1.06097,5.484368 -1.71345,10.35415 -1.13823,8.495206 -1.2574,8.778984 -2.93964,7 -1.67225,-1.768422 -1.64856,-2.524569 0.5123,-16.35415 1.24609,-7.975 2.33716,-14.725 2.42461,-15 0.0874,-0.275 4.48236,8.05 9.76648,18.5 l 9.6075,19 9.1678,-18.745187 c 5.0423,-10.309852 9.39469,-18.972061 9.67198,-19.249353 0.27729,-0.277291 1.72728,8.158043 3.22221,18.745187 1.49492,10.587144 2.97772,20.936853 3.29512,22.999353 0.50542,3.284356 0.32668,3.75 -1.43944,3.75 -2.29385,0 -2.29529,-0.0057 -4.80648,-19 -0.90893,-6.875 -1.80131,-12.66071 -1.98307,-12.857132 -0.18177,-0.196423 -3.95992,6.891077 -8.3959,15.75 C 171.61766,77.75179 167.64697,85 167.22989,85 c -0.41709,0 -4.42152,-7.3125 -8.89874,-16.25 z m 35.27186,-28.583333 c -0.28327,-0.458334 0.12038,-0.833334 0.89699,-0.833334 0.77661,0 1.18026,0.375 0.89699,0.833334 C 195.11373,40.625 194.71008,41 194.5,41 c -0.21008,0 -0.61373,-0.375 -0.89699,-0.833333 z"
         id="path5" />
      <path
         style="fill:#bbd300"
         d="M 83,62 V 39 h 7.032119 c 9.212883,0 13.588011,1.846596 15.560571,6.567601 1.76661,4.228081 1.17838,8.182419 -1.77584,11.938101 -1.12467,1.429793 -1.88106,2.712122 -1.68085,2.84962 0.2002,0.137499 1.62199,1.037601 3.15954,2.000228 4.20064,2.629939 5.4811,6.128796 3.17533,8.676635 -1.84092,2.034195 -1.84964,2.03046 -2.90866,-1.245937 C 104.18549,65.526964 99.234451,63.003621 92.25,63.001554 L 87,63 v 9 9 h 6 c 3.3,0 6,0.36 6,0.8 0,2.180809 -2.930175,3.2 -9.2,3.2 H 83 Z m 15.913425,-5.776105 c 1.743975,-1.296282 2.683815,-3.047021 2.885085,-5.37435 0.41553,-4.804948 -2.337446,-7.063837 -9.314007,-7.642388 L 87,42.75234 v 7.457163 c 0,4.10144 0.3375,7.799078 0.75,8.216974 1.245404,1.261695 8.402525,-0.15043 11.163425,-2.202582 z M 114.80558,80.75 c 22.11036,-23.998027 23.02385,-25.446678 20.8282,-33.03027 -0.67195,-2.320851 -1.76444,-4.27598 -2.42775,-4.34473 -0.66332,-0.06875 -1.68259,-0.18125 -2.26505,-0.25 -0.58246,-0.06875 -0.83277,-0.491077 -0.55624,-0.938505 0.27653,-0.447428 -1.79648,-0.518538 -4.60668,-0.158022 -3.67029,0.470854 -5.70809,1.351437 -7.23479,3.126327 -1.16893,1.358964 -2.96961,2.794826 -4.00152,3.190805 -1.42998,0.548735 -1.59859,0.997554 -0.70897,1.887178 C 115.58799,51.987994 115.24431,53 112.89301,53 c -1.51045,0 -1.93514,-0.447838 -1.5,-1.581787 C 111.72686,50.548229 112,49.213888 112,48.453009 c 0,-2.541596 6.13222,-8.412341 9.99628,-9.570042 5.6248,-1.685229 10.82549,-0.351701 14.71592,3.773358 2.86151,3.034075 3.2878,4.170464 3.2878,8.764396 0,6.278227 -1.87858,9.400941 -12.7566,21.204958 L 119.9868,80.5 l 9.7566,0.291916 c 7.8202,0.23398 10.25278,0.676127 12.2566,2.227765 l 2.5,1.935847 -16.80506,0.02224 L 110.88989,85 Z m 43.52557,-12 c -4.73703,-9.456151 -8.36078,-15.622875 -8.66752,-14.75 -0.28992,0.825 -1.06097,5.484368 -1.71345,10.35415 -1.13823,8.495206 -1.2574,8.778984 -2.93964,7 -1.67225,-1.768422 -1.64856,-2.524569 0.5123,-16.35415 1.24609,-7.975 2.33716,-14.725 2.42461,-15 0.0874,-0.275 4.48236,8.05 9.76648,18.5 l 9.6075,19 9.1678,-18.745187 c 5.0423,-10.309852 9.39469,-18.972061 9.67198,-19.249353 0.27729,-0.277291 1.72728,8.158043 3.22221,18.745187 1.49492,10.587144 2.97772,20.936853 3.29512,22.999353 0.50542,3.284356 0.32668,3.75 -1.43944,3.75 -2.29385,0 -2.29529,-0.0057 -4.80648,-19 -0.90893,-6.875 -1.80131,-12.66071 -1.98307,-12.857132 -0.18177,-0.196423 -3.95992,6.891077 -8.3959,15.75 C 171.61766,77.75179 167.64697,85 167.22989,85 c -0.41709,0 -4.42152,-7.3125 -8.89874,-16.25 z m 35.27186,-28.583333 c -0.28327,-0.458334 0.12038,-0.833334 0.89699,-0.833334 0.77661,0 1.18026,0.375 0.89699,0.833334 C 195.11373,40.625 194.71008,41 194.5,41 c -0.21008,0 -0.61373,-0.375 -0.89699,-0.833333 z"
         id="path4" />
      <path
         style="fill:#5a5961"
         d="M 83,62 V 39 h 7.032119 c 9.212883,0 13.588011,1.846596 15.560571,6.567601 1.76661,4.228081 1.17838,8.182419 -1.77584,11.938101 -1.12467,1.429793 -1.88106,2.712122 -1.68085,2.84962 0.2002,0.137499 1.62199,1.037601 3.15954,2.000228 4.20064,2.629939 5.4811,6.128796 3.17533,8.676635 -1.84092,2.034195 -1.84964,2.03046 -2.90866,-1.245937 C 104.18549,65.526964 99.234451,63.003621 92.25,63.001554 L 87,63 v 9 9 h 6 c 3.3,0 6,0.36 6,0.8 0,2.180809 -2.930175,3.2 -9.2,3.2 H 83 Z m 15.913425,-5.776105 c 1.743975,-1.296282 2.683815,-3.047021 2.885085,-5.37435 0.41553,-4.804948 -2.337446,-7.063837 -9.314007,-7.642388 L 87,42.75234 v 7.457163 c 0,4.10144 0.3375,7.799078 0.75,8.216974 1.245404,1.261695 8.402525,-0.15043 11.163425,-2.202582 z M 158.33115,68.75 c -4.73703,-9.456151 -8.36078,-15.622875 -8.66752,-14.75 -0.28992,0.825 -1.06097,5.484368 -1.71345,10.35415 -1.13823,8.495206 -1.2574,8.778984 -2.93964,7 -1.67225,-1.768422 -1.64856,-2.524569 0.5123,-16.35415 1.24609,-7.975 2.33716,-14.725 2.42461,-15 0.0874,-0.275 4.48236,8.05 9.76648,18.5 l 9.6075,19 9.1678,-18.745187 c 5.0423,-10.309852 9.39469,-18.972061 9.67198,-19.249353 0.27729,-0.277291 1.72728,8.158043 3.22221,18.745187 1.49492,10.587144 2.97772,20.936853 3.29512,22.999353 0.50542,3.284356 0.32668,3.75 -1.43944,3.75 -2.29385,0 -2.29529,-0.0057 -4.80648,-19 -0.90893,-6.875 -1.80131,-12.66071 -1.98307,-12.857132 -0.18177,-0.196423 -3.95992,6.891077 -8.3959,15.75 C 171.61766,77.75179 167.64697,85 167.22989,85 c -0.41709,0 -4.42152,-7.3125 -8.89874,-16.25 z m 35.27186,-28.583333 c -0.28327,-0.458334 0.12038,-0.833334 0.89699,-0.833334 0.77661,0 1.18026,0.375 0.89699,0.833334 C 195.11373,40.625 194.71008,41 194.5,41 c -0.21008,0 -0.61373,-0.375 -0.89699,-0.833333 z"
         id="path3" />
      <path
         style="fill:#56565c"
         d="m 93.393755,83.171908 c 0.381656,-0.617532 -0.688103,-1.214144 -2.624771,-1.463852 -1.797941,-0.23182 -0.661565,-0.415888 2.52528,-0.409038 5.743416,0.01234 6.407692,0.809154 1.830507,2.195721 -1.550804,0.469785 -2.151628,0.357733 -1.731016,-0.322831 z M 166,82 c 0,-1.111111 0.66667,-2 1.5,-2 0.83333,0 1.5,0.888889 1.5,2 0,1.111111 -0.66667,2 -1.5,2 -0.83333,0 -1.5,-0.888889 -1.5,-2 z m 22.49565,-5.75 c -0.37124,-4.2625 -1.32132,-10.640814 -2.11129,-14.174031 -0.98177,-4.39109 -1.11162,-6.748707 -0.41033,-7.45 1.5495,-1.549502 1.23394,-2.619818 -0.72403,-2.455736 -0.9625,0.08066 -2.55503,0.07535 -3.53896,-0.01179 -1.67164,-0.148054 -1.66006,-0.296791 0.17653,-2.268136 1.09927,-1.179927 1.70099,-2.798929 1.36534,-3.673609 -0.42476,-1.106905 -0.15668,-1.393751 0.91736,-0.981603 1.16104,0.445536 1.44515,-0.04218 1.20952,-2.076391 -0.19689,-1.699863 -0.10558,-1.93742 0.25319,-0.658705 0.30863,1.1 0.96747,2.4275 1.46408,2.95 1.33415,1.403689 1.0962,4.545083 -0.34706,4.581803 -0.80942,0.02059 -0.67726,0.467808 0.37498,1.268828 1.83816,1.399304 3.86872,14.431546 2.07596,13.323555 -0.56395,-0.348541 -0.92071,0.07942 -0.79278,0.951019 0.12792,0.871602 0.76539,1.914021 1.41659,2.316487 0.65121,0.402466 1.14744,1.828981 1.10275,3.170032 -0.0447,1.341052 0.3926,4.238276 0.97176,6.438276 1.47674,5.60951 1.36523,6.5 -0.81394,6.5 -1.66347,0 -2.00324,-1.016805 -2.58967,-7.749999 z M 85.161758,71.95 85.323516,61.5 85.99577,71 c 0.36974,5.225 0.296949,9.9275 -0.161758,10.45 -0.458706,0.5225 -0.761221,-3.7525 -0.672254,-9.5 z m 84.456092,6.240679 c -0.34769,-0.562566 -0.1473,-2.298109 0.44529,-3.856763 0.5926,-1.558654 1.04582,-2.946416 1.00716,-3.083916 -0.57911,-2.059435 1.98858,-2.61175 3.65076,-0.785286 0.42842,0.470765 0.26359,0.561375 -0.36628,0.201355 -1.33921,-0.765468 -2.66588,2.021543 -1.70352,3.578682 0.41774,0.675916 0.17447,0.765576 -0.66669,0.245713 -0.93354,-0.57696 -1.15402,-0.374438 -0.74703,0.686175 0.71249,1.856725 -0.70487,4.494254 -1.61969,3.01404 z m -7.63597,-4.616936 c -1.38111,-2.861337 -1.37104,-3.145172 0.11165,-3.145172 1.99873,0 4.26621,5.226165 2.54532,5.866549 -0.62637,0.233087 -1.822,-0.991532 -2.65697,-2.721377 z m -55.90293,-2.157076 c 0.048,-1.164943 0.28494,-1.4019 0.60416,-0.604167 0.28887,0.721875 0.25335,1.584375 -0.0789,1.916667 -0.3323,0.332291 -0.56864,-0.258334 -0.52522,-1.3125 z m 39.65156,-0.01949 c -0.33155,-0.331552 -0.16896,-1.743962 0.36131,-3.138688 0.53028,-1.394726 0.73914,-2.760866 0.46414,-3.035866 -0.275,-0.275 -0.95146,0.68741 -1.50323,2.138689 -1.32834,3.493798 -1.80901,3.338183 -1.25923,-0.407675 0.24591,-1.675499 0.68907,-2.804403 0.98479,-2.508676 0.29573,0.295728 1.1059,0.06612 1.80037,-0.510246 0.99447,-0.825338 1.15785,-0.135369 0.76912,3.248236 -0.53675,4.672101 -0.70943,5.122062 -1.61727,4.214226 z m 14.08199,-3.080291 c 0.72187,-0.288871 1.58437,-0.253344 1.91667,0.07895 0.33229,0.332292 -0.25834,0.568641 -1.3125,0.52522 -1.16495,-0.04798 -1.4019,-0.284941 -0.60417,-0.604167 z M 98.689421,63.594041 c -1.955031,-0.711411 -2.672251,-1.551695 -2.356158,-2.76044 0.249932,-0.955738 -0.06031,-1.966425 -0.689421,-2.245969 -0.629113,-0.279544 -0.0054,-0.277197 1.386045,0.0052 2.176586,0.441771 2.710102,0.0151 3.820343,-3.055225 0.70976,-1.962786 1.66166,-3.339295 2.11533,-3.058907 0.92815,0.573626 2.37216,-2.474331 1.55798,-3.288511 -0.28795,-0.287946 -0.53043,0.113962 -0.53885,0.893128 C 103.97208,51.249797 103.79817,51.235079 103,50 c -1.27601,-1.97449 -1.27601,-7 0,-7 0.55,0 1,0.675 1,1.5 0,0.825 0.40122,1.5 0.89159,1.5 1.39486,0 2.34243,5.165984 1.16377,6.344645 C 105.47491,52.92509 105,54.252129 105,55.29362 c 0,1.052615 -0.88825,2.125902 -2,2.416631 -2.9746,0.777876 -2.32867,4.401048 0.97421,5.464541 1.09704,0.353235 0.96911,0.598422 -0.5,0.958331 -1.08582,0.266008 -3.23897,0.02342 -4.784789,-0.539082 z M 155.83772,61.778008 C 155.14328,60.525104 154.6707,59.1625 154.78755,58.75 154.9044,58.3375 154.56412,58 154.03138,58 c -0.53273,0 -0.68126,-0.74882 -0.33006,-1.664045 0.47563,-1.239469 0.27626,-1.45371 -0.78138,-0.839675 -0.78097,0.453404 -1.10387,0.473653 -0.71756,0.045 0.84428,-0.936826 -2.02928,-4.047715 -2.91799,-3.158997 -0.34121,0.341207 -0.65728,2.492743 -0.70239,4.781191 -0.0875,4.440634 -1.99145,6.272561 -3.05065,2.935288 -0.78895,-2.485746 0.39015,-9.265307 1.49289,-8.583779 1.30955,0.809347 1.75042,-1.840987 0.69719,-4.191239 -1.18651,-2.647642 -0.0375,-8.453163 1.25813,-6.356817 0.46318,0.749438 0.6831,2.188469 0.48871,3.197845 C 149.2738,45.174552 149.69148,46 150.3969,46 c 1.98734,0 3.70925,4.491793 2.27577,5.936576 -0.90014,0.907237 -0.72784,1.012452 0.74137,0.452731 1.33591,-0.508933 1.69565,-0.375802 1.19099,0.440754 C 154.20734,53.473528 154.3444,54 154.9096,54 c 0.5652,0 0.77006,0.671207 0.45526,1.491571 -0.3288,0.856832 0.12097,1.75763 1.05691,2.116783 1.21117,0.464769 1.35188,0.959461 0.5483,1.927707 -0.80235,0.966777 -0.64696,1.545383 0.60289,2.244834 1.08259,0.605847 1.29885,1.180296 0.60563,1.608731 -0.59303,0.366515 -1.64642,-0.358713 -2.34087,-1.611618 z m 19.83817,0.819758 c -0.65901,-1.717362 0.14182,-2.620655 2.24078,-2.527481 1.1645,0.05169 1.05428,0.297628 -0.41667,0.929715 -1.1,0.472686 -1.4375,0.891058 -0.75,0.929715 C 177.4375,61.968372 178,62.45 178,63 c 0,1.499391 -1.70781,1.20382 -2.32411,-0.402234 z M 89,61.583333 c 0,-0.779166 -0.5625,-1.64364 -1.25,-1.921052 -0.6875,-0.277413 -0.0493,-0.539913 1.418213,-0.583334 C 92.788767,58.971822 95,59.930377 95,61.606989 95,62.488112 93.897595,63 92,63 90.078431,63 89,62.490741 89,61.583333 Z M 85,48.5 V 39 l 5.75,0.07028 c 3.1625,0.03866 6.65,0.493491 7.75,1.010743 1.48806,0.699729 1.040112,0.798124 -1.75,0.384402 C 93.794573,40.027194 93,40.236804 93,41.454687 93,42.531476 92.014552,43 89.749735,43 h -3.250264 l 2.64e-4,7.497624 c 1.46e-4,4.123694 -0.337235,7.498694 -0.749735,7.5 C 85.3375,57.998931 85,53.725 85,48.5 Z m 93.63595,6.006312 c 0.22892,-0.596548 1.27888,-1.149616 2.33325,-1.229039 1.24168,-0.09353 1.73247,0.336596 1.39312,1.220925 -0.28816,0.750932 -1.33813,1.303999 -2.33325,1.229038 -0.99513,-0.07496 -1.62204,-0.624377 -1.39312,-1.220924 z"
         id="path2" />
    </g>
  </g>
</svg>
