<?xml version="1.0" encoding="utf-8"?>
<!-- Generator: Adobe Illustrator 19.2.1, SVG Export Plug-In . SVG Version: 6.00 Build 0)  -->
<svg version="1.1" id="layer" xmlns="http://www.w3.org/2000/svg" xmlns:xlink="http://www.w3.org/1999/xlink" x="0px" y="0px"
	 viewBox="0 0 652 652" style="enable-background:new 0 0 652 652;" xml:space="preserve">
<style type="text/css">
	.st0{fill:#CC151A;}
</style>
<g>
	<path d="M38.6,343.6c1.8-0.2,3.1-0.3,4.6-0.3c5.9,0,9.6,3.2,9.6,9.1c0,3.2-1.1,6.4-3.9,8.5c-3.1,2.4-6.4,2.1-10.3,2.1V343.6z
		 M25.2,394.6h20.7c10.6,0,21.7-4.7,21.7-16c0-10.1-9.5-12.9-16.1-13.5v-0.7c7.6-1,14.7-5.4,14.7-13.1c0-9.6-8.8-12.3-17.8-12.3
		H25.2V394.6z M38.6,367.7c9.6-0.6,15,2.4,15,11.4c0,6.8-5.6,10.7-10.6,10.7h-4.5V367.7z"/>
	<path d="M82.3,372.9l8.4-19l8,19H82.3z M90.8,338.3c0,0-21.7,47.5-22.9,50.6c-1.2,3.1-4.5,5.7-4.5,5.7h14.4
		c-2.9-2.1-2.3-5.2-2.2-5.5c-0.1-2.1,2.8-7.1,4.3-11.1h20.9c2,4.5,5.3,12.3,5.3,13.5c0,1.2-0.3,2-2.9,3.3H125
		c-1.8-0.8-2.8-2.3-4-3.9c-1.2-1.6-23.5-52.5-23.5-52.5H90.8z"/>
	<path d="M172.9,391.5c0.5,1.1,4.5,3.1,4.5,3.1H159c0,0,1.8-0.5,0.8-2.7c-0.7-1.6-17.9-22.7-17.9-22.7s-0.6,21,0,22.6
		c0.6,1.6,2.2,2.7,2.2,2.7l-16.5,0.2c0,0,0.7-1.5,0.8-2.7c0.2-1.1-0.1-49.2,0.1-50.1c0.1-1-1-2.8-1-2.8h15.7c0,0-1.4,1.3-1.3,2.4
		c0.1,1.1,0,23.2,0,23.2c8-8.4,15.8-17,23.3-25.6h12.2c0,0-2.4,1-3.4,1.6c-1.9,1.3-13.9,13.1-13.9,13.1c-2.8,2.7-5.4,5.6-8.5,8.6
		C151.6,362.2,172.4,390.4,172.9,391.5"/>
	<path d="M215.4,394.6h-34.1v-55.6c0,0,27.7,0,29.3,0c2.3,0,4.8-0.6,4.8-0.6v7.6c-5.4-1.3-11-1.3-20.7-1.1v17.7h9.3
		c4,0,7.7-0.3,11-0.7v7c-3.3-0.4-7-0.7-11-0.7h-9.3v20.8c9.1-0.1,15.3-0.3,20.8-1.9L215.4,394.6z"/>
	<path d="M236.1,343.3c5.5,0,12.2-0.6,13.6,6.1c0.4,1.7,0.5,2.9,0.5,4.1c0,8.4-4.7,12.5-14.1,11.7V343.3z M272.2,394.5
		c0,0-4-1.1-6.3-4.5c0,0-10.9-15.2-15.9-23c8.3-1.6,14-6.7,14-14.8c0-5.6-2.7-9.3-7.8-11.7c-3.8-1.8-10.3-1.6-14.5-1.6h-19.1
		c0,0,0,49.6,0,51.9c0,2.3-1.7,3.9-1.7,3.9h17c0,0-1.5-1.1-1.8-3.1c-0.3-2.3,0-22.8,0-22.8h0.6c2,3.1,4.5,6.9,5.8,9.1
		c0,0,8.2,12.8,8.6,14.2c0.5,1.5-1.1,2.4-1.1,2.4H272.2z"/>
	<path d="M299.7,343.6c1.8-0.2,3.1-0.3,4.6-0.3c5.9,0,9.6,3.2,9.6,9.1c0,3.2-1.1,6.4-3.9,8.5c-3.1,2.4-6.4,2.1-10.3,2.1V343.6z
		 M286.2,394.6h20.7c10.6,0,21.7-4.7,21.7-16c0-10.1-9.5-12.9-16.1-13.5v-0.7c7.6-1,14.7-5.4,14.7-13.1c0-9.6-8.8-12.3-17.9-12.3
		h-23.1V394.6z M299.7,367.7c9.6-0.6,15,2.4,15,11.4c0,6.8-5.6,10.7-10.6,10.7h-4.5V367.7z"/>
	<path d="M366.3,342.5c13.5,0,18.9,12.1,18.9,22.6c0,13.5-6.2,26.1-20,26.1c-13.5,0-18.8-11.3-18.8-21.9
		C346.4,351.1,353.8,342.5,366.3,342.5 M400.1,366.6c-0.1-12.6-7.6-29-33.2-29c-22.4,0-35.4,13.1-35.4,29.3
		c0,18.5,13.4,29.1,33.2,29.1C386.7,396,400.2,382.5,400.1,366.6"/>
	<path d="M411.9,394.6c0,0,1.5-1.6,1.6-3.4c0.1-1.8,0-46.4,0-46.4c-6.4,0-12,0.6-16.7,1.2v-6.9H443c-0.2,1.1-0.6,2.3-0.6,3.4
		c0,1.2,0.4,2.4,0.6,3.5c-5.3-0.6-10.6-1.2-16.1-1.2c0,0-0.1,44,0,46.3c0.1,2.3,1.7,3.6,1.7,3.6H411.9z"/>
	<path d="M491.2,382.2c1.3,5.6,6.2,9,12.4,9c5.5,0,10.5-2.9,10.5-8.5c0-13.1-26.7-8.3-26.7-28c0-9.4,7.1-17.1,20.7-17.1
		c6.4,0,12.2,2.2,14.1,3.9l-4.2,8.1c-1.8-4.3-5.2-7.1-10.3-7.1c-7.1,0-9.8,3.3-9.8,8c0,11,27.2,9,27.2,27.6
		c0,10.4-9.8,17.9-23.7,17.9c-4.9,0-12.2-1.5-14.4-3.5L491.2,382.2z"/>
	<path d="M455.7,394.6c0,0,1.5-1.6,1.6-3.4c0.1-1.8,0-46.4,0-46.4c-6.4,0-12,0.6-16.7,1.1V339h46.2c-0.2,1.1-0.6,2.3-0.6,3.4
		c0,1.2,0.4,2.4,0.6,3.5c-5.3-0.6-10.6-1.1-16.1-1.1c0,0-0.1,44,0,46.2c0.1,2.3,1.7,3.6,1.7,3.6H455.7z"/>
	<rect x="541.8" y="255.6" class="st0" width="83.4" height="83.3"/>
</g>
</svg>
