<?xml version="1.0" encoding="utf-8"?>
<!-- Generator: Adobe Illustrator 21.0.2, SVG Export Plug-In . SVG Version: 6.00 Build 0)  -->
<svg version="1.1" id="Ebene_1" xmlns="http://www.w3.org/2000/svg" xmlns:xlink="http://www.w3.org/1999/xlink" x="0px" y="0px"
	 viewBox="0 0 359.3 160.9" style="enable-background:new 0 0 359.3 160.9;" xml:space="preserve">
<style type="text/css">
	.st0{fill:#4C5D60;}
	.st1{fill:#A91644;}
	.st2{fill:#F9F9F8;}
</style>
<text transform="matrix(1 0 0 1 -1239.4073 3240.2285)" style="font-family:'MyriadPro-Regular'; font-size:12px;">5</text>
<g>
	<path class="st0" d="M319.5,100.8c0-1.6,1.2-2.6,2.6-2.6s2.6,1,2.6,2.6c0,1.5-1.2,2.6-2.6,2.6S319.5,102.3,319.5,100.8z"/>
	<path class="st0" d="M148.4,55.5h2.9v13.6l-0.1,6.2c3.2-2.7,7-4.9,10.9-4.9c8.4,0,12.6,6.3,12.6,16c0,10.7-6.5,17-13.9,17
		c-3,0-6.5-1.4-9.4-3.7h-0.1l-0.3,2.9h-2.4V55.5z M160.6,100.8c6.4,0,10.9-5.9,10.9-14.4c0-7.7-2.8-13.5-10-13.5
		c-3.1,0-6.6,1.8-10.3,5.2v18.7C154.8,99.7,158.2,100.8,160.6,100.8z"/>
	<rect x="185.7" y="71.2" class="st0" width="2.7" height="31.4"/>
	<path class="st0" d="M203.4,73.6h-4.9v-2.2l5-0.3l0.4-9.1h2.5v9.1h9.1v2.5h-9.1v20.5c0,4,1,6.7,5.3,6.7c1.2,0,2.8-0.5,3.9-1
		l0.8,2.4c-1.8,0.7-3.8,1.2-5.1,1.2c-6.1,0-7.9-3.9-7.9-9.5V73.6z"/>
	<path class="st1" d="M225.3,96.9c2.7,2.2,5.5,4,10,4c4.9,0,7.5-2.9,7.5-6.2c0-3.9-4.1-5.6-7.7-6.9c-4.8-1.7-10-3.6-10-9
		c0-4.6,3.6-8.4,10.2-8.4c3.3,0,6.7,1.4,9,3.3l-1.6,2c-2.1-1.6-4.3-2.8-7.5-2.8c-4.8,0-7.1,2.8-7.1,5.7c0,3.5,3.7,5,7.4,6.4
		c4.9,1.8,10.3,3.5,10.3,9.6c0,4.7-3.8,8.8-10.6,8.8c-4.7,0-8.7-2-11.5-4.3L225.3,96.9z"/>
	<path class="st1" d="M267.4,70.4c7.5,0,12.1,5.3,12.1,14.5c0,0.8,0,1.6-0.1,2.4h-22.7c0.1,7.9,4.8,13.6,11.9,13.6
		c3.4,0,6.1-1.1,8.5-2.8l1.2,2.2c-2.5,1.5-5.3,3.1-9.9,3.1c-8.1,0-14.5-6.2-14.5-16.4C253.7,76.7,260.4,70.4,267.4,70.4z M276.7,85
		c0-8.1-3.6-12.2-9.2-12.2c-5.4,0-10.2,4.7-10.8,12.2H276.7z"/>
	<path class="st1" d="M307.3,82.9c0.1-4.8-1.2-10-7.4-10c-4.3,0-7.9,2.1-10,3.7l-1.3-2.2c2.2-1.6,6.6-4.1,11.7-4.1
		c7.5,0,10,5.4,10,12.1v20.1h-2.4l-0.3-4.1h-0.1c-3.2,2.6-7,4.8-11.1,4.8c-5,0-9.2-2.7-9.2-8.6C287,87.8,293.3,84.5,307.3,82.9z
		 M296.6,100.9c3.6,0,6.8-1.8,10.7-5.1V85.1c-12.9,1.5-17.3,4.5-17.3,9.5C290,99.1,293,100.9,296.6,100.9z"/>
	<g>
		<path class="st1" d="M122.3,80.4c0,22.2-18,40.2-40.2,40.2s-40.2-18-40.2-40.2s18-40.2,40.2-40.2S122.3,58.2,122.3,80.4"/>
		<path class="st2" d="M85.2,78.7V65.8h0V55.4c-4.5-1-21.8-1.4-21.8,12.8c0,11,10.7,13.4,16.9,13.9l0,11.9h0v4c0,5.7-4.4,6-5.6,6
			v1.9h5.6h1.2h3.5c0,0,0,0,0,0c6.6,0.3,18.3-1.5,18.3-13.2C103.6,80.8,91,78.9,85.2,78.7z M68.2,68.6c0-5.2,3.4-8.4,8.1-9.4
			c1.5-0.3,2.9-0.2,4.1,0.4l0,18.9C75.5,77.6,68.2,75.2,68.2,68.6z M90.7,101.7c-2.1,0.5-4.2,0.1-5.5-1.6V82.2
			c4.7,0.6,13.6,2.8,13.6,10C98.8,97.5,95.4,100.7,90.7,101.7z"/>
	</g>
</g>
</svg>
