<svg xmlns="http://www.w3.org/2000/svg" width="120" height="106" viewBox="0 0 120 106"><path fill="#706f6f" d="M55.3 27.9c.3-.3.4-.9.3-1.4 0-.4-.2-.6-.2-.8.3.2.4.4.4.9l.1-.3c.2-.7-.1-1.5-.4-2l-.1.1-.3.3c-.1-.3-.1-.7 0-1.1-.3.1-.6.2-.7.5-.3.3-.3.9-.1 1.3l.3.6c-.4-.2-.6-.4-.7-.8-.1 1-.1 2.1.6 2.8l.8-.1zm10.6-3.7c.1-.4 0-.7-.3-1-.2-.2-.6-.2-.9-.1-.7.3-.8 1-1 1.7l.4.5c.7-.2 1.6-.3 1.8-1.1zm.5 13.8l-.4.4v.8l1.4 1.4c.4-.6.8-1 .7-1.8-.3-.3-.5-.5-.8-.7 0 .7.1 1.5-.4 1.8v-1.3l-.5-.6zm-12.5-9.7v.5h.5c.1.5.1.6.2 1.3.3.1.5.2.7.4l.2-1.7h.5v-.5h-2.1zm9.2 8.8h5.4v-1.6h-5.4v1.6zm2.3 4.1c-.2-.2-.3-.4-.3-.7-.1.1-.2.3-.3.5-.2.3 0 .7.3 1l2 2c.3.4.2 1 .2 1.6.3-.2.5-.4.8-.6 0-.4 0-.8-.1-1.2-.2-.5-1.7-1.7-2.6-2.6zm.4-8.1v-2.7l-1.1.1v1.1c-.4.8-1 1.5-1.5 2.2.6 0 .6 0 1.2.1l.4.8h2.5l.2-.9.7-.1v-2.2c-.3 0-.4.1-.6.1V30c-.4.1-.7.2-1.1.3v2.8c0 .1-.2.2-.3.2-.3 0-.4-.1-.4-.2zm-1 11.7c.3.3.5.5.8.7 0-.7-.1-1.5.4-1.8V45l.4.5c.2-.2.3-.3.4-.5v-.8L65.4 43c-.3.6-.8 1-.6 1.8zm-2.7-17.4l.7-.8c-.2-.4 0 0-.3-.5-.4.4-.5.5-.8.9l.4.4zM30.7 86.1c-.6 0-.7.5-.7 1.2s.1 1.2.7 1.2.7-.5.7-1.2c.1-.7 0-1.2-.7-1.2zM54.4 32c1.3-.1 1.4 1.5 2.3 2.1.2.2.4.4.5.3.7-.4 1.3-1.1 1.8-1.8 0 .2.1.3.2.5.2.2.3.2.5.2.1.4.3.8.4 1.3-1.4 1.5-2 3.4-2.1 5.4-1 1.1-1 2.6-1.3 4-.3.8-1.5 1.2-1.3 2.2.1.2.1.4.4.6.1.1.3.2.4 0 .3-.7.8-1.4 1.2-2.1 0-1.5 1-2.6 1.9-3.8-.1-.4-.3-1 0-1.5v.1c.1 1.2.7 2.2 1 3.3-.4.5-.3 1.2-.6 1.7-.1.2-.3.4-.4.7 0 .1.1.1.1.1.3 0 1-.1 1.3-.6-.1-.6.4-1 .7-1.4.3-.4-.3-.7-.3-1.1 0-1.5.2-2.6-.8-3.7l.9-.7c.4-.3.9-.6 1.1-1.1.3-.9-.1-2.2-.5-3.1.1-.8.4-1.5.4-2.3l.4-.8c.6-.4 1.1-.6 1.6-1.1.1-.9 0-1.9-.1-2.8-.2-.7-.6-1.3-1.1-1.9-.2.2-.3.5-.4.8.1.5.3 1 .8 1.3.2.7-.2 1.3 0 2l-.9.6c-.4.1-.9.3-1.1.8h-.5c-.1-.1-.2-.3-.2-.5.1-.1.2-.1.2-.2.2-.4.4-.8.5-1.2 0-.4-.3-.8-.5-1.2-.1-.1-.3-.2-.5-.1-.3.3-.6-.2-.9 0-.5.3-.6.9-.7 1.4.2.5.5.9.8 1.3l.2.9-.3.4c-.4 0-.8.2-1.1.6-.3.7-.7 1-1.2 1.5-.2-.1-.4-.3-.6-.5-.8-.6-1.3-1.5-2.1-2-.3-.1-.6-.1-.8.1.2.4.1 1.1.7 1.3zM41.9 86.1c-.6 0-.7.5-.7 1.1 0 .6.1 1.1.7 1.1s.7-.6.7-1.1c0-.6-.1-1.1-.7-1.1zm5.6 2c0 .3.2.5.6.5.3 0 .5 0 .7-.2.1-.1.2-.3.2-.5v-.2h-.8c-.5-.1-.7.1-.7.4zm-22.1 0c0 .3.2.5.6.5.3 0 .5 0 .7-.2.1-.1.2-.3.2-.5v-.2H26c-.4-.1-.6.1-.6.4zm29.2-53.8v.2h.5v-1.9c-.2-.1-.4-.3-.6-.2.1.7.1 1.1.1 1.9zm3.3 1.2h-5.5v1.6h5.5v-1.6zm-3.3 21c1.9.5 3.8.7 5.8.7s4-.2 5.8-.7c3.5-.9 5.8-3.1 7.3-6.6 1.4-3.1 2.8-8.8 2.8-13.5.1-4.7-1.4-10.5-2.8-13.5-1.5-3.5-3.9-5.6-7.3-6.6-1.9-.5-3.8-.7-5.8-.7s-4 .2-5.8.7c-3.5.9-5.8 3.1-7.3 6.6-1.4 3.1-2.8 8.8-2.8 13.5-.1 4.7 1.4 10.5 2.8 13.5 1.5 3.5 3.8 5.6 7.3 6.6zm1.1-4.1l-1 3-.6-.2.7-2c-.3-.1-.6-.2-.8-.3l.1-.4c.3.1.6.1.9-.1l.2-.2.5.2zm3.2 3.5c-.2.1-.5.2-.8.1-.3 0-.6-.1-.8-.2-.3-.2-.5-.5-.4-.9 0-.3.1-.6.4-.7l.2-.1c-.2-.1-.4-.3-.4-.6s.2-.5.4-.7c.2-.1.5-.2.8-.1.3 0 .6.1.8.2.2.2.4.4.3.7 0 .3-.3.5-.5.6l.2.1c.3.2.4.5.4.8-.1.3-.3.7-.6.8zm2.1.2c0-.9.8-1.3 1.4-1.9.1-.1.2-.4.1-.6-.1-.1-.2-.2-.3-.2-.2 0-.3 0-.5.1-.2.2-.2.4-.2.6h-.6c0-.3 0-.6.2-.9.3-.3.7-.4 1.1-.4.3.1.7.2.8.6.2.4.1.8-.2 1.1-.4.4-.8.6-1.1 1l1.5-.1v.5l-2.2.2zm6.3-1.2c-.2.2-.4.3-.7.4-.3.1-.6.1-.8 0-.3-.1-.6-.4-.7-.7-.1-.3 0-.6.2-.8l.1-.1c-.2 0-.5-.2-.6-.5-.1-.3 0-.6.2-.8.2-.2.4-.3.7-.4.3-.1.6-.1.8 0 .3.1.5.3.5.6.1.3-.1.5-.3.7h.2c.3.1.5.3.6.6.1.4 0 .8-.2 1zm8.1-18.4c-.1.3-.5.6-.8.6v-.6h.3c.1-.2.1-.5.1-.7 0-.2-.1-.5-.3-.5-.1 0-.3 0-.3.1-.4.5-.1 1.7-1 1.8-.4.1-.8-.1-1-.4-.3-.5-.3-1.3 0-1.8.2-.3.5-.4.8-.4v.6c-.2 0-.4.1-.5.3-.1.3-.1.8.1 1 .1.1.3.1.4 0 .4-.3.3-.9.5-1.4.1-.2.2-.4.4-.5.3-.1.7-.1 1 .2.5.4.5 1.2.3 1.7zm-.3-4.8l-3 1.5-.1-.6.6-.3-.2-1.1-.6-.2-.1-.6 3.3.6.1.7zm-1-5.3l.6 2.5-.5.1-.2-.9-2.5.7-.2-.6 2.6-.7-.2-.9.4-.2zm-.6-1.6L70.6 26l-.3-.6 2.9-1.3.3.7zm-2.7-4.9c.8 1.1 1.4 1.6 1.1 2.3-.1.2-.4.4-.6.4-.2 0-.4-.1-.6-.2.3.7-.6 1-.9 1.4l-.4-.5c.1-.3 1-.6.7-1.1 0-.1-.3-.4-.4-.6l-1 .8-.4-.5 2.5-2zm-4.3-2.7l2.1.9-.2.5-1.5-.6-.3.6 1.3.6-.2.5-1.3-.6-.3.8 1.5.6-.2.5-2.1-.9 1.2-2.9zm-4-.7c.1.8.3 1.7.4 2.4.3-.6.6-1.5.9-2.3l.7.1-1.4 3-.6-.1-.7-3.3.7.2zm-6 .3l.4 2.3c0 .2.2.3.4.3h.3c.1 0 .2 0 .3-.1.2-.1.3-.3.3-.4l-.4-2.3.6-.1.4 2.3c0 .2 0 .4-.2.7-.2.3-.6.4-.9.5-.4.1-.7 0-1-.2-.2-.1-.3-.3-.4-.6l-.4-2.3.6-.1zm-3.9 1.3l2.6 2.1-.6.3-.6-.4-1 .6.2.7-.6.3-.6-3.2.6-.4zm-3.4 2.7l.5.3-.8 1.4.6.3.7-1.3.5.3-.7 1.3.8.4.8-1.5.5.3-1.1 2-2.8-1.5 1-2zm-1.5 4.6c.3 0 .5.1.7.2.2.2.2.4.2.6.4-.6 1.1-.1 1.7-.1l-.2.6c-.3 0-1.1-.4-1.3.1-.1.1-.2.4-.3.7l1.2.4-.2.6-3-.9c.4-1.3.5-2.1 1.2-2.2zm.9 11.8h-3.1c0-.7-.1-1.9.1-2.1.2-.3.5-.4.8-.3.3 0 .5.3.5.5.1-.3.4-.5.7-.6.4 0 .7.1.9.5.2.5.1.6.1 1.9v.1zm.4-5.5c-.1.4-.2.7-.5.9-.2.2-.4.2-.7.2l-2.3-.4.1-.6 2.3.4c.2 0 .3-.1.4-.2.1-.1.1-.2.1-.3v-.3c0-.2-.2-.3-.3-.4l-2.1-.4.1-.6 2.3.4c.2 0 .4.1.6.4.1.2.1.5 0 .9zm3-7.4c.7-1.5 2-2.6 3.6-3.1 1.5-.4 3.2-.6 4.8-.6h.1c1.7 0 3.3.2 4.8.6 1.6.5 3 1.6 3.6 3.1 1.5 3.1 2.4 7.6 2.4 12s-1 8.9-2.4 12c-.7 1.5-2 2.6-3.6 3.1-1.5.4-3.2.6-4.8.6h-.1c-1.6 0-3.3-.2-4.8-.6-1.6-.5-3-1.6-3.6-3.1-1.5-3.1-2.4-7.6-2.4-12 0-4.3.9-8.8 2.4-12zm10.8 22.9h-1.7c-.3-.3-.3-.3-.5-.6l-.5.6h-1.7v.8H60v1.9h1.1V48h1.7v-.8zm1.9-8.6c0 .4 0 .8.1 1.2.1.5 1.6 1.7 2.5 2.6.2.2.3.4.3.7.1-.2.2-.3.3-.5.2-.3 0-.7-.3-1l-2-2c-.3-.4-.2-1-.2-1.6-.2.3-.4.4-.7.6zM47.9 26c-.4 0-.5.5-.6 1.1l.8.2c.1-.5.3-.9.2-1.1-.2-.1-.3-.1-.4-.2zm26.6 5.4l-1.4-.2.1.8 1.3-.6zM53.6 19.8l-1-.9.4 1.3.6-.4zM70.9 22c.1 0 .2-.1.3-.2.3-.3-.1-.7-.5-1.1l-.6.5c.4.4.6.8.8.8zm-13 31.9c.1.1.2.1.3.1h.3c.1-.1.2-.1.2-.2s0-.4-.1-.5c-.1-.1-.2-.1-.3-.1-.1 0-.3 0-.3.1-.2.1-.2.3-.2.4 0 .1 0 .2.1.2zm.6.7c-.1 0-.2-.1-.3-.1h-.3c-.2.1-.3.2-.3.5 0 .1.1.3.2.4.1.1.2.1.4.1s.3 0 .4-.1c.1-.1.2-.2.2-.4 0-.1-.1-.3-.3-.4zm7.6-1.3c.1 0 .2-.1.3-.1s.1-.2.1-.3c0-.2-.1-.4-.3-.4h-.4c-.1 0-.2.1-.3.2-.1.1-.1.4-.1.5.1.1.1.2.2.2.2-.1.3-.1.5-.1zm.4.5h-.3c-.1 0-.2.1-.3.1-.2.1-.2.3-.2.5 0 .1.2.3.3.3.1.1.3.1.4 0 .1 0 .3-.1.4-.2.1-.1.1-.3.1-.4 0-.1-.2-.3-.4-.3zM64 38h-1.6v4.7H64V38zm-2.8 6.9c-.1.3-.6.5-.9.6.2.4.7.7 1.1.7.7.1 1.2-.1 1.6-.6.3-.4.4-1.1.2-1.6s-.8-.9-1.3-1c0 .2 0 .3-.1.5-.3.5-.7.9-.6 1.4zm1 4.9c.4.3 1.2.4 1.6.1.3-.1.5-.4.7-.7.1-.3.2-.3.2-.6h-3.1c-.1.5.2.9.6 1.2zm-6.7-8.5c0-.3 0-.4.2-.6.1-.1.3-.1.5-.1.2.1.2.1.5.2 0-.8 0-1.9-.5-2.1-.3-.1-.7-.2-1 0-.3.1-.5.4-.6.7v2.3c0 .2-.1.2-.3.2-.2 0-.3-.1-.3-.2v-2.3c0-.2-.1-.5-.2-.7l-1.2.3h-.1c.3.2.4.2.5.6v3.5c.2.3.5.4.8.5h.4c.3 0 .6 0 .9-.2.5-.5.4-1.2.4-2.1zm-8-6c-.4.1-.3.5-.3 1.2h.9c0-.7 0-.9-.1-1.1-.1-.1-.3-.1-.5-.1zm14.2 50.8c-.2 0-.4.1-.5.2-.2.2-.2.6-.2 1s0 .8.2 1c.1.1.3.2.5.2s.4-.1.5-.2c.2-.2.2-.6.2-1s0-.8-.2-1c-.1-.2-.2-.2-.5-.2zm-5-36.8c.2.3.4.5.7.7.5.3 1.2.2 1.6-.1.4-.3.6-.7.7-1.1h-3.1c-.1.1 0 .2.1.5zm-10.4-14c-.4 0-.3.4-.3 1.2h.8v-1c-.2-.1-.2-.2-.5-.2zm3.9 38.8h-2.5v-1.3h2.2V72h-2.2v-1h2.5v-.8h-3.5v4.7h3.5v-.8zm-7.8.8l1.6-4.7h-1c-.3 1.2-.7 2.5-1 3.5-.3-1-.7-2.3-1-3.5h-1l1.6 4.7h.8zm36.1-8.3c.6 0 1.1-.1 1.5-.5.3-.3.4-.6.4-.9v-3.4h-1v3.4c0 .2-.2.5-.5.6-.1.1-.3.1-.5.1s-.3 0-.4-.1c-.2-.1-.5-.3-.5-.6v-3.4h-1v3.4c0 .3.1.6.4.9.6.4 1.1.5 1.6.5zm-5.9 19.5c-.6 0-.7.5-.7 1.2s.1 1.2.7 1.2.7-.5.7-1.2-.1-1.2-.7-1.2zM54.5 72.9h1.2c.8.1.5 1.9.7 1.9h.9c-.3-.7.1-2.1-1-2.3.5-.2 1-.4.9-1.3 0-.8-.8-1.1-1.5-1.1h-2.2v4.7h1v-1.9zm0-2h1.2c.3 0 .5.2.5.6 0 .4-.2.6-.5.6h-1.3l.1-1.2zm24.2 3.3c-.7 0-1-.5-1-.9h-.9c0 .7.5 1.6 2 1.6 1.2 0 2-.5 2-1.6 0-1.6-2.8-1.2-2.8-2 0-.3.3-.6 1-.6.6 0 .9.4.9.7h.9c0-.3-.2-1.5-1.9-1.5-1.2 0-1.8.7-1.8 1.6 0 1.6 2.8 1 2.8 2-.1.6-.7.7-1.2.7zm.4 11.9c-.2 0-.4.1-.5.2-.2.2-.3.6-.3 1s0 .8.3 1c.1.1.3.2.5.2s.4-.1.5-.2c.2-.2.3-.6.3-1s0-.8-.3-1c-.1-.2-.3-.2-.5-.2zM65.9 74.9h1V71h1.4v-.8h-3.8v.8h1.4v3.9zm-4.1-4.7h-1v4.7h1v-4.7zm9.7 3.6h1.7l.3 1h1l-1.7-4.7h-1l-1.6 4.7h1l.3-1zm.9-2.7l.6 2h-1.2l.6-2zM44 65.2c0-.6-.3-1.1-.9-1.3.6-.2.8-.6.7-1.1-.1-.7-.6-1.1-1.4-1.1h-2.3v4.7h2.2c1.3.1 1.7-.6 1.7-1.2zm-1.7-2.7c.3 0 .6.2.6.5 0 .4-.2.6-.6.6h-1.2v-1.1h1.2zm-1.1 1.9h1.2c.4 0 .6.3.6.6s-.2.6-.5.6h-1.3v-1.2zm2-28c.1-6.3 2.1-12.6 4.3-15.9 1.4-2.1 3.5-3.7 5.9-4.5-.1 0 .1 0 0 0 2.2-.7 4.6-1 7-1 2.4 0 4.8.3 7 1 2.4.8 4.5 2.5 5.9 4.5 2.2 3.3 4.2 9.6 4.3 15.9-.1 6.3-2.1 12.6-4.3 15.9-1.4 2.1-3.6 3.7-6 4.5-2.2.7-4.5 1-6.9 1h-.1c-2.4 0-4.7-.4-6.9-1-2.4-.8-4.5-2.5-5.9-4.5-2.1-3.3-4.2-9.6-4.3-15.9zM17 89.5c-.9 0-1.6-.2-2.1-.8l.7-.7c.4.4.9.5 1.4.5.7 0 1-.3 1-.7 0-.2-.1-.4-.2-.5-.1-.1-.2-.2-.5-.2l-.7-.1c-.5-.1-.9-.2-1.1-.5-.3-.3-.4-.7-.4-1.2 0-1 .8-1.8 2-1.8.8 0 1.4.2 1.9.7l-.7.7c-.4-.4-.8-.4-1.2-.4-.6 0-.9.3-.9.7 0 .1 0 .3.2.4.1.1.3.2.5.2l.7.1c.5.1.9.2 1.1.4.3.3.5.7.5 1.2-.1 1.4-1 2-2.2 2zm6.6 0h-1.1v-2.6c0-.6-.4-.8-.7-.8-.3 0-.7.2-.7.8v2.6H20v-5.9h1.1v2c.3-.3.6-.4 1-.4.9 0 1.4.7 1.4 1.6l.1 2.7zm4.3 0h-1v-.4c-.3.3-.6.4-1.1.4-.5 0-.8-.1-1.1-.4-.2-.2-.4-.6-.4-1 0-.7.5-1.2 1.5-1.2h1v-.2c0-.5-.2-.7-.8-.7-.4 0-.6.1-.8.4l-.7-.7c.4-.5.8-.6 1.5-.6 1.2 0 1.8.5 1.8 1.5l.1 2.9zm4.2-.4c-.2.2-.6.4-1 .4s-.8-.1-1-.4V91H29v-5.9h1v.4c.3-.3.6-.4 1.1-.4.4 0 .8.1 1 .4.4.4.4 1.2.4 1.8 0 .7 0 1.4-.4 1.8zm2.5.4h-1.1v-4.3h1.1v4.3zm0-5.1h-1.1v-.9h1.1v.9zm4.6 5.1h-1.1v-2.6c0-.6-.4-.8-.7-.8-.3 0-.7.2-.7.8v2.6h-1.1v-4.3h1v.4c.3-.3.7-.4 1.1-.4.4 0 .8.1 1 .4.3.3.4.7.4 1.2l.1 2.7zm4.5-.2c0 1-.7 1.8-1.9 1.8-.7 0-1.1-.1-1.6-.6l.7-.7c.2.2.5.3.8.3.6 0 .9-.4.9-.9v-.4c-.3.3-.6.4-1 .4s-.8-.1-1-.4c-.4-.4-.4-1-.4-1.7 0-.8 0-1.3.4-1.7.2-.2.6-.4 1-.4.5 0 .7.1 1 .5v-.4h1v4.2h.1zm6.3.2h-1v-.4c-.3.3-.6.4-1.1.4-.5 0-.8-.1-1.1-.4-.2-.2-.4-.6-.4-1 0-.7.5-1.2 1.5-1.2h1v-.2c0-.5-.2-.7-.8-.7-.4 0-.6.1-.8.4l-.7-.7c.4-.5.8-.6 1.5-.6 1.2 0 1.8.5 1.8 1.5l.1 2.9zm8.1 0h-.9l-1.1-3.6-1.1 3.6h-1l-1.6-5.9h1.2l.9 3.7 1.1-3.7h.9l1.1 3.7.9-3.7h1.2l-1.6 5.9zm5-.5c-.3.3-.7.5-1.3.5s-1.1-.3-1.3-.5c-.4-.4-.5-.9-.5-1.7 0-.8.1-1.3.5-1.7.3-.3.7-.5 1.3-.5s1.1.2 1.3.5c.4.4.5.9.5 1.7 0 .8-.1 1.3-.5 1.7zm3.7-2.7c-.2-.2-.3-.3-.6-.3s-.7.2-.7.8v2.6h-1.1v-4.3h1v.4c.2-.2.6-.5 1.1-.5.4 0 .7.1 1 .4l-.7.9zm3.3 3.2h-.6c-.9 0-1.2-.6-1.2-1.2v-4.6h1.1v4.6c0 .3.1.4.4.4h.4l-.1.8zm4.3 0h-1v-.4c-.3.3-.6.5-1.1.5-.4 0-.8-.1-1-.4-.4-.4-.4-1.2-.4-1.8 0-.6 0-1.4.4-1.8.2-.2.6-.4 1-.4s.8.1 1.1.4v-2h1.1l-.1 5.9zm6-.5c-.3.3-.7.5-1.3.5-.6 0-1.1-.3-1.3-.5-.4-.4-.5-.9-.5-1.7 0-.8.1-1.3.5-1.7.3-.3.7-.5 1.3-.5.6 0 1.1.2 1.3.5.4.4.5.9.5 1.7 0 .8-.1 1.3-.5 1.7zm3.5-4.6h-.4c-.3 0-.4.1-.4.4v.5h.8v.8h-.8v3.4H82v-3.4h-.4v-.8h.4v-.5c0-.6.4-1.2 1.2-1.2h.6l.1.8zm1.1-8.2H35.6v-7.3H85v7.3zm0-8.4H35.6v-7.3H85v7.3zm5.4 16.8h-1.5v4.8h-1.1v-4.8h-1.5v-1h4.2v1h-.1zm2.6 1.7c-.2-.2-.3-.3-.6-.3s-.7.2-.7.8v2.6h-1.1v-4.3h1v.4c.2-.2.6-.5 1.1-.5.4 0 .7.1 1 .4l-.7.9zm5 3.2h-1v-.4c-.3.3-.7.4-1.1.4-.4 0-.8-.1-1-.4-.3-.3-.4-.7-.4-1.2v-2.7h1.1v2.6c0 .6.4.8.7.8.3 0 .7-.2.7-.8v-2.6h1v4.3zm2.5 0c-.7 0-1.3-.1-1.8-.6l.7-.7c.3.4.8.4 1.1.4.4 0 .8-.1.8-.4 0-.2-.1-.4-.4-.4l-.7-.1c-.8-.1-1.2-.4-1.2-1.2 0-.9.8-1.4 1.7-1.4.7 0 1.2.1 1.6.5l-.7.7c-.2-.2-.6-.3-1-.3s-.6.2-.6.4.1.3.4.4l.7.1c.8.1 1.3.5 1.3 1.3-.1.9-.9 1.3-1.9 1.3zm4.7-3.4h-.8v2.1c0 .2.1.4.4.4h.4v.9h-.6c-.9 0-1.2-.6-1.2-1.2v-2.1h-.4v-.8h.4V84h1.1v1.3h.8v.8h-.1zM49.3 66.6c.5 0 1.1-.1 1.5-.5.3-.3.4-.6.4-.9v-3.4h-1v3.4c0 .2-.2.5-.5.6-.1.1-.3.1-.4.1-.2 0-.3 0-.4-.1-.2-.1-.5-.3-.5-.6v-3.4h-1v3.4c0 .3.1.7.4.9.5.4 1 .5 1.5.5zm6.9-2h1.2c.8.1.5 1.9.7 1.9h.9c-.3-.8.1-2.1-1-2.3.5-.2 1-.4 1-1.3 0-.8-.8-1.1-1.5-1.1h-2.2v4.7h1l-.1-1.9zm0-2h1.2c.3 0 .5.2.5.6 0 .4-.2.6-.5.6h-1.3v-1.2h.1zm10 3.1h-2.5v-1.3h2.2v-.8h-2.1v-1h2.5v-.8h-3.5v4.7h3.5l-.1-.8zm4.4-.2h1.7l.3 1h1L72 61.8h-1l-1.6 4.7h1l.2-1zm.9-2.8l.6 2h-1.2l.6-2z"/></svg>