<svg xmlns="http://www.w3.org/2000/svg" role="img" viewBox="-7.99 90.00 415.74 63.99"><title>logo_cesi.svg</title><style>.st0{fill:#fff}.st1{fill:#0089cf}.st2{fill:#414042}</style><style>.st2{fill:#414042}</style><style>.st2{fill:#414042}</style><style>.st2{fill:#414042}</style><style>.st2{fill:#414042}</style><style>.st2{fill:#414042}</style><path fill="#fff" d="M.8 98.9h46.3v46.3H.8z"/><path fill="#0089cf" d="M45.6 98.2H2.4c-1.3 0-2.4 1.1-2.4 2.4v43.2c0 1.3 1.1 2.4 2.4 2.4h43.2c1.3 0 2.4-1.1 2.4-2.4v-43.2c0-1.4-1.1-2.4-2.4-2.4zM24 144.3c-12.2 0-22.1-9.9-22.1-22.1 0-12.2 9.9-22.1 22.1-22.1 8.5 0 15.9 4.8 19.6 11.9H36c-2.9-3.4-7.2-5.5-12-5.5-8.7 0-15.8 7.1-15.8 15.8 0 8.7 7.1 15.8 15.8 15.8 4.8 0 9.1-2.1 12-5.5h7.6c-3.8 6.9-11.1 11.7-19.6 11.7zm10.2-20.1c-.3-.3-1-.5-2-.8-1.8-.4-3-1-3.8-1.7-.8-.7-1.1-1.6-1.1-2.6 0-.7.2-1.4.6-2 .4-.6 1-1.1 1.7-1.5.8-.4 1.8-.5 3.2-.5 1.7 0 2.9.3 3.8 1 .9.6 1.4 1.7 1.6 3.1l-3.8.2c-.1-.6-.3-1.1-.6-1.4-.3-.3-.8-.4-1.3-.4s-.8.1-1.1.3c-.2.2-.3.5-.3.8 0 .2.1.4.3.6.2.2.6.4 1.3.5 1.8.4 3 .8 3.8 1.2.8.4 1.3.9 1.7 1.5.3.6.5 1.3.5 2 0 .9-.2 1.7-.7 2.4-.5.7-1.1 1.3-1.9 1.7-.8.4-1.9.6-3.1.6-2.2 0-3.7-.5-4.6-1.4-.9-.9-1.3-2-1.4-3.4l3.8-.2c.1.6.3 1.2.5 1.5.4.6 1 .8 1.8.8.6 0 1-.1 1.3-.4.3-.3.5-.6.5-1-.3-.3-.4-.6-.7-.9zm-10-3.8v2.8H18v2.7h6.9v3.1H14v-13.7h10.7v2.9H18v2.2h6.2zm20.7 8.6h-4v-13.7h4V129z"/><path d="M80.2 131.3c-.4 0-.7.1-.9.4-.2.2-.3.5-.3.8 0 .3.1.5.3.7.2.2.4.3.8.3s.7-.1.9-.4c.2-.2.3-.5.3-.8 0-.3-.1-.5-.3-.7-.3-.2-.5-.3-.8-.3zm96.8 0c-.4 0-.7.1-.9.4-.2.2-.3.5-.3.8 0 .3.1.5.3.7.2.2.4.3.8.3s.7-.1.9-.4c.2-.2.3-.5.3-.8 0-.3-.1-.5-.3-.7-.2-.2-.5-.3-.8-.3zm99.3 0c-.4 0-.7.1-.9.4-.2.2-.3.5-.3.8 0 .3.1.5.3.7.2.2.4.3.8.3s.7-.1.9-.4c.2-.2.3-.5.3-.8 0-.3-.1-.5-.3-.7-.2-.2-.5-.3-.8-.3zm28.6 0c-.4 0-.7.1-.9.4-.2.2-.3.5-.3.8 0 .3.1.5.3.7.2.2.4.3.8.3s.7-.1.9-.4c.2-.2.3-.5.3-.8 0-.3-.1-.5-.3-.7-.3-.2-.5-.3-.8-.3zm63.5 0c-.4 0-1.2.1-1.4.4-.2.2-.3.5-.3.8 0 .3.1.5.3.7.2.2.4.3.8.3s.7-.1.9-.4c.2-.2.3-.5.3-.8 0-.3-.1-.5-.3-.7-.3-.2 0-.3-.3-.3zm-303.3 9.5c-1.2 0-2.2-.4-2.9-1.1-.7-.8-1-1.7-1-2.8 0-1 .3-1.9.9-2.7.6-.7 1.5-1.1 2.7-1.1.4 0 .9.1 1.5.3l.2.1.3-1.6-.2-.1c-.5-.1-1-.2-1.5-.2-1.7 0-3.1.6-4.1 1.6-1 1.1-1.5 2.4-1.5 3.9 0 1.4.5 2.7 1.4 3.7.9 1 2.3 1.5 4.1 1.5.8 0 1.5-.1 2.1-.3h.1l.1-1.6-.3.1c-.8.2-1.4.3-1.9.3zm11.2-2.5V137c0-1-.3-1.7-.8-2.2-.5-.4-1.2-.6-2.1-.6-.8 0-1.6.3-2.3.8 0-1.2 0-2.5.1-3.9v-.2l-1.9.1v.2c.1 1.2.2 2.9.2 5 0 2.5 0 4.4-.1 5.7v.2h1.8v-.2c0-1-.1-2.8-.1-5.5.6-.5 1.3-.7 1.9-.7.5 0 .9.1 1.1.4.3.2.4.7.4 1.5 0 1.5-.1 3-.2 4.3v.2h1.8v-.2c.2-1.7.2-2.9.2-3.6zm4.5.1c0-1.5 0-2.8.1-3.9v-.3l-2 .3v.2c.2 1 .3 2.2.3 3.7 0 1.3 0 2.5-.1 3.5v.2h1.8v-.2c-.1-1.1-.1-2.3-.1-3.5zm9.7-.3v-1.2c0-1-.3-1.8-.8-2.2-.5-.4-1.2-.6-2.1-.6-.8 0-1.6.3-2.3.9l-.1-.8-1.8.2v.2c.2 1.1.3 2.3.3 3.4 0 .8 0 2-.1 3.8v.2h1.8v-5.7c.6-.4 1.2-.7 1.8-.7.5 0 .9.1 1.2.4.3.2.4.7.4 1.5 0 1.6-.1 3-.2 4.4v.2h1.8v-.2c.1-1.7.1-2.9.1-3.8zm8.7 1.4V137c0-1-.3-1.7-.8-2.1-.5-.4-1.3-.6-2.2-.6-1 0-1.9.1-2.7.3h-.1l-.2 1.5.3-.1c.8-.2 1.5-.3 2.3-.3.6 0 1.1.1 1.4.3.3.2.4.5.4 1.1v.2c-1.8 0-2.9.3-3.6.8-.7.5-1.1 1.2-1.1 2.1 0 .7.2 1.3.7 1.6.5.4 1 .6 1.6.6 1 0 1.8-.2 2.4-.7 0 .1 0 .3.1.4v.2l1.6-.1v-.2c0-.8-.1-1.6-.1-2.5zm-1.5.9c-.5.3-1.1.5-1.8.5-1.1 0-1.3-.5-1.3-.8 0-.6.4-1 1.1-1.3.4-.1 1.1-.2 1.9-.2 0 .5.1 1.1.1 1.8zm15.8.3c0-1-.1-2.1-.1-3.3 1.2 0 2.3 0 3.4.1h.2v-1.6h-.2c-1 .1-2.1.1-3.4.1v-2.8c1.5 0 2.9 0 4.2.1h.2l.1-1.6h-6.2v.2c.1 1.4.1 2.9.1 4.7 0 1.9 0 3.6-.1 5.2v.2h6.6l.1-1.6h-.2c-1.5.2-3.1.3-4.7.3zm9-9.8l-2 .1v.2c.1 1.3.2 3 .2 5 0 2.1 0 4-.1 5.7v.2h1.9v-.2c-.1-1.7-.1-3.6-.1-5.7 0-2 0-3.7.1-5.1v-.2zm6.3 3.2c-1.1 0-2.1.4-2.7 1.3-.7.8-1 1.8-1 3 0 1.1.4 2 1.1 2.8.7.8 1.8 1.2 3.2 1.2 1 0 1.7-.1 2.2-.3h.1l.2-1.5-.3.1c-.7.2-1.4.3-2.1.3-.8 0-1.5-.2-1.9-.7-.4-.4-.7-.9-.8-1.5l5.2-.1v-1.1c0-1-.3-1.8-.8-2.4-.5-.8-1.3-1.1-2.4-1.1zm0 1.4c1 0 1.5.5 1.6 1.7l-3.5.1c.2-1.2.8-1.8 1.9-1.8zm9.9 5.3c-.9 0-1.5-.2-2-.8-.5-.5-.7-1.1-.7-1.9 0-.7.2-1.3.6-1.8.4-.5.9-.7 1.6-.7.5 0 1 .1 1.6.3l.2.1.3-1.6-.2-.1c-.4-.1-.9-.2-1.6-.2-1.3 0-2.3.4-3.1 1.2-.8.8-1.2 1.8-1.2 3 0 1.1.4 2 1.1 2.8.7.8 1.8 1.2 3.2 1.2.7 0 1.3-.1 1.8-.4l.1-.1.1-1.4-.3.1c-.6.2-1.1.3-1.5.3zm7.6 0c-.5 0-.9-.1-1.1-.4-.1-.2-.3-.7-.3-2V136h2.2l.1-1.6h-.2c-.8 0-1.5.1-2 .1 0-.5 0-1.2.1-2.1v-.2l-1.6.2v.2c0 1-.1 1.6-.1 2h-1.3l-.1 1.6h1.2v2.8c0 1.3.2 2.1.5 2.6.4.5 1.1.8 2.1.8.4 0 .8-.1 1.2-.2h.1l.1-1.4-.3.1c-.1-.1-.4-.1-.6-.1zm6.7-6.6c-.7 0-1.3.3-1.8.9 0-.2-.1-.4-.1-.7v-.2l-1.8.2v.2c.2 1.1.4 2.2.4 3.4 0 .9 0 2.1-.1 3.8v.2h1.8v-5.1c.3-.8.8-1.2 1.7-1.2.3 0 .7.1 1 .2l.2.1.5-1.6-.2-.1c-.7 0-1.2-.1-1.6-.1zm7.1-.1c-1.1 0-2 .4-2.8 1.2-.8.8-1.2 1.9-1.2 3.2 0 1.2.4 2.2 1.1 2.9.7.7 1.6 1 2.6 1 1.1 0 2-.4 2.8-1.2.8-.8 1.2-1.8 1.2-3.2 0-1.2-.4-2.2-1.1-2.9-.8-.6-1.6-1-2.6-1zm-.2 7c-.7 0-1.2-.3-1.5-.8-.4-.6-.6-1.3-.6-2s.2-1.4.6-1.9c.4-.5.9-.8 1.5-.8.7 0 1.2.3 1.5.8.4.6.6 1.3.6 2s-.2 1.4-.6 1.9c-.3.5-.8.8-1.5.8zm13.2-3v-1.2c0-1-.3-1.8-.8-2.2-.5-.4-1.2-.6-2.1-.6-.8 0-1.6.3-2.3.9l-.1-.8-1.8.2v.2c.2 1.1.3 2.3.3 3.4 0 .8 0 2-.1 3.8v.2h1.8v-5.7c.5-.4 1.1-.7 1.8-.7.5 0 .9.1 1.2.4.3.2.4.7.4 1.5 0 1.6-.1 3-.2 4.4v.2h1.8v-.2c.1-1.7.1-2.9.1-3.8zm4.5.3c0-1.5 0-2.8.1-3.9v-.3l-2 .3v.2c.2 1 .3 2.2.3 3.7 0 1.3 0 2.5-.1 3.5v.2h1.8v-.2c-.1-1.1-.1-2.2-.1-3.5zm7.1 2.4c-.9 0-1.5-.2-2-.8-.5-.5-.7-1.1-.7-1.9 0-.7.2-1.3.6-1.8.4-.5.9-.7 1.6-.7.5 0 1 .1 1.6.3l.2.1.3-1.6-.2-.1c-.4-.1-.9-.2-1.6-.2-1.3 0-2.3.4-3.1 1.2-.8.8-1.2 1.8-1.2 3 0 1.1.4 2 1.1 2.8.7.8 1.8 1.2 3.2 1.2.7 0 1.3-.1 1.8-.4l.1-.1.1-1.4-.3.1c-.7.2-1.2.3-1.5.3zm8.5-2.5c-.4-.3-.9-.5-1.6-.8-.6-.2-1-.4-1.2-.6-.2-.1-.3-.3-.3-.5s0-.6 1.3-.6c.7 0 1.3.1 1.8.3l.2.1.3-1.5-.2-.1c-.5-.2-1.3-.2-2.2-.2-.9 0-1.7.2-2.1.7-.5.5-.7 1-.7 1.7 0 .6.3 1.2.8 1.6.3.3.9.6 1.6.9.6.2 1 .4 1.2.6.2.1.3.3.3.6 0 .2 0 .7-1.5.7-.7 0-1.4-.1-2.1-.4l-.2-.1-.3 1.6h.2c.7.2 1.5.3 2.4.3 2.5 0 3.1-1.3 3.1-2.4 0-1-.3-1.5-.8-1.9zm18-1.2c-.4-.4-1.2-.8-2.1-1.2-.8-.3-1.4-.6-1.6-.8-.3-.2-.5-.5-.5-.9 0-.5.2-1.1 1.8-1.1.8 0 1.6.1 2.4.4l.2.1.2-1.6-.2-.1c-.5-.2-1.3-.3-2.6-.3-1.1 0-2 .3-2.6.8-.6.5-.9 1.2-.9 2s.3 1.4.8 2c.4.4 1 .7 2 1.2.9.4 1.4.7 1.7.9.4.3.6.7.6 1.1 0 .3 0 1.3-2.4 1.3-.7 0-1.5-.1-2.4-.4l-.2-.1-.4 1.6.2.1c.8.2 1.6.3 2.6.3 2.8 0 4.1-1 4.1-3 .4-.9 0-1.7-.7-2.3zm7.1 3.7c-.5 0-.9-.1-1.1-.4-.1-.2-.3-.7-.3-2V136h2.2l.1-1.6h-.2c-.8 0-1.5.1-2 .1 0-.5.1-1.2.1-2.1v-.2l-1.6.2v.2c0 1-.1 1.6-.1 2h-1.3l-.1 1.6h1.2v2.8c0 1.3.2 2.1.5 2.6.4.5 1.1.8 2.1.8.4 0 .8-.1 1.2-.2h.1l.1-1.4-.3.1c-.2-.1-.4-.1-.6-.1zm9.2-1.3V137c0-1-.3-1.7-.8-2.1-.5-.4-1.3-.6-2.2-.6-1 0-1.9.1-2.7.3h-.1l-.2 1.5.3-.1c.8-.2 1.5-.3 2.3-.3.6 0 1.1.1 1.4.3.3.2.4.5.4 1.1v.2c-1.8 0-2.9.3-3.6.8-.7.5-1.1 1.2-1.1 2.1 0 .7.2 1.3.7 1.6.5.4 1 .6 1.6.6 1 0 1.8-.2 2.4-.7 0 .1 0 .3.1.4v.2l1.6-.1v-.2c0-.8-.1-1.6-.1-2.5zm-1.6.9c-.5.3-1.1.5-1.8.5-1.1 0-1.3-.5-1.3-.8 0-.6.4-1 1.1-1.3.4-.1 1.1-.2 1.9-.2.1.5.1 1.1.1 1.8zm11.4-2.3v-1.2c0-1-.3-1.8-.8-2.2-.5-.4-1.2-.6-2.1-.6-.8 0-1.6.3-2.3.9l-.1-.8-1.8.2v.2c.2 1.1.3 2.3.3 3.4 0 .8 0 2-.1 3.8v.2h1.8v-5.7c.6-.4 1.1-.7 1.8-.7.5 0 .9.1 1.2.4.3.2.4.7.4 1.5 0 1.6 0 3-.2 4.4v.2h1.8v-.2c.1-1.7.1-2.9.1-3.8zm9.6-1.9c0-2.1 0-3.8.1-5.1v-.2l-1.9.1v.2c.1 1.1.1 2.2.1 3.3-.4-.2-.9-.3-1.6-.3-1.2 0-2.2.4-2.9 1.3-.7.9-1 1.9-1 3 0 1 .3 1.9.9 2.7.6.8 1.4 1.1 2.5 1.1 1 0 1.7-.2 2.3-.7 0 .1 0 .2.1.3v.2h1.5v-.2c0-1.7-.1-3.6-.1-5.7zm-1.5 4.1c-.4.4-1 .6-1.7.6s-1.2-.2-1.5-.7c-.4-.5-.6-1.1-.6-1.8 0-.8.2-1.5.6-2 .4-.5 1-.8 1.8-.8.5 0 1 .1 1.3.4.1 1.4.1 2.8.1 4.3zm10.4-.8V137c0-1-.3-1.7-.8-2.1-.5-.4-1.3-.6-2.2-.6-1 0-1.9.1-2.7.3h-.1l-.2 1.5.3-.1c.8-.2 1.5-.3 2.3-.3.6 0 1.1.1 1.4.3.3.2.4.5.4 1.1v.2c-1.7 0-2.9.3-3.6.8-.7.5-1.1 1.2-1.1 2.1 0 .7.2 1.3.7 1.6.5.4 1 .6 1.6.6 1 0 1.8-.2 2.4-.7 0 .1 0 .3.1.4v.2l1.6-.1-.1-.2c.1-.8 0-1.6 0-2.5zm-1.6.9c-.4.3-1.1.5-1.8.5-1.1 0-1.3-.5-1.3-.8 0-.6.4-1 1.1-1.3.4-.1 1.1-.2 1.9-.2.1.5.1 1.1.1 1.8zm8-6.2c-.7 0-1.3.3-1.8.9 0-.2-.1-.4-.1-.7v-.2l-1.8.2v.2c.2 1.1.4 2.2.4 3.4 0 .9 0 2.1-.1 3.8v.2h1.8v-5.1c.3-.8.8-1.2 1.7-1.2.3 0 .7.1 1 .2l.2.1.5-1.6-.2-.1c-.8 0-1.2-.1-1.6-.1zm10.1 2c0-2.1.1-3.8.2-5.1v-.2l-1.9.1v.2c.1 1.1.1 2.2.1 3.3-.4-.2-.9-.3-1.6-.3-1.2 0-2.2.4-2.9 1.3-.7.9-1 1.9-1 3 0 1 .3 1.9.9 2.7.6.8 1.4 1.1 2.5 1.1 1 0 1.7-.2 2.3-.7v.5h1.5v-.2c-.1-1.7-.1-3.6-.1-5.7zm-1.5 4.1c-.4.4-1 .6-1.7.6s-1.2-.2-1.5-.7c-.4-.5-.6-1.1-.6-1.8 0-.8.2-1.5.6-2 .4-.5 1-.8 1.8-.8.5 0 1 .1 1.3.4 0 1.4.1 2.9.1 4.3zm6.1-1.9c0-1.6 0-2.9.1-3.9v-.3l-2 .3v.2c.2 1 .3 2.2.3 3.7 0 1.3 0 2.5-.1 3.5v.2h1.8v-.2c0-1-.1-2.2-.1-3.5zm4.7 2.2c.1-.2.5-.8 1.6-2.2.9-1.2 1.6-2 2-2.4v-.1l.1-1.5h-5.7l-.1 1.6h.2c.9-.1 2.1-.1 3.6-.1-.1.2-.6.8-1.7 2.2-1.1 1.4-1.8 2.2-2.1 2.4l-.1.1-.1 1.5h6l.1-1.7h-.2c-.9.2-2.1.2-3.6.2zm12.5-1.1v-2.6c0-1-.3-1.7-.8-2.1-.5-.4-1.3-.6-2.2-.6-1 0-1.9.1-2.7.3h-.1l-.2 1.5.3-.1c.8-.2 1.5-.3 2.3-.3.6 0 1.1.1 1.4.3.3.2.4.5.4 1.1v.2c-1.8 0-2.9.3-3.6.8-.7.5-1.1 1.2-1.1 2.1 0 .7.2 1.3.7 1.6.5.4 1 .6 1.6.6 1 0 1.8-.2 2.4-.7 0 .1 0 .3.1.4v.2l1.6-.1v-.2c-.1-.7-.1-1.5-.1-2.4zm-1.6.9c-.4.3-1.1.5-1.8.5-1.1 0-1.3-.5-1.3-.8 0-.6.4-1 1.1-1.3.4-.1 1.1-.2 1.9-.2.1.5.1 1.1.1 1.8zm8 .4c-.5 0-.9-.1-1.1-.4-.1-.2-.3-.7-.3-2V136h2.2l.1-1.6h-.2c-.8 0-1.5.1-2 .1 0-.5 0-1.2.1-2.1v-.2l-1.6.2v.2c0 1-.1 1.6-.1 2h-1.3l-.1 1.6h1.2v2.8c0 1.3.2 2.1.5 2.6.4.5 1.1.8 2.1.8.4 0 .8-.1 1.2-.2h.1l.1-1.4-.3.1c-.2-.1-.4-.1-.6-.1zm5-2.4c0-1.6 0-2.9.1-3.9v-.3l-2 .3v.2c.2 1 .3 2.2.3 3.7 0 1.3 0 2.5-.1 3.5v.2h1.8v-.2c-.1-1.1-.1-2.2-.1-3.5zm6.6-4.3c-1.1 0-2 .4-2.8 1.2-.8.8-1.2 1.9-1.2 3.2 0 1.2.4 2.2 1.1 2.9.7.7 1.6 1 2.6 1 1.1 0 2-.4 2.8-1.2.8-.8 1.2-1.8 1.2-3.2 0-1.2-.4-2.2-1.1-2.9-.8-.6-1.6-1-2.6-1zm-.2 7c-.7 0-1.2-.3-1.5-.8-.4-.6-.6-1.3-.6-2s.2-1.4.6-1.9c.4-.5.9-.8 1.5-.8.7 0 1.2.3 1.5.8.4.6.6 1.3.6 2s-.2 1.4-.6 1.9c-.3.5-.8.8-1.5.8zm13.2-3v-1.2c0-1-.3-1.8-.8-2.2-.5-.4-1.2-.6-2.1-.6-.8 0-1.6.3-2.3.9l-.1-.8-1.8.2v.2c.2 1.1.3 2.3.3 3.4 0 .8-.1 2-.1 3.8v.2h1.8v-5.7c.6-.4 1.2-.7 1.8-.7.5 0 .9.1 1.2.4.3.2.4.7.4 1.5 0 1.6-.1 3-.2 4.4v.2h1.8v-.2c.1-1.7.1-2.9.1-3.8zm14.3-6.3h-1.9v.2c.1 1.3.1 2.9.1 4.7 0 1.8 0 3.6-.1 5.2v.2h1.9v-.2c-.1-1.7-.1-3.4-.1-5.2 0-1.7 0-3.3.1-4.7v-.2zm10 6.3v-1.2c0-1-.3-1.8-.8-2.2-.5-.4-1.2-.6-2.1-.6-.8 0-1.6.3-2.3.9l-.1-.8-1.8.2v.2c.2 1.1.3 2.3.3 3.4 0 .7 0 2-.1 3.8v.2h1.8v-5.7c.6-.4 1.2-.7 1.8-.7.5 0 .9.1 1.2.4.3.2.4.7.4 1.5 0 1.6-.1 3-.2 4.4v.2h1.8v-.2c.1-1.7.1-2.9.1-3.8zm7.2.2c-.4-.3-.9-.5-1.6-.8-.6-.2-1-.4-1.2-.6-.2-.1-.2-.3-.2-.5s0-.6 1.3-.6c.7 0 1.3.1 1.8.3l.2.1.3-1.5-.2-.1c-.5-.2-1.3-.2-2.2-.2-1 0-1.7.2-2.2.7-.5.5-.7 1-.7 1.7 0 .6.3 1.2.8 1.6.3.3.9.6 1.6.9.5.2.9.4 1.2.6.2.1.3.3.3.6 0 .2 0 .7-1.5.7-.7 0-1.4-.1-2.1-.4l-.2-.1-.3 1.6h.2c.7.2 1.6.3 2.4.3 2.5 0 3.1-1.3 3.1-2.4.1-1-.2-1.5-.8-1.9zm6.8 2.5c-.5 0-.9-.1-1.1-.4-.1-.2-.3-.7-.3-2V136h2.2l.1-1.6h-.2c-.8 0-1.5.1-2 .1 0-.5.1-1.2.1-2.1v-.2l-1.6.2v.2c0 1-.1 1.6-.1 2h-1.3l-.1 1.6h1.2v2.8c0 1.3.2 2.1.5 2.6.4.5 1.1.8 2.1.8.4 0 .8-.1 1.2-.2h.1l.1-1.4-.3.1c-.1-.1-.4-.1-.6-.1zm5-2.4c0-1.6 0-2.9.1-3.9v-.3l-2 .3v.2c.2 1 .3 2.2.3 3.7 0 1.3 0 2.5-.1 3.5v.2h1.8v-.2c0-1.1-.1-2.2-.1-3.5zm6.4 2.4c-.5 0-.9-.1-1.1-.4-.1-.2-.3-.7-.3-2V136h2.2l.1-1.6h-.2c-.8 0-1.5.1-2 .1 0-.5.1-1.2.1-2.1v-.2l-1.6.2v.2c0 1-.1 1.6-.1 2h-1.3l-.1 1.6h1.2v2.8c0 1.3.2 2.1.5 2.6.4.5 1.1.8 2 .8.4 0 .8-.1 1.2-.2h.1l.1-1.4-.3.1c0-.1-.3-.1-.5-.1zm15.9 0c-.5 0-.9-.1-1.1-.4-.1-.2-.3-.7-.3-2V136h2.2l.1-1.6h-.2c-.8 0-1.5.1-2 .1 0-.5 0-1.2.1-2.1v-.2l-1.6.2v.2c0 1-.1 1.6-.1 2h-1.3l-.1 1.6h1.2v2.8c0 1.3.2 2.1.5 2.6.4.5 1.1.8 2.1.8.4 0 .8-.1 1.2-.2h.1l.1-1.4-.3.1c-.1-.1-.4-.1-.6-.1zm-5.9-2.2c0-1.7 0-3 .1-4v-.2l-1.8.1v.2c0 1 .1 2.9.1 5.6-.5.3-1.1.5-1.8.5-.6 0-1-.2-1.2-.6-.2-.5-.3-1.5-.3-3.1 0-.7 0-1.5.1-2.5v-.2l-1.9.1v.2c.1 1 .1 1.9.1 2.6v1.5c0 1.4.2 2.2.7 2.7.4.5 1.1.7 2.1.7.9 0 1.7-.2 2.4-.7 0 .1 0 .3.1.4v.2l1.6-.1v-.2c-.3-1-.3-2.1-.3-3.2zm14.4-3.5c-.6-.6-1.4-.9-2.4-.9-1.1 0-2 .4-2.7 1.3-.7.8-1 1.8-1 3 0 1.1.4 2 1.1 2.8.7.8 1.8 1.2 3.2 1.2 1 0 1.7-.1 2.2-.3h.1l.2-1.5-.3.1c-.7.2-1.4.3-2.1.3-.8 0-1.5-.2-1.9-.7-.4-.4-.7-.9-.8-1.5l5.2-.1v-1.1c0-1.2-.3-2-.8-2.6zm-2.5.4c1 0 1.5.5 1.6 1.7l-3.5.1c.3-1.2.9-1.8 1.9-1.8zM78.7 120h3.2c-.1-1-.1-2.7-.1-3.8v-5.5c0-1.1 0-2.2.1-3.3-1 .1-2 .2-3 .2h-6.8v-3.1c0-.8 0-1.6.2-2.5H69c.1.8.2 1.7.2 2.5v3.1h-6.4c-1.1 0-2.2-.1-3.3-.2.1 1 .1 2.1.1 3.1v5.7c0 1.1 0 2.7-.1 3.8h3.1v-1.1h6.5v6.3c0 1-.1 2.1-.2 3.1h3.3c-.2-1-.2-2-.2-3.1v-6.3h6.7c.1 0 0 1 0 1.1zm-9.5-3.6h-6.5v-6.2h6.5v6.2zm2.9 0v-6.2h6.7v6.2h-6.7zm22.3 3.8c-.8 0-1.6 0-2.5-.1v2.6c.8-.1 1.6-.2 2.5-.2h10.2c.7 0 1.5 0 2.2.2v-2.6c-.7.1-2.4.1-2.4.1l1.5-2c-.8-1.2-2.5-2.6-2.5-2.6s1.7.1 2.3.2v-2.5c-.8.1-1.7.2-2.5.2h-2.7v-3.9h3.4c.8 0 1.6 0 2.5.1v-2.4c-.8.1-1.6.1-2.5.1h-9.5c-.8 0-1.6-.1-2.5-.2v2.4c.8-.1 1.6-.1 2.5-.1H98v3.9h-2.7c-.8 0-1.7-.1-2.5-.2v2.5c.8-.1 1.7-.2 2.5-.2H98v4.6h-3.6zm6.3-4.6h2.8l-1.7 1.8c1.2 1.1 2.5 2.8 2.5 2.8h-3.6v-4.6z" class="st2"/><path d="M108 127.7h2.9c-.1-1.5-.2-2.7-.2-3.5v-17.6c0-.9.1-2.1.2-3.6-1.4.2-2.6.2-3.4.2H91.4c-.9 0-2-.1-3.4-.2.1 1.4.1 2.6.1 3.6v17.6c0 .9 0 2.1-.2 3.5h2.9v-1.2H108v1.2zm0-3.6H90.8v-18.6H108v18.6zm32.9-.1c-.9-.3-1.8-.8-2.7-1.4-.1.5-.3 1.3-.5 2-.3.8-.7 1.3-1.6 1.3h-6.4c-1.3 0-1.4-.8-1.4-1.5v-3.9h6.6v.9h3.1c-.1-.9-.1-2-.1-3V108c0-.8.1-1.8.1-2.7-.9.1-1.8.2-2.7.2h-7v-1.8c0-.6 0-1.3.1-1.9h-3.2c.1.7.1 1.3.1 1.9v1.8H119c-.8 0-1.7-.1-2.6-.2.1.9.1 1.8.1 2.7v10.3c0 .9 0 2.4-.1 3.3h3.1v-1.2h5.9v5.2c0 1.2.9 2.6 2.7 2.6h9.5c1.3 0 2.5-.8 3.3-4.2zm-12.5-16h6.6v3.9h-6.6V108zm0 6.3h6.6v3.7h-6.6v-3.7zm-2.9 3.7h-5.9v-3.7h5.9v3.7zm0-6.1h-5.9V108h5.9v3.9zm27.7 16.2c4.4 0 6.6-2.4 6.6-7.4v-5.5h7.1c.9 0 1.8.1 2.7.2v-2.8c-.9.1-1.8.2-2.7.2h-7.6l-.3-.7s4.2-4.4 6.8-7.3v-.1l-1.4-2c-1.1.1-2.1.2-2.7.2h-10.1c-.8 0-1.8-.1-3.2-.2v2.8c1.3-.1 2.4-.2 3.2-.2h9.8l-3.9 4.3s-1.5-1.7-2.5-2.3l-2.1 1.9c1.5 1 3.3 2.8 3.3 3.5h-9c-.9 0-1.8 0-2.6-.2v2.8c.8-.1 1.7-.2 2.6-.2h9.7l.1 4.6c.1 1.7-.2 3.1-.7 4.1-.5 1-1.9 1.5-4 1.4.4 1.1.7 1.8.8 2.8 0 .1 0 .1.1.1zm37.5-3.7s2.2 2.5 6.6 4.1c.5-1 1-1.9 1.5-2.7-3.5-1.1-6.1-3.3-6.1-3.3s3.5-3.9 4.9-9.2l-.5-.8h-4.9v-3.8h3.4c.5 0 1.4 0 2.6.2v-2.8c-1.2.1-2.1.2-2.6.2h-3.4v-2.9c0-.4 0-1 .1-1.7h-3.2c.1.6.1 1.1.1 1.7v2.9h-3c-.5 0-1.5-.1-2.7-.2v2.9c1.3-.1 2.2-.2 2.7-.2h3v3.8h-3c-.4 0-1.3-.1-2.5-.2v2.6c1.2-.1 2-.2 2.5-.2h1.3l-2.3 1.3c1.3 3.5 3.5 6.1 3.5 6.1s-2.2 2.3-7.2 3.5l1.5 2.7c3.7-.6 7.7-4 7.7-4zm-2.8-9.4h6.3c-1.4 3.5-3.3 5.6-3.3 5.6s-1.8-2.5-3-5.6zm37.7 10.1c.5-1 1-1.9 1.5-2.8-7.5-4.4-10.9-11.7-10.9-11.7h6.6l3.7.2v-2.9c-1.2.1-2.5.2-3.7.2h-6.9v-2.6l.3-3.6h-3.3c.1 1.6.2 2.9.2 3.7v2.6h-6.9c-1.2 0-2.4 0-3.5-.1v2.8c1.2-.1 2.4-.2 3.5-.2h6.5s-2.2 5.8-10.8 12c.7.9 1.3 1.8 1.7 2.7 6.2-4.3 9.4-9.4 9.4-9.4v8.6c0 .8 0 2-.2 3.6h3.2c-.1-1.5-.2-2.6-.2-3.4v-8.6c.1-.1 4.1 5.8 9.8 8.9z" class="st2"/><path d="M217.9 104.3c2 1.5 4.2 3.7 4.2 3.7s1.6-1.5 2.3-2.1c-1.3-1.2-2.7-2.4-4.3-3.5l-2.2 1.9zm16.4 23.9h3.1c-.1-.9-.1-1.8-.1-2.7v-9.6s1.3 1.8 2 3.6l2.1-2c-.7-1.8-2.2-3.8-2.5-4.3l-1.6 1.3v-3.8h1c.7 0 1.4 0 2.1.2v-2.8c-.7.1-1.4.1-2.1.1h-1v-3.4c0-.8 0-1.7.1-2.7h-3.1c.1 1 .2 2 .2 3.1v3.1H233c-.8 0-1.6 0-2.4-.1v2.8c.8-.1 1.6-.2 2.4-.2h1.3s-.9 4.6-4.2 8.8c.4 1 .7 2.1 1 3.3 2.4-2.6 3.4-5.1 3.4-5.1v7.9c-.1.6-.1 1.6-.2 2.5z" class="st2"/><path d="M255.6 113.8V111c-.9.1-1.8.1-2.7.2h-10c-.9 0-1.8-.1-2.7-.2v2.9c.9-.1 1.8-.2 2.7-.2h3.6v11.1c0 .7-.4 1.1-1.1 1.1-.4 0-1.2 0-1.5-.1.4 1.1.4 1.7.5 2.8.9 0 2 0 3-.3s1.8-.9 1.8-2v-12.6h3.8c.7 0 1.6 0 2.6.1z" class="st2"/><path d="M256.5 124c-1.1-2.3-2.6-5.5-4-7.6l-2.5 1.4c1.6 2.6 3.2 6.1 4.1 8.5.7-.7 1.5-1.5 2.4-2.3zm-12.6-20.4c-1 0-1.9-.1-2.7-.2v2.9c.9-.1 1.8-.2 2.7-.2h7.9c.9 0 1.8.1 2.7.2v-2.9c-.9.1-1.8.2-2.7.2h-7.9zm-3.4 23c2.1-2.5 3.7-5.4 4.8-8.6l-2.7-1.2c-.8 2.8-2.4 5.4-4.7 7.6.6.4 1.1.7 1.4 1 .4.3.8.7 1.2 1.2zm21.2-1c2.4-2.5 4.4-6.5 5.1-8.8-.7-.6-2.2-1.7-2.7-2-.8 2.5-2.6 5.9-4.7 8.1 1.1 1.4 1.3 1.5 2.3 2.7z" class="st2"/><path d="M271 126.2h10.2c1 0 2 .1 2.9.2v-2.5c-.9.1-1.9.2-2.9.2H278V121h2.1c.8 0 1.7.1 2.6.2v-2.6c-.9.1-1.7.2-2.6.2H278v-2.9h1.9c.9 0 1.8 0 2.7.2v-2.6c-.9.1-1.8.1-2.7.1H278v-3.1h3.1c.9 0 1.8 0 2.7.2v-2.6c-.9.1-1.8.1-2.7.1h-10.5s1.1-2.1 1.7-4.5c-.8-.4-1.6-.8-2.5-1.2-.8 3.6-3.2 7.6-5.6 10.1.9.8 1.6 1.6 2.1 2.4.8-.8 2-2.5 2-2.5v13.3c0 1.1 0 2.1-.1 2.8h2.8v-2.4zm0-16h4.2v3.1H271v-3.1zm0 5.4h4.2v2.9H271v-2.9zm0 8.3v-3.1h4.2v3.1H271z" class="st2"/><path d="M274.1 103.4c.7 1.3 1.3 2.7 1.8 4.1l2.7-1.3c-.4-1.3-1-2.7-1.7-4.1l-2.8 1.3zm-13.7 2.7c1.2 1 2.3 2.1 3.4 3.4l2.1-2.4c-1.1-1.1-2.2-2.2-3.3-3.1l-2.2 2.1zm31.8 21.6h3.3c-.1-.9-.1-1.7-.1-2.6V112c0-.7 0-1.5.1-2.3h-.9s2.2-4.2 3-6.2c-1-.5-2-1.1-2.9-1.6-1 3-4.7 9.8-6.9 11.4.6 1 1.1 2.1 1.5 3.2 1-1 3-3.4 3-3.4V125c0 1 0 1.9-.1 2.7zm20.2-2.3c.5-1.3.8-2.6 1-3.9-.9-.1-1.9-.2-2.9-.7-.1 1.1-.3 2.3-.5 3-.3.8-.8 1.2-1.6 1.3-1.1.1-2.3.1-3 0-.7 0-1.4-.6-1.4-1.3v-8.7s5.8-2.6 8.7-5.6l-2.3-2.2c-3.1 3.4-6.4 4.7-6.4 4.7v-5.9c0-.9 0-2.1.2-3.6H301c.1 1.5.2 2.7.2 3.6v7s-2.7.9-4.1 1.2c.6 1 1.1 1.8 1.4 2.9l2.7-1.1v9c0 1.2 1.2 2.4 2.8 2.4 1.4.1 4.2.1 5.6 0 1.4 0 2.3-.8 2.8-2.1zm28.3-9.7c.6 0 1.2.1 1.9.2v-2.6c-.6.2-1.2.2-1.9.2h-1.3v-8.1h.9c.5 0 1.1.1 1.7.1v-2.6c-.6.1-1.1.1-1.7.1H330c-.5 0-1.1-.1-1.7-.2v2.6c.5-.1 1.1-.1 1.7-.1h1v8.1h-1.6c-.5 0-1.1-.1-1.7-.2v2.6c.6-.1 1.3-.2 1.9-.2h1.4c0 7.5-3.5 9.5-5.3 10.8.7.5 1.5 1.2 2.3 1.9 2.1-1.6 5.7-4.3 5.7-12.7h3v9.6c0 1-.1 2-.2 2.9h3c-.1-.9-.1-1.8-.1-2.7v-9.8h1.3zm-4-2.3h-2.9v-8.1h2.9v8.1z" class="st2"/><path d="M326.6 125.2c0-.9-.1-1.8-.2-2.6v-9c0-.7 0-1.4.1-2.1-.5.1-1.3.1-2.2.1h-2.9s1.3-3.1 1.8-5.8h1.8c.5 0 1.1 0 1.7.1v-2.5c-.5.1-1.1.1-1.7.1h-6.7c-.5 0-1-.1-1.6-.1v2.5c.6-.1 1.1-.1 1.6-.1h2.1s-1.3 5.7-4.7 9.1c.2 1.2.3 2.3.5 3.4.5-.5 2.3-2.4 2.3-2.4v6.9c0 .8-.1 1.6-.1 2.4h2.7v-.8h2.6v.8h2.9zm-5.2-2.9v-8.4h2.4v8.4h-2.4z" class="st2"/><path d="M363.8 128.2c1.2.1 3.4.1 4.5 0 .9-.1 1.6-.7 2.1-1.8.5-1 .8-2 1-2.7-.9-.3-1.7-.6-2.5-1.2-.1.6-.3 1.2-.5 1.9-.3.8-.7 1.3-1.2 1.3-.7.1-1.5.1-2 0-.7-.1-.7-.6-.7-.9 0-1.2.1-4.5.2-5.7.1-1.1.3-2.2.4-3.2-.8.1-1.5.1-2.3.1h-5.1s.3-2 .3-3l-2.8-.4s.1 1.9-.2 3.4h-5c-.8 0-1.5-.1-2.3-.2v2.5c.7-.1 1.5-.2 2.3-.2h4.4c-2 4.7-4.4 7-8.6 7.8.6.8 1.1 1.6 1.5 2.5 2.5-.6 8.1-3.2 10-10.3h4.7s-.3 5.6-.3 7.7c-.1 1.1 1 2.3 2.1 2.4zm-17.6-16.7h2.9V108h18.7v2c0 .5 0 1-.1 1.6h3.1c-.1-.5-.1-1-.1-1.6v-3c0-.5 0-.9.1-1.4-.8.1-1.7.2-2.5.2h-9l1.5-.9c-.6-1.3-1.6-2.6-2.2-3.5l-2.5 1.4c.8.9 1.7 3 1.7 3h-8.9c-.8 0-1.7-.1-2.6-.2 0 .5.1.9.1 1.4v3c-.2.4-.2 1-.2 1.5z" class="st2"/><path d="M350 115.3c1.1-.6 2.2-1.4 3.3-2.4 1.1-1 2.1-1.9 2.9-2.9l-2.2-1.4c-1.8 2-3.8 3.6-6.1 4.6.6.7 1.3 1.3 2.1 2.1zm11.9-6.5l-1.9 1.8c2.5 1.4 4.9 3.3 7.1 5.4.6-.9 1.1-1.7 1.5-2.4-2.1-1.7-4.4-3.4-6.7-4.8z" class="st2"/><path d="M383.7 118.8c.3-2.5-.9-4.6-3-6.4 0 0 1.9-5.6 2.8-8.3l-.7-.9h-5.6c-.8 0-1.7 0-2.5-.1.1.8.1 1.5.1 2.3v19.7c0 1.1 0 2.1-.1 3.1h2.8c-.1-1-.1-2-.1-3.1v-19.6h3s-1.4 4.6-2.2 6.7v.9c1.8 1.3 2.9 3.2 2.9 4.8 0 1.6-1 2.6-2.9 2.9.5.9.9 1.9 1.2 2.9 2.5-.9 4-2.5 4.3-4.9z" class="st2"/><path d="M394.7 128.2c.9 0 1.9.1 3 0 .6-.1 1.4-.5 1.7-1.3.3-.8.5-1.8.6-2.9-.9-.1-1.7-.4-2.5-.8 0 .5-.1.9-.1 1.5-.1.7-.7 1.1-1 1.1h-.6c-.4 0-.9-.2-.9-.7v-7.7h1.6c.7 0 1.5 0 2.2.1v-2.6c-.7.1-1.4.1-2.2.1h-10.1c-.7 0-1.5 0-2.2-.1v2.6c.7-.1 1.5-.1 2.2-.1h.9c0 2.9-.3 4.6-1.2 6-.9 1.4-2.4 2.3-4.4 2.7.7.9 1.2 1.7 1.5 2.5 2.2-.6 3.9-1.9 5.1-3.8 1.1-1.9 1.6-5.7 1.6-7.5h2.5v8.9c0 1.1 1.1 1.9 2.3 2zm-11.1-23c.1.9.1 1.8.1 2.8 0 0 0 2.5-.1 3.5h2.9c-.1-.7-.1-1.4-.1-2.2v-1.7h10v1.7c0 .7 0 1.4-.1 2.2h2.9c-.1-.7-.2-3.5-.2-3.5 0-1.2.1-2.1.2-2.8-.7.1-1.4.2-2.1.2h-5.3l1.2-1.1c-.5-.8-1.4-1.9-2.5-3.3l-2.2 1.8c.8.8 1.8 2.5 1.8 2.5h-4.6c-.5.1-1.2 0-1.9-.1z" class="st2"/><path d="M389.6 110.4c-.7 0-1.5-.1-2.3-.2v2.4c.7-.1 1.4-.2 2.1-.2h4.1c.6 0 1.3.1 2 .2v-2.4c-.7.1-1.4.2-2 .2h-3.9z" class="st2"/><path d="M182.7 110v-2.8c-1 .1-2.5.2-2.5.2v-2.6c0-.9.1-1.9.1-2.9h-2.9c.1.9.1 1.9.1 2.9v2.6h-1.6c-.4 0-1.2 0-2.4-.2v2.8c1.1-.1 1.9-.2 2.4-.2h1.6v6.4s-3.2 1.4-4.5 1.6l.9 3c1.2-.6 3.6-2 3.6-2v5.7c0 .7-.4 1.1-1.1 1.1-.4 0-1.2 0-1.5-.1.4 1.1.4 1.7.5 2.7.9 0 2 0 3-.3s1.8-.9 1.8-2v-8.2s1.5-1 2.3-1.3l.2-2.8c-.7.3-2.5 1.4-2.5 1.4v-5.3c0 .1 1.5.2 2.5.3z" class="st2"/></svg>