<svg width="68" height="32" viewBox="0 0 68 32" fill="none" xmlns="http://www.w3.org/2000/svg">
<path fill-rule="evenodd" clip-rule="evenodd" d="M62.8103 3.1957L61.9065 0.600653C61.7423 0.132946 61.2354 -0.11416 60.7708 0.0525727C60.3062 0.21674 60.0633 0.730619 60.2266 1.20004L61.1787 3.93359L62.3246 4.58855L62.8103 3.1957Z" fill="#ED3124"/>
<path fill-rule="evenodd" clip-rule="evenodd" d="M64.4405 3.93408L65.3942 1.20052C65.5576 0.731107 65.3147 0.216373 64.8501 0.053061C64.388 -0.113672 63.8786 0.133435 63.7169 0.601141L62.8105 3.19618L63.2963 4.58904L64.4405 3.93408Z" fill="#F26F21"/>
<path fill-rule="evenodd" clip-rule="evenodd" d="M67.5051 3.21095C67.2622 2.78001 66.718 2.62782 66.2915 2.87321L64.4407 3.93432L63.9414 5.36993L64.9087 5.73589L67.17 4.43879C67.5973 4.19425 67.748 3.6436 67.5051 3.21095Z" fill="#ED3124"/>
<path fill-rule="evenodd" clip-rule="evenodd" d="M63.7012 7.20052L65.64 7.93329C65.7441 7.97348 65.8499 7.99229 65.9523 7.99229C66.3145 7.99229 66.653 7.76827 66.7867 7.40744C66.961 6.94145 66.7275 6.42415 66.2662 6.25057L64.908 5.73584L63.7012 6.42586V7.20052Z" fill="#F26F21"/>
<path fill-rule="evenodd" clip-rule="evenodd" d="M61.9199 7.20053V8.62161C61.9199 9.11753 62.3202 9.52026 62.8111 9.52026C63.3036 9.52026 63.7013 9.11753 63.7013 8.62161V7.20053L62.8111 6.86279L61.9199 7.20053Z" fill="#ED3124"/>
<path fill-rule="evenodd" clip-rule="evenodd" d="M60.7134 5.7356L59.3559 6.25033C58.8956 6.4239 58.662 6.9412 58.8338 7.4072C58.9692 7.76802 59.3085 7.99204 59.6691 7.99204C59.7715 7.99204 59.8772 7.97323 59.9796 7.93305L61.9202 7.20028V6.42561L60.7134 5.7356Z" fill="#ED3124"/>
<path fill-rule="evenodd" clip-rule="evenodd" d="M61.1798 3.93367L59.3316 2.87343C58.9042 2.62803 58.36 2.77937 58.1171 3.21031C57.876 3.64296 58.0257 4.19446 58.4523 4.43815L60.7135 5.73524L61.6825 5.37014L61.1798 3.93367Z" fill="#F26F21"/>
<path fill-rule="evenodd" clip-rule="evenodd" d="M29.147 29.7285C32.2859 29.7285 35.1455 28.3895 37.1698 26.2733C38.5272 24.8624 39.5309 23.0882 40.0513 21.1182L43.5549 27.773C44.1008 28.8067 45.162 29.4549 46.3189 29.4549C47.4774 29.4549 48.5387 28.8067 49.0845 27.773L57.6463 11.5187C58.4613 9.9728 57.8807 8.05323 56.349 7.23154C54.8181 6.4107 52.9156 6.99641 52.1007 8.54317L46.5787 19.4141L46.3189 20.3077L46.0642 19.4141L40.5388 8.54317C39.7255 6.99641 37.8231 6.4107 36.2922 7.23154C34.7604 8.05323 34.1799 9.9728 34.9948 11.5187L37.0581 15.4365H30.6907C29.2477 15.4365 28.0773 16.6558 28.0773 18.1607C28.0773 19.6638 29.2477 20.8805 30.6907 20.8805H33.8397C32.9917 22.1999 31.5488 23.4807 29.1386 23.4807C27.7388 23.4773 26.494 22.9036 25.5436 21.9228C24.6034 20.9395 24.0118 19.5834 24.0118 18.0469C24.0067 15.3818 25.8161 13.2254 28.0723 12.7294C29.7386 12.3575 30.7914 10.6885 30.4232 9.00404C30.2049 8.01048 29.5406 7.23325 28.6909 6.83908C27.4579 6.29527 25.9422 6.83908 25.9422 6.83908C21.1963 8.28239 17.8298 12.7867 17.8264 18.0469C17.8264 18.7267 17.8856 19.3928 17.9948 20.0426C17.0063 21.6911 15.142 23.7603 12.0217 23.7603C9.02507 23.7535 6.55563 21.2713 6.55394 18.1607C6.55563 15.3946 8.50123 13.1287 11.0367 12.6508C11.0367 12.6508 11.6748 12.5259 12.7005 12.4387C13.6872 12.3558 15.1107 11.1912 15.1107 9.4384C15.1107 7.71464 13.7287 6.31665 12.0217 6.31665C5.56887 6.32178 0.390494 11.6393 0.376953 18.1607C0.390494 24.6786 5.56887 29.9952 12.0217 30.0004C15.5338 29.9987 18.6676 28.4211 20.7968 25.933C20.7968 25.933 23.7884 29.7285 29.147 29.7285Z" fill="#ED3124"/>
</svg>
