<?xml version="1.0" encoding="UTF-8" standalone="no"?>
<!-- Created with Inkscape (http://www.inkscape.org/) -->

<svg
   version="1.1"
   id="svg1"
   width="2133.6606"
   height="615.68787"
   viewBox="0 0 2133.6607 615.68787"
   sodipodi:docname="cj-olive-young.svg"
   inkscape:version="1.4.3 (0d15f75, 2025-12-25)"
   xmlns:inkscape="http://www.inkscape.org/namespaces/inkscape"
   xmlns:sodipodi="http://sodipodi.sourceforge.net/DTD/sodipodi-0.dtd"
   xmlns="http://www.w3.org/2000/svg"
   xmlns:svg="http://www.w3.org/2000/svg">
  <defs
     id="defs1" />
  <sodipodi:namedview
     id="namedview1"
     pagecolor="#ffffff"
     bordercolor="#000000"
     borderopacity="0.25"
     inkscape:showpageshadow="2"
     inkscape:pageopacity="0.0"
     inkscape:pagecheckerboard="0"
     inkscape:deskcolor="#d1d1d1"
     inkscape:zoom="0.28"
     inkscape:cx="1066.0714"
     inkscape:cy="305.35714"
     inkscape:current-layer="g1" />
  <g
     inkscape:groupmode="layer"
     inkscape:label="Image"
     id="g1"
     transform="translate(-92.077741,-92.022978)">
    <g
       id="g2">
      <path
         style="fill:#b1b1b1"
         d="m 438.17708,706.01438 c -23.1695,-4.81764 -37.67941,-12.13267 -51.54744,-25.98717 -16.57631,-16.56013 -23.96299,-35.41557 -23.96299,-61.16861 0,-23.52463 5.58693,-43.28784 21.35051,-75.52527 32.05835,-65.56121 81.11503,-117.7027 115.91479,-123.2038 14.76427,-2.33392 29.00703,3.48296 43.4812,17.75812 22.24189,21.93608 39.86117,59.06828 49.50437,104.32922 3.14457,14.75921 3.65192,20.23808 3.68401,39.78313 0.0324,19.7493 -0.35751,24.03643 -3.02957,33.30913 -12.7936,44.39698 -45.96318,76.22987 -91.96423,88.25819 -16.30101,4.26237 -48.6908,5.51192 -63.43065,2.44706 z M 261.66666,577.75046 c -2.0171,-0.77378 -2.1588,-8.59162 -0.27844,-15.36202 1.76393,-6.35123 7.33394,-11.86233 17.42521,-17.24091 9.49541,-5.061 17.38338,-13.52063 20.7199,-22.22149 2.16496,-5.6457 2.44219,-12.43598 2.8277,-69.25937 l 0.42742,-63 H 286.58637 270.3843 l 0.47451,-10.33334 c 0.37604,-8.1889 1.1189,-11.23678 3.57963,-14.68678 6.25927,-8.77565 7.1484,-8.93466 52.56155,-9.40006 l 41,-0.42017 v 9.88966 c 0,8.08605 -0.55431,10.71221 -3.03943,14.39987 -3.3493,4.97003 -12.01135,10.49465 -16.50824,10.52888 l -2.88099,0.0219 L 345.00154,449 c -0.63233,64.73598 -0.71637,65.45106 -9.91119,84.33333 -8.91887,18.31561 -24.87568,30.57403 -50.82379,39.04412 -16.34482,5.33534 -20.26719,6.26787 -22.5999,5.37301 z M 705.30367,544.08327 C 680.89068,540.7658 654.32947,524.34063 634.53192,500.31875 601.12609,459.78491 571.60951,400.58345 564.572,360 c -2.59406,-14.95927 -1.97938,-34.78714 1.36955,-44.17788 12.7292,-35.69391 79.43476,-44.56122 154.05842,-20.47932 8.43334,2.72153 19.71804,6.95975 25.07712,9.41826 39.50945,18.1252 65.65419,51.77999 72.31853,93.09196 2.14199,13.27813 0.92208,38.31187 -2.54116,52.14698 -8.37327,33.4499 -31.45628,67.64305 -55.54121,82.27387 -15.73306,9.55733 -36.75572,14.15401 -54.00958,11.8094 z M 163.99732,535.44159 C 132.03305,528.73851 107.00251,506.56669 96.742933,475.86827 91.955631,461.54383 90.655254,439.10308 93.765876,424.49284 99.912007,395.62516 117.25699,372.68965 142,360.71218 c 13.85589,-6.70729 24.47879,-9.07886 40.66666,-9.07886 16.15829,0 26.70453,2.349 40.81241,9.0903 10.84597,5.18263 26.32955,16.8183 31.63341,23.77202 l 3.60934,4.73208 -6.65598,5.26125 c -8.66186,6.84681 -17.14894,10.07455 -24.05468,9.1483 -2.93909,-0.39422 -10.00763,-3.45097 -15.70785,-6.79278 -12.11788,-7.10423 -21.30069,-9.41764 -33.82514,-8.52152 -21.12087,1.51119 -39.78234,17.88606 -45.82521,40.21024 -3.04655,11.25485 -2.21112,27.71539 1.95686,38.55616 3.93592,10.23721 16.25722,23.50295 26.50291,28.53439 6.95139,3.41368 8.79491,3.70957 23.1119,3.70957 h 15.55796 l 13.41371,-7 c 10.11399,-5.27803 14.81465,-6.99679 19.1087,-6.98697 6.98068,0.016 17.68373,4.88447 22.86254,10.39951 l 3.83421,4.08314 -3.85479,4.67653 c -9.9989,12.13039 -30.66907,24.89009 -47.81363,29.51534 -11.01376,2.97129 -32.57171,3.67804 -43.33601,1.42071 z m 780.66931,1.02596 c -24.21611,-3.87534 -47.03549,-16.89778 -60.2756,-34.39775 -22.54304,-29.79602 -26.38873,-66.22345 -10.42373,-98.73647 12.32843,-25.10709 32.92229,-42.23779 59.48144,-49.47877 11.54365,-3.14722 33.58955,-3.13597 45.21789,0.0231 26.05607,7.07857 47.15427,24.34001 59.27857,48.49861 7.4189,14.78258 9.3712,23.82503 9.2749,42.95709 -0.073,14.57368 -0.5444,18.00619 -3.7502,27.33334 -13.1016,38.11932 -44.75395,62.23454 -83.95389,63.9627 -5.96716,0.26307 -12.64938,0.19025 -14.84938,-0.16182 z m 33.02049,-40.99475 c 20.62796,-9.8907 32.93388,-31.71395 31.28068,-55.4728 -3.9281,-56.44948 -75.10691,-71.74322 -100.31545,-21.55413 -4.56687,9.09242 -6.44824,19.20012 -5.61563,30.17002 1.67672,22.09128 15.8877,41.44258 35.77293,48.71254 10.8337,3.96075 28.50607,3.11724 38.87747,-1.85563 z m 571.64618,1.31009 v -35.21712 l -26.03,-40.1769 c -34.3428,-53.00775 -33.3194,-50.95596 -29.2956,-58.73722 2.5847,-4.99831 9.1089,-6.96024 21.3066,-6.40726 l 9.3144,0.42228 22.0189,34.28509 c 12.1105,18.8568 22.3383,34.3068 22.7285,34.33333 0.3902,0.0265 9.1062,-14.17743 19.3687,-31.56436 14.8416,-25.14464 19.5984,-32.16109 23.2494,-34.29337 3.7763,-2.20549 7.6113,-2.7749 21.6312,-3.21172 13.0322,-0.40605 17.0412,-0.13864 17.0412,1.13664 0,0.91718 -13.8017,24.53813 -30.6704,52.491 l -30.6704,50.82339 v 28.66666 c 0,26.2567 -0.2239,29.03199 -2.6507,33.01219 -4.6888,7.69034 -9.6165,9.64385 -24.3405,9.6495 l -13,0.005 z m 157.3232,3.20007 c -29.1302,-3.55481 -54.5819,-25.75666 -61.9483,-54.03836 -2.5743,-9.88333 -2.6041,-28.37845 -0.061,-37.93452 8.5502,-32.1307 37.6978,-54.67675 70.6863,-54.67675 39.7605,0 72.7429,33.47513 72.6469,73.7323 -0.1036,43.48756 -38.7241,78.11584 -81.3237,72.91733 z m 24.9954,-35.39259 c 29.5068,-14.70383 30.5487,-58.76904 1.7598,-74.42274 -19.2039,-10.44191 -42.8901,-2.8477 -53.0265,17.00124 -4.6218,9.05034 -5.7124,24.14753 -2.4531,33.96029 2.9419,8.8573 12.6978,19.68742 21.3741,23.72773 9.6409,4.48945 23.023,4.37919 32.3457,-0.26652 z m 120.348,35.29649 c -18.4279,-3.23687 -34.0883,-14.95202 -42.3655,-31.69266 l -4.9678,-10.04722 -0.3975,-46.37456 c -0.2794,-32.59311 0.05,-47.21017 1.1073,-49.18637 2.3912,-4.46788 9.4137,-6.58605 21.8353,-6.58605 h 11.2974 l 0.4121,46.33333 c 0.391,43.96606 0.5544,46.60583 3.1975,51.66667 6.196,11.86375 22.0601,17.38804 33.3152,11.60125 6.2946,-3.23634 11.8826,-8.90795 13.8145,-14.02138 0.8866,-2.34648 1.4182,-18.68237 1.4182,-43.57987 0,-22.64537 0.5609,-41.30157 1.3001,-43.24592 2.4095,-6.33736 8.5809,-8.74353 22.4401,-8.7491 l 12.4069,-0.005 -0.418,50.33333 c -0.403,48.51226 -0.5259,50.59866 -3.3974,57.66667 -6.4361,15.84175 -19.9459,28.38124 -35.8798,33.30271 -10.2989,3.18101 -25.396,4.29191 -35.1186,2.58415 z m 289.3334,-0.63363 c -47.3072,-10.19707 -70.9651,-62.31789 -48.5886,-107.04579 11.2264,-22.44029 37.756,-38.92219 62.5354,-38.85096 11.6558,0.0335 24.3689,3.09378 34.8735,8.39469 9.5851,4.83686 21.8463,14.62845 21.8463,17.44602 0,2.18874 -6.3104,7.98245 -11.6004,10.65059 -6.151,3.10237 -12.3216,2.66236 -21.2385,-1.51445 -6.6147,-3.09847 -9.584,-3.66666 -19.1611,-3.66666 -9.4765,0 -12.5687,0.57918 -18.8738,3.53514 -18.1073,8.48908 -27.6385,26.95987 -24.2175,46.93174 1.9147,11.17799 5.1192,17.65373 12.1,24.4518 7.6264,7.4269 17.5646,11.08132 30.1356,11.08132 15.7783,0 27.6916,-7.70896 33.4834,-21.66667 l 2.0748,-5 h -15.3512 -15.3513 v -6.63968 c 0,-8.87615 3.3768,-16.96958 8.0991,-19.41154 2.9116,-1.50568 9.4382,-1.94878 28.704,-1.94878 h 24.9355 l -0.885,13.66667 c -1.113,17.18603 -2.5421,23.31928 -8.1558,35 -8.7914,18.29278 -25.9953,30.97956 -47.1177,34.74632 -12.6148,2.2496 -17.1891,2.22373 -28.2467,-0.15976 z M 1066.6666,432.60045 c 0,-71.01369 -0.062,-70.43136 7.9564,-74.57788 2.7709,-1.4329 8.0122,-2.02257 17.9774,-2.02257 h 14.0662 v 55.93196 55.93197 l 4.6239,-1.93197 c 3.4881,-1.45742 10.8569,-1.93196 30,-1.93196 h 25.3761 v 11.42099 c 0,11.97563 -1.1216,15.7413 -5.8227,19.54936 -2.5692,2.08113 -7.2559,2.30655 -48.5106,2.33334 l -45.6667,0.0296 z m 118.6667,-0.97044 c 0,-57.38081 0.2636,-66.07965 2.0809,-68.67428 3.7674,-5.37861 8.8734,-6.95573 22.5195,-6.95573 h 12.7329 v 65.39955 c 0,70.94346 -0.01,71.01998 -7.2961,74.34087 -1.9623,0.89413 -9.3176,1.59291 -16.7666,1.59291 h -13.2706 z m 77.9875,2.46751 -23.6336,-63.23581 2.4897,-5.09752 c 3.2874,-6.73064 9.4755,-9.75945 19.9447,-9.76212 l 8.1217,-0.002 16.3393,44.33333 c 8.9866,24.38334 16.7331,45.04285 17.2143,45.91004 0.4813,0.86719 6.8208,-14.73281 14.0878,-34.66666 18.2195,-49.97686 18.1228,-49.77274 25.0597,-52.92108 4.4112,-2.00205 8.7334,-2.60377 18.8649,-2.62635 11.9824,-0.0267 13.0619,0.1767 12.2285,2.30405 -0.5027,1.28334 -11.7246,31.27184 -24.9375,66.64112 -28.93,77.44189 -25.5813,72.35888 -47.6695,72.35888 h -14.4764 z m 123.3458,-1.49707 c 0,-56.15241 0.2769,-65.26823 2.0886,-68.7717 3.7872,-7.32377 7.056,-7.82875 50.6764,-7.82875 h 39.5174 l -0.49,10.78987 c -0.4643,10.22361 -0.7177,10.99333 -4.8289,14.66667 l -4.3389,3.87679 h -23.3123 -23.3123 v 14.80932 c 0,13.64923 0.1828,14.72008 2.3333,13.67005 1.2834,-0.6266 12.6834,-1.31755 25.3334,-1.53544 l 23,-0.39616 v 10.03841 c 0,9.20464 -0.3229,10.40009 -3.8874,14.39279 l -3.8874,4.35437 -21.446,0.42508 -21.4459,0.42508 v 15.08563 15.08563 l 5.4445,-1.87578 c 4.026,-1.38706 11.2343,-1.78066 27.6667,-1.51071 l 22.2221,0.36507 v 10.44444 c 0,10.11106 -0.1389,10.56856 -4.3543,14.33333 l -4.3544,3.88889 h -41.3123 -41.3123 z m 561.3333,0.69006 c 0,-71.62864 0.015,-71.7616 8.5759,-75.3385 7.6088,-3.17916 14.3679,-2.54776 18.3552,1.71466 1.8865,2.01666 15.7987,19.45356 30.9161,38.74865 l 27.4862,35.08198 V 398.823 364.1487 l 3.2154,-3.74102 c 3.09,-3.59508 3.7676,-3.75879 17.3692,-4.19674 l 14.1537,-0.45573 -0.3692,67.5719 -0.3691,67.57191 -3.7411,3.21716 c -3.0393,2.61371 -5.1651,3.20325 -11.3333,3.14301 l -7.5923,-0.0741 -28.6667,-36.63305 c -15.7666,-20.14817 -29.5666,-37.81298 -30.6666,-39.25512 -1.7918,-2.34911 -1.956,0.67416 -1.5766,29.04052 0.6074,45.41334 -0.1538,46.99593 -22.6032,46.99593 h -13.1536 z M 451.99998,367.83484 c -34.38945,-7.17424 -79.10201,-28.89797 -106.4,-51.69477 -16.98227,-14.18206 -32.7867,-38.73228 -39.20342,-60.89768 -4.13154,-14.27169 -4.42313,-48.04391 -0.54028,-62.57572 9.81931,-36.7493 36.44611,-71.7608 67.80376,-89.15495 45.20739,-25.076621 94.68738,-8.035422 125.04665,43.0668 16.44531,27.68155 33.32262,77.73733 39.36623,116.75481 2.97891,19.23181 3.0937,51.24765 0.23021,64.20985 -5.16918,23.39943 -16.18747,35.93765 -36.30315,41.31101 -9.91196,2.64772 -34.86008,2.1391 -50,-1.01935 z"
         id="path8" />
      <path
         style="fill:#5aa0dd"
         d="m 446.66665,706.7144 c -40.55545,-5.21858 -68.66119,-26.15392 -79.57887,-59.27652 -3.13333,-9.50605 -3.55194,-12.88546 -3.56394,-28.77121 -0.0199,-26.28974 5.15062,-44.059 23.05958,-79.24838 28.01513,-55.04704 64.9924,-97.90001 98.08323,-113.66867 9.60985,-4.57935 11.72626,-5.08295 21.36137,-5.08295 9.33405,0 11.79587,0.5421 19.34984,4.26091 9.90008,4.87379 23.45639,17.75411 32.76732,31.13336 22.49132,32.31871 41.11121,96.46356 38.68613,133.27239 -1.50726,22.87792 -9.26874,46.52768 -20.74272,63.20455 -18.07707,26.27411 -47.31576,44.91578 -81.51335,51.97033 -12.54038,2.58693 -36.40814,3.68604 -47.90859,2.20619 z M 260.60815,575.90533 c -1.1946,-1.93289 0.57047,-13.07717 2.72754,-17.2211 2.40708,-4.62423 6.76561,-8.31419 15.0287,-12.7234 16.04357,-8.56088 22.34839,-19.15774 24.3037,-40.84854 1.47223,-16.33187 1.66607,-54.66829 0.45206,-89.40512 l -0.87231,-24.9595 -15.45726,-0.37383 L 271.33332,390 v -9.57113 c 0,-10.66924 1.97463,-14.64274 9.98644,-20.09554 4.33598,-2.95103 5.07929,-3 45.54407,-3 h 41.13616 l -0.002,8.33334 c -0.003,13.85466 -6.47004,22.27307 -18.69565,24.33858 l -5.30228,0.89581 -0.0232,56.8828 c -0.0258,63.4068 -0.4909,68.02206 -8.54142,84.75978 -9.01412,18.74114 -30.86952,34.52479 -58.18714,42.02192 -11.31565,3.1055 -15.34819,3.43018 -16.64013,1.33977 z M 695.99998,541.97956 C 657.58799,532.56018 619.58262,491.56605 587.24003,424.66667 558.48409,365.18612 555.0284,318.08546 578.0371,299.23156 c 7.82549,-6.41239 20.91276,-12.07794 33.86825,-14.66174 16.70464,-3.33151 54.85631,-2.03781 76.79964,2.60423 61.20727,12.94821 98.22513,36.97925 117.31719,76.15928 9.393,19.27598 11.91556,30.96208 11.80035,54.66667 -0.0834,17.15373 -0.59776,21.89752 -3.61442,33.33333 -7.13863,27.06177 -26.33546,58.63889 -44.56184,73.30036 -9.19745,7.39852 -26.33597,15.91558 -36.04526,17.91286 -9.44502,1.94291 -28.53989,1.65498 -37.60103,-0.56699 z M 168.7143,535.92764 C 133.42249,530.4404 106.68068,506.99348 95.8032,472 c -2.58346,-8.31113 -3.108432,-12.92737 -3.108432,-27.33333 0,-19.69397 2.438577,-30.00956 11.031872,-46.66667 6.58429,-12.76289 22.92749,-29.05771 35.87271,-35.76651 35.21962,-18.2524 78.34594,-12.08749 107.78821,15.40835 5.47017,5.10853 9.92305,9.97897 9.89529,10.8232 -0.14142,4.30076 -19.01405,15.27621 -26.61619,15.47874 -1.83333,0.0489 -10.17421,-3.36852 -18.53528,-7.59415 l -15.20195,-7.68296 h -14.13138 c -13.52861,0 -14.48611,0.19237 -22.44739,4.50986 -21.12385,11.45571 -33.37172,36.35575 -29.60114,60.17943 4.9399,31.21179 31.82621,51.68612 61.44865,46.79408 9.3998,-1.55234 12.09138,-2.61895 27.13516,-10.75301 6.99832,-3.78394 8.88433,-4.23692 15.06287,-3.6178 7.59043,0.76061 16.19271,5.07636 21.55157,10.81239 l 3.28112,3.51205 -10.21554,9.85758 c -11.16692,10.77563 -28.09872,20.27783 -42.69904,23.96289 -10.26682,2.59131 -27.80801,3.52598 -37.60001,2.0035 z m 777.28567,0.0746 c -21.34805,-2.42586 -38.0543,-10.6559 -54.05858,-26.63106 C 873.38525,490.84882 864.91155,470.35534 864.91155,444 c 0,-16.78561 2.37958,-26.83058 10.10739,-42.66667 4.43221,-9.08262 7.79287,-13.59156 16.92245,-22.70451 C 910.72434,359.88005 929.68068,352 955.99997,352 c 26.29314,0 45.23233,7.8672 64.10533,26.62882 18.6468,18.53687 27.0763,38.88844 27.0763,65.37118 0,16.85404 -2.3911,26.97204 -10.0831,42.66667 -7.8488,16.01446 -23.7507,31.91638 -39.7652,39.76517 -17.2058,8.43267 -33.92095,11.54897 -51.33333,9.57037 z m 32.84286,-40.99058 c 10.93388,-5.38774 19.92126,-14.77453 25.57717,-26.71386 4.0074,-8.45949 4.2466,-9.82812 4.2466,-24.29777 0,-14.46965 -0.2392,-15.83828 -4.2466,-24.29777 -5.65967,-11.94726 -14.64324,-21.32708 -25.58533,-26.71386 -8.21307,-4.04328 -9.68238,-4.3217 -22.80667,-4.3217 -12.45844,0 -14.88857,0.40325 -21.71903,3.60404 -10.45103,4.8974 -21.34421,16.0626 -26.69752,27.36418 -4.04372,8.53686 -4.27815,9.87199 -4.27815,24.36511 0,13.97664 0.32763,16.03293 3.70286,23.24018 6.80668,14.53454 16.22658,23.84656 29.93741,29.59454 6.62326,2.77667 9.45954,3.17465 20.39593,2.86189 11.22541,-0.32102 13.72294,-0.86593 21.47333,-4.68498 z m 571.49047,36.21287 c -0.55,-0.55125 -1,-16.5958 -1,-35.65456 v -34.65228 l -10.938,-16.79216 c -42.1784,-64.75323 -45.062,-69.58709 -45.062,-75.53931 0,-4.59777 0.6922,-6.27046 3.5131,-8.48942 2.9765,-2.3413 5.3888,-2.76344 15.7915,-2.76344 h 12.2784 l 21.8024,34 c 11.9914,18.7 22.2151,34 22.7195,34 0.5044,0 8.2519,-12.45 17.2167,-27.66666 8.9648,-15.21667 17.5849,-29.61393 19.1557,-31.99391 4.6318,-7.01781 9.0783,-8.33943 28.0575,-8.33943 9.2392,0 16.7985,0.26363 16.7985,0.58584 0,0.32221 -13.8,23.43267 -30.6667,51.35659 l -30.6666,50.77076 v 28.31007 c 0,24.31757 -0.3308,28.95484 -2.3333,32.88196 -4.1591,8.15649 -8.2219,10.03835 -22.7585,10.54151 -7.0984,0.24569 -13.3561,-0.004 -13.9061,-0.55556 z m 146.4774,-33.25385 c -31.65,-8.69015 -54.1926,-38.08822 -54.1244,-70.58412 0.089,-42.47995 35.4209,-76.39746 76.6831,-73.61369 32.7128,2.20698 59.8703,25.77074 66.6667,57.84468 5.3324,25.16492 -1.7793,48.36237 -20.5881,67.15555 -10.8091,10.80023 -19.1797,15.70731 -32.7282,19.18633 -9.5847,2.46119 -26.9664,2.46664 -35.9091,0.0112 z m 34.7824,-32.76771 c 7.3373,-3.54588 15.4824,-11.81168 19.3235,-19.60978 2.5677,-5.21307 3.0827,-8.37793 3.0797,-18.92649 0,-10.6421 -0.4919,-13.582 -3.0578,-18.39342 -8.0565,-15.10686 -20.2094,-22.94811 -35.5337,-22.92689 -35.2658,0.0488 -52.9642,42.41182 -29.4123,70.40165 10.496,12.47379 30.6898,16.66082 45.6006,9.45493 z m 116.3824,33.4148 c -19.8232,-4.70904 -35.3848,-19.253 -41.4495,-38.73901 -2.2598,-7.26073 -2.5261,-12.661 -2.5261,-51.22856 v -43.11224 l 3.4519,-4.1023 c 3.4475,-4.09712 3.4694,-4.1023 17.3333,-4.1023 h 13.8815 L 1838.674,401 c 0,25.92299 0.5671,45.68156 1.3846,48.62526 4.5476,16.37434 25.2006,23.62131 39.7944,13.96356 10.4692,-6.92821 10.8136,-8.65561 10.8136,-54.24519 0,-42.59878 0.6191,-47.44039 6.4661,-50.56964 1.4806,-0.79236 8.7314,-1.44066 16.1129,-1.44066 h 13.421 v 44.48468 c 0,24.46658 -0.6046,47.67268 -1.3435,51.56912 -4.1232,21.74132 -20.2941,38.99363 -41.9898,44.79773 -7.2901,1.95026 -27.9077,2.20268 -35.3578,0.43288 z m 288.9414,-0.61999 c -10.2624,-2.82105 -20.8681,-8.79292 -29.0684,-16.36788 -15.2659,-14.10161 -22.7696,-31.16746 -22.9942,-52.29654 -0.1574,-14.80465 1.8509,-24.00363 7.87,-36.04789 8.3905,-16.78979 23.5788,-29.97081 41.6884,-36.17894 10.2455,-3.51227 29.8696,-4.10994 40.2539,-1.22598 9.8587,2.73801 24.235,10.33728 31.1893,16.48657 7.5492,6.67539 7.3428,8.5915 -1.5926,14.7837 -8.0604,5.58585 -13.4357,5.8917 -23.9736,1.36406 -7.6655,-3.29353 -10.686,-3.84818 -20.9564,-3.84818 -9.7593,0 -13.1392,0.56137 -18.1008,3.00635 -9.4151,4.6396 -16.7056,11.65342 -20.818,20.02798 -3.3097,6.73999 -3.7479,9.11327 -3.7479,20.299 0,11.16332 0.4415,13.56577 3.7201,20.24214 7.1254,14.5099 21.3295,23.02698 38.2799,22.95355 11.6006,-0.0503 17.3455,-2.13778 25.0576,-9.10522 4.3497,-3.92969 10.9424,-14.41861 10.9424,-17.40927 0,-0.37466 -6.6,-0.6812 -14.6667,-0.6812 h -14.6666 v -9.3123 c 0,-8.4028 0.3797,-9.73757 3.8877,-13.66666 l 3.8878,-4.35437 25.4456,-0.41415 25.4455,-0.41415 v 13.13402 c 0,15.02458 -2.1707,24.8132 -8.113,36.58486 -8.0757,15.99783 -22.8306,27.77045 -40.609,32.40116 -9.486,2.47078 -29.4415,2.49124 -38.361,0.0393 z M 1066.6666,432.53906 c 0,-58.12215 0.2292,-65.18228 2.2258,-68.56219 3.6035,-6.10034 7.4048,-7.3102 22.968,-7.3102 H 1106 l 0.6666,55.61866 c 0.5874,49.00648 0.9045,55.46829 2.6667,54.35375 1.1,-0.6957 14.45,-1.2741 29.6667,-1.28533 l 27.6666,-0.0204 V 476.8 c 0,11.26275 -0.081,11.54729 -4.5333,16 l -4.5333,4.53333 h -45.4667 -45.4667 z m 118.6717,-0.20573 c 0,-62.1004 0.121,-65.19028 2.6058,-69.26556 3.3087,-5.42639 9.9013,-7.31214 23.7389,-6.79023 l 10.317,0.38913 0.3459,65.78736 0.346,65.78737 -4.546,4.54597 -4.5459,4.54596 h -14.1334 -14.1333 z m 78.9344,3.33334 C 1251.6234,401.75 1241.3006,372.2 1241.3333,370 c 0.1187,-8.00898 6.2724,-12.35666 19.1977,-13.56365 7.4597,-0.69659 8.6798,-0.48348 9.8336,1.71753 0.7245,1.38203 8.3614,21.71279 16.9708,45.17945 8.6095,23.46667 16.0787,43.13436 16.5984,43.70598 0.5196,0.57162 7.7045,-17.42838 15.9663,-40 10.1231,-27.65654 16.1259,-42.21161 18.4081,-44.63425 4.0372,-4.28566 12.5602,-6.40506 25.7574,-6.40506 6.1789,0 9.2677,0.5191 9.2677,1.55752 0,1.94898 -43.1142,117.92007 -47.3658,127.40747 -4.6429,10.3603 -8.7343,12.35717 -25.3318,12.36336 l -13.3642,0.005 z m 122.6795,-4.22703 0.3811,-65.89369 3.2535,-3.46207 c 5.3496,-5.69262 10.0754,-6.24136 50.0798,-5.81505 l 37.3333,0.39784 0.4318,6.66666 c 0.6223,9.60867 -1.7291,16.27718 -6.8377,19.39212 -3.7744,2.30139 -6.8098,2.59848 -26.5941,2.6029 l -22.3333,0.005 v 15.25427 15.25426 l 3.6667,-1.91272 c 2.7467,-1.43284 9.1379,-1.91477 25.4745,-1.92093 l 21.8078,-0.008 -0.4782,10.53079 c -0.7656,16.85866 -4.1243,18.78304 -32.8041,18.79511 l -17.6667,0.007 v 15.38025 c 0,14.79283 0.099,15.32753 2.579,14 1.5191,-0.813 13.0265,-1.38025 28,-1.38025 h 25.421 v 7.37616 c 0,4.05689 -0.8366,9.37847 -1.8591,11.82574 -3.6834,8.81542 -3.5866,8.7981 -49.1519,8.7981 h -41.0844 z m 561.0477,2.64716 c 0,-41.56269 0.4876,-64.5334 1.4222,-67 2.8819,-7.60627 6.262,-9.75347 15.3537,-9.75347 h 8.3111 l 29.7898,37.97417 29.7899,37.97416 0.6667,-34.3075 c 0.6781,-34.89589 1.2857,-38.98063 6.072,-40.81729 1.1803,-0.45295 8.097,-0.82354 15.3703,-0.82354 h 13.2243 v 65.03666 c 0,59.09388 -0.2076,65.3379 -2.2721,68.33334 -3.7183,5.39482 -6.0358,6.54299 -13.2966,6.5876 l -6.9021,0.0424 -16.5169,-21 c -9.0843,-11.55 -23.2284,-29.58355 -31.4313,-40.07455 l -14.9143,-19.07456 v 36.17712 36.17712 l -3.8974,3.89744 c -3.792,3.792 -4.2609,3.89743 -17.3334,3.89743 h -13.4359 z M 452.51633,367.99655 c -39.08494,-8.44613 -88.66063,-33.84014 -112.87018,-57.81516 -26.5078,-26.251 -38.33625,-56.55817 -36.62773,-93.84852 2.89827,-63.25794 58.62899,-124.152508 113.76828,-124.309719 10.95131,-0.03122 26.65589,4.171228 38.14031,10.206119 12.44898,6.54175 29.68602,22.9388 39.29477,37.37987 18.01776,27.07902 37.51357,82.36204 43.86701,124.39086 3.30632,21.8717 3.061,52.02576 -0.5332,65.53882 -5.38057,20.22926 -14.07406,31.37145 -28.99719,37.16486 -11.33162,4.39912 -38.74156,5.03146 -56.04207,1.29287 z"
         id="path7" />
      <path
         style="fill:#fe9600"
         d="m 446.66665,706.7144 c -40.55545,-5.21858 -68.66119,-26.15392 -79.57887,-59.27652 -3.13333,-9.50605 -3.55194,-12.88546 -3.56394,-28.77121 -0.0199,-26.28974 5.15062,-44.059 23.05958,-79.24838 28.01513,-55.04704 64.9924,-97.90001 98.08323,-113.66867 9.60985,-4.57935 11.72626,-5.08295 21.36137,-5.08295 9.33405,0 11.79587,0.5421 19.34984,4.26091 9.90008,4.87379 23.45639,17.75411 32.76732,31.13336 22.49132,32.31871 41.11121,96.46356 38.68613,133.27239 -1.50726,22.87792 -9.26874,46.52768 -20.74272,63.20455 -18.07707,26.27411 -47.31576,44.91578 -81.51335,51.97033 -12.54038,2.58693 -36.40814,3.68604 -47.90859,2.20619 z M 260.60815,575.90533 c -1.1946,-1.93289 0.57047,-13.07717 2.72754,-17.2211 2.40708,-4.62423 6.76561,-8.31419 15.0287,-12.7234 16.04357,-8.56088 22.34839,-19.15774 24.3037,-40.84854 1.47223,-16.33187 1.66607,-54.66829 0.45206,-89.40512 l -0.87231,-24.9595 -15.45726,-0.37383 L 271.33332,390 v -9.57113 c 0,-10.66924 1.97463,-14.64274 9.98644,-20.09554 4.33598,-2.95103 5.07929,-3 45.54407,-3 h 41.13616 l -0.002,8.33334 c -0.003,13.85466 -6.47004,22.27307 -18.69565,24.33858 l -5.30228,0.89581 -0.0232,56.8828 c -0.0258,63.4068 -0.4909,68.02206 -8.54142,84.75978 -9.01412,18.74114 -30.86952,34.52479 -58.18714,42.02192 -11.31565,3.1055 -15.34819,3.43018 -16.64013,1.33977 z M 695.99998,541.97956 C 657.58799,532.56018 619.58262,491.56605 587.24003,424.66667 558.48409,365.18612 555.0284,318.08546 578.0371,299.23156 c 7.82549,-6.41239 20.91276,-12.07794 33.86825,-14.66174 16.70464,-3.33151 54.85631,-2.03781 76.79964,2.60423 61.20727,12.94821 98.22513,36.97925 117.31719,76.15928 9.393,19.27598 11.91556,30.96208 11.80035,54.66667 -0.0834,17.15373 -0.59776,21.89752 -3.61442,33.33333 -7.13863,27.06177 -26.33546,58.63889 -44.56184,73.30036 -9.19745,7.39852 -26.33597,15.91558 -36.04526,17.91286 -9.44502,1.94291 -28.53989,1.65498 -37.60103,-0.56699 z M 168.7143,535.92764 C 133.42249,530.4404 106.68068,506.99348 95.8032,472 c -2.58346,-8.31113 -3.108432,-12.92737 -3.108432,-27.33333 0,-19.69397 2.438577,-30.00956 11.031872,-46.66667 6.58429,-12.76289 22.92749,-29.05771 35.87271,-35.76651 35.21962,-18.2524 78.34594,-12.08749 107.78821,15.40835 5.47017,5.10853 9.92305,9.97897 9.89529,10.8232 -0.14142,4.30076 -19.01405,15.27621 -26.61619,15.47874 -1.83333,0.0489 -10.17421,-3.36852 -18.53528,-7.59415 l -15.20195,-7.68296 h -14.13138 c -13.52861,0 -14.48611,0.19237 -22.44739,4.50986 -21.12385,11.45571 -33.37172,36.35575 -29.60114,60.17943 4.9399,31.21179 31.82621,51.68612 61.44865,46.79408 9.3998,-1.55234 12.09138,-2.61895 27.13516,-10.75301 6.99832,-3.78394 8.88433,-4.23692 15.06287,-3.6178 7.59043,0.76061 16.19271,5.07636 21.55157,10.81239 l 3.28112,3.51205 -10.21554,9.85758 c -11.16692,10.77563 -28.09872,20.27783 -42.69904,23.96289 -10.26682,2.59131 -27.80801,3.52598 -37.60001,2.0035 z m 777.28567,0.0746 c -21.34805,-2.42586 -38.0543,-10.6559 -54.05858,-26.63106 C 873.38525,490.84882 864.91155,470.35534 864.91155,444 c 0,-16.78561 2.37958,-26.83058 10.10739,-42.66667 4.43221,-9.08262 7.79287,-13.59156 16.92245,-22.70451 C 910.72434,359.88005 929.68068,352 955.99997,352 c 26.29314,0 45.23233,7.8672 64.10533,26.62882 18.6468,18.53687 27.0763,38.88844 27.0763,65.37118 0,16.85404 -2.3911,26.97204 -10.0831,42.66667 -7.8488,16.01446 -23.7507,31.91638 -39.7652,39.76517 -17.2058,8.43267 -33.92095,11.54897 -51.33333,9.57037 z m 32.84286,-40.99058 c 10.93388,-5.38774 19.92126,-14.77453 25.57717,-26.71386 4.0074,-8.45949 4.2466,-9.82812 4.2466,-24.29777 0,-14.46965 -0.2392,-15.83828 -4.2466,-24.29777 -5.65967,-11.94726 -14.64324,-21.32708 -25.58533,-26.71386 -8.21307,-4.04328 -9.68238,-4.3217 -22.80667,-4.3217 -12.45844,0 -14.88857,0.40325 -21.71903,3.60404 -10.45103,4.8974 -21.34421,16.0626 -26.69752,27.36418 -4.04372,8.53686 -4.27815,9.87199 -4.27815,24.36511 0,13.97664 0.32763,16.03293 3.70286,23.24018 6.80668,14.53454 16.22658,23.84656 29.93741,29.59454 6.62326,2.77667 9.45954,3.17465 20.39593,2.86189 11.22541,-0.32102 13.72294,-0.86593 21.47333,-4.68498 z m 571.49047,36.21287 c -0.55,-0.55125 -1,-16.5958 -1,-35.65456 v -34.65228 l -10.938,-16.79216 c -42.1784,-64.75323 -45.062,-69.58709 -45.062,-75.53931 0,-4.59777 0.6922,-6.27046 3.5131,-8.48942 2.9765,-2.3413 5.3888,-2.76344 15.7915,-2.76344 h 12.2784 l 21.8024,34 c 11.9914,18.7 22.2151,34 22.7195,34 0.5044,0 8.2519,-12.45 17.2167,-27.66666 8.9648,-15.21667 17.5849,-29.61393 19.1557,-31.99391 4.6318,-7.01781 9.0783,-8.33943 28.0575,-8.33943 9.2392,0 16.7985,0.26363 16.7985,0.58584 0,0.32221 -13.8,23.43267 -30.6667,51.35659 l -30.6666,50.77076 v 28.31007 c 0,24.31757 -0.3308,28.95484 -2.3333,32.88196 -4.1591,8.15649 -8.2219,10.03835 -22.7585,10.54151 -7.0984,0.24569 -13.3561,-0.004 -13.9061,-0.55556 z m 146.4774,-33.25385 c -31.65,-8.69015 -54.1926,-38.08822 -54.1244,-70.58412 0.089,-42.47995 35.4209,-76.39746 76.6831,-73.61369 32.7128,2.20698 59.8703,25.77074 66.6667,57.84468 5.3324,25.16492 -1.7793,48.36237 -20.5881,67.15555 -10.8091,10.80023 -19.1797,15.70731 -32.7282,19.18633 -9.5847,2.46119 -26.9664,2.46664 -35.9091,0.0112 z m 34.7824,-32.76771 c 7.3373,-3.54588 15.4824,-11.81168 19.3235,-19.60978 2.5677,-5.21307 3.0827,-8.37793 3.0797,-18.92649 0,-10.6421 -0.4919,-13.582 -3.0578,-18.39342 -8.0565,-15.10686 -20.2094,-22.94811 -35.5337,-22.92689 -35.2658,0.0488 -52.9642,42.41182 -29.4123,70.40165 10.496,12.47379 30.6898,16.66082 45.6006,9.45493 z m 116.3824,33.4148 c -19.8232,-4.70904 -35.3848,-19.253 -41.4495,-38.73901 -2.2598,-7.26073 -2.5261,-12.661 -2.5261,-51.22856 v -43.11224 l 3.4519,-4.1023 c 3.4475,-4.09712 3.4694,-4.1023 17.3333,-4.1023 h 13.8815 L 1838.674,401 c 0,25.92299 0.5671,45.68156 1.3846,48.62526 4.5476,16.37434 25.2006,23.62131 39.7944,13.96356 10.4692,-6.92821 10.8136,-8.65561 10.8136,-54.24519 0,-42.59878 0.6191,-47.44039 6.4661,-50.56964 1.4806,-0.79236 8.7314,-1.44066 16.1129,-1.44066 h 13.421 v 44.48468 c 0,24.46658 -0.6046,47.67268 -1.3435,51.56912 -4.1232,21.74132 -20.2941,38.99363 -41.9898,44.79773 -7.2901,1.95026 -27.9077,2.20268 -35.3578,0.43288 z m 288.9414,-0.61999 c -10.2624,-2.82105 -20.8681,-8.79292 -29.0684,-16.36788 -15.2659,-14.10161 -22.7696,-31.16746 -22.9942,-52.29654 -0.1574,-14.80465 1.8509,-24.00363 7.87,-36.04789 8.3905,-16.78979 23.5788,-29.97081 41.6884,-36.17894 10.2455,-3.51227 29.8696,-4.10994 40.2539,-1.22598 9.8587,2.73801 24.235,10.33728 31.1893,16.48657 7.5492,6.67539 7.3428,8.5915 -1.5926,14.7837 -8.0604,5.58585 -13.4357,5.8917 -23.9736,1.36406 -7.6655,-3.29353 -10.686,-3.84818 -20.9564,-3.84818 -9.7593,0 -13.1392,0.56137 -18.1008,3.00635 -9.4151,4.6396 -16.7056,11.65342 -20.818,20.02798 -3.3097,6.73999 -3.7479,9.11327 -3.7479,20.299 0,11.16332 0.4415,13.56577 3.7201,20.24214 7.1254,14.5099 21.3295,23.02698 38.2799,22.95355 11.6006,-0.0503 17.3455,-2.13778 25.0576,-9.10522 4.3497,-3.92969 10.9424,-14.41861 10.9424,-17.40927 0,-0.37466 -6.6,-0.6812 -14.6667,-0.6812 h -14.6666 v -9.3123 c 0,-8.4028 0.3797,-9.73757 3.8877,-13.66666 l 3.8878,-4.35437 25.4456,-0.41415 25.4455,-0.41415 v 13.13402 c 0,15.02458 -2.1707,24.8132 -8.113,36.58486 -8.0757,15.99783 -22.8306,27.77045 -40.609,32.40116 -9.486,2.47078 -29.4415,2.49124 -38.361,0.0393 z M 1066.6666,432.53906 c 0,-58.12215 0.2292,-65.18228 2.2258,-68.56219 3.6035,-6.10034 7.4048,-7.3102 22.968,-7.3102 H 1106 l 0.6666,55.61866 c 0.5874,49.00648 0.9045,55.46829 2.6667,54.35375 1.1,-0.6957 14.45,-1.2741 29.6667,-1.28533 l 27.6666,-0.0204 V 476.8 c 0,11.26275 -0.081,11.54729 -4.5333,16 l -4.5333,4.53333 h -45.4667 -45.4667 z m 118.6717,-0.20573 c 0,-62.1004 0.121,-65.19028 2.6058,-69.26556 3.3087,-5.42639 9.9013,-7.31214 23.7389,-6.79023 l 10.317,0.38913 0.3459,65.78736 0.346,65.78737 -4.546,4.54597 -4.5459,4.54596 h -14.1334 -14.1333 z m 78.9344,3.33334 C 1251.6234,401.75 1241.3006,372.2 1241.3333,370 c 0.1187,-8.00898 6.2724,-12.35666 19.1977,-13.56365 7.4597,-0.69659 8.6798,-0.48348 9.8336,1.71753 0.7245,1.38203 8.3614,21.71279 16.9708,45.17945 8.6095,23.46667 16.0787,43.13436 16.5984,43.70598 0.5196,0.57162 7.7045,-17.42838 15.9663,-40 10.1231,-27.65654 16.1259,-42.21161 18.4081,-44.63425 4.0372,-4.28566 12.5602,-6.40506 25.7574,-6.40506 6.1789,0 9.2677,0.5191 9.2677,1.55752 0,1.94898 -43.1142,117.92007 -47.3658,127.40747 -4.6429,10.3603 -8.7343,12.35717 -25.3318,12.36336 l -13.3642,0.005 z m 122.6795,-4.22703 0.3811,-65.89369 3.2535,-3.46207 c 5.3496,-5.69262 10.0754,-6.24136 50.0798,-5.81505 l 37.3333,0.39784 0.4318,6.66666 c 0.6223,9.60867 -1.7291,16.27718 -6.8377,19.39212 -3.7744,2.30139 -6.8098,2.59848 -26.5941,2.6029 l -22.3333,0.005 v 15.25427 15.25426 l 3.6667,-1.91272 c 2.7467,-1.43284 9.1379,-1.91477 25.4745,-1.92093 l 21.8078,-0.008 -0.4782,10.53079 c -0.7656,16.85866 -4.1243,18.78304 -32.8041,18.79511 l -17.6667,0.007 v 15.38025 c 0,14.79283 0.099,15.32753 2.579,14 1.5191,-0.813 13.0265,-1.38025 28,-1.38025 h 25.421 v 7.37616 c 0,4.05689 -0.8366,9.37847 -1.8591,11.82574 -3.6834,8.81542 -3.5866,8.7981 -49.1519,8.7981 h -41.0844 z m 561.0477,2.64716 c 0,-41.56269 0.4876,-64.5334 1.4222,-67 2.8819,-7.60627 6.262,-9.75347 15.3537,-9.75347 h 8.3111 l 29.7898,37.97417 29.7899,37.97416 0.6667,-34.3075 c 0.6781,-34.89589 1.2857,-38.98063 6.072,-40.81729 1.1803,-0.45295 8.097,-0.82354 15.3703,-0.82354 h 13.2243 v 65.03666 c 0,59.09388 -0.2076,65.3379 -2.2721,68.33334 -3.7183,5.39482 -6.0358,6.54299 -13.2966,6.5876 l -6.9021,0.0424 -16.5169,-21 c -9.0843,-11.55 -23.2284,-29.58355 -31.4313,-40.07455 l -14.9143,-19.07456 v 36.17712 36.17712 l -3.8974,3.89744 c -3.792,3.792 -4.2609,3.89743 -17.3334,3.89743 h -13.4359 z M 460.66665,368.70186 c -30.85263,-4.91995 -64.77065,-18.84742 -95.95858,-39.40267 -24.17601,-15.93387 -38.9359,-32.00704 -49.55651,-53.96586 -9.04893,-18.70927 -11.52426,-29.87276 -11.5302,-52 -0.006,-20.97848 3.05202,-35.91823 10.88833,-53.20084 14.48228,-31.93998 45.178,-62.1309 73.80768,-72.593886 8.76314,-3.202574 11.45522,-3.537581 28.34928,-3.527831 17.1518,0.0099 19.34606,0.296142 27.03839,3.527183 27.27278,11.455504 47.34399,32.381594 63.03399,65.718744 28.9981,61.61338 40.78086,135.47031 27.87766,174.7433 -8.65057,26.32941 -34.38075,37.01181 -73.95004,30.70186 z"
         id="path6" />
      <path
         style="fill:#717171"
         d="m 446.66665,706.7144 c -40.55545,-5.21858 -68.66119,-26.15392 -79.57887,-59.27652 -3.13333,-9.50605 -3.55194,-12.88546 -3.56394,-28.77121 -0.0199,-26.28974 5.15062,-44.059 23.05958,-79.24838 28.01513,-55.04704 64.9924,-97.90001 98.08323,-113.66867 9.60985,-4.57935 11.72626,-5.08295 21.36137,-5.08295 9.33405,0 11.79587,0.5421 19.34984,4.26091 9.90008,4.87379 23.45639,17.75411 32.76732,31.13336 22.49132,32.31871 41.11121,96.46356 38.68613,133.27239 -1.50726,22.87792 -9.26874,46.52768 -20.74272,63.20455 -18.07707,26.27411 -47.31576,44.91578 -81.51335,51.97033 -12.54038,2.58693 -36.40814,3.68604 -47.90859,2.20619 z M 260.60815,575.90533 c -1.1946,-1.93289 0.57047,-13.07717 2.72754,-17.2211 2.40708,-4.62423 6.76561,-8.31419 15.0287,-12.7234 16.04357,-8.56088 22.34839,-19.15774 24.3037,-40.84854 1.47223,-16.33187 1.66607,-54.66829 0.45206,-89.40512 l -0.87231,-24.9595 -15.45726,-0.37383 L 271.33332,390 v -9.57113 c 0,-10.66924 1.97463,-14.64274 9.98644,-20.09554 4.33598,-2.95103 5.07929,-3 45.54407,-3 h 41.13616 l -0.002,8.33334 c -0.003,13.85466 -6.47004,22.27307 -18.69565,24.33858 l -5.30228,0.89581 -0.0232,56.8828 c -0.0258,63.4068 -0.4909,68.02206 -8.54142,84.75978 -9.01412,18.74114 -30.86952,34.52479 -58.18714,42.02192 -11.31565,3.1055 -15.34819,3.43018 -16.64013,1.33977 z M 168.7143,535.92764 C 133.42249,530.4404 106.68068,506.99348 95.8032,472 c -2.58346,-8.31113 -3.108432,-12.92737 -3.108432,-27.33333 0,-19.69397 2.438577,-30.00956 11.031872,-46.66667 6.58429,-12.76289 22.92749,-29.05771 35.87271,-35.76651 35.21962,-18.2524 78.34594,-12.08749 107.78821,15.40835 5.47017,5.10853 9.92305,9.97897 9.89529,10.8232 -0.14142,4.30076 -19.01405,15.27621 -26.61619,15.47874 -1.83333,0.0489 -10.17421,-3.36852 -18.53528,-7.59415 l -15.20195,-7.68296 h -14.13138 c -13.52861,0 -14.48611,0.19237 -22.44739,4.50986 -21.12385,11.45571 -33.37172,36.35575 -29.60114,60.17943 4.9399,31.21179 31.82621,51.68612 61.44865,46.79408 9.3998,-1.55234 12.09138,-2.61895 27.13516,-10.75301 6.99832,-3.78394 8.88433,-4.23692 15.06287,-3.6178 7.59043,0.76061 16.19271,5.07636 21.55157,10.81239 l 3.28112,3.51205 -10.21554,9.85758 c -11.16692,10.77563 -28.09872,20.27783 -42.69904,23.96289 -10.26682,2.59131 -27.80801,3.52598 -37.60001,2.0035 z m 777.28567,0.0746 c -21.34805,-2.42586 -38.0543,-10.6559 -54.05858,-26.63106 C 873.38525,490.84882 864.91155,470.35534 864.91155,444 c 0,-16.78561 2.37958,-26.83058 10.10739,-42.66667 4.43221,-9.08262 7.79287,-13.59156 16.92245,-22.70451 C 910.72434,359.88005 929.68068,352 955.99997,352 c 26.29314,0 45.23233,7.8672 64.10533,26.62882 18.6468,18.53687 27.0763,38.88844 27.0763,65.37118 0,16.85404 -2.3911,26.97204 -10.0831,42.66667 -7.8488,16.01446 -23.7507,31.91638 -39.7652,39.76517 -17.2058,8.43267 -33.92095,11.54897 -51.33333,9.57037 z m 32.84286,-40.99058 c 10.93388,-5.38774 19.92126,-14.77453 25.57717,-26.71386 4.0074,-8.45949 4.2466,-9.82812 4.2466,-24.29777 0,-14.46965 -0.2392,-15.83828 -4.2466,-24.29777 -5.65967,-11.94726 -14.64324,-21.32708 -25.58533,-26.71386 -8.21307,-4.04328 -9.68238,-4.3217 -22.80667,-4.3217 -12.45844,0 -14.88857,0.40325 -21.71903,3.60404 -10.45103,4.8974 -21.34421,16.0626 -26.69752,27.36418 -4.04372,8.53686 -4.27815,9.87199 -4.27815,24.36511 0,13.97664 0.32763,16.03293 3.70286,23.24018 6.80668,14.53454 16.22658,23.84656 29.93741,29.59454 6.62326,2.77667 9.45954,3.17465 20.39593,2.86189 11.22541,-0.32102 13.72294,-0.86593 21.47333,-4.68498 z m 571.49047,36.21287 c -0.55,-0.55125 -1,-16.5958 -1,-35.65456 v -34.65228 l -10.938,-16.79216 c -42.1784,-64.75323 -45.062,-69.58709 -45.062,-75.53931 0,-4.59777 0.6922,-6.27046 3.5131,-8.48942 2.9765,-2.3413 5.3888,-2.76344 15.7915,-2.76344 h 12.2784 l 21.8024,34 c 11.9914,18.7 22.2151,34 22.7195,34 0.5044,0 8.2519,-12.45 17.2167,-27.66666 8.9648,-15.21667 17.5849,-29.61393 19.1557,-31.99391 4.6318,-7.01781 9.0783,-8.33943 28.0575,-8.33943 9.2392,0 16.7985,0.26363 16.7985,0.58584 0,0.32221 -13.8,23.43267 -30.6667,51.35659 l -30.6666,50.77076 v 28.31007 c 0,24.31757 -0.3308,28.95484 -2.3333,32.88196 -4.1591,8.15649 -8.2219,10.03835 -22.7585,10.54151 -7.0984,0.24569 -13.3561,-0.004 -13.9061,-0.55556 z m 146.4774,-33.25385 c -31.65,-8.69015 -54.1926,-38.08822 -54.1244,-70.58412 0.089,-42.47995 35.4209,-76.39746 76.6831,-73.61369 32.7128,2.20698 59.8703,25.77074 66.6667,57.84468 5.3324,25.16492 -1.7793,48.36237 -20.5881,67.15555 -10.8091,10.80023 -19.1797,15.70731 -32.7282,19.18633 -9.5847,2.46119 -26.9664,2.46664 -35.9091,0.0112 z m 34.7824,-32.76771 c 7.3373,-3.54588 15.4824,-11.81168 19.3235,-19.60978 2.5677,-5.21307 3.0827,-8.37793 3.0797,-18.92649 0,-10.6421 -0.4919,-13.582 -3.0578,-18.39342 -8.0565,-15.10686 -20.2094,-22.94811 -35.5337,-22.92689 -35.2658,0.0488 -52.9642,42.41182 -29.4123,70.40165 10.496,12.47379 30.6898,16.66082 45.6006,9.45493 z m 116.3824,33.4148 c -19.8232,-4.70904 -35.3848,-19.253 -41.4495,-38.73901 -2.2598,-7.26073 -2.5261,-12.661 -2.5261,-51.22856 v -43.11224 l 3.4519,-4.1023 c 3.4475,-4.09712 3.4694,-4.1023 17.3333,-4.1023 h 13.8815 L 1838.674,401 c 0,25.92299 0.5671,45.68156 1.3846,48.62526 4.5476,16.37434 25.2006,23.62131 39.7944,13.96356 10.4692,-6.92821 10.8136,-8.65561 10.8136,-54.24519 0,-42.59878 0.6191,-47.44039 6.4661,-50.56964 1.4806,-0.79236 8.7314,-1.44066 16.1129,-1.44066 h 13.421 v 44.48468 c 0,24.46658 -0.6046,47.67268 -1.3435,51.56912 -4.1232,21.74132 -20.2941,38.99363 -41.9898,44.79773 -7.2901,1.95026 -27.9077,2.20268 -35.3578,0.43288 z m 288.9414,-0.61999 c -10.2624,-2.82105 -20.8681,-8.79292 -29.0684,-16.36788 -15.2659,-14.10161 -22.7696,-31.16746 -22.9942,-52.29654 -0.1574,-14.80465 1.8509,-24.00363 7.87,-36.04789 8.3905,-16.78979 23.5788,-29.97081 41.6884,-36.17894 10.2455,-3.51227 29.8696,-4.10994 40.2539,-1.22598 9.8587,2.73801 24.235,10.33728 31.1893,16.48657 7.5492,6.67539 7.3428,8.5915 -1.5926,14.7837 -8.0604,5.58585 -13.4357,5.8917 -23.9736,1.36406 -7.6655,-3.29353 -10.686,-3.84818 -20.9564,-3.84818 -9.7593,0 -13.1392,0.56137 -18.1008,3.00635 -9.4151,4.6396 -16.7056,11.65342 -20.818,20.02798 -3.3097,6.73999 -3.7479,9.11327 -3.7479,20.299 0,11.16332 0.4415,13.56577 3.7201,20.24214 7.1254,14.5099 21.3295,23.02698 38.2799,22.95355 11.6006,-0.0503 17.3455,-2.13778 25.0576,-9.10522 4.3497,-3.92969 10.9424,-14.41861 10.9424,-17.40927 0,-0.37466 -6.6,-0.6812 -14.6667,-0.6812 h -14.6666 v -9.3123 c 0,-8.4028 0.3797,-9.73757 3.8877,-13.66666 l 3.8878,-4.35437 25.4456,-0.41415 25.4455,-0.41415 v 13.13402 c 0,15.02458 -2.1707,24.8132 -8.113,36.58486 -8.0757,15.99783 -22.8306,27.77045 -40.609,32.40116 -9.486,2.47078 -29.4415,2.49124 -38.361,0.0393 z M 1066.6666,432.53906 c 0,-58.12215 0.2292,-65.18228 2.2258,-68.56219 3.6035,-6.10034 7.4048,-7.3102 22.968,-7.3102 H 1106 l 0.6666,55.61866 c 0.5874,49.00648 0.9045,55.46829 2.6667,54.35375 1.1,-0.6957 14.45,-1.2741 29.6667,-1.28533 l 27.6666,-0.0204 V 476.8 c 0,11.26275 -0.081,11.54729 -4.5333,16 l -4.5333,4.53333 h -45.4667 -45.4667 z m 118.6717,-0.20573 c 0,-62.1004 0.121,-65.19028 2.6058,-69.26556 3.3087,-5.42639 9.9013,-7.31214 23.7389,-6.79023 l 10.317,0.38913 0.3459,65.78736 0.346,65.78737 -4.546,4.54597 -4.5459,4.54596 h -14.1334 -14.1333 z m 78.9344,3.33334 C 1251.6234,401.75 1241.3006,372.2 1241.3333,370 c 0.1187,-8.00898 6.2724,-12.35666 19.1977,-13.56365 7.4597,-0.69659 8.6798,-0.48348 9.8336,1.71753 0.7245,1.38203 8.3614,21.71279 16.9708,45.17945 8.6095,23.46667 16.0787,43.13436 16.5984,43.70598 0.5196,0.57162 7.7045,-17.42838 15.9663,-40 10.1231,-27.65654 16.1259,-42.21161 18.4081,-44.63425 4.0372,-4.28566 12.5602,-6.40506 25.7574,-6.40506 6.1789,0 9.2677,0.5191 9.2677,1.55752 0,1.94898 -43.1142,117.92007 -47.3658,127.40747 -4.6429,10.3603 -8.7343,12.35717 -25.3318,12.36336 l -13.3642,0.005 z m 122.6795,-4.22703 0.3811,-65.89369 3.2535,-3.46207 c 5.3496,-5.69262 10.0754,-6.24136 50.0798,-5.81505 l 37.3333,0.39784 0.4318,6.66666 c 0.6223,9.60867 -1.7291,16.27718 -6.8377,19.39212 -3.7744,2.30139 -6.8098,2.59848 -26.5941,2.6029 l -22.3333,0.005 v 15.25427 15.25426 l 3.6667,-1.91272 c 2.7467,-1.43284 9.1379,-1.91477 25.4745,-1.92093 l 21.8078,-0.008 -0.4782,10.53079 c -0.7656,16.85866 -4.1243,18.78304 -32.8041,18.79511 l -17.6667,0.007 v 15.38025 c 0,14.79283 0.099,15.32753 2.579,14 1.5191,-0.813 13.0265,-1.38025 28,-1.38025 h 25.421 v 7.37616 c 0,4.05689 -0.8366,9.37847 -1.8591,11.82574 -3.6834,8.81542 -3.5866,8.7981 -49.1519,8.7981 h -41.0844 z m 561.0477,2.64716 c 0,-41.56269 0.4876,-64.5334 1.4222,-67 2.8819,-7.60627 6.262,-9.75347 15.3537,-9.75347 h 8.3111 l 29.7898,37.97417 29.7899,37.97416 0.6667,-34.3075 c 0.6781,-34.89589 1.2857,-38.98063 6.072,-40.81729 1.1803,-0.45295 8.097,-0.82354 15.3703,-0.82354 h 13.2243 v 65.03666 c 0,59.09388 -0.2076,65.3379 -2.2721,68.33334 -3.7183,5.39482 -6.0358,6.54299 -13.2966,6.5876 l -6.9021,0.0424 -16.5169,-21 c -9.0843,-11.55 -23.2284,-29.58355 -31.4313,-40.07455 l -14.9143,-19.07456 v 36.17712 36.17712 l -3.8974,3.89744 c -3.792,3.792 -4.2609,3.89743 -17.3334,3.89743 h -13.4359 z M 460.66665,368.70186 c -30.85263,-4.91995 -64.77065,-18.84742 -95.95858,-39.40267 -24.17601,-15.93387 -38.9359,-32.00704 -49.55651,-53.96586 -9.04893,-18.70927 -11.52426,-29.87276 -11.5302,-52 -0.006,-20.97848 3.05202,-35.91823 10.88833,-53.20084 14.48228,-31.93998 45.178,-62.1309 73.80768,-72.593886 8.76314,-3.202574 11.45522,-3.537581 28.34928,-3.527831 17.1518,0.0099 19.34606,0.296142 27.03839,3.527183 27.27278,11.455504 47.34399,32.381594 63.03399,65.718744 28.9981,61.61338 40.78086,135.47031 27.87766,174.7433 -8.65057,26.32941 -34.38075,37.01181 -73.95004,30.70186 z"
         id="path5" />
      <path
         style="fill:#006dcc"
         d="m 446.66665,706.7144 c -40.55545,-5.21858 -68.66119,-26.15392 -79.57887,-59.27652 -3.13333,-9.50605 -3.55194,-12.88546 -3.56394,-28.77121 -0.0199,-26.28974 5.15062,-44.059 23.05958,-79.24838 28.01513,-55.04704 64.9924,-97.90001 98.08323,-113.66867 9.60985,-4.57935 11.72626,-5.08295 21.36137,-5.08295 9.33405,0 11.79587,0.5421 19.34984,4.26091 9.90008,4.87379 23.45639,17.75411 32.76732,31.13336 22.49132,32.31871 41.11121,96.46356 38.68613,133.27239 -1.50726,22.87792 -9.26874,46.52768 -20.74272,63.20455 -18.07707,26.27411 -47.31576,44.91578 -81.51335,51.97033 -12.54038,2.58693 -36.40814,3.68604 -47.90859,2.20619 z M 261.5593,568.90575 c 0.70144,-11.0159 3.35242,-14.53457 17.25728,-22.90575 12.7674,-7.68639 18.72086,-14.60202 22.17191,-25.75525 2.09374,-6.7666 2.34483,-14.1458 2.34483,-68.91142 V 390 l -15.66666,-0.37565 -15.66667,-0.37564 0.005,-8.95769 c 0.006,-10.00374 2.57051,-15.75432 8.86944,-19.88524 3.29801,-2.16288 7.81425,-2.44662 44.73032,-2.81024 l 41.06192,-0.40446 v 9.53207 c 0,13.90147 -5.12685,20.58141 -17.31415,22.55919 l -4.68585,0.76043 -0.78817,59.97861 c -0.67717,51.53218 -1.11589,61.10521 -3.11538,67.97862 -6.37564,21.91678 -19.09979,36.59469 -40.80885,47.07493 -12.92326,6.23882 -30.8606,12.2584 -36.52797,12.2584 -2.11901,0 -2.34007,-0.99787 -1.86698,-8.42758 z M 161.42935,534.01448 c -18.42708,-4.17924 -38.61984,-16.80397 -49.03217,-30.65543 -13.582034,-18.0681 -19.06385,-34.94511 -19.06385,-58.69238 0,-30.81929 11.53234,-56.46242 32.95369,-73.2753 36.26104,-28.46004 88.38495,-25.03037 122.69138,8.0729 l 9.02159,8.70519 -5.33333,4.74818 c -11.43078,10.17664 -23.34724,12.40596 -34.02062,6.36454 -25.04101,-14.17387 -40.37067,-15.87635 -58.81181,-6.53151 -22.49966,11.40144 -35.12741,40.92669 -28.45702,66.53605 4.30388,16.5237 15.96858,30.76341 30.95259,37.78543 6.83219,3.2018 9.22856,3.59452 21.93381,3.59452 h 14.26362 l 13.46173,-7 c 11.46622,-5.96235 14.54797,-7 20.7895,-7 7.69731,0 13.92071,2.47974 21.19322,8.44455 3.79996,3.11667 3.88644,3.41821 2,6.97353 -2.43382,4.58697 -16.89818,16.6786 -26.29593,21.98236 -13.54704,7.64548 -26.05699,10.9189 -43.67576,11.42845 -10.76744,0.3114 -18.8029,-0.17296 -24.57064,-1.48108 z m 774.60494,-0.0977 c -11.12424,-2.41143 -27.94932,-10.66313 -37.74151,-18.50997 -9.26993,-7.42833 -18.39559,-19.39582 -24.48637,-32.1117 -11.32053,-23.63412 -11.32053,-54.95604 0,-78.59016 9.66865,-20.18549 22.76757,-33.46509 42.86022,-43.45145 51.05428,-25.37476 113.06647,3.63033 127.37537,59.57752 10.6925,41.80727 -9.2623,86.49198 -46.9268,105.08314 -6.84671,3.37953 -16.64857,7.02097 -21.7819,8.09208 -11.56963,2.41411 -27.92142,2.37688 -39.29901,-0.0895 z m 39.05505,-36.54517 c 10.303,-3.93652 23.43637,-16.17119 28.72936,-26.76348 11.9225,-23.85885 7.0676,-50.78534 -12.44799,-69.04126 -11.36595,-10.6323 -20.07551,-14.1056 -35.37074,-14.1056 -15.32116,0 -24.00041,3.4692 -35.43147,14.1624 -18.75264,17.54217 -23.82376,43.2283 -13.25326,67.13008 3.46012,7.82395 14.31455,20.2306 21.68452,24.7855 13.16463,8.13618 30.95381,9.61536 46.08958,3.83236 z m 575.57726,-0.92922 v -34.22431 l -24.2945,-37.44236 c -13.362,-20.5933 -26.262,-40.70706 -28.6667,-44.69725 -4.9869,-8.2751 -5.5683,-14.30465 -1.8252,-18.93073 2.3207,-2.86815 3.7121,-3.1798 15.6666,-3.50898 l 13.1198,-0.36128 22,34.67019 c 12.1,19.0686 22.328,34.68117 22.7288,34.6946 0.4008,0.0134 9.0951,-14.14548 19.3205,-31.46425 10.2255,-17.31877 20.0084,-32.603 21.7398,-33.96496 4.3159,-3.39484 9.1958,-4.07954 25.7519,-3.61321 l 14.2076,0.40018 -31.2076,51.68949 -31.2077,51.6895 v 28.71005 c 0,23.05462 -0.3984,29.4805 -2.0225,32.62127 -3.2123,6.21177 -8.1629,7.95636 -22.5779,7.95636 h -12.7329 z m 148.5479,1.66845 c -17.6555,-4.03572 -34.306,-15.9414 -44.7734,-32.01464 -26.3124,-40.40416 -4.4686,-97.10815 42.2255,-109.61256 9.2108,-2.46661 29.1916,-2.30388 38.0913,0.31023 24.2987,7.13717 43.4174,26.74913 49.9283,51.21624 2.5429,9.55607 2.5131,28.05119 -0.061,37.93452 -4.275,16.41306 -16.3411,33.31718 -30.0698,42.12688 -15.5672,9.98947 -37.8636,14.03425 -55.3407,10.03933 z m 33.9668,-33.49012 c 25.0513,-13.63462 29.9028,-48.03293 9.6194,-68.204 -8.4528,-8.40596 -16.2554,-11.74282 -27.4674,-11.74675 -16.1045,-0.006 -29.0754,8.60207 -36.8917,24.48189 -2.4324,4.94165 -3.0492,8.45468 -3.0755,17.51484 -0.028,9.75346 0.4877,12.39326 3.701,18.93681 4.3853,8.93009 14.5398,18.62372 22.6323,21.60504 8.8761,3.27004 22.8259,2.12337 31.4819,-2.58783 z m 113.4853,32.96026 c -22.1177,-5.78119 -37.9411,-23.22165 -41.4361,-45.67043 -0.7579,-4.86846 -1.1758,-26.03363 -0.9554,-48.39844 l 0.3915,-39.7463 3.741,-3.21622 c 3.4116,-2.933 4.9087,-3.21623 17,-3.21623 h 13.259 v 45.37616 c 0,35.03364 0.4094,46.35409 1.7962,49.66667 2.5414,6.07079 11.7017,13.8689 18.4616,15.71638 11.2759,3.0817 24.1908,-3.2675 30.0755,-14.78568 2.9195,-5.7143 3,-6.97641 3,-47.02528 v -41.15337 l 3.8975,-3.89744 c 3.7676,-3.76762 4.3247,-3.89744 16.7266,-3.89744 h 12.8293 l -0.3934,50.33334 -0.3933,50.33333 -4.2194,8.90615 c -5.5476,11.70983 -13.1467,19.73314 -24.148,25.49605 -14.7075,7.70431 -32.7628,9.58824 -49.6326,5.17875 z m 292.3629,0.50323 c -25.0109,-6.06044 -45.8173,-26.8259 -51.6432,-51.5416 -2.3739,-10.07101 -2.6413,-26.22072 -0.5984,-36.14362 2.435,-11.82732 10.2907,-26.17706 19.1967,-35.06563 13.6668,-13.63995 30.4654,-20.68138 49.2573,-20.64696 19.9233,0.0365 36.5643,6.0715 49.9657,18.12055 l 7.1014,6.38471 -5.3379,4.97906 c -7.1953,6.71172 -14.2559,8.56837 -21.8768,5.75265 -17.5971,-6.50177 -21.803,-7.46618 -29.0219,-6.65481 -11.1129,1.24903 -21.8337,6.70026 -29.3489,14.92299 -7.854,8.59363 -11.2402,17.65455 -11.1659,29.8785 0.075,12.37661 3.4147,21.25737 11.1944,29.76964 18.4974,20.2391 51.3109,18.40058 63.9179,-3.58127 6.538,-11.39983 6.3614,-11.59172 -10.67,-11.59172 h -14.6666 v -7.39955 c 0,-4.10901 0.9287,-9.19559 2.0885,-11.43837 3.4589,-6.68869 8.391,-7.82875 33.8686,-7.82875 h 22.7095 l -0.023,11 c -0.079,37.56023 -19.5255,64.23815 -51.8142,71.0822 -10.7233,2.27294 -23.7579,2.27373 -33.1331,0.002 z M 1068,431.23077 v -66.10256 l 3.8974,-3.89744 c 3.8386,-3.83856 4.1206,-3.89744 18.6667,-3.89744 h 14.7692 v 55.48885 55.48884 l 3,-1.0932 c 1.65,-0.60126 15.45,-1.2944 30.6667,-1.54032 l 27.6666,-0.44713 v 9.42764 c 0,5.1852 -0.8527,11.46852 -1.8949,13.96292 -3.5407,8.47389 -5.0018,8.7124 -53.3722,8.7124 H 1068 Z m 117.6303,-0.008 0.3697,-66.11016 4.3543,-3.88984 c 4.1946,-3.74709 4.843,-3.88985 17.6667,-3.88985 h 13.3123 v 65.42099 c 0,44.31323 -0.4648,66.28952 -1.4407,68.11288 -2.378,4.44347 -9.4328,6.46613 -22.5528,6.46613 h -12.0791 z m 100.8906,62.44349 c -0.7772,-2.01667 -11.3059,-30.04084 -23.397,-62.27594 -23.7297,-63.26382 -23.8457,-63.7426 -17.0017,-70.17223 2.8774,-2.70315 5.0248,-3.27698 13.6462,-3.64645 l 10.2316,-0.43847 16.5243,45.09988 c 9.0884,24.80493 16.932,45.56348 17.4302,46.13011 0.4983,0.56662 7.658,-17.43338 15.9106,-40 8.2526,-22.56663 15.9057,-42.43035 17.0068,-44.1416 3.2276,-5.0158 9.7239,-6.88864 23.8945,-6.88864 11.6936,0 12.7712,0.21035 11.9536,2.33334 -0.4942,1.28333 -11.0481,29.48716 -23.4532,62.67518 -12.4051,33.18802 -23.7385,62.6623 -25.1853,65.49839 -3.5808,7.01894 -10.0465,9.49309 -24.8082,9.49309 -11.1387,0 -11.3643,-0.0649 -12.7524,-3.66666 z M 1388,431.23077 v -66.10256 l 3.8974,-3.89744 3.8974,-3.89744 h 40.7693 40.7692 v 9.23104 c 0,7.96834 -0.4688,9.78811 -3.4269,13.30361 l -3.4268,4.07259 -24.2398,0.36305 -24.2398,0.36305 -0.3753,16.43827 -0.3752,16.43827 3.0052,-2.10494 c 2.4564,-1.72051 7.2124,-2.10494 26.0419,-2.10494 h 23.0367 v 7.46516 c 0,8.83779 -2.8446,15.58035 -7.4603,17.68343 C 1463.8406,439.4079 1454.505,440 1441.9372,440 h -20.6039 v 16.59863 16.59863 l 4.6238,-1.93196 c 3.4411,-1.43778 10.6034,-1.93197 28,-1.93197 h 23.3762 v 8.73288 c 0,10.55738 -2.3953,15.78018 -8.1585,17.78923 -2.7238,0.94952 -17.9924,1.47789 -42.7071,1.47789 H 1388 Z m 561.3333,0 v -66.10256 l 3.8974,-3.89744 c 3.4191,-3.41909 4.851,-3.89628 11.6667,-3.88805 l 7.7692,0.009 27.3333,34.7977 c 15.0334,19.13874 28.8334,37.0023 30.6667,39.6968 l 3.3333,4.8991 v -35.6058 c 0,-44.97537 -0.8875,-42.95729 19.14,-43.51988 l 13.5267,-0.37997 v 66.1492 66.14921 l -3.8974,3.89744 c -3.2321,3.23203 -4.9972,3.89743 -10.3389,3.89743 h -6.4414 l -30.6612,-39.15778 c -16.8636,-21.53678 -31.2611,-40.18486 -31.9944,-41.44017 -0.9059,-1.55057 -1.2061,9.15707 -0.9366,33.3951 0.2819,25.3411 -0.062,36.78581 -1.1878,39.50304 -2.4041,5.80411 -7.4454,7.69981 -20.4761,7.69981 h -11.3995 z M 460.66665,368.70186 c -30.85263,-4.91995 -64.77065,-18.84742 -95.95858,-39.40267 -24.17601,-15.93387 -38.9359,-32.00704 -49.55651,-53.96586 -9.04893,-18.70927 -11.52426,-29.87276 -11.5302,-52 -0.006,-20.97848 3.05202,-35.91823 10.88833,-53.20084 14.48228,-31.93998 45.178,-62.1309 73.80768,-72.593886 8.76314,-3.202574 11.45522,-3.537581 28.34928,-3.527831 17.1518,0.0099 19.34606,0.296142 27.03839,3.527183 27.27278,11.455504 47.34399,32.381594 63.03399,65.718744 28.9981,61.61338 40.78086,135.47031 27.87766,174.7433 -8.65057,26.32941 -34.38075,37.01181 -73.95004,30.70186 z"
         id="path4" />
      <path
         style="fill:#ee141d"
         d="m 446.66665,706.7144 c -40.55545,-5.21858 -68.66119,-26.15392 -79.57887,-59.27652 -3.13333,-9.50605 -3.55194,-12.88546 -3.56394,-28.77121 -0.0199,-26.28974 5.15062,-44.059 23.05958,-79.24838 28.01513,-55.04704 64.9924,-97.90001 98.08323,-113.66867 9.60985,-4.57935 11.72626,-5.08295 21.36137,-5.08295 9.33405,0 11.79587,0.5421 19.34984,4.26091 9.90008,4.87379 23.45639,17.75411 32.76732,31.13336 22.49132,32.31871 41.11121,96.46356 38.68613,133.27239 -1.50726,22.87792 -9.26874,46.52768 -20.74272,63.20455 -18.07707,26.27411 -47.31576,44.91578 -81.51335,51.97033 -12.54038,2.58693 -36.40814,3.68604 -47.90859,2.20619 z M 261.5593,568.90575 c 0.70144,-11.0159 3.35242,-14.53457 17.25728,-22.90575 12.7674,-7.68639 18.72086,-14.60202 22.17191,-25.75525 2.09374,-6.7666 2.34483,-14.1458 2.34483,-68.91142 V 390 l -15.66666,-0.37565 -15.66667,-0.37564 0.005,-8.95769 c 0.006,-10.00374 2.57051,-15.75432 8.86944,-19.88524 3.29801,-2.16288 7.81425,-2.44662 44.73032,-2.81024 l 41.06192,-0.40446 v 9.53207 c 0,13.90147 -5.12685,20.58141 -17.31415,22.55919 l -4.68585,0.76043 -0.78817,59.97861 c -0.67717,51.53218 -1.11589,61.10521 -3.11538,67.97862 -6.37564,21.91678 -19.09979,36.59469 -40.80885,47.07493 -12.92326,6.23882 -30.8606,12.2584 -36.52797,12.2584 -2.11901,0 -2.34007,-0.99787 -1.86698,-8.42758 z M 161.42935,534.01448 c -18.42708,-4.17924 -38.61984,-16.80397 -49.03217,-30.65543 -13.582034,-18.0681 -19.06385,-34.94511 -19.06385,-58.69238 0,-30.81929 11.53234,-56.46242 32.95369,-73.2753 36.26104,-28.46004 88.38495,-25.03037 122.69138,8.0729 l 9.02159,8.70519 -5.33333,4.74818 c -11.43078,10.17664 -23.34724,12.40596 -34.02062,6.36454 -25.04101,-14.17387 -40.37067,-15.87635 -58.81181,-6.53151 -22.49966,11.40144 -35.12741,40.92669 -28.45702,66.53605 4.30388,16.5237 15.96858,30.76341 30.95259,37.78543 6.83219,3.2018 9.22856,3.59452 21.93381,3.59452 h 14.26362 l 13.46173,-7 c 11.46622,-5.96235 14.54797,-7 20.7895,-7 7.69731,0 13.92071,2.47974 21.19322,8.44455 3.79996,3.11667 3.88644,3.41821 2,6.97353 -2.43382,4.58697 -16.89818,16.6786 -26.29593,21.98236 -13.54704,7.64548 -26.05699,10.9189 -43.67576,11.42845 -10.76744,0.3114 -18.8029,-0.17296 -24.57064,-1.48108 z m 774.60494,-0.0977 c -11.12424,-2.41143 -27.94932,-10.66313 -37.74151,-18.50997 -9.26993,-7.42833 -18.39559,-19.39582 -24.48637,-32.1117 -11.32053,-23.63412 -11.32053,-54.95604 0,-78.59016 9.66865,-20.18549 22.76757,-33.46509 42.86022,-43.45145 51.05428,-25.37476 113.06647,3.63033 127.37537,59.57752 10.6925,41.80727 -9.2623,86.49198 -46.9268,105.08314 -6.84671,3.37953 -16.64857,7.02097 -21.7819,8.09208 -11.56963,2.41411 -27.92142,2.37688 -39.29901,-0.0895 z m 39.05505,-36.54517 c 10.303,-3.93652 23.43637,-16.17119 28.72936,-26.76348 11.9225,-23.85885 7.0676,-50.78534 -12.44799,-69.04126 -11.36595,-10.6323 -20.07551,-14.1056 -35.37074,-14.1056 -15.32116,0 -24.00041,3.4692 -35.43147,14.1624 -18.75264,17.54217 -23.82376,43.2283 -13.25326,67.13008 3.46012,7.82395 14.31455,20.2306 21.68452,24.7855 13.16463,8.13618 30.95381,9.61536 46.08958,3.83236 z m 575.57726,-0.92922 v -34.22431 l -24.2945,-37.44236 c -13.362,-20.5933 -26.262,-40.70706 -28.6667,-44.69725 -4.9869,-8.2751 -5.5683,-14.30465 -1.8252,-18.93073 2.3207,-2.86815 3.7121,-3.1798 15.6666,-3.50898 l 13.1198,-0.36128 22,34.67019 c 12.1,19.0686 22.328,34.68117 22.7288,34.6946 0.4008,0.0134 9.0951,-14.14548 19.3205,-31.46425 10.2255,-17.31877 20.0084,-32.603 21.7398,-33.96496 4.3159,-3.39484 9.1958,-4.07954 25.7519,-3.61321 l 14.2076,0.40018 -31.2076,51.68949 -31.2077,51.6895 v 28.71005 c 0,23.05462 -0.3984,29.4805 -2.0225,32.62127 -3.2123,6.21177 -8.1629,7.95636 -22.5779,7.95636 h -12.7329 z m 148.5479,1.66845 c -17.6555,-4.03572 -34.306,-15.9414 -44.7734,-32.01464 -26.3124,-40.40416 -4.4686,-97.10815 42.2255,-109.61256 9.2108,-2.46661 29.1916,-2.30388 38.0913,0.31023 24.2987,7.13717 43.4174,26.74913 49.9283,51.21624 2.5429,9.55607 2.5131,28.05119 -0.061,37.93452 -4.275,16.41306 -16.3411,33.31718 -30.0698,42.12688 -15.5672,9.98947 -37.8636,14.03425 -55.3407,10.03933 z m 33.9668,-33.49012 c 25.0513,-13.63462 29.9028,-48.03293 9.6194,-68.204 -8.4528,-8.40596 -16.2554,-11.74282 -27.4674,-11.74675 -16.1045,-0.006 -29.0754,8.60207 -36.8917,24.48189 -2.4324,4.94165 -3.0492,8.45468 -3.0755,17.51484 -0.028,9.75346 0.4877,12.39326 3.701,18.93681 4.3853,8.93009 14.5398,18.62372 22.6323,21.60504 8.8761,3.27004 22.8259,2.12337 31.4819,-2.58783 z m 113.4853,32.96026 c -22.1177,-5.78119 -37.9411,-23.22165 -41.4361,-45.67043 -0.7579,-4.86846 -1.1758,-26.03363 -0.9554,-48.39844 l 0.3915,-39.7463 3.741,-3.21622 c 3.4116,-2.933 4.9087,-3.21623 17,-3.21623 h 13.259 v 45.37616 c 0,35.03364 0.4094,46.35409 1.7962,49.66667 2.5414,6.07079 11.7017,13.8689 18.4616,15.71638 11.2759,3.0817 24.1908,-3.2675 30.0755,-14.78568 2.9195,-5.7143 3,-6.97641 3,-47.02528 v -41.15337 l 3.8975,-3.89744 c 3.7676,-3.76762 4.3247,-3.89744 16.7266,-3.89744 h 12.8293 l -0.3934,50.33334 -0.3933,50.33333 -4.2194,8.90615 c -5.5476,11.70983 -13.1467,19.73314 -24.148,25.49605 -14.7075,7.70431 -32.7628,9.58824 -49.6326,5.17875 z m 292.3629,0.50323 c -25.0109,-6.06044 -45.8173,-26.8259 -51.6432,-51.5416 -2.3739,-10.07101 -2.6413,-26.22072 -0.5984,-36.14362 2.435,-11.82732 10.2907,-26.17706 19.1967,-35.06563 13.6668,-13.63995 30.4654,-20.68138 49.2573,-20.64696 19.9233,0.0365 36.5643,6.0715 49.9657,18.12055 l 7.1014,6.38471 -5.3379,4.97906 c -7.1953,6.71172 -14.2559,8.56837 -21.8768,5.75265 -17.5971,-6.50177 -21.803,-7.46618 -29.0219,-6.65481 -11.1129,1.24903 -21.8337,6.70026 -29.3489,14.92299 -7.854,8.59363 -11.2402,17.65455 -11.1659,29.8785 0.075,12.37661 3.4147,21.25737 11.1944,29.76964 18.4974,20.2391 51.3109,18.40058 63.9179,-3.58127 6.538,-11.39983 6.3614,-11.59172 -10.67,-11.59172 h -14.6666 v -7.39955 c 0,-4.10901 0.9287,-9.19559 2.0885,-11.43837 3.4589,-6.68869 8.391,-7.82875 33.8686,-7.82875 h 22.7095 l -0.023,11 c -0.079,37.56023 -19.5255,64.23815 -51.8142,71.0822 -10.7233,2.27294 -23.7579,2.27373 -33.1331,0.002 z M 1068,431.23077 v -66.10256 l 3.8974,-3.89744 c 3.8386,-3.83856 4.1206,-3.89744 18.6667,-3.89744 h 14.7692 v 55.48885 55.48884 l 3,-1.0932 c 1.65,-0.60126 15.45,-1.2944 30.6667,-1.54032 l 27.6666,-0.44713 v 9.42764 c 0,5.1852 -0.8527,11.46852 -1.8949,13.96292 -3.5407,8.47389 -5.0018,8.7124 -53.3722,8.7124 H 1068 Z m 117.6303,-0.008 0.3697,-66.11016 4.3543,-3.88984 c 4.1946,-3.74709 4.843,-3.88985 17.6667,-3.88985 h 13.3123 v 65.42099 c 0,44.31323 -0.4648,66.28952 -1.4407,68.11288 -2.378,4.44347 -9.4328,6.46613 -22.5528,6.46613 h -12.0791 z m 100.8906,62.44349 c -0.7772,-2.01667 -11.3059,-30.04084 -23.397,-62.27594 -23.7297,-63.26382 -23.8457,-63.7426 -17.0017,-70.17223 2.8774,-2.70315 5.0248,-3.27698 13.6462,-3.64645 l 10.2316,-0.43847 16.5243,45.09988 c 9.0884,24.80493 16.932,45.56348 17.4302,46.13011 0.4983,0.56662 7.658,-17.43338 15.9106,-40 8.2526,-22.56663 15.9057,-42.43035 17.0068,-44.1416 3.2276,-5.0158 9.7239,-6.88864 23.8945,-6.88864 11.6936,0 12.7712,0.21035 11.9536,2.33334 -0.4942,1.28333 -11.0481,29.48716 -23.4532,62.67518 -12.4051,33.18802 -23.7385,62.6623 -25.1853,65.49839 -3.5808,7.01894 -10.0465,9.49309 -24.8082,9.49309 -11.1387,0 -11.3643,-0.0649 -12.7524,-3.66666 z M 1388,431.23077 v -66.10256 l 3.8974,-3.89744 3.8974,-3.89744 h 40.7693 40.7692 v 9.23104 c 0,7.96834 -0.4688,9.78811 -3.4269,13.30361 l -3.4268,4.07259 -24.2398,0.36305 -24.2398,0.36305 -0.3753,16.43827 -0.3752,16.43827 3.0052,-2.10494 c 2.4564,-1.72051 7.2124,-2.10494 26.0419,-2.10494 h 23.0367 v 7.46516 c 0,8.83779 -2.8446,15.58035 -7.4603,17.68343 C 1463.8406,439.4079 1454.505,440 1441.9372,440 h -20.6039 v 16.59863 16.59863 l 4.6238,-1.93196 c 3.4411,-1.43778 10.6034,-1.93197 28,-1.93197 h 23.3762 v 8.73288 c 0,10.55738 -2.3953,15.78018 -8.1585,17.78923 -2.7238,0.94952 -17.9924,1.47789 -42.7071,1.47789 H 1388 Z m 561.3333,0 v -66.10256 l 3.8974,-3.89744 c 3.4191,-3.41909 4.851,-3.89628 11.6667,-3.88805 l 7.7692,0.009 27.3333,34.7977 c 15.0334,19.13874 28.8334,37.0023 30.6667,39.6968 l 3.3333,4.8991 v -35.6058 c 0,-44.97537 -0.8875,-42.95729 19.14,-43.51988 l 13.5267,-0.37997 v 66.1492 66.14921 l -3.8974,3.89744 c -3.2321,3.23203 -4.9972,3.89743 -10.3389,3.89743 h -6.4414 l -30.6612,-39.15778 c -16.8636,-21.53678 -31.2611,-40.18486 -31.9944,-41.44017 -0.9059,-1.55057 -1.2061,9.15707 -0.9366,33.3951 0.2819,25.3411 -0.062,36.78581 -1.1878,39.50304 -2.4041,5.80411 -7.4454,7.69981 -20.4761,7.69981 h -11.3995 z"
         id="path3" />
      <path
         style="fill:#010101"
         d="m 261.5593,568.90575 c 0.70144,-11.0159 3.35242,-14.53457 17.25728,-22.90575 12.7674,-7.68639 18.72086,-14.60202 22.17191,-25.75525 2.09374,-6.7666 2.34483,-14.1458 2.34483,-68.91142 V 390 l -15.66666,-0.37565 -15.66667,-0.37564 0.005,-8.95769 c 0.006,-10.00374 2.57051,-15.75432 8.86944,-19.88524 3.29801,-2.16288 7.81425,-2.44662 44.73032,-2.81024 l 41.06192,-0.40446 v 9.53207 c 0,13.90147 -5.12685,20.58141 -17.31415,22.55919 l -4.68585,0.76043 -0.78817,59.97861 c -0.67717,51.53218 -1.11589,61.10521 -3.11538,67.97862 -6.37564,21.91678 -19.09979,36.59469 -40.80885,47.07493 -12.92326,6.23882 -30.8606,12.2584 -36.52797,12.2584 -2.11901,0 -2.34007,-0.99787 -1.86698,-8.42758 z M 161.42935,534.01448 c -18.42708,-4.17924 -38.61984,-16.80397 -49.03217,-30.65543 -13.582034,-18.0681 -19.06385,-34.94511 -19.06385,-58.69238 0,-30.81929 11.53234,-56.46242 32.95369,-73.2753 36.26104,-28.46004 88.38495,-25.03037 122.69138,8.0729 l 9.02159,8.70519 -5.33333,4.74818 c -11.43078,10.17664 -23.34724,12.40596 -34.02062,6.36454 -25.04101,-14.17387 -40.37067,-15.87635 -58.81181,-6.53151 -22.49966,11.40144 -35.12741,40.92669 -28.45702,66.53605 4.30388,16.5237 15.96858,30.76341 30.95259,37.78543 6.83219,3.2018 9.22856,3.59452 21.93381,3.59452 h 14.26362 l 13.46173,-7 c 11.46622,-5.96235 14.54797,-7 20.7895,-7 7.69731,0 13.92071,2.47974 21.19322,8.44455 3.79996,3.11667 3.88644,3.41821 2,6.97353 -2.43382,4.58697 -16.89818,16.6786 -26.29593,21.98236 -13.54704,7.64548 -26.05699,10.9189 -43.67576,11.42845 -10.76744,0.3114 -18.8029,-0.17296 -24.57064,-1.48108 z m 774.60494,-0.0977 c -11.12424,-2.41143 -27.94932,-10.66313 -37.74151,-18.50997 -9.26993,-7.42833 -18.39559,-19.39582 -24.48637,-32.1117 -11.32053,-23.63412 -11.32053,-54.95604 0,-78.59016 9.66865,-20.18549 22.76757,-33.46509 42.86022,-43.45145 51.05428,-25.37476 113.06647,3.63033 127.37537,59.57752 10.6925,41.80727 -9.2623,86.49198 -46.9268,105.08314 -6.84671,3.37953 -16.64857,7.02097 -21.7819,8.09208 -11.56963,2.41411 -27.92142,2.37688 -39.29901,-0.0895 z m 39.05505,-36.54517 c 10.303,-3.93652 23.43637,-16.17119 28.72936,-26.76348 11.9225,-23.85885 7.0676,-50.78534 -12.44799,-69.04126 -11.36595,-10.6323 -20.07551,-14.1056 -35.37074,-14.1056 -15.32116,0 -24.00041,3.4692 -35.43147,14.1624 -18.75264,17.54217 -23.82376,43.2283 -13.25326,67.13008 3.46012,7.82395 14.31455,20.2306 21.68452,24.7855 13.16463,8.13618 30.95381,9.61536 46.08958,3.83236 z m 575.57726,-0.92922 v -34.22431 l -24.2945,-37.44236 c -13.362,-20.5933 -26.262,-40.70706 -28.6667,-44.69725 -4.9869,-8.2751 -5.5683,-14.30465 -1.8252,-18.93073 2.3207,-2.86815 3.7121,-3.1798 15.6666,-3.50898 l 13.1198,-0.36128 22,34.67019 c 12.1,19.0686 22.328,34.68117 22.7288,34.6946 0.4008,0.0134 9.0951,-14.14548 19.3205,-31.46425 10.2255,-17.31877 20.0084,-32.603 21.7398,-33.96496 4.3159,-3.39484 9.1958,-4.07954 25.7519,-3.61321 l 14.2076,0.40018 -31.2076,51.68949 -31.2077,51.6895 v 28.71005 c 0,23.05462 -0.3984,29.4805 -2.0225,32.62127 -3.2123,6.21177 -8.1629,7.95636 -22.5779,7.95636 h -12.7329 z m 148.5479,1.66845 c -17.6555,-4.03572 -34.306,-15.9414 -44.7734,-32.01464 -26.3124,-40.40416 -4.4686,-97.10815 42.2255,-109.61256 9.2108,-2.46661 29.1916,-2.30388 38.0913,0.31023 24.2987,7.13717 43.4174,26.74913 49.9283,51.21624 2.5429,9.55607 2.5131,28.05119 -0.061,37.93452 -4.275,16.41306 -16.3411,33.31718 -30.0698,42.12688 -15.5672,9.98947 -37.8636,14.03425 -55.3407,10.03933 z m 33.9668,-33.49012 c 25.0513,-13.63462 29.9028,-48.03293 9.6194,-68.204 -8.4528,-8.40596 -16.2554,-11.74282 -27.4674,-11.74675 -16.1045,-0.006 -29.0754,8.60207 -36.8917,24.48189 -2.4324,4.94165 -3.0492,8.45468 -3.0755,17.51484 -0.028,9.75346 0.4877,12.39326 3.701,18.93681 4.3853,8.93009 14.5398,18.62372 22.6323,21.60504 8.8761,3.27004 22.8259,2.12337 31.4819,-2.58783 z m 113.4853,32.96026 c -22.1177,-5.78119 -37.9411,-23.22165 -41.4361,-45.67043 -0.7579,-4.86846 -1.1758,-26.03363 -0.9554,-48.39844 l 0.3915,-39.7463 3.741,-3.21622 c 3.4116,-2.933 4.9087,-3.21623 17,-3.21623 h 13.259 v 45.37616 c 0,35.03364 0.4094,46.35409 1.7962,49.66667 2.5414,6.07079 11.7017,13.8689 18.4616,15.71638 11.2759,3.0817 24.1908,-3.2675 30.0755,-14.78568 2.9195,-5.7143 3,-6.97641 3,-47.02528 v -41.15337 l 3.8975,-3.89744 c 3.7676,-3.76762 4.3247,-3.89744 16.7266,-3.89744 h 12.8293 l -0.3934,50.33334 -0.3933,50.33333 -4.2194,8.90615 c -5.5476,11.70983 -13.1467,19.73314 -24.148,25.49605 -14.7075,7.70431 -32.7628,9.58824 -49.6326,5.17875 z m 292.3629,0.50323 c -25.0109,-6.06044 -45.8173,-26.8259 -51.6432,-51.5416 -2.3739,-10.07101 -2.6413,-26.22072 -0.5984,-36.14362 2.435,-11.82732 10.2907,-26.17706 19.1967,-35.06563 13.6668,-13.63995 30.4654,-20.68138 49.2573,-20.64696 19.9233,0.0365 36.5643,6.0715 49.9657,18.12055 l 7.1014,6.38471 -5.3379,4.97906 c -7.1953,6.71172 -14.2559,8.56837 -21.8768,5.75265 -17.5971,-6.50177 -21.803,-7.46618 -29.0219,-6.65481 -11.1129,1.24903 -21.8337,6.70026 -29.3489,14.92299 -7.854,8.59363 -11.2402,17.65455 -11.1659,29.8785 0.075,12.37661 3.4147,21.25737 11.1944,29.76964 18.4974,20.2391 51.3109,18.40058 63.9179,-3.58127 6.538,-11.39983 6.3614,-11.59172 -10.67,-11.59172 h -14.6666 v -7.39955 c 0,-4.10901 0.9287,-9.19559 2.0885,-11.43837 3.4589,-6.68869 8.391,-7.82875 33.8686,-7.82875 h 22.7095 l -0.023,11 c -0.079,37.56023 -19.5255,64.23815 -51.8142,71.0822 -10.7233,2.27294 -23.7579,2.27373 -33.1331,0.002 z M 1068,431.23077 v -66.10256 l 3.8974,-3.89744 c 3.8386,-3.83856 4.1206,-3.89744 18.6667,-3.89744 h 14.7692 v 55.48885 55.48884 l 3,-1.0932 c 1.65,-0.60126 15.45,-1.2944 30.6667,-1.54032 l 27.6666,-0.44713 v 9.42764 c 0,5.1852 -0.8527,11.46852 -1.8949,13.96292 -3.5407,8.47389 -5.0018,8.7124 -53.3722,8.7124 H 1068 Z m 117.6303,-0.008 0.3697,-66.11016 4.3543,-3.88984 c 4.1946,-3.74709 4.843,-3.88985 17.6667,-3.88985 h 13.3123 v 65.42099 c 0,44.31323 -0.4648,66.28952 -1.4407,68.11288 -2.378,4.44347 -9.4328,6.46613 -22.5528,6.46613 h -12.0791 z m 100.8906,62.44349 c -0.7772,-2.01667 -11.3059,-30.04084 -23.397,-62.27594 -23.7297,-63.26382 -23.8457,-63.7426 -17.0017,-70.17223 2.8774,-2.70315 5.0248,-3.27698 13.6462,-3.64645 l 10.2316,-0.43847 16.5243,45.09988 c 9.0884,24.80493 16.932,45.56348 17.4302,46.13011 0.4983,0.56662 7.658,-17.43338 15.9106,-40 8.2526,-22.56663 15.9057,-42.43035 17.0068,-44.1416 3.2276,-5.0158 9.7239,-6.88864 23.8945,-6.88864 11.6936,0 12.7712,0.21035 11.9536,2.33334 -0.4942,1.28333 -11.0481,29.48716 -23.4532,62.67518 -12.4051,33.18802 -23.7385,62.6623 -25.1853,65.49839 -3.5808,7.01894 -10.0465,9.49309 -24.8082,9.49309 -11.1387,0 -11.3643,-0.0649 -12.7524,-3.66666 z M 1388,431.23077 v -66.10256 l 3.8974,-3.89744 3.8974,-3.89744 h 40.7693 40.7692 v 9.23104 c 0,7.96834 -0.4688,9.78811 -3.4269,13.30361 l -3.4268,4.07259 -24.2398,0.36305 -24.2398,0.36305 -0.3753,16.43827 -0.3752,16.43827 3.0052,-2.10494 c 2.4564,-1.72051 7.2124,-2.10494 26.0419,-2.10494 h 23.0367 v 7.46516 c 0,8.83779 -2.8446,15.58035 -7.4603,17.68343 C 1463.8406,439.4079 1454.505,440 1441.9372,440 h -20.6039 v 16.59863 16.59863 l 4.6238,-1.93196 c 3.4411,-1.43778 10.6034,-1.93197 28,-1.93197 h 23.3762 v 8.73288 c 0,10.55738 -2.3953,15.78018 -8.1585,17.78923 -2.7238,0.94952 -17.9924,1.47789 -42.7071,1.47789 H 1388 Z m 561.3333,0 v -66.10256 l 3.8974,-3.89744 c 3.4191,-3.41909 4.851,-3.89628 11.6667,-3.88805 l 7.7692,0.009 27.3333,34.7977 c 15.0334,19.13874 28.8334,37.0023 30.6667,39.6968 l 3.3333,4.8991 v -35.6058 c 0,-44.97537 -0.8875,-42.95729 19.14,-43.51988 l 13.5267,-0.37997 v 66.1492 66.14921 l -3.8974,3.89744 c -3.2321,3.23203 -4.9972,3.89743 -10.3389,3.89743 h -6.4414 l -30.6612,-39.15778 c -16.8636,-21.53678 -31.2611,-40.18486 -31.9944,-41.44017 -0.9059,-1.55057 -1.2061,9.15707 -0.9366,33.3951 0.2819,25.3411 -0.062,36.78581 -1.1878,39.50304 -2.4041,5.80411 -7.4454,7.69981 -20.4761,7.69981 h -11.3995 z"
         id="path2" />
    </g>
  </g>
</svg>
