<?xml version="1.0" encoding="UTF-8" standalone="no"?>
<svg
   width="100"
   height="50.000999"
   version="1.1"
   id="svg25"
   sodipodi:docname="cms.svg"
   inkscape:version="1.4.3 (0d15f75, 2025-12-25)"
   xmlns:inkscape="http://www.inkscape.org/namespaces/inkscape"
   xmlns:sodipodi="http://sodipodi.sourceforge.net/DTD/sodipodi-0.dtd"
   xmlns="http://www.w3.org/2000/svg"
   xmlns:svg="http://www.w3.org/2000/svg">
  <defs
     id="defs25" />
  <sodipodi:namedview
     id="namedview25"
     pagecolor="#ffffff"
     bordercolor="#000000"
     borderopacity="0.25"
     inkscape:showpageshadow="2"
     inkscape:pageopacity="0.0"
     inkscape:pagecheckerboard="0"
     inkscape:deskcolor="#d1d1d1"
     inkscape:zoom="0.81"
     inkscape:cx="216.04938"
     inkscape:cy="-174.69136"
     inkscape:current-layer="svg25" />
  <g
     id="use25"
     style="fill:none"
     transform="translate(0,-0.026)">
    <path
       d="m 26.87,44.71 a 0.868,0.868 0 0 0 -0.873,0.863 c 0,0.475 0.392,0.861 0.873,0.861 a 0.86,0.86 0 0 0 0.857,-0.861 0.86,0.86 0 0 0 -0.857,-0.862 z m 7.654,3.96 -0.058,0.056 c -0.24,0.238 -0.635,0.322 -0.925,0.322 -1.048,0 -1.268,-0.788 -1.268,-1.45 v -4.703 h 2.494 v -0.948 h -2.494 v -2.345 l -0.17,-0.126 -0.882,0.117 v 2.354 h -1.355 v 0.948 h 1.355 v 4.718 c 0,1.511 0.85,2.414 2.273,2.414 0.564,0 1.076,-0.175 1.48,-0.506 l 0.1,-0.198 -0.327,-0.607 z m -11.028,-6.723 -2.067,5.95 -2.14,-5.95 h -0.656 l -2.154,5.92 -2.038,-5.92 h -0.946 l -0.124,0.207 2.814,7.69 h 0.61 l 2.159,-5.918 2.157,5.918 h 0.61 l 2.806,-7.624 0.02,-0.053 -0.09,-0.22 z m 16.15,-0.183 c -1.143,0 -2.298,0.447 -3.089,1.197 l -0.046,0.043 v 0.171 l 0.41,0.571 h 0.212 l 0.043,-0.038 a 3.754,3.754 0 0 1 2.47,-0.965 c 1.35,0 2.222,0.784 2.222,1.997 v 0.67 a 5.664,5.664 0 0 0 -2.453,-0.574 c -1.995,0 -3.335,1.055 -3.335,2.625 0,1.535 1.247,2.566 3.104,2.566 1.053,0 2.027,-0.402 2.684,-1.091 v 0.908 h 1.037 v -4.983 c 0,-1.91 -1.249,-3.097 -3.259,-3.097 z m 2.222,4.674 v 0.522 c 0,1.356 -1.358,2.088 -2.637,2.088 -1.237,0 -2.068,-0.631 -2.068,-1.571 0,-1.004 0.911,-1.678 2.268,-1.678 0.918,0 1.846,0.323 2.437,0.64 z M 9.04,41.764 c -1.144,0 -2.3,0.447 -3.09,1.197 l -0.047,0.043 v 0.171 l 0.41,0.571 h 0.212 l 0.043,-0.038 a 3.754,3.754 0 0 1 2.471,-0.965 c 1.35,0 2.222,0.784 2.222,1.997 v 0.67 A 5.66,5.66 0 0 0 8.808,44.836 c -1.995,0 -3.336,1.055 -3.336,2.625 0,1.535 1.248,2.566 3.105,2.566 1.053,0 2.027,-0.402 2.684,-1.091 v 0.908 h 1.037 v -4.983 c 0,-1.91 -1.25,-3.097 -3.259,-3.097 z m 2.22,4.674 v 0.522 c 0,1.356 -1.358,2.088 -2.637,2.088 -1.237,0 -2.068,-0.631 -2.068,-1.571 0,-1.004 0.911,-1.678 2.268,-1.678 0.92,0 1.846,0.323 2.438,0.64 z M 2.947,39.289 V 49.844 H 3.999 V 39.297 L 3.828,39.172 Z m 48.287,2.891 -0.142,-0.233 h -0.928 l -2.451,3.145 -2.452,-3.145 h -0.99 l -0.1,0.247 2.86,3.655 -2.983,3.748 0.1,0.247 h 0.959 l 2.53,-3.225 2.62,3.225 h 0.958 l 0.142,-0.235 -3.023,-3.76 2.9,-3.668 z m 31.028,4.49 c 0,1.423 -0.967,2.378 -2.407,2.378 -1.3,0 -2.175,-0.906 -2.175,-2.255 v -4.846 h -1.068 v 4.846 c 0,1.904 1.296,3.234 3.151,3.234 1.043,0 1.946,-0.393 2.545,-1.092 v 0.91 h 1.022 v -7.898 h -1.068 v 4.724 z M 96.31,43.145 c -0.684,-0.89 -1.727,-1.38 -2.935,-1.38 -2.298,0 -3.967,1.743 -3.967,4.145 0,2.703 2.073,4.117 4.12,4.117 1.396,0 2.761,-0.633 3.478,-1.613 l 0.028,-0.038 v -0.193 l -0.556,-0.458 h -0.207 l -0.044,0.06 c -0.558,0.744 -1.674,1.263 -2.713,1.263 -1.626,0 -2.85,-1.128 -3.025,-2.762 h 6.708 l 0.02,-0.124 c 0.016,-0.096 0.033,-0.194 0.033,-0.358 0,-1.004 -0.335,-1.95 -0.94,-2.659 z m -5.803,2.147 c 0.194,-1.532 1.328,-2.55 2.868,-2.55 0.952,0 1.713,0.383 2.206,1.113 0.296,0.386 0.49,0.88 0.568,1.437 z m -15.318,3.378 -0.057,0.056 c -0.204,0.202 -0.55,0.322 -0.926,0.322 -1.048,0 -1.267,-0.788 -1.267,-1.45 v -4.703 h 2.493 V 41.947 H 72.94 v -2.345 l -0.17,-0.126 -0.883,0.117 v 2.354 h -1.355 v 0.948 h 1.355 v 4.718 c 0,1.511 0.85,2.414 2.274,2.414 0.571,0 1.07,-0.17 1.48,-0.506 l 0.1,-0.198 L 75.414,48.716 75.19,48.67 Z M 89.36,42.016 89.319,41.995 c -0.297,-0.156 -0.636,-0.23 -1.04,-0.23 -0.826,0 -1.552,0.388 -2.051,1.082 v -0.9 h -1.022 v 7.897 h 1.052 v -4.511 c 0,-1.468 0.823,-2.575 1.914,-2.575 0.297,0 0.523,0.051 0.709,0.161 l 0.07,0.042 0.182,-0.09 0.312,-0.69 -0.084,-0.165 z M 53.804,44.71 a 0.868,0.868 0 0 0 -0.872,0.863 c 0,0.475 0.391,0.861 0.872,0.861 a 0.86,0.86 0 0 0 0.857,-0.861 0.86,0.86 0 0 0 -0.857,-0.862 z m 8.167,-5.295 c -0.395,-0.25 -0.916,-0.388 -1.465,-0.388 -1.233,0 -2.551,0.73 -2.551,2.778 v 0.142 h -1.34 v 0.948 h 1.34 v 6.95 h 1.052 v -6.95 h 2.433 v -0.948 h -2.433 v -0.142 c 0,-1.17 0.538,-1.815 1.514,-1.815 0.349,0 0.658,0.085 0.97,0.269 l 0.064,0.038 0.197,-0.08 0.313,-0.598 -0.043,-0.172 -0.05,-0.032 z m 6.235,7.255 c 0,1.423 -0.967,2.378 -2.406,2.378 -1.301,0 -2.176,-0.906 -2.176,-2.255 v -4.846 h -1.067 v 4.846 c 0,1.904 1.296,3.234 3.151,3.234 1.043,0 1.946,-0.393 2.544,-1.091 v 0.908 h 1.022 v -7.897 h -1.068 v 4.724 z M 85.87,0.027 c -7.446,0 -12.45,4.142 -12.45,10.309 v 0.093 c 0,6.783 5.511,8.599 12.169,10.126 4.347,1.012 5.671,1.795 5.671,3.35 v 0.093 c 0,1.564 -1.437,2.462 -3.943,2.462 -3.755,0 -7.311,-1.3 -10.571,-3.863 l -4.785,5.746 c 3.853,3.393 9.18,5.26 15.03,5.26 8.024,0 13.009,-4.022 13.009,-10.497 V 23.012 C 100,16.868 95.192,14.558 87.974,12.98 83.355,11.927 82.16,11.228 82.16,9.584 V 9.49 c 0,-1.122 0.913,-2.32 3.476,-2.32 2.934,0 6.16,1.12 9.103,3.158 L 99.037,4.225 C 95.464,1.401 91.155,0.027 85.87,0.027 Z M 68.593,0.768 H 59.83 L 51.74,14.066 43.647,0.768 h -8.763 v 32.083 h 7.838 V 12.694 l 8.923,13.809 8.97,-13.906 V 32.85 h 7.978 z M 17.485,0.027 C 12.224,0.15 9.605,3.173 8.795,4.33 8.746,4.401 8.509,4.755 8.509,4.755 6.816,7.434 5.947,10.678 6.173,14.195 l 0.006,0.093 c 0.548,8.531 7.19,14.662 15.651,14.662 0.368,0 0.739,-0.011 1.113,-0.035 3.34,-0.209 6.082,-1.063 8.38,-2.61 l -6.805,-4.789 c -1.961,2.353 -3.97,3.921 -7.379,3.921 -4.577,0 -7.799,-3.782 -7.799,-8.626 v -0.092 c 0,-4.705 3.223,-8.534 7.8,-8.534 3.128,0 5.276,1.476 7.144,3.782 l 6.82,-5.212 C 29.127,4.049 26.498,1.903 22.908,0.81 L 22.773,0.773 C 22.303,0.638 21.85,0.53 21.406,0.433 A 20.32,20.32 0 0 0 17.484,0.026 Z"
       fill="currentColor"
       id="path34" />
    <path
       d="m 3.793,13.623 c 0,-1.794 0.28,-3.526 0.8,-5.155 A 17.197,17.197 0 0 1 7.003,3.141 L 6.997,3.145 C 2.684,6.167 0,11.118 0,16.81 v 0.092 c 0,9.641 7.52,16.699 16.859,16.699 4.642,0 8.017,-1.271 10.653,-3.29 l -0.013,0.004 c -1.366,0.37 -2.836,0.602 -4.422,0.701 a 18.63,18.63 0 0 1 -1.2,0.038 18.26,18.26 0 0 1 -6.257,-1.095 C 8.74,27.598 3.793,21.169 3.793,13.623 Z"
       fill="currentColor"
       id="path35" />
  </g>
</svg>
