<?xml version="1.0" encoding="UTF-8" standalone="no"?>
<svg
   width="152"
   height="52"
   viewBox="0 0 152 52"
   fill="none"
   version="1.1"
   id="svg22"
   sodipodi:docname="codewise.svg"
   inkscape:version="1.4.3 (0d15f75, 2025-12-25)"
   xmlns:inkscape="http://www.inkscape.org/namespaces/inkscape"
   xmlns:sodipodi="http://sodipodi.sourceforge.net/DTD/sodipodi-0.dtd"
   xmlns="http://www.w3.org/2000/svg"
   xmlns:svg="http://www.w3.org/2000/svg">
  <sodipodi:namedview
     id="namedview22"
     pagecolor="#ffffff"
     bordercolor="#000000"
     borderopacity="0.25"
     inkscape:showpageshadow="2"
     inkscape:pageopacity="0.0"
     inkscape:pagecheckerboard="0"
     inkscape:deskcolor="#d1d1d1"
     inkscape:zoom="1.33"
     inkscape:cx="76.315789"
     inkscape:cy="25.93985"
     inkscape:current-layer="svg22" />
  <g
     clip-path="url(#clip0_4180_5429)"
     id="g5">
    <path
       d="M15.655 42.7285L15.7868 42.7955C15.8526 42.7955 15.9185 42.7955 15.9185 42.7285L17.8688 41.5226C17.8688 41.5226 18.0006 41.3886 18.0006 41.2546V13.6803L21.3082 15.6767V38.9769C21.3082 39.1108 21.3741 39.1778 21.44 39.2448C21.5059 39.3118 21.6377 39.3118 21.7695 39.2448L23.7198 38.0523C23.7198 38.0523 23.8516 37.9184 23.8516 37.7844V17.2309L27.1592 19.2273V35.453C27.1592 35.587 27.2251 35.654 27.291 35.721C27.3569 35.788 27.4886 35.788 27.6204 35.721L29.5707 34.5285C29.5707 34.5285 29.7025 34.3945 29.7025 34.2605V17.8338C29.7025 17.6999 29.6366 17.6329 29.5707 17.5659L15.9976 9.35253C15.9976 9.35253 15.7999 9.28554 15.6682 9.35253C15.6023 9.41952 15.5364 9.48651 15.5364 9.6205V42.4605C15.5627 42.5945 15.6286 42.6615 15.6945 42.7285"
       fill="white"
       id="path1"
       style="fill:#000000" />
    <path
       d="M46.4385 27.7619C46.1091 28.2979 45.7269 28.7668 45.1339 29.1018L37.6621 33.5099L36.4234 34.2468C28.1741 39.1909 19.8589 44.0546 11.5437 48.9987C11.0298 49.3337 10.4368 49.4677 9.85699 49.4677C9.27716 49.4677 8.68416 49.3337 8.15705 48.9987L7.64312 48.6637L4.2696 46.6674C3.22856 46.0644 2.58285 44.8585 2.58285 43.5991V8.41433C2.58285 7.15486 3.22856 6.01597 4.2696 5.34604C5.5742 4.54213 6.93152 3.8186 8.23612 3.01469C8.75005 2.67972 9.34305 2.54574 9.93605 2.54574C10.5291 2.54574 11.1089 2.67972 11.6228 3.01469C19.0946 7.48982 29.2283 13.5594 37.7412 18.5705C40.469 20.1649 42.9991 21.7057 45.213 22.9786C45.806 23.3136 46.1881 23.7825 46.5176 24.3185C46.7811 24.8544 46.9656 25.4574 46.9656 26.0603C46.8866 26.6498 46.768 27.2528 46.4385 27.7753M46.4385 20.7678C44.3564 19.5084 42.024 18.1015 39.4806 16.6277C30.9151 11.5496 20.531 5.34604 12.8615 0.803917C11.9523 0.267972 10.9112 0 9.87016 0C8.82912 0 7.78807 0.267972 6.8788 0.803917C5.5742 1.60783 4.21689 2.34476 2.91229 3.13527C1.10693 4.27416 0 6.27055 0 8.41433V43.5991C0 45.8098 1.10693 47.8062 2.99136 48.8781C4.29596 49.682 5.65327 50.419 6.95787 51.2095C7.86714 51.7454 8.90818 52.0134 9.94923 52.0134C10.9903 52.0134 12.0313 51.7454 12.9406 51.2095C21.7697 45.9974 30.6779 40.7318 39.507 35.4527C41.8395 34.0459 44.1851 32.7194 46.4649 31.3125C50.4314 28.9812 50.4314 23.1126 46.4649 20.7678"
       fill="white"
       id="path2"
       style="fill:#000000" />
    <path
       d="M43.6447 25.7659L36.1729 21.3577L31.7583 18.6914C31.7583 18.6914 31.5607 18.6244 31.4289 18.6914C31.363 18.7584 31.2971 18.8254 31.2971 18.9594V21.3577C31.2971 21.4917 31.363 21.5587 31.4289 21.6257L35.1977 23.8901V30.6832C35.1977 30.8171 35.2636 30.8841 35.3163 30.9511C35.3822 30.9511 35.4481 31.0181 35.4481 31.0181C35.4481 31.0181 35.5799 31.0181 35.5799 30.9511L36.0279 30.6832L37.5829 29.7586C37.5829 29.7586 37.7147 29.6247 37.7147 29.4907V25.3505L41.2332 27.4139C41.2332 27.4139 41.4308 27.4809 41.5626 27.4139L43.5129 26.208C43.5129 26.208 43.6447 26.074 43.6447 25.94C43.6447 25.8061 43.7238 25.8195 43.6579 25.7525"
       fill="white"
       id="path3"
       style="fill:#000000" />
    <path
       d="M9.73794 5.80182L5.77143 8.13318C5.77143 8.13318 5.63965 8.26716 5.63965 8.40115V43.5859C5.63965 43.7199 5.70554 43.7869 5.77143 43.8539L9.73794 46.1852L9.86972 46.2522C9.93561 46.2522 10.0015 46.2522 10.0015 46.1852L13.968 43.8539C13.968 43.8539 14.0998 43.7199 14.0998 43.5859V41.2545C14.0998 41.1205 14.0339 41.0536 13.968 40.9866C13.9021 40.9196 13.7703 40.9196 13.6386 40.9866L9.86972 43.2509L8.16978 42.246V9.808L9.86972 8.80311L13.6386 11.0675C13.6386 11.0675 13.8362 11.1345 13.968 11.0675C14.0339 11.0005 14.0998 10.9335 14.0998 10.7995V8.46814C14.0998 8.33415 14.0339 8.26716 13.968 8.20017L10.0015 5.86881C9.94879 5.73482 9.80383 5.73482 9.75112 5.80182"
       fill="white"
       id="path4"
       style="fill:#000000" />
    <path
       d="M47.2159 13.6804C44.8439 13.6804 42.6828 14.3905 40.8511 15.5964C43.3285 17.0434 45.5292 18.3699 47.2159 19.3882C49.5616 20.7683 50.9584 23.247 50.9584 26.0205C50.9584 28.794 49.5616 31.2728 47.2291 32.6528C45.8718 33.4969 44.4618 34.3276 43.1045 35.1182C42.3665 35.5603 41.6022 36.0025 40.8511 36.4446C42.696 37.6505 44.9098 38.374 47.2291 38.374C53.8576 38.374 59.2473 32.827 59.2473 26.0205C59.2473 19.214 53.8576 13.667 47.2291 13.667"
       fill="#D5FA52"
       id="path5" />
  </g>
  <path
     d="M65.1592 10.2463C65.1592 7.73633 67.0431 5.8208 69.5767 5.8208C71.2658 5.8208 72.6301 6.67949 73.4096 7.93449L71.8505 8.92528C71.3957 8.13265 70.6162 7.60423 69.6417 7.60423C68.1475 7.60423 67.0431 8.72712 67.0431 10.2463C67.0431 11.7656 68.1475 12.8884 69.6417 12.8884C70.6162 12.8884 71.4607 12.36 71.8505 11.5674L73.4096 12.5582C72.6301 13.8132 71.2658 14.6719 69.5767 14.6719C67.1081 14.6719 65.1592 12.7563 65.1592 10.2463Z"
     fill="white"
     id="path6"
     style="fill:#000000" />
  <path
     d="M74.7737 10.2463C74.7737 7.73633 76.6576 5.8208 79.1912 5.8208C81.7249 5.8208 83.6088 7.73633 83.6088 10.2463C83.6088 12.7563 81.6599 14.6719 79.1912 14.6719C76.6576 14.6719 74.7737 12.7563 74.7737 10.2463ZM81.7898 10.2463C81.7898 8.72712 80.6854 7.60423 79.2562 7.60423C77.762 7.60423 76.6576 8.72712 76.6576 10.2463C76.6576 11.7656 77.762 12.8884 79.2562 12.8884C80.6854 12.8884 81.7898 11.7656 81.7898 10.2463Z"
     fill="white"
     id="path7"
     style="fill:#000000" />
  <path
     d="M98.9406 8.99133V14.4737H97.1216V9.51976C97.1216 8.33081 96.407 7.60423 95.3026 7.60423C94.1332 7.60423 93.3537 8.39686 93.3537 9.58581V14.4737H91.5347V9.51976C91.5347 8.33081 90.8201 7.60423 89.7157 7.60423C88.5463 7.60423 87.7668 8.39686 87.7668 9.58581V14.4737H85.9478V6.01896H87.7668V7.00975C88.4164 6.21712 89.2609 5.8208 90.3653 5.8208C91.5996 5.8208 92.5091 6.41528 93.0288 7.34001C93.6785 6.34922 94.7179 5.8208 95.9522 5.8208C97.7063 5.8208 98.9406 7.0758 98.9406 8.99133Z"
     fill="white"
     id="path8"
     style="fill:#000000" />
  <path
     d="M114.662 8.99133V14.4737H112.843V9.51976C112.843 8.33081 112.128 7.60423 111.024 7.60423C109.855 7.60423 109.075 8.39686 109.075 9.58581V14.4737H107.256V9.51976C107.256 8.33081 106.542 7.60423 105.437 7.60423C104.268 7.60423 103.488 8.39686 103.488 9.58581V14.4737H101.669V6.01896H103.488V7.00975C104.138 6.21712 104.982 5.8208 106.087 5.8208C107.321 5.8208 108.231 6.41528 108.75 7.34001C109.4 6.34922 110.439 5.8208 111.674 5.8208C113.428 5.8208 114.662 7.0758 114.662 8.99133Z"
     fill="white"
     id="path9"
     style="fill:#000000" />
  <path
     d="M125.511 10.9729H118.82C119.144 12.1619 120.119 12.9545 121.483 12.9545C122.587 12.9545 123.497 12.4261 123.952 11.7656L125.186 12.8224C124.342 13.8792 122.977 14.6058 121.418 14.6058C118.755 14.6058 116.806 12.6903 116.806 10.1803C116.806 7.67028 118.69 5.8208 121.158 5.8208C123.627 5.8208 125.511 7.73633 125.511 10.2463C125.576 10.5105 125.576 10.7748 125.511 10.9729ZM118.755 9.4537H123.562C123.302 8.26475 122.328 7.47212 121.158 7.47212C119.989 7.47212 119.079 8.33081 118.755 9.4537Z"
     fill="white"
     id="path10"
     style="fill:#000000" />
  <path
     d="M132.462 5.88721V7.80274H132.137C130.513 7.80274 129.539 8.79353 129.539 10.3788V14.4741H127.72V6.01931H129.539V7.27432C130.188 6.41563 131.033 5.88721 132.137 5.88721H132.462Z"
     fill="white"
     id="path11"
     style="fill:#000000" />
  <path
     d="M133.696 10.2463C133.696 7.73633 135.58 5.8208 138.114 5.8208C139.803 5.8208 141.167 6.67949 141.947 7.93449L140.388 8.92528C139.933 8.13265 139.153 7.60423 138.179 7.60423C136.685 7.60423 135.58 8.72712 135.58 10.2463C135.58 11.7656 136.685 12.8884 138.179 12.8884C139.153 12.8884 139.998 12.36 140.388 11.5674L141.947 12.5582C141.167 13.8132 139.803 14.6719 138.114 14.6719C135.58 14.6719 133.696 12.7563 133.696 10.2463Z"
     fill="white"
     id="path12"
     style="fill:#000000" />
  <path
     d="M151.951 10.9729H145.26C145.585 12.1619 146.559 12.9545 147.924 12.9545C149.028 12.9545 149.937 12.4261 150.392 11.7656L151.626 12.8224C150.782 13.8792 149.418 14.6058 147.859 14.6058C145.195 14.6058 143.246 12.6903 143.246 10.1803C143.246 7.67028 145.13 5.8208 147.599 5.8208C150.067 5.8208 151.951 7.73633 151.951 10.2463C152.016 10.5105 152.016 10.7748 151.951 10.9729ZM145.26 9.4537H150.067C149.807 8.26475 148.833 7.47212 147.664 7.47212C146.429 7.53817 145.52 8.33081 145.26 9.4537Z"
     fill="white"
     id="path13"
     style="fill:#000000" />
  <path
     d="M78.7365 24.7775V30.2598H76.9175V25.3059C76.9175 24.1169 76.2029 23.3904 75.0985 23.3904C73.9291 23.3904 73.1496 24.183 73.1496 25.3719V30.2598H71.3306V25.3059C71.3306 24.1169 70.616 23.3904 69.5116 23.3904C68.3422 23.3904 67.5627 24.183 67.5627 25.3719V30.2598H65.7437V21.8051H67.5627V22.7959C68.2123 22.0032 69.0568 21.6069 70.1612 21.6069C71.3955 21.6069 72.305 22.2014 72.8247 23.1261C73.4744 22.1354 74.5138 21.6069 75.7481 21.6069C77.5671 21.6069 78.7365 22.8619 78.7365 24.7775Z"
     fill="white"
     id="path14"
     style="fill:#000000" />
  <path
     d="M89.5858 26.759H82.8945C83.2193 27.948 84.1938 28.7406 85.558 28.7406C86.6624 28.7406 87.5719 28.2122 88.0267 27.5517L89.261 28.6085C88.4165 29.6654 87.0522 30.392 85.4931 30.392C82.8295 30.392 80.8806 28.4764 80.8806 25.9664C80.8806 23.4564 82.7646 21.6069 85.2332 21.6069C87.7019 21.6069 89.5858 23.5225 89.5858 26.0325C89.6508 26.2967 89.6508 26.5609 89.5858 26.759ZM82.8945 25.2398H87.7019C87.442 24.0509 86.4675 23.2583 85.2982 23.2583C84.1288 23.2583 83.1544 24.1169 82.8945 25.2398Z"
     fill="white"
     id="path15"
     style="fill:#000000" />
  <path
     d="M100.175 18.3707V30.2602H98.356V29.0713C97.6414 29.93 96.6669 30.4584 95.4326 30.4584C93.0939 30.4584 91.3398 28.5429 91.3398 26.0329C91.3398 23.5229 93.0939 21.6073 95.4326 21.6073C96.6669 21.6073 97.6414 22.1357 98.356 22.9944V18.3047H100.175V18.3707ZM98.356 26.0329C98.356 24.5136 97.2516 23.3908 95.8224 23.3908C94.3282 23.3908 93.2238 24.5136 93.2238 26.0329C93.2238 27.5521 94.3282 28.675 95.8224 28.675C97.2516 28.675 98.356 27.5521 98.356 26.0329Z"
     fill="white"
     id="path16"
     style="fill:#000000" />
  <path
     d="M102.644 19.2295C102.644 18.569 103.163 18.0405 103.813 18.0405C104.463 18.0405 104.982 18.569 104.982 19.2295C104.982 19.89 104.463 20.4184 103.813 20.4184C103.163 20.4184 102.644 19.89 102.644 19.2295ZM102.903 21.8055H104.722V30.2603H102.903V21.8055Z"
     fill="white"
     id="path17"
     style="fill:#000000" />
  <path
     d="M115.701 21.8051V30.2598H113.882V29.0709C113.168 29.9296 112.193 30.458 110.959 30.458C108.62 30.458 106.866 28.5425 106.866 26.0325C106.866 23.5225 108.62 21.6069 110.959 21.6069C112.193 21.6069 113.168 22.1354 113.882 22.994V21.8051H115.701ZM113.882 26.0325C113.882 24.5133 112.778 23.3904 111.349 23.3904C109.855 23.3904 108.75 24.5133 108.75 26.0325C108.75 27.5517 109.855 28.6746 111.349 28.6746C112.778 28.6746 113.882 27.5517 113.882 26.0325Z"
     fill="white"
     id="path18"
     style="fill:#000000" />
  <path
     d="M68.3424 39.3098V43.273C68.3424 44.0656 68.7972 44.462 69.5767 44.462C70.0315 44.462 70.4213 44.3299 70.7461 44.1317V45.8491C70.2913 46.1133 69.8366 46.1793 69.2519 46.1793C67.4329 46.1793 66.5884 45.1225 66.5884 43.5372V39.2438H65.1592V37.5264H66.5884V35.3467H68.4074V37.5264H70.7461V39.2438H68.3424V39.3098Z"
     fill="white"
     id="path19"
     style="fill:#000000" />
  <path
     d="M80.8156 42.5462H74.0593C74.3841 43.7351 75.3586 44.5277 76.7228 44.5277C77.8272 44.5277 78.7367 43.9993 79.1915 43.3388L80.4258 44.3956C79.5813 45.4525 78.217 46.1791 76.6579 46.1791C73.9943 46.1791 72.0454 44.2635 72.0454 41.7535C72.0454 39.2435 73.9294 37.394 76.398 37.394C78.8666 37.394 80.7506 39.3096 80.7506 41.8196C80.8156 42.0838 80.8156 42.348 80.8156 42.5462ZM74.0593 41.0269H78.8666C78.6068 39.838 77.6323 39.0454 76.463 39.0454C75.2936 39.0454 74.3192 39.904 74.0593 41.0269Z"
     fill="white"
     id="path20"
     style="fill:#000000" />
  <path
     d="M82.5046 41.8196C82.5046 39.3096 84.3886 37.394 86.9222 37.394C88.6113 37.394 89.9755 38.2527 90.7551 39.5077L89.196 40.4985C88.7412 39.7059 87.9616 39.1775 86.9872 39.1775C85.493 39.1775 84.3886 40.3004 84.3886 41.8196C84.3886 43.3388 85.493 44.4617 86.9872 44.4617C87.9616 44.4617 88.8062 43.9333 89.196 43.1406L90.7551 44.1314C89.9755 45.3864 88.6113 46.2451 86.9222 46.2451C84.3886 46.2451 82.5046 44.3296 82.5046 41.8196Z"
     fill="white"
     id="path21"
     style="fill:#000000" />
  <path
     d="M100.63 40.7625V46.0467H98.8107V41.357C98.8107 40.0359 97.9662 39.1772 96.7319 39.1772C95.4326 39.1772 94.5231 40.0359 94.5231 41.357V46.0467H92.7041V34.1572H94.5231V38.7809C95.1727 37.9222 96.1472 37.4599 97.3166 37.4599C99.3305 37.3938 100.63 38.7149 100.63 40.7625Z"
     fill="white"
     id="path22"
     style="fill:#000000" />
  <defs
     id="defs22">
    <clipPath
       id="clip0_4180_5429">
      <rect
         width="59.2473"
         height="52"
         fill="white"
         id="rect22" />
    </clipPath>
  </defs>
</svg>
