<?xml version="1.0" encoding="UTF-8"?>
<svg xmlns="http://www.w3.org/2000/svg" xmlns:xlink="http://www.w3.org/1999/xlink" version="1.1" id="Ebene_1" x="0px" y="0px" viewBox="0 0 689.93 185.71" style="enable-background:new 0 0 689.93 185.71;" xml:space="preserve">
<style type="text/css">
	.st0{fill:none;}
	.st1{fill:#21659D;}
	.st2{fill:#C8C9C9;}
</style>
<g>
	<path class="st0" d="M170.02,44.95c0,0.11,0.01,0.22,0.01,0.33c0.03-0.05,0.06-0.1,0.1-0.14   C170.09,45.07,170.05,45.01,170.02,44.95z"></path>
	<path class="st0" d="M220.61,45.74c-0.02-0.52,0-1.04,0.04-1.56c-0.19,0.27-0.36,0.54-0.57,0.81   C220.27,45.23,220.44,45.48,220.61,45.74z"></path>
	<path class="st1" d="M143.63,127.72C143.63,127.72,143.63,127.72,143.63,127.72c-0.12,0.11-0.23,0.23-0.35,0.36   c0.2,0,0.4-0.02,0.61-0.02C143.81,127.95,143.72,127.83,143.63,127.72z"></path>
	<path class="st1" d="M188.34,74.41c-5.41-9.65-14.48-14.53-24.37-18.19c-0.21-0.08-0.42-0.16-0.64-0.24   c-12.09-3.11-24.26-3.72-36.52-1.04c-8.92,1.95-17.08,5.46-23.78,11.85C84.61,84.37,91.13,112.5,116.06,123   c8.7,3.67,17.83,5.08,27.22,5.09c0,0,0,0,0,0c0.11-0.14,0.23-0.25,0.34-0.36c0,0,0,0,0,0c0.1,0.11,0.18,0.23,0.26,0.34   c9.17-0.18,18.02-1.85,26.47-5.57C190.46,113.65,198.45,92.45,188.34,74.41z M152.77,107.35c-5.04,1.16-6.62,0.58-15.58,0.78   c-4.91-0.27-9.41-1.79-13.47-4.54c-10.68-7.23-10.16-20.22,1.17-26.63c9-5.09,18.63-5.19,28.44-2.88c0.33,0,1.42,0.34,1.71,0.45   c9.95,3.61,14.46,9.19,14.16,16.62C168.89,98.75,162.95,105,152.77,107.35z"></path>
	<path class="st1" d="M246.89,128.01c0.16,0.02,0.33,0.04,0.49,0.06c-0.11-0.11-0.23-0.19-0.35-0.29   C246.98,127.86,246.94,127.94,246.89,128.01z"></path>
	<path class="st1" d="M278.38,57.91c-16.49-6.37-33.15-5.99-49.84-0.71c0,0,0,0,0,0c-0.28,0.14-0.56,0.27-0.84,0.41   c-2.38,1.16-4.8,2.25-7.09,3.57c-21.94,12.58-24.1,40.62-4.25,56.1c8.93,6.96,19.57,9.43,30.54,10.73   c0.05-0.08,0.09-0.15,0.15-0.23c0.11,0.1,0.24,0.18,0.35,0.29c11.71,0.13,23.28-0.67,34.01-6.02c10.79-5.39,18.79-13.25,20.9-25.61   C305.15,79.63,295.81,64.65,278.38,57.91z M267.81,105.77c-7.18,2.97-14.72,4.04-22.45,2.08v0c-4.08-0.27-7.74-1.81-11.11-3.98   c-11.58-7.46-10.54-20.54,2.16-27.64c10.55-4.78,21.23-4.86,31.84-0.43c6.6,2.75,11.13,7.52,11,15.12   C279.12,98.49,274.3,103.09,267.81,105.77z"></path>
	<path class="st1" d="M517.09,125.45c25.52,0,50.73,0,75.87,0c0-6.4,0-12.46,0-18.84c-17.97,0-35.58,0-53.37,0c0-2.58,0-4.81,0-7.54   c14.31,0,28.38,0,42.74,0c0.16-5.87,0.5-11.25-0.25-17.11c-14.34,0-28.4,0-42.52,0c0.06-2.8,0.06-5,0.15-7.77   c17.59,0,35.76,0.04,53.41,0.04c0-6.42,0-12.31,0-18.26c-25.48,0-50.59,0-76.03,0C517.09,79.48,517.09,102.39,517.09,125.45z"></path>
	<path class="st1" d="M379.6,90.2c-21.46-13.24-41.96-25.88-62.84-38.76c0,25.28,0,49.54,0,74.05c7.48,0,14.7,0,22.48,0   c0-11.31,0-22.34,0-34.29c21.33,13.15,41.84,25.8,62.65,38.64c0-25.1,0-49.35,0-73.76c-7.51,0-14.73,0-22.29,0   C379.6,67.33,379.6,78.28,379.6,90.2z"></path>
	<path class="st1" d="M32.89,76.94c5.21-2.84,10.84-3.95,16.74-4.19c9.29-0.38,18.1,1.6,26.85,5.48c3.24-5.69,6.3-11.06,9.36-16.42   C66.63,50.74,37.71,50.4,19.13,60.86C7.52,67.4-0.09,76.85,0,90.79c0.09,14.36,7.97,24.12,20.26,30.16   c18.71,9.19,38.11,9.31,57.62,2.45c2.7-0.95,5.73-1.62,7.73-4.38c-3.01-5.24-5.98-10.4-9.11-15.86c-3.24,1.16-5.99,2.32-8.83,3.13   c-11.85,3.38-23.63,3.83-34.91-1.98c-5.47-2.81-9.25-7.17-9.21-13.73C23.57,84.02,27.47,79.9,32.89,76.94z"></path>
	<path class="st1" d="M671.58,106.34c-12.57,3.41-25.07,4.11-36.58-3.23c-10.19-6.5-10.07-18.3-0.01-25   c5.24-3.49,11.19-4.95,17.45-5.31c9.64-0.56,18.84,1.26,28.05,5.52c3.33-5.88,6.33-11.17,9.4-16.59   c-10.2-6.06-20.92-8.23-31.95-8.43c-14.36-0.27-28.2,2.13-40.1,11.02c-18.12,13.54-18.69,37.72-1.04,51.75   c14.38,11.42,31.27,13.06,48.76,11.36c8.47-0.82,16.58-3.1,24.36-7.93c-3.26-5.66-6.36-11.03-9.41-16.32   C677.19,104.36,674.45,105.56,671.58,106.34z"></path>
	<path class="st1" d="M415.68,74.65c10.75,0,21.17,0,32.15,0c0,17.23,0,33.97,0,50.91c7.88,0,15.17,0,23.52,0   c0-17.17,0-34.01,0-51.37c11.08,0,21.47,0,31.75,0c0-6.43,0-12.32,0-18.06c-29.43,0-58.47,0-87.42,0   C415.68,62.39,415.68,68.28,415.68,74.65z"></path>
	<g>
		<path class="st2" d="M247.38,128.07c-0.16-0.02-0.33-0.04-0.49-0.06c-10.97-1.31-21.6-3.77-30.54-10.73    c-19.86-15.48-17.69-43.52,4.25-56.1c2.29-1.31,4.71-2.41,7.09-3.57c0.28-0.14,0.56-0.27,0.84-0.41    c-4.22-2.67-5.25-7.45-7.92-11.47c-0.17-0.25-0.34-0.51-0.53-0.75c0.2-0.27,0.37-0.54,0.57-0.81c7.55-10.67,6.94-21.35-0.48-31.45    c1-4.42,2.15-8.27,0.21-12.16c-4.21,0.21-5.56,5.08-9.99,5.26c-8.75-3.85-18.17-4-27.59-1.08c-1.89-1.75-3.58-3.31-5.06-4.68    c-2.75-0.33-4.55,0.69-6.29,2.66c0,2.92,0,6.06,0,8.82c-7.79,11.5-9.59,18.57-1.43,33.41c0.04,0.06,0.07,0.13,0.1,0.19    c-0.03,0.05-0.06,0.1-0.1,0.14c-2.47,3.37-3.58,7.65-6.7,10.7c0.21,0.08,0.42,0.16,0.64,0.24c9.9,3.67,18.96,8.54,24.37,18.19    c10.12,18.04,2.13,39.23-17.97,48.08c-8.45,3.72-17.3,5.39-26.47,5.57c-0.2,0-0.4,0.02-0.61,0.02c0.36,1.95,0.7,3.91,1.07,5.86    c2.78,14.88,10.63,25.91,24.58,32.23c5.32,2.41,11,3.81,16.77,4.3c14.53,1.23,28.88,0.98,41.88-7.08c0.65-0.4,1.46-1.53,2.59-0.1    c-0.53,0.62-1,1.28-1.59,1.83c-0.72,0.68-1.51,1.29-2.32,1.87c-13.38,9.6-28.4,9.63-43.82,7.58c-7.37-0.98-14.61-3-22.13-2.72    c-2.42,0.09-4.34,0.92-4.84,3.4c-0.52,2.6,1.1,3.98,3.41,4.7c1.11,0.34,2.23,0.64,3.33,1c7.86,2.51,15.68,3.16,23.83,4.15    c7.28,0.88,8.94,0.55,16.28,0.55c2.43,0,7.69-0.54,8.65-0.72c15.85-2.98,27.46-11.29,32.7-26.97    C246.91,148.31,247.62,138.22,247.38,128.07z"></path>
		<path class="st2" d="M144.75,108.1c3.3,0.03,5.04-0.06,8.01-0.75c10.18-2.35,16.12-8.6,16.42-16.21    c0.3-7.43-3.85-12.87-13.8-16.48c-0.29-0.11-0.87,1.68-1.48,3.13c-4.07,9.6-8.57,19.36-9.14,29.96    C144.77,107.93,144.78,107.85,144.75,108.1z"></path>
	</g>
	<path class="st2" d="M236.42,76.22c-12.7,7.11-13.74,20.18-2.16,27.64c3.37,2.17,7.02,3.71,11.11,3.98v0   C243.94,96.87,239.53,86.73,236.42,76.22z"></path>
</g>
</svg>
