<?xml version="1.0" encoding="UTF-8" standalone="no"?>
<!-- Created with Inkscape (http://www.inkscape.org/) -->

<svg
   version="1.1"
   id="svg1"
   width="296.20993"
   height="128.14111"
   viewBox="0 0 296.20993 128.14111"
   sodipodi:docname="cp1.svg"
   inkscape:version="1.4.3 (0d15f75, 2025-12-25)"
   xmlns:inkscape="http://www.inkscape.org/namespaces/inkscape"
   xmlns:sodipodi="http://sodipodi.sourceforge.net/DTD/sodipodi-0.dtd"
   xmlns="http://www.w3.org/2000/svg"
   xmlns:svg="http://www.w3.org/2000/svg">
  <defs
     id="defs1" />
  <sodipodi:namedview
     id="namedview1"
     pagecolor="#ffffff"
     bordercolor="#000000"
     borderopacity="0.25"
     inkscape:showpageshadow="2"
     inkscape:pageopacity="0.0"
     inkscape:pagecheckerboard="0"
     inkscape:deskcolor="#d1d1d1"
     showgrid="false"
     inkscape:zoom="0.57959029"
     inkscape:cx="145.79264"
     inkscape:cy="59.524807"
     inkscape:current-layer="g1" />
  <g
     inkscape:groupmode="layer"
     inkscape:label="Image"
     id="g1"
     transform="translate(-57.600001,-24.282353)">
    <path
       style="fill:#343434;stroke:none"
       d="m 108.98824,24.282353 v 0.564706 h 1.69412 l -1.69412,-0.564706 m 14.11764,0 v 0.564706 h 2.82353 l -2.82353,-0.564706 m 72.84707,0 v 0.564706 h 4.51764 l -4.51764,-0.564706 m 20.32941,0 v 0.564706 h 3.38823 l -3.38823,-0.564706 m -110.30588,0.752939 0.37646,0.188241 -0.37646,-0.188241 m 21.64705,-0.188233 v 0.564706 h 1.69412 l -1.69412,-0.564706 m 61.55294,0 v 0.564706 H 192 l -2.82353,-0.564706 m 32.75295,0 v 0.564706 h 1.69411 l -1.69411,-0.564706 m -119.15295,0.564706 0.56471,0.564706 -0.56471,-0.564706 m 27.67059,0 v 0.564706 h 1.69412 l -1.69412,-0.564706 m 53.08236,0 v 0.564706 h 2.25882 l -2.25882,-0.564706 m 41.78823,0 v 0.564706 h 1.69412 l -1.69412,-0.564706 m -124.2353,0.564706 0.56471,0.564706 -0.56471,-0.564706 m 32.56471,0.188232 0.37647,0.188241 -0.37647,-0.188241 m 45.92941,-0.188232 v 0.564706 h 1.69412 l -1.69412,-0.564706 m 48.94118,0.188232 0.37648,0.188241 -0.37648,-0.188241 m -129.694119,0.376474 0.564706,0.564706 -0.564706,-0.564706 m 36.517649,0.188232 0.37647,0.188241 -0.37647,-0.188241 m 40.28235,-0.188232 v 0.564706 h 1.69412 l -1.69412,-0.564706 m 55.15294,0.188232 0.37648,0.188241 -0.37648,-0.188241 m -133.647056,0.376474 0.564706,0.564706 -0.564706,-0.564706 m 40.094116,0 0.56471,0.564706 -0.56471,-0.564706 m 35.01177,0 v 0.564706 h 1.69412 l -1.69412,-0.564706 m 60.23529,0.188232 0.37648,0.188241 -0.37648,-0.188241 m -93.55294,0.376474 0.56471,0.564706 -0.56471,-0.564706 m 30.87058,0.188232 0.37649,0.188241 -0.37649,-0.188241 m 64.37647,0 0.37649,0.188241 -0.37649,-0.188241 M 94.305884,28.235295 94.87059,28.8 94.305884,28.235295 m 46.117656,0.188232 0.37646,0.188241 -0.37646,-0.188241 m 26.54116,0 0.37649,0.188241 -0.37649,-0.188241 m 68.51766,-0.188232 0.5647,0.564705 -0.5647,-0.564705 m 77.36471,2.823529 v 0.564706 l 7.90588,-2.258824 c -2.44281,-1.503128 -5.48214,0.69973 -7.90588,1.694118 M 141.74118,28.8 142.30589,29.364706 141.74118,28.8 m 22.39999,0.188233 0.37649,0.188241 -0.37649,-0.188241 m 72.84706,0 0.37649,0.188241 -0.37649,-0.188241 m -94.11764,0.376473 0.56471,0.564706 -0.56471,-0.564706 m 95.4353,0 0.5647,0.564706 -0.5647,-0.564706 M 144,29.929412 144.56471,30.494118 144,29.929412 m 95.4353,0 0.5647,0.564706 -0.5647,-0.564706 m -94.30589,0.564706 0.56471,0.564706 -0.56471,-0.564706 m 17.12942,0.376474 0.18823,0.376464 -0.18823,-0.376464 m 78.30588,-0.376474 0.56471,0.564706 -0.56471,-0.564706 m -94.30588,0.564706 1.12941,1.129412 -1.12941,-1.129412 m 95.43529,0 1.12941,1.129412 -1.12941,-1.129412 m 81.31765,0 0.56471,0.564706 -0.56471,-0.564706 M 87.529414,31.62353 88.094119,32.188236 87.529414,31.62353 m 224.000016,0.188232 0.37645,0.188241 -0.37645,-0.188241 m -225.129428,0.376474 0.564706,0.564706 -0.564706,-0.564706 m 61.552938,0 c 1.98264,3.951562 -4.29347,14.750063 -9.03747,14.535515 -4.2955,-0.194264 -9.186,-6.147854 -12.98606,-8.142928 -11.45867,-6.015941 -25.28986,-4.477675 -35.009581,3.941618 -17.6592,15.296528 -19.01518,49.100555 -8.891507,68.724619 4.876853,9.45345 13.702235,18.70509 24.701088,20.32941 v -0.5647 C 99.286836,129.07347 92.797328,120.12028 89.664492,113.50588 81.513541,96.296675 82.009176,68.324975 95.488013,53.64706 104.1919,44.168874 116.09321,40.426172 128.18824,45.917648 c 5.35448,2.431089 11.10134,8.873679 17.50588,7.426577 10.29806,-2.326844 14.73335,-18.609815 2.25882,-21.155989 m 95.4353,0 c 3.19026,3.956577 7.37154,6.74819 9.91634,11.294118 5.77033,10.307847 3.251,24.205767 -3.64793,33.317647 -8.46245,11.176922 -22.80443,17.867518 -36.76253,16.471893 -3.53058,-0.353011 -8.22182,-0.221226 -11.05795,-2.749012 -1.98934,-1.773065 -2.5713,-5.146539 -3.6244,-7.511116 l 6.21176,2.258823 c -1.0916,-9.321274 -0.5647,-18.855693 -0.5647,-28.235294 0,-3.692854 -0.95706,-9.028909 0.74422,-12.414818 1.98102,-3.942662 6.75907,-4.042521 10.5499,-3.555986 8.31474,1.067147 15.27701,3.883206 20.89411,10.323745 h 0.56471 c 0.56188,-4.793598 -4.29008,-9.538744 -7.90631,-12.089761 -10.04311,-7.084742 -21.62125,-6.545533 -33.31722,-6.545533 v 80.188238 c 0,7.95972 -3.24877,25.38198 10.16471,22.58823 -3.00962,-7.81515 -1.69412,-17.12897 -1.69412,-25.41176 0,-2.89626 -0.69515,-7.04935 1.49803,-9.35468 2.39876,-2.52143 7.94077,-0.0909 10.91723,0.35076 7.25306,1.07618 14.6019,-0.18207 21.46709,-2.682795 15.36607,-5.597271 25.51284,-18.973518 26.89717,-35.13333 1.06037,-12.378128 -7.97468,-29.253516 -21.25011,-31.109369 m 66.6353,0 0.5647,0.564706 -0.5647,-0.564706 m -160.37648,0.564706 -0.5647,0.564706 0.5647,-0.564706 m 12.98824,0 v 2.258823 H 163.2 l -0.5647,-2.258823 m 82.44706,0 -0.56471,0.564706 0.56471,-0.564706 m 57.6,2.258823 v 0.564706 l 6.77647,-2.258823 -6.77647,1.694117 m 35.01176,99.952945 V 134.4 l -4.51764,-0.5647 v -0.56471 l 1.12941,-0.56471 c -4.07327,-5.9841 -2.25882,-15.62185 -2.25882,-22.58823 V 56.470589 c 0,-5.817334 0.88197,-12.474549 -1.01047,-18.070588 -0.7612,-2.250931 -2.93965,-5.421542 -5.68235,-5.273197 -2.5509,0.137971 -1.77777,4.739485 -1.77777,6.402608 v 20.329412 49.694116 c 0,5.0752 -1.94097,15.21973 0.66579,19.64445 2.2163,3.76196 9.44642,5.44016 13.45185,5.76732 M 84.705884,33.317648 85.27059,33.882353 84.705884,33.317648 m -1.694118,1.129411 0.564706,0.564706 -0.564706,-0.564706 m 93.741174,9.035295 v 3.952941 h 0.56471 l -0.56471,-12.988236 c -2.36574,0.04883 -6.90706,-0.135765 -8.69412,1.63399 -4.34612,4.304056 5.88318,7.587771 8.69412,7.401305 m -12.42352,-7.905883 v 0.564706 h 1.69411 l -1.69411,-0.564706 m 133.83529,1.129412 v 0.564706 l 3.95294,-1.129412 -3.95294,0.564706 m -217.411767,-0.564706 -0.564706,1.129412 0.564706,-1.129412 m 200.470597,6.211765 v 0.564706 l 16.37647,-5.082353 -16.37647,4.517647 m -204.423538,-2.82353 -1.694118,2.258824 1.694118,-2.258824 m -2.82353,3.388236 C 68.881129,48.466192 63.880652,55.824705 62.117648,63.24706 h 0.564706 l 6.590414,-12.988236 4.703704,-7.341176 m 204.988238,0 v 0.564706 h 1.69412 l -1.69412,-0.564706 m -1.12941,0.564706 0.56471,0.564705 -0.56471,-0.564705 m 0,1.129411 1.12941,3.952942 h 0.56471 l -1.69412,-3.952942 m 28.23529,11.294118 c -0.026,-9.440022 -5.67159,-9.245646 -13.55294,-8.512853 -2.44218,0.227068 -6.97203,-0.02816 -8.67191,2.059699 -4.71714,5.793785 8.91184,6.596778 11.49544,6.291935 3.71984,-0.43891 7.02529,-0.131103 10.72941,0.161219 m -24.84705,-7.341176 v 0.564705 h 1.69411 l -1.69411,-0.564705 m -44.80001,1.505885 -0.18823,0.376465 0.18823,-0.376465 m 0.75295,1.317644 0.5647,4.517647 h 0.56471 l -1.12941,-4.517647 m -60.42354,3.952941 v 58.164703 h 0.56471 V 72.84706 l -0.56471,-17.505883 m 129.50588,1.505885 0.18826,0.376465 -0.18826,-0.376465 m -67.95293,0.752939 v 5.082353 h 0.5647 l -0.5647,-5.082353 m 67.7647,1.129412 v 26.541176 h 0.56471 c 0,-7.490737 2.32069,-19.665071 -0.56471,-26.541176 m -244.329411,5.458826 0.188233,0.376465 -0.188233,-0.376465 m 176.000001,0.188232 v 2.258824 h 0.56471 l -0.56471,-2.258824 m -176.564707,1.505886 0.188233,0.376465 -0.188233,-0.376465 m -0.752942,1.317644 -0.564706,3.952941 h 0.564706 v -3.952941 m 176.752949,0 c -1.78787,7.52716 -7.6584,13.436624 -14.68236,16.376471 v 0.564706 c 5.70924,-1.647881 16.77644,-9.840097 14.68236,-16.941177 M 59.294119,71.717648 v 2.258824 h 0.564706 l -0.564706,-2.258824 m -0.564706,2.82353 v 2.823529 h 0.564706 l -0.564706,-2.823529 m -0.564706,3.388235 v 4.517647 h 0.564706 l -0.564706,-4.517647 m 163.011763,6.399997 0.37648,0.188241 -0.37648,-0.188241 m -2.63529,0.376474 v 0.564705 h 1.69412 l -1.69412,-0.564705 M 57.600001,85.270589 v 6.211765 h 0.564706 l -0.564706,-6.211765 m 147.388239,0 v 0.564706 h 3.95294 l -3.95294,-0.564706 m 10.16471,0 v 0.564706 h 2.82353 l -2.82353,-0.564706 m 90.91764,6.211765 v 6.776471 h 0.56471 l -0.56471,-6.776471 m -247.905883,2.82353 v 3.952941 h 0.564706 l -0.564706,-3.952941 m 0.564706,4.517647 v 2.823529 h 0.564706 L 58.729413,98.823531 M 306.07059,99.388237 V 105.6 h 0.56471 l -0.56471,-6.211763 m -246.776471,2.823533 3.388235,11.85882 h 0.564706 l -3.952941,-11.85882 m 246.776471,11.29411 v 6.21177 h 0.56471 l -0.56471,-6.21177 m -242.82353,1.12942 2.82353,6.21176 h 0.564705 L 63.24706,114.6353 M 176.75294,115.2 v 3.38824 h 0.56471 L 176.75294,115.2 m -30.49411,2.82353 -0.56471,1.12941 0.56471,-1.12941 m 1.12941,0 0.5647,0.56471 -0.5647,-0.56471 m 1.12941,1.12941 0.56471,0.56471 -0.56471,-0.56471 m 28.23529,0 0.56471,0.56471 -0.56471,-0.56471 m -33.31764,1.12941 0.5647,0.56471 -0.5647,-0.56471 m 5.64706,0 c 1.6455,3.68023 -1.28043,5.51429 -3.95512,7.83182 -5.74994,4.98213 -12.09921,9.84325 -19.19783,12.72112 -19.35934,7.84854 -47.321412,2.60378 -57.599997,-17.72941 h -0.564706 c 1.115263,5.84396 6.047737,11.20439 10.165137,15.23878 15.052166,14.74873 38.131536,18.09147 57.034866,9.16733 6.38421,-3.01396 12.92283,-7.17251 17.97255,-12.14423 2.2055,-2.17144 4.608,-5.56579 3.38039,-8.82091 -1.00511,-2.66515 -5.04156,-4.56993 -7.23529,-6.2645 m -82.447065,1.12942 1.129412,1.12941 -1.129412,-1.12941 m 75.105885,0 0.56471,0.5647 -0.56471,-0.5647 m -1.69412,1.12941 0.56471,0.5647 -0.56471,-0.5647 m 11.29412,0.5647 -1.69412,1.69412 1.69412,-1.69412 m -12.98824,0.56471 0.56471,0.56471 -0.56471,-0.56471 m 38.58825,0.37646 0.18822,0.37649 -0.18822,-0.37649 m 129.31763,0 0.18826,0.37649 -0.18826,-0.37649 m -170.72941,1.31766 0.56471,0.5647 -0.56471,-0.5647 m -65.505879,0.5647 -0.564706,0.56471 0.564706,-0.56471 m 64.376469,0 0.56471,0.56471 -0.56471,-0.56471 m -1.12941,0.56471 -7.34118,3.38823 v 0.56471 l 7.90589,-3.38823 -0.56471,-0.56471 m 43.48235,0.56471 0.56471,0.5647 -0.56471,-0.5647 m 129.31765,0 -4.51764,4.51764 v 0.56471 c 2.42867,-0.72344 5.28529,-2.15884 4.51764,-5.08235 m -203.85882,2.25882 -0.56471,0.5647 0.56471,-0.5647 m 74.54117,0 c -0.64582,4.17336 -4.19331,5.35246 -7.90588,6.21176 v 0.56471 c 3.40359,-0.50265 9.68469,-2.17789 7.90588,-6.77647 m -52.14117,1.31765 0.37646,0.18823 -0.37646,-0.18823 m -2.6353,0.37647 v 0.5647 h 1.69412 l -1.69412,-0.5647 m -14.68235,0.5647 v 0.56471 h 2.25882 l -2.25882,-0.56471 m 11.85882,0 v 0.56471 h 2.25883 l -2.25883,-0.56471 m -8.47058,0.56471 v 0.5647 h 7.90588 l -7.90588,-0.5647 m 189.55295,0.18824 0.37645,0.18822 -0.37645,-0.18822 m -1.69412,0.5647 0.37645,0.18824 -0.37645,-0.18824 m -2.6353,0.37647 v 0.56471 h 1.69412 l -1.69412,-0.56471 m -2.25883,0.56471 V 134.4 h 1.69412 l -1.69412,-0.5647 m -3.38823,0.5647 v 0.56471 h 2.82353 L 290.25883,134.4 m -3.38824,0.56471 v 0.5647 h 2.82353 l -2.82353,-0.5647 m 51.38824,0 v 0.5647 h 2.82353 l -2.82353,-0.5647 m -55.34118,0.5647 v 0.56471 h 3.38824 l -3.38824,-0.56471 m 58.72942,0 v 0.56471 h 3.38823 l -3.38823,-0.56471 m -175.05883,0.56471 v 0.56471 h 1.69412 l -1.69412,-0.56471 m 38.96471,0 v 0.56471 h 2.25882 l -2.25882,-0.56471 m 74.54117,0 v 6.21176 h 6.21177 v 0.56471 c -5.44738,4.78583 6.80101,7.32725 9.6,7.34075 16.12459,0.0777 33.08572,1.45817 49.12941,-0.0954 2.85269,-0.27625 6.28173,-0.75156 7.98564,-3.35164 2.4618,-3.75659 -1.27727,-7.98085 -5.16211,-7.84662 -0.0363,-1.69039 0.0305,-2.45398 -1.69412,-2.82353 v 0.56471 l 1.12941,5.64705 H 325.8353 l -45.17647,-0.5647 1.12941,-5.08235 -1.69412,-0.56471 m -116.32941,0.56471 v 0.5647 h 2.25882 l -2.25882,-0.5647 m 44.61176,0 v 0.5647 l 3.38824,0.56471 -3.38824,-1.12941 M 163.2,137.78824 v 4.51764 h 6.77647 v 0.56471 c -5.64297,3.70499 5.033,7.2614 7.90589,7.3329 10.78335,0.26833 23.29753,1.53039 33.88235,-0.6122 7.22933,-1.46338 6.38732,-7.89511 0.56471,-10.67364 l -0.56471,2.82353 h -48 z"
       id="path1" />
  </g>
</svg>
