<?xml version="1.0" encoding="UTF-8" standalone="no"?>
<!-- Created with Inkscape (http://www.inkscape.org/) -->

<svg
   version="1.1"
   id="svg1"
   width="229.75999"
   height="75.519997"
   viewBox="0 0 229.75999 75.519997"
   sodipodi:docname="csi-piemonte.svg"
   inkscape:version="1.4.3 (0d15f75, 2025-12-25)"
   xmlns:inkscape="http://www.inkscape.org/namespaces/inkscape"
   xmlns:sodipodi="http://sodipodi.sourceforge.net/DTD/sodipodi-0.dtd"
   xmlns="http://www.w3.org/2000/svg"
   xmlns:svg="http://www.w3.org/2000/svg">
  <defs
     id="defs1" />
  <sodipodi:namedview
     id="namedview1"
     pagecolor="#ffffff"
     bordercolor="#000000"
     borderopacity="0.25"
     inkscape:showpageshadow="2"
     inkscape:pageopacity="0.0"
     inkscape:pagecheckerboard="0"
     inkscape:deskcolor="#d1d1d1"
     inkscape:zoom="1.56"
     inkscape:cx="114.74359"
     inkscape:cy="37.5"
     inkscape:current-layer="g1" />
  <g
     inkscape:groupmode="layer"
     inkscape:label="Image"
     id="g1">
    <g
       id="g2">
      <path
         style="fill:#a6d1e8"
         d="m 89.788496,74.03887 c -0.13532,-0.352637 0.182172,-0.851467 0.981978,-1.542844 l 1.181953,-1.021718 -0.680166,-1.417156 c -0.787036,-1.639823 -2.632263,-6.58908 -2.632263,-7.06024 0,-0.175684 0.378367,-0.27386 0.840817,-0.21817 0.751303,0.09048 0.96013,0.434664 1.961552,3.233036 0.616405,1.722479 1.181112,3.071405 1.254904,2.997613 0.07379,-0.07379 0.6148,-1.483093 1.20224,-3.131781 0.948797,-2.662859 1.161455,-3.00892 1.90428,-3.098868 0.530691,-0.06426 0.834827,0.05265 0.83243,0.32 -0.0065,0.724017 -3.168419,8.699745 -3.78257,9.541255 -0.321121,0.44 -0.896561,0.942146 -1.278755,1.115881 -0.382194,0.173734 -0.694898,0.425734 -0.694898,0.56 0,0.467214 -0.892871,0.240616 -1.091502,-0.277008 z M 140.8,74.239997 c 0,-0.176 -0.26569,-0.32 -0.59041,-0.32 -0.32472,0 -0.82872,-0.263339 -1.12,-0.585197 -0.62002,-0.685113 -0.71173,-2.884995 -0.12959,-3.108384 0.43608,-0.167342 0.56994,-3.123142 0.16,-3.533086 -0.50523,-0.505222 -0.24301,-2.690322 0.4,-3.333333 0.55873,-0.55873 1.06666,-0.64 4,-0.64 2.80393,0 3.36,0.0811 3.36,0.490043 0,0.269524 -0.216,0.57293 -0.48,0.674237 -0.31077,0.119251 -0.48,0.615228 -0.48,1.406731 0,1.73216 -1.0991,2.548989 -3.42982,2.548989 -2.33559,0 -2.11135,0.673923 0.39072,1.174265 3.06087,0.612083 3.3591,0.831912 3.3591,2.476017 0,1.454933 -0.58689,2.429718 -1.46286,2.429718 -0.25143,0 -0.45714,0.144 -0.45714,0.32 0,0.176 -0.792,0.32 -1.76,0.32 -0.968,0 -1.76,-0.144 -1.76,-0.32 z m 3.77706,-2.596587 c 0.0828,-0.713656 -0.0524,-0.866477 -0.92,-1.04 -2.68536,-0.537073 -3.79607,-0.04961 -3.31812,1.456257 0.1673,0.527126 0.46023,0.596724 2.16725,0.514919 1.86193,-0.08923 1.97931,-0.142009 2.07087,-0.931176 z m -0.45129,-5.803413 c 0.54459,-0.868978 -0.14178,-1.662338 -1.54051,-1.780648 -1.79339,-0.151692 -2.77004,1.067876 -1.7067,2.131209 0.57376,0.573766 2.8199,0.331279 3.24721,-0.350561 z m 31.10846,8.213828 C 175.1274,73.77543 175.04,71.178911 175.04,68.283782 c 0,-4.589508 0.0674,-5.289743 0.52627,-5.465822 0.30471,-0.116927 0.67945,0.0075 0.8901,0.295611 0.32153,0.439724 0.4666,0.44371 1.248,0.03429 1.40959,-0.738555 3.38413,-0.439302 4.18233,0.633853 0.9665,1.299433 0.96183,4.905982 -0.008,6.193678 -0.6319,0.838992 -0.83499,0.902759 -2.8,0.879183 L 176.96,70.829157 v 1.86542 c 0,1.754207 -0.0457,1.86542 -0.76577,1.86542 -0.42117,0 -0.85317,-0.227778 -0.96,-0.506172 z m 5.32087,-5.056958 c 0.1293,-0.196279 0.2373,-1.162552 0.24,-2.147274 0.004,-1.383626 -0.13942,-1.921008 -0.6303,-2.36525 -0.57714,-0.522306 -0.74532,-0.533035 -1.84,-0.117391 l -1.2048,0.457455 -0.0936,2.286507 -0.0936,2.286506 1.05359,0.125787 c 1.27881,0.152676 2.25285,-0.04691 2.56869,-0.52634 z m -82.019718,1.107745 c -0.859509,-0.859509 -0.935384,-1.121079 -0.935384,-3.224615 0,-2.103536 0.07587,-2.365106 0.935384,-3.224615 0.830138,-0.830138 1.155824,-0.935385 2.894548,-0.935385 1.63548,0 2.08469,0.125534 2.71898,0.759822 1.45495,1.454953 1.45748,5.342872 0.004,6.795931 -0.63923,0.639225 -1.08475,0.764247 -2.72341,0.764247 -1.738724,0 -2.06441,-0.105247 -2.894548,-0.935385 z m 4.113418,-0.84276 c 0.59797,-0.418839 0.7112,-0.798041 0.7112,-2.381855 0,-1.583814 -0.11323,-1.963016 -0.7112,-2.381855 -0.876,-0.613572 -1.85642,-0.637123 -2.64097,-0.06344 -0.470128,0.343763 -0.594499,0.855332 -0.594499,2.445295 0,1.589963 0.124371,2.101532 0.594499,2.445295 0.78455,0.573683 1.76497,0.550132 2.64097,-0.06344 z m 4.9352,1.394145 c -0.25553,-0.255531 -0.384,-1.654724 -0.384,-4.182256 0,-3.755897 0.008,-3.797116 0.72,-3.696 0.68242,0.09692 0.72835,0.277611 0.88,3.462256 0.15009,3.151982 0.20323,3.366155 0.85834,3.459418 0.38409,0.05468 1.13469,-0.12623 1.66802,-0.402022 0.96151,-0.497215 0.97045,-0.52636 1.06166,-3.459418 0.0868,-2.791558 0.13249,-2.963731 0.81198,-3.060234 0.71515,-0.101568 0.72,-0.07412 0.72,4.08 0,3.968923 -0.0327,4.182256 -0.64,4.182256 -0.36035,0 -0.64,-0.213333 -0.64,-0.488218 0,-0.437623 -0.0978,-0.437623 -0.94411,0 -1.1258,0.582172 -3.57194,0.644171 -4.11189,0.104218 z m 8.80283,0.184165 C 116.26207,70.715404 116.16,68.904811 116.16,66.816621 c 0,-3.228029 0.0788,-3.826959 0.52627,-3.998661 0.3052,-0.117113 0.6798,0.008 0.89173,0.29784 0.31584,0.431931 0.47248,0.44053 1.15373,0.06333 1.22441,-0.677942 2.54827,-0.590388 2.54827,0.16853 0,0.452903 -0.33412,0.720175 -1.2,0.959916 -1.92324,0.532496 -1.96573,0.608643 -2.06653,3.702978 -0.085,2.608647 -0.15284,2.877938 -0.74664,2.962938 -0.35924,0.05142 -0.75524,-0.0086 -0.88,-0.133333 z m 10.1836,-0.428633 c -1.35707,-1.499545 -1.23292,-5.996405 0.19752,-7.154707 0.59141,-0.478893 1.12318,-0.575328 2.58819,-0.469359 L 131.2,62.920836 v -1.70042 c 0,-1.678905 0.0122,-1.700419 0.96738,-1.700419 h 0.96738 l -0.0874,5.68 c -0.0864,5.616572 -0.0954,5.681142 -0.80738,5.782256 -0.48851,0.06938 -0.72,-0.06187 -0.72,-0.408217 0,-0.46227 -0.0892,-0.464372 -0.94411,-0.02226 -1.35351,0.699927 -3.30701,0.631526 -4.00546,-0.14025 z m 3.51984,-1.115204 1.10973,-0.463671 v -2.256328 c 0,-1.701128 -0.10827,-2.256329 -0.44,-2.256329 -0.242,0 -0.86643,-0.08529 -1.38762,-0.189524 -1.41661,-0.283321 -2.01238,0.490083 -2.01238,2.612381 0,1.310476 0.15719,1.894336 0.64,2.377143 0.76387,0.763872 0.69749,0.758272 2.09027,0.176328 z m 5.08864,1.324106 c -0.0885,-0.230761 -0.12003,-2.066761 -0.07,-4.08 l 0.091,-3.660434 h 0.8 0.8 l 0.0896,4.08 0.0896,4.08 h -0.81961 c -0.45078,0 -0.89205,-0.188805 -0.9806,-0.419566 z m 13.05136,-3.63824 0.0897,-4.102194 h 0.8 0.8 v 4 4 l -0.88973,0.102194 -0.88973,0.102193 z m 4.90787,3.346604 c -0.35346,-0.504635 -0.49814,-1.48054 -0.49814,-3.36 0,-2.435465 -0.0515,-2.648798 -0.64,-2.648798 -0.42667,0 -0.64,-0.213333 -0.64,-0.64 0,-0.426666 0.21333,-0.64 0.64,-0.64 0.53507,0 0.64,-0.213333 0.64,-1.301255 0,-1.230764 0.0477,-1.29577 0.88,-1.2 0.73326,0.08437 0.89672,0.274669 0.98027,1.141255 0.0911,0.945027 0.19758,1.04 1.16576,1.04 0.67878,0 1.13637,0.184694 1.26077,0.508878 0.29973,0.781101 -0.0599,1.091122 -1.26569,1.091122 H 154.56 v 2.539725 2.539725 l 1.04,0.100275 c 0.7971,0.07685 1.06388,0.268435 1.14225,0.820275 0.0944,0.664512 -0.0214,0.72 -1.50185,0.72 -1.29489,0 -1.70014,-0.137099 -2.10226,-0.711202 z m 5.31322,-0.09618 c -0.88131,-1.120414 -0.90507,-2.818917 -0.0514,-3.672623 0.50871,-0.508718 1.06666,-0.64 2.72,-0.64 2.00107,0 2.08,-0.03012 2.08,-0.793903 0,-0.983403 -0.97841,-1.291006 -3.17818,-0.999196 -1.35704,0.180018 -1.56392,0.129091 -1.7076,-0.420367 -0.21608,-0.826264 0.28792,-0.986534 3.10235,-0.986534 3.31129,0 3.54343,0.310955 3.54343,4.746609 0,3.033228 -0.0629,3.412339 -0.58268,3.514519 -0.38139,0.07497 -0.64417,-0.120599 -0.76067,-0.566089 -0.16805,-0.642628 -0.21127,-0.650509 -0.77408,-0.14117 -0.32785,0.2967 -1.29443,0.606557 -2.14796,0.68857 -1.39826,0.134355 -1.62031,0.06211 -2.24325,-0.729816 z M 162.64,69.064472 c 0.309,-0.158359 0.56,-0.648012 0.56,-1.092457 0,-0.77062 -0.0727,-0.80128 -1.68,-0.708741 -1.58839,0.09145 -1.68576,0.14718 -1.78563,1.022001 -0.0599,0.525103 0.0773,1.038334 0.31734,1.186685 0.44063,0.272324 1.6259,0.08572 2.58829,-0.407488 z m 5.04,1.335525 c -0.58667,-0.586667 -0.64,-1.066667 -0.64,-5.76 v -5.12 h 0.96 0.96 v 4.96 4.96 h 0.76576 c 0.76054,0 1.32099,0.751301 0.97639,1.308877 -0.33778,0.546542 -2.3602,0.313074 -3.02215,-0.348877 z m 16.96,0 C 184.19639,69.956391 184,69.33333 184,68.369593 c 0,-1.978392 0.63578,-2.449596 3.30519,-2.449596 1.87507,0 2.13481,-0.0731 2.13481,-0.600818 0,-1.043051 -0.80462,-1.389527 -2.95061,-1.270569 -1.83319,0.10162 -2.00939,0.05527 -2.00939,-0.528613 0,-0.577723 0.24469,-0.649155 2.51467,-0.734085 1.86894,-0.06993 2.7112,0.03468 3.28,0.407377 0.73352,0.48062 0.76533,0.654105 0.76533,4.174085 0,3.45929 -0.0372,3.672623 -0.64,3.672623 -0.35556,0 -0.64,-0.213333 -0.64,-0.48 0,-0.589149 -0.2494,-0.589149 -1.28,0 -1.19001,0.680267 -3.07842,0.601583 -3.84,-0.16 z m 4.08,-1.354186 c 0.43951,-0.216072 0.72,-0.644545 0.72,-1.099888 0,-0.689026 -0.13165,-0.745926 -1.72577,-0.745926 -1.27847,0 -1.7761,0.131192 -1.92,0.506172 -0.29177,0.760351 -0.24285,0.999494 0.31948,1.561833 0.52303,0.523026 1.20946,0.464507 2.60629,-0.222191 z m 4.78683,1.794351 C 193.38207,70.715404 193.28,68.83733 193.28,66.666664 c 0,-3.753659 0.0318,-3.946667 0.65004,-3.946667 0.35752,0 0.73156,0.212438 0.8312,0.472084 0.15967,0.416112 0.28939,0.416112 1.09406,0 1.33638,-0.691066 2.5447,-0.620165 2.5447,0.149316 0,0.467893 -0.3755,0.727174 -1.52,1.049571 l -1.52,0.42817 -0.16,3.030429 c -0.14493,2.744873 -0.22155,3.03924 -0.81317,3.123928 -0.35925,0.05142 -0.75525,-0.0086 -0.88,-0.133333 z m 7.34276,-0.385362 c -0.40709,-0.449826 -0.52959,-1.227081 -0.52959,-3.36 0,-2.56147 -0.0492,-2.774803 -0.64,-2.774803 -0.42667,0 -0.64,-0.213333 -0.64,-0.64 0,-0.426666 0.21333,-0.64 0.64,-0.64 0.53333,0 0.64,-0.213333 0.64,-1.28 0,-1.152 0.08,-1.28 0.8,-1.28 0.70095,0 0.8,0.138667 0.8,1.12 0,1.093334 0.0305,1.12 1.28,1.12 1.14355,0 1.28,0.08322 1.28,0.780683 0,0.671133 -0.1684,0.79462 -1.2,0.88 l -1.2,0.09932 -0.0989,1.742897 c -0.13036,2.297136 0.12096,3.217103 0.87883,3.217103 1.03122,0 1.62008,0.36138 1.62008,0.994236 0,0.511 -0.24255,0.605764 -1.55041,0.605764 -1.09561,0 -1.70575,-0.171662 -2.08,-0.585197 z m 5.13724,0.385362 C 205.86207,70.715404 205.76,68.83733 205.76,66.666664 v -3.946667 h 0.8 c 0.49777,0 0.8,0.181334 0.8,0.48 0,0.589149 0.24939,0.589149 1.28,0 1.17558,-0.672027 3.30422,-0.608821 3.96165,0.117635 0.45146,0.498854 0.52577,1.173218 0.4496,4.08 -0.0874,3.335805 -0.12156,3.486668 -0.81126,3.584621 -0.69969,0.09937 -0.72012,0.02268 -0.72436,-2.72 -0.007,-4.468626 -0.29755,-4.870916 -2.69348,-3.728374 l -1.11956,0.533881 -0.0913,2.906119 c -0.0831,2.646434 -0.14966,2.914473 -0.74446,2.999616 -0.35925,0.05142 -0.75525,-0.0086 -0.88,-0.133333 z m 10.49316,-0.179628 c -1.40884,-0.823468 -1.99677,-2.712074 -1.59132,-5.111885 0.35139,-2.079875 1.32323,-2.828652 3.67132,-2.828652 1.64274,0 2.07255,0.123456 2.73455,0.785455 0.89432,0.894318 1.05479,2.563884 0.34034,3.540952 -0.3462,0.473452 -0.95066,0.637296 -2.72,0.737272 -1.25119,0.0707 -2.27489,0.256293 -2.27489,0.412432 0,0.156139 0.30634,0.590226 0.68075,0.964638 0.58948,0.589478 0.93519,0.657678 2.5785,0.508668 1.80552,-0.163719 1.89297,-0.138484 1.79925,0.51925 -0.089,0.624397 -0.31538,0.698818 -2.3385,0.76864 -1.27599,0.04404 -2.51543,-0.08368 -2.88,-0.29677 z m 3.90097,-4.944032 c 0.55263,-1.440124 -1.87468,-2.302786 -3.0821,-1.095372 -1.1722,1.1722 -0.86561,1.618867 1.11118,1.618867 1.34354,0 1.81845,-0.12614 1.97092,-0.523495 z m 3.61903,1.185751 c 0,-3.968922 0.0326,-4.182256 0.64,-4.182256 0.35556,0 0.64,0.213334 0.64,0.48 0,0.589149 0.2494,0.589149 1.28,0 0.44,-0.251527 1.268,-0.462424 1.84,-0.46866 0.81025,-0.0088 1.04,0.122182 1.04,0.593047 0,0.44023 -0.31194,0.662908 -1.1485,0.819848 -2.58197,0.484381 -2.65874,0.590685 -2.7601,3.821937 -0.0861,2.745961 -0.13287,2.919719 -0.8114,3.016084 -0.71515,0.101569 -0.72,0.07412 -0.72,-4.08 z M 38.288825,68.979952 c -0.853146,-0.229267 -1.926227,-0.791901 -2.384624,-1.250298 -1.501284,-1.501285 -0.937254,-2.136465 5.317299,-5.98806 3.045422,-1.875391 5.969054,-3.729136 6.496961,-4.119434 1.439155,-1.064013 1.139206,-1.863989 -1.268134,-3.382162 -4.859083,-3.064351 -9.397706,-6.571111 -12.387882,-9.571479 -5.992841,-6.013266 -6.136319,-8.395965 -0.820679,-13.628749 2.758872,-2.715871 5.523759,-4.847628 11.078233,-8.541439 4.179544,-2.779462 13.060813,-8.130544 15.784944,-9.510638 4.388082,-2.223081 8.683609,-0.96287 11.17731,3.279172 0.748178,1.272728 0.877745,1.85068 0.877745,3.915312 0,2.056841 -0.120663,2.599486 -0.8,3.597733 -0.468269,0.688095 -4.153124,3.711308 -8.886367,7.290756 -7.029916,5.316275 -8.713632,6.752863 -8.713632,7.434686 0,0.08109 1.908,1.806423 4.24,3.834082 8.900666,7.739074 10.629082,10.268246 9.07302,13.276455 -1.278622,2.471858 -6.72913,6.50427 -13.695824,10.132487 -6.815942,3.549707 -10.760648,4.394571 -15.08837,3.231576 z M 26.796022,61.005142 C 21.276996,58.679784 11.769137,51.532228 5.5802326,45.05612 2.5747238,41.911137 1.0897276,39.768636 0.75484385,38.094218 0.64767973,37.558397 0.43399999,37.119998 0.27999999,37.119998 0.126,37.119998 0,36.615998 0,35.999998 c 0,-0.616 0.144,-1.12 0.31999999,-1.12 0.176,0 0.31999999,-0.303412 0.31999999,-0.67425 0,-0.370838 0.45472812,-1.627047 1.01050692,-2.791577 C 3.6983151,27.123375 15.231462,16.646453 25.196149,10.024878 32.943432,4.8767765 41.280091,1.1775731 46.159999,0.72264482 c 1.012,-0.0943435 1.84,-0.29553363 1.84,-0.44708921 0,-0.15155559 0.432,-0.27555561 0.96,-0.27555561 0.528,0 0.96,0.14399999 0.96,0.31999999 0,0.17599999 0.468,0.32598878 1.04,0.33330842 2.62651,0.0336103 6.660378,2.39143759 7.490532,4.37827399 1.1283,2.7004029 -0.40218,4.4753699 -7.250532,8.4087696 -15.734888,9.037446 -29.957066,19.332665 -31.348986,22.693057 -0.749905,1.810432 0.08644,2.663274 12.414232,12.659095 3.225886,2.615665 6.213886,5.268823 6.64,5.895907 1.579627,2.32463 0.653673,4.395703 -2.680018,5.994372 -1.476735,0.708167 -2.375109,0.896671 -4.705228,0.987288 -2.485328,0.09665 -3.132696,0.0055 -4.723977,-0.664929 z m 108.359698,-0.04514 c -0.30635,-0.798329 0.13669,-1.44 0.99423,-1.44 0.68672,0 0.81005,0.14616 0.81005,0.96 0,0.813841 -0.12333,0.96 -0.81005,0.96 -0.44552,0 -0.89293,-0.216 -0.99423,-0.48 z m 13.00428,-0.48 c 0,-0.904861 0.0857,-0.992647 0.88,-0.901255 0.69833,0.08035 0.88,0.266408 0.88,0.901255 0,0.634848 -0.18167,0.820903 -0.88,0.901255 -0.79429,0.09139 -0.88,0.0036 -0.88,-0.901255 z M 98.879998,53.779839 c -4.156691,-0.601766 -6.448621,-1.653485 -8.463513,-3.88373 -2.695473,-2.983566 -3.769842,-7.217415 -3.769842,-14.856111 0,-11.685504 2.929393,-16.858887 10.414815,-18.392826 2.59606,-0.531995 10.386322,-0.453181 13.465422,0.136229 1.38979,0.266037 2.56671,0.523523 2.61538,0.572192 0.0487,0.04867 -0.0591,1.244775 -0.23954,2.658014 l -0.32803,2.569525 -6.08517,-0.130886 c -6.774484,-0.145712 -7.928201,0.04422 -9.695765,1.59616 -1.86002,1.63312 -2.233757,3.472157 -2.233757,10.991592 0,7.173309 0.383486,9.254797 1.988267,10.791914 1.846291,1.768447 2.801739,1.938217 10.171735,1.807382 l 6.72,-0.119296 0.26338,2.188295 c 0.14485,1.203563 0.19189,2.374574 0.10453,2.602247 -0.37631,0.98063 -11.04796,2.031001 -14.927912,1.469299 z M 125.44,53.748729 c -2.7089,-0.212672 -5.78322,-0.64935 -7.946,-1.128651 -0.80505,-0.17841 -0.79121,0.128705 -0.18071,-4.010653 l 0.19329,-1.310573 7.08671,0.22741 c 10.03038,0.321871 10.76671,0.04202 10.76671,-4.092011 0,-3.325814 -0.0431,-3.355203 -8.98283,-6.132433 -2.91178,-0.90457 -5.15261,-1.803342 -5.96703,-2.393309 -2.82617,-2.047269 -3.93014,-4.560977 -3.93014,-8.948835 0,-6.440724 1.94027,-8.709722 8.20307,-9.592855 3.8814,-0.547325 14.79817,0.07634 16.47122,0.940985 0.40217,0.207842 0.48552,0.634957 0.38229,1.958993 -0.2629,3.372169 0.65033,3.032332 -8.06409,3.000866 -7.29828,-0.02635 -7.70453,0.0041 -8.56704,0.642565 -1.14127,0.844789 -1.6169,2.904149 -1.10594,4.788506 0.46521,1.715638 1.46025,2.248588 7.72049,4.135148 5.65493,1.704146 7.61718,2.657144 9.14405,4.44095 1.92913,2.253755 2.72647,6.149828 2.06327,10.081776 -0.708,4.197451 -2.87034,6.312009 -7.2047,7.045468 -2.86164,0.484245 -6.66463,0.614997 -10.08262,0.346653 z M 146.56,34.879998 V 16.619039 l 3.6,0.09048 3.6,0.09048 v 18.079999 18.08 l -3.6,0.09048 -3.6,0.09048 z m -76.117216,13.59356 c -4.898468,-2.800254 -7.159771,-7.004816 -6.162946,-11.459097 0.779323,-3.482383 3.682096,-6.614462 6.130202,-6.614462 1.660005,0 2.683967,1.146247 4.938158,5.527888 l 1.844062,3.584441 -0.141505,2.563835 c -0.219157,3.970741 -2.187004,7.210053 -4.373912,7.19998 -0.460264,-0.0021 -1.465591,-0.363283 -2.234059,-0.802585 z"
         id="path8" />
      <path
         style="fill:#4c9fd1"
         d="m 90.12453,74.080655 c -0.324041,-0.844436 -0.248193,-1.063673 0.443993,-1.283364 0.903001,-0.286601 1.829206,-1.732597 1.313811,-2.051129 -0.565824,-0.349698 -3.222331,-7.495812 -2.910236,-7.828655 0.577984,-0.616409 1.224708,0.184188 2.081166,2.576327 0.493505,1.37839 1.021759,2.853612 1.173899,3.278272 0.381442,1.064699 0.669646,0.633193 1.691202,-2.532109 0.949774,-2.942883 1.442828,-3.710809 2.196797,-3.421485 0.401621,0.154117 0.192543,0.948371 -1.218706,4.629685 -1.955744,5.101654 -2.24658,5.639133 -3.361354,6.211947 -0.448307,0.230358 -0.903065,0.539136 -1.010572,0.686173 -0.107507,0.147038 -0.287507,0.02749 -0.4,-0.265662 z M 139.465,73.58836 c -0.84686,-0.494154 -1.0552,-2.111464 -0.40069,-3.110383 0.63993,-0.976647 0.71867,-3.148664 0.15251,-4.20655 -0.50056,-0.935305 -0.14139,-2.467889 0.71972,-3.071032 0.98843,-0.692324 6.62346,-0.692662 6.62346,-3.98e-4 0,0.264 -0.22745,0.48 -0.50543,0.48 -0.3882,0 -0.45935,0.209759 -0.30678,0.904408 0.45552,2.074001 -1.25427,3.495302 -3.84144,3.193265 -0.70581,-0.0824 -1.14523,0.02207 -1.25088,0.297388 -0.20089,0.523528 0.76969,0.941367 2.80759,1.208672 1.82521,0.239408 2.77694,1.060666 2.77694,2.396267 0,1.693632 -0.92348,2.241399 -3.76,2.230269 -1.364,-0.0054 -2.72075,-0.15021 -3.015,-0.321906 z m 4.4444,-0.827283 c 0.8078,-0.216562 1.27906,-1.300616 0.78164,-1.798039 -0.5327,-0.532699 -3.62215,-0.918994 -4.11022,-0.51393 -0.60191,0.49954 -0.5195,1.781613 0.13918,2.165257 0.62768,0.365592 2.11734,0.434116 3.1894,0.146712 z m 0.4106,-6.84108 c 0.75538,-1.411446 -1.13819,-2.64307 -2.98441,-1.941136 -0.65201,0.247892 -0.85559,0.542919 -0.85559,1.239882 0,1.22404 0.17146,1.341254 1.96207,1.341254 1.2079,0 1.60847,-0.136513 1.87793,-0.64 z m 31.04,2.56 c 0,-4.436527 0.0822,-5.44 0.44576,-5.44 0.24517,0 0.52885,0.216512 0.63039,0.481139 0.15813,0.412064 0.33532,0.389266 1.23424,-0.158804 2.01219,-1.226829 4.09273,-0.576297 4.59822,1.437751 0.37004,1.47436 -0.0128,4.921262 -0.61332,5.521766 -0.59869,0.598691 -3.00612,0.76492 -4.29529,0.296584 -0.69178,-0.251309 -0.72,-0.191715 -0.72,1.52 0,1.56823 -0.0766,1.781564 -0.64,1.781564 -0.61491,0 -0.64,-0.213334 -0.64,-5.44 z m 5.12881,0.789383 c 0.22394,-0.26984 0.46366,-1.16984 0.5327,-2 0.2318,-2.787167 -1.16039,-3.943292 -3.33695,-2.771135 -1.02123,0.549967 -1.04456,0.610947 -1.04456,2.729886 0,1.993203 0.0579,2.178496 0.72,2.306031 1.57083,0.302556 2.74008,0.203605 3.12881,-0.264782 z m -81.334872,1.30375 c -2.254459,-1.273724 -2.021748,-6.54407 0.332001,-7.519025 1.543381,-0.639289 3.852731,-0.26332 4.743501,0.772256 0.60784,0.70666 0.73056,1.219592 0.73056,3.053636 0,2.977474 -0.72342,3.886798 -3.22578,4.054746 -1.13874,0.07643 -2.024733,-0.04774 -2.580282,-0.361613 z m 3.926882,-1.342315 c 0.25883,-0.31188 0.43918,-1.277217 0.43918,-2.350818 0,-2.24397 -0.46296,-2.88 -2.09633,-2.88 -1.736866,0 -2.223672,0.630489 -2.223672,2.88 0,1.277229 0.160185,2.034471 0.502857,2.377143 0.672945,0.672946 2.811445,0.65628 3.377965,-0.02632 z m 4.64877,1.223985 c -0.42315,-0.467576 -0.52959,-1.271554 -0.52959,-4 0,-3.201469 0.04,-3.414803 0.64,-3.414803 0.59216,0 0.64,0.213334 0.64,2.853828 0,1.569605 0.0874,3.081605 0.19423,3.36 0.28063,0.731307 2.11023,0.639286 3.12261,-0.157054 0.79171,-0.622757 0.84316,-0.827774 0.84316,-3.36 0,-2.48344 0.0506,-2.696774 0.64,-2.696774 0.60444,0 0.64,0.213334 0.64,3.84 0,3.626667 -0.0356,3.84 -0.64,3.84 -0.352,0 -0.64,-0.200477 -0.64,-0.445504 0,-0.351933 -0.24945,-0.318327 -1.18766,0.16 -1.50722,0.768424 -3.03815,0.776775 -3.72275,0.02031 z m 18.96619,-0.240584 C 126.0081,69.482217 125.92,69.097486 125.92,66.82651 c 0,-2.436741 0.0459,-2.601375 0.93855,-3.369236 0.7698,-0.662155 1.17256,-0.778603 2.24,-0.647646 0.7158,0.08782 1.55345,0.26298 1.86145,0.389253 0.49726,0.203869 0.56,0.01066 0.56,-1.724647 0,-1.748333 0.0682,-1.954237 0.64738,-1.954237 0.62871,0 0.64486,0.163044 0.56,5.653625 -0.0645,4.174714 -0.19202,5.688426 -0.48738,5.786666 -0.22,0.07317 -0.4,-0.09496 -0.4,-0.373624 0,-0.630965 -0.31679,-0.637081 -1.48342,-0.02864 -1.41072,0.735738 -2.76622,0.608435 -3.6608,-0.343809 z m 3.89484,-1.003213 c 0.87802,-0.518659 0.92938,-0.666897 0.92938,-2.682678 0,-2.344774 -0.16367,-2.514016 -2.44082,-2.523958 -1.37882,-0.006 -1.70641,0.52981 -1.75949,2.877982 -0.0367,1.624001 0.0696,2.10762 0.53845,2.450482 0.78593,0.574689 1.61603,0.537679 2.73248,-0.121828 z M 135.58,70.83333 c -0.121,-0.121 -0.22,-1.924 -0.22,-4.006666 0,-3.592464 0.0333,-3.786667 0.64985,-3.786667 0.62245,0 0.64606,0.164166 0.56,3.893856 -0.0834,3.61397 -0.32471,4.564621 -0.98985,3.899477 z m 13.12,0 c -0.121,-0.121 -0.22,-1.924 -0.22,-4.006666 0,-3.592464 0.0333,-3.786667 0.64985,-3.786667 0.62245,0 0.64606,0.164166 0.56,3.893856 -0.0834,3.61397 -0.32471,4.564621 -0.98985,3.899477 z m 4.80307,-0.36364 c -0.37588,-0.415336 -0.54152,-1.350099 -0.6096,-3.44 -0.0879,-2.699437 -0.13619,-2.87576 -0.81347,-2.971949 -0.396,-0.05624 -0.72,-0.298226 -0.72,-0.537744 0,-0.239518 0.324,-0.481503 0.72,-0.537743 0.58081,-0.08249 0.73942,-0.338008 0.82048,-1.321776 0.0776,-0.941827 0.22333,-1.196253 0.64,-1.117339 0.36848,0.06979 0.571,0.481753 0.63883,1.29952 0.0965,1.163697 0.13474,1.197338 1.36,1.197338 1.71223,0 1.76453,0.879666 0.0607,1.020683 l -1.2,0.09932 -0.0946,2.3496 c -0.10287,2.554621 0.19244,3.2504 1.37956,3.2504 0.70351,0 1.26879,0.699604 0.87967,1.088715 -0.43271,0.432718 -2.56593,0.168623 -3.06154,-0.379022 z m 5.53693,0.157814 c -0.67316,-0.339151 -0.81518,-0.663579 -0.89572,-2.046132 -0.12505,-2.146794 0.52595,-2.661375 3.36692,-2.661375 2.06848,0 2.28427,-0.167354 1.67754,-1.301037 -0.27883,-0.520996 -0.68402,-0.618963 -2.56,-0.618963 -1.67772,0 -2.22874,-0.108783 -2.22874,-0.44 0,-0.516219 1.37221,-0.84 3.56,-0.84 2.50231,0 2.84,0.551712 2.84,4.64 0,2.803938 -0.0811,3.36 -0.49005,3.36 -0.26952,0 -0.56542,-0.196448 -0.65756,-0.43655 -0.13573,-0.353698 -0.38959,-0.323332 -1.33762,0.16 -1.36549,0.696168 -2.16872,0.741313 -3.27477,0.184057 z m 3.39163,-1.383968 c 0.79822,-0.378779 1.08837,-0.724082 1.08837,-1.29527 0,-0.752167 -0.0684,-0.775549 -2,-0.683539 -1.81132,0.08628 -2.00987,0.164857 -2.10457,0.832883 -0.22377,1.578508 1.06932,2.069783 3.0162,1.145926 z m 5.47201,1.226791 C 167.43929,69.957222 167.36,69.114826 167.36,64.6948 c 0,-4.961469 0.0264,-5.174803 0.64,-5.174803 0.61117,0 0.64,0.213334 0.64,4.736 0,4.911616 0.14717,5.504 1.36746,5.504 0.398,0 0.56381,0.188203 0.49338,0.56 -0.15424,0.814193 -1.90471,0.915514 -2.5972,0.15033 z m 17.01181,-0.04206 C 184.31673,69.943456 184.16,69.506572 184.16,68.322474 c 0,-1.964348 0.59859,-2.402477 3.28241,-2.402477 2.03677,0 2.03993,-0.0014 1.93884,-0.88 -0.0989,-0.859661 -0.15487,-0.882173 -2.42125,-0.974019 -1.6786,-0.06803 -2.32,-0.212528 -2.32,-0.522678 0,-1.034642 4.28798,-1.158167 5.55684,-0.160077 0.81456,0.640736 0.84316,0.776373 0.84316,4 0,3.123441 -0.0409,3.336774 -0.64,3.336774 -0.352,0 -0.64,-0.20896 -0.64,-0.464355 0,-0.38181 -0.24176,-0.354618 -1.36,0.152972 -1.72386,0.782486 -2.53683,0.787072 -3.48455,0.01966 z M 188.72,69.123504 c 0.63218,-0.385452 1.04,-0.892893 1.04,-1.294073 0,-0.606396 -0.16237,-0.652239 -2,-0.564704 -1.81132,0.08628 -2.00987,0.164857 -2.10457,0.832883 -0.23122,1.631044 1.25568,2.128796 3.06457,1.025894 z m 12.3976,1.474313 c -0.50131,-0.366567 -0.62774,-0.968498 -0.73933,-3.52 -0.12035,-2.751702 -0.19838,-3.07782 -0.73644,-3.07782 -0.33101,0 -0.60183,-0.216 -0.60183,-0.48 0,-0.264 0.2793,-0.48 0.62068,-0.48 0.48624,0 0.64219,-0.259918 0.72,-1.2 0.0789,-0.953561 0.23075,-1.2 0.73932,-1.2 0.50856,0 0.66039,0.246439 0.73931,1.2 0.0966,1.166796 0.1342,1.2 1.36,1.2 0.90728,0 1.26069,0.134559 1.26069,0.48 0,0.346667 -0.35556,0.48 -1.28,0.48 h -1.28 v 2.685764 c 0,2.820127 0.13441,3.074236 1.62617,3.074236 0.40049,0 0.61383,0.222429 0.61383,0.64 0,0.527981 -0.21334,0.64 -1.21884,0.64 -0.67036,0 -1.49096,-0.198981 -1.82356,-0.44218 z m 15.5287,0.03116 c -1.13967,-0.576647 -1.5962,-1.708611 -1.60159,-3.971132 -0.006,-2.655426 0.77508,-3.63298 3.08112,-3.854561 2.2009,-0.211479 3.53182,0.485749 3.81569,1.998926 0.14758,0.786637 0.0543,1.358619 -0.31302,1.919203 -0.47514,0.725145 -0.72859,0.798588 -2.75588,0.798588 -1.99173,0 -2.23263,0.06659 -2.23263,0.617143 0,1.163221 0.86749,1.622857 3.06286,1.622857 1.53816,0 2.05714,0.111681 2.05714,0.442678 0,0.861868 -3.65126,1.166252 -5.11369,0.426298 z m 3.67369,-5.348976 c 0,-1.060902 -0.0626,-1.125198 -1.18645,-1.218509 -1.66308,-0.138083 -2.49355,0.383378 -2.49355,1.565737 v 0.964711 l 1.84,-0.09597 1.84,-0.09597 z m -103.83999,1.44 c 0,-3.192338 0.0894,-4 0.44268,-4 0.24347,0 0.51936,0.293248 0.61309,0.651661 l 0.17041,0.651661 1.06691,-0.650465 c 1.40518,-0.8567 2.50691,-0.86235 2.50691,-0.01286 0,0.352 -0.21309,0.64 -0.47353,0.64 -0.26044,0 -1.05244,0.231636 -1.76,0.514746 L 117.76,65.029488 v 2.845254 c 0,2.631922 -0.048,2.845255 -0.64,2.845255 -0.60587,0 -0.64,-0.213333 -0.64,-4 z m 76.87015,0.106144 c 0.0663,-2.871867 0.20038,-3.930563 0.51099,-4.033714 0.23195,-0.07703 0.50028,0.162793 0.59732,0.533856 0.21454,0.820423 0.1673,0.819289 1.4538,0.03491 1.38782,-0.846155 2.48774,-0.846684 2.48774,-0.0012 0,0.412793 -0.21334,0.64 -0.60093,0.64 -0.3305,0 -1.1225,0.217933 -1.76,0.484295 L 194.88,64.968586 v 2.875705 c 0,2.863413 -0.003,2.875706 -0.80985,2.875706 H 193.2603 Z M 206.08,66.719997 c 0,-3.44666 0.0705,-4 0.50995,-4 0.28048,0 0.58397,0.283023 0.67443,0.628939 0.16351,0.625252 0.1717,0.625252 1.3973,0 1.4864,-0.758305 2.95239,-0.809148 3.63546,-0.126082 0.39579,0.395792 0.50285,1.247446 0.50285,4 0,3.263056 -0.0421,3.497143 -0.6288,3.497143 -0.57825,0 -0.63614,-0.263737 -0.72,-3.28 -0.0886,-3.185381 -0.11327,-3.283121 -0.85646,-3.388188 -0.4209,-0.0595 -1.3209,0.142367 -2,0.4486 L 207.36,65.057197 v 2.8314 c 0,2.618067 -0.0482,2.8314 -0.64,2.8314 -0.60587,0 -0.64,-0.213333 -0.64,-4 z m 17.99015,0.106144 c 0.0663,-2.871867 0.20038,-3.930563 0.51099,-4.033714 0.23162,-0.07692 0.49842,0.155664 0.59287,0.516857 0.1714,0.65544 0.17399,0.655506 1.33412,0.03371 0.63931,-0.34265 1.56174,-0.623001 2.04984,-0.623001 0.76645,0 0.83957,0.07666 0.5363,0.562274 -0.19313,0.309251 -1.02235,0.777251 -1.84271,1.04 l -1.49157,0.477726 -0.092,2.96 c -0.0907,2.917262 -0.10353,2.96 -0.88985,2.96 H 223.9803 Z M 38.820973,68.983328 c -2.339166,-0.567143 -3.300974,-1.268614 -3.300974,-2.407482 0,-1.176761 0.343604,-1.445108 7.291125,-5.694199 3.049789,-1.865246 5.685993,-3.654672 5.858231,-3.976503 0.503341,-0.940499 -0.102836,-1.627501 -3.008025,-3.409098 -5.867751,-3.598379 -11.533448,-8.271928 -13.966425,-11.520694 -3.070085,-4.0995 -2.862711,-6.082894 1.06874,-10.221781 3.669637,-3.863259 9.84021,-8.277459 20.676354,-14.791102 6.940179,-4.171764 8.354613,-4.801908 10.779168,-4.802217 2.308603,-2.95e-4 3.278152,0.314562 4.883226,1.585804 2.928821,2.319668 3.998761,7.110321 2.197242,9.838135 -0.572785,0.867297 -3.407235,3.229122 -8.479999,7.06602 -8.421115,6.369497 -9.223379,7.086453 -8.910001,7.962563 0.115524,0.322973 1.654835,1.811224 3.42069,3.307224 4.667497,3.954219 8.777971,8.165876 9.573443,9.809101 1.291705,2.668307 0.407873,4.503017 -3.767691,7.821184 -2.871241,2.28167 -6.975395,4.735619 -11.950839,7.145629 -5.545203,2.685989 -8.480572,3.229039 -12.364265,2.287416 z M 27.999999,61.329823 C 21.28706,59.097322 5.4580463,46.438638 1.92,40.473282 0.88948565,38.735774 0.79999998,38.379363 0.79999998,36.012447 c 0,-4.020643 0.79451792,-5.354039 6.68854112,-11.225014 C 18.843162,13.477214 30.811313,5.4168174 41.488403,1.8889605 44.339898,0.9467874 45.020886,0.84536232 48.639999,0.823815 c 4.542814,-0.0270468 5.897233,0.3854291 8.252422,2.5132012 1.675298,1.5135313 2.044827,2.5605269 1.483888,4.2043342 -0.52747,1.5457281 -1.617139,2.5522996 -4.665275,4.3095036 -13.243193,7.634498 -22.124854,13.452073 -28.608687,18.738971 -3.626887,2.957353 -5.160181,4.571692 -5.453973,5.742254 -0.4737,1.88737 0.0074,2.363436 13.471625,13.330537 4.962629,4.042242 5.835938,4.928501 6.238035,6.330531 0.524745,1.829676 -0.301064,3.00535 -3.073425,4.375525 -1.92352,0.950655 -2.792582,1.187637 -4.683204,1.27705 -1.376456,0.0651 -2.842441,-0.06349 -3.601406,-0.315899 z M 135.36,60.479997 c 0,-0.858681 0.10452,-0.989667 0.72,-0.902256 0.5274,0.0749 0.72,0.316258 0.72,0.902256 0,0.585998 -0.1926,0.827354 -0.72,0.902257 -0.61548,0.08741 -0.72,-0.04358 -0.72,-0.902257 z m 12.91572,0.48 c -0.28579,-0.744746 0.11699,-1.44 0.83423,-1.44 0.50894,0 0.65005,0.20839 0.65005,0.96 0,0.751611 -0.14111,0.96 -0.65005,0.96 -0.35752,0 -0.73293,-0.216 -0.83423,-0.48 z M 97.109371,53.310415 c -4.153325,-0.950696 -6.666608,-2.719633 -8.129468,-5.721808 -1.721638,-3.533256 -2.08051,-5.743909 -2.063082,-12.708609 0.01347,-5.382329 0.111196,-6.588778 0.711023,-8.77755 1.374409,-5.015229 3.542827,-7.462512 7.868528,-8.880447 1.972974,-0.646728 2.900495,-0.742002 7.223628,-0.742002 2.74086,0 6.15942,0.199308 7.64083,0.445472 l 2.68083,0.445472 -0.20083,1.921469 c -0.11046,1.056808 -0.20083,2.188213 -0.20083,2.514234 0,0.560128 -0.35677,0.588375 -6.48,0.513058 -6.02601,-0.07412 -6.582956,-0.03209 -7.949489,0.599957 -3.116815,1.441578 -3.964212,4.035589 -3.959404,12.120337 0.0052,8.816432 1.022125,11.299851 5.119114,12.501857 1.715529,0.503316 2.511909,0.52652 7.829779,0.228138 3.256,-0.182693 5.95264,-0.30504 5.99253,-0.271883 0.14576,0.121152 0.73507,4.76095 0.61939,4.876632 -0.0656,0.06562 -1.11214,0.34046 -2.32561,0.610762 -3.12313,0.69568 -11.891448,0.89384 -14.376939,0.324911 z M 123.52,53.412427 c -1.144,-0.146528 -3.0704,-0.432382 -4.2809,-0.635232 l -2.20089,-0.368817 0.22088,-2.437512 c 0.12149,-1.340631 0.26374,-2.480366 0.31612,-2.532743 0.0524,-0.05238 2.89197,0.05018 6.31022,0.227903 6.10238,0.317279 9.0699,0.147133 10.46609,-0.600086 1.19901,-0.64169 1.70718,-3.644094 0.97316,-5.749705 -0.4654,-1.335041 -1.53278,-1.854698 -7.64468,-3.721832 -7.26098,-2.218168 -8.61278,-3.040881 -10.13657,-6.169177 -0.80555,-1.653785 -0.88973,-2.155858 -0.89625,-5.345227 -0.008,-4.141368 0.55068,-6.000135 2.25501,-7.496563 1.96771,-1.727667 3.96473,-2.103449 11.17781,-2.10334 6.81186,1.02e-4 10.9406,0.488543 11.26451,1.332622 0.0986,0.256998 0.0524,1.338677 -0.1026,2.40373 l -0.28191,1.936461 -7.2,-0.02636 c -7.81472,-0.02861 -9.13396,0.179939 -9.82694,1.553449 -0.51996,1.030577 -0.51973,3.77051 4e-4,4.798579 0.59874,1.183449 2.42066,2.032204 7.58654,3.534236 5.24752,1.525773 7.13996,2.376379 8.65281,3.889233 1.65326,1.653257 2.30933,3.505725 2.47867,6.998705 0.32015,6.604017 -1.68421,9.351281 -7.59142,10.405164 -2.65126,0.473001 -8.2736,0.524893 -11.54006,0.106511 z M 146.56,35.039998 V 16.959999 h 3.52 3.52 v 18.079999 18.08 h -3.52 -3.52 z M 69.56961,47.736651 c -3.743579,-2.423618 -5.233279,-4.89628 -5.239458,-8.696653 -0.0047,-2.882645 0.83151,-4.960549 2.740655,-6.810382 2.427465,-2.352052 4.707194,-2.222391 6.337677,0.36046 1.926796,3.052243 3.467433,6.617872 3.628914,8.398707 0.213539,2.354948 -0.591431,4.961926 -2.062946,6.68106 -1.497889,1.749946 -2.780536,1.765801 -5.404842,0.06681 z"
         id="path7" />
      <path
         style="fill:#158ecc"
         d="m 89.919998,73.713909 c 0,-0.113348 0.529296,-0.663628 1.176214,-1.222844 l 1.176215,-1.016757 -0.680166,-1.417156 c -0.619768,-1.291313 -2.632263,-6.550637 -2.632263,-6.878985 0,-0.07599 0.265006,-0.13817 0.588902,-0.13817 0.460277,0 0.835022,0.716404 1.715743,3.28 0.619762,1.804 1.254756,3.248347 1.411098,3.209659 0.156341,-0.03869 0.788257,-1.513871 1.404257,-3.278185 0.842236,-2.412289 1.258882,-3.208295 1.68,-3.209659 0.308,-9.98e-4 0.56,0.106548 0.56,0.238992 0,0.345887 -2.862174,7.754931 -3.391695,8.779767 -0.244558,0.473316 -0.765513,1.085316 -1.15768,1.36 -0.714289,0.500308 -1.850625,0.680426 -1.850625,0.293338 z M 139.6,73.442418 c -0.5389,-0.388241 -0.72,-0.83863 -0.72,-1.79061 0,-0.722321 0.17283,-1.338221 0.4,-1.425392 0.43608,-0.167342 0.56994,-3.123142 0.16,-3.533086 -0.30736,-0.307361 -0.30377,-2.423154 0.005,-2.885428 0.60634,-0.90809 1.77974,-1.154885 4.43809,-0.933446 1.47235,0.122646 2.67701,0.354067 2.67701,0.514267 0,0.160201 -0.216,0.291274 -0.48,0.291274 -0.35302,0 -0.48,0.367823 -0.48,1.390404 0,1.901566 -0.66363,2.449596 -2.96631,2.449596 -3.04527,0 -2.7837,1.368036 0.33588,1.7567 2.61533,0.325839 2.95134,0.573903 2.94553,2.174559 -0.008,2.085487 -0.26952,2.288708 -3.10159,2.406321 -1.91364,0.07947 -2.66095,-0.01707 -3.21351,-0.415159 z m 4.74103,-0.81368 c 0.74676,-0.399653 0.8216,-1.762512 0.11174,-2.034909 -0.27897,-0.107053 -1.27222,-0.284552 -2.20722,-0.394442 -1.50175,-0.176501 -1.74114,-0.122931 -2.05278,0.459367 -0.47229,0.882494 -0.44557,1.202733 0.15008,1.798386 0.57783,0.577825 3.04156,0.683567 3.99818,0.171598 z m -0.41224,-6.246886 c 0.39117,-0.27398 0.71121,-0.769815 0.71121,-1.101855 0,-0.763027 -1.17176,-1.6 -2.24,-1.6 -1.06824,0 -2.24,0.836973 -2.24,1.6 0,0.763028 1.17176,1.6 2.24,1.6 0.44967,0 1.13763,-0.224165 1.52879,-0.498145 z M 175.36,68.479997 c 0,-4.622222 0.0721,-5.44 0.48,-5.44 0.264,0 0.48,0.216 0.48,0.48 0,0.617022 0.31724,0.606323 1.24272,-0.04191 1.14044,-0.798793 3.08586,-0.731728 3.95389,0.136304 0.62977,0.629769 0.72339,1.05237 0.72339,3.265604 0,2.192836 -0.0968,2.639006 -0.70423,3.246445 -0.75371,0.753709 -2.08097,0.918916 -3.85577,0.479937 l -1.04,-0.257233 v 1.785425 c 0,1.572092 -0.0765,1.785426 -0.64,1.785426 -0.61491,0 -0.64,-0.213334 -0.64,-5.44 z m 5.1748,0.750404 c 0.42184,-0.381765 0.5852,-0.987163 0.5852,-2.168798 0,-2.786178 -1.29784,-3.730731 -3.5359,-2.573388 -0.9071,0.469084 -0.9441,0.574761 -0.9441,2.696536 0,2.418368 0.0402,2.464392 2.2148,2.538125 0.61622,0.02089 1.35062,-0.194388 1.68,-0.492475 z m -80.608426,1.598037 c -1.348438,-0.285858 -2.006376,-1.580646 -2.006376,-3.948441 0,-1.678935 0.14303,-2.335524 0.648846,-2.978564 1.339665,-1.703109 5.350266,-1.317501 6.073186,0.583918 0.40357,1.061461 0.41096,3.708382 0.0133,4.754357 -0.16758,0.440757 -0.58154,0.949546 -0.91993,1.130642 -0.76349,0.40861 -2.85557,0.660212 -3.809016,0.458088 z m 3.168426,-1.598037 c 0.42185,-0.381765 0.5852,-0.987163 0.5852,-2.168798 0,-2.290036 -0.60657,-3.061606 -2.40689,-3.061606 -1.694232,0 -2.146959,0.607302 -2.146959,2.88 0,2.235475 0.460994,2.88 2.059909,2.88 0.78251,0 1.56276,-0.216488 1.90874,-0.529596 z m 4.7452,1.169596 c -0.55873,-0.55873 -0.64,-1.066667 -0.64,-4 0,-3.146666 0.0406,-3.36 0.64,-3.36 0.59718,0 0.64,0.213334 0.64,3.188741 0,2.867511 0.0648,3.223451 0.6438,3.533293 0.49815,0.266605 0.96871,0.20083 2.08,-0.290747 l 1.4362,-0.6353 v -2.897993 c 0,-2.68466 0.0471,-2.897994 0.64,-2.897994 0.60444,0 0.64,0.213334 0.64,3.84 0,3.068921 -0.0895,3.84 -0.44577,3.84 -0.24517,0 -0.527,-0.211719 -0.6263,-0.470486 -0.15408,-0.401512 -0.38193,-0.379086 -1.55424,0.152972 -1.757,0.797425 -2.65443,0.796779 -3.45369,-0.0025 z m 19.05108,-0.119822 c -1.35672,-1.356727 -1.47037,-5.075086 -0.20296,-6.640282 0.62818,-0.77577 2.25759,-0.987615 3.95188,-0.513799 l 0.88,0.246096 v -1.94956 c 0,-1.684366 0.0762,-1.934929 0.56,-1.841998 0.50338,0.09669 0.56885,0.665193 0.64755,5.623463 0.0757,4.765997 0.0213,5.515902 -0.4,5.515902 -0.26815,0 -0.48755,-0.216 -0.48755,-0.48 0,-0.598685 0.0615,-0.605521 -1.44,0.16 -1.64719,0.839786 -2.5812,0.807892 -3.50892,-0.119822 z m 3.84018,-1.036981 c 0.70991,-0.465152 0.78874,-0.733577 0.78874,-2.685764 0,-2.416177 -0.12417,-2.557433 -2.24803,-2.557433 -1.56265,0 -2.23197,0.863657 -2.23197,2.88 0,0.801678 0.22416,1.777637 0.49814,2.168798 0.60015,0.856825 2.04763,0.944948 3.19312,0.194399 z M 153.6,70.399997 c -0.54519,-0.545185 -0.64,-1.066667 -0.64,-3.52 0,-2.666667 -0.0474,-2.88 -0.64,-2.88 -0.35556,0 -0.64,-0.213333 -0.64,-0.48 0,-0.266666 0.28444,-0.48 0.64,-0.48 0.51809,0 0.64,-0.213333 0.64,-1.12 0,-0.906666 0.1219,-1.12 0.64,-1.12 0.51809,0 0.64,0.213334 0.64,1.12 0,1.093334 0.0305,1.12 1.28,1.12 0.92444,0 1.28,0.133334 1.28,0.48 0,0.347438 -0.35694,0.48 -1.29246,0.48 h -1.29246 l 0.0925,2.8 0.0925,2.8 1.04,0.100275 c 1.69319,0.163254 1.17844,1.339725 -0.58618,1.339725 -0.3376,0 -0.90182,-0.288 -1.25382,-0.64 z m 47.7512,0.141855 c -0.64956,-0.45497 -0.7112,-0.760059 -0.7112,-3.52 v -3.021855 h -0.82667 c -1.00247,0 -0.89275,-0.751509 0.13173,-0.902256 0.55832,-0.08215 0.69494,-0.318055 0.69494,-1.2 0,-1.466792 0.87906,-1.516571 1.01972,-0.05774 0.0916,0.949473 0.20473,1.048645 1.30028,1.139317 0.75864,0.06279 1.2,0.26165 1.2,0.540683 0,0.279034 -0.44136,0.477895 -1.2,0.540683 l -1.2,0.09932 -0.0945,2.153975 c -0.11507,2.623336 0.25395,3.446025 1.54574,3.446025 1.02473,0 1.3287,0.745726 0.44257,1.085763 -0.83041,0.318659 -1.54923,0.223786 -2.30262,-0.303908 z m 15.6662,0.134279 c -1.7353,-0.499957 -2.42687,-2.964634 -1.63352,-5.821696 0.26837,-0.966493 0.58579,-1.328129 1.50157,-1.710767 1.35219,-0.564981 3.42958,-0.352155 4.30618,0.441163 0.66223,0.599306 0.78433,2.951201 0.18436,3.551166 -0.22917,0.229171 -1.33457,0.384 -2.74156,0.384 -2.29695,0 -2.35189,0.01851 -2.13683,0.72 0.40931,1.335149 0.78163,1.52 3.06158,1.52 1.64548,0 2.20081,0.110144 2.20081,0.436504 0,0.27671 -0.5435,0.511 -1.48466,0.64 -1.76094,0.241364 -1.8847,0.235271 -3.25793,-0.16037 z m 3.47046,-4.60561 c 0.31062,-0.374273 0.32146,-0.675535 0.046,-1.28 -0.30476,-0.668876 -0.58004,-0.790524 -1.7889,-0.790524 -1.50527,0 -2.42501,0.755203 -2.42501,1.991202 0,0.480548 0.29182,0.568798 1.88082,0.568798 1.29764,0 2.00678,-0.151771 2.28705,-0.489476 z M 116.48,66.879997 c 0,-3.2 0.08,-3.84 0.48,-3.84 0.264,0 0.48,0.216 0.48,0.48 0,0.618775 0.0939,0.608361 1.64377,-0.182331 1.2843,-0.655202 2.35939,-0.627171 2.13181,0.05558 -0.0647,0.194103 -0.83268,0.590027 -1.70661,0.879832 l -1.58897,0.526918 -0.092,2.96 c -0.0838,2.696544 -0.1479,2.96 -0.72,2.96 -0.5891,0 -0.62799,-0.237809 -0.62799,-3.84 z m 18.88,0 c 0,-3.626666 0.0355,-3.84 0.64,-3.84 0.60444,0 0.64,0.213334 0.64,3.84 0,3.626667 -0.0356,3.84 -0.64,3.84 -0.60445,0 -0.64,-0.213333 -0.64,-3.84 z m 13.12,0 c 0,-3.626666 0.0356,-3.84 0.64,-3.84 0.60444,0 0.64,0.213334 0.64,3.84 0,3.626667 -0.0356,3.84 -0.64,3.84 -0.60445,0 -0.64,-0.213333 -0.64,-3.84 z m 10.09814,3.128798 c -0.69967,-0.998925 -0.63068,-2.676261 0.14186,-3.448798 0.50871,-0.508718 1.06666,-0.64 2.72,-0.64 2.14226,0 2.36439,-0.166541 1.88576,-1.413828 -0.15315,-0.399107 -0.70028,-0.506172 -2.58667,-0.506172 -2.79959,0 -3.12764,-0.626144 -0.55409,-1.057603 2.04419,-0.342712 3.51551,-0.04972 4.1258,0.82158 0.70243,1.002865 0.7103,6.956023 0.009,6.956023 -0.264,0 -0.48,-0.216 -0.48,-0.48 0,-0.589149 -0.2494,-0.589149 -1.28,0 -1.28931,0.737031 -3.38908,0.61511 -3.98186,-0.231202 z m 3.99775,-0.737016 c 0.72443,-0.37462 0.94411,-0.709676 0.94411,-1.44 0,-0.935988 -0.0282,-0.951782 -1.696,-0.951782 -0.9328,0 -1.8688,0.1728 -2.08,0.384 -0.41069,0.410687 -0.52422,1.929119 -0.17067,2.282667 0.37845,0.378448 2.03187,0.227077 3.00256,-0.274885 z m 5.13497,1.005411 c -0.2513,-0.302808 -0.33957,-2.046739 -0.27918,-5.515947 0.0785,-4.50673 0.14992,-5.084967 0.64008,-5.17907 0.50063,-0.09611 0.55994,0.363173 0.64,4.955947 l 0.0882,5.061877 0.88,0.101255 c 0.50368,0.05796 0.88,0.297431 0.88,0.56 0,0.609847 -2.34535,0.622967 -2.84914,0.01594 z m 16.94039,-0.176156 C 184.46906,69.760605 184.32,68.90477 184.32,68.19918 c 0,-1.744809 0.80447,-2.279183 3.4312,-2.279183 1.75179,0 2.0088,-0.07687 2.0088,-0.600818 0,-1.008499 -0.81827,-1.375927 -3.02645,-1.358979 -1.57687,0.0121 -2.09355,-0.09318 -2.09355,-0.426597 0,-0.672513 3.82049,-1.011053 5.0062,-0.443607 l 0.9138,0.437317 0.0905,3.596342 c 0.0875,3.47801 -0.13872,4.311039 -0.83355,3.069452 -0.27376,-0.489186 -0.34869,-0.489186 -1.0471,0 -1.09937,0.770032 -3.68816,0.712158 -4.11858,-0.09207 z m 4.16464,-0.829255 c 0.72443,-0.37462 0.94411,-0.709676 0.94411,-1.44 0,-0.926695 -0.0415,-0.951782 -1.57383,-0.951782 -2.20496,0 -2.58617,0.209449 -2.58617,1.420903 0,0.567837 0.096,1.12843 0.21333,1.245764 0.37845,0.378448 2.03187,0.227077 3.00256,-0.274885 z M 193.6,66.879997 c 0,-3.2 0.08,-3.84 0.48,-3.84 0.264,0 0.48,0.216 0.48,0.48 0,0.615932 0.0855,0.606906 1.51642,-0.16 1.46905,-0.787363 2.00408,-0.808744 2.0019,-0.08 -0.001,0.38663 -0.47174,0.708603 -1.52,1.04 l -1.51832,0.48 -0.092,2.96 c -0.0838,2.696544 -0.14791,2.96 -0.72,2.96 -0.5891,0 -0.62799,-0.237809 -0.62799,-3.84 z m 12.48,0 c 0,-3.2 0.08,-3.84 0.48,-3.84 0.264,0 0.48,0.216 0.48,0.48 0,0.513006 0.80859,0.663864 1.09287,0.203896 0.0939,-0.151858 0.82005,-0.457927 1.61377,-0.680155 1.25219,-0.350592 1.54965,-0.334254 2.24824,0.123481 0.77922,0.510563 0.80511,0.64052 0.80511,4.040155 0,2.804971 -0.0907,3.512623 -0.45001,3.512623 -0.34949,0 -0.47458,-0.717499 -0.56,-3.212087 -0.0826,-2.413588 -0.22865,-3.285322 -0.58733,-3.506685 -0.53521,-0.330313 -1.64752,-0.130614 -2.96265,0.531899 -0.8617,0.434088 -0.88,0.503039 -0.88,3.315091 0,2.658449 -0.0476,2.871782 -0.64,2.871782 -0.60445,0 -0.64,-0.213333 -0.64,-3.84 z m 17.91999,0 c 0,-3.141526 0.0844,-3.84 0.4641,-3.84 0.25526,0 0.58494,0.215932 0.73264,0.479849 0.23345,0.417146 0.43253,0.396239 1.52356,-0.16 1.58334,-0.807231 2.0797,-0.807195 2.0797,1.51e-4 0,0.422986 -0.21333,0.64 -0.62914,0.64 -0.34603,0 -1.13803,0.242671 -1.76,0.539268 l -1.13086,0.539268 v 2.820732 c 0,2.607399 -0.0484,2.820732 -0.64,2.820732 -0.60444,0 -0.64,-0.213333 -0.64,-3.84 z M 39.679999,69.132243 c -2.859313,-0.537893 -4.16,-1.392056 -4.16,-2.731877 0,-0.974144 0.569925,-1.404431 7.261595,-5.482423 5.387649,-3.283305 6.417969,-4.152088 6.052766,-5.103792 -0.09621,-0.25071 -1.439295,-1.271919 -2.984641,-2.269353 -7.608618,-4.910934 -13.887014,-10.476681 -15.442302,-13.689477 -1.195951,-2.470505 -0.879958,-2.50296 3.547254,-0.36433 3.755246,1.814027 5.695667,2.541803 10.233453,3.83817 1.853058,0.529387 3.811875,0.676942 3.811875,0.287144 0,-0.377491 -3.247242,-3.296307 -3.667208,-3.296307 -0.457153,0 -2.496474,-0.964001 -2.732792,-1.291809 -0.088,-0.122069 -1.672,-0.970574 -3.52,-1.885567 -1.848,-0.914992 -3.504521,-1.834398 -3.681157,-2.043123 -0.176637,-0.208725 -0.536637,-0.425325 -0.8,-0.481333 -0.683566,-0.145371 -1.918843,-0.983798 -1.918843,-1.30239 0,-0.712884 2.232614,-2.800276 7.827883,-7.318715 2.728842,-2.203666 17.281509,-11.238916 20.812117,-12.921527 5.372044,-2.560199 10.969487,0.370881 11.815452,6.187116 0.301424,2.072374 -0.220039,3.713837 -1.646297,5.182212 -0.665035,0.684675 -4.329424,3.608579 -8.143085,6.497565 -7.21043,5.462162 -8.58607,6.632674 -8.58607,7.305757 0,0.582118 0.725973,1.318045 4.48,4.541421 4.700563,4.036115 8.523294,8.096672 8.897152,9.450673 0.843829,3.056095 -0.872447,5.363785 -7.067176,9.502465 -3.060119,2.044457 -9.563524,5.464747 -12.473221,6.559954 -2.390345,0.899724 -5.700136,1.246535 -7.916755,0.829546 z M 28.147967,61.34545 C 21.207791,59.376238 3.9589664,45.182141 1.2365677,39.199998 0.07550622,36.648706 0.60367351,33.138029 2.5845639,30.239999 c 1.5082826,-2.206609 5.4349831,-6.24 6.0749397,-6.24 0.5834088,0 3.9795184,1.674418 4.6044964,2.270201 0.1672,0.159389 0.501254,0.289799 0.742344,0.289799 0.631554,0 3.046743,1.725271 4.117675,2.941429 0.503789,0.572106 1.546215,1.654691 2.316502,2.405745 l 1.400522,1.365551 -1.12773,1.248263 c -2.699667,2.988208 -2.734201,2.942384 10.158154,13.4788 4.109835,3.358806 7.70105,6.455844 7.980479,6.882307 0.825215,1.259437 0.657892,3.094835 -0.371947,4.079943 -2.256206,2.158208 -7.148382,3.286745 -10.332032,2.383413 z M 135.36,60.479997 c 0,-0.426666 0.21333,-0.64 0.64,-0.64 0.42666,0 0.64,0.213334 0.64,0.64 0,0.426667 -0.21334,0.64 -0.64,0.64 -0.42667,0 -0.64,-0.213333 -0.64,-0.64 z m 13.12,0 c 0,-0.426666 0.21333,-0.64 0.64,-0.64 0.42666,0 0.64,0.213334 0.64,0.64 0,0.426667 -0.21334,0.64 -0.64,0.64 -0.42667,0 -0.64,-0.213333 -0.64,-0.64 z M 97.599998,53.425251 c -3.892141,-0.67844 -7.211122,-2.949559 -8.774017,-6.003902 -2.329584,-4.552674 -2.745543,-16.331203 -0.799267,-22.63251 1.231183,-3.986109 3.728742,-6.415957 7.947509,-7.732045 2.25647,-0.703929 10.453337,-0.781836 14.345777,-0.136349 l 2.64,0.437794 -0.0237,1.00088 c -0.013,0.550484 -0.12105,1.64888 -0.24,2.44088 l -0.21628,1.44 h -6.56 c -6.16628,0 -6.639812,0.04268 -7.889754,0.711072 -3.109209,1.66262 -3.780089,3.80481 -3.785948,12.088927 -0.0086,12.115982 1.608197,13.558646 14.235702,12.702715 2.552,-0.172982 4.66368,-0.293859 4.69263,-0.268614 0.11491,0.100211 0.70789,4.832045 0.61693,4.922999 -0.0535,0.05354 -1.1621,0.309601 -2.46345,0.569017 -2.94902,0.587864 -11.371375,0.869591 -13.726112,0.459136 z M 125.44,53.573023 c -0.616,-0.07165 -2.75524,-0.364831 -4.75386,-0.651505 l -3.63387,-0.521224 0.22594,-2.440148 c 0.12426,-1.342082 0.26335,-2.479997 0.30908,-2.528701 0.0457,-0.0487 2.87989,0.05686 6.29814,0.234581 5.78038,0.300537 8.63729,0.167411 10.2864,-0.479326 1.39572,-0.547364 2.0261,-4.296904 1.04226,-6.199443 -0.59799,-1.156389 -1.71233,-1.668197 -7.4112,-3.403913 -5.92326,-1.804058 -7.12417,-2.344621 -8.69212,-3.912571 -1.81034,-1.810337 -2.47077,-3.924885 -2.47077,-7.910774 0,-6.28043 1.67571,-8.238079 7.82067,-9.136514 4.38278,-0.64079 15.76912,0.0065 16.75336,0.952437 0.13972,0.134277 0.15583,1.202626 0.0358,2.374108 l -0.21822,2.129969 -7.32609,0 c -8.06181,0 -9.27919,0.217795 -9.86757,1.765354 -0.43819,1.152528 -0.39066,3.674833 0.0868,4.603798 0.67677,1.316878 1.82397,1.867474 7.40849,3.555695 6.21244,1.878043 7.26075,2.355742 8.88343,4.048037 1.85213,1.931589 2.34337,3.53046 2.34337,7.627115 0,5.720992 -1.25366,7.803701 -5.48379,9.110256 -2.10706,0.650803 -8.86342,1.105305 -11.63621,0.782769 z m 21.33333,-0.666359 C 146.656,52.789331 146.56,44.653331 146.56,34.826665 V 16.959999 h 3.52 3.52 v 18.079999 18.08 h -3.30667 c -1.81867,0 -3.40267,-0.096 -3.52,-0.213334 z M 69.56961,47.736651 c -2.005973,-1.298681 -3.595251,-2.922159 -4.523628,-4.620972 -0.429149,-0.785291 -0.56577,-1.770642 -0.565099,-4.075681 0.001,-3.47997 0.496551,-4.761995 2.612,-6.757591 2.946293,-2.779366 4.870078,-2.258411 7.228998,1.957591 3.035593,5.425392 3.413063,7.788015 1.831608,11.464208 -1.486103,3.454538 -3.45057,4.06097 -6.583879,2.032445 z M 27.650215,27.626721 c -0.483558,-1.491613 -0.930913,-2.53905 -1.236702,-2.895617 -0.986452,-1.150255 -1.14161,-1.371105 -0.963273,-1.371105 0.107511,0 0.0052,-0.19579 -0.227383,-0.435088 -0.232572,-0.239299 -0.88882,-0.923299 -1.45833,-1.52 -0.569509,-0.596702 -1.475891,-1.444912 -2.014182,-1.884912 -0.538291,-0.44 -1.691059,-1.459887 -2.561706,-2.266415 l -1.582996,-1.466415 1.997178,-1.610665 c 4.986096,-4.02114 13.02822,-8.8259267 18.317178,-10.943644 4.382575,-1.7547984 6.540662,-2.29651428 9.965077,-2.50140094 4.087963,-0.24458741 6.857385,0.59126754 9.090425,2.74363214 1.385051,1.335011 1.584498,1.6897323 1.584498,2.818068 0,2.2706138 -1.179785,3.4150743 -6.962438,6.7539738 -2.826334,1.631924 -7.564014,4.494411 -10.528176,6.361082 -2.964162,1.866672 -5.677386,3.556535 -6.029386,3.755253 -1.010385,0.570402 -4.681137,3.088268 -5.999789,4.115415 -1.095231,0.853117 -1.216364,0.883429 -1.389995,0.347838 z"
         id="path6" />
      <path
         style="fill:#556ea2"
         d="m 39.679999,69.132243 c -2.859313,-0.537893 -4.16,-1.392056 -4.16,-2.731877 0,-0.974144 0.569925,-1.404431 7.261595,-5.482423 5.387649,-3.283305 6.417969,-4.152088 6.052766,-5.103792 -0.09621,-0.25071 -1.439295,-1.271919 -2.984641,-2.269353 -7.608618,-4.910934 -13.887014,-10.476681 -15.442302,-13.689477 -1.195951,-2.470505 -0.879958,-2.50296 3.547254,-0.36433 3.755246,1.814027 5.695667,2.541803 10.233453,3.83817 1.853058,0.529387 3.811875,0.676942 3.811875,0.287144 0,-0.377491 -3.247242,-3.296307 -3.667208,-3.296307 -0.457153,0 -2.496474,-0.964001 -2.732792,-1.291809 -0.088,-0.122069 -1.672,-0.970574 -3.52,-1.885567 -1.848,-0.914992 -3.504521,-1.834398 -3.681157,-2.043123 -0.176637,-0.208725 -0.536637,-0.425325 -0.8,-0.481333 -0.683566,-0.145371 -1.918843,-0.983798 -1.918843,-1.30239 0,-0.712884 2.232614,-2.800276 7.827883,-7.318715 2.728842,-2.203666 17.281509,-11.238916 20.812117,-12.921527 5.372044,-2.560199 10.969487,0.370881 11.815452,6.187116 0.301424,2.072374 -0.220039,3.713837 -1.646297,5.182212 -0.665035,0.684675 -4.329424,3.608579 -8.143085,6.497565 -7.21043,5.462162 -8.58607,6.632674 -8.58607,7.305757 0,0.582118 0.725973,1.318045 4.48,4.541421 4.700563,4.036115 8.523294,8.096672 8.897152,9.450673 0.843829,3.056095 -0.872447,5.363785 -7.067176,9.502465 -3.060119,2.044457 -9.563524,5.464747 -12.473221,6.559954 -2.390345,0.899724 -5.700136,1.246535 -7.916755,0.829546 z M 28.147967,61.34545 C 21.207791,59.376238 3.9589664,45.182141 1.2365677,39.199998 0.07550622,36.648706 0.60367351,33.138029 2.5845639,30.239999 c 1.5082826,-2.206609 5.4349831,-6.24 6.0749397,-6.24 0.5834088,0 3.9795184,1.674418 4.6044964,2.270201 0.1672,0.159389 0.501254,0.289799 0.742344,0.289799 0.631554,0 3.046743,1.725271 4.117675,2.941429 0.503789,0.572106 1.546215,1.654691 2.316502,2.405745 l 1.400522,1.365551 -1.12773,1.248263 c -2.699667,2.988208 -2.734201,2.942384 10.158154,13.4788 4.109835,3.358806 7.70105,6.455844 7.980479,6.882307 0.825215,1.259437 0.657892,3.094835 -0.371947,4.079943 -2.256206,2.158208 -7.148382,3.286745 -10.332032,2.383413 z m 69.452031,-7.920199 c -3.892141,-0.67844 -7.211122,-2.949559 -8.774017,-6.003902 -2.329584,-4.552674 -2.745543,-16.331203 -0.799267,-22.63251 1.231183,-3.986109 3.728742,-6.415957 7.947509,-7.732045 2.25647,-0.703929 10.453337,-0.781836 14.345777,-0.136349 l 2.64,0.437794 -0.0237,1.00088 c -0.013,0.550484 -0.12105,1.64888 -0.24,2.44088 l -0.21628,1.44 h -6.56 c -6.16628,0 -6.639812,0.04268 -7.889754,0.711072 -3.109209,1.66262 -3.780089,3.80481 -3.785948,12.088927 -0.0086,12.115982 1.608197,13.558646 14.235702,12.702715 2.552,-0.172982 4.66368,-0.293859 4.69263,-0.268614 0.11491,0.100211 0.70789,4.832045 0.61693,4.922999 -0.0535,0.05354 -1.1621,0.309601 -2.46345,0.569017 -2.94902,0.587864 -11.371375,0.869591 -13.726112,0.459136 z M 125.44,53.573023 c -0.616,-0.07165 -2.75524,-0.364831 -4.75386,-0.651505 l -3.63387,-0.521224 0.22594,-2.440148 c 0.12426,-1.342082 0.26335,-2.479997 0.30908,-2.528701 0.0457,-0.0487 2.87989,0.05686 6.29814,0.234581 5.78038,0.300537 8.63729,0.167411 10.2864,-0.479326 1.39572,-0.547364 2.0261,-4.296904 1.04226,-6.199443 -0.59799,-1.156389 -1.71233,-1.668197 -7.4112,-3.403913 -5.92326,-1.804058 -7.12417,-2.344621 -8.69212,-3.912571 -1.81034,-1.810337 -2.47077,-3.924885 -2.47077,-7.910774 0,-6.28043 1.67571,-8.238079 7.82067,-9.136514 4.38278,-0.64079 15.76912,0.0065 16.75336,0.952437 0.13972,0.134277 0.15583,1.202626 0.0358,2.374108 l -0.21822,2.129969 -7.32609,0 c -8.06181,0 -9.27919,0.217795 -9.86757,1.765354 -0.43819,1.152528 -0.39066,3.674833 0.0868,4.603798 0.67677,1.316878 1.82397,1.867474 7.40849,3.555695 6.21244,1.878043 7.26075,2.355742 8.88343,4.048037 1.85213,1.931589 2.34337,3.53046 2.34337,7.627115 0,5.720992 -1.25366,7.803701 -5.48379,9.110256 -2.10706,0.650803 -8.86342,1.105305 -11.63621,0.782769 z m 21.33333,-0.666359 C 146.656,52.789331 146.56,44.653331 146.56,34.826665 V 16.959999 h 3.52 3.52 v 18.079999 18.08 h -3.30667 c -1.81867,0 -3.40267,-0.096 -3.52,-0.213334 z M 69.56961,47.736651 c -2.005973,-1.298681 -3.595251,-2.922159 -4.523628,-4.620972 -0.429149,-0.785291 -0.56577,-1.770642 -0.565099,-4.075681 0.001,-3.47997 0.496551,-4.761995 2.612,-6.757591 2.946293,-2.779366 4.870078,-2.258411 7.228998,1.957591 3.035593,5.425392 3.413063,7.788015 1.831608,11.464208 -1.486103,3.454538 -3.45057,4.06097 -6.583879,2.032445 z M 27.650215,27.626721 c -0.483558,-1.491613 -0.930913,-2.53905 -1.236702,-2.895617 -0.986452,-1.150255 -1.14161,-1.371105 -0.963273,-1.371105 0.107511,0 0.0052,-0.19579 -0.227383,-0.435088 -0.232572,-0.239299 -0.88882,-0.923299 -1.45833,-1.52 -0.569509,-0.596702 -1.475891,-1.444912 -2.014182,-1.884912 -0.538291,-0.44 -1.691059,-1.459887 -2.561706,-2.266415 l -1.582996,-1.466415 1.997178,-1.610665 c 4.986096,-4.02114 13.02822,-8.8259267 18.317178,-10.943644 4.382575,-1.7547984 6.540662,-2.29651428 9.965077,-2.50140094 4.087963,-0.24458741 6.857385,0.59126754 9.090425,2.74363214 1.385051,1.335011 1.584498,1.6897323 1.584498,2.818068 0,2.2706138 -1.179785,3.4150743 -6.962438,6.7539738 -2.826334,1.631924 -7.564014,4.494411 -10.528176,6.361082 -2.964162,1.866672 -5.677386,3.556535 -6.029386,3.755253 -1.010385,0.570402 -4.681137,3.088268 -5.999789,4.115415 -1.095231,0.853117 -1.216364,0.883429 -1.389995,0.347838 z"
         id="path5" />
      <path
         style="fill:#2d70b4"
         d="m 40.57787,69.084643 c -2.491536,-0.207305 -4.183162,-0.884334 -4.846775,-1.939795 -0.695058,-1.105472 0.277059,-1.978898 6.26396,-5.628031 6.230011,-3.797314 7.088149,-4.469333 6.912174,-5.41301 -0.0613,-0.328726 -1.876392,-1.772256 -4.154204,-3.303809 -5.793297,-3.895291 -8.57444,-6.110757 -11.275836,-8.982358 -2.306993,-2.452347 -3.875137,-4.952719 -3.6621,-5.839139 0.07553,-0.314258 1.234944,0.109361 4.139582,1.51249 3.755246,1.814027 5.695667,2.541803 10.233453,3.83817 1.853058,0.529387 3.811875,0.676942 3.811875,0.287144 0,-0.377491 -3.247242,-3.296307 -3.667208,-3.296307 -0.457153,0 -2.496474,-0.964001 -2.732792,-1.291809 -0.088,-0.122069 -1.672,-0.970574 -3.52,-1.885567 -1.848,-0.914992 -3.504521,-1.834398 -3.681157,-2.043123 -0.176637,-0.208725 -0.536637,-0.425325 -0.8,-0.481333 -0.788685,-0.167726 -1.918843,-1.005505 -1.918843,-1.422428 0,-0.519159 3.75411,-4.0345 6.553702,-6.136874 5.635396,-4.231942 20.497605,-13.463182 23.224671,-14.425347 1.682438,-0.593599 4.158865,-0.608608 5.535177,-0.03355 2.913619,1.217387 4.99785,4.40661 5.003323,7.655921 0.0054,3.193272 -0.464949,3.715675 -9.276873,10.304029 -8.099453,6.055664 -8.96,6.793503 -8.96,7.68236 0,0.556205 1.169383,1.766019 4.657231,4.818253 5.145438,4.5028 7.665238,7.128567 8.338524,8.689188 0.682615,1.582245 0.554987,3.256075 -0.347579,4.558478 -1.681355,2.426197 -6.766372,5.971364 -13.374292,9.324277 -6.712819,3.406139 -8.166628,3.809061 -12.456013,3.452168 z M 28.959999,61.445079 C 25.240865,60.656799 18.686506,56.43298 11.015742,49.88128 4.1127568,43.985349 0.63999998,39.394814 0.63999998,36.165892 c 0,-1.851564 0.78289672,-4.243648 1.93946402,-5.925893 1.5279137,-2.222374 5.442549,-6.24 6.0800396,-6.24 0.5834088,0 3.9795184,1.674418 4.6044964,2.270201 0.1672,0.159389 0.501254,0.289799 0.742344,0.289799 0.631554,0 3.046743,1.725271 4.117675,2.941429 0.503789,0.572106 1.546215,1.654691 2.316502,2.405745 l 1.400522,1.365551 -1.12773,1.248263 c -2.697736,2.986071 -2.729317,2.944073 10.106207,13.439501 4.081263,3.337191 7.672479,6.497514 7.980479,7.022939 0.308,0.525424 0.56,1.420096 0.56,1.988159 0,2.745489 -6.124177,5.379765 -10.4,4.473493 z m 69.919999,-8.004516 c -3.842576,-0.514207 -5.734548,-1.293992 -7.833257,-3.228515 -2.817731,-2.597293 -4.080098,-7.291467 -4.080098,-15.17205 0,-7.880582 1.262367,-12.574756 4.080098,-15.172049 1.681842,-1.550268 2.653018,-2.061 5.287447,-2.780612 3.325972,-0.908512 12.421332,-0.684662 16.081442,0.395788 0.57819,0.170679 0.58538,0.973101 0.0355,3.958834 l -0.14769,0.801959 -5.83301,-0.115487 c -6.39768,-0.126667 -7.922118,0.104204 -9.509904,1.440237 -2.166857,1.82329 -2.880518,4.665362 -2.880518,11.47133 0,6.783427 0.715162,9.649304 2.857838,11.452247 1.73369,1.458804 2.804308,1.614608 9.807774,1.427297 l 6.45656,-0.172683 0.19891,1.451232 c 0.42559,3.104984 0.38732,3.19742 -1.48467,3.586042 -3.85568,0.800438 -9.74443,1.096957 -13.036412,0.65643 z M 125.6,53.432962 c -3.73502,-0.293154 -8.12807,-0.962405 -8.31627,-1.266928 -0.0813,-0.131503 -0.0573,-1.208184 0.0533,-2.392626 l 0.2011,-2.153531 7.07092,0.226897 c 7.81984,0.25093 9.31528,0.05884 10.41376,-1.337645 0.51954,-0.660486 0.65716,-1.30065 0.65716,-3.056901 0,-3.483627 -0.25194,-3.658444 -9.34316,-6.483171 -7.87226,-2.445983 -9.66078,-4.531904 -9.6336,-11.235514 0.0304,-7.485829 2.55231,-9.24929 13.21676,-9.241712 4.83393,0.0034 10.30468,0.523482 11.07572,1.052853 0.18209,0.125017 0.24036,1.087618 0.13894,2.295315 l -0.17466,2.08 h -7.52 c -8.0911,0 -8.87435,0.135146 -9.56472,1.650344 -0.47,1.031555 -0.45365,4.023656 0.0278,5.080266 0.52263,1.147046 1.83753,1.752869 7.61694,3.50939 7.30211,2.219314 9.05907,3.317158 10.2034,6.375632 2.02088,5.401295 0.6412,11.880318 -2.88152,13.531678 -2.67468,1.253823 -7.8571,1.788292 -13.24188,1.365653 z M 146.88,34.879998 V 16.959999 h 3.36 3.36 v 17.919999 17.92 h -3.36 -3.36 z M 70.144905,47.981902 c -2.1178,-1.214501 -3.988706,-3.064409 -4.894144,-4.839215 -1.403065,-2.750233 -1.068303,-7.102538 0.741825,-9.644629 1.022821,-1.436418 3.085403,-2.778059 4.270873,-2.778059 1.623315,0 2.758726,1.235952 4.773619,5.19633 l 1.833413,3.603669 -0.140621,2.56 c -0.10696,1.947203 -0.343784,2.956816 -0.989349,4.217724 -1.48238,2.895363 -2.794793,3.290376 -5.595616,1.68418 z M 27.650215,27.626721 c -0.483558,-1.491613 -0.930913,-2.53905 -1.236702,-2.895617 -0.986452,-1.150255 -1.14161,-1.371105 -0.963273,-1.371105 0.107511,0 0.0052,-0.19579 -0.227383,-0.435088 -0.232572,-0.239299 -0.88882,-0.923299 -1.45833,-1.52 -0.569509,-0.596702 -1.475891,-1.444912 -2.014182,-1.884912 -0.538291,-0.44 -1.693257,-1.462028 -2.566591,-2.271173 l -1.587881,-1.471174 1.842063,-1.440516 C 28.420374,7.3127576 39.266947,1.9110735 46.420958,0.89936423 53.072554,-0.04129414 59.41019,3.2890043 58.426568,7.2080674 58.121593,8.423184 56.244511,10.326326 54.337136,11.354275 c -6.05964,3.265744 -21.80191,13.170596 -25.296926,15.916529 -1.093768,0.859342 -1.216596,0.890793 -1.389995,0.355917 z"
         id="path4" />
      <path
         style="fill:#295193"
         d="m 40.57787,69.084643 c -2.491536,-0.207305 -4.183162,-0.884334 -4.846775,-1.939795 -0.695951,-1.106893 0.277031,-1.97888 6.314016,-5.658622 3.278861,-1.998573 6.212063,-3.949972 6.518226,-4.336441 0.523856,-0.661261 0.754677,-0.694572 3.916662,-0.565242 4.017411,0.164317 8.832136,-0.397181 12.129627,-1.41457 1.322746,-0.408113 2.45985,-0.687164 2.5269,-0.620114 0.348869,0.348868 -0.50315,1.67934 -2.050851,3.202509 -2.352482,2.315195 -6.744234,5.185773 -12.066437,7.886978 -6.695822,3.398363 -8.153599,3.802055 -12.441368,3.445297 z M 28.959999,61.445079 C 26.977887,61.024965 24.811921,59.992388 21.814766,58.038743 12.873677,52.210647 3.6884857,43.810816 1.5855815,39.539211 0.69314566,37.726416 0.57953645,37.21246 0.70077049,35.536417 0.77727194,34.478795 0.94802842,33.505303 1.0802293,33.373103 1.4799611,32.973371 5.9497013,35.464277 11.2,39.012669 c 9.474113,6.403039 13.294995,8.869981 15.999999,10.330354 2.689359,1.451926 7.738854,3.678621 9.932507,4.379974 1.319754,0.421951 2.227493,1.745804 2.227493,3.248589 0,2.745489 -6.124177,5.379765 -10.4,4.473493 z m 28.335278,-7.348037 c -0.255596,-0.162149 -0.564609,-0.233081 -0.686695,-0.157628 -0.366988,0.226811 -4.116448,-2.026329 -4.124622,-2.478584 -0.0022,-0.120543 -0.165525,-0.624543 -0.362993,-1.12 -0.197467,-0.495458 -0.407306,-1.260832 -0.466309,-1.700832 -0.182426,-1.360392 -0.320807,-1.892814 -0.552064,-2.124071 -0.553639,-0.553639 -0.07882,-0.756057 1.777405,-0.757714 2.41696,-0.0022 4.4,-0.505595 4.4,-1.117037 0,-0.761528 -1.970438,-2.354756 -4.359324,-3.524798 -1.253627,-0.614009 -2.441627,-1.11638 -2.64,-1.11638 -0.198372,0 -0.360676,-0.12653 -0.360676,-0.281177 0,-0.154648 -0.396,-0.450608 -0.88,-0.657689 -0.484,-0.207081 -1.326859,-0.764551 -1.87302,-1.238822 -0.855029,-0.742484 -0.972591,-1.027854 -0.846008,-2.053592 0.09411,-0.762623 0.509003,-1.568641 1.15302,-2.24 0.886945,-0.924602 1.214307,-1.052244 2.766008,-1.078503 2.745758,-0.04647 4.172271,-0.211187 4.352358,-0.502572 0.09098,-0.147205 0.652416,-0.267644 1.247642,-0.267644 0.595226,0 1.171226,-0.144 1.28,-0.32 0.108774,-0.176 0.633042,-0.32 1.16504,-0.32 0.531999,0 1.827215,-0.504 2.878259,-1.12 1.051044,-0.616 2.096949,-1.12 2.324233,-1.12 0.227284,0 1.316055,-0.583515 2.41949,-1.296699 1.103435,-0.713185 2.053553,-1.249392 2.111374,-1.191571 0.05782,0.05782 -2.078865,1.757335 -4.74819,3.776699 -8.59004,6.498427 -9.510206,7.284847 -9.510206,8.127905 0,0.589611 1.084705,1.717863 4.657231,4.844199 2.561477,2.241562 5.385567,4.881944 6.275755,5.867516 1.69593,1.877648 2.733587,3.783379 2.288903,4.203729 -0.938583,0.887222 -8.605345,1.651209 -9.686611,0.965265 z m 41.584721,-0.656479 c -3.842576,-0.514207 -5.734548,-1.293992 -7.833257,-3.228515 -2.817731,-2.597293 -4.080098,-7.291467 -4.080098,-15.17205 0,-7.880582 1.262367,-12.574756 4.080098,-15.172049 1.681842,-1.550268 2.653018,-2.061 5.287447,-2.780612 3.325972,-0.908512 12.421332,-0.684662 16.081442,0.395788 0.57819,0.170679 0.58538,0.973101 0.0355,3.958834 l -0.14769,0.801959 -5.83301,-0.115487 c -6.39768,-0.126667 -7.922118,0.104204 -9.509904,1.440237 -2.166857,1.82329 -2.880518,4.665362 -2.880518,11.47133 0,6.783427 0.715162,9.649304 2.857838,11.452247 1.73369,1.458804 2.804308,1.614608 9.807774,1.427297 l 6.45656,-0.172683 0.19891,1.451232 c 0.42559,3.104984 0.38732,3.19742 -1.48467,3.586042 -3.85568,0.800438 -9.74443,1.096957 -13.036412,0.65643 z M 125.6,53.432962 c -3.73502,-0.293154 -8.12807,-0.962405 -8.31627,-1.266928 -0.0813,-0.131503 -0.0573,-1.208184 0.0533,-2.392626 l 0.2011,-2.153531 7.07092,0.226897 c 7.81984,0.25093 9.31528,0.05884 10.41376,-1.337645 0.51954,-0.660486 0.65716,-1.30065 0.65716,-3.056901 0,-3.483627 -0.25194,-3.658444 -9.34316,-6.483171 -7.87226,-2.445983 -9.66078,-4.531904 -9.6336,-11.235514 0.0304,-7.485829 2.55231,-9.24929 13.21676,-9.241712 4.83393,0.0034 10.30468,0.523482 11.07572,1.052853 0.18209,0.125017 0.24036,1.087618 0.13894,2.295315 l -0.17466,2.08 h -7.52 c -8.0911,0 -8.87435,0.135146 -9.56472,1.650344 -0.47,1.031555 -0.45365,4.023656 0.0278,5.080266 0.52263,1.147046 1.83753,1.752869 7.61694,3.50939 7.30211,2.219314 9.05907,3.317158 10.2034,6.375632 2.02088,5.401295 0.6412,11.880318 -2.88152,13.531678 -2.67468,1.253823 -7.8571,1.788292 -13.24188,1.365653 z M 146.88,34.879998 V 16.959999 h 3.36 3.36 v 17.919999 17.92 h -3.36 -3.36 z M 70.144905,47.981902 c -2.1178,-1.214501 -3.988706,-3.064409 -4.894144,-4.839215 -1.403065,-2.750233 -1.068303,-7.102538 0.741825,-9.644629 1.022821,-1.436418 3.085403,-2.778059 4.270873,-2.778059 1.623315,0 2.758726,1.235952 4.773619,5.19633 l 1.833413,3.603669 -0.140621,2.56 c -0.10696,1.947203 -0.343784,2.956816 -0.989349,4.217724 -1.48238,2.895363 -2.794793,3.290376 -5.595616,1.68418 z m -19.0226,-17.576724 c -2.23159,-0.399157 -5.467708,-1.512446 -8.657436,-2.978329 -2.260217,-1.038714 -2.733301,-1.371213 -2.4,-1.686798 1.783156,-1.688382 19.099814,-12.297274 21.393503,-13.106534 1.682438,-0.593599 4.158865,-0.608608 5.535177,-0.03355 2.90055,1.211927 4.997813,4.408118 5.003323,7.624973 0.0045,2.642629 -0.35224,3.189543 -2.65589,4.071405 -1.089541,0.417088 -3.695068,1.688391 -5.790059,2.825117 -5.765578,3.128358 -8.806055,3.93167 -12.428618,3.283714 z M 32.696995,22.211894 C 30.493917,20.768586 21.924782,15.62331 20.504624,14.891072 l -1.095376,-0.56478 0.775376,-0.59834 c 0.426456,-0.329088 2.637846,-1.846389 4.9142,-3.37178 10.500335,-7.0363093 20.089645,-10.49318927 26.200865,-9.44523132 4.632115,0.79431952 7.806039,3.59113802 7.130376,6.28319032 -0.288784,1.1506085 -1.972127,2.941977 -3.673955,3.909724 -4.876439,2.772997 -12.896904,7.591699 -16.22623,9.748734 -2.128566,1.379076 -3.928566,2.500117 -4,2.491204 -0.07144,-0.0089 -0.896233,-0.518267 -1.832885,-1.131899 z"
         id="path3" />
      <path
         style="fill:#14377d"
         d="m 37.927435,68.54599 c -1.101553,-0.377655 -1.742847,-0.824734 -2.08,-1.450074 -0.471634,-0.874773 -0.454589,-0.931828 0.525785,-1.76 0.557271,-0.470755 3.485538,-2.364306 6.507259,-4.207891 3.021722,-1.843585 5.620785,-3.588798 5.775696,-3.878252 0.243757,-0.455465 0.767553,-0.50541 3.89274,-0.371184 4.080772,0.17527 9.159943,-0.450928 12.22118,-1.506717 2.429006,-0.837739 2.535987,-0.825235 1.989018,0.232486 -0.72453,1.401087 -3.738922,4.064528 -6.97787,6.165471 -3.622464,2.349711 -10.258601,5.767467 -12.97115,6.680427 -2.507808,0.844051 -6.572185,0.887855 -8.882658,0.09573 z M 27.502503,60.994116 C 21.392593,58.645015 8.4621543,48.610887 3.4856693,42.356854 1.0551814,39.302419 0.19829126,36.513986 0.91189759,33.981462 L 1.12,33.242926 3.4883183,34.42777 c 1.3025751,0.651665 4.614575,2.705851 7.3599997,4.564859 9.856798,6.674327 12.399365,8.317981 15.551681,10.05345 3.10671,1.710362 8.011516,3.90829 10.504766,4.707366 1.36947,0.43891 2.452103,1.877959 2.454038,3.261937 0.0015,1.095802 -1.57084,2.690138 -3.50179,3.550706 -1.859398,0.828679 -6.671233,1.075204 -8.35451,0.428028 z M 96.479998,52.98911 c -4.784125,-1.185441 -7.144369,-3.670924 -8.688105,-9.149112 -0.83849,-2.97551 -0.843414,-14.546635 -0.0075,-17.541549 2.073491,-7.428602 5.569017,-9.665534 15.082802,-9.652111 4.06642,0.0057 8.01277,0.348357 9.55601,0.829646 0.60238,0.187866 0.60269,0.26437 0.0151,3.804015 l -0.15936,0.96 -5.0195,-0.25068 c -11.445432,-0.571597 -13.199244,1.162475 -13.199244,13.050679 0,8.018987 0.923642,10.816446 4.078627,12.353049 1.422724,0.692923 1.897567,0.746013 6.181117,0.691074 2.552,-0.03273 5.59608,-0.150064 6.76462,-0.260741 l 2.12461,-0.20123 0.22977,2.287877 c 0.12637,1.258332 0.17164,2.345991 0.10061,2.417021 -0.071,0.07103 -1.4905,0.349921 -3.15438,0.61976 -3.62289,0.58754 -11.606776,0.611829 -13.905232,0.0423 z m 25.069582,-0.0049 c -4.69035,-0.711017 -4.49684,-0.604306 -4.27013,-2.35482 0.10752,-0.83016 0.2609,-1.827539 0.34086,-2.216398 l 0.14536,-0.707015 7.44579,0.195901 c 6.64174,0.174746 7.57124,0.136364 8.60763,-0.355437 1.42216,-0.674854 1.96151,-1.856332 1.93998,-4.249624 -0.0293,-3.259107 -0.60628,-3.687145 -7.91907,-5.875033 -5.11993,-1.531812 -6.5879,-2.157428 -8.22109,-3.503643 -2.32117,-1.913302 -3.42526,-5.962817 -2.8095,-10.304498 0.57973,-4.087617 2.08231,-5.699256 6.23059,-6.682785 3.07187,-0.728322 14.49804,-0.374609 17.52,0.542356 0.5899,0.178996 0.74834,1.66566 0.37588,3.526795 l -0.18412,0.92 h -7.57588 c -8.37306,0 -8.74594,0.07579 -9.52297,1.935479 -0.97196,2.326218 -0.30698,5.032701 1.51037,6.147298 0.5922,0.363196 3.38072,1.33712 6.19672,2.164276 7.05316,2.071756 8.57362,2.935991 9.95247,5.65703 1.40724,2.777047 1.56414,8.213703 0.32236,11.169514 -0.6639,1.580286 -2.41511,3.033437 -4.43032,3.676279 -2.24878,0.717348 -11.7393,0.907902 -15.65493,0.314325 z M 146.88,34.879998 V 16.959999 h 3.28 3.28 v 17.919999 17.92 h -3.28 -3.28 z M 69.599998,47.648167 c -0.352,-0.203302 -1.321164,-1.027103 -2.153699,-1.830669 -1.408288,-1.359286 -1.478071,-1.500399 -1.002073,-2.026371 0.646367,-0.714227 0.351793,-2.073091 -0.508602,-2.34617 -0.342589,-0.108733 -0.712621,-0.480421 -0.822296,-0.825974 -0.109674,-0.345553 -0.33304,-0.545689 -0.496368,-0.444746 -0.454302,0.280774 -0.353208,-2.12563 0.161088,-3.834506 0.629552,-2.091842 1.963349,-3.911528 3.547606,-4.839965 2.767524,-1.621877 4.06407,-0.752573 6.70303,4.494224 1.277116,2.53917 1.609556,3.538138 1.697772,5.101717 0.232501,4.120984 -1.502886,6.580141 -4.80331,6.806607 -0.925731,0.06352 -1.971148,-0.05084 -2.323148,-0.254147 z m -18.50888,-17.56745 c -3.386436,-0.603278 -11.091119,-3.487064 -11.091119,-4.151296 0,-0.52394 15.819646,-10.449998 20.160032,-12.649438 5.479129,-2.776485 10.989036,0.170188 11.704731,6.259638 0.289493,2.463135 -0.32855,3.843018 -1.975762,4.411214 -0.686951,0.236959 -3.253301,1.441075 -5.703,2.675813 -2.449699,1.234738 -5.224321,2.510008 -6.165826,2.833934 -2.131586,0.733372 -4.901728,0.981294 -6.929056,0.620135 z M 32.159999,21.651042 c -1.408,-0.890356 -4.810528,-2.930794 -7.561174,-4.534307 l -5.001174,-2.915477 3.283923,-2.301884 C 30.105145,6.8359731 37.520699,3.0436707 43.10384,1.5577388 46.519114,0.64877674 51.107411,0.58190547 53.279999,1.4094283 c 3.599892,1.3711729 5.526271,3.4174976 5.142575,5.4627763 -0.330671,1.7626279 -2.024338,3.2083414 -7.308681,6.2386864 -5.084456,2.91572 -11.380987,6.775737 -14.633894,8.971145 l -1.76,1.187835 z"
         id="path2" />
    </g>
  </g>
</svg>
