<?xml version="1.0" encoding="UTF-8" standalone="no"?>
<svg
   width="150"
   height="21"
   viewBox="0 0 150 21"
   fill="none"
   version="1.1"
   id="svg7"
   sodipodi:docname="ecarx.svg"
   inkscape:version="1.4.3 (0d15f75, 2025-12-25)"
   xmlns:inkscape="http://www.inkscape.org/namespaces/inkscape"
   xmlns:sodipodi="http://sodipodi.sourceforge.net/DTD/sodipodi-0.dtd"
   xmlns="http://www.w3.org/2000/svg"
   xmlns:svg="http://www.w3.org/2000/svg">
  <defs
     id="defs7" />
  <sodipodi:namedview
     id="namedview7"
     pagecolor="#ffffff"
     bordercolor="#000000"
     borderopacity="0.25"
     inkscape:showpageshadow="2"
     inkscape:pageopacity="0.0"
     inkscape:pagecheckerboard="0"
     inkscape:deskcolor="#d1d1d1"
     inkscape:zoom="1.2380952"
     inkscape:cx="74.711538"
     inkscape:cy="10.096154"
     inkscape:current-layer="svg7" />
  <path
     d="m 55.332,0 c 0.4163,0 0.5684,0.188733 0.5684,0.567278 V 3.17827 c 0,0.37854 -0.1521,0.56727 -0.5684,0.56727 H 40.6141 c -3.8599,0 -4.9189,1.13564 -4.9189,4.61588 V 12.107 c 0,3.4802 1.059,4.6148 4.9189,4.6148 H 55.332 c 0.4163,0 0.5684,0.1898 0.5684,0.5683 V 19.9 c 0,0.3786 -0.1521,0.5673 -0.5684,0.5673 H 40.1967 c -6.7728,0 -8.892,-2.1559 -8.892,-7.5299 V 7.52668 C 31.3047,2.1192 33.4239,0 40.1967,0 Z"
     fill="white"
     id="path1"
     style="display:inline;fill:#000000" />
  <path
     d="M115.08 0.65032V3.18474C115.08 3.54279 114.789 3.83398 114.431 3.83398H104.649C101.232 3.83398 98.8374 3.958 98.8374 7.80708V19.9313C98.8374 20.2289 98.5958 20.4705 98.2982 20.4705H95.0002C94.7025 20.4705 94.4609 20.2289 94.4609 19.9313V7.22794C94.4609 0.561886 97.5669 0 104.341 0H114.431C114.789 0 115.08 0.291188 115.08 0.649242"
     fill="white"
     id="path2"
     style="fill:#000000" />
  <path
     d="M79.4452 0H63.2131C62.8992 0 62.6458 0.254523 62.6458 0.567285V3.17723C62.6458 3.49107 62.8992 3.74559 63.2131 3.74559H79.0289C82.8877 3.74559 83.9478 4.8435 83.9478 7.71875V15.5885C83.9478 16.6853 83.6448 17.0261 82.6612 17.0261H67.2433C65.2374 17.0261 65.2374 11.9755 67.2433 11.9755H80.9076V8.62684H66.441C63.9896 8.62684 62.002 10.6145 62.002 13.0659V16.0371C62.002 18.4853 63.9863 20.4697 66.4345 20.4697H85.6119C87.7689 20.4697 88.3739 19.9024 88.3739 17.4812V7.53001C88.375 2.11923 86.1803 0 79.4452 0Z"
     fill="white"
     id="path3"
     style="fill:#000000" />
  <path
     d="M19.9022 0.00195312H8.92979C2.15695 0.00195312 0 2.12118 0 7.53089V12.9417C0 18.3147 2.15695 20.4717 8.92871 20.4717H25.1609C25.5394 20.4717 25.7292 20.2829 25.7292 19.9044V17.2944C25.7292 16.9159 25.5394 16.7261 25.1609 16.7261H9.345C5.48621 16.7261 4.38832 15.5915 4.38832 12.754V7.45647C4.38832 4.58122 5.48513 3.44557 9.345 3.44557H19.0696C21.3776 3.44557 22.0581 4.20267 22.0581 6.24533V7.45216C22.0581 8.05719 21.7928 8.247 21.2632 8.247H7.42855V11.5806H24.1255C25.6009 11.5806 26.3709 10.6758 26.3709 9.08607V6.09434C26.372 1.59057 25.0099 0.00195312 19.9022 0.00195312Z"
     fill="white"
     id="path4"
     style="fill:#000000" />
  <path
     d="M119.954 0.652489L129.61 10.1389C129.67 10.1982 129.67 10.2953 129.61 10.3546L119.956 19.8163C119.713 20.0557 119.882 20.4688 120.223 20.4688H124.991C125.256 20.4688 125.512 20.3641 125.7 20.1797L134.264 11.803C135.135 10.9521 135.137 9.55115 134.268 8.69806L125.701 0.291194C125.512 0.104614 125.256 0 124.991 0H120.222C119.881 0 119.711 0.413063 119.954 0.652489Z"
     fill="#FF5200"
     id="path5" />
  <path
     d="M149.618 0.00107847H144.841C144.575 0.00107847 144.322 0.104612 144.132 0.289031C142.769 1.62203 137.11 7.15568 136.36 7.91708C140.321 9.97805 142.492 7.91708 142.492 7.91708L149.886 0.652477C150.128 0.414134 149.96 0 149.618 0"
     fill="#FF5200"
     id="path6" />
  <path
     d="M149.618 20.4713H144.841C144.575 20.4713 144.322 20.3677 144.132 20.1833C142.769 18.8503 137.11 13.3167 136.36 12.5542C140.321 10.4943 142.492 12.5542 142.492 12.5542L149.886 19.8188C150.128 20.0571 149.96 20.4713 149.618 20.4713Z"
     fill="#FF5200"
     id="path7" />
</svg>
