<svg class="logo__svg" width="184.942" height="34.497" viewBox="0 0 184.942 34.497">
                    <defs>
                        <linearGradient id="fadeGrad" x1="0%" y1="0%" x2="100%" y2="0%" spreadMethod="pad">
                                <stop offset="0%" stop-color="#55004D" stop-opacity="1"></stop>
                                <stop offset="50%" stop-color="#3670AC" stop-opacity="1"></stop>
                                <stop offset="100%" stop-color="#1795AF" stop-opacity="1"></stop>

                        </linearGradient>

                        <mask id="fade" maskContentUnits="objectBoundingBox">
                            <rect width="1" height="1" fill="#ffffff"></rect>
                        </mask>
                    </defs>

                    <path id="Union_1" data-name="Union 1" d="M7416.244,15354.091c0-7.161,4.138-12.043,10.188-12.043a8.251,8.251,0,0,1,7.539,4.092,12.147,12.147,0,0,1,1.35,4.836c.046.6.046,1.164.093,2.417H7420.2c0,2.931.467,4.743,1.631,6.328a6.391,6.391,0,0,0,5.3,2.553c2.561,0,5.117-1.16,7.77-3.485v3.4a12,12,0,0,1-8.422,3.254C7420.2,15365.439,7416.244,15361.021,7416.244,15354.091Zm4.184-3.255H7431.6c-.282-4-2.187-6.277-5.353-6.277C7423.127,15344.559,7421.033,15346.838,7420.428,15350.836ZM7374.276,15364v-6.278h3.023v1.766a3.65,3.65,0,0,0,.655,2.418,5.578,5.578,0,0,0,3.814,1.165c2.838,0,4.6-1.4,4.6-3.675,0-1.72-.976-2.746-3.768-4l-2.233-1.026c-2.418-1.114-3.443-1.72-4.327-2.648a5.028,5.028,0,0,1-1.488-3.629c0-3.675,3.023-6.043,7.631-6.043a15.627,15.627,0,0,1,6.745,1.393v5.765H7386.1v-1.627a3.463,3.463,0,0,0-.417-2,4.865,4.865,0,0,0-3.675-1.3c-2.422,0-4.007,1.257-4.007,3.162,0,1.534.887,2.468,3.4,3.628l1.813.791,2.232,1.021c3.166,1.539,4.608,3.4,4.608,5.954,0,4-3.258,6.605-8.33,6.605A21.867,21.867,0,0,1,7374.276,15364Zm-81.513-9.907c0-7.161,4.142-12.043,10.192-12.043a8.248,8.248,0,0,1,7.535,4.092,12.2,12.2,0,0,1,1.35,4.836c.046.6.046,1.164.093,2.417h-15.217c0,2.931.467,4.743,1.631,6.328a6.4,6.4,0,0,0,5.3,2.553c2.561,0,5.121-1.16,7.77-3.485v3.4a11.993,11.993,0,0,1-8.422,3.254C7296.716,15365.439,7292.764,15361.021,7292.764,15354.091Zm4.188-3.255h11.167c-.281-4-2.19-6.277-5.353-6.277C7299.651,15344.559,7297.557,15346.838,7296.952,15350.836Zm30.892,12.047a12.287,12.287,0,0,1-3.023-8.7c0-7.207,4.049-12.136,9.864-12.136a7.547,7.547,0,0,1,6.189,2.974v-8.928c0-1.164-.374-1.442-1.863-1.442l-1.4.047v-2l6.934-.7v28.366c0,2,.185,2.278,1.678,2.278.6,0,.79.012,1.442.012v2.087h-6.42a19.266,19.266,0,0,1-.374-3.255,7.294,7.294,0,0,1-6.841,3.813A8,8,0,0,1,7327.844,15362.883Zm.933-8.931c0,5.163,2.372,8.321,6.186,8.321a5.513,5.513,0,0,0,4.423-2.274c1.257-1.674,1.813-3.583,1.813-6.514,0-3.069-.605-5.021-2.094-6.647a5.678,5.678,0,0,0-4.281-1.816C7331.01,15345.021,7328.777,15348.326,7328.777,15353.952Zm109.058,10.794v-2.095h1.442c.987-.038,1.334-.412,1.384-1.665l0-13.594c0-1.766-.185-2-1.812-2h-1.257v-2.048l6.143-.651a27.841,27.841,0,0,1,.462,4.049c1.581-2.885,3.771-4.327,6.425-4.327a4.506,4.506,0,0,1,2.325.56v4.6h-2.561v-.648c0-1.025-.417-1.488-1.35-1.488-1.4,0-2.838,1.4-3.814,3.629a15.587,15.587,0,0,0-1.026,5.9l-.007,3.617v2.063c0,1.535.328,1.955,1.4,2h1.442v2.095Zm-32.191,0v-2.095h1.442c1-.042,1.35-.424,1.389-1.728v-10.134a7.548,7.548,0,0,0-.7-3.813,4.2,4.2,0,0,0-3.583-1.72c-3.721,0-5.815,2.7-5.815,7.53l0,7.867c0,1.535.328,1.955,1.4,2h1.442v2.095h-3.679v0H7394.7v0h-2.838v-2.095h1.442c1.049-.042,1.384-.455,1.4-1.916v-24.553c0-1.161-.374-1.442-1.862-1.442l-1.4.051,0-2.048,6.938-.744v13.767a7.6,7.6,0,0,1,6.837-3.532c2.981,0,5.26,1.207,6.282,3.439a11.438,11.438,0,0,1,.791,4.793l.008,10.188c0,1.535.324,1.955,1.4,2h1.442v2.095Zm-91.8,0v-2.095h1.442c1.014-.042,1.354-.432,1.388-1.77l0-24.217v-.482c0-1.161-.374-1.442-1.863-1.442l-1.4.051v-2.048l6.98-.744v25.1h0l0,3.556c0,1.535.324,1.955,1.4,2h1.442v2.095Zm49.174,0v-2.095h1.442c1.068-.046,1.4-.462,1.4-2V15347.3c0-1.581-.235-1.9-1.581-1.947l-1.126,0v-2.652h6.351v17.95c0,1.539.324,1.955,1.4,2h1.442v2.095Zm-80.649,0v-2.095h1.442c1.068-.046,1.392-.462,1.392-2V15347.3c0-1.581-.231-1.9-1.581-1.947l-1.126,0v-2.652h6.355v17.95c0,1.539.324,1.955,1.4,2h1.442v2.095Zm-13.37-2.095h1.057c1.674,0,1.859-.23,1.859-2.278v-15.021H7269v-2.652h2.916v-.837c0-2.931.42-4.836,1.35-6.278,1.585-2.325,4.331-3.582,7.959-3.582a11.832,11.832,0,0,1,6.605,1.77v4.6h-2.884v-.883a3.065,3.065,0,0,0-.605-2.187,4.547,4.547,0,0,0-3.212-1.026,4.919,4.919,0,0,0-4.882,3.255,12.74,12.74,0,0,0-.513,4.049v1.115h4.782v2.652h-4.782v12.1h0v3.208c0,1.535.328,1.955,1.4,2h1.442v2.087l-9.567,0Zm80.634,2.087v-2.087h1.072c1.674,0,1.863-.23,1.863-2.278v-15.021h-2.935v-2.652h2.935v-.837c0-2.931.417-4.836,1.35-6.278,1.581-2.325,4.327-3.582,7.956-3.582a11.824,11.824,0,0,1,6.605,1.77v4.6H7365.6v-.883a3.065,3.065,0,0,0-.605-2.187,4.536,4.536,0,0,0-3.208-1.026,4.92,4.92,0,0,0-4.886,3.255,12.74,12.74,0,0,0-.513,4.049v1.115h4.785v2.652h-4.785l0,15.307c0,1.534.328,1.954,1.4,2h1.446v2.083Z" transform="translate(-7268.501 -15331.442)" fill="url(#fadeGrad)" mask="url(#fade)"></path>
                </svg>
