<?xml version="1.0" encoding="UTF-8" standalone="no"?>
<!-- Created with Inkscape (http://www.inkscape.org/) -->

<svg
   version="1.1"
   id="svg1"
   width="434.97757"
   height="111.1664"
   viewBox="0 0 434.97757 111.1664"
   sodipodi:docname="fossaware.svg"
   inkscape:version="1.4.3 (0d15f75, 2025-12-25)"
   xmlns:inkscape="http://www.inkscape.org/namespaces/inkscape"
   xmlns:sodipodi="http://sodipodi.sourceforge.net/DTD/sodipodi-0.dtd"
   xmlns="http://www.w3.org/2000/svg"
   xmlns:svg="http://www.w3.org/2000/svg">
  <defs
     id="defs1" />
  <sodipodi:namedview
     id="namedview1"
     pagecolor="#ffffff"
     bordercolor="#000000"
     borderopacity="0.25"
     inkscape:showpageshadow="2"
     inkscape:pageopacity="0.0"
     inkscape:pagecheckerboard="0"
     inkscape:deskcolor="#d1d1d1"
     inkscape:zoom="0.77"
     inkscape:cx="216.23377"
     inkscape:cy="55.194805"
     inkscape:current-layer="g1" />
  <g
     inkscape:groupmode="layer"
     inkscape:label="Image"
     id="g1"
     transform="translate(-6.0224381,-4)">
    <g
       id="g2">
      <path
         style="fill:#a2a2a2"
         d="m 58.2,113.8 c -1.660873,-1.66087 -1.500091,-4.35705 0.371429,-6.22857 1.290985,-1.29099 4.289177,-1.57143 16.8,-1.57143 10.511111,0 15.600303,0.37173 16.428571,1.2 1.542501,1.5425 1.542501,5.0575 0,6.6 -1.679907,1.67991 -31.920093,1.67991 -33.6,0 z m 30,-17 c -1.542501,-1.542501 -1.542501,-5.057499 0,-6.6 0.757509,-0.757509 4.555556,-1.2 10.3,-1.2 9.57772,0 11.5,0.752196 11.5,4.5 0,3.747804 -1.92228,4.5 -11.5,4.5 -5.744444,0 -9.542491,-0.442491 -10.3,-1.2 z m -47,-1 C 40.54,95.14 40,93.88 40,93 c 0,-2.743495 2.223246,-4 7.077555,-4 5.412456,0 7.459508,-1.724036 6.51506,-5.487014 L 52.961896,81 H 39.180948 C 24.662966,81 23,80.52955 23,76.422445 c 0,-3.74742 2.071724,-4.350049 15.958784,-4.642138 11.414836,-0.24009 13.485008,-0.531386 14.42894,-2.030307 0.802704,-1.274658 0.802717,-2.225342 5e-5,-3.5 C 52.409593,64.696623 49.825979,64.443822 30.392888,64 18.3518,63.725 7.9375,63.135942 7.25,62.690983 5.9072979,61.821968 5.6250768,59.140609 6.6069888,56.581787 7.1425323,55.186183 10.885533,55 38.406989,55 c 32.037831,0 33.614888,0.185521 33.577698,3.95 -0.0279,2.824091 -1.731,4.323601 -5.63053,4.957452 C 62.739558,64.494988 62.5,64.750418 62.5,68.016963 V 71.5 h 20.391014 c 18.332826,0 20.502436,-0.176638 21.494886,-1.75 0.80401,-1.274623 0.80464,-2.225377 0.002,-3.5 -0.92231,-1.465261 -2.91438,-1.796003 -12.243279,-2.032736 C 81.638281,63.950644 80.913565,63.797717 79.430531,61.534322 78.209465,59.670739 78.105186,58.671976 78.964112,57.067058 80.045528,55.046412 80.761141,55 110.83518,55 c 31.59322,0 33.18665,0.189869 33.14951,3.95 -0.0405,4.095889 -1.44504,4.533857 -16.19554,5.05 L 113.5,64.5 v 3.5 3.5 l 5.89801,0.5 c 6.87139,0.582517 8.69857,2.297863 6.82584,6.408055 L 125.0559,80.971428 93.777948,81.235714 62.5,81.5 62.173236,83.805042 C 61.670503,87.351398 63.723941,89 68.643884,89 c 3.707777,0 4.575857,0.388173 5.524577,2.470386 0.860665,1.888955 0.826801,2.830397 -0.143884,4 C 72.987277,96.720256 69.979361,97 57.577555,97 47.106123,97 42.027915,96.627915 41.2,95.8 Z M 161.57143,79.428571 C 160.26827,78.125418 160,75.005076 160,61.151078 c 0,-21.988009 -0.56311,-21.156108 14.3067,-21.135765 6.15632,0.0084 11.79517,0.396812 12.53079,0.86309 0.73562,0.466277 1.18562,1.921887 1,3.234687 -0.32448,2.294903 -0.69405,2.397993 -9.58749,2.674436 L 169,47.075052 V 52.037526 57 h 7.89301 c 6.36685,0 8.01371,0.314542 8.51725,1.626748 C 186.62242,61.785575 184.11409,63 176.37756,63 H 169 v 7.065741 c 0,3.886158 -0.46583,7.936158 -1.03518,9 -1.25125,2.337967 -4.24818,2.508045 -6.39339,0.36283 z M 197,79.248446 c -2.36401,-1.180955 -4.26656,-3.293975 -5.86178,-6.510236 -3.34202,-6.738157 -2.39743,-12.71429 2.83697,-17.948694 3.52631,-3.526309 4.19706,-3.789256 9.65716,-3.785778 9.90584,0.0063 15.37229,5.395726 15.36391,15.147391 C 218.98657,77.424541 207.29018,84.388968 197,79.248446 Z M 209.02577,72.25 c 1.73536,-2.198237 2.08098,-3.696388 1.72256,-7.466821 C 210.19049,58.914787 208.66131,57 204.53254,57 c -4.76169,0 -7.05019,3.045215 -6.95632,9.256508 0.0603,3.99085 0.5531,5.429791 2.36079,6.893568 3.26061,2.640281 6.55115,2.314413 9.08876,-0.900076 z m 17.87211,6.460167 C 224.32094,76.973563 223.5,75.708458 223.5,73.473862 c 0,-4.021145 3.18172,-4.61078 5.97527,-1.107335 2.64337,3.315101 7.59285,4.422495 9.81855,2.196796 2.58176,-2.581756 0.91474,-4.496942 -5.4559,-6.268139 -10.5915,-2.944699 -13.69919,-8.587765 -7.91484,-14.372107 C 228.46116,51.38499 229.58722,51 234.47274,51 c 8.79092,0 14.84368,4.503959 11.48743,8.547988 C 244.23555,61.626031 242.67976,61.352474 240,58.5 c -2.58974,-2.756653 -7.06851,-3.327302 -8.88989,-1.132679 -1.56308,1.883404 0.29275,3.270964 7.01128,5.242162 6.63818,1.947622 9.87861,4.778667 9.87861,8.630572 0,4.185614 -1.69474,6.734451 -5.54837,8.344603 -5.16882,2.159668 -11.58682,1.798823 -15.55375,-0.874491 z m 31.19852,1.025091 c -3.39304,-1.743749 -6.3191,-5.991329 -5.53497,-8.034756 0.95003,-2.475722 4.54841,-2.080585 6.90101,0.757797 2.62145,3.162753 6.446,4.070424 9.03756,2.144862 3.00377,-2.231833 0.98151,-4.524881 -5.85634,-6.640549 -7.22738,-2.23619 -9.65316,-4.347956 -9.61186,-8.3676 C 253.0918,53.758112 257.06663,51 265.41848,51 c 4.73629,0 6.02876,0.431471 8.81574,2.942998 2.71226,2.444184 3.07812,3.24927 2.1586,4.75 -1.6617,2.712014 -3.71476,2.664751 -6.75794,-0.155572 -2.79377,-2.589186 -6.03181,-3.205257 -8.5306,-1.623038 -2.54863,1.613786 -0.38702,3.6791 5.58983,5.340814 10.11842,2.813171 13.61408,7.563389 10.2254,13.895198 -2.26344,4.229281 -13.43076,6.356095 -18.82311,3.584858 z m 26.82668,-1.658335 C 278.72334,71.877183 282.36906,65.887167 294,63.163296 c 6.44296,-1.508887 7.45068,-2.031751 7.15005,-3.709867 C 300.36354,55.06309 295.38176,54.847902 290.65278,59 c -3.92955,3.450187 -5.21678,3.697755 -6.49943,1.25 -2.63563,-5.029724 3.45181,-9.25 13.34244,-9.25 8.50791,0 11.00237,2.135256 12.02126,10.290175 0.38197,3.057188 0.41343,6.013294 0.0699,6.569124 -0.34352,0.55583 -0.15291,3.11534 0.4236,5.6878 0.76755,3.424981 0.7398,5.048767 -0.10364,6.065051 -1.63931,1.975255 -4.68488,1.716258 -6.07958,-0.517012 -1.1698,-1.873149 -1.24877,-1.873149 -4.74366,0 -5.39612,2.892144 -10.62632,2.516067 -14.1606,-1.018215 z m 14.8046,-4.406121 c 0.67522,-0.658673 1.5135,-2.626727 1.86285,-4.373452 l 0.63517,-3.175864 -5.02394,1.32529 C 290.87581,69.115531 290,69.670385 290,72.009327 c 0,3.755972 6.45104,4.857802 9.72768,1.661475 z m 21.18349,5.163209 c -0.63757,-1.191294 -2.89741,-7.339899 -5.02189,-13.663566 -4.08065,-12.146384 -3.98825,-14.613287 0.52321,-13.968702 1.67262,0.238979 2.69212,2.133912 5.1296,9.534289 l 3.04209,9.236032 2.95791,-9.236032 c 2.84075,-8.870207 3.08149,-9.248059 6.07786,-9.539691 2.7898,-0.271526 3.27833,0.09884 4.61667,3.5 0.82319,2.092012 2.09179,6.166159 2.8191,9.053659 0.72731,2.8875 1.60427,5.25 1.94881,5.25 0.34453,0 1.75815,-3.9375 3.14137,-8.75 2.29609,-7.988569 2.74775,-8.777583 5.19021,-9.066971 4.26196,-0.504966 4.32513,2.12954 0.34131,14.233862 C 347.66196,77.617325 345.79966,81 343.09828,81 c -2.70116,0 -4.55876,-2.816958 -6.59435,-10 -1.01311,-3.575 -2.14194,-6.853492 -2.50851,-7.285538 -0.36657,-0.432045 -1.68225,2.717955 -2.92372,7 -1.24147,4.282046 -2.72058,8.348038 -3.28691,9.035538 -1.65263,2.006238 -5.59055,1.481466 -6.87362,-0.915989 z m 39.01191,-0.757088 c -6.18665,-6.186646 -2.54731,-12.203689 8.99533,-14.872285 7.83962,-1.812479 9.18437,-2.959 6.5548,-5.588567 -2.501,-2.501006 -6.28627,-1.956858 -9.62706,1.383929 -4.64478,4.644786 -7.91237,3.38431 -6.43951,-2.484047 C 360.29063,52.993858 364.84858,51 372.01608,51 c 7.31933,0 9.71951,1.11561 11.46828,5.330491 1.48746,3.585074 2.39671,21.508273 1.18808,23.419509 -1.15081,1.819812 -3.45136,1.53107 -5.3357,-0.669686 -1.62076,-1.892914 -1.69364,-1.892914 -5.2254,0 -5.4223,2.906177 -10.64828,2.536596 -14.18826,-1.003391 z m 14.76112,-4.392728 c 0.6513,-0.651307 1.50011,-2.471607 1.88624,-4.045111 l 0.70205,-2.860917 -4.38624,0.727046 c -7.76094,1.28642 -9.73713,3.501052 -6.24249,6.995686 1.7665,1.766508 5.87449,1.349242 8.04044,-0.816704 z m 17.35098,5.381546 C 391.46583,78.001899 391,72.122316 391,66 c 0,-6.122316 0.46583,-12.001899 1.03518,-13.065741 1.2626,-2.359176 5.51158,-2.557773 6.37868,-0.29814 0.58129,1.514826 0.76187,1.514826 2.43573,0 3.66453,-3.316358 11.7774,-1.155359 10.99978,2.929978 -0.29836,1.567505 -1.35476,1.990953 -5.57585,2.235022 -5.06884,0.293087 -5.23514,0.399779 -6.23505,4 -0.56503,2.034385 -1.02983,6.646381 -1.03289,10.248881 -0.003,3.753773 -0.51787,7.062286 -1.20558,7.75 -1.80186,1.801862 -4.59814,1.445703 -5.76482,-0.734259 z m 28.02648,0.106994 C 415.62973,76.795863 413,71.784616 413,65.715942 413,56.327069 417.97037,51 426.73057,51 435.32158,51 441,55.72323 441,62.869108 441,67.040289 438.76775,68 429.06574,68 c -8.78795,0 -9.7093,0.748721 -6.22157,5.055883 2.54643,3.144711 7.13064,2.984547 11.14013,-0.389216 3.66167,-3.081091 4.32033,-3.209466 6.01155,-1.171673 1.00107,1.206222 0.91312,1.994992 -0.45534,4.083526 -3.41691,5.214865 -13.11894,7.005072 -19.47885,3.594215 z M 433,61.5 c 0,-2.153033 -3.65124,-5.5 -6,-5.5 -2.34876,0 -6,3.346967 -6,5.5 0,1.166667 1.33333,1.5 6,1.5 4.66667,0 6,-0.333333 6,-1.5 z M 24.451981,44.567058 c -1.240047,-1.892551 -1.34841,-2.892066 -0.487869,-4.5 C 24.968308,38.190701 25.986447,38 35,38 c 8.793681,0 10.048058,0.22128 10.964816,1.934259 1.406399,2.627879 1.306485,3.651583 -0.536245,5.494312 C 44.235274,46.621869 41.714217,47 34.951624,47 26.621344,47 25.943136,46.842848 24.451981,44.567058 Z m 30.770525,0.876238 C 54.000128,44.587109 53,43.102109 53,42.143296 53,38.392019 54.86595,38 72.721439,38 h 17.321439 l 1.125583,-2.470386 c 0.860665,-1.888955 0.826801,-2.830397 -0.143884,-4 C 89.951689,30.236862 86.14613,30 66.448984,30 46.594929,30 42.910099,29.767242 41.571429,28.428571 39.728699,26.585842 39.628785,25.562138 41.035184,22.934259 41.982102,21.164926 43.250648,21 55.912739,21 71.048654,21 72.814661,20.382004 71.592615,15.512986 71.016217,13.216433 70.495996,13 65.552377,13 59.85627,13 57,11.37307 57,8.1285714 57,4.4464001 58.946243,4 75,4 c 15.886182,0 18.019082,0.4684517 17.984687,3.95 -0.03123,3.16086 -1.932817,4.489974 -7.177738,5.016871 -4.962429,0.498519 -5.328377,0.720841 -5.637025,3.424622 -0.187479,1.642332 0.244534,3.255764 1,3.734688 0.731542,0.463756 6.977576,0.850084 13.880076,0.858506 13.26586,0.01619 14.95,0.540726 14.95,4.656296 0,2.662673 -1.2273,3.550002 -5.96603,4.313392 -2.98708,0.481205 -3.58505,1.014941 -3.86405,3.448959 -0.187141,1.632691 0.24588,3.244777 1,3.722847 0.73155,0.463756 6.30258,0.850084 12.38008,0.858506 11.35176,0.01573 13.45,0.664488 13.45,4.158609 0,0.958813 -1.00013,2.443813 -2.22251,3.3 -3.33086,2.333026 -66.224123,2.333026 -69.554984,0 z"
         id="path8" />
      <path
         style="fill:#0dc4c4"
         d="M 58.571429,113.42857 C 57.707143,112.56429 57,111.26939 57,110.55102 c 0,-3.12959 2.719904,-3.60246 19.132987,-3.32635 16.234868,0.27311 16.369651,0.29394 16.693777,2.58037 C 93.496403,114.52878 91.920109,115 75.448984,115 62.867657,115 59.863111,114.72025 58.571429,113.42857 Z M 41.013458,95.025146 C 40.241458,93.582651 40.237586,92.424583 41,91 c 0.869207,-1.624128 2.093823,-2 6.516132,-2 4.973526,0 5.500127,-0.216598 6.072663,-2.497764 C 54.898441,81.284188 54.176071,81 39.602813,81 28.699823,81 25.844335,80.701478 24.571429,79.428571 22.780524,77.637667 22.617914,76.154726 23.976164,74 24.718583,72.822228 27.99128,72.392591 39.210851,72 L 53.5,71.5 53.835788,68.549314 C 54.429028,63.336302 52.91349,63 28.827922,63 H 7.0381041 L 6.4073847,60.487014 C 5.0507086,55.081586 5.5374647,55 39.143884,55 h 30.898994 l 1.125583,2.470386 C 72.479749,60.34835 70.940861,63 67.959343,63 63.17955,63 60.155043,66.552666 62,70 c 1.016557,1.899453 2.093823,2 21.428195,2 21.271375,0 21.612375,-0.06852 21.556495,-4.331787 C 104.93823,64.124194 103.11101,63.501358 91.289495,63 L 79.5,62.5 V 59 55.5 l 31.11589,-0.264059 c 33.91572,-0.287819 34.34956,-0.218736 32.97673,5.251073 L 142.9619,63 h -13.28982 c -14.97191,0 -17.05952,0.701772 -16.50787,5.549314 0.32176,2.827366 0.56566,2.962824 5.83579,3.241114 7.2586,0.383291 10.19478,3.871935 6.42857,7.638143 C 124.06894,80.788206 119.76077,81 93.463755,81 64.093823,81 63.034324,81.067347 62,83 c -1.945227,3.634691 0.295926,5.854585 6.257352,6.197995 L 73.5,89.5 v 3.5 3.5 l -15.701359,0.275146 c -14.890158,0.260931 -15.757353,0.170518 -16.785183,-1.75 z M 87.371593,94.344409 C 86.341694,90.240963 88.953486,89 98.619701,89 c 6.155249,0 8.634659,0.397213 9.808869,1.571429 1.72342,1.723419 1.87352,2.477755 0.96444,4.846784 C 108.89349,96.719937 106.94927,97 98.412063,97 H 88.038104 Z M 162.09942,79.619797 c -0.79203,-0.954347 -1.06122,-7.048132 -0.87244,-19.75 L 161.5,41.5 174.26986,41.219975 c 10.75955,-0.235942 12.86306,-0.03715 13.36188,1.262735 C 188.8966,45.778886 186.12469,47 177.37756,47 H 169 v 4.957936 4.957935 l 7.75,0.292065 c 7.52212,0.283476 7.75,0.365575 7.75,2.792064 0,2.426489 -0.22788,2.508588 -7.75,2.792064 L 169,63.084129 v 6.735429 c 0,9.068444 -3.44611,13.962623 -6.90058,9.800239 z m 35.368,-0.561622 C 192.15725,76.356016 189.99906,72.53551 190.00374,65.845708 190.0102,56.610907 195.30006,51 204,51 c 10.97314,0 17.65688,10.31933 13.46664,20.791762 -3.1846,7.959099 -12.20052,11.234898 -19.99922,7.266413 z M 209,73 c 3.05666,-3.05666 2.79932,-11.291591 -0.45455,-14.545455 -4.91663,-4.916636 -10.51251,-1.884055 -11.27268,6.109024 -0.38127,4.008972 -0.0616,5.453103 1.70146,7.686431 2.63539,3.338352 7.10319,3.672576 10.02577,0.75 z m 21.33266,7.3051 c -3.40214,-0.663272 -7.51413,-5.010762 -7.15026,-7.559784 0.48132,-3.371808 3.5038,-3.292749 6.74449,0.176415 3.2252,3.452588 7.94091,4.147412 10.14268,1.494446 2.08608,-2.513572 5e-5,-4.535786 -7.05435,-6.838542 -10.35906,-3.381489 -12.94141,-10.133343 -5.63293,-14.727925 4.77287,-3.000532 14.08061,-2.175446 17.26857,1.530776 2.85156,3.315134 2.92163,4.242758 0.4216,5.580737 -1.53579,0.821926 -2.54634,0.510911 -4.97213,-1.530254 -3.58142,-3.013565 -9.3577,-3.125424 -9.91335,-0.191973 -0.35735,1.886592 1.68033,3.029639 8.43247,4.730251 6.10169,1.536787 9.38055,4.496313 9.38055,8.46697 0,6.911033 -7.75122,10.802094 -17.66734,8.868883 z m 29.30989,-0.281493 C 255.62194,78.745835 253,76.097279 253,73.313628 c 0,-3.699702 2.60563,-3.867072 6.5321,-0.419584 3.85875,3.388023 7.46572,3.965278 9.85398,1.577017 2.47982,-2.479815 0.8491,-4.229738 -6.09506,-6.540605 -10.32306,-3.435294 -12.88393,-7.804494 -7.94188,-13.54997 C 258.58279,50.621152 267.8429,49.84934 272.75,52.93016 276.83132,55.492531 277.40831,60 273.65499,60 c -1.28976,0 -3.17926,-0.921829 -4.19889,-2.048508 -2.52269,-2.787545 -8.9561,-2.41532 -8.9561,0.518184 0,1.558373 1.56147,2.498053 7.47765,4.5 5.62999,1.905103 7.84566,3.193005 8.96699,5.212251 4.15442,7.481132 -7.00044,15.115602 -17.30209,11.84168 z m 26.73974,-0.932197 c -5.44629,-3.321033 -5.26993,-10.594127 0.32475,-13.392726 1.53613,-0.768409 5.60546,-1.976452 9.04296,-2.684539 3.4375,-0.708087 6.25,-1.705526 6.25,-2.21653 0,-5.512691 -7.45017,-6.6179 -11.88442,-1.763016 C 286.9954,62.450759 284,62.221889 284,58.567325 284,54.582431 288.34265,51.675168 295.01602,51.19246 306.01596,50.396797 309,53.301289 309,64.803655 c 0,3.690252 0.41842,8.16851 0.92983,9.951686 0.71376,2.488712 0.58096,3.591008 -0.57143,4.743398 -1.93526,1.935265 -2.30758,1.89763 -4.84929,-0.490182 -2.11676,-1.98859 -2.12539,-1.98859 -6.02589,0 -4.88598,2.491011 -8.11544,2.513122 -12.10093,0.08285 z m 13.16316,-5.545955 c 2.9404,-2.9404 3.43546,-7.971644 0.70455,-7.16033 -0.9625,0.285945 -3.1,0.828318 -4.75,1.205275 -3.80495,0.869272 -5.5,2.204372 -5.5,4.332045 0,4.462264 5.73165,5.436814 9.54545,1.62301 z M 321.775,79.25 c -2.23781,-2.551283 -9.22917,-24.624066 -8.44595,-26.665119 0.41489,-1.081171 1.49207,-1.605651 2.88563,-1.405018 1.87267,0.26961 2.70753,1.886197 5.28965,10.24265 l 3.06603,9.922513 2.99811,-9.922513 c 2.55889,-8.468857 3.33092,-9.970384 5.26986,-10.249277 3.5361,-0.508624 4.77334,1.250637 7.28742,10.362132 C 341.41033,66.190915 342.72362,70 343.04417,70 c 0.32055,0 1.6358,-3.7125 2.92279,-8.25 2.6185,-9.231995 3.4782,-10.75 6.0881,-10.75 3.31303,0 3.02426,3.59684 -1.28435,15.997223 -6.03162,17.359321 -9.32005,18.547054 -13.58752,4.907623 C 335.90894,67.832181 334.61219,63.825 334.30152,63 c -0.31397,-0.833758 -1.81121,2.454151 -3.37094,7.402513 -3.3522,10.635106 -5.64457,12.85033 -9.15558,8.847487 z m 40.725,0.595268 c -3.06421,-1.675991 -4.5,-3.942036 -4.5,-7.102139 0,-5.889832 2.34946,-7.619999 13.25,-9.757434 4.34834,-0.852645 5.75,-1.548989 5.75,-2.856593 0,-5.041421 -7.63706,-5.744762 -11.88442,-1.094503 -1.85192,2.027594 -3.3265,2.821694 -4.44363,2.393011 -2.46895,-0.947424 -2.03127,-4.741418 0.86036,-7.45796 3.34198,-3.13963 13.55636,-4.009398 18.29684,-1.558001 3.58968,1.856295 3.91751,2.921682 4.48897,14.588351 0.22899,4.675 0.736,9.252989 1.12668,10.173308 0.49082,1.156225 0.0392,2.032501 -1.46159,2.835678 -1.81265,0.9701 -2.53763,0.818789 -4.3829,-0.914751 l -2.211,-2.077121 -3.90609,1.991443 c -4.33697,2.211109 -7.96508,2.487502 -10.98322,0.836711 z m 11.86514,-5.917848 c 3.18415,-2.504654 3.87954,-8.431973 0.88486,-7.542295 -0.9625,0.285945 -3.1,0.828318 -4.75,1.205275 -3.80495,0.869272 -5.5,2.204372 -5.5,4.332045 0,4.262604 5.10547,5.35563 9.36514,2.004975 z m 18.7275,5.684207 c -0.77596,-0.934975 -1.06087,-5.747816 -0.87244,-14.737654 0.25747,-12.283971 0.43413,-13.378895 2.2137,-13.720368 1.06365,-0.204097 2.51899,0.429068 3.2341,1.407035 1.21617,1.663218 1.41939,1.670245 3.14484,0.10874 3.89535,-3.525248 12.24498,-0.589595 10.58996,3.723332 -0.49935,1.301284 -1.68064,1.616918 -5.21946,1.394618 -4.01257,-0.25206 -4.73238,0.01955 -5.86395,2.21267 -0.73463,1.4238 -1.29625,5.965363 -1.30465,10.55 -0.0144,7.843016 -0.91054,10.45 -3.5923,10.45 -0.64765,0 -1.69606,-0.624768 -2.3298,-1.388373 z m 29.54991,0.411451 c -8.24002,-2.617197 -12.07918,-13.085999 -7.97259,-21.740009 4.64684,-9.792478 20.2895,-9.726993 24.97785,0.104564 2.01323,4.221791 1.18658,8.155665 -1.88687,8.97922 -1.24352,0.333211 -5.52344,0.611982 -9.51094,0.619492 -6.53069,0.0123 -7.25,0.208222 -7.25,1.9747 0,2.55306 3.78032,6.038955 6.54901,6.038955 1.19455,0 3.82968,-1.125 5.85585,-2.5 C 438.09015,70.32048 440,70.300761 440,73.431906 c 0,4.940241 -10.27316,8.841285 -17.35745,6.591172 z M 434,62.134859 c 0,-0.475828 -0.93266,-2.050828 -2.07258,-3.5 -2.64659,-3.364598 -7.16366,-3.563368 -9.37072,-0.412353 C 419.72809,62.260919 420.49282,63 427.5,63 c 3.575,0 6.5,-0.389314 6.5,-0.865141 z M 25.75,45.919901 C 23.741151,44.749854 23.431648,40.968352 25.2,39.2 26.452923,37.947077 41.489406,37.4831 44.418213,38.606989 46.287006,39.324112 46.538458,44.061542 44.8,45.8 43.319071,47.280929 28.249587,47.375777 25.75,45.919901 Z M 54,44 c -0.76049,-1.420989 -0.76049,-2.579011 0,-4 1.006916,-1.88144 2.093823,-2 18.335184,-2 C 90.117575,38 92,37.60479 92,33.871429 c 0,-0.950715 -0.707143,-2.435715 -1.571429,-3.3 C 89.089565,29.232423 85.397138,29 65.463755,29 44.193884,29 41.988666,28.841145 41.170311,27.25 40.172157,25.309265 40.714295,22.891096 42.399944,21.765313 43.004975,21.361235 49.3725,21.023735 56.55,21.015313 70.356652,20.999112 72,20.501308 72,16.335184 72,13.424944 69.267966,12 63.688186,12 58.183445,12 56.175761,10.104424 57.831539,6.4703861 L 58.957122,4 H 75 91.042878 l 1.1926,2.6174725 c 1.04753,2.2990789 0.919922,2.8382735 -1.049048,4.4326495 -1.553961,1.258321 -3.233768,1.654177 -5.47565,1.29037 -4.483455,-0.727565 -7.562735,2.494255 -5.890883,6.16357 C 80.95008,20.984545 81.040092,21 94.356116,21 109.01565,21 110.80779,21.645389 109.59262,26.487014 109.07713,28.54086 108.35422,29 105.63594,29 101.01662,29 98.260682,32.081957 99.819897,35.504062 100.94081,37.964189 101.12991,38 113,38 c 11.83682,0 12.06214,0.04227 13.16846,2.470386 0.86067,1.888955 0.8268,2.830397 -0.14388,4 C 124.92969,45.789648 119.96359,46 89.912739,46 56.093823,46 55.038927,45.941252 54,44 Z"
         id="path7" />
      <path
         style="fill:#05adca"
         d="M 58.571429,113.42857 C 56.692415,111.54956 56.570243,109.82976 58.2,108.2 c 1.679907,-1.67991 31.920093,-1.67991 33.6,0 1.629757,1.62976 1.507585,3.34956 -0.371429,5.22857 -2.317105,2.31711 -30.540037,2.31711 -32.857142,0 z M 41.013458,95.025146 C 40.241458,93.582651 40.237586,92.424583 41,91 c 0.869207,-1.624128 2.093823,-2 6.516132,-2 4.973526,0 5.500127,-0.216598 6.072663,-2.497764 C 54.898441,81.284188 54.176071,81 39.602813,81 28.699823,81 25.844335,80.701478 24.571429,79.428571 22.780524,77.637667 22.617914,76.154726 23.976164,74 24.718583,72.822228 27.99128,72.392591 39.210851,72 L 53.5,71.5 53.835788,68.549314 C 54.429028,63.336302 52.91349,63 28.827922,63 H 7.0381041 L 6.4073847,60.487014 C 5.0509426,55.082518 5.54241,55 39.087261,55 68.906177,55 69.965151,55.066367 71,57 c 1.617973,3.02321 -0.372573,6 -4.012131,6 -3.879949,0 -6.666024,3.864339 -5.012974,6.953091 1.084858,2.027076 1.713502,2.079423 21.821072,1.817058 L 104.5,71.5 l 0.30107,-3.085175 c 0.16826,-1.724296 -0.29969,-3.583755 -1.06087,-4.21548 C 102.9534,63.546363 97.547565,62.948888 90.939131,62.78452 79.853548,62.508794 79.489901,62.428758 79.173236,60.194958 78.496282,55.419618 79.994295,55 97.718958,55 h 16.474072 l -0.61478,5.25 c -0.78177,6.676168 -0.78272,9.132031 -0.006,15 L 114.20139,80 H 100.7577 c -7.394035,0 -18.936153,0.295327 -25.649154,0.656282 -10.431715,0.560909 -12.348853,0.924218 -13.192186,2.5 -1.770498,3.308206 0.550868,5.841527 5.368824,5.859031 5.495061,0.01996 6.950356,1.041288 6.544892,4.593194 L 73.5,96.5 57.798641,96.775146 c -14.890158,0.260931 -15.757353,0.170518 -16.785183,-1.75 z m 47.026368,0.522842 c -0.662784,-0.798607 -0.91256,-2.373607 -0.555057,-3.5 C 88.082173,90.165734 88.935729,90 98.032204,90 c 8.457496,0 10.035696,0.258357 10.847816,1.775823 0.60291,1.126536 0.5976,2.406227 -0.0145,3.5 C 108.05963,96.71587 106.36346,97 98.572755,97 91.638282,97 88.935688,96.627435 88.039826,95.547988 Z M 162.09942,79.619797 c -0.79203,-0.954347 -1.06122,-7.048132 -0.87244,-19.75 L 161.5,41.5 174.26986,41.219975 c 10.75955,-0.235942 12.86306,-0.03715 13.36188,1.262735 C 188.8966,45.778886 186.12469,47 177.37756,47 H 169 v 4.957936 4.957935 l 7.75,0.292065 c 7.52212,0.283476 7.75,0.365575 7.75,2.792064 0,2.426489 -0.22788,2.508588 -7.75,2.792064 L 169,63.084129 v 6.735429 c 0,9.068444 -3.44611,13.962623 -6.90058,9.800239 z m 35.368,-0.561622 C 192.15725,76.356016 189.99906,72.53551 190.00374,65.845708 190.0102,56.610907 195.30006,51 204,51 c 10.97314,0 17.65688,10.31933 13.46664,20.791762 -3.1846,7.959099 -12.20052,11.234898 -19.99922,7.266413 z M 209,73 c 3.05666,-3.05666 2.79932,-11.291591 -0.45455,-14.545455 -4.91663,-4.916636 -10.51251,-1.884055 -11.27268,6.109024 -0.38127,4.008972 -0.0616,5.453103 1.70146,7.686431 2.63539,3.338352 7.10319,3.672576 10.02577,0.75 z m 21.33266,7.3051 c -3.40214,-0.663272 -7.51413,-5.010762 -7.15026,-7.559784 0.48132,-3.371808 3.5038,-3.292749 6.74449,0.176415 3.2252,3.452588 7.94091,4.147412 10.14268,1.494446 2.08608,-2.513572 5e-5,-4.535786 -7.05435,-6.838542 -10.35906,-3.381489 -12.94141,-10.133343 -5.63293,-14.727925 4.77287,-3.000532 14.08061,-2.175446 17.26857,1.530776 2.85156,3.315134 2.92163,4.242758 0.4216,5.580737 -1.53579,0.821926 -2.54634,0.510911 -4.97213,-1.530254 -3.58142,-3.013565 -9.3577,-3.125424 -9.91335,-0.191973 -0.35735,1.886592 1.68033,3.029639 8.43247,4.730251 6.10169,1.536787 9.38055,4.496313 9.38055,8.46697 0,6.911033 -7.75122,10.802094 -17.66734,8.868883 z m 29.30989,-0.281493 C 255.62194,78.745835 253,76.097279 253,73.313628 c 0,-3.699702 2.60563,-3.867072 6.5321,-0.419584 3.85875,3.388023 7.46572,3.965278 9.85398,1.577017 2.47982,-2.479815 0.8491,-4.229738 -6.09506,-6.540605 -10.32306,-3.435294 -12.88393,-7.804494 -7.94188,-13.54997 C 258.58279,50.621152 267.8429,49.84934 272.75,52.93016 276.83132,55.492531 277.40831,60 273.65499,60 c -1.28976,0 -3.17926,-0.921829 -4.19889,-2.048508 -2.52269,-2.787545 -8.9561,-2.41532 -8.9561,0.518184 0,1.558373 1.56147,2.498053 7.47765,4.5 5.62999,1.905103 7.84566,3.193005 8.96699,5.212251 4.15442,7.481132 -7.00044,15.115602 -17.30209,11.84168 z m 26.73974,-0.932197 c -5.44629,-3.321033 -5.26993,-10.594127 0.32475,-13.392726 1.53613,-0.768409 5.60546,-1.976452 9.04296,-2.684539 3.4375,-0.708087 6.25,-1.705526 6.25,-2.21653 0,-5.512691 -7.45017,-6.6179 -11.88442,-1.763016 C 286.9954,62.450759 284,62.221889 284,58.567325 284,54.582431 288.34265,51.675168 295.01602,51.19246 306.01596,50.396797 309,53.301289 309,64.803655 c 0,3.690252 0.41842,8.16851 0.92983,9.951686 0.71376,2.488712 0.58096,3.591008 -0.57143,4.743398 -1.93526,1.935265 -2.30758,1.89763 -4.84929,-0.490182 -2.11676,-1.98859 -2.12539,-1.98859 -6.02589,0 -4.88598,2.491011 -8.11544,2.513122 -12.10093,0.08285 z m 13.16316,-5.545955 c 2.9404,-2.9404 3.43546,-7.971644 0.70455,-7.16033 -0.9625,0.285945 -3.1,0.828318 -4.75,1.205275 -3.80495,0.869272 -5.5,2.204372 -5.5,4.332045 0,4.462264 5.73165,5.436814 9.54545,1.62301 z M 321.775,79.25 c -2.23781,-2.551283 -9.22917,-24.624066 -8.44595,-26.665119 0.41489,-1.081171 1.49207,-1.605651 2.88563,-1.405018 1.87267,0.26961 2.70753,1.886197 5.28965,10.24265 l 3.06603,9.922513 2.99811,-9.922513 c 2.55889,-8.468857 3.33092,-9.970384 5.26986,-10.249277 3.5361,-0.508624 4.77334,1.250637 7.28742,10.362132 C 341.41033,66.190915 342.72362,70 343.04417,70 c 0.32055,0 1.6358,-3.7125 2.92279,-8.25 2.6185,-9.231995 3.4782,-10.75 6.0881,-10.75 3.31303,0 3.02426,3.59684 -1.28435,15.997223 -6.03162,17.359321 -9.32005,18.547054 -13.58752,4.907623 C 335.90894,67.832181 334.61219,63.825 334.30152,63 c -0.31397,-0.833758 -1.81121,2.454151 -3.37094,7.402513 -3.3522,10.635106 -5.64457,12.85033 -9.15558,8.847487 z m 40.725,0.595268 c -3.06421,-1.675991 -4.5,-3.942036 -4.5,-7.102139 0,-5.889832 2.34946,-7.619999 13.25,-9.757434 4.34834,-0.852645 5.75,-1.548989 5.75,-2.856593 0,-5.041421 -7.63706,-5.744762 -11.88442,-1.094503 -1.85192,2.027594 -3.3265,2.821694 -4.44363,2.393011 -2.46895,-0.947424 -2.03127,-4.741418 0.86036,-7.45796 3.34198,-3.13963 13.55636,-4.009398 18.29684,-1.558001 3.58968,1.856295 3.91751,2.921682 4.48897,14.588351 0.22899,4.675 0.736,9.252989 1.12668,10.173308 0.49082,1.156225 0.0392,2.032501 -1.46159,2.835678 -1.81265,0.9701 -2.53763,0.818789 -4.3829,-0.914751 l -2.211,-2.077121 -3.90609,1.991443 c -4.33697,2.211109 -7.96508,2.487502 -10.98322,0.836711 z m 11.86514,-5.917848 c 3.18415,-2.504654 3.87954,-8.431973 0.88486,-7.542295 -0.9625,0.285945 -3.1,0.828318 -4.75,1.205275 -3.80495,0.869272 -5.5,2.204372 -5.5,4.332045 0,4.262604 5.10547,5.35563 9.36514,2.004975 z m 18.7275,5.684207 c -0.77596,-0.934975 -1.06087,-5.747816 -0.87244,-14.737654 0.25747,-12.283971 0.43413,-13.378895 2.2137,-13.720368 1.06365,-0.204097 2.51899,0.429068 3.2341,1.407035 1.21617,1.663218 1.41939,1.670245 3.14484,0.10874 3.89535,-3.525248 12.24498,-0.589595 10.58996,3.723332 -0.49935,1.301284 -1.68064,1.616918 -5.21946,1.394618 -4.01257,-0.25206 -4.73238,0.01955 -5.86395,2.21267 -0.73463,1.4238 -1.29625,5.965363 -1.30465,10.55 -0.0144,7.843016 -0.91054,10.45 -3.5923,10.45 -0.64765,0 -1.69606,-0.624768 -2.3298,-1.388373 z m 29.54991,0.411451 c -8.24002,-2.617197 -12.07918,-13.085999 -7.97259,-21.740009 4.64684,-9.792478 20.2895,-9.726993 24.97785,0.104564 2.01323,4.221791 1.18658,8.155665 -1.88687,8.97922 -1.24352,0.333211 -5.52344,0.611982 -9.51094,0.619492 -6.53069,0.0123 -7.25,0.208222 -7.25,1.9747 0,2.55306 3.78032,6.038955 6.54901,6.038955 1.19455,0 3.82968,-1.125 5.85585,-2.5 C 438.09015,70.32048 440,70.300761 440,73.431906 c 0,4.940241 -10.27316,8.841285 -17.35745,6.591172 z M 434,62.134859 c 0,-0.475828 -0.93266,-2.050828 -2.07258,-3.5 -2.64659,-3.364598 -7.16366,-3.563368 -9.37072,-0.412353 C 419.72809,62.260919 420.49282,63 427.5,63 c 3.575,0 6.5,-0.389314 6.5,-0.865141 z M 25.75,45.919901 C 23.741151,44.749854 23.431648,40.968352 25.2,39.2 25.947287,38.452713 29.644444,38 35,38 c 5.355556,0 9.052713,0.452713 9.8,1.2 1.83712,1.83712 1.42786,5.607686 -0.734259,6.764816 C 41.587305,47.291235 28.04743,47.258032 25.75,45.919901 Z M 54.666667,45.333333 C 53.355679,44.022346 54.010402,39.209986 55.581787,38.606989 56.451771,38.273145 64.461771,38 73.381787,38 90.398674,38 92,37.612961 92,33.5 92,29.20845 90.78799,29 65.835184,29 44.211571,29 41.989273,28.842326 41.170311,27.25 40.172157,25.309265 40.714295,22.891096 42.399944,21.765313 43.004975,21.361235 49.3725,21.023735 56.55,21.015313 70.242939,20.999246 72,20.485739 72,16.5 72,13.187585 70.000223,12 64.422445,12 58.157915,12 56.099091,10.272695 57.831539,6.4703861 L 58.957122,4 74.228561,4.0153128 c 8.399292,0.00842 15.754263,0.345922 16.344381,0.75 1.812239,1.2409149 2.350932,3.9597393 1.108374,5.5940492 -0.721829,0.949406 -3.118746,1.667896 -6.162346,1.847199 -4.388031,0.258505 -5.093058,0.613718 -5.92203,2.983692 C 77.84206,20.207335 79.729582,21 93.431315,21 c 13.404125,0 16.008435,0.851997 15.413655,5.042564 -0.27772,1.956713 -1.09629,2.55195 -4.19913,3.053484 -3.8991,0.630242 -5.60262,2.129057 -5.630527,4.953952 -0.02883,2.918141 2.312087,3.95 8.961117,3.95 h 6.57642 l -0.38146,4 -0.38146,4 H 84.561631 C 68.486067,46 55.033333,45.7 54.666667,45.333333 Z"
         id="path6" />
      <path
         style="fill:#068dd7"
         d="M 58.571429,113.42857 C 57.707143,112.56429 57,111.30429 57,110.62857 57,107.57815 59.501539,107 72.7,107 H 86 v 3.3554 3.35539 l -6.75,0.6375 c -11.842711,1.11847 -18.956797,0.80206 -20.678571,-0.91972 z M 41,95 c -0.76049,-1.420989 -0.76049,-2.579011 0,-4 0.869207,-1.624128 2.093823,-2 6.516132,-2 4.973526,0 5.500127,-0.216598 6.072663,-2.497764 C 54.898441,81.284188 54.176071,81 39.602813,81 28.699823,81 25.844335,80.701478 24.571429,79.428571 22.780524,77.637667 22.617914,76.154726 23.976164,74 24.718583,72.822228 27.99128,72.392591 39.210851,72 L 53.5,71.5 53.835788,68.549314 C 54.429028,63.336302 52.91349,63 28.827922,63 H 7.0381041 L 6.4073847,60.487014 C 5.0506641,55.081409 5.5365227,55 39.154669,55 h 30.909779 l 0.84961,2.25 c 1.23868,3.280366 -0.447624,5.75 -3.926189,5.75 -3.840462,0 -6.665013,3.866228 -5.041196,6.900357 0.980434,1.831957 2.206896,2.062602 12.321072,2.317058 L 85.5,72.5 85.810365,76.25 86.120731,80 79.810365,80.0087 C 64.483287,80.029804 59.348409,82.045457 62,87 c 0.813504,1.520047 2.093823,2 5.335184,2 2.345649,0 4.804816,0.54 5.464816,1.2 1.714437,1.714437 1.482443,5.477639 -0.381787,6.193011 C 71.548229,96.726855 64.364062,97 56.453396,97 43.093823,97 41.994203,96.857686 41,95 Z M 162.09942,79.619797 c -0.79203,-0.954347 -1.06122,-7.048132 -0.87244,-19.75 L 161.5,41.5 174.26986,41.219975 c 10.75955,-0.235942 12.86306,-0.03715 13.36188,1.262735 C 188.8966,45.778886 186.12469,47 177.37756,47 H 169 v 4.957936 4.957935 l 7.75,0.292065 c 7.52212,0.283476 7.75,0.365575 7.75,2.792064 0,2.426489 -0.22788,2.508588 -7.75,2.792064 L 169,63.084129 v 6.735429 c 0,9.068444 -3.44611,13.962623 -6.90058,9.800239 z m 35.368,-0.561622 C 192.15725,76.356016 189.99906,72.53551 190.00374,65.845708 190.0102,56.610907 195.30006,51 204,51 c 10.97314,0 17.65688,10.31933 13.46664,20.791762 -3.1846,7.959099 -12.20052,11.234898 -19.99922,7.266413 z M 209,73 c 3.05666,-3.05666 2.79932,-11.291591 -0.45455,-14.545455 -4.91663,-4.916636 -10.51251,-1.884055 -11.27268,6.109024 -0.38127,4.008972 -0.0616,5.453103 1.70146,7.686431 2.63539,3.338352 7.10319,3.672576 10.02577,0.75 z m 21.33266,7.3051 c -3.40214,-0.663272 -7.51413,-5.010762 -7.15026,-7.559784 0.48132,-3.371808 3.5038,-3.292749 6.74449,0.176415 3.2252,3.452588 7.94091,4.147412 10.14268,1.494446 2.08608,-2.513572 5e-5,-4.535786 -7.05435,-6.838542 -10.35906,-3.381489 -12.94141,-10.133343 -5.63293,-14.727925 4.77287,-3.000532 14.08061,-2.175446 17.26857,1.530776 2.85156,3.315134 2.92163,4.242758 0.4216,5.580737 -1.53579,0.821926 -2.54634,0.510911 -4.97213,-1.530254 -3.58142,-3.013565 -9.3577,-3.125424 -9.91335,-0.191973 -0.35735,1.886592 1.68033,3.029639 8.43247,4.730251 6.10169,1.536787 9.38055,4.496313 9.38055,8.46697 0,6.911033 -7.75122,10.802094 -17.66734,8.868883 z m 29.30989,-0.281493 C 255.62194,78.745835 253,76.097279 253,73.313628 c 0,-3.699702 2.60563,-3.867072 6.5321,-0.419584 3.85875,3.388023 7.46572,3.965278 9.85398,1.577017 2.47982,-2.479815 0.8491,-4.229738 -6.09506,-6.540605 -10.32306,-3.435294 -12.88393,-7.804494 -7.94188,-13.54997 C 258.58279,50.621152 267.8429,49.84934 272.75,52.93016 276.83132,55.492531 277.40831,60 273.65499,60 c -1.28976,0 -3.17926,-0.921829 -4.19889,-2.048508 -2.52269,-2.787545 -8.9561,-2.41532 -8.9561,0.518184 0,1.558373 1.56147,2.498053 7.47765,4.5 5.62999,1.905103 7.84566,3.193005 8.96699,5.212251 4.15442,7.481132 -7.00044,15.115602 -17.30209,11.84168 z m 26.73974,-0.932197 c -5.44629,-3.321033 -5.26993,-10.594127 0.32475,-13.392726 1.53613,-0.768409 5.60546,-1.976452 9.04296,-2.684539 3.4375,-0.708087 6.25,-1.705526 6.25,-2.21653 0,-5.512691 -7.45017,-6.6179 -11.88442,-1.763016 C 286.9954,62.450759 284,62.221889 284,58.567325 284,54.582431 288.34265,51.675168 295.01602,51.19246 306.01596,50.396797 309,53.301289 309,64.803655 c 0,3.690252 0.41842,8.16851 0.92983,9.951686 0.71376,2.488712 0.58096,3.591008 -0.57143,4.743398 -1.93526,1.935265 -2.30758,1.89763 -4.84929,-0.490182 -2.11676,-1.98859 -2.12539,-1.98859 -6.02589,0 -4.88598,2.491011 -8.11544,2.513122 -12.10093,0.08285 z m 13.16316,-5.545955 c 2.9404,-2.9404 3.43546,-7.971644 0.70455,-7.16033 -0.9625,0.285945 -3.1,0.828318 -4.75,1.205275 -3.80495,0.869272 -5.5,2.204372 -5.5,4.332045 0,4.462264 5.73165,5.436814 9.54545,1.62301 z M 321.775,79.25 c -2.23781,-2.551283 -9.22917,-24.624066 -8.44595,-26.665119 0.41489,-1.081171 1.49207,-1.605651 2.88563,-1.405018 1.87267,0.26961 2.70753,1.886197 5.28965,10.24265 l 3.06603,9.922513 2.99811,-9.922513 c 2.55889,-8.468857 3.33092,-9.970384 5.26986,-10.249277 3.5361,-0.508624 4.77334,1.250637 7.28742,10.362132 C 341.41033,66.190915 342.72362,70 343.04417,70 c 0.32055,0 1.6358,-3.7125 2.92279,-8.25 2.6185,-9.231995 3.4782,-10.75 6.0881,-10.75 3.31303,0 3.02426,3.59684 -1.28435,15.997223 -6.03162,17.359321 -9.32005,18.547054 -13.58752,4.907623 C 335.90894,67.832181 334.61219,63.825 334.30152,63 c -0.31397,-0.833758 -1.81121,2.454151 -3.37094,7.402513 -3.3522,10.635106 -5.64457,12.85033 -9.15558,8.847487 z m 40.725,0.595268 c -3.06421,-1.675991 -4.5,-3.942036 -4.5,-7.102139 0,-5.889832 2.34946,-7.619999 13.25,-9.757434 4.34834,-0.852645 5.75,-1.548989 5.75,-2.856593 0,-5.041421 -7.63706,-5.744762 -11.88442,-1.094503 -1.85192,2.027594 -3.3265,2.821694 -4.44363,2.393011 -2.46895,-0.947424 -2.03127,-4.741418 0.86036,-7.45796 3.34198,-3.13963 13.55636,-4.009398 18.29684,-1.558001 3.58968,1.856295 3.91751,2.921682 4.48897,14.588351 0.22899,4.675 0.736,9.252989 1.12668,10.173308 0.49082,1.156225 0.0392,2.032501 -1.46159,2.835678 -1.81265,0.9701 -2.53763,0.818789 -4.3829,-0.914751 l -2.211,-2.077121 -3.90609,1.991443 c -4.33697,2.211109 -7.96508,2.487502 -10.98322,0.836711 z m 11.86514,-5.917848 c 3.18415,-2.504654 3.87954,-8.431973 0.88486,-7.542295 -0.9625,0.285945 -3.1,0.828318 -4.75,1.205275 -3.80495,0.869272 -5.5,2.204372 -5.5,4.332045 0,4.262604 5.10547,5.35563 9.36514,2.004975 z m 18.7275,5.684207 c -0.77596,-0.934975 -1.06087,-5.747816 -0.87244,-14.737654 0.25747,-12.283971 0.43413,-13.378895 2.2137,-13.720368 1.06365,-0.204097 2.51899,0.429068 3.2341,1.407035 1.21617,1.663218 1.41939,1.670245 3.14484,0.10874 3.89535,-3.525248 12.24498,-0.589595 10.58996,3.723332 -0.49935,1.301284 -1.68064,1.616918 -5.21946,1.394618 -4.01257,-0.25206 -4.73238,0.01955 -5.86395,2.21267 -0.73463,1.4238 -1.29625,5.965363 -1.30465,10.55 -0.0144,7.843016 -0.91054,10.45 -3.5923,10.45 -0.64765,0 -1.69606,-0.624768 -2.3298,-1.388373 z m 29.54991,0.411451 c -8.24002,-2.617197 -12.07918,-13.085999 -7.97259,-21.740009 4.64684,-9.792478 20.2895,-9.726993 24.97785,0.104564 2.01323,4.221791 1.18658,8.155665 -1.88687,8.97922 -1.24352,0.333211 -5.52344,0.611982 -9.51094,0.619492 -6.53069,0.0123 -7.25,0.208222 -7.25,1.9747 0,2.55306 3.78032,6.038955 6.54901,6.038955 1.19455,0 3.82968,-1.125 5.85585,-2.5 C 438.09015,70.32048 440,70.300761 440,73.431906 c 0,4.940241 -10.27316,8.841285 -17.35745,6.591172 z M 434,62.134859 c 0,-0.475828 -0.93266,-2.050828 -2.07258,-3.5 -2.64659,-3.364598 -7.16366,-3.563368 -9.37072,-0.412353 C 419.72809,62.260919 420.49282,63 427.5,63 c 3.575,0 6.5,-0.389314 6.5,-0.865141 z M 80.2,61.8 C 77.498212,59.098212 79.607586,55 83.7,55 c 2.016667,0 2.3,0.492754 2.3,4 0,3.507246 -0.283333,4 -2.3,4 -1.265,0 -2.84,-0.54 -3.5,-1.2 z M 25.75,45.919901 C 23.741151,44.749854 23.431648,40.968352 25.2,39.2 25.947287,38.452713 29.644444,38 35,38 c 5.355556,0 9.052713,0.452713 9.8,1.2 1.83712,1.83712 1.42786,5.607686 -0.734259,6.764816 C 41.587305,47.291235 28.04743,47.258032 25.75,45.919901 Z M 54.666667,45.333333 C 53.355679,44.022346 54.010402,39.209986 55.581787,38.606989 56.451771,38.273145 63.651771,38 71.581787,38 H 86 v 4 4 H 70.666667 c -8.433334,0 -15.633334,-0.3 -16,-0.666667 z M 41.170311,27.25 c -0.998154,-1.940735 -0.456016,-4.358904 1.229633,-5.484687 0.605031,-0.404078 7.278983,-0.741578 14.831004,-0.75 L 70.961896,21 71.628202,18.345223 C 72.700669,14.072176 70.976014,12.536516 64.729576,12.202575 58.108847,11.848625 56.130209,10.204399 57.831539,6.4703861 58.947781,4.0205018 59.069337,4 72.478561,4 H 86 v 4 c 0,3.545066 -0.270407,4 -2.377555,4 -5.542,0 -6.191566,6.538619 -0.894087,9 2.658357,1.23516 3.232178,2.073821 3.25,4.75 L 86,29 H 64.035184 C 44.125856,29 41.986139,28.836233 41.170311,27.25 Z"
         id="path5" />
      <path
         style="fill:#0775e3"
         d="M 42.2,95.8 C 41.54,95.14 41,93.88 41,93 c 0,-2.755176 2.229733,-4 7.164816,-4 5.643885,0 7.857343,-2.46119 5.959504,-6.626493 C 53.061185,80.040181 52.806106,80 39.056623,80 26.252278,80 24.982889,79.836545 24.035184,78.065741 22.69639,75.564183 22.712339,75.430518 24.571429,73.571429 25.848302,72.294555 28.731821,72 39.954797,72 53.432964,72 53.781309,71.945628 54.369714,69.75 55.223949,66.562434 55.180499,66.323356 53.428571,64.571429 52.096085,63.238942 48.541434,63 30.051016,63 11.70011,63 8.0437401,62.75763 6.9754227,61.470386 c -0.9706847,-1.169603 -1.0045492,-2.111045 -0.1438835,-4 L 7.9571224,55 H 32.478561 57 v 21 21 h -6.8 c -3.955556,0 -7.301961,-0.501961 -8,-1.2 z M 162.09942,79.619797 c -0.79203,-0.954347 -1.06122,-7.048132 -0.87244,-19.75 L 161.5,41.5 174.26986,41.219975 c 10.75955,-0.235942 12.86306,-0.03715 13.36188,1.262735 C 188.8966,45.778886 186.12469,47 177.37756,47 H 169 v 4.957936 4.957935 l 7.75,0.292065 c 7.52212,0.283476 7.75,0.365575 7.75,2.792064 0,2.426489 -0.22788,2.508588 -7.75,2.792064 L 169,63.084129 v 6.735429 c 0,9.068444 -3.44611,13.962623 -6.90058,9.800239 z m 35.368,-0.561622 C 192.15725,76.356016 189.99906,72.53551 190.00374,65.845708 190.0102,56.610907 195.30006,51 204,51 c 10.97314,0 17.65688,10.31933 13.46664,20.791762 -3.1846,7.959099 -12.20052,11.234898 -19.99922,7.266413 z M 209,73 c 3.05666,-3.05666 2.79932,-11.291591 -0.45455,-14.545455 -4.91663,-4.916636 -10.51251,-1.884055 -11.27268,6.109024 -0.38127,4.008972 -0.0616,5.453103 1.70146,7.686431 2.63539,3.338352 7.10319,3.672576 10.02577,0.75 z m 21.33266,7.3051 c -3.40214,-0.663272 -7.51413,-5.010762 -7.15026,-7.559784 0.48132,-3.371808 3.5038,-3.292749 6.74449,0.176415 3.2252,3.452588 7.94091,4.147412 10.14268,1.494446 2.08608,-2.513572 5e-5,-4.535786 -7.05435,-6.838542 -10.35906,-3.381489 -12.94141,-10.133343 -5.63293,-14.727925 4.77287,-3.000532 14.08061,-2.175446 17.26857,1.530776 2.85156,3.315134 2.92163,4.242758 0.4216,5.580737 -1.53579,0.821926 -2.54634,0.510911 -4.97213,-1.530254 -3.58142,-3.013565 -9.3577,-3.125424 -9.91335,-0.191973 -0.35735,1.886592 1.68033,3.029639 8.43247,4.730251 6.10169,1.536787 9.38055,4.496313 9.38055,8.46697 0,6.911033 -7.75122,10.802094 -17.66734,8.868883 z m 29.30989,-0.281493 C 255.62194,78.745835 253,76.097279 253,73.313628 c 0,-3.699702 2.60563,-3.867072 6.5321,-0.419584 3.85875,3.388023 7.46572,3.965278 9.85398,1.577017 2.47982,-2.479815 0.8491,-4.229738 -6.09506,-6.540605 -10.32306,-3.435294 -12.88393,-7.804494 -7.94188,-13.54997 C 258.58279,50.621152 267.8429,49.84934 272.75,52.93016 276.83132,55.492531 277.40831,60 273.65499,60 c -1.28976,0 -3.17926,-0.921829 -4.19889,-2.048508 -2.52269,-2.787545 -8.9561,-2.41532 -8.9561,0.518184 0,1.558373 1.56147,2.498053 7.47765,4.5 5.62999,1.905103 7.84566,3.193005 8.96699,5.212251 4.15442,7.481132 -7.00044,15.115602 -17.30209,11.84168 z m 26.73974,-0.932197 c -5.44629,-3.321033 -5.26993,-10.594127 0.32475,-13.392726 1.53613,-0.768409 5.60546,-1.976452 9.04296,-2.684539 3.4375,-0.708087 6.25,-1.705526 6.25,-2.21653 0,-5.512691 -7.45017,-6.6179 -11.88442,-1.763016 C 286.9954,62.450759 284,62.221889 284,58.567325 284,54.582431 288.34265,51.675168 295.01602,51.19246 306.01596,50.396797 309,53.301289 309,64.803655 c 0,3.690252 0.41842,8.16851 0.92983,9.951686 0.71376,2.488712 0.58096,3.591008 -0.57143,4.743398 -1.93526,1.935265 -2.30758,1.89763 -4.84929,-0.490182 -2.11676,-1.98859 -2.12539,-1.98859 -6.02589,0 -4.88598,2.491011 -8.11544,2.513122 -12.10093,0.08285 z m 13.16316,-5.545955 c 2.9404,-2.9404 3.43546,-7.971644 0.70455,-7.16033 -0.9625,0.285945 -3.1,0.828318 -4.75,1.205275 -3.80495,0.869272 -5.5,2.204372 -5.5,4.332045 0,4.462264 5.73165,5.436814 9.54545,1.62301 z M 321.775,79.25 c -2.23781,-2.551283 -9.22917,-24.624066 -8.44595,-26.665119 0.41489,-1.081171 1.49207,-1.605651 2.88563,-1.405018 1.87267,0.26961 2.70753,1.886197 5.28965,10.24265 l 3.06603,9.922513 2.99811,-9.922513 c 2.55889,-8.468857 3.33092,-9.970384 5.26986,-10.249277 3.5361,-0.508624 4.77334,1.250637 7.28742,10.362132 C 341.41033,66.190915 342.72362,70 343.04417,70 c 0.32055,0 1.6358,-3.7125 2.92279,-8.25 2.6185,-9.231995 3.4782,-10.75 6.0881,-10.75 3.31303,0 3.02426,3.59684 -1.28435,15.997223 -6.03162,17.359321 -9.32005,18.547054 -13.58752,4.907623 C 335.90894,67.832181 334.61219,63.825 334.30152,63 c -0.31397,-0.833758 -1.81121,2.454151 -3.37094,7.402513 -3.3522,10.635106 -5.64457,12.85033 -9.15558,8.847487 z m 40.725,0.595268 c -3.06421,-1.675991 -4.5,-3.942036 -4.5,-7.102139 0,-5.889832 2.34946,-7.619999 13.25,-9.757434 4.34834,-0.852645 5.75,-1.548989 5.75,-2.856593 0,-5.041421 -7.63706,-5.744762 -11.88442,-1.094503 -1.85192,2.027594 -3.3265,2.821694 -4.44363,2.393011 -2.46895,-0.947424 -2.03127,-4.741418 0.86036,-7.45796 3.34198,-3.13963 13.55636,-4.009398 18.29684,-1.558001 3.58968,1.856295 3.91751,2.921682 4.48897,14.588351 0.22899,4.675 0.736,9.252989 1.12668,10.173308 0.49082,1.156225 0.0392,2.032501 -1.46159,2.835678 -1.81265,0.9701 -2.53763,0.818789 -4.3829,-0.914751 l -2.211,-2.077121 -3.90609,1.991443 c -4.33697,2.211109 -7.96508,2.487502 -10.98322,0.836711 z m 11.86514,-5.917848 c 3.18415,-2.504654 3.87954,-8.431973 0.88486,-7.542295 -0.9625,0.285945 -3.1,0.828318 -4.75,1.205275 -3.80495,0.869272 -5.5,2.204372 -5.5,4.332045 0,4.262604 5.10547,5.35563 9.36514,2.004975 z m 18.7275,5.684207 c -0.77596,-0.934975 -1.06087,-5.747816 -0.87244,-14.737654 0.25747,-12.283971 0.43413,-13.378895 2.2137,-13.720368 1.06365,-0.204097 2.51899,0.429068 3.2341,1.407035 1.21617,1.663218 1.41939,1.670245 3.14484,0.10874 3.89535,-3.525248 12.24498,-0.589595 10.58996,3.723332 -0.49935,1.301284 -1.68064,1.616918 -5.21946,1.394618 -4.01257,-0.25206 -4.73238,0.01955 -5.86395,2.21267 -0.73463,1.4238 -1.29625,5.965363 -1.30465,10.55 -0.0144,7.843016 -0.91054,10.45 -3.5923,10.45 -0.64765,0 -1.69606,-0.624768 -2.3298,-1.388373 z m 29.54991,0.411451 c -8.24002,-2.617197 -12.07918,-13.085999 -7.97259,-21.740009 4.64684,-9.792478 20.2895,-9.726993 24.97785,0.104564 2.01323,4.221791 1.18658,8.155665 -1.88687,8.97922 -1.24352,0.333211 -5.52344,0.611982 -9.51094,0.619492 -6.53069,0.0123 -7.25,0.208222 -7.25,1.9747 0,2.55306 3.78032,6.038955 6.54901,6.038955 1.19455,0 3.82968,-1.125 5.85585,-2.5 C 438.09015,70.32048 440,70.300761 440,73.431906 c 0,4.940241 -10.27316,8.841285 -17.35745,6.591172 z M 434,62.134859 c 0,-0.475828 -0.93266,-2.050828 -2.07258,-3.5 -2.64659,-3.364598 -7.16366,-3.563368 -9.37072,-0.412353 C 419.72809,62.260919 420.49282,63 427.5,63 c 3.575,0 6.5,-0.389314 6.5,-0.865141 z M 24.699448,45.366114 C 23.585185,44.251852 23.888847,40.511153 25.2,39.2 25.94895,38.45105 29.661679,38 35.077555,38 c 9.400656,0 11.351963,0.943042 10.749209,5.194958 -0.313284,2.20995 -0.741387,2.316708 -10.377316,2.587823 -5.527804,0.15553 -10.365304,-0.03197 -10.75,-0.416667 z M 55.039869,44.548039 C 53.600994,42.814301 54.000699,39.83198 55.75,39.249533 56.594874,38.968224 57,39.994694 57,42.416667 c 0,3.989776 -0.21961,4.228572 -1.960131,2.131372 z M 41.666667,28.333333 C 41.3,27.966667 41,26.632499 41,25.368517 41,21.969664 44.099196,20.798773 51.022323,21.582035 L 57,22.258333 V 25.629166 29 h -7.333333 c -4.033334,0 -7.633334,-0.3 -8,-0.666667 z"
         id="path4" />
      <path
         style="fill:#5c5c5c"
         d="m 162.09942,79.619797 c -0.79203,-0.954347 -1.06122,-7.048132 -0.87244,-19.75 L 161.5,41.5 174.26986,41.219975 c 10.75955,-0.235942 12.86306,-0.03715 13.36188,1.262735 C 188.8966,45.778886 186.12469,47 177.37756,47 H 169 v 4.957936 4.957935 l 7.75,0.292065 c 7.52212,0.283476 7.75,0.365575 7.75,2.792064 0,2.426489 -0.22788,2.508588 -7.75,2.792064 L 169,63.084129 v 6.735429 c 0,9.068444 -3.44611,13.962623 -6.90058,9.800239 z m 35.368,-0.561622 C 192.15725,76.356016 189.99906,72.53551 190.00374,65.845708 190.0102,56.610907 195.30006,51 204,51 c 10.97314,0 17.65688,10.31933 13.46664,20.791762 -3.1846,7.959099 -12.20052,11.234898 -19.99922,7.266413 z M 209,73 c 3.05666,-3.05666 2.79932,-11.291591 -0.45455,-14.545455 -4.91663,-4.916636 -10.51251,-1.884055 -11.27268,6.109024 -0.38127,4.008972 -0.0616,5.453103 1.70146,7.686431 2.63539,3.338352 7.10319,3.672576 10.02577,0.75 z m 21.33266,7.3051 c -3.40214,-0.663272 -7.51413,-5.010762 -7.15026,-7.559784 0.48132,-3.371808 3.5038,-3.292749 6.74449,0.176415 3.2252,3.452588 7.94091,4.147412 10.14268,1.494446 2.08608,-2.513572 5e-5,-4.535786 -7.05435,-6.838542 -10.35906,-3.381489 -12.94141,-10.133343 -5.63293,-14.727925 4.77287,-3.000532 14.08061,-2.175446 17.26857,1.530776 2.85156,3.315134 2.92163,4.242758 0.4216,5.580737 -1.53579,0.821926 -2.54634,0.510911 -4.97213,-1.530254 -3.58142,-3.013565 -9.3577,-3.125424 -9.91335,-0.191973 -0.35735,1.886592 1.68033,3.029639 8.43247,4.730251 6.10169,1.536787 9.38055,4.496313 9.38055,8.46697 0,6.911033 -7.75122,10.802094 -17.66734,8.868883 z m 29.30989,-0.281493 C 255.62194,78.745835 253,76.097279 253,73.313628 c 0,-3.699702 2.60563,-3.867072 6.5321,-0.419584 3.85875,3.388023 7.46572,3.965278 9.85398,1.577017 2.47982,-2.479815 0.8491,-4.229738 -6.09506,-6.540605 -10.32306,-3.435294 -12.88393,-7.804494 -7.94188,-13.54997 C 258.58279,50.621152 267.8429,49.84934 272.75,52.93016 276.83132,55.492531 277.40831,60 273.65499,60 c -1.28976,0 -3.17926,-0.921829 -4.19889,-2.048508 -2.52269,-2.787545 -8.9561,-2.41532 -8.9561,0.518184 0,1.558373 1.56147,2.498053 7.47765,4.5 5.62999,1.905103 7.84566,3.193005 8.96699,5.212251 4.15442,7.481132 -7.00044,15.115602 -17.30209,11.84168 z m 26.73974,-0.932197 c -5.44629,-3.321033 -5.26993,-10.594127 0.32475,-13.392726 1.53613,-0.768409 5.60546,-1.976452 9.04296,-2.684539 3.4375,-0.708087 6.25,-1.705526 6.25,-2.21653 0,-5.512691 -7.45017,-6.6179 -11.88442,-1.763016 C 286.9954,62.450759 284,62.221889 284,58.567325 284,54.582431 288.34265,51.675168 295.01602,51.19246 306.01596,50.396797 309,53.301289 309,64.803655 c 0,3.690252 0.41842,8.16851 0.92983,9.951686 0.71376,2.488712 0.58096,3.591008 -0.57143,4.743398 -1.93526,1.935265 -2.30758,1.89763 -4.84929,-0.490182 -2.11676,-1.98859 -2.12539,-1.98859 -6.02589,0 -4.88598,2.491011 -8.11544,2.513122 -12.10093,0.08285 z m 13.16316,-5.545955 c 2.9404,-2.9404 3.43546,-7.971644 0.70455,-7.16033 -0.9625,0.285945 -3.1,0.828318 -4.75,1.205275 -3.80495,0.869272 -5.5,2.204372 -5.5,4.332045 0,4.462264 5.73165,5.436814 9.54545,1.62301 z M 321.775,79.25 c -2.23781,-2.551283 -9.22917,-24.624066 -8.44595,-26.665119 0.41489,-1.081171 1.49207,-1.605651 2.88563,-1.405018 1.87267,0.26961 2.70753,1.886197 5.28965,10.24265 l 3.06603,9.922513 2.99811,-9.922513 c 2.55889,-8.468857 3.33092,-9.970384 5.26986,-10.249277 3.5361,-0.508624 4.77334,1.250637 7.28742,10.362132 C 341.41033,66.190915 342.72362,70 343.04417,70 c 0.32055,0 1.6358,-3.7125 2.92279,-8.25 2.6185,-9.231995 3.4782,-10.75 6.0881,-10.75 3.31303,0 3.02426,3.59684 -1.28435,15.997223 -6.03162,17.359321 -9.32005,18.547054 -13.58752,4.907623 C 335.90894,67.832181 334.61219,63.825 334.30152,63 c -0.31397,-0.833758 -1.81121,2.454151 -3.37094,7.402513 -3.3522,10.635106 -5.64457,12.85033 -9.15558,8.847487 z m 40.725,0.595268 c -3.06421,-1.675991 -4.5,-3.942036 -4.5,-7.102139 0,-5.889832 2.34946,-7.619999 13.25,-9.757434 4.34834,-0.852645 5.75,-1.548989 5.75,-2.856593 0,-5.041421 -7.63706,-5.744762 -11.88442,-1.094503 -1.85192,2.027594 -3.3265,2.821694 -4.44363,2.393011 -2.46895,-0.947424 -2.03127,-4.741418 0.86036,-7.45796 3.34198,-3.13963 13.55636,-4.009398 18.29684,-1.558001 3.58968,1.856295 3.91751,2.921682 4.48897,14.588351 0.22899,4.675 0.736,9.252989 1.12668,10.173308 0.49082,1.156225 0.0392,2.032501 -1.46159,2.835678 -1.81265,0.9701 -2.53763,0.818789 -4.3829,-0.914751 l -2.211,-2.077121 -3.90609,1.991443 c -4.33697,2.211109 -7.96508,2.487502 -10.98322,0.836711 z m 11.86514,-5.917848 c 3.18415,-2.504654 3.87954,-8.431973 0.88486,-7.542295 -0.9625,0.285945 -3.1,0.828318 -4.75,1.205275 -3.80495,0.869272 -5.5,2.204372 -5.5,4.332045 0,4.262604 5.10547,5.35563 9.36514,2.004975 z m 18.7275,5.684207 c -0.77596,-0.934975 -1.06087,-5.747816 -0.87244,-14.737654 0.25747,-12.283971 0.43413,-13.378895 2.2137,-13.720368 1.06365,-0.204097 2.51899,0.429068 3.2341,1.407035 1.21617,1.663218 1.41939,1.670245 3.14484,0.10874 3.89535,-3.525248 12.24498,-0.589595 10.58996,3.723332 -0.49935,1.301284 -1.68064,1.616918 -5.21946,1.394618 -4.01257,-0.25206 -4.73238,0.01955 -5.86395,2.21267 -0.73463,1.4238 -1.29625,5.965363 -1.30465,10.55 -0.0144,7.843016 -0.91054,10.45 -3.5923,10.45 -0.64765,0 -1.69606,-0.624768 -2.3298,-1.388373 z m 29.54991,0.411451 c -8.24002,-2.617197 -12.07918,-13.085999 -7.97259,-21.740009 4.64684,-9.792478 20.2895,-9.726993 24.97785,0.104564 2.01323,4.221791 1.18658,8.155665 -1.88687,8.97922 -1.24352,0.333211 -5.52344,0.611982 -9.51094,0.619492 -6.53069,0.0123 -7.25,0.208222 -7.25,1.9747 0,2.55306 3.78032,6.038955 6.54901,6.038955 1.19455,0 3.82968,-1.125 5.85585,-2.5 C 438.09015,70.32048 440,70.300761 440,73.431906 c 0,4.940241 -10.27316,8.841285 -17.35745,6.591172 z M 434,62.134859 c 0,-0.475828 -0.93266,-2.050828 -2.07258,-3.5 -2.64659,-3.364598 -7.16366,-3.563368 -9.37072,-0.412353 C 419.72809,62.260919 420.49282,63 427.5,63 c 3.575,0 6.5,-0.389314 6.5,-0.865141 z"
         id="path3" />
      <path
         style="fill:#030303"
         d="M 161.71258,79.379243 C 161.32066,78.987326 161,70.696767 161,60.955778 c 0,-13.911302 0.29859,-17.9587 1.39183,-18.866004 0.92581,-0.768359 5.3622,-1.060472 13.25,-0.872445 C 186.73911,41.481862 187.5,41.628332 187.5,43.5 c 0,1.824561 -0.83333,2.04386 -9.5,2.5 l -9.5,0.5 -0.30083,5.208736 -0.30083,5.208737 8.28977,0.291263 c 7.19032,0.252634 8.33744,0.540626 8.64922,2.171437 0.53488,2.797732 -1.55702,3.587544 -9.54689,3.604514 L 168.08088,63 l -0.29044,8.25 c -0.28162,7.999407 -0.36751,8.258988 -2.82786,8.54591 -1.39559,0.16275 -2.85809,-0.02475 -3.25,-0.416667 z m 35.38382,-0.643985 c -6.21723,-3.195156 -8.92201,-13.085813 -5.53212,-20.229474 3.1474,-6.632659 13.33457,-9.306205 20.61448,-5.410117 3.58827,1.920386 5.8135,6.997007 5.8175,13.27198 0.004,5.484752 -0.2496,6.120991 -3.87861,9.75 -3.55172,3.551714 -4.33949,3.881098 -9.25,3.867611 -2.95221,-0.0081 -6.44927,-0.570608 -7.77125,-1.25 z m 12.13404,-5.490827 c 2.38647,-2.094878 3.19994,-7.410346 1.78854,-11.686928 C 207.92951,52.196312 197,55.285787 197,65.520287 c 0,2.536158 0.47942,5.506995 1.06537,6.601861 2.08775,3.900993 7.39218,4.434181 11.16507,1.122283 z m 16.69264,3.832492 c -3.32967,-3.329664 -3.5515,-4.310492 -1.3821,-6.11093 1.29512,-1.074861 2.06053,-0.775316 4.7976,1.877555 C 234.10574,77.464062 241,76.918838 241,71.92132 241,70.29774 239.35027,69.403357 232.04457,67.066222 226.01538,65.137452 224,63.279808 224,59.651261 c 0,-5.322709 3.81688,-8.158848 10.92638,-8.118863 6.91448,0.03889 11.07362,2.288915 11.07362,5.990655 0,3.230693 -2.32582,3.222021 -6.18237,-0.02305 -3.38481,-2.848134 -5.59108,-3.126948 -8.3765,-1.058569 -3.01209,2.236696 -0.8954,4.358198 6.98964,7.005552 7.88732,2.648118 9.94812,4.691009 9.13239,9.053017 -0.9742,5.209449 -4.6989,7.5 -12.19585,7.5 -5.87426,0 -6.81112,-0.289968 -9.44423,-2.923077 z M 257.5,78.901178 c -4.424,-2.543412 -5.978,-7.12004 -2.82805,-8.328788 1.11713,-0.428683 2.59171,0.365417 4.44363,2.393011 3.15033,3.44917 8.6869,4.182449 10.95399,1.450776 2.08008,-2.506351 -0.005,-4.557528 -7.01254,-6.897137 -7.30927,-2.440487 -10.50325,-5.605021 -9.53817,-9.450217 0.898,-3.577918 2.11675,-4.793459 6.13612,-6.11997 6.85941,-2.263811 16.9965,1.429787 16.13935,5.880613 -0.50875,2.641712 -3.57988,2.528769 -6.88611,-0.253242 -3.54888,-2.986185 -4.6602,-3.138676 -7.64383,-1.048858 -3.38506,2.370993 -1.70243,4.25749 5.78677,6.487871 10.38233,3.091989 13.38149,8.625653 7.83265,14.45178 -2.23383,2.345463 -14.09642,3.324125 -17.38381,1.434161 z m 27.67431,-1.215629 C 280.57668,72.791591 283.58895,65.987115 291,64.52579 c 8.7322,-1.721831 11,-2.6216 11,-4.364334 C 302,57.407014 299.92828,56 295.87258,56 c -2.78485,0 -4.2247,0.632188 -5.69392,2.5 -3.63816,4.625166 -8.02705,1.969942 -4.82403,-2.918478 2.13522,-3.258767 7.77247,-4.963486 13.98167,-4.228098 7.9635,0.943159 8.92843,2.515695 9.73785,15.869669 0.37594,6.202299 0.48649,11.614407 0.24567,12.026907 -0.73889,1.265642 -3.56898,0.834484 -5.40015,-0.8227 -1.58043,-1.430267 -2.01325,-1.430267 -4.77908,0 -4.66868,2.414264 -11.33391,2.060272 -13.96628,-0.741751 z M 300,74 c 1.94328,-1.943282 2.83778,-8 1.1815,-8 -2.58876,0 -11.20017,3.268331 -11.29998,4.288741 -0.22875,2.338553 0.32932,4.218248 1.46843,4.945946 C 293.53576,76.631046 298.0072,75.992804 300,74 Z m 21.51518,5.024565 C 320.51823,77.411465 313,54.790382 313,53.403827 c 0,-1.815316 3.19522,-2.643234 4.59483,-1.190571 0.68186,0.707709 2.4292,5.224244 3.88297,10.036744 1.45378,4.8125 2.82653,8.75 3.05057,8.75 0.22404,0 1.59228,-3.9375 3.04054,-8.75 2.96941,-9.867174 4.25083,-11.759376 7.30675,-10.789464 1.58725,0.503775 2.71102,2.673664 4.61151,8.904382 C 340.86923,64.895977 342,69.142486 342,69.801604 342,70.460722 342.36607,71 342.81349,71 c 0.44742,0 1.86592,-3.7125 3.15222,-8.25 2.79211,-9.849339 3.67321,-11.75 5.44703,-11.75 3.64709,0 3.58881,2.59 -0.31698,14.086434 C 345.79435,80.690784 346.16868,80 343.01433,80 c -3.07206,0 -3.70727,-1.107961 -6.59309,-11.5 -0.9164,-3.3 -1.91876,-6.428331 -2.22747,-6.951847 -0.30872,-0.523516 -1.94111,3.301484 -3.62754,8.5 -2.77835,8.564451 -3.31555,9.480699 -5.72179,9.759157 -1.46056,0.16902 -2.95873,-0.183215 -3.32926,-0.782745 z m 38.65913,-1.339016 C 358.9032,76.33251 358,74.077985 358,72.258129 c 0,-4.154187 3.58203,-6.878516 10.95002,-8.328079 7.55583,-1.486518 8.46983,-2.12111 7.66628,-5.322716 C 376.03489,56.290819 375.47019,56 371.55353,56 c -3.51119,0 -4.80858,0.508791 -6.37487,2.5 -3.63816,4.625166 -8.02705,1.969942 -4.82403,-2.918478 2.12584,-3.24445 7.7748,-4.96321 13.92018,-4.23538 8.47899,1.00421 9.15825,2.301347 10.16102,19.403858 l 0.54236,9.25 h -2.4394 c -1.34168,0 -2.87391,-0.776402 -3.40496,-1.725337 -0.91431,-1.633783 -1.15754,-1.633783 -4.58361,0 -5.31892,2.536412 -11.6847,2.275547 -14.37591,-0.589114 z M 375,74 c 1.94328,-1.943282 2.83778,-8 1.1815,-8 -0.45017,0 -3.15017,0.692433 -6,1.538741 -4.26073,1.265301 -5.1815,1.940572 -5.1815,3.8 0,1.243692 0.54,2.801259 1.2,3.461259 1.85143,1.851432 6.57828,1.421718 8.8,-0.8 z m 17.66667,5.333333 C 392.3,78.966667 392,72.946767 392,65.955778 392,55.925534 392.31365,52.984579 393.48727,52.010569 395.30317,50.503502 398,51.374836 398,53.468615 c 0,2.025697 0.5993,1.932083 3,-0.468615 2.25127,-2.251266 3.70146,-2.444204 7.50424,-0.998388 1.94703,0.740258 2.55111,1.588292 2.3151,3.25 -0.28107,1.978964 -0.81706,2.211637 -4.47293,1.941699 C 400.46189,56.758814 399,59.136276 399,69.140719 c 0,4.232638 -0.27314,8.40751 -0.60699,9.277494 -0.60359,1.572945 -4.4533,2.188162 -5.72634,0.91512 z m 26.7346,-1.230381 c -4.21961,-2.573067 -6.77938,-9.095877 -5.89193,-15.013809 2.19561,-14.641391 23.39303,-16.22257 26.8233,-2.00083 1.13222,4.694134 -0.87066,5.828428 -10.83264,6.134852 -8.93817,0.274933 -8.99822,0.294009 -8.74153,2.776835 0.60335,5.835773 7.94488,7.803384 13.05916,3.5 1.6341,-1.375 3.69362,-2.5 4.57673,-2.5 2.65994,0 1.82532,3.637363 -1.47109,6.411106 -2.52055,2.120906 -4.10226,2.588218 -8.75,2.585156 -3.79742,-0.0025 -6.69785,-0.628518 -8.772,-1.89331 z M 434,62.222506 C 434,58.832563 431.08586,56 427.59828,56 c -3.25452,0 -5.70766,1.837781 -6.87738,5.152234 C 419.8462,63.630723 420.74688,64 427.66667,64 433.06906,64 434,63.738727 434,62.222506 Z"
         id="path2" />
    </g>
  </g>
</svg>
