<?xml version="1.0" encoding="utf-8"?>
<!-- Generator: Adobe Illustrator 23.0.6, SVG Export Plug-In . SVG Version: 6.00 Build 0)  -->
<svg version="1.1" id="Ebene_1" xmlns="http://www.w3.org/2000/svg" xmlns:xlink="http://www.w3.org/1999/xlink" x="0px" y="0px"
	 viewBox="0 0 416.3 152.6" style="enable-background:new 0 0 416.3 152.6;" xml:space="preserve">
<style type="text/css">
	.st0{fill:#363847;}
	.st1{fill:#FFCC00;}
</style>
<path class="st0" d="M396.4,30.1c-7-28.4-96.9-30.8-200.9-5.3c-19.2,4.7-37.6,10.1-54.7,15.8h10.1c14.4-4.6,29.7-8.9,45.6-12.8
	c95.1-23.3,176.9-23.1,182.7,0.5c5.8,23.6-66.6,61.6-161.8,85c-95.1,23.3-176.9,23.1-182.7-0.5c-2.6-10.6,10.5-24,34.4-37.8h-7.3
	c-29.1,16.9-45.3,34-42,47.5c7,28.4,96.9,30.8,200.9,5.3C324.8,102.3,403.4,58.6,396.4,30.1z"/>
<path class="st0" d="M60,55.3H47.4l-2.2,10.4h-8.3l5.3-24.9h8.3l-1.9,8.9h12.6l1.9-8.9h8.3L66,65.7h-8.3L60,55.3z"/>
<path class="st0" d="M96.6,60.1c-1.6,3.1-5.9,6.4-13.9,6.4c-8.5,0-12.6-3.2-11.1-10.2c1.4-6.7,7.4-10.2,15.2-10.2
	c8.1,0,12.4,3.5,10.7,11.4L97.4,58H78.9c-0.1,2.4,1.2,4.2,5,4.2c2.4,0,3.8-1,4.9-2.1H96.6z M90.7,54.2c0-2.1-1.2-3.9-4.6-3.9
	c-3.5,0-5.4,1.8-6.3,3.9H90.7z"/>
<path class="st0" d="M104.4,40.2h7.4l-5.4,25.5H99L104.4,40.2z"/>
<path class="st0" d="M116,40.2h7.4L118,65.7h-7.4L116,40.2z"/>
<path class="st0" d="M125,52.7c1.9-5.6,7.4-6.4,13.2-6.4c6.9,0,11.8,1.1,10.7,6.4l-2,9.5c-0.3,1.6-0.3,2.3,0,3.4h-7.4
	c-0.1-0.6-0.1-1.2,0-1.7c-2.6,2-5.7,2.5-9.4,2.5c-6,0-8.8-1.9-8-5.9c0.9-4.3,4.1-5.8,9.5-6.2l7.5-0.5c1.9-0.1,2.3-0.6,2.6-1.5
	c0.3-1.3-1-2-4.2-2c-2.7,0-4.2,0.8-4.9,2.4H125z M140.8,56.9c-0.6,0.2-1.5,0.3-2.9,0.5l-5.1,0.6c-1.5,0.2-2.3,0.8-2.5,1.9
	c-0.3,1.5,0.8,2.3,2.8,2.3c4.3,0,7-1.6,7.5-4.2L140.8,56.9z"/>
<path class="st0" d="M177.1,40.8h10.1l5.4,24.9h-8.9l-0.6-4h-10.9l-2.4,4H161L177.1,40.8z M180.8,47.1L180.8,47.1l-5.5,9.4h7
	L180.8,47.1z"/>
<path class="st0" d="M215.5,46.8h7.2L219.1,64c-1.3,6.3-5.4,9-14.5,9c-7.5,0-11.9-1.3-11.6-6.5h8.2c0,1.7,1.9,2.2,4,2.2
	c4.1,0,5.8-1.5,6.6-4.9l0.3-1.3c-2,1.7-5.2,2.4-8.1,2.4c-8,0-10.3-4.1-9.2-9.3c1.1-5,5.6-9.3,13.2-9.3c3.3,0,6,0.8,7.1,2.9h0.1
	L215.5,46.8z M207,60.2c4.2,0,5.9-2,6.4-4.4c0.6-2.7-0.7-4.6-4.5-4.6c-3.7,0-5.9,2-6.4,4.5C202,58.2,203.2,60.2,207,60.2z"/>
<path class="st0" d="M228.2,40.2h7.4l-5.4,25.5h-7.4L228.2,40.2z"/>
<path class="st0" d="M237.2,52.7c1.9-5.6,7.4-6.4,13.2-6.4c6.9,0,11.8,1.1,10.7,6.4l-2,9.5c-0.3,1.6-0.3,2.3,0,3.4h-7.4
	c-0.1-0.6-0.1-1.2,0-1.7c-2.6,2-5.7,2.5-9.4,2.5c-6,0-8.8-1.9-8-5.9c0.9-4.3,4.1-5.8,9.5-6.2l7.5-0.5c1.9-0.1,2.3-0.6,2.6-1.5
	c0.3-1.3-1-2-4.2-2c-2.7,0-4.2,0.8-4.9,2.4H237.2z M253,56.9c-0.6,0.2-1.5,0.3-2.9,0.5l-5.1,0.6c-1.5,0.2-2.3,0.8-2.5,1.9
	c-0.3,1.5,0.8,2.3,2.8,2.3c4.3,0,7-1.6,7.5-4.2L253,56.9z"/>
<path class="st0" d="M266.7,46.8h7.4l-4,18.9h-7.4L266.7,46.8z"/>
<path class="st0" d="M277.1,52.7c1.9-5.6,7.4-6.4,13.2-6.4c6.9,0,11.8,1.1,10.7,6.4l-2,9.5c-0.3,1.6-0.3,2.3,0,3.4h-7.4
	c-0.1-0.6-0.1-1.2,0-1.7c-2.6,2-5.7,2.5-9.4,2.5c-6,0-8.8-1.9-8-5.9c0.9-4.3,4.1-5.8,9.5-6.2l7.5-0.5c1.9-0.1,2.3-0.6,2.6-1.5
	c0.3-1.3-1-2-4.2-2c-2.7,0-4.2,0.8-4.9,2.4H277.1z M292.9,56.9c-0.6,0.2-1.5,0.3-2.9,0.5l-5.1,0.6c-1.5,0.2-2.3,0.8-2.5,1.9
	c-0.3,1.5,0.8,2.3,2.8,2.3c4.3,0,7-1.6,7.5-4.2L292.9,56.9z"/>
<path class="st1" d="M278.1,36.7c0,4-3.2,7.2-7.2,7.2c-4,0-7.2-3.2-7.2-7.2c0-4,3.2-7.2,7.2-7.2C274.9,29.5,278.1,32.7,278.1,36.7z"
	/>
</svg>
