<?xml version="1.0" encoding="utf-8"?>
<!-- Generator: Adobe Illustrator 16.0.4, SVG Export Plug-In . SVG Version: 6.00 Build 0)  -->
<!DOCTYPE svg PUBLIC "-//W3C//DTD SVG 1.0//EN" "http://www.w3.org/TR/2001/REC-SVG-20010904/DTD/svg10.dtd" [
	<!ENTITY ns_extend "http://ns.adobe.com/Extensibility/1.0/">
	<!ENTITY ns_ai "http://ns.adobe.com/AdobeIllustrator/10.0/">
	<!ENTITY ns_graphs "http://ns.adobe.com/Graphs/1.0/">
	<!ENTITY ns_vars "http://ns.adobe.com/Variables/1.0/">
	<!ENTITY ns_imrep "http://ns.adobe.com/ImageReplacement/1.0/">
	<!ENTITY ns_sfw "http://ns.adobe.com/SaveForWeb/1.0/">
	<!ENTITY ns_custom "http://ns.adobe.com/GenericCustomNamespace/1.0/">
	<!ENTITY ns_adobe_xpath "http://ns.adobe.com/XPath/1.0/">
]>
<svg version="1.0" xmlns:x="&ns_extend;" xmlns:i="&ns_ai;" xmlns:graph="&ns_graphs;"
	 xmlns="http://www.w3.org/2000/svg" xmlns:xlink="http://www.w3.org/1999/xlink" x="0px" y="0px" width="370px" height="131px"
	 viewBox="0 0 370 131" enable-background="new 0 0 370 131" xml:space="preserve">
<metadata>
	<sfw  xmlns="&ns_sfw;">
		<slices></slices>
		<sliceSourceBounds  height="128.391" width="368" x="1" y="-485.142" bottomLeftOrigin="true"></sliceSourceBounds>
	</sfw>
</metadata>
<g id="Layer_1" display="none">
	<g display="inline">
		<g>
			<path fill="#003366" d="M365.484,77.414c-0.705-0.42-1.439-0.795-2.201-1.125c-0.838-0.367-1.707-0.715-2.602-1.039
				c-0.898-0.322-1.807-0.707-2.734-1.152c-1.043-0.496-1.836-1.127-2.383-1.896s-0.82-1.738-0.82-2.908
				c0-1.117,0.424-2.062,1.277-2.837c0.852-0.775,1.881-1.163,3.086-1.163c1.145,0,2.109,0.22,2.898,0.657
				c0.787,0.438,1.453,1.024,2.002,1.763c0.559,0.762,1.012,1.613,1.361,2.553c0.35,0.941,0.664,1.926,0.943,2.955h1.543
				l-0.152-8.975h-1.523l-0.781,1.296c-0.814-0.508-1.711-0.954-2.697-1.335c-0.984-0.381-2.1-0.571-3.344-0.571
				c-1.092,0-2.141,0.188-3.146,0.562c-1.004,0.375-1.873,0.892-2.609,1.554c-0.775,0.697-1.375,1.491-1.791,2.378
				c-0.42,0.891-0.631,1.848-0.631,2.877c0,1.791,0.422,3.242,1.268,4.354c0.844,1.113,2.029,2.014,3.555,2.697
				c0.775,0.354,1.695,0.732,2.764,1.131c1.066,0.398,2.014,0.762,2.838,1.092c1.209,0.482,2.115,1.191,2.727,2.127
				c0.611,0.934,0.916,1.943,0.916,3.021c0,0.74-0.1,1.391-0.297,1.959c-0.195,0.564-0.498,1.061-0.904,1.48
				c-0.406,0.418-0.938,0.742-1.592,0.973c-0.654,0.229-1.418,0.344-2.297,0.344c-1.168,0-2.195-0.223-3.078-0.668
				s-1.654-1.041-2.314-1.793c-0.699-0.801-1.262-1.658-1.688-2.582c-0.426-0.918-0.797-1.951-1.115-3.096h-1.543l0.268,9.264h1.523
				l0.82-1.393c0.877,0.533,1.918,0.986,3.127,1.363c1.205,0.373,2.412,0.561,3.619,0.561c2.617,0,4.809-0.773,6.576-2.324
				c1.766-1.551,2.648-3.518,2.648-5.91c0-1.004-0.137-1.881-0.41-2.637s-0.695-1.451-1.268-2.088
				C366.803,78.32,366.189,77.832,365.484,77.414 M328.301,75.709c-1.168,1.123-2.631,1.686-4.385,1.686h-2.496V65.808h3.24
				c1.715,0,3.043,0.479,3.984,1.437c0.939,0.957,1.41,2.254,1.41,3.891C330.055,73.064,329.471,74.588,328.301,75.709
				 M340.078,89.936c-0.33-0.014-0.742-0.064-1.238-0.154s-0.908-0.215-1.24-0.381c-0.443-0.229-0.891-0.523-1.342-0.885
				c-0.451-0.363-0.955-0.926-1.516-1.689c-1.283-1.727-2.365-3.193-3.248-4.4s-1.992-2.695-3.328-4.461
				c0.967-0.277,1.85-0.617,2.65-1.02c0.801-0.4,1.486-0.873,2.059-1.42c0.623-0.584,1.092-1.277,1.41-2.076
				c0.316-0.801,0.475-1.723,0.475-2.764c0-1.154-0.232-2.145-0.703-2.963c-0.471-0.82-1.1-1.483-1.887-1.991
				c-0.812-0.521-1.723-0.898-2.727-1.134c-1.002-0.235-2.076-0.352-3.219-0.352h-12.482v1.352c0.355,0.026,0.785,0.086,1.293,0.183
				c0.51,0.095,0.922,0.199,1.238,0.313c0.471,0.177,0.77,0.438,0.896,0.779c0.129,0.344,0.191,0.738,0.191,1.184v19.553
				c0,0.496-0.084,0.902-0.258,1.221c-0.17,0.316-0.447,0.557-0.83,0.723c-0.229,0.104-0.631,0.184-1.209,0.246
				c-0.578,0.066-1.02,0.111-1.322,0.137v1.354h11.434v-1.354c-0.395-0.014-0.877-0.057-1.447-0.137
				c-0.574-0.074-0.975-0.156-1.203-0.246c-0.457-0.178-0.756-0.436-0.895-0.771c-0.141-0.336-0.211-0.729-0.211-1.172v-8.576h2.77
				c1.523,1.957,2.936,3.855,4.238,5.697c1.299,1.844,2.756,4.029,4.369,6.559h7.281V89.936z M300.236,83.32
				c-0.178,0.586-0.587,1.496-1.229,2.736c-0.641,1.238-1.254,2.162-1.839,2.773c-0.216,0.229-0.581,0.41-1.095,0.541
				c-0.515,0.133-1.013,0.227-1.497,0.277c-0.469,0.049-1.047,0.076-1.733,0.076h-1.658c-1.055,0-1.868-0.035-2.439-0.104
				c-0.572-0.07-1.022-0.227-1.354-0.467c-0.33-0.24-0.552-0.596-0.667-1.066c-0.115-0.469-0.171-1.111-0.171-1.922v-8.104h3.049
				c0.827,0,1.489,0.074,1.991,0.227c0.502,0.152,0.951,0.479,1.345,0.971c0.241,0.307,0.473,0.801,0.695,1.479
				c0.222,0.68,0.359,1.326,0.41,1.934h1.43V72.076h-1.43c-0.063,0.547-0.193,1.129-0.39,1.744
				c-0.197,0.617-0.437,1.109-0.715,1.477c-0.343,0.434-0.74,0.74-1.192,0.926c-0.451,0.184-1.165,0.275-2.144,0.275h-3.049V65.751
				h4.249c0.7,0,1.322,0.012,1.868,0.037c0.545,0.025,1.017,0.063,1.41,0.115c0.763,0.102,1.566,0.695,2.411,1.78
				c0.845,1.088,1.395,2.111,1.649,3.078h1.428v-6.516h-20.924v1.352c0.342,0.026,0.803,0.103,1.381,0.229
				c0.578,0.127,1.04,0.272,1.382,0.438c0.445,0.203,0.737,0.466,0.877,0.79c0.139,0.324,0.209,0.695,0.209,1.115v19.439
				c0,0.471-0.08,0.859-0.238,1.164c-0.159,0.303-0.441,0.551-0.848,0.742c-0.191,0.088-0.604,0.174-1.238,0.256
				c-0.635,0.084-1.145,0.139-1.525,0.164v1.354h22.45l0.515-7.969H300.236z M267.313,64.246h-10.997v1.352
				c0.42,0.026,1.034,0.153,1.841,0.382c0.806,0.229,1.387,0.463,1.743,0.703c0.381,0.28,0.673,0.843,0.876,1.687
				c0.204,0.844,0.305,2.057,0.305,3.631v12.861l-15.201-20.616h-7.727v1.352c0.483,0.026,1.115,0.188,1.896,0.486
				c0.782,0.299,1.402,0.656,1.859,1.076c0.342,0.318,0.617,0.768,0.819,1.352c0.203,0.588,0.304,1.17,0.304,1.754v13.322
				c0,1.766-0.083,3.014-0.248,3.746c-0.165,0.73-0.47,1.273-0.914,1.627c-0.205,0.18-0.712,0.379-1.526,0.602
				c-0.813,0.221-1.39,0.348-1.733,0.373v1.354h11.091v-1.354c-0.292-0.014-0.896-0.143-1.811-0.383
				c-0.915-0.242-1.518-0.502-1.81-0.779c-0.408-0.355-0.709-0.953-0.906-1.795c-0.197-0.838-0.295-2.037-0.295-3.6V69.428
				l16.391,22.127h1.658V71.754c0-1.385,0.08-2.529,0.237-3.432c0.159-0.902,0.468-1.512,0.926-1.827
				c0.316-0.204,0.844-0.401,1.581-0.592c0.735-0.19,1.283-0.292,1.639-0.306V64.246z M228.044,64.246h-23.575v7.336h1.333
				c0.115-0.42,0.318-0.951,0.61-1.594c0.292-0.639,0.628-1.246,1.01-1.818c0.381-0.572,0.798-1.084,1.25-1.532
				c0.449-0.453,0.885-0.703,1.304-0.754c0.533-0.063,1.093-0.104,1.677-0.123c0.585-0.02,1.073-0.029,1.468-0.029h1.104v21.802
				c0,0.52-0.098,0.938-0.294,1.248c-0.197,0.311-0.505,0.549-0.924,0.715c-0.281,0.115-0.785,0.207-1.515,0.285
				c-0.731,0.078-1.275,0.129-1.63,0.154v1.354h12.768v-1.354c-0.405-0.014-0.974-0.096-1.705-0.25
				c-0.73-0.152-1.211-0.273-1.438-0.361c-0.446-0.191-0.756-0.459-0.934-0.809c-0.179-0.35-0.268-0.734-0.268-1.152V65.731h1.108
				c0.51,0,1.062,0.014,1.661,0.037c0.599,0.027,1.096,0.064,1.49,0.115c0.421,0.064,0.857,0.314,1.31,0.754
				c0.453,0.437,0.868,0.948,1.251,1.532c0.369,0.561,0.703,1.152,1.002,1.781c0.299,0.631,0.506,1.172,0.621,1.631h1.316V64.246z
				 M183.857,75.709c-1.169,1.123-2.63,1.686-4.384,1.686h-2.497V65.808h3.24c1.716,0,3.043,0.479,3.983,1.437
				c0.94,0.957,1.41,2.254,1.41,3.891C185.61,73.064,185.025,74.588,183.857,75.709 M195.636,89.936
				c-0.331-0.014-0.744-0.064-1.24-0.154c-0.495-0.09-0.909-0.215-1.238-0.381c-0.445-0.229-0.893-0.523-1.343-0.885
				c-0.452-0.363-0.957-0.926-1.515-1.689c-1.285-1.727-2.367-3.193-3.25-4.4c-0.883-1.207-1.992-2.695-3.326-4.461
				c0.965-0.277,1.849-0.617,2.65-1.02c0.799-0.4,1.486-0.873,2.057-1.42c0.623-0.584,1.093-1.277,1.41-2.076
				c0.318-0.801,0.478-1.723,0.478-2.764c0-1.154-0.236-2.145-0.706-2.963c-0.47-0.82-1.1-1.483-1.888-1.991
				c-0.812-0.521-1.721-0.898-2.725-1.134c-1.005-0.235-2.078-0.352-3.221-0.352h-12.484v1.352c0.356,0.026,0.788,0.086,1.297,0.183
				c0.508,0.095,0.92,0.199,1.238,0.313c0.47,0.177,0.769,0.438,0.896,0.779c0.126,0.344,0.19,0.738,0.19,1.184v19.553
				c0,0.496-0.086,0.902-0.258,1.221c-0.171,0.316-0.448,0.557-0.829,0.723c-0.228,0.104-0.631,0.184-1.21,0.246
				c-0.578,0.066-1.019,0.111-1.325,0.137v1.354h11.436v-1.354c-0.395-0.014-0.877-0.057-1.449-0.137
				c-0.572-0.074-0.973-0.156-1.201-0.246c-0.457-0.178-0.756-0.436-0.896-0.771c-0.14-0.336-0.21-0.729-0.21-1.172v-8.576h2.77
				c1.523,1.957,2.936,3.855,4.236,5.697c1.302,1.844,2.759,4.029,4.371,6.559h7.283V89.936z M139.943,80.234l4.038-10.496
				l4.096,10.496H139.943z M158.957,89.936c-0.318-0.014-0.711-0.08-1.181-0.203c-0.471-0.119-0.852-0.27-1.144-0.445
				c-0.432-0.293-0.769-0.592-1.011-0.898c-0.241-0.303-0.458-0.703-0.648-1.197l-9.014-23.328h-1.525
				c-1.284,3.303-2.744,7.07-4.384,11.301c-1.638,4.23-3.137,8.043-4.497,11.434c-0.267,0.662-0.54,1.182-0.82,1.555
				c-0.278,0.377-0.673,0.734-1.18,1.078c-0.318,0.201-0.725,0.363-1.221,0.482c-0.494,0.123-0.908,0.197-1.238,0.223v1.354h10.185
				v-1.354c-1.004-0.051-1.906-0.219-2.706-0.498c-0.8-0.277-1.201-0.672-1.201-1.182c0-0.215,0.032-0.494,0.095-0.836
				c0.064-0.342,0.179-0.789,0.343-1.336c0.179-0.561,0.379-1.168,0.603-1.826c0.221-0.664,0.511-1.438,0.867-2.328h9.494
				l2.24,6.061c0.051,0.127,0.088,0.271,0.113,0.439c0.026,0.164,0.039,0.305,0.039,0.418c0,0.279-0.328,0.514-0.981,0.705
				c-0.655,0.189-1.477,0.318-2.468,0.383v1.354h11.241V89.936z M115.494,77.115c-0.858,0.428-1.974,0.643-3.346,0.643h-1.943
				v-11.95h2.687c1.08,0,1.982,0.166,2.706,0.495c0.725,0.331,1.31,0.793,1.753,1.391c0.42,0.561,0.716,1.213,0.887,1.963
				c0.171,0.75,0.256,1.486,0.256,2.211c0,0.521-0.07,1.109-0.208,1.764c-0.141,0.652-0.426,1.287-0.858,1.895
				C116.995,76.162,116.35,76.693,115.494,77.115 M120.867,66.065c-1.57-1.214-3.611-1.82-6.126-1.82H102.39v1.352
				c0.344,0.026,0.753,0.074,1.229,0.144c0.476,0.07,0.956,0.188,1.438,0.353c0.471,0.177,0.769,0.444,0.896,0.799
				c0.127,0.357,0.191,0.756,0.191,1.201v19.516c0,0.496-0.086,0.902-0.258,1.221c-0.172,0.316-0.448,0.557-0.829,0.723
				c-0.229,0.104-0.632,0.184-1.21,0.246c-0.579,0.066-1.019,0.111-1.325,0.137v1.354h11.606v-1.354
				c-0.482-0.014-1.013-0.057-1.59-0.137c-0.579-0.074-0.982-0.156-1.211-0.246c-0.458-0.178-0.76-0.436-0.905-0.771
				c-0.146-0.336-0.219-0.729-0.219-1.172v-8.195h3.029c1.295,0,2.522-0.166,3.679-0.496s2.216-0.85,3.183-1.561
				c0.978-0.713,1.744-1.611,2.296-2.697c0.553-1.088,0.829-2.336,0.829-3.746C123.221,68.895,122.436,67.277,120.867,66.065
				 M68.221,89.936c-0.318-0.014-0.754-0.076-1.307-0.193c-0.553-0.113-0.937-0.227-1.153-0.342
				c-0.431-0.229-0.721-0.494-0.867-0.799c-0.146-0.309-0.219-0.682-0.219-1.125V67.98c0-0.42,0.073-0.809,0.219-1.162
				c0.146-0.356,0.436-0.61,0.867-0.763c0.253-0.09,0.639-0.184,1.153-0.287c0.516-0.101,0.951-0.157,1.307-0.171v-1.352H56.995
				v1.352c0.356,0.026,0.778,0.103,1.268,0.229c0.488,0.127,0.905,0.272,1.248,0.438c0.406,0.191,0.691,0.452,0.856,0.79
				c0.166,0.336,0.248,0.707,0.248,1.115v8.197H47.905V67.98c0-0.42,0.073-0.809,0.219-1.162c0.146-0.356,0.435-0.61,0.867-0.763
				c0.254-0.09,0.639-0.184,1.153-0.287c0.515-0.101,0.949-0.157,1.305-0.171v-1.352H40.224v1.352
				c0.356,0.026,0.779,0.103,1.269,0.229c0.487,0.127,0.903,0.272,1.248,0.438c0.406,0.191,0.692,0.452,0.857,0.79
				c0.165,0.336,0.248,0.707,0.248,1.115v19.516c0,0.496-0.09,0.9-0.267,1.211c-0.179,0.311-0.457,0.541-0.839,0.695
				c-0.216,0.1-0.613,0.176-1.191,0.227c-0.579,0.053-1.021,0.092-1.325,0.117v1.354h11.225v-1.354
				c-0.317-0.014-0.752-0.076-1.305-0.193c-0.552-0.113-0.938-0.227-1.153-0.342c-0.432-0.229-0.721-0.494-0.867-0.799
				c-0.146-0.309-0.219-0.682-0.219-1.125v-9.414h12.711v9.623c0,0.496-0.089,0.9-0.267,1.211c-0.178,0.311-0.457,0.541-0.838,0.695
				c-0.216,0.1-0.614,0.176-1.191,0.227c-0.579,0.053-1.021,0.092-1.325,0.117v1.354h11.226V89.936z M28.996,89.936
				c-0.316-0.014-0.752-0.076-1.305-0.193c-0.553-0.113-0.938-0.227-1.153-0.342c-0.432-0.229-0.722-0.494-0.868-0.799
				c-0.146-0.309-0.219-0.682-0.219-1.125V67.98c0-0.42,0.073-0.809,0.219-1.162c0.146-0.356,0.436-0.61,0.868-0.763
				c0.254-0.09,0.639-0.184,1.153-0.287c0.514-0.101,0.95-0.157,1.305-0.171v-1.352H17.771v1.352
				c0.356,0.026,0.779,0.103,1.267,0.229c0.49,0.127,0.906,0.272,1.249,0.438c0.406,0.191,0.692,0.452,0.857,0.79
				c0.166,0.336,0.248,0.707,0.248,1.115v8.197H8.681V67.98c0-0.42,0.073-0.809,0.218-1.162c0.146-0.356,0.436-0.61,0.867-0.763
				c0.254-0.09,0.638-0.184,1.154-0.287c0.515-0.101,0.95-0.157,1.305-0.171v-1.352H1v1.352c0.355,0.026,0.778,0.103,1.268,0.229
				c0.489,0.127,0.905,0.272,1.248,0.438c0.406,0.191,0.692,0.452,0.858,0.79c0.166,0.336,0.248,0.707,0.248,1.115v19.516
				c0,0.496-0.089,0.9-0.266,1.211c-0.179,0.311-0.458,0.541-0.84,0.695c-0.216,0.1-0.613,0.176-1.19,0.227
				C1.746,89.871,1.305,89.91,1,89.936v1.354h11.225v-1.354c-0.317-0.014-0.753-0.076-1.305-0.193
				c-0.552-0.113-0.938-0.227-1.154-0.342c-0.431-0.229-0.721-0.494-0.867-0.799c-0.146-0.309-0.218-0.682-0.218-1.125v-9.414
				h12.711v9.623c0,0.496-0.088,0.9-0.267,1.211c-0.179,0.311-0.457,0.541-0.838,0.695c-0.217,0.1-0.613,0.176-1.191,0.227
				c-0.578,0.053-1.021,0.092-1.325,0.117v1.354h11.225V89.936z"/>
		</g>
		<rect x="152.304" y="1.306" fill="#003366" width="7.181" height="34.472"/>
		<rect x="166.684" y="22.135" fill="#003366" width="7.181" height="13.644"/>
		<rect x="181.063" y="1.306" fill="#003366" width="7.18" height="34.472"/>
		<rect x="209.821" y="1.306" fill="#003366" width="7.182" height="34.472"/>
		<rect x="166.684" y="1.368" fill="#003366" width="7.181" height="13.643"/>
		<rect x="195.482" y="1.368" fill="#003366" width="7.182" height="13.643"/>
		<rect x="195.482" y="22.135" fill="#003366" width="7.182" height="13.644"/>
		<g>
			<path fill="#003366" d="M281.409,125.973c-0.182,0.525-0.437,0.967-0.767,1.33c-0.331,0.361-0.731,0.641-1.201,0.832
				c-0.47,0.193-0.996,0.291-1.577,0.291c-0.575,0-1.098-0.098-1.569-0.291c-0.469-0.191-0.872-0.471-1.204-0.832
				c-0.334-0.363-0.589-0.805-0.769-1.33c-0.182-0.521-0.271-1.113-0.271-1.775s0.089-1.252,0.271-1.777
				c0.18-0.525,0.435-0.971,0.769-1.332c0.332-0.363,0.734-0.643,1.204-0.84c0.471-0.193,0.995-0.291,1.569-0.291
				c0.581,0,1.106,0.098,1.577,0.291c0.47,0.197,0.87,0.477,1.201,0.84c0.33,0.361,0.585,0.807,0.767,1.332
				c0.179,0.525,0.269,1.115,0.269,1.777S281.587,125.451,281.409,125.973 M282.789,121.98c-0.255-0.674-0.616-1.254-1.081-1.742
				c-0.465-0.486-1.025-0.867-1.678-1.137c-0.653-0.271-1.375-0.404-2.166-0.404c-0.791,0-1.51,0.133-2.161,0.404
				c-0.65,0.27-1.208,0.65-1.674,1.137c-0.465,0.488-0.826,1.068-1.08,1.742c-0.255,0.674-0.384,1.412-0.384,2.217
				c0,0.807,0.128,1.547,0.384,2.219c0.254,0.672,0.615,1.252,1.08,1.738c0.466,0.484,1.024,0.861,1.674,1.127
				c0.651,0.271,1.371,0.404,2.161,0.404c0.791,0,1.513-0.133,2.166-0.404c0.653-0.266,1.212-0.643,1.678-1.127
				c0.465-0.486,0.825-1.066,1.081-1.738c0.255-0.672,0.383-1.412,0.383-2.219C283.171,123.393,283.043,122.654,282.789,121.98
				 M260.361,118.816v1.223h3.49v9.533h1.457v-9.533h3.474v-1.223H260.361z M255.76,119.809c-0.37-0.359-0.804-0.639-1.298-0.826
				c-0.496-0.191-1.044-0.285-1.645-0.285c-0.535,0-1.009,0.08-1.423,0.246c-0.412,0.166-0.759,0.385-1.038,0.662
				c-0.282,0.273-0.496,0.59-0.642,0.945c-0.148,0.357-0.223,0.725-0.223,1.102c0,0.477,0.075,0.877,0.223,1.199
				c0.146,0.322,0.341,0.592,0.582,0.805c0.24,0.217,0.513,0.393,0.822,0.527c0.307,0.135,0.624,0.254,0.945,0.355
				c0.323,0.104,0.639,0.203,0.946,0.301c0.309,0.096,0.582,0.215,0.823,0.357c0.24,0.141,0.433,0.314,0.581,0.521
				c0.149,0.207,0.222,0.473,0.222,0.799c0,0.295-0.05,0.562-0.148,0.805c-0.102,0.238-0.245,0.443-0.434,0.619
				c-0.187,0.174-0.417,0.305-0.686,0.4c-0.271,0.096-0.579,0.143-0.923,0.143c-0.416,0-0.767-0.057-1.056-0.168
				c-0.288-0.113-0.533-0.236-0.736-0.371c-0.201-0.139-0.371-0.262-0.507-0.373c-0.134-0.113-0.254-0.17-0.359-0.17
				c-0.07,0-0.134,0.018-0.19,0.057c-0.058,0.037-0.108,0.084-0.147,0.139l-0.42,0.691c0.405,0.43,0.895,0.771,1.468,1.025
				c0.572,0.252,1.208,0.379,1.902,0.379c0.57,0,1.079-0.088,1.528-0.264c0.448-0.176,0.826-0.416,1.133-0.721
				c0.308-0.303,0.542-0.662,0.702-1.078c0.16-0.412,0.24-0.852,0.24-1.324c0-0.443-0.074-0.82-0.222-1.123
				c-0.148-0.307-0.343-0.564-0.584-0.775c-0.244-0.211-0.519-0.383-0.827-0.521c-0.307-0.135-0.624-0.262-0.946-0.373
				c-0.322-0.109-0.637-0.215-0.945-0.318c-0.308-0.102-0.584-0.223-0.826-0.363c-0.243-0.139-0.438-0.309-0.585-0.506
				c-0.148-0.199-0.223-0.447-0.223-0.748c0-0.234,0.043-0.453,0.128-0.654c0.085-0.205,0.211-0.381,0.378-0.531
				c0.167-0.15,0.377-0.268,0.627-0.355c0.25-0.088,0.538-0.133,0.863-0.133c0.346,0,0.639,0.043,0.882,0.129
				c0.243,0.084,0.451,0.18,0.623,0.281c0.174,0.102,0.317,0.197,0.429,0.279c0.112,0.086,0.211,0.129,0.295,0.129
				c0.082,0,0.146-0.02,0.196-0.057c0.049-0.039,0.097-0.094,0.143-0.168L255.76,119.809z M243.412,118.816h-1.456v10.756h1.456
				V118.816z M229.563,125.684l-3.715-6.619c-0.065-0.115-0.132-0.186-0.202-0.211c-0.071-0.025-0.171-0.037-0.301-0.037h-1.072
				v10.756h1.274v-7.904c0-0.104-0.004-0.219-0.01-0.346c-0.009-0.123-0.02-0.25-0.035-0.381l3.769,6.748
				c0.125,0.225,0.299,0.338,0.525,0.338h0.21c0.226,0,0.4-0.113,0.526-0.338l3.684-6.727c-0.01,0.125-0.017,0.248-0.021,0.367
				c-0.005,0.121-0.007,0.234-0.007,0.338v7.904h1.275v-10.756h-1.072c-0.131,0-0.23,0.012-0.301,0.037
				c-0.069,0.025-0.138,0.096-0.203,0.211l-3.64,6.611c-0.071,0.131-0.133,0.26-0.188,0.387c-0.054,0.127-0.106,0.262-0.157,0.402
				c-0.049-0.137-0.101-0.268-0.154-0.402C229.695,125.932,229.633,125.805,229.563,125.684 M217.787,118.816h-1.457v10.756h1.457
				V118.816z M208.706,125.973c-0.182,0.525-0.437,0.967-0.766,1.33c-0.332,0.361-0.73,0.641-1.202,0.832
				c-0.47,0.193-0.997,0.291-1.576,0.291c-0.575,0-1.099-0.098-1.57-0.291c-0.469-0.191-0.871-0.471-1.204-0.832
				c-0.334-0.363-0.589-0.805-0.769-1.33c-0.181-0.521-0.271-1.113-0.271-1.775s0.09-1.252,0.271-1.777
				c0.18-0.525,0.435-0.971,0.769-1.332c0.333-0.363,0.734-0.643,1.204-0.84c0.471-0.193,0.995-0.291,1.57-0.291
				c0.58,0,1.106,0.098,1.576,0.291c0.471,0.197,0.87,0.477,1.202,0.84c0.329,0.361,0.584,0.807,0.766,1.332
				c0.179,0.525,0.269,1.115,0.269,1.777S208.885,125.451,208.706,125.973 M210.086,121.98c-0.255-0.674-0.616-1.254-1.081-1.742
				c-0.465-0.486-1.025-0.867-1.678-1.137c-0.652-0.271-1.375-0.404-2.166-0.404c-0.792,0-1.512,0.133-2.161,0.404
				c-0.651,0.27-1.208,0.65-1.675,1.137c-0.465,0.488-0.826,1.068-1.08,1.742c-0.255,0.674-0.382,1.412-0.382,2.217
				c0,0.807,0.127,1.547,0.382,2.219c0.254,0.672,0.615,1.252,1.08,1.738c0.466,0.484,1.024,0.861,1.675,1.127
				c0.649,0.271,1.369,0.404,2.161,0.404c0.791,0,1.513-0.133,2.166-0.404c0.653-0.266,1.212-0.643,1.678-1.127
				c0.465-0.486,0.826-1.066,1.081-1.738c0.254-0.672,0.383-1.412,0.383-2.219C210.469,123.393,210.341,122.654,210.086,121.98
				 M187.657,118.816v1.223h3.492v9.533h1.456v-9.533h3.475v-1.223H187.657z M182.134,125.973c-0.18,0.525-0.435,0.967-0.766,1.33
				c-0.331,0.361-0.73,0.641-1.201,0.832c-0.47,0.193-0.996,0.291-1.576,0.291c-0.576,0-1.099-0.098-1.569-0.291
				c-0.471-0.191-0.873-0.471-1.205-0.832c-0.333-0.363-0.589-0.805-0.769-1.33c-0.18-0.521-0.271-1.113-0.271-1.775
				s0.09-1.252,0.271-1.777c0.18-0.525,0.437-0.971,0.769-1.332c0.333-0.363,0.734-0.643,1.205-0.84
				c0.47-0.193,0.993-0.291,1.569-0.291c0.58,0,1.106,0.098,1.576,0.291c0.471,0.197,0.871,0.477,1.201,0.84
				c0.331,0.361,0.585,0.807,0.766,1.332c0.181,0.525,0.271,1.115,0.271,1.777S182.314,125.451,182.134,125.973 M183.515,121.98
				c-0.256-0.674-0.615-1.254-1.081-1.742c-0.466-0.486-1.024-0.867-1.678-1.137c-0.653-0.271-1.375-0.404-2.165-0.404
				c-0.791,0-1.512,0.133-2.162,0.404c-0.65,0.27-1.208,0.65-1.673,1.137c-0.467,0.488-0.826,1.068-1.083,1.742
				c-0.255,0.674-0.382,1.412-0.382,2.217c0,0.807,0.127,1.547,0.382,2.219c0.257,0.672,0.616,1.252,1.083,1.738
				c0.465,0.484,1.022,0.861,1.673,1.127c0.65,0.271,1.372,0.404,2.162,0.404c0.79,0,1.512-0.133,2.165-0.404
				c0.654-0.266,1.212-0.643,1.678-1.127c0.465-0.486,0.824-1.066,1.081-1.738c0.255-0.672,0.383-1.412,0.383-2.219
				C183.898,123.393,183.771,122.654,183.515,121.98 M167.686,118.816h-1.449v7.07c0,0.449-0.047,0.84-0.139,1.166
				c-0.093,0.33-0.228,0.598-0.405,0.807c-0.178,0.213-0.395,0.367-0.654,0.469c-0.257,0.1-0.551,0.15-0.882,0.15
				c-0.25,0-0.45-0.023-0.6-0.068s-0.271-0.068-0.36-0.068c-0.106,0-0.184,0.027-0.238,0.08c-0.051,0.053-0.083,0.119-0.093,0.205
				c-0.014,0.141-0.03,0.281-0.044,0.424s-0.028,0.287-0.038,0.434c0.526,0.139,1.031,0.209,1.517,0.209
				c0.545,0,1.027-0.088,1.447-0.264c0.422-0.176,0.776-0.428,1.062-0.754c0.288-0.328,0.506-0.729,0.654-1.207
				c0.147-0.473,0.222-1.012,0.222-1.611V118.816z M152.943,121.211c0.049-0.129,0.101-0.279,0.155-0.455
				c0.052-0.174,0.105-0.361,0.161-0.564c0.104,0.402,0.212,0.742,0.322,1.014l1.688,4.375h-4.015L152.943,121.211z
				 M154.001,118.816h-1.479l-4.301,10.756h1.125c0.125,0,0.23-0.033,0.316-0.104c0.084-0.07,0.144-0.15,0.18-0.242l1.006-2.596
				h4.826l1.006,2.596c0.04,0.102,0.1,0.184,0.18,0.25c0.081,0.064,0.186,0.096,0.316,0.096h1.125L154.001,118.816z
				 M135.252,118.816h-0.751v10.756h1.276v-7.664c0-0.1-0.003-0.211-0.008-0.33s-0.013-0.242-0.023-0.367l6.223,8.1
				c0.075,0.096,0.151,0.164,0.229,0.203c0.078,0.041,0.173,0.059,0.289,0.059h0.736v-10.756h-1.277v7.617
				c0,0.117,0.003,0.236,0.008,0.357c0.005,0.125,0.015,0.25,0.03,0.379l-6.23-8.105c-0.081-0.102-0.151-0.166-0.214-0.199
				C135.478,118.832,135.382,118.816,135.252,118.816 M124.181,121.211c0.05-0.129,0.102-0.279,0.153-0.455
				c0.054-0.174,0.107-0.361,0.161-0.564c0.106,0.402,0.214,0.742,0.323,1.014l1.689,4.375h-4.016L124.181,121.211z
				 M125.239,118.816h-1.478l-4.302,10.756h1.126c0.126,0,0.23-0.033,0.316-0.104c0.085-0.07,0.145-0.15,0.179-0.242l1.006-2.596
				h4.827l1.005,2.596c0.04,0.102,0.099,0.184,0.18,0.25c0.08,0.064,0.186,0.096,0.315,0.096h1.126L125.239,118.816z
				 M114.205,118.816h-1.456v10.756h1.456V118.816z M106.783,119.809c-0.371-0.359-0.804-0.639-1.3-0.826
				c-0.495-0.191-1.043-0.285-1.644-0.285c-0.535,0-1.009,0.08-1.423,0.246c-0.412,0.166-0.758,0.385-1.039,0.662
				c-0.28,0.273-0.496,0.59-0.642,0.945c-0.147,0.357-0.222,0.725-0.222,1.102c0,0.477,0.075,0.877,0.222,1.199
				c0.146,0.322,0.341,0.592,0.582,0.805c0.24,0.217,0.514,0.393,0.822,0.527c0.308,0.135,0.624,0.254,0.946,0.355
				c0.323,0.104,0.639,0.203,0.946,0.301c0.309,0.096,0.582,0.215,0.822,0.357c0.24,0.141,0.435,0.314,0.582,0.521
				c0.148,0.207,0.221,0.473,0.221,0.799c0,0.295-0.049,0.562-0.149,0.805c-0.101,0.238-0.244,0.443-0.433,0.619
				c-0.187,0.174-0.417,0.305-0.686,0.4c-0.271,0.096-0.578,0.143-0.922,0.143c-0.416,0-0.768-0.057-1.056-0.168
				c-0.288-0.113-0.533-0.236-0.736-0.371c-0.201-0.139-0.371-0.262-0.507-0.373c-0.134-0.113-0.255-0.17-0.359-0.17
				c-0.071,0-0.135,0.018-0.191,0.057c-0.058,0.037-0.107,0.084-0.147,0.139l-0.42,0.691c0.405,0.43,0.895,0.771,1.467,1.025
				c0.572,0.252,1.208,0.379,1.902,0.379c0.571,0,1.08-0.088,1.528-0.264s0.826-0.416,1.134-0.721
				c0.308-0.303,0.542-0.662,0.703-1.078c0.159-0.412,0.239-0.852,0.239-1.324c0-0.443-0.073-0.82-0.221-1.123
				c-0.148-0.307-0.343-0.564-0.585-0.775c-0.243-0.211-0.518-0.383-0.826-0.521c-0.307-0.135-0.624-0.262-0.946-0.373
				c-0.323-0.109-0.637-0.215-0.945-0.318c-0.307-0.102-0.583-0.223-0.825-0.363c-0.243-0.139-0.438-0.309-0.586-0.506
				c-0.148-0.199-0.222-0.447-0.222-0.748c0-0.234,0.043-0.453,0.128-0.654c0.085-0.205,0.211-0.381,0.379-0.531
				c0.167-0.15,0.376-0.268,0.626-0.355c0.251-0.088,0.538-0.133,0.864-0.133c0.346,0,0.64,0.043,0.882,0.129
				c0.243,0.084,0.451,0.18,0.623,0.281c0.173,0.102,0.316,0.197,0.429,0.279c0.112,0.086,0.211,0.129,0.295,0.129
				c0.081,0,0.146-0.02,0.196-0.057c0.05-0.039,0.097-0.094,0.142-0.168L106.783,119.809z M90.599,121.211
				c0.05-0.129,0.101-0.279,0.154-0.455c0.053-0.174,0.107-0.361,0.161-0.564c0.105,0.402,0.212,0.742,0.323,1.014l1.689,4.375
				h-4.016L90.599,121.211z M91.657,118.816h-1.479l-4.3,10.756h1.125c0.125,0,0.229-0.033,0.316-0.104
				c0.084-0.07,0.145-0.15,0.18-0.242l1.006-2.596h4.826l1.006,2.596c0.041,0.102,0.1,0.184,0.18,0.25
				c0.081,0.064,0.185,0.096,0.316,0.096h1.125L91.657,118.816z"/>
		</g>
	</g>
</g>
<g id="Layer_2">
	<g>
		<g>
			<path fill="#003366" d="M365.484,77.415c-0.705-0.419-1.439-0.794-2.203-1.123c-0.836-0.369-1.705-0.715-2.6-1.041
				c-0.895-0.322-1.809-0.706-2.734-1.152c-1.043-0.495-1.838-1.125-2.383-1.896c-0.547-0.769-0.818-1.736-0.818-2.905
				c0-1.117,0.422-2.064,1.275-2.839c0.852-0.776,1.881-1.164,3.088-1.164c1.145,0,2.107,0.22,2.896,0.66
				c0.787,0.437,1.455,1.026,2.002,1.762c0.559,0.763,1.014,1.613,1.361,2.554c0.35,0.941,0.666,1.924,0.945,2.953h1.541
				l-0.15-8.976h-1.527l-0.779,1.296c-0.812-0.507-1.713-0.952-2.697-1.334c-0.984-0.381-2.1-0.574-3.346-0.574
				c-1.092,0-2.141,0.188-3.145,0.562c-1.002,0.376-1.871,0.895-2.611,1.555c-0.773,0.697-1.371,1.492-1.789,2.381
				c-0.422,0.891-0.629,1.85-0.629,2.876c0,1.791,0.422,3.243,1.266,4.354c0.846,1.113,2.029,2.011,3.557,2.697
				c0.775,0.354,1.695,0.729,2.762,1.129c1.066,0.398,2.016,0.762,2.84,1.091c1.207,0.483,2.115,1.193,2.727,2.128
				c0.609,0.936,0.914,1.944,0.914,3.026c0,0.735-0.1,1.39-0.297,1.955c-0.195,0.566-0.498,1.059-0.904,1.479
				c-0.406,0.422-0.936,0.744-1.592,0.973c-0.654,0.229-1.42,0.344-2.297,0.344c-1.166,0-2.195-0.223-3.078-0.666
				c-0.881-0.445-1.654-1.041-2.314-1.791c-0.699-0.801-1.262-1.663-1.688-2.583c-0.426-0.921-0.797-1.953-1.113-3.097h-1.545
				l0.268,9.263h1.523l0.82-1.394c0.875,0.534,1.918,0.988,3.125,1.364c1.207,0.375,2.414,0.562,3.621,0.562
				c2.617,0,4.811-0.777,6.576-2.325c1.766-1.551,2.648-3.521,2.648-5.908c0-1.003-0.135-1.882-0.41-2.639
				c-0.271-0.756-0.695-1.454-1.266-2.088C366.803,78.324,366.189,77.835,365.484,77.415 M328.301,75.715
				c-1.168,1.123-2.629,1.68-4.383,1.68h-2.496V65.811h3.238c1.717,0,3.043,0.478,3.982,1.437c0.941,0.959,1.412,2.255,1.412,3.891
				C330.055,73.064,329.469,74.592,328.301,75.715 M340.08,89.938c-0.332-0.012-0.744-0.064-1.24-0.152
				c-0.496-0.091-0.908-0.217-1.238-0.381c-0.445-0.229-0.893-0.524-1.344-0.889c-0.451-0.36-0.957-0.923-1.516-1.686
				c-1.283-1.728-2.367-3.196-3.25-4.401c-0.883-1.208-1.99-2.694-3.324-4.459c0.965-0.282,1.848-0.619,2.648-1.021
				c0.801-0.399,1.486-0.874,2.059-1.419c0.621-0.587,1.092-1.278,1.41-2.079s0.477-1.721,0.477-2.762
				c0-1.155-0.234-2.144-0.705-2.965c-0.471-0.817-1.1-1.483-1.887-1.99c-0.814-0.522-1.723-0.9-2.725-1.135
				c-1.004-0.235-2.078-0.353-3.221-0.353H313.74v1.352c0.355,0.027,0.787,0.086,1.297,0.183c0.506,0.094,0.92,0.199,1.238,0.313
				c0.471,0.179,0.768,0.439,0.896,0.783c0.125,0.343,0.189,0.735,0.189,1.182v19.554c0,0.495-0.084,0.899-0.258,1.22
				c-0.17,0.316-0.447,0.557-0.828,0.724c-0.229,0.103-0.633,0.185-1.211,0.246c-0.578,0.064-1.02,0.108-1.324,0.135v1.353h11.436
				v-1.353c-0.395-0.012-0.877-0.059-1.449-0.135c-0.57-0.076-0.973-0.158-1.201-0.246c-0.457-0.179-0.756-0.437-0.895-0.771
				c-0.141-0.338-0.209-0.728-0.209-1.173v-8.576h2.77c1.521,1.955,2.934,3.855,4.236,5.696c1.301,1.842,2.758,4.029,4.369,6.557
				h7.283V89.938z M300.238,83.323c-0.18,0.587-0.59,1.495-1.23,2.735c-0.642,1.24-1.254,2.164-1.838,2.774
				c-0.216,0.229-0.581,0.41-1.096,0.542c-0.516,0.132-1.014,0.226-1.497,0.275c-0.47,0.05-1.048,0.076-1.734,0.076h-1.659
				c-1.053,0-1.866-0.035-2.439-0.103c-0.57-0.07-1.021-0.226-1.352-0.469c-0.331-0.237-0.553-0.596-0.666-1.064
				c-0.115-0.469-0.172-1.108-0.172-1.921v-8.106h3.049c0.826,0,1.489,0.076,1.99,0.229c0.503,0.152,0.951,0.478,1.344,0.974
				c0.242,0.305,0.475,0.797,0.697,1.478c0.223,0.678,0.358,1.322,0.41,1.933h1.428V72.079h-1.428
				c-0.064,0.545-0.195,1.129-0.391,1.744c-0.198,0.616-0.436,1.108-0.717,1.478c-0.342,0.432-0.74,0.739-1.19,0.924
				c-0.451,0.185-1.166,0.275-2.144,0.275h-3.049V65.752h4.25c0.697,0,1.32,0.015,1.867,0.038c0.547,0.026,1.016,0.064,1.41,0.114
				c0.762,0.103,1.565,0.697,2.41,1.782c0.846,1.088,1.396,2.111,1.649,3.079h1.429v-6.519h-20.926v1.352
				c0.342,0.027,0.804,0.104,1.381,0.229c0.578,0.129,1.039,0.275,1.383,0.439c0.445,0.202,0.737,0.466,0.877,0.789
				c0.14,0.325,0.209,0.697,0.209,1.117v19.439c0,0.469-0.08,0.855-0.237,1.161c-0.159,0.305-0.441,0.554-0.849,0.744
				c-0.189,0.088-0.604,0.173-1.238,0.255c-0.637,0.085-1.145,0.138-1.525,0.164v1.353h22.452l0.514-7.967H300.238z M267.314,64.247
				h-10.997v1.352c0.419,0.027,1.032,0.153,1.839,0.382c0.808,0.229,1.389,0.463,1.744,0.706c0.382,0.279,0.673,0.842,0.877,1.687
				c0.203,0.844,0.305,2.055,0.305,3.63v12.859l-15.201-20.615h-7.727v1.352c0.483,0.027,1.115,0.188,1.897,0.487
				c0.781,0.299,1.401,0.656,1.857,1.076c0.344,0.319,0.616,0.768,0.819,1.352c0.204,0.586,0.305,1.17,0.305,1.756v13.32
				c0,1.769-0.083,3.018-0.248,3.744c-0.166,0.733-0.47,1.275-0.915,1.631c-0.202,0.179-0.711,0.378-1.525,0.601
				c-0.812,0.223-1.39,0.346-1.734,0.372v1.353h11.092v-1.353c-0.292-0.012-0.896-0.141-1.811-0.381
				c-0.916-0.243-1.52-0.501-1.811-0.782c-0.407-0.355-0.708-0.953-0.905-1.792c-0.198-0.839-0.295-2.038-0.295-3.601v-13.95
				l16.391,22.125h1.656v-19.8c0-1.388,0.08-2.528,0.24-3.431c0.158-0.903,0.466-1.513,0.924-1.83
				c0.316-0.205,0.846-0.401,1.582-0.592s1.283-0.29,1.639-0.306V64.247z M228.043,64.247h-23.574v7.336h1.334
				c0.114-0.419,0.317-0.949,0.61-1.592c0.292-0.639,0.629-1.246,1.01-1.817c0.381-0.572,0.797-1.082,1.249-1.537
				c0.45-0.448,0.885-0.7,1.305-0.75c0.534-0.064,1.093-0.105,1.676-0.126c0.586-0.018,1.074-0.026,1.468-0.026h1.105v21.802
				c0,0.522-0.098,0.938-0.296,1.25c-0.196,0.311-0.504,0.548-0.923,0.712c-0.28,0.114-0.786,0.211-1.517,0.287
				c-0.729,0.076-1.273,0.126-1.628,0.152v1.353h12.769v-1.353c-0.407-0.012-0.976-0.097-1.705-0.249
				c-0.731-0.152-1.21-0.272-1.439-0.36c-0.444-0.19-0.755-0.46-0.934-0.812c-0.179-0.346-0.268-0.732-0.268-1.152V65.734h1.108
				c0.509,0,1.064,0.012,1.662,0.038c0.599,0.023,1.096,0.064,1.491,0.114c0.42,0.062,0.855,0.313,1.307,0.75
				c0.454,0.44,0.87,0.953,1.252,1.537c0.37,0.557,0.703,1.152,1.003,1.782c0.299,0.628,0.506,1.17,0.62,1.627h1.315V64.247z
				 M183.857,75.715c-1.17,1.123-2.631,1.68-4.384,1.68h-2.496V65.811h3.239c1.716,0,3.043,0.478,3.985,1.437
				c0.939,0.959,1.41,2.255,1.41,3.891C185.611,73.064,185.026,74.592,183.857,75.715 M195.635,89.938
				c-0.33-0.012-0.743-0.064-1.238-0.152c-0.497-0.091-0.91-0.217-1.24-0.381c-0.444-0.229-0.892-0.524-1.343-0.889
				c-0.45-0.36-0.957-0.923-1.515-1.686c-1.284-1.728-2.366-3.196-3.249-4.401c-0.885-1.208-1.992-2.694-3.327-4.459
				c0.965-0.282,1.849-0.619,2.65-1.021c0.8-0.399,1.486-0.874,2.058-1.419c0.623-0.587,1.093-1.278,1.41-2.079
				c0.318-0.801,0.477-1.721,0.477-2.762c0-1.155-0.235-2.144-0.705-2.965c-0.47-0.817-1.1-1.483-1.888-1.99
				c-0.813-0.522-1.722-0.9-2.725-1.135c-1.004-0.235-2.077-0.353-3.221-0.353h-12.482v1.352c0.355,0.027,0.788,0.086,1.295,0.183
				c0.51,0.094,0.922,0.199,1.239,0.313c0.47,0.179,0.769,0.439,0.896,0.783c0.126,0.343,0.191,0.735,0.191,1.182v19.554
				c0,0.495-0.086,0.899-0.257,1.22c-0.173,0.316-0.449,0.557-0.831,0.724c-0.228,0.103-0.632,0.185-1.21,0.246
				c-0.578,0.064-1.019,0.108-1.324,0.135v1.353h11.435v-1.353c-0.394-0.012-0.877-0.059-1.449-0.135
				c-0.572-0.076-0.971-0.158-1.201-0.246c-0.457-0.179-0.755-0.437-0.895-0.771c-0.141-0.338-0.21-0.728-0.21-1.173v-8.576h2.77
				c1.524,1.955,2.935,3.855,4.237,5.696c1.301,1.842,2.757,4.029,4.37,6.557h7.282V89.938z M139.942,80.235l4.039-10.493
				l4.097,10.493H139.942z M158.956,89.938c-0.316-0.012-0.711-0.079-1.181-0.199c-0.47-0.123-0.852-0.272-1.143-0.448
				c-0.432-0.293-0.77-0.593-1.01-0.897c-0.242-0.305-0.458-0.703-0.649-1.199l-9.015-23.327h-1.524
				c-1.283,3.302-2.746,7.069-4.383,11.3c-1.64,4.231-3.139,8.043-4.498,11.436c-0.267,0.659-0.541,1.179-0.819,1.554
				c-0.281,0.375-0.675,0.733-1.182,1.076c-0.318,0.205-0.725,0.366-1.221,0.486s-0.908,0.193-1.239,0.22v1.353h10.185v-1.353
				c-1.003-0.053-1.905-0.217-2.707-0.495c-0.8-0.278-1.2-0.674-1.2-1.182c0-0.217,0.031-0.495,0.094-0.839
				c0.063-0.343,0.179-0.788,0.344-1.334c0.179-0.56,0.378-1.17,0.6-1.829c0.224-0.66,0.514-1.437,0.869-2.325h9.494l2.239,6.061
				c0.05,0.126,0.089,0.272,0.114,0.437c0.024,0.167,0.038,0.305,0.038,0.42c0,0.281-0.327,0.516-0.981,0.706
				c-0.655,0.19-1.477,0.316-2.468,0.381v1.353h11.241V89.938z M115.492,77.119c-0.857,0.428-1.972,0.639-3.345,0.639h-1.944V65.811
				h2.687c1.081,0,1.983,0.164,2.707,0.495c0.724,0.328,1.309,0.795,1.753,1.39c0.418,0.561,0.715,1.214,0.885,1.965
				c0.173,0.75,0.259,1.486,0.259,2.211c0,0.519-0.071,1.108-0.21,1.762c-0.14,0.654-0.427,1.287-0.857,1.897
				C116.995,76.166,116.349,76.694,115.492,77.119 M120.866,66.065c-1.569-1.211-3.61-1.818-6.126-1.818H102.39v1.352
				c0.344,0.027,0.754,0.074,1.229,0.145s0.957,0.188,1.439,0.352c0.47,0.179,0.768,0.445,0.895,0.801
				c0.128,0.354,0.191,0.756,0.191,1.202v19.516c0,0.495-0.086,0.899-0.257,1.22c-0.173,0.316-0.449,0.557-0.829,0.724
				c-0.229,0.103-0.633,0.185-1.211,0.246c-0.578,0.064-1.019,0.108-1.324,0.135v1.353h11.605v-1.353
				c-0.481-0.012-1.013-0.059-1.591-0.135c-0.578-0.076-0.98-0.158-1.21-0.246c-0.456-0.179-0.76-0.437-0.905-0.771
				c-0.146-0.338-0.219-0.728-0.219-1.173v-8.195h3.03c1.296,0,2.522-0.167,3.678-0.496c1.156-0.331,2.217-0.853,3.183-1.562
				c0.979-0.712,1.744-1.612,2.296-2.697c0.553-1.088,0.829-2.334,0.829-3.744C123.221,68.897,122.436,67.279,120.866,66.065
				 M68.219,89.938c-0.317-0.012-0.752-0.076-1.305-0.19c-0.552-0.114-0.937-0.229-1.152-0.343
				c-0.433-0.229-0.723-0.495-0.868-0.801c-0.146-0.305-0.219-0.68-0.219-1.126V67.982c0-0.419,0.073-0.806,0.219-1.163
				c0.146-0.355,0.436-0.61,0.868-0.763c0.253-0.088,0.638-0.185,1.152-0.284c0.515-0.103,0.949-0.158,1.305-0.174v-1.352H56.995
				v1.352c0.356,0.027,0.778,0.104,1.268,0.229c0.489,0.129,0.905,0.275,1.249,0.439c0.405,0.19,0.692,0.454,0.856,0.789
				c0.165,0.34,0.248,0.709,0.248,1.117v8.194H47.904v-8.386c0-0.419,0.073-0.806,0.219-1.163c0.145-0.355,0.435-0.61,0.867-0.763
				c0.253-0.088,0.638-0.185,1.153-0.284c0.516-0.103,0.951-0.158,1.306-0.174v-1.352H40.223v1.352
				c0.355,0.027,0.778,0.104,1.267,0.229c0.49,0.129,0.905,0.275,1.25,0.439c0.407,0.19,0.692,0.454,0.857,0.789
				c0.165,0.34,0.248,0.709,0.248,1.117v19.516c0,0.495-0.088,0.896-0.268,1.208c-0.176,0.313-0.456,0.545-0.837,0.694
				c-0.216,0.103-0.614,0.179-1.192,0.231c-0.578,0.05-1.019,0.088-1.324,0.114v1.353h11.226v-1.353
				c-0.318-0.012-0.753-0.076-1.306-0.19s-0.937-0.229-1.153-0.343c-0.433-0.229-0.722-0.495-0.867-0.801
				c-0.146-0.305-0.219-0.68-0.219-1.126v-9.414h12.712v9.626c0,0.495-0.089,0.896-0.268,1.208
				c-0.177,0.313-0.456,0.545-0.837,0.694c-0.216,0.103-0.614,0.179-1.192,0.231c-0.579,0.05-1.02,0.088-1.325,0.114v1.353h11.225
				V89.938z M28.996,89.938c-0.318-0.012-0.752-0.076-1.306-0.19c-0.552-0.114-0.937-0.229-1.153-0.343
				c-0.432-0.229-0.721-0.495-0.866-0.801c-0.147-0.305-0.219-0.68-0.219-1.126V67.982c0-0.419,0.072-0.806,0.219-1.163
				c0.145-0.355,0.434-0.61,0.866-0.763c0.256-0.088,0.64-0.185,1.153-0.284c0.516-0.103,0.951-0.158,1.306-0.174v-1.352H17.77
				v1.352c0.355,0.027,0.779,0.104,1.269,0.229c0.487,0.129,0.905,0.275,1.247,0.439c0.407,0.19,0.692,0.454,0.859,0.789
				c0.164,0.34,0.248,0.709,0.248,1.117v8.194H8.68v-8.386c0-0.419,0.073-0.806,0.219-1.163c0.146-0.355,0.436-0.61,0.866-0.763
				c0.255-0.088,0.64-0.185,1.153-0.284c0.515-0.103,0.95-0.158,1.306-0.174v-1.352H1v1.352c0.354,0.027,0.778,0.104,1.267,0.229
				c0.49,0.129,0.905,0.275,1.248,0.439c0.407,0.19,0.693,0.454,0.859,0.789c0.165,0.34,0.248,0.709,0.248,1.117v19.516
				c0,0.495-0.09,0.896-0.268,1.208c-0.179,0.313-0.458,0.545-0.839,0.694c-0.216,0.103-0.612,0.179-1.19,0.231
				C1.746,89.873,1.305,89.911,1,89.938v1.353h11.225v-1.353c-0.318-0.012-0.752-0.076-1.306-0.19
				c-0.553-0.114-0.937-0.229-1.153-0.343c-0.431-0.229-0.72-0.495-0.866-0.801c-0.146-0.305-0.219-0.68-0.219-1.126v-9.414h12.712
				v9.626c0,0.495-0.09,0.896-0.267,1.208c-0.178,0.313-0.458,0.545-0.839,0.694c-0.216,0.103-0.612,0.179-1.19,0.231
				c-0.578,0.05-1.019,0.088-1.325,0.114v1.353h11.226V89.938z"/>
		</g>
		<rect x="152.304" y="1.306" fill="#003366" width="7.182" height="34.475"/>
		<rect x="166.683" y="22.138" fill="#003366" width="7.182" height="13.646"/>
		<rect x="181.062" y="1.306" fill="#003366" width="7.182" height="34.475"/>
		<rect x="209.821" y="1.306" fill="#003366" width="7.182" height="34.475"/>
		<rect x="166.683" y="1.37" fill="#003366" width="7.182" height="13.643"/>
		<rect x="195.48" y="1.37" fill="#003366" width="7.182" height="13.643"/>
		<rect x="195.481" y="22.138" fill="#003366" width="7.182" height="13.646"/>
		<g>
			<path fill="#003366" d="M272.339,129.576h1.307l2.74-8.204c0.025-0.076,0.049-0.161,0.071-0.252
				c0.022-0.094,0.046-0.188,0.07-0.29c0.046,0.208,0.097,0.387,0.15,0.542l2.725,8.204h1.306l3.355-10.758h-1.133
				c-0.125,0-0.231,0.035-0.318,0.105c-0.088,0.07-0.145,0.149-0.17,0.24l-2.229,7.478c-0.038,0.129-0.071,0.27-0.097,0.419
				s-0.053,0.308-0.084,0.472c-0.068-0.334-0.148-0.633-0.239-0.891l-2.515-7.478c-0.035-0.1-0.094-0.182-0.176-0.246
				s-0.189-0.1-0.32-0.1h-0.42c-0.125,0-0.23,0.038-0.318,0.108c-0.087,0.073-0.146,0.152-0.177,0.237l-2.53,7.478
				c-0.045,0.129-0.083,0.275-0.119,0.431c-0.035,0.158-0.069,0.322-0.105,0.492c-0.029-0.17-0.061-0.334-0.093-0.489
				c-0.033-0.152-0.069-0.299-0.109-0.434l-2.222-7.478c-0.03-0.1-0.088-0.182-0.174-0.246c-0.084-0.064-0.191-0.1-0.322-0.1h-1.209
				L272.339,129.576z M260.496,121.214c0.051-0.132,0.102-0.281,0.154-0.454s0.106-0.361,0.16-0.566
				c0.105,0.405,0.214,0.742,0.323,1.012l1.688,4.378h-4.016L260.496,121.214z M261.553,118.818h-1.479l-4.3,10.758h1.125
				c0.127,0,0.23-0.035,0.315-0.105s0.146-0.149,0.181-0.24l1.006-2.598h4.826l1.006,2.598c0.039,0.1,0.1,0.182,0.18,0.249
				c0.08,0.064,0.186,0.097,0.314,0.097h1.127L261.553,118.818z M247.142,118.818h-1.455v10.758h6.108v-1.223h-4.653V118.818z
				 M236.32,125.642h3.708v-1.132h-3.708V125.642z M224.67,118.818v1.226h3.491v9.532h1.456v-9.532h3.475v-1.226H224.67z
				 M216.437,121.214c0.049-0.132,0.101-0.281,0.153-0.454c0.052-0.173,0.106-0.361,0.162-0.566
				c0.104,0.405,0.211,0.742,0.322,1.012l1.689,4.378h-4.016L216.437,121.214z M217.495,118.818h-1.479l-4.3,10.758h1.126
				c0.125,0,0.229-0.035,0.315-0.105c0.084-0.07,0.145-0.149,0.18-0.24l1.006-2.598h4.826l1.006,2.598
				c0.04,0.1,0.1,0.182,0.18,0.249c0.08,0.064,0.185,0.097,0.315,0.097h1.125L217.495,118.818z M203.969,125.642h3.708v-1.132
				h-3.708V125.642z M198.828,119.81c-0.371-0.36-0.804-0.634-1.299-0.824c-0.496-0.19-1.043-0.287-1.644-0.287
				c-0.536,0-1.011,0.085-1.423,0.249c-0.413,0.164-0.76,0.385-1.039,0.66c-0.281,0.275-0.496,0.589-0.643,0.947
				c-0.146,0.354-0.221,0.721-0.221,1.103c0,0.475,0.074,0.873,0.221,1.199c0.147,0.319,0.342,0.589,0.583,0.806
				c0.241,0.214,0.513,0.39,0.821,0.525c0.308,0.135,0.623,0.252,0.946,0.357c0.322,0.1,0.638,0.199,0.945,0.296
				c0.308,0.1,0.582,0.22,0.823,0.357c0.24,0.142,0.434,0.314,0.581,0.522c0.146,0.208,0.222,0.475,0.222,0.8
				c0,0.297-0.051,0.563-0.15,0.804c-0.101,0.24-0.245,0.446-0.433,0.619c-0.188,0.173-0.416,0.308-0.686,0.401
				c-0.27,0.094-0.578,0.144-0.923,0.144c-0.416,0-0.767-0.059-1.055-0.17s-0.533-0.237-0.736-0.372
				c-0.202-0.135-0.37-0.259-0.506-0.37c-0.135-0.114-0.255-0.17-0.36-0.17c-0.07,0-0.135,0.018-0.192,0.056
				c-0.057,0.038-0.107,0.085-0.146,0.141l-0.42,0.689c0.405,0.431,0.893,0.771,1.466,1.026c0.574,0.252,1.207,0.378,1.903,0.378
				c0.571,0,1.08-0.088,1.527-0.264s0.826-0.416,1.133-0.722c0.308-0.305,0.542-0.662,0.703-1.076
				c0.159-0.413,0.24-0.855,0.24-1.325c0-0.445-0.075-0.82-0.222-1.126c-0.146-0.305-0.342-0.562-0.585-0.771
				c-0.244-0.211-0.519-0.388-0.826-0.522c-0.308-0.138-0.623-0.264-0.946-0.372c-0.322-0.111-0.638-0.217-0.945-0.319
				c-0.308-0.103-0.583-0.223-0.826-0.364c-0.243-0.141-0.438-0.311-0.585-0.507c-0.147-0.196-0.221-0.445-0.221-0.748
				c0-0.234,0.042-0.451,0.127-0.656c0.084-0.199,0.21-0.378,0.378-0.528c0.168-0.149,0.377-0.27,0.627-0.357
				c0.249-0.088,0.537-0.129,0.863-0.129c0.345,0,0.638,0.041,0.882,0.126c0.243,0.085,0.45,0.179,0.623,0.281
				c0.172,0.103,0.315,0.197,0.427,0.282c0.113,0.085,0.212,0.129,0.298,0.129c0.079,0,0.144-0.021,0.195-0.059
				c0.05-0.035,0.098-0.094,0.143-0.167L198.828,119.81z M188.011,118.818h-1.291c-0.126,0-0.227,0.038-0.305,0.108
				c-0.076,0.073-0.138,0.149-0.183,0.231l-2.455,4.179c-0.101,0.17-0.183,0.334-0.248,0.489c-0.066,0.155-0.126,0.312-0.18,0.467
				c-0.056-0.152-0.117-0.306-0.185-0.461c-0.068-0.152-0.152-0.319-0.251-0.495l-2.462-4.179c-0.055-0.097-0.121-0.176-0.195-0.24
				s-0.179-0.1-0.308-0.1h-1.276l3.941,6.479v4.278h1.449v-4.278L188.011,118.818z M167.595,118.818v10.758h6.628v-1.188h-5.164
				v-3.671h4.181v-1.141h-4.181v-3.571h5.164v-1.188H167.595z M153.394,118.818h-0.751v10.758h1.276v-7.664
				c0-0.1-0.003-0.211-0.007-0.332c-0.007-0.12-0.014-0.243-0.023-0.366l6.223,8.099c0.075,0.094,0.152,0.161,0.228,0.202
				c0.079,0.041,0.174,0.062,0.29,0.062h0.736v-10.758h-1.276v7.62c0,0.115,0.001,0.235,0.007,0.355
				c0.005,0.123,0.015,0.249,0.03,0.381l-6.23-8.107c-0.081-0.103-0.151-0.167-0.214-0.199
				C153.62,118.836,153.522,118.818,153.394,118.818 M140.971,119.968h1.591c0.834,0,1.465,0.161,1.887,0.487
				c0.424,0.325,0.635,0.809,0.635,1.448c0,0.316-0.055,0.604-0.165,0.864c-0.11,0.259-0.275,0.484-0.493,0.672
				c-0.217,0.188-0.487,0.331-0.811,0.437c-0.322,0.103-0.696,0.152-1.121,0.152h-1.524V119.968z M142.074,125.087
				c0.2,0,0.35,0.026,0.451,0.079c0.099,0.05,0.192,0.138,0.277,0.259l2.792,3.844c0.125,0.205,0.32,0.308,0.585,0.308h1.292
				l-3.138-4.272c-0.141-0.199-0.3-0.352-0.48-0.457c0.415-0.094,0.787-0.234,1.114-0.419c0.329-0.185,0.606-0.411,0.833-0.672
				c0.229-0.264,0.402-0.56,0.522-0.892c0.12-0.328,0.18-0.686,0.18-1.063c0-0.458-0.078-0.868-0.233-1.234
				c-0.156-0.37-0.395-0.684-0.718-0.944c-0.322-0.258-0.73-0.458-1.226-0.599c-0.496-0.135-1.083-0.205-1.764-0.205h-3.04v10.758
				h1.449v-4.489H142.074z M132.017,125.979c-0.18,0.521-0.436,0.965-0.766,1.325c-0.33,0.363-0.73,0.643-1.201,0.836
				c-0.47,0.19-0.995,0.287-1.577,0.287c-0.575,0-1.099-0.097-1.568-0.287c-0.47-0.193-0.873-0.473-1.205-0.836
				c-0.332-0.36-0.589-0.804-0.769-1.325c-0.18-0.524-0.271-1.117-0.271-1.776c0-0.66,0.09-1.255,0.271-1.78
				c0.18-0.524,0.437-0.971,0.769-1.334c0.333-0.36,0.735-0.64,1.205-0.836c0.47-0.193,0.994-0.293,1.568-0.293
				c0.582,0,1.107,0.1,1.577,0.293c0.47,0.196,0.871,0.476,1.201,0.836c0.331,0.363,0.586,0.81,0.766,1.334
				c0.18,0.525,0.27,1.12,0.27,1.78C132.287,124.861,132.196,125.454,132.017,125.979 M133.397,121.982
				c-0.255-0.672-0.616-1.252-1.081-1.742c-0.465-0.486-1.025-0.864-1.678-1.135c-0.653-0.272-1.374-0.407-2.166-0.407
				c-0.791,0-1.511,0.135-2.162,0.407c-0.65,0.271-1.208,0.648-1.673,1.135c-0.465,0.49-0.826,1.07-1.081,1.742
				c-0.255,0.674-0.383,1.413-0.383,2.22c0,0.806,0.127,1.545,0.383,2.216c0.255,0.675,0.616,1.255,1.081,1.739
				c0.465,0.483,1.023,0.862,1.673,1.129c0.65,0.27,1.371,0.401,2.162,0.401c0.792,0,1.512-0.132,2.166-0.401
				c0.652-0.267,1.212-0.646,1.678-1.129c0.465-0.484,0.826-1.064,1.081-1.739c0.255-0.671,0.383-1.41,0.383-2.216
				C133.78,123.396,133.653,122.656,133.397,121.982 M110.97,118.818v1.226h3.49v9.532h1.457v-9.532h3.475v-1.226H110.97z
				 M98.509,118.818v1.226H102v9.532h1.456v-9.532h3.475v-1.226H98.509z M90.275,121.214c0.05-0.132,0.102-0.281,0.155-0.454
				s0.104-0.361,0.161-0.566c0.104,0.405,0.213,0.742,0.322,1.012l1.689,4.378h-4.016L90.275,121.214z M91.334,118.818h-1.479
				l-4.301,10.758h1.126c0.125,0,0.229-0.035,0.315-0.105c0.086-0.07,0.146-0.149,0.18-0.24l1.006-2.598h4.826l1.006,2.598
				c0.041,0.1,0.101,0.182,0.18,0.249c0.08,0.064,0.185,0.097,0.315,0.097h1.126L91.334,118.818z"/>
		</g>
	</g>
	<g>
	</g>
	<g>
	</g>
	<g>
	</g>
	<g>
	</g>
	<g>
	</g>
	<g>
	</g>
</g>
</svg>
