<svg xmlns="http://www.w3.org/2000/svg" viewBox="0 0 254.54 83.66"><defs><style>.cls-1{fill:#f04e98;}.cls-2{fill:#ff006e;}.cls-3{fill:#ffa0a0;}.cls-4{fill:#f27485;}.cls-5{fill:#231f20;}</style></defs><g id="Calque_2" data-name="Calque 2"><g id="Layer_1" data-name="Layer 1"><rect class="cls-1" x="34.25" width="65.64" height="17.08"/><rect class="cls-2" width="17.07" height="83.65"/><rect class="cls-3" x="34.25" y="66.52" width="65.64" height="17.13"/><rect class="cls-4" x="34.25" y="33.25" width="65.64" height="17.13"/><path id="path10" class="cls-5" d="M142.57,23V9.85h3.66V35.56l.27,5.08h-3.35l-.46-2.93a7.62,7.62,0,0,1-6.58,3.39c-5.93,0-9.2-3.85-9.2-10.66s3.27-10.66,9.2-10.66a7.73,7.73,0,0,1,6.46,3.2m0,5a6.07,6.07,0,0,0-6.12-4.81c-3.5,0-5.73,2.54-5.73,7.24s2.23,7.24,5.73,7.24a6,6,0,0,0,6.12-4.81Z"/><path id="path12" class="cls-5" d="M163.12,32c.27,4.16,2.54,5.93,5.93,5.93s4.66-1.23,5.08-3.23l3.85.46c-.46,3.23-3,6-8.89,6-6.08,0-9.81-3.58-9.81-10.66S163,19.79,169,19.79c6.19,0,9.16,3.85,9.16,10.63V32Zm0-3.12h11c-.08-3.77-1.77-5.89-5.16-5.85s-5.58,1.81-5.85,5.85"/><path id="path14" class="cls-5" d="M195.6,34.64c0-2.5-2-2.5-5.47-2.89s-8.2-.81-8.2-5.51,4.5-6.47,8.23-6.47c5.58,0,8.16,2.27,8.7,6.08l-3.85.46c-.42-2.15-1.73-3.35-4.85-3.31-2,0-4.46.5-4.46,3,0,2.08,2,2.27,5,2.58,3.92.38,8.66.66,8.66,5.89,0,4.85-4.77,6.66-9.2,6.66-5.81,0-8.43-2.54-8.89-6.12l3.85-.5c.42,2.16,1.77,3.43,5,3.39,2.71-.06,5.44-.72,5.44-3.22"/><path id="path16" class="cls-5" d="M201.8,20.25h3.7V14.78l3.66-.62v6.08h6.23v3.12h-6.23V33c0,3.85,1.23,4.7,3.85,4.74a5.38,5.38,0,0,0,2.35-.5l.35,3.43a8.65,8.65,0,0,1-2.77.46c-6.23,0-7.43-3.85-7.43-7.89V23.37h-3.7V20.25Z"/><path id="path18" class="cls-5" d="M125.29,71.76l7.39-1.11V69c0-4-2.27-5.19-6.27-5.27-3.66-.08-5.35,1.38-5.85,3.89L119,67.46c.62-2.85,2.66-5,7.39-5,4.93,0,7.74,2.19,7.74,6.7v9.93l.19,4.16h-1.15l-.5-3.85c-1.65,3-5.12,4.23-8.12,4.23-4.42,0-6.58-2.39-6.58-5.69,0-4,2.91-5.56,7.3-6.21m-.74,10.54c4.66,0,7-2.35,8.12-5.12V71.91l-7.58,1.2c-3.12.5-5.54,1.46-5.54,4.85,0,2.8,1.77,4.34,5,4.34"/><polygon id="polygon20" class="cls-5" points="147.18 83.65 145.57 83.65 137.6 62.86 139.33 62.86 143.68 74.6 146.38 82.03 149.07 74.6 153.46 62.86 155.15 62.86 147.18 83.65"/><path id="path22" class="cls-5" d="M157.85,73.07c0-6.62,3.31-10.59,9.08-10.59s9.08,4,9.08,10.59-3.31,10.58-9.08,10.58-9.08-4-9.08-10.58m1.61,0c0,5.85,2.65,9.24,7.47,9.24s7.47-3.39,7.47-9.24-2.66-9.24-7.47-9.24-7.47,3.39-7.47,9.24"/><path id="path24" class="cls-5" d="M189.6,62.48c4.77,0,7.43,2.12,8.05,5.27L196,68c-.54-2.58-2.58-4.16-6.43-4.16-4.35,0-7.47,3.62-7.47,9.24s3.12,9.24,7.47,9.24c3.85,0,5.89-1.58,6.43-4.16l1.62.23c-.62,3.16-3.27,5.27-8.05,5.27-5.43,0-9.08-4.23-9.08-10.58s3.65-10.58,9.08-10.58"/><path id="path26" class="cls-5" d="M209.46,71.76l7.39-1.11V69c0-4-2.27-5.19-6.27-5.27-3.66-.08-5.35,1.38-5.85,3.89l-1.54-.19c.62-2.85,2.66-5,7.39-5,4.93,0,7.74,2.19,7.74,6.7v9.93l.19,4.16h-1.16l-.5-3.85c-1.65,3-5.12,4.23-8.12,4.23-4.42,0-6.58-2.39-6.58-5.69,0-4,2.92-5.56,7.31-6.21m-.73,10.54c4.66,0,7-2.35,8.12-5.12V71.91l-7.58,1.2c-3.12.5-5.54,1.46-5.54,4.85,0,2.8,1.77,4.34,5,4.34"/><path id="path28" class="cls-5" d="M234.36,81.92l.31,1.39a6.61,6.61,0,0,1-2.19.34c-6,0-6.39-3.77-6.39-8V64.18H222V62.87h4.08V57.48l1.46-.5v5.88h6.66v1.31h-6.66V76.68c0,4.7,1.85,5.58,4.93,5.58a5,5,0,0,0,1.88-.34"/><path id="path30" class="cls-5" d="M240.06,68.33c0,2.93,2,3.16,6.43,3.66,3.73.42,8,1,8,5.5s-3.81,6.16-8.62,6.16-7.43-2.12-8-5.27l1.62-.23c.54,2.58,2.54,4.16,6.39,4.16s7-1.27,7-4.77-3.08-3.81-7.2-4.23c-3.31-.34-7.2-.85-7.2-4.93s3.58-5.89,7.54-5.89c4.78,0,7.43,2.12,8.05,5.27L252.5,68c-.54-2.58-2.62-4.16-6.47-4.16-2.63,0-6,1.15-6,4.5"/><path id="path2" class="cls-5" d="M122.71,16.05H118.4V11.78h4.31Zm-4,4.2h3.69v20.4h-3.69Z"/></g></g></svg>