<?xml version="1.0" encoding="UTF-8" standalone="no"?>
<!-- Created with Inkscape (http://www.inkscape.org/) -->

<svg
   version="1.1"
   id="svg1"
   width="592.2168"
   height="263.30682"
   viewBox="0 0 592.2168 263.30682"
   sodipodi:docname="inno3.svg"
   inkscape:version="1.4.3 (0d15f75, 2025-12-25)"
   xmlns:inkscape="http://www.inkscape.org/namespaces/inkscape"
   xmlns:sodipodi="http://sodipodi.sourceforge.net/DTD/sodipodi-0.dtd"
   xmlns="http://www.w3.org/2000/svg"
   xmlns:svg="http://www.w3.org/2000/svg">
  <defs
     id="defs1" />
  <sodipodi:namedview
     id="namedview1"
     pagecolor="#ffffff"
     bordercolor="#000000"
     borderopacity="0.25"
     inkscape:showpageshadow="2"
     inkscape:pageopacity="0.0"
     inkscape:pagecheckerboard="0"
     inkscape:deskcolor="#d1d1d1"
     inkscape:zoom="0.37"
     inkscape:cx="291.89189"
     inkscape:cy="128.37838"
     inkscape:current-layer="g1" />
  <g
     inkscape:groupmode="layer"
     inkscape:label="Image"
     id="g1"
     transform="translate(-108.78318,-69.374029)">
    <g
       id="g2">
      <path
         style="fill:#9fd7ea"
         d="m 496.20171,331.04321 c -20.78072,-5.63034 -35.95158,-21.12354 -40.78981,-41.65649 -2.16735,-9.19799 -1.43549,-25.19115 1.59644,-34.88672 10.97287,-35.08926 45.93372,-61.5 81.40979,-61.5 17.04679,0 29.8987,5.08419 41.02377,16.22892 18.8932,18.9266 21.91067,47.0187 8.08512,75.27108 -10.75439,21.9765 -32.0655,39.80695 -55.02702,46.03966 -9.70124,2.63332 -27.52503,2.88058 -36.29829,0.50355 z m 29.07868,-28.5147 c 9.18814,-1.94697 16.03552,-5.8049 23.36795,-13.16588 C 565.96086,271.98269 568.39854,245.39854 554,231 540.47535,217.47535 518.50387,219.81017 501.31205,236.59893 487.78173,249.81204 482.53367,271.06833 489.1152,286 c 3.71649,8.43167 12.13938,15.16036 21.22855,16.95858 6.05411,1.19777 7.4433,1.15777 14.93664,-0.43007 z M 109.3252,326.75 c 0.29811,-1.2375 5.79113,-30.6 12.20672,-65.25 6.41558,-34.65 11.87202,-63.3375 12.12541,-63.75 0.25339,-0.4125 7.40915,-0.75 15.90169,-0.75 13.21864,0 15.44098,0.22104 15.44098,1.53581 0,0.84469 -2.26513,13.78219 -5.03361,28.75 -13.17932,71.25384 -18.04249,97.39581 -18.50326,99.46419 -0.4944,2.21934 -0.72051,2.25 -16.59059,2.25 h -16.08936 z m 56.98968,0 c 0.29243,-1.2375 5.83469,-30.9375 12.31613,-66 L 190.41545,197 h 14.83759 14.83759 l -0.63264,3.75 c -0.34794,2.0625 -0.87487,4.62009 -1.17095,5.68354 -0.43805,1.5734 0.20748,1.34285 3.46576,-1.23776 2.20225,-1.74421 7.99629,-5.0893 12.87564,-7.43354 L 243.5,193.5 l 12,0.006 c 10.96494,0.005 12.58771,0.25395 18.81364,2.88182 18.65926,7.87577 26.75467,24.28464 23.82618,48.29408 -0.95733,7.84867 -12.58226,72.89716 -14.66657,82.06821 -0.50429,2.21892 -0.73363,2.25 -16.60071,2.25 h -16.08936 l 0.55067,-2.25 c 0.30287,-1.2375 3.35947,-17.1 6.79245,-35.25 5.17358,-27.35251 6.25306,-34.8825 6.30774,-44 0.0596,-9.9451 -0.17379,-11.42784 -2.43404,-15.4613 -4.84882,-8.65281 -13.34325,-11.66129 -24.31374,-8.61123 -11.53127,3.20598 -19.78436,11.78789 -23.82672,24.77601 -1.06127,3.40986 -4.8662,21.97152 -8.4554,41.24813 -3.58921,19.27662 -6.77223,36.06089 -7.07339,37.29839 -0.53948,2.21677 -0.78388,2.25 -16.54757,2.25 h -16 z M 308,328.33962 c 0,-0.3632 5.4,-29.80318 12,-65.42216 6.6,-35.61898 12,-65.02181 12,-65.33962 C 332,197.26003 338.75857,197 347.01905,197 h 15.01905 l -0.51905,2.5 c -0.28548,1.375 -0.75262,3.625 -1.0381,5 -0.28548,1.375 -0.30546,2.5 -0.0444,2.5 0.26106,0 2.98431,-1.75802 6.05167,-3.90672 3.06736,-2.14869 8.59985,-5.17135 12.29441,-6.71701 6.07447,-2.54133 7.86589,-2.81346 18.71738,-2.84329 11.77183,-0.0324 12.14506,0.0363 19.62891,3.61022 9.77477,4.66797 15.099,9.53014 18.85032,17.21441 3.92171,8.0333 5.22178,17.52595 4.00758,29.26199 -0.51697,4.99684 -4.10049,26.06822 -7.96338,46.82529 C 428.16055,311.20196 425,328.36838 425,328.59251 425,328.81663 417.8,329 409,329 c -8.8,0 -16,-0.26103 -16,-0.58008 0,-0.31904 2.98476,-16.40654 6.6328,-35.75 7.43019,-39.39805 8.3635,-50.29205 5.04535,-58.89148 -5.33502,-13.82644 -23.52264,-15.59814 -37.95984,-3.69777 -4.32557,3.56549 -8.01687,9.49294 -10.74436,17.25313 C 354.51741,251.47792 340,325.15505 340,328.403 c 0,0.32835 -7.2,0.597 -16,0.597 -8.8,0 -16,-0.29717 -16,-0.66038 z M 136.56619,180.25 c 0.28391,-1.5125 1.51739,-8.15 2.74108,-14.75 l 2.22488,-12 15.73392,-0.27539 C 171.95415,152.96752 173,153.07102 173,154.78172 c 0,1.75474 -3.38597,21.28618 -4.50186,25.96828 -0.52836,2.21692 -0.77084,2.25 -16.49219,2.25 H 136.05 Z m 296.34563,-18.63281 c -12.2576,-3.54626 -24.05713,-13.05021 -29.474,-23.73989 -14.29211,-28.20412 1.0029,-60.149741 32.31216,-67.488181 17.14194,-4.017822 38.85265,4.256097 48.22606,18.378877 l 3.14067,4.732004 -4.92098,0.297495 c -4.7587,0.287685 -5.10535,0.117499 -10.51154,-5.160635 C 463.82918,80.967923 457.36851,78.515226 445,78.506614 c -8.90439,-0.0062 -9.89104,0.205449 -15.737,3.375782 -7.67362,4.161492 -14.5377,11.335543 -18.08294,18.899534 -2.34687,5.00719 -2.68006,6.96129 -2.68006,15.71807 0,9.04097 0.28192,10.57419 2.93962,15.98724 3.74431,7.62618 10.44696,14.32883 18.07314,18.07314 5.47509,2.68816 6.88542,2.93902 16.48724,2.9326 9.59528,-0.006 10.9667,-0.25207 15.91637,-2.85115 2.979,-1.56427 7.84585,-5.27361 10.81522,-8.24298 4.90861,-4.90862 5.80154,-5.39885 9.83363,-5.39885 2.48282,0 4.43478,0.47088 4.43478,1.06982 0,1.95588 -5.91333,9.70008 -10.23645,13.40582 -2.34495,2.01008 -7.53808,5.27474 -11.54028,7.25481 -6.69835,3.31397 -8.0893,3.62452 -17.5,3.90714 -6.42754,0.19303 -11.92678,-0.18583 -14.81145,-1.0204 z m 94.56709,0.40561 c -9.72356,-1.44967 -18.89477,-8.18734 -22.62593,-16.62225 -2.974,-6.72323 -3.78891,-16.77611 -3.8221,-47.15055 L 501,70 h 4.9388 4.93881 l 0.31119,33.25 0.3112,33.25 2.72307,5.5 c 2.9358,5.92965 7.11613,9.42653 13.31505,11.13814 8.8427,2.44158 19.44874,-2.40729 23.56777,-10.77472 2.36045,-4.79504 2.39848,-5.33797 2.70458,-38.61342 L 554.12093,70 h 5.02047 5.02047 l -0.37118,33.75 c -0.35239,32.0406 -0.48351,34.03259 -2.58894,39.32935 -5.59665,14.07988 -18.33793,21.23716 -33.72284,18.94345 z M 591,157.59811 v -4.40188 l 13.25,-0.34812 c 15.8743,-0.41706 19.78946,-1.89112 23.46033,-8.83284 2.89222,-5.46927 2.90437,-10.37988 0.0397,-16.02634 -3.07995,-6.07072 -8.61901,-8.81009 -19.51279,-9.65016 L 600,117.70357 v -3.70675 -3.70675 l 7.06771,-0.59253 C 618.83973,108.71062 624.5,103.83334 624.5,94.67667 c 0,-3.862062 -0.60914,-6.030734 -2.39866,-8.539809 C 618.64591,81.292023 614.15209,79.76407 601.75,79.217157 L 591,78.743098 V 74.871549 71 h 10.3185 c 12.76084,0 19.34425,1.799769 24.89739,6.806436 5.16571,4.657364 7.73404,10.242088 7.76215,16.878464 0.0283,6.68888 -1.24467,9.92003 -5.78758,14.69011 -2.65648,2.78932 -3.30056,4.01664 -2.29885,4.38053 2.94066,1.06826 9.50206,7.92248 11.24273,11.74446 2.09247,4.59445 2.40872,12.9554 0.7051,18.64156 -1.48041,4.94116 -6.97492,11.37675 -11.82612,13.85165 -4.96444,2.53266 -14.35215,3.98992 -25.76332,3.99924 L 591,162 Z M 651,116.5 V 71 h 25 25 v 4 4 h -20 -20 v 15.965017 15.965013 l 10.25,0.28499 10.25,0.28498 0.3075,4.25 0.3075,4.25 H 671.5575 661 v 16.5 16.5 h 20 20 v 4.5 4.5 h -25 -25 z m -69,0 V 87 h 4.5 4.5 v 29.5 29.5 h -4.5 -4.5 z"
         id="path8" />
      <path
         style="fill:#7dc9e2"
         d="m 502.40211,332.06802 c -43.56669,-6.94376 -61.61517,-53.45789 -37.0484,-95.48027 5.67302,-9.70391 21.91806,-25.99069 31.39968,-31.48036 46.1973,-26.74732 95.55527,-6.33044 98.90874,40.91352 2.56292,36.10652 -25.49421,73.61212 -62.80158,83.95052 -8.27735,2.29377 -22.9042,3.3006 -30.45844,2.09659 z m 25.13779,-29.61036 c 8.12608,-2.10285 15.54975,-6.77306 22.4441,-14.11953 13.27345,-14.14387 17.31809,-33.00171 10.38956,-48.44053 -10.37063,-23.10884 -40.73265,-23.81709 -61.17741,-1.42708 -6.13775,6.72174 -9.40817,12.69987 -11.62249,21.24522 -7.43734,28.70162 12.36897,49.88349 39.96624,42.74192 z M 110.03042,326.75 c 0.0167,-1.2375 5.34249,-30.825 11.83503,-65.75 l 11.80461,-63.5 15.66497,-0.27539 C 157.95076,197.07314 165,197.32707 165,197.78889 c 0,2.09512 -23.91335,129.26189 -24.47963,130.17815 -0.39309,0.63604 -6.37961,1.03296 -15.57939,1.03296 -14.8367,0 -14.94077,-0.0157 -14.91056,-2.25 z m 56.98382,0 c 0.008,-1.2375 5.32766,-30.825 11.82183,-65.75 l 11.80759,-63.5 h 14.42817 c 9.04702,0 14.37507,0.37296 14.28581,1 -0.0783,0.55 -0.46118,2.94695 -0.85083,5.32655 l -0.70847,4.32654 5.95616,-4.06563 c 18.94171,-12.9295 37.34641,-14.54689 55.49006,-4.87643 14.55793,7.7593 20.54984,22.10055 18.57091,44.44822 -0.78685,8.88581 -14.13806,82.43566 -15.30777,84.32829 C 282.13059,328.59772 275.94554,329 266.94098,329 253.28297,329 252,328.84717 252,327.22024 c 0,-0.97887 2.77616,-16.39137 6.16924,-34.25 5.39774,-28.40967 6.17934,-34.03343 6.25,-44.97024 0.073,-11.30306 -0.13979,-12.88467 -2.22253,-16.51718 -3.42301,-5.97009 -8.21365,-8.8274 -15.56529,-9.28369 -15.78314,-0.97958 -29.18552,10.56792 -34.00746,29.30087 -0.84943,3.3 -4.48191,21.67172 -8.07217,40.82604 -3.59027,19.15433 -6.78472,35.24183 -7.09879,35.75 -0.31407,0.50818 -7.29448,0.92396 -15.51202,0.92396 -14.8319,0 -14.94088,-0.0164 -14.92674,-2.25 z m 141.45446,0 c 0.27874,-1.2375 5.6936,-30.375 12.03303,-64.75 6.33944,-34.375 11.73083,-63.0625 11.98087,-63.75 0.33449,-0.91967 4.19309,-1.25 14.60124,-1.25 h 14.14661 l -0.69405,5.55497 -0.69405,5.55496 4.82883,-3.4376 c 19.85795,-14.13671 42.75742,-15.35998 59.8637,-3.19785 6.92067,4.92041 11.19009,10.80957 13.60832,18.77106 3.48283,11.46645 2.43802,23.32303 -6.05234,68.68253 -3.95612,21.13545 -7.42153,38.79795 -7.70092,39.25 -0.63537,1.02806 -30.12113,1.09718 -30.68274,0.0719 -0.22597,-0.4125 2.45061,-15.825 5.94794,-34.25 6.99324,-36.84245 8.32285,-48.75482 6.35663,-56.95092 -1.44579,-6.02676 -5.85943,-11.66965 -10.71403,-13.69804 -7.97849,-3.33362 -20.60858,-0.35051 -28.71064,6.78121 -9.53255,8.39088 -11.69722,15.13785 -20.73174,64.61775 L 339.60167,329 H 323.78178 307.9619 Z m -171.422,-146 c 0.0257,-1.2375 1.04339,-7.65 2.26156,-14.25 l 2.21487,-12 15.73844,-0.27539 c 8.65613,-0.15147 15.73415,0.0735 15.72892,0.5 -0.005,0.42646 -1.13023,6.80738 -2.5,14.1798 C 169.12072,176.27684 168,182.46434 168,182.65441 168,182.84449 161.025,183 152.5,183 c -15.42124,0 -15.49976,-0.0114 -15.4533,-2.25 z m 297.41185,-19.14488 c -19.79621,-4.80938 -33.51696,-20.56819 -35.91766,-41.25283 -1.86653,-16.08212 6.82498,-33.782435 21.29469,-43.366772 13.03074,-8.631204 33.53206,-9.434824 48.33636,-1.894708 4.60696,2.346413 14.73982,11.694002 17.1346,15.80671 L 487.11307,94 h -4.70991 c -4.28705,0 -5.1897,-0.453765 -10.05389,-5.054113 -2.93919,-2.779763 -7.93267,-6.267263 -11.09663,-7.75 C 456.20689,78.831273 454.27119,78.5 445.5,78.5 c -8.96849,0 -10.59836,0.293815 -15.80077,2.848388 -3.19042,1.566613 -7.98365,5.031267 -10.65161,7.699231 -21.37258,21.372581 -11.38285,56.887081 18.18276,64.641541 5.6373,1.47855 7.63535,1.56877 13.29039,0.60011 8.65919,-1.48326 16.10685,-5.32724 22.08928,-11.401 4.43933,-4.5071 5.19009,-4.88827 9.62804,-4.88827 h 4.81327 l -1.55574,3.00847 c -2.61968,5.0659 -12.03592,13.4929 -18.68668,16.72353 -10.63639,5.16665 -21.61545,6.48111 -32.35039,3.87312 z m 86.81603,-1.21071 c -6.06786,-2.21823 -13.56104,-9.35762 -16.38878,-15.61498 -2.34496,-5.18906 -2.39109,-5.87423 -2.69485,-40.02943 L 501.88189,70 h 4.49931 4.4993 l 0.30975,34.25 0.30975,34.25 2.5,4.4556 c 1.375,2.45057 4.45126,5.82557 6.83614,7.5 3.87561,2.72106 5.1144,3.0444 11.66386,3.0444 6.54946,0 7.78825,-0.32334 11.66386,-3.0444 2.38488,-1.67443 5.46114,-5.04943 6.83614,-7.5 l 2.5,-4.4556 0.29882,-34.25 0.29882,-34.25 h 4.45118 c 2.84076,0 4.48748,0.452244 4.55152,1.25 0.0552,0.6875 0.0994,15.270413 0.0982,32.40647 -0.002,26.34236 -0.26453,32.05939 -1.70002,37 -3.93769,13.55265 -13.38807,20.66212 -27.99847,21.06308 -5.2268,0.14344 -9.46474,-0.31592 -12.22542,-1.32514 z M 591,157.59811 v -4.40188 l 13.25,-0.34812 c 15.8743,-0.41706 19.78946,-1.89112 23.46033,-8.83284 2.89222,-5.46927 2.90437,-10.37988 0.0397,-16.02634 -3.07995,-6.07072 -8.61901,-8.81009 -19.51279,-9.65016 L 600,117.70357 v -3.70675 -3.70675 l 7.06771,-0.59253 C 618.83973,108.71062 624.5,103.83334 624.5,94.67667 c 0,-3.862062 -0.60914,-6.030734 -2.39866,-8.539809 C 618.64591,81.292023 614.15209,79.76407 601.75,79.217157 L 591,78.743098 V 74.871549 71 h 10.3185 c 12.76084,0 19.34425,1.799769 24.89739,6.806436 5.16571,4.657364 7.73404,10.242088 7.76215,16.878464 0.0283,6.68888 -1.24467,9.92003 -5.78758,14.69011 -2.65648,2.78932 -3.30056,4.01664 -2.29885,4.38053 2.94066,1.06826 9.50206,7.92248 11.24273,11.74446 2.09247,4.59445 2.40872,12.9554 0.7051,18.64156 -1.48041,4.94116 -6.97492,11.37675 -11.82612,13.85165 -4.96444,2.53266 -14.35215,3.98992 -25.76332,3.99924 L 591,162 Z M 652,116.5 V 71 h 24.5 24.5 v 4 4 H 681 661 V 95.5 112 h 10 10 v 4 4 h -10 -10 v 16.5 16.5 h 20 20 v 4.5 4.5 H 676.5 652 Z m -70,0 V 87 h 4.5 4.5 v 29.5 29.5 h -4.5 -4.5 z"
         id="path7" />
      <path
         style="fill:#60bddc"
         d="M 500.19885,331.55152 C 479.64975,327.673 463.44248,313.44084 456.86662,293.5 c -3.19757,-9.6964 -3.22268,-25.64189 -0.058,-36.79918 9.82328,-34.63218 42.41331,-61.03626 78.19134,-63.34975 10.7558,-0.6955 20.42446,1.27065 30.80863,6.26502 21.37951,10.28269 33.41808,35.21554 29.18787,60.45041 -4.88999,29.17071 -23.08478,52.87385 -50.18866,65.38293 -13.97118,6.44803 -30.67221,8.73257 -44.60899,6.10209 z m 32.39608,-30.73192 c 23.39858,-9.4511 36.54306,-36.56015 28.76257,-59.3196 -2.47198,-7.23101 -11.26026,-15.79971 -18.3701,-17.9111 -14.81163,-4.39858 -30.3403,0.71309 -43.23513,14.23197 -17.67499,18.53038 -18.47047,48.27472 -1.6121,60.27894 8.98738,6.39958 22.67044,7.47969 34.45476,2.71979 z m -224.23346,26.45618 c 0.28193,-0.97668 5.80681,-30.46328 12.2775,-65.52578 L 332.40387,198 h 14.3919 14.39191 l -0.69481,5.05186 -0.69481,5.05185 6.77961,-4.54684 c 22.24369,-14.91807 48.0353,-13.54342 63.71827,3.39607 7.85121,8.48024 9.23,13.03056 9.10449,30.04706 -0.0908,12.30886 -0.73046,16.84443 -7.25,51.4047 C 428.2177,309.25229 425,326.68979 425,327.1547 425,327.61962 417.88442,328 409.18761,328 h -15.81239 l 6.35921,-33.75 c 7.2049,-38.23828 8.3835,-49.89263 5.90711,-58.41111 -6.26971,-21.56705 -37.38681,-17.11128 -48.39307,6.92957 -2.55758,5.58647 -4.9685,16.80257 -13.4843,62.73154 l -4.26448,23 -15.82542,0.27578 c -14.75673,0.25715 -15.79079,0.15586 -15.3128,-1.5 z M 110,326.75474 c 0,-0.68489 2.72747,-15.87239 6.06105,-33.75 3.33358,-17.87761 8.63232,-46.45474 11.77498,-63.50474 l 5.71394,-31 15.83994,-0.27598 15.83995,-0.27597 -0.55487,2.27597 c -0.30517,1.25179 -5.54173,29.27598 -11.63678,62.27598 -6.09505,33 -11.33284,61.2375 -11.63952,62.75 l -0.5576,2.75 H 125.42054 C 113.78207,328 110,327.69458 110,326.75474 Z m 57,-0.0759 c 0,-0.72663 3.63132,-20.86413 8.0696,-44.75 4.43828,-23.88587 9.72578,-52.42886 11.75,-63.42886 l 3.6804,-20 14.38258,-0.27827 14.38258,-0.27826 -0.6769,5.10276 c -0.53717,4.04932 -0.4097,4.93255 0.61742,4.27827 0.71187,-0.45348 3.99432,-2.60383 7.29432,-4.77858 12.57911,-8.28979 26.36346,-11.11193 39.73944,-8.13606 13.38738,2.97841 23.43804,10.56781 28.59189,21.59014 2.21133,4.7293 2.6244,7.18153 2.94779,17.5 0.38841,12.393 -0.71784,19.5536 -12.86136,83.25 L 282.77298,328 H 267.38649 C 256.8564,328 252,327.65256 252,326.89922 c 0,-0.60543 2.925,-16.86275 6.5,-36.12739 7.76047,-41.81894 8.28768,-50.12144 3.73595,-58.83444 -3.94883,-7.55893 -9.18713,-10.2658 -18.73595,-9.68173 -15.03687,0.91976 -25.79155,10.9478 -30.88323,28.79662 C 211.34613,255.50651 198,325.17636 198,327.3552 198,327.70984 191.025,328 182.5,328 170.32152,328 167,327.71689 167,326.67886 Z M 137,180.74802 c 0,-1.27439 3.51042,-20.39915 4.4967,-24.49802 0.53253,-2.21313 0.79512,-2.25 16.02235,-2.25 8.51452,0 15.48095,0.17529 15.48095,0.38953 0,0.51114 -2.7811,15.66181 -4.10456,22.36047 L 167.8582,182 H 152.4291 C 140.73947,182 137,181.69656 137,180.74802 Z m 299.05644,-18.83848 c -7.28605,-1.42871 -18.20098,-7.20614 -23.66041,-12.5238 -6.78405,-6.60787 -12.05859,-17.41451 -13.43255,-27.52101 -2.39861,-17.6436 5.8112,-35.094669 21.13677,-44.92906 13.8263,-8.872311 34.70624,-9.372094 48.88512,-1.170115 5.66737,3.278371 13.32994,10.408803 15.94065,14.833636 L 486.93255,94 h -4.58884 c -4.20605,0 -5.10234,-0.479654 -10.74451,-5.75 -9.88729,-9.235717 -23.61688,-12.791901 -36.18567,-9.37267 -6.35296,1.728271 -15.62133,8.275525 -19.82879,14.007229 -5.84581,7.963581 -7.9411,14.227761 -7.95581,23.785021 -0.0114,7.42133 0.32701,8.85668 3.69513,15.67161 8.2048,16.60127 25.41035,25.51166 41.80752,21.6512 7.71478,-1.81633 12.50803,-4.50701 18.91424,-10.6175 C 477.22856,138.43139 478.05934,138 482.39695,138 h 4.71612 l -1.80653,3.09046 c -3.00102,5.13387 -10.97136,12.45224 -17.14556,15.74305 -10.47627,5.5838 -21.01639,7.25029 -32.10454,5.07603 z m 85.61004,-1.64358 c -6.48982,-2.16254 -13.81412,-8.92199 -16.78068,-15.48653 -2.34496,-5.18906 -2.39109,-5.87423 -2.69485,-40.02943 L 501.88189,70 h 4.51024 4.51023 l 0.29882,34.25 0.29882,34.25 2.5,4.4556 c 7.18889,12.8123 24.99857,14.87365 34.32885,3.97331 C 553.72048,140.63001 554,138.4468 554,102.63398 V 70 h 4.54824 4.54823 l -0.29823,34.75 c -0.29021,33.81379 -0.36015,34.88471 -2.59608,39.75 -6.62794,14.42209 -22.76082,21.02248 -38.53568,15.76596 z M 591,157.59811 v -4.40188 l 13.25,-0.34812 c 15.8743,-0.41706 19.78946,-1.89112 23.46033,-8.83284 2.89222,-5.46927 2.90437,-10.37988 0.0397,-16.02634 -3.07995,-6.07072 -8.61901,-8.81009 -19.51279,-9.65016 L 600,117.70357 v -3.70675 -3.70675 l 7.06771,-0.59253 C 618.83973,108.71062 624.5,103.83334 624.5,94.67667 c 0,-3.862062 -0.60914,-6.030734 -2.39866,-8.539809 C 618.64591,81.292023 614.15209,79.76407 601.75,79.217157 L 591,78.743098 V 74.871549 71 h 10.3185 c 12.76084,0 19.34425,1.799769 24.89739,6.806436 5.16571,4.657364 7.73404,10.242088 7.76215,16.878464 0.0283,6.68888 -1.24467,9.92003 -5.78758,14.69011 -2.65648,2.78932 -3.30056,4.01664 -2.29885,4.38053 2.94066,1.06826 9.50206,7.92248 11.24273,11.74446 2.09247,4.59445 2.40872,12.9554 0.7051,18.64156 -1.48041,4.94116 -6.97492,11.37675 -11.82612,13.85165 -4.96444,2.53266 -14.35215,3.98992 -25.76332,3.99924 L 591,162 Z M 652,116 V 71 h 24.5 24.5 v 4 4 H 681 661 V 95.5 112 h 10 10 v 4 4 h -10 -10 v 16.5 16.5 h 20 20 v 4 4 H 676.5 652 Z m -70,0.5 V 87 h 4.5 4.5 v 29.5 29.5 h -4.5 -4.5 z"
         id="path6" />
      <path
         style="fill:#39aed4"
         d="m 507,332.30349 c -19.97141,-2.61065 -34.73963,-11.06075 -43.64993,-24.97566 -13.675,-21.3558 -11.22373,-52.59972 6.01507,-76.66811 5.07831,-7.0902 15.97082,-17.8078 22.89072,-22.52314 16.92937,-11.53597 40.64912,-17.18633 57.87168,-13.78582 30.44536,6.01128 49.30083,32.76543 44.981,63.82385 -2.57582,18.51949 -10.68939,35.11995 -23.60333,48.29271 -11.90931,12.14801 -25.72044,20.1993 -41.00521,23.90428 -6.0797,1.4737 -18.92613,2.52978 -23.5,1.93189 z m 28.54573,-32.72864 c 27.43434,-13.55879 37.45687,-50.23892 18.81978,-68.87601 -5.32803,-5.32803 -11.65037,-8.07234 -19.66637,-8.53649 -19.83802,-1.14868 -39.43677,13.46069 -46.28023,34.49838 -2.30036,7.07158 -2.60808,9.42752 -2.2235,17.02336 0.63184,12.47948 5.08785,20.46741 14.49197,25.97859 6.20556,3.6367 9.53273,4.31456 19.15852,3.90328 7.17422,-0.30654 9.37833,-0.86686 15.69983,-3.99111 z m -226.56388,27.7012 c -0.01,-0.97683 5.27751,-30.46257 11.75,-65.52388 L 332.5,198.00434 l 14.25,-0.002 c 15.53406,-0.002 14.85661,-0.31985 13.33145,6.24783 -0.47895,2.0625 -0.70714,3.75 -0.50707,3.75 0.20007,0 3.8097,-2.24953 8.0214,-4.99895 16.75804,-10.93977 35.12366,-12.71465 50.6202,-4.89203 16.07596,8.11512 22.75974,21.04434 21.54389,41.67487 -0.28253,4.79386 -3.81403,26.60361 -7.84779,48.46611 L 424.57797,328 H 409.28899 C 397.53485,328 394,327.70412 394,326.72024 c 0,-0.70387 2.77616,-15.89137 6.16924,-33.75 5.39774,-28.40967 6.17934,-34.03343 6.25,-44.97024 0.0747,-11.56697 -0.10504,-12.82455 -2.40849,-16.84806 C 400.51038,225.03774 394.97707,222 387.34028,222 c -8.48208,0 -14.49198,2.37201 -20.93911,8.26432 -9.95946,9.10238 -11.15483,12.75971 -20.28185,62.05351 L 339.42,328.5 l -15.21,0.27605 c -14.00199,0.25412 -15.21144,0.13498 -15.22815,-1.5 z M 109.99926,327.25 c -0.001,-1.18951 23.03046,-125.55469 23.61219,-127.5 0.46907,-1.56858 2.12515,-1.75 15.97499,-1.75 h 15.45166 l -0.53665,2.25 c -0.75159,3.15119 -23.49884,126.08165 -23.50028,127 -6.4e-4,0.4125 -6.97617,0.75 -15.50117,0.75 -8.525,0 -15.50033,-0.3375 -15.50074,-0.75 z M 167,326.99804 c 0,-1.36018 22.94837,-125.0438 23.60972,-127.24804 0.46761,-1.55853 2.05967,-1.75 14.55151,-1.75 h 14.02645 l -0.70527,5.12788 c -0.77214,5.61415 -0.78112,5.61191 5.02649,1.25818 1.65489,-1.2406 6.46912,-3.8989 10.69828,-5.90732 16.51945,-7.84505 34.06629,-6.70005 48.46664,3.16264 10.31491,7.06461 15.32844,18.09548 15.32299,33.71396 -0.003,10.00376 -0.36404,12.35403 -9.05739,59.04366 C 285.67274,311.94345 283,326.68095 283,327.149 c 0,0.46805 -6.975,0.851 -15.5,0.851 -8.525,0 -15.5,-0.35702 -15.5,-0.79338 0,-0.43637 2.94014,-16.52387 6.53365,-35.75 8.39513,-44.91602 8.66844,-53.99267 1.89903,-63.06589 -3.63634,-4.87389 -8.45117,-6.65979 -16.8015,-6.23197 -14.81438,0.75901 -25.34909,10.14109 -30.5455,27.20343 C 211.39772,254.90456 198,323.96852 198,327.12739 198,327.60733 191.025,328 182.5,328 172.81309,328 167,327.62423 167,326.99804 Z M 137.00155,181.25 c 0.002,-0.80941 3.72184,-21.29622 4.53971,-25 0.48931,-2.21587 0.73334,-2.25 16.0862,-2.25 h 15.58936 l -0.54844,2.25 c -0.30165,1.2375 -1.52671,7.5375 -2.72237,14 L 167.77208,182 h -15.38604 c -8.46232,0 -15.38534,-0.3375 -15.38449,-0.75 z M 434.63408,161.41354 C 420.91222,158.0922 409.55686,148.95239 403.21841,136.12741 399.5233,128.65087 399.5,128.52494 399.5,116.03084 c 0,-12.20289 0.0971,-12.77015 3.29983,-19.275803 5.00744,-10.171546 11.78207,-16.955466 21.97727,-22.007383 L 433.34922,70.5 h 12.07539 c 11.83554,0 12.22436,0.07204 19.57539,3.626767 8.57201,4.145159 14.68876,9.107067 19.06159,15.462758 L 487.09608,94 482.29804,93.9985 C 477.83867,93.9971 477.14708,93.634157 472.5,88.856039 453.82877,69.658321 422.67753,75.560194 410.86772,100.53281 c -7.10915,15.03278 -3.55676,32.00128 9.19703,43.93096 2.74952,2.57185 7.57225,5.88211 10.71718,7.35614 4.87756,2.28611 7.04409,2.68006 14.7391,2.68006 8.12448,0 9.6659,-0.31747 15.50969,-3.19436 3.57105,-1.75802 8.73254,-5.4624 11.47897,-8.23841 4.61078,-4.66043 5.35586,-5.04493 9.79685,-5.05564 l 4.80653,-0.0116 -1.80653,3.07697 c -3.13432,5.33852 -12.96809,13.86973 -19.52327,16.93727 -10.69,5.00245 -20.22635,6.04315 -31.14919,3.3993 z m 88.73063,-0.5026 C 518.46461,159.49078 510.83605,153.89573 507.80649,149.5 502.64249,142.00733 502,136.72817 502,101.7899 V 70 h 4.5 4.5 v 32.05718 c 0,19.79165 0.41641,33.71089 1.08832,36.37931 4.12572,16.38468 25.33615,21.09453 36.70181,8.14976 5.12665,-5.83893 5.46822,-8.35545 5.94993,-43.83625 L 555.1847,70 h 3.9667 3.96671 l -0.30906,34.75 c -0.30376,34.1552 -0.34989,34.84037 -2.69485,40.02943 -2.93453,6.49367 -10.41549,13.45376 -16.79814,15.62854 -5.04384,1.71861 -14.89964,1.96708 -19.95135,0.50297 z M 591,157.59811 v -4.40188 l 13.25,-0.34812 c 15.8743,-0.41706 19.78946,-1.89112 23.46033,-8.83284 2.89222,-5.46927 2.90437,-10.37988 0.0397,-16.02634 -3.07995,-6.07072 -8.61901,-8.81009 -19.51279,-9.65016 L 600,117.70357 v -3.70675 -3.70675 l 7.06771,-0.59253 C 618.83973,108.71062 624.5,103.83334 624.5,94.67667 c 0,-3.862062 -0.60914,-6.030734 -2.39866,-8.539809 C 618.64591,81.292023 614.15209,79.76407 601.75,79.217157 L 591,78.743098 V 74.871549 71 h 10.3185 c 12.76084,0 19.34425,1.799769 24.89739,6.806436 5.16571,4.657364 7.73404,10.242088 7.76215,16.878464 0.0283,6.68888 -1.24467,9.92003 -5.78758,14.69011 -2.65648,2.78932 -3.30056,4.01664 -2.29885,4.38053 2.94066,1.06826 9.50206,7.92248 11.24273,11.74446 2.09247,4.59445 2.40872,12.9554 0.7051,18.64156 -1.48041,4.94116 -6.97492,11.37675 -11.82612,13.85165 -4.96444,2.53266 -14.35215,3.98992 -25.76332,3.99924 L 591,162 Z M 652,116 V 71 h 24.5 24.5 v 4 4 h -20.52477 -20.52477 l 0.27477,16.25 0.27477,16.25 10.25,0.28498 10.25,0.28499 V 116.03498 120 H 670.5 660 v 16.5 16.5 h 20.5 20.5 v 4 4 H 676.5 652 Z m -70,0.5 V 87 h 4.5 4.5 v 29.5 29.5 h -4.5 -4.5 z"
         id="path5" />
      <path
         style="fill:#f48114"
         d="m 496,330.41734 c -19.35285,-5.10578 -34.69563,-20.41577 -39.61491,-39.53024 -2.06988,-8.04277 -2.09508,-22.30402 -0.0547,-30.93724 5.90223,-24.973 23.00628,-46.0347 46.94841,-57.81167 46.04492,-22.64916 92.13995,1.59707 91.9417,48.36181 -0.15345,36.19411 -27.45452,70.22472 -63.794,79.51879 -9.39322,2.40238 -27.07717,2.60132 -35.42654,0.39855 z m 34.28155,-28.51039 c 12.77957,-4.30144 23.16053,-14.1655 29.91078,-28.42143 C 563.28236,266.95965 563.5,265.8091 563.5,256 c 0,-9.23979 -0.31443,-11.17049 -2.61982,-16.08648 -8.23905,-17.56893 -27.71342,-23.12605 -46.9256,-13.39051 -17.05128,8.64054 -28.0193,26.0782 -28.06002,44.61164 -0.0247,11.21984 2.14687,16.89724 9.19486,24.03971 4.06348,4.11795 6.94485,6.08743 10.50494,7.18034 7.22341,2.21753 17.31227,2.03455 24.68719,-0.44775 z M 110.02462,327.25 c 0.0678,-2.06424 23.84105,-128.449 24.23585,-128.8438 0.25289,-0.25289 7.17841,-0.33524 15.39005,-0.183 L 164.58078,198.5 152.60105,263.25 140.62131,328 h -15.31065 c -8.42087,0 -15.29958,-0.3375 -15.28604,-0.75 z M 167,327.38049 c 0,-0.78218 22.80694,-124.0843 23.51506,-127.13049 0.51168,-2.2011 0.82687,-2.25 14.50399,-2.25 10.54132,0 13.97024,0.30753 13.9374,1.25 -0.0239,0.6875 -0.41131,3.15034 -0.86079,5.47298 -0.9086,4.69513 -1.15903,4.71299 6.03702,-0.43065 7.33825,-5.24527 17.21235,-9.25838 25.30422,-10.28433 19.3649,-2.45523 38.01175,6.73032 45.18358,22.25769 2.70532,5.85715 2.87952,7.02077 2.87952,19.23431 0,11.94644 -0.60379,16.22146 -7.45021,52.75 l -7.4502,39.75 h -15.37925 -15.37925 l 0.55673,-2.75 c 0.30621,-1.5125 3.34155,-17.6 6.74522,-35.75 7.07616,-37.73358 7.85209,-48.31485 4.15113,-56.60847 -4.07334,-9.12807 -13.88744,-13.19036 -24.92265,-10.31605 -6.98498,1.81936 -10.56272,3.95963 -16.07077,9.61384 -8.09199,8.30672 -9.90682,14.72513 -20.37538,72.06068 L 197.589,328 H 182.2945 C 173.88252,328 167,327.72122 167,327.38049 Z m 142.0633,-1.10444 C 309.0981,325.29922 314.40407,296.15 320.85432,261.5 l 11.72772,-63 14.29458,-0.27798 14.29458,-0.27798 -0.67495,3.27798 c -0.37122,1.80289 -0.91578,4.31941 -1.21014,5.59227 -0.47789,2.06646 0.2545,1.7803 6.83935,-2.67235 17.82522,-12.05335 35.49412,-13.94064 52.54615,-5.61268 13.05072,6.37378 19.81071,16.80001 20.9897,32.37337 0.70083,9.2574 -0.71922,19.27539 -9.0149,63.59737 l -6.17657,33 -15.23492,0.27605 c -11.83256,0.21439 -15.23424,-0.009 -15.23189,-1 0.002,-0.70183 0.87515,-5.77605 1.94109,-11.27605 13.05958,-67.38429 13.78833,-77.33105 6.39147,-87.23657 -2.95082,-3.95159 -4.91801,-5.05636 -11.07129,-6.21763 -12.80239,-2.41611 -27.2244,5.77672 -33.36552,18.9542 -3.65985,7.85326 -4.30106,10.60741 -11.76987,50.55451 l -6.72063,35.94549 -15.20414,0.27605 c -14.02174,0.25457 -15.19922,0.13792 -15.14084,-1.5 z M 137,181.63361 c 0,-0.20151 1.125,-6.33663 2.5,-13.63361 1.375,-7.29698 2.5,-13.4321 2.5,-13.63361 0,-0.20152 7.00532,-0.36639 15.56739,-0.36639 14.35388,0 15.52759,0.13642 15.05691,1.75 -0.28075,0.9625 -1.51501,7.2625 -2.74279,14 L 167.64919,182 H 152.3246 C 143.89607,182 137,181.83513 137,181.63361 Z m 299.33766,-20.11374 c -12.01847,-2.18078 -23.59326,-10.00963 -30.33725,-20.51923 -9.37525,-14.61007 -9.37177,-35.39665 0.008,-50.014345 C 420.1625,68.929663 451.46464,63.392433 473.36086,79.07197 478.51747,82.764539 486,91.09524 486,93.143802 486,93.614711 484.13265,94 481.85034,94 c -3.68091,0 -4.69831,-0.572229 -9.00663,-5.06572 -3.11089,-3.244594 -7.2812,-6.185352 -11.60034,-8.180137 -5.95658,-2.75104 -7.79346,-3.115735 -15.74337,-3.12571 -7.7086,-0.0097 -9.79454,0.370879 -14.53727,2.652122 -30.84024,14.834079 -31.87232,54.481675 -1.84202,70.761215 6.07707,3.2944 6.85304,3.45732 16.37929,3.4391 9.0127,-0.0173 10.58211,-0.30714 15.89599,-2.9362 3.2428,-1.60438 8.34523,-5.30827 11.33873,-8.23086 C 477.66173,138.5035 478.59998,138 482.63676,138 h 4.45932 l -3.02159,4.39173 c -6.66191,9.68276 -18.65815,17.36006 -30.50815,19.52448 -7.09442,1.2958 -8.02058,1.2745 -17.22868,-0.39634 z m 88.35261,-0.6171 C 513.16594,158.19139 505.49402,149.53358 503.08946,136.52613 502.45707,133.10519 502,117.9139 502,100.31634 V 70 h 4 c 2.2,0 4.02714,0.3375 4.06032,0.75 0.0332,0.4125 0.1842,14.925 0.33561,32.25 0.301,34.44094 0.75088,37.81974 5.80147,43.57204 4.43866,5.05536 9.64348,7.42796 16.29488,7.42796 9.39738,0 15.85148,-4.18958 19.8834,-12.90701 2.00736,-4.34011 2.14204,-6.42368 2.44613,-37.84299 L 555.14361,70 h 3.98795 3.98794 l -0.35117,34.25 c -0.40219,39.22541 -0.6386,40.55605 -8.66548,48.77489 -7.44564,7.62368 -18.2234,10.5104 -29.41258,7.87788 z M 591,157.59811 v -4.40188 l 13.25,-0.34812 c 15.8743,-0.41706 19.78946,-1.89112 23.46033,-8.83284 2.89222,-5.46927 2.90437,-10.37988 0.0397,-16.02634 -3.07995,-6.07072 -8.61901,-8.81009 -19.51279,-9.65016 L 600,117.70357 v -3.70675 -3.70675 l 7.06771,-0.59253 C 618.83973,108.71062 624.5,103.83334 624.5,94.67667 c 0,-3.862062 -0.60914,-6.030734 -2.39866,-8.539809 C 618.64591,81.292023 614.15209,79.76407 601.75,79.217157 L 591,78.743098 V 74.871549 71 h 10.3185 c 12.76084,0 19.34425,1.799769 24.89739,6.806436 5.16571,4.657364 7.73404,10.242088 7.76215,16.878464 0.0283,6.68888 -1.24467,9.92003 -5.78758,14.69011 -2.65648,2.78932 -3.30056,4.01664 -2.29885,4.38053 2.94066,1.06826 9.50206,7.92248 11.24273,11.74446 2.09247,4.59445 2.40872,12.9554 0.7051,18.64156 -1.48041,4.94116 -6.97492,11.37675 -11.82612,13.85165 -4.96444,2.53266 -14.35215,3.98992 -25.76332,3.99924 L 591,162 Z M 652,116 V 71 h 24.5 24.5 v 4 4 H 680.5 660 V 95.5 112 h 10.5 10.5 v 3.46502 3.46501 L 670.75,119.21502 660.5,119.5 v 17 17 l 20.25,0.27071 20.25,0.2707 v 3.4793 V 161 H 676.5 652 Z m -70,0.5 V 87 h 4.5 4.5 v 29.5 29.5 h -4.5 -4.5 z"
         id="path4" />
      <path
         style="fill:#16a0cc"
         d="m 496,330.41734 c -19.35285,-5.10578 -34.69563,-20.41577 -39.61491,-39.53024 -2.06988,-8.04277 -2.09508,-22.30402 -0.0547,-30.93724 5.90223,-24.973 23.00628,-46.0347 46.94841,-57.81167 46.04492,-22.64916 92.13995,1.59707 91.9417,48.36181 -0.15345,36.19411 -27.45452,70.22472 -63.794,79.51879 -9.39322,2.40238 -27.07717,2.60132 -35.42654,0.39855 z m 34.28155,-28.51039 c 12.77957,-4.30144 23.16053,-14.1655 29.91078,-28.42143 C 563.28236,266.95965 563.5,265.8091 563.5,256 c 0,-9.23979 -0.31443,-11.17049 -2.61982,-16.08648 -8.23905,-17.56893 -27.71342,-23.12605 -46.9256,-13.39051 -17.05128,8.64054 -28.0193,26.0782 -28.06002,44.61164 -0.0247,11.21984 2.14687,16.89724 9.19486,24.03971 4.06348,4.11795 6.94485,6.08743 10.50494,7.18034 7.22341,2.21753 17.31227,2.03455 24.68719,-0.44775 z M 110.02462,327.25 c 0.0678,-2.06424 23.84105,-128.449 24.23585,-128.8438 0.25289,-0.25289 7.17841,-0.33524 15.39005,-0.183 L 164.58078,198.5 152.60105,263.25 140.62131,328 h -15.31065 c -8.42087,0 -15.29958,-0.3375 -15.28604,-0.75 z M 167,327.38049 c 0,-0.78218 22.80694,-124.0843 23.51506,-127.13049 0.51168,-2.2011 0.82687,-2.25 14.50399,-2.25 10.54132,0 13.97024,0.30753 13.9374,1.25 -0.0239,0.6875 -0.41131,3.15034 -0.86079,5.47298 -0.9086,4.69513 -1.15903,4.71299 6.03702,-0.43065 7.33825,-5.24527 17.21235,-9.25838 25.30422,-10.28433 19.3649,-2.45523 38.01175,6.73032 45.18358,22.25769 2.70532,5.85715 2.87952,7.02077 2.87952,19.23431 0,11.94644 -0.60379,16.22146 -7.45021,52.75 l -7.4502,39.75 h -15.37925 -15.37925 l 0.55673,-2.75 c 0.30621,-1.5125 3.34155,-17.6 6.74522,-35.75 7.07616,-37.73358 7.85209,-48.31485 4.15113,-56.60847 -4.07334,-9.12807 -13.88744,-13.19036 -24.92265,-10.31605 -6.98498,1.81936 -10.56272,3.95963 -16.07077,9.61384 -8.09199,8.30672 -9.90682,14.72513 -20.37538,72.06068 L 197.589,328 H 182.2945 C 173.88252,328 167,327.72122 167,327.38049 Z m 142.0633,-1.10444 C 309.0981,325.29922 314.40407,296.15 320.85432,261.5 l 11.72772,-63 14.29458,-0.27798 14.29458,-0.27798 -0.67495,3.27798 c -0.37122,1.80289 -0.91578,4.31941 -1.21014,5.59227 -0.47789,2.06646 0.2545,1.7803 6.83935,-2.67235 17.82522,-12.05335 35.49412,-13.94064 52.54615,-5.61268 13.05072,6.37378 19.81071,16.80001 20.9897,32.37337 0.70083,9.2574 -0.71922,19.27539 -9.0149,63.59737 l -6.17657,33 -15.23492,0.27605 c -11.83256,0.21439 -15.23424,-0.009 -15.23189,-1 0.002,-0.70183 0.87515,-5.77605 1.94109,-11.27605 13.05958,-67.38429 13.78833,-77.33105 6.39147,-87.23657 -2.95082,-3.95159 -4.91801,-5.05636 -11.07129,-6.21763 -12.80239,-2.41611 -27.2244,5.77672 -33.36552,18.9542 -3.65985,7.85326 -4.30106,10.60741 -11.76987,50.55451 l -6.72063,35.94549 -15.20414,0.27605 c -14.02174,0.25457 -15.19922,0.13792 -15.14084,-1.5 z M 137,181.63361 c 0,-0.20151 1.125,-6.33663 2.5,-13.63361 1.375,-7.29698 2.5,-13.4321 2.5,-13.63361 0,-0.20152 7.00532,-0.36639 15.56739,-0.36639 14.35388,0 15.52759,0.13642 15.05691,1.75 -0.28075,0.9625 -1.51501,7.2625 -2.74279,14 L 167.64919,182 H 152.3246 C 143.89607,182 137,181.83513 137,181.63361 Z m 299.33766,-20.11374 c -12.01847,-2.18078 -23.59326,-10.00963 -30.33725,-20.51923 -9.37525,-14.61007 -9.37177,-35.39665 0.008,-50.014345 C 420.1625,68.929663 451.46464,63.392433 473.36086,79.07197 478.51747,82.764539 486,91.09524 486,93.143802 486,93.614711 484.13265,94 481.85034,94 c -3.68091,0 -4.69831,-0.572229 -9.00663,-5.06572 -3.11089,-3.244594 -7.2812,-6.185352 -11.60034,-8.180137 -5.95658,-2.75104 -7.79346,-3.115735 -15.74337,-3.12571 -7.7086,-0.0097 -9.79454,0.370879 -14.53727,2.652122 -30.84024,14.834079 -31.87232,54.481675 -1.84202,70.761215 6.07707,3.2944 6.85304,3.45732 16.37929,3.4391 9.0127,-0.0173 10.58211,-0.30714 15.89599,-2.9362 3.2428,-1.60438 8.34523,-5.30827 11.33873,-8.23086 C 477.66173,138.5035 478.59998,138 482.63676,138 h 4.45932 l -3.02159,4.39173 c -6.66191,9.68276 -18.65815,17.36006 -30.50815,19.52448 -7.09442,1.2958 -8.02058,1.2745 -17.22868,-0.39634 z m 88.35261,-0.6171 C 513.16594,158.19139 505.49402,149.53358 503.08946,136.52613 502.45707,133.10519 502,117.9139 502,100.31634 V 70 h 4 c 2.2,0 4.02714,0.3375 4.06032,0.75 0.0332,0.4125 0.1842,14.925 0.33561,32.25 0.301,34.44094 0.75088,37.81974 5.80147,43.57204 4.43866,5.05536 9.64348,7.42796 16.29488,7.42796 9.39738,0 15.85148,-4.18958 19.8834,-12.90701 2.00736,-4.34011 2.14204,-6.42368 2.44613,-37.84299 L 555.14361,70 h 3.98795 3.98794 l -0.35117,34.25 c -0.40219,39.22541 -0.6386,40.55605 -8.66548,48.77489 -7.44564,7.62368 -18.2234,10.5104 -29.41258,7.87788 z M 652,116 V 71 h 24.5 24.5 v 4 4 H 680.5 660 V 95.5 112 h 10.5 10.5 v 3.46502 3.46501 L 670.75,119.21502 660.5,119.5 v 17 17 l 20.25,0.27071 20.25,0.2707 v 3.4793 V 161 H 676.5 652 Z m -70,0.5 V 87 h 4.5 4.5 v 29.5 29.5 h -4.5 -4.5 z"
         id="path3" />
      <path
         style="fill:#0097c8"
         d="m 496.78164,330.44706 c -37.59796,-9.11499 -53.08993,-50.9897 -33.14845,-89.60007 14.5638,-28.19821 44.59454,-47.04535 74.86242,-46.98327 11.01768,0.0226 16.65114,1.21946 25.93973,5.51106 32.79196,15.15081 40.58137,58.1167 17.06424,94.12522 -11.9437,18.28772 -29.84298,31.11517 -50.90954,36.4841 -9.35804,2.38495 -24.9971,2.5991 -33.8084,0.46296 z M 535,300.24671 c 12.71628,-6.17013 22.60563,-17.58019 26.95153,-31.09596 3.03421,-9.43643 2.60883,-22.07664 -0.99784,-29.65075 -10.47632,-22.00059 -38.40802,-23.92609 -59.83503,-4.12479 -17.16448,15.86218 -20.62988,45.87827 -6.88374,59.62442 7.42488,7.42487 12.01054,9.03019 24.76508,8.66957 8.30713,-0.23487 10.31618,-0.66462 16,-3.42249 z M 110.41921,325.25 c 0.31796,-1.5125 4.8647,-25.925 10.10385,-54.25 5.23915,-28.325 10.41475,-56.13534 11.50133,-61.80076 C 133.11098,203.53382 134,198.69632 134,198.44924 134,198.20216 140.75,198 149,198 c 11.31524,0 15.00833,0.30706 15.03393,1.25 0.0187,0.6875 -5.26438,29.9375 -11.74009,65 L 140.51982,328 h -15.33936 -15.33937 z m 56.99409,0 c 0.31472,-1.5125 5.30792,-28.4 11.096,-59.75 5.78808,-31.35 10.99824,-59.3625 11.57814,-62.25 L 191.1418,198 h 14.04039 14.04039 l -0.66461,3.75 c -0.36553,2.0625 -0.89594,4.5375 -1.17868,5.5 -0.63715,2.16902 0.93298,2.28359 2.66669,0.1946 2.30412,-2.7763 14.72788,-9.58365 21.17183,-11.60069 8.61994,-2.69815 21.44915,-2.68147 29.18638,0.0379 20.16595,7.08776 28.76001,20.89432 27.33233,43.91002 -0.2971,4.78947 -3.84567,26.59562 -7.88572,48.45812 L 282.50526,328 h -15.36104 -15.36104 l 0.54547,-2.25 c 0.98272,-4.05367 11.60047,-62.06674 12.76588,-69.75 1.8723,-12.34362 -0.16412,-23.23197 -5.39226,-28.83137 -3.67559,-3.93661 -7.72781,-5.45773 -14.6855,-5.51264 -11.64069,-0.0919 -22.79371,7.05009 -28.45455,18.22122 -3.77288,7.44542 -5.65859,15.39652 -12.65772,53.37124 L 197.5,327.9969 182.17054,327.99845 166.84109,328 Z M 309,327.23883 c 0,-0.95357 22.71122,-123.66914 23.50208,-126.98883 0.52441,-2.20124 0.84076,-2.25 14.59643,-2.25 h 14.0604 l -0.6688,3.25 c -0.36784,1.7875 -0.91923,4.32962 -1.2253,5.64915 -0.63076,2.71933 -0.53065,2.68148 6.83753,-2.58502 11.08592,-7.92379 25.00263,-11.88845 36.52565,-10.4056 17.06721,2.1963 30.1035,11.57607 34.87171,25.09062 4.07227,11.54205 3.19725,21.14708 -6.83261,75.00085 l -6.23911,33.5 -15.21399,0.27605 c -8.3677,0.15182 -15.21113,-0.0732 -15.20764,-0.5 0.003,-0.42683 2.96164,-16.52605 6.57366,-35.77605 8.39792,-44.75618 8.69178,-55.26982 1.77457,-63.49045 -3.6565,-4.3455 -7.68702,-6.14371 -14.21019,-6.33984 -15.38142,-0.46247 -28.15921,9.69176 -33.23837,26.41378 -1.14306,3.76329 -5.10674,23.17154 -8.80817,43.12943 L 339.36798,327.5 324.18399,327.77605 C 315.8328,327.92787 309,327.68612 309,327.23883 Z M 137.33162,179.75 c 0.30165,-1.2375 1.52671,-7.5375 2.72237,-14 L 142.22792,154 h 15.25316 15.25317 l -1.88498,10.25 c -1.03674,5.6375 -2.15946,11.9375 -2.49494,14 l -0.60995,3.75 h -15.4806 -15.4806 z m 302.40475,-17.72969 c -15.7969,-2.08028 -29.66064,-11.90675 -36.1573,-25.62789 -3.67362,-7.75881 -4.88426,-14.35629 -4.38385,-23.89022 1.02071,-19.447085 15.65058,-36.433832 35.38137,-41.081324 13.82546,-3.25652 29.6055,0.154362 39.83971,8.61142 4.69317,3.878211 11.55453,11.714009 11.57399,13.217704 0.005,0.4125 -1.84606,0.75 -4.11422,0.75 -3.63108,0 -4.59496,-0.535122 -8.06532,-4.477657 -2.55746,-2.905433 -6.62147,-5.802227 -11.57421,-8.25 -7.1416,-3.52957 -8.21536,-3.771331 -16.68468,-3.756617 -7.69978,0.01338 -9.91113,0.416062 -14.8045,2.695887 -8.03399,3.743039 -16.09895,11.680888 -20.03044,19.714728 C 407.78142,105.92493 407.5,107.33106 407.5,116 c 0,8.60923 0.2994,10.13205 3.19313,16.24075 3.93606,8.30907 10.84999,15.40669 18.81963,19.31963 5.4159,2.6591 6.94375,2.93962 16.01085,2.93962 9.28283,0 10.51,-0.23954 16.605,-3.24128 3.95874,-1.94965 8.44837,-5.23723 11.26646,-8.25 4.09665,-4.37965 5.18243,-5.00872 8.645,-5.00872 2.17796,0 3.95993,0.43314 3.95993,0.96254 0,0.5294 -1.9125,3.30167 -4.25,6.16061 -10.05379,12.29654 -26.55474,18.93294 -42.01363,16.89716 z M 526,161.12639 c -9.36044,-2.03233 -17.62366,-9.06978 -21.22557,-18.07696 -2.10997,-5.27634 -2.23633,-7.21029 -2.56778,-39.29943 L 501.85806,70 h 3.97963 3.97963 l 0.34134,33.25 0.34134,33.25 2.76061,5.62135 c 1.83911,3.74493 4.14718,6.58225 6.9145,8.5 3.75642,2.6032 4.94324,2.87865 12.40325,2.87865 7.55549,0 8.60659,-0.25234 12.49644,-3 C 553.91484,144.25569 555,138.71939 555,99.86351 V 70 h 4.06047 4.06046 l -0.32987,33.75 c -0.3676,37.61055 -0.68549,39.66663 -7.41068,47.93191 -6.18516,7.60158 -18.95782,11.70742 -29.38038,9.44448 z M 652,116 V 71 h 24.5 24.5 v 4 4 H 680.5 660 V 95.5 112 h 10.5 10.5 v 3.5 3.5 H 670.5 660 v 17.5 17.5 h 20.5 20.5 v 3.5 3.5 H 676.5 652 Z m -70,0.5 V 87 h 4.5 4.5 v 29.5 29.5 h -4.5 -4.5 z"
         id="path2" />
    </g>
  </g>
</svg>
