<svg xmlns="http://www.w3.org/2000/svg" width="221" height="56" fill="none" class="navbar_navigation__logo__pwVn1"><path fill="#1F4DCC" d="M36.765 24.61c-1.078-.712-2.394-1.074-3.915-1.074-1.775 0-3.266.387-4.432 1.152a16.159 16.159 0 0 0-2.355 1.869v-.713c0-.607-.21-1.119-.627-1.519a2.08 2.08 0 0 0-1.491-.597c-.58 0-1.078.203-1.476.601-.399.398-.602.91-.602 1.513v16.462c0 .582.203 1.078.602 1.476.398.399.896.602 1.476.602s1.078-.2 1.491-.598c.414-.398.627-.896.627-1.48V30.915a13.293 13.293 0 0 1 2.54-2.41c.957-.694 2.103-1.046 3.402-1.046 1.388 0 2.388.373 2.968 1.111.601.765.904 1.847.904 3.218V42.3c0 .58.203 1.078.601 1.477.398.398.896.6 1.476.6s1.078-.198 1.488-.597c.414-.398.627-.896.627-1.48V31.401c0-1.425-.283-2.749-.842-3.93a6.959 6.959 0 0 0-2.464-2.869v.01l.002-.002ZM54.566 40.176c-.373 0-.734.066-1.068.195-.174.069-.53.15-1.234.15-.29 0-.627-.03-1-.09-.314-.048-.576-.204-.806-.476-.225-.265-.34-.732-.34-1.386V27.33h3.985c.533 0 .978-.183 1.326-.548.345-.362.52-.797.52-1.299 0-.53-.178-.974-.528-1.324-.35-.35-.795-.523-1.324-.523h-3.985v-2.718a1.13 1.13 0 0 0-.303-.775 1.023 1.023 0 0 0-.775-.342.98.98 0 0 0-.619.21 3.09 3.09 0 0 0-.277.235l-5.207 5.093c-.303.242-.465.56-.465.915 0 .676.404 1.08 1.08 1.08h2.372v11.544c0 1.236.224 2.24.664 2.98.44.743.996 1.298 1.654 1.647a5.879 5.879 0 0 0 1.958.65c.642.09 1.205.137 1.681.137a7.55 7.55 0 0 0 1.79-.203 9.061 9.061 0 0 0 1.557-.53c.7-.364 1.072-.936 1.072-1.653 0-.512-.182-.931-.54-1.258a1.742 1.742 0 0 0-1.194-.472h.006ZM72.681 24.645c-1.41-.943-3.155-1.419-5.182-1.419-2.189 0-4.014.514-5.422 1.523a9.003 9.003 0 0 0-3.114 3.93 13.19 13.19 0 0 0-.988 5.063c0 3.304.917 5.91 2.727 7.748 1.812 1.841 4.355 2.77 7.56 2.77 1.692 0 3.064-.167 4.08-.497a14.819 14.819 0 0 0 2.801-1.234c.325-.178.598-.408.817-.686.24-.304.365-.658.365-1.042 0-.535-.194-.984-.572-1.334a1.883 1.883 0 0 0-1.31-.513c-.31 0-.596.066-.848.19-.691.345-1.433.628-2.199.837-.76.209-1.71.314-2.825.314-1.972 0-3.491-.492-4.518-1.456-.949-.895-1.55-2.078-1.794-3.519h12.605c.633 0 1.152-.205 1.539-.607.382-.398.576-.895.576-1.47 0-1.76-.367-3.41-1.09-4.911a9.206 9.206 0 0 0-3.21-3.687h.002Zm-7.533 2.779c.795-.361 1.586-.545 2.35-.545.763 0 1.553.184 2.346.545.785.357 1.467.925 2.03 1.69.503.686.811 1.58.922 2.666H62.233c.11-1.09.412-1.984.904-2.67.549-.762 1.226-1.333 2.01-1.686h.003-.002ZM90.944 23.536h-.193c-1.402 0-2.648.399-3.702 1.184a13.323 13.323 0 0 0-1.974 1.796v-.67c0-.58-.209-1.083-.619-1.495a2.047 2.047 0 0 0-1.496-.62c-.58 0-1.08.211-1.48.627a2.08 2.08 0 0 0-.597 1.492v16.462c0 .582.203 1.078.601 1.476.398.399.896.602 1.476.602s1.078-.2 1.492-.598c.414-.398.627-.896.627-1.48V30.753a7.779 7.779 0 0 1 2.366-2.245c.963-.588 2.049-.889 3.232-.889h.193c.602 0 1.105-.187 1.504-.554.404-.373.61-.863.61-1.45 0-.585-.193-1.071-.58-1.47-.386-.402-.878-.607-1.46-.607v-.004.002ZM110.476 24.61c-1.078-.712-2.394-1.074-3.915-1.074-1.775 0-3.266.387-4.432 1.152a16.143 16.143 0 0 0-2.355 1.869v-.713c0-.607-.21-1.119-.627-1.519a2.08 2.08 0 0 0-1.491-.597c-.58 0-1.078.203-1.477.601-.398.398-.6.91-.6 1.513v16.462c0 .582.202 1.078.6 1.476.399.399.897.602 1.477.602.58 0 1.077-.2 1.491-.598.414-.398.627-.896.627-1.48V30.915a13.296 13.296 0 0 1 2.54-2.41c.957-.694 2.101-1.046 3.4-1.046 1.388 0 2.388.373 2.968 1.111.601.765.904 1.847.904 3.218V42.3c0 .58.203 1.078.601 1.477.398.398.896.6 1.476.6s1.078-.198 1.488-.597c.414-.398.627-.896.627-1.48V31.401c0-1.425-.283-2.749-.842-3.93a6.956 6.956 0 0 0-2.464-2.869v.01l.004-.002ZM132.467 24.645c-1.411-.943-3.155-1.419-5.182-1.419-2.189 0-4.014.514-5.422 1.523a9.003 9.003 0 0 0-3.114 3.93 13.191 13.191 0 0 0-.988 5.063c0 3.304.919 5.91 2.727 7.748 1.812 1.841 4.355 2.77 7.563 2.77 1.691 0 3.063-.167 4.079-.497a14.816 14.816 0 0 0 2.801-1.234c.325-.178.598-.408.817-.686.24-.304.365-.658.365-1.042 0-.535-.194-.984-.572-1.334a1.893 1.893 0 0 0-1.312-.513 1.93 1.93 0 0 0-.848.19c-.691.345-1.431.628-2.198.837-.76.209-1.711.314-2.824.314-1.972 0-3.491-.492-4.52-1.456-.949-.895-1.55-2.078-1.792-3.519h12.605c.633 0 1.154-.205 1.539-.607.383-.398.576-.895.576-1.47 0-1.76-.367-3.41-1.09-4.911a9.203 9.203 0 0 0-3.21-3.687Zm-7.533 2.779c.795-.361 1.586-.545 2.347-.545.762 0 1.555.184 2.349.545.785.357 1.467.925 2.031 1.69.502.686.81 1.58.922 2.666h-10.564c.11-1.09.412-1.984.904-2.67.547-.762 1.226-1.333 2.009-1.686h.004-.002ZM174.1 23.536h-.194c-1.4 0-2.645.399-3.702 1.184a13.332 13.332 0 0 0-1.974 1.796v-.67c0-.58-.209-1.083-.621-1.495a2.044 2.044 0 0 0-1.493-.62c-.578 0-1.08.211-1.478.627a2.078 2.078 0 0 0-.598 1.492v16.462c0 .582.203 1.078.601 1.476.399.399.897.602 1.477.602.579 0 1.077-.2 1.491-.598.414-.398.627-.896.627-1.48V30.753a7.76 7.76 0 0 1 2.367-2.245c.962-.588 2.048-.889 3.231-.889h.193c.602 0 1.105-.187 1.506-.554.404-.373.611-.863.611-1.45 0-.585-.193-1.071-.58-1.47-.387-.402-.879-.607-1.461-.607v-.004l-.003.002ZM192.793 24.558c-1.519-.885-3.317-1.334-5.336-1.334s-3.825.45-5.358 1.334a9.195 9.195 0 0 0-3.569 3.71c-.828 1.565-1.248 3.409-1.248 5.476 0 2.068.42 3.915 1.248 5.477a9.159 9.159 0 0 0 3.569 3.708c1.529.885 3.333 1.334 5.358 1.334 2.025 0 3.821-.45 5.336-1.334a9.336 9.336 0 0 0 3.566-3.706c.843-1.566 1.271-3.409 1.271-5.48 0-2.072-.426-3.916-1.271-5.481a9.375 9.375 0 0 0-3.566-3.706v.002Zm-2.571 15.163c-1.843.873-3.691.873-5.553 0-.918-.43-1.687-1.14-2.285-2.11-.601-.975-.906-2.289-.906-3.902s.305-2.92.906-3.883c.598-.96 1.367-1.656 2.285-2.074.935-.424 1.874-.642 2.79-.642.916 0 1.845.214 2.769.638.906.418 1.675 1.115 2.288 2.078.613.962.926 2.267.926 3.88 0 1.612-.313 2.924-.926 3.898-.613.975-1.382 1.686-2.288 2.115l-.006.004v-.002ZM219.165 27.479a6.963 6.963 0 0 0-2.464-2.869c-1.078-.712-2.394-1.074-3.915-1.074-1.775 0-3.267.387-4.431 1.152a16.093 16.093 0 0 0-2.354 1.869v-.713c0-.607-.213-1.119-.627-1.519a2.084 2.084 0 0 0-1.492-.597 2.02 2.02 0 0 0-1.476.601c-.398.398-.599.91-.599 1.513v16.462c0 .582.203 1.078.599 1.476.398.399.896.602 1.476.602s1.078-.2 1.492-.598c.414-.398.627-.896.627-1.48V30.915a13.273 13.273 0 0 1 2.54-2.41c.957-.694 2.101-1.046 3.399-1.046 1.389 0 2.388.373 2.968 1.111.6.765.904 1.847.904 3.218V42.3c0 .58.203 1.078.6 1.477.398.398.896.6 1.476.6s1.078-.198 1.488-.597c.414-.398.624-.896.624-1.48V31.401c0-1.425-.283-2.749-.839-3.93v.01l.004-.002ZM156.54 23.847a1.985 1.985 0 0 0-1.984 1.984v10.046c0 2.528-2.245 4.584-5.004 4.584-2.759 0-5.004-2.056-5.004-4.584V25.83a1.983 1.983 0 1 0-3.968 0v10.046c0 4.717 4.026 8.554 8.976 8.554 4.95 0 8.976-3.837 8.976-8.554V25.83a1.985 1.985 0 0 0-1.984-1.984h-.008ZM9.94 22.808a4.948 4.948 0 1 0 0-9.895 4.948 4.948 0 0 0 0 9.895Z"></path><path fill="#1F4DCC" d="M19.881 17.821c0-2.462-.9-4.717-2.386-6.457-.332-.388-.917-.478-1.323-.17a.955.955 0 0 0-.143 1.393 7.993 7.993 0 0 1 1.93 5.707c-.231 3.99-3.435 7.246-7.42 7.535-4.696.341-8.629-3.384-8.629-8.01 0-1.997.732-3.827 1.943-5.232a.956.956 0 0 0-.041-1.305.95.95 0 0 0-1.39.041A9.917 9.917 0 0 0 .03 18.6c.297 3.872 3.241 7.13 6.709 8.484 1.054.412 1.72 1.463 1.695 2.595l-.682 12.633c-.027 1.228.928 2.298 2.158 2.314a2.192 2.192 0 0 0 2.222-2.242l-.684-12.709a2.725 2.725 0 0 1 1.718-2.6c3.699-1.45 6.713-5.052 6.713-9.256l.002.002Z"></path></svg>
