<?xml version="1.0" encoding="utf-8"?>
<!-- Generator: Adobe Illustrator 27.4.0, SVG Export Plug-In . SVG Version: 6.00 Build 0)  -->
<svg version="1.1" id="Ebene_1" xmlns="http://www.w3.org/2000/svg" xmlns:xlink="http://www.w3.org/1999/xlink" x="0px" y="0px"
	 viewBox="0 0 424 222" style="enable-background:new 0 0 424 222;" xml:space="preserve">
<style type="text/css">
	.st0{fill:#FF7100;}
</style>
<path class="st0" d="M73.3,0c2.8,0,5.4,0.9,7.5,2.9c2.1,2,3.2,4.4,3.2,7.5v156c0,8-1.4,15.3-4.3,22.1c-2.8,6.8-6.8,12.6-11.7,17.4
	c-4.9,4.8-10.8,8.6-17.6,11.4c-6.8,2.8-14.1,4.1-21.9,4.1c-3.2,0-6.6-0.2-9.8-0.6c-3.3-0.4-6.5-0.9-9.6-1.6c-6.2-1-9.3-4.2-9.3-9.6
	c0-3.1,1-5.5,2.9-7.3c2-1.8,4.4-2.8,7.2-2.8c1.7,0,4,0.3,7,0.9c3.1,0.6,6.9,0.9,11.4,0.9c4.9,0,9.5-0.9,13.7-2.9
	c4.2-2,7.8-4.6,10.9-7.8c3.1-3.3,5.5-7,7-11.2c1.7-4.2,2.5-8.5,2.5-13v-156c0-3.1,1-5.6,3.1-7.5c2.1-2,4.5-2.9,7.4-2.9H73.3z"/>
<path class="st0" d="M191.5,3c18.7,0,33.2,5.1,43.7,15.3c10.4,10.3,15.7,24.1,15.7,41.5c0,10.8-2.7,20.1-8.2,27.8
	c-5.5,7.7-12.5,13.7-21.1,17.9c11.3,4.7,20,11.7,26.3,20.9c6.3,9.2,9.4,19.7,9.4,31.6c0,18.4-5.6,33.1-16.8,43.9
	c-11.2,10.8-26.9,16.3-47.3,16.3h-50.2c-3.7,0-6.9-1.3-9.6-3.7c-2.7-2.4-4-5.6-4-9.6V16.3c0-3.9,1.3-7,4-9.6
	c2.7-2.4,5.9-3.7,9.6-3.7H191.5L191.5,3z M151.2,23v73.7h37c5.8,0,11.2-0.9,16.1-2.6c5.1-1.7,9.4-4.2,13.1-7.3
	c3.7-3.2,6.6-7,8.8-11.5c2.1-4.5,3.2-9.6,3.2-15.1c0-11.5-3.4-20.5-10.1-27.2c-6.8-6.6-16-10-27.7-10H151.2L151.2,23z M151.2,116.7
	v81.7h42.2c12.9,0,23.3-3.6,31-10.9c7.7-7.3,11.6-17.2,11.6-29.9c0-6.2-1.3-11.8-3.7-16.9c-2.5-5.1-5.8-9.4-9.8-12.9
	c-4.1-3.5-8.9-6.2-14.5-8.1c-5.5-2-11.5-2.9-17.8-2.9H151.2L151.2,116.7z"/>
<path class="st0" d="M358,3c18.7,0,33.2,5.1,43.7,15.3c10.4,10.3,15.7,24.1,15.7,41.5c0,10.8-2.7,20.1-8.2,27.8
	c-5.5,7.7-12.5,13.7-21.1,17.9c11.3,4.7,20,11.7,26.3,20.9c6.3,9.2,9.4,19.7,9.4,31.6c0,18.4-5.6,33.1-16.8,43.9
	c-11.2,10.8-26.9,16.3-47.3,16.3h-50.2c-3.7,0-6.9-1.3-9.6-3.7c-2.7-2.4-4-5.6-4-9.6V16.3c0-3.9,1.3-7,4-9.6
	c2.7-2.4,5.9-3.7,9.6-3.7H358L358,3z M317.7,23v73.7h37c5.8,0,11.2-0.9,16.2-2.6c5.1-1.7,9.4-4.2,13.1-7.3c3.7-3.2,6.6-7,8.8-11.5
	c2.1-4.5,3.2-9.6,3.2-15.1c0-11.5-3.4-20.5-10.1-27.2c-6.8-6.6-16-10-27.7-10H317.7L317.7,23z M317.7,116.7v81.7h42.2
	c12.9,0,23.3-3.6,31-10.9c7.7-7.3,11.6-17.2,11.6-29.9c0-6.2-1.3-11.8-3.7-16.9c-2.5-5.1-5.8-9.4-9.8-12.9
	c-4.1-3.5-8.9-6.2-14.5-8.1c-5.5-2-11.5-2.9-17.8-2.9H317.7L317.7,116.7z"/>
</svg>
