<svg xmlns="http://www.w3.org/2000/svg" viewBox="0 11.300000190734863 429.1000061035156 47.04999923706055" data-asc="0.968" width="429.1000061035156" height="47.04999923706055"><defs/><g fill="#000000"><g transform="translate(0, 0)"><path d="M9.65 48.70Q6.70 48.70 4.13 47.40Q1.55 46.10 0 43.70L2.15 41.20Q3.60 43.30 5.50 44.40Q7.40 45.50 9.70 45.50Q16.20 45.50 16.20 37.80L16.20 16.60L3.40 16.60L3.40 13.40L19.85 13.40L19.85 37.65Q19.85 43.20 17.27 45.95Q14.70 48.70 9.65 48.70ZM45.05 48.70Q38.35 48.70 34.50 44.85Q30.65 41 30.65 33.45L30.65 13.40L34.35 13.40L34.35 33.30Q34.35 39.50 37.15 42.45Q39.95 45.40 45.05 45.40Q50.20 45.40 53 42.45Q55.80 39.50 55.80 33.30L55.80 13.40L59.40 13.40L59.40 33.45Q59.40 41 55.58 44.85Q51.75 48.70 45.05 48.70ZM70.55 48.40L70.55 13.40L73.60 13.40L97.75 43.80L96.15 43.80L96.15 13.40L99.80 13.40L99.80 48.40L96.75 48.40L72.65 18.00L74.25 18.00L74.25 48.40L70.55 48.40ZM124.30 48.40L124.30 13.40L128 13.40L128 45.20L147.60 45.20L147.60 48.40L124.30 48.40ZM164.15 48.65Q160.05 48.65 156.95 46.92Q153.85 45.20 152.10 42.17Q150.35 39.15 150.35 35.25Q150.35 31.35 152.03 28.35Q153.70 25.35 156.63 23.62Q159.55 21.90 163.20 21.90Q166.90 21.90 169.78 23.57Q172.65 25.25 174.30 28.27Q175.95 31.30 175.95 35.25Q175.95 35.50 175.93 35.77Q175.90 36.05 175.90 36.35L153.05 36.35L153.05 33.70L174 33.70L172.60 34.75Q172.60 31.90 171.38 29.67Q170.15 27.45 168.05 26.20Q165.95 24.95 163.20 24.95Q160.50 24.95 158.35 26.20Q156.20 27.45 155 29.70Q153.80 31.95 153.80 34.85L153.80 35.40Q153.80 38.40 155.13 40.67Q156.45 42.95 158.83 44.23Q161.20 45.50 164.25 45.50Q166.65 45.50 168.73 44.65Q170.80 43.80 172.30 42.05L174.30 44.35Q172.55 46.45 169.93 47.55Q167.30 48.65 164.15 48.65ZM194.40 58.35Q190.80 58.35 187.50 57.30Q184.20 56.25 182.15 54.30L183.95 51.60Q185.80 53.25 188.53 54.23Q191.25 55.20 194.30 55.20Q199.30 55.20 201.65 52.88Q204 50.55 204 45.65L204 39.10L204.50 34.60L204.15 30.10L204.15 22.15L207.55 22.15L207.55 45.20Q207.55 52 204.22 55.17Q200.90 58.35 194.40 58.35M193.75 47.40Q190 47.40 187 45.77Q184 44.15 182.28 41.25Q180.55 38.35 180.55 34.60Q180.55 30.85 182.28 27.97Q184 25.10 187 23.50Q190 21.90 193.75 21.90Q197.25 21.90 200.05 23.35Q202.85 24.80 204.50 27.65Q206.15 30.50 206.15 34.60Q206.15 38.70 204.50 41.55Q202.85 44.40 200.05 45.90Q197.25 47.40 193.75 47.40M194.10 44.25Q197 44.25 199.25 43.02Q201.50 41.80 202.80 39.63Q204.10 37.45 204.10 34.60Q204.10 31.75 202.80 29.60Q201.50 27.45 199.25 26.22Q197 25.00 194.10 25.00Q191.25 25.00 188.97 26.22Q186.70 27.45 185.43 29.60Q184.15 31.75 184.15 34.60Q184.15 37.45 185.43 39.63Q186.70 41.80 188.97 43.02Q191.25 44.25 194.10 44.25ZM233.90 48.40L233.90 42.60L233.75 41.65L233.75 31.95Q233.75 28.60 231.88 26.80Q230 25.00 226.30 25.00Q223.75 25.00 221.45 25.85Q219.15 26.70 217.55 28.10L215.95 25.45Q217.95 23.75 220.75 22.82Q223.55 21.90 226.65 21.90Q231.75 21.90 234.53 24.42Q237.30 26.95 237.30 32.10L237.30 48.40L233.90 48.40M224.85 48.65Q221.90 48.65 219.72 47.67Q217.55 46.70 216.40 44.98Q215.25 43.25 215.25 41Q215.25 38.95 216.22 37.27Q217.20 35.60 219.43 34.57Q221.65 33.55 225.40 33.55L234.45 33.55L234.45 36.20L225.50 36.20Q221.70 36.20 220.22 37.55Q218.75 38.90 218.75 40.90Q218.75 43.15 220.50 44.50Q222.25 45.85 225.40 45.85Q228.40 45.85 230.57 44.48Q232.75 43.10 233.75 40.50L234.55 42.95Q233.55 45.55 231.07 47.10Q228.60 48.65 224.85 48.65ZM246.95 48.40L246.95 11.30L250.50 11.30L250.50 48.40L246.95 48.40ZM289.60 48.70Q285.60 48.70 282.23 47.38Q278.85 46.05 276.38 43.65Q273.90 41.25 272.53 38Q271.15 34.75 271.15 30.90Q271.15 27.05 272.53 23.80Q273.90 20.55 276.40 18.15Q278.90 15.75 282.28 14.42Q285.65 13.10 289.65 13.10Q293.65 13.10 296.98 14.35Q300.30 15.60 302.65 18.15L300.35 20.50Q298.15 18.30 295.50 17.35Q292.85 16.40 289.80 16.40Q286.55 16.40 283.82 17.47Q281.10 18.55 279.07 20.52Q277.05 22.50 275.93 25.12Q274.80 27.75 274.80 30.90Q274.80 34 275.93 36.65Q277.05 39.30 279.07 41.27Q281.10 43.25 283.82 44.32Q286.55 45.40 289.75 45.40Q292.75 45.40 295.43 44.50Q298.10 43.60 300.35 41.45L302.45 44.25Q299.95 46.45 296.60 47.57Q293.25 48.70 289.60 48.70M298.90 43.80L298.90 30.90L302.45 30.90L302.45 44.25L298.90 43.80ZM344.95 21.90Q348.15 21.90 350.53 23.12Q352.90 24.35 354.23 26.85Q355.55 29.35 355.55 33.15L355.55 48.40L352.00 48.40L352.00 33.50Q352.00 29.35 350.03 27.22Q348.05 25.10 344.45 25.10Q341.75 25.10 339.78 26.22Q337.80 27.35 336.73 29.47Q335.65 31.60 335.65 34.60L335.65 48.40L332.10 48.40L332.10 33.50Q332.10 29.35 330.10 27.22Q328.10 25.10 324.50 25.10Q321.85 25.10 319.85 26.22Q317.85 27.35 316.78 29.47Q315.70 31.60 315.70 34.60L315.70 48.40L312.15 48.40L312.15 22.15L315.55 22.15L315.55 29.25L315.00 28.00Q316.20 25.15 318.88 23.52Q321.55 21.90 325.20 21.90Q329.05 21.90 331.75 23.82Q334.45 25.75 335.25 29.60L333.85 29.05Q335.00 25.85 337.93 23.87Q340.85 21.90 344.95 21.90ZM378.75 48.65Q375.30 48.65 372.55 47.07Q369.80 45.50 368.20 42.50Q366.60 39.50 366.60 35.25Q366.60 30.95 368.23 27.97Q369.85 25.00 372.60 23.45Q375.35 21.90 378.75 21.90Q382.50 21.90 385.48 23.57Q388.45 25.25 390.15 28.25Q391.85 31.25 391.85 35.25Q391.85 39.20 390.15 42.22Q388.45 45.25 385.48 46.95Q382.50 48.65 378.75 48.65M365.20 48.40L365.20 11.30L368.75 11.30L368.75 29.90L368.25 35.20L368.60 40.50L368.60 48.40L365.20 48.40M378.50 45.50Q381.30 45.50 383.50 44.23Q385.70 42.95 387.00 40.63Q388.30 38.30 388.30 35.25Q388.30 32.15 387.00 29.85Q385.70 27.55 383.50 26.27Q381.30 25.00 378.50 25.00Q375.70 25.00 373.48 26.27Q371.25 27.55 369.98 29.85Q368.70 32.15 368.70 35.25Q368.70 38.30 369.98 40.63Q371.25 42.95 373.48 44.23Q375.70 45.50 378.50 45.50ZM425.45 13.40L429.10 13.40L429.10 48.40L425.45 48.40L425.45 13.40M403.55 48.40L399.85 48.40L399.85 13.40L403.55 13.40L403.55 48.40M425.80 32.25L403.15 32.25L403.15 29.00L425.80 29.00L425.80 32.25Z"/></g></g></svg>