<?xml version="1.0" encoding="UTF-8" standalone="no"?>
<svg
   width="400"
   height="92"
   fill="none"
   version="1.1"
   id="svg7"
   sodipodi:docname="keitaro.svg"
   inkscape:version="1.4.3 (0d15f75, 2025-12-25)"
   xmlns:inkscape="http://www.inkscape.org/namespaces/inkscape"
   xmlns:sodipodi="http://sodipodi.sourceforge.net/DTD/sodipodi-0.dtd"
   xmlns="http://www.w3.org/2000/svg"
   xmlns:svg="http://www.w3.org/2000/svg">
  <defs
     id="defs7" />
  <sodipodi:namedview
     id="namedview7"
     pagecolor="#ffffff"
     bordercolor="#000000"
     borderopacity="0.25"
     inkscape:showpageshadow="2"
     inkscape:pageopacity="0.0"
     inkscape:pagecheckerboard="0"
     inkscape:deskcolor="#d1d1d1"
     inkscape:zoom="0.2826087"
     inkscape:cx="199.92308"
     inkscape:cy="44.230769"
     inkscape:current-layer="svg7" />
  <path
     fill="#D8D7E0"
     d="M145.32 0c3.114 0 5.76 1.024 7.938 3.055 2.178 2.048 3.257 4.833 3.239 8.373 0 3.54-1.079 6.325-3.257 8.356-2.16 2.03-4.824 3.055-7.938 3.055-3.113 0-5.759-1.043-7.937-3.109s-3.258-4.87-3.258-8.392c0-3.54 1.08-6.307 3.258-8.32C139.543 1.007 142.189 0 145.32 0ZM19.06 56.602l26.314 34.5h23.309L37.239 51.266l30.328-38.292H45.158L19.06 47.258V12.973H0v78.13h19.06v-34.5Z"
     id="path1"
     style="fill:#62c862;fill-opacity:1" />
  <path
     fill="#D8D7E0"
     fill-rule="evenodd"
     d="M83.279 64.616h43.161c.216-1.923.324-3.791.288-5.588 0-6.236-1.314-11.698-3.96-16.37-2.646-4.672-6.3-8.284-10.979-10.8-4.68-2.533-10.043-3.791-16.055-3.791-6.173 0-11.645 1.312-16.397 3.9-4.751 2.605-8.459 6.324-11.087 11.14-2.646 4.816-3.96 10.458-3.96 16.909 0 6.469 1.332 12.111 4.014 16.927 2.664 4.815 6.39 8.535 11.141 11.123 4.77 2.605 10.188 3.899 16.289 3.899 5.058 0 9.629-.935 13.715-2.785 4.086-1.851 7.487-4.403 10.205-7.673a27.683 27.683 0 0 0 5.634-11.015h-20.285c-1.854 4.007-5.165 6.02-9.917 6.02-3.204 0-5.885-1.007-8.081-3.055-2.178-2.03-3.438-4.978-3.726-8.841Zm20.626-18.364c2.232 1.94 3.348 4.528 3.348 7.798H83.387c.522-3.414 1.872-6.055 4.068-7.906 2.195-1.851 4.895-2.785 8.081-2.785 3.348 0 6.138.97 8.369 2.893Z"
     clip-rule="evenodd"
     id="path2"
     style="fill:#62c862;fill-opacity:1" />
  <path
     fill="#D8D7E0"
     d="M154.843 29.002v62.1h-19.061v-62.1h19.061Z"
     id="path3"
     style="fill:#62c862;fill-opacity:1" />
  <path
     fill="#D8D7E0"
     fill-rule="evenodd"
     d="M225.432 32.001c4.158-2.605 8.802-3.899 13.931-3.899 4.392 0 8.226.899 11.537 2.677 3.294 1.78 5.85 4.115 7.632 7.008v-8.786h19.06v62.1h-19.06v-8.786c-1.854 2.893-4.428 5.229-7.74 7.008-3.311 1.779-7.145 2.677-11.537 2.677-5.057 0-9.665-1.312-13.823-3.953-4.157-2.642-7.451-6.397-9.863-11.249-2.412-4.851-3.618-10.476-3.618-16.855s1.206-11.985 3.618-16.8c2.412-4.834 5.706-8.536 9.863-11.142Zm27.43 39.299c2.646-2.75 3.96-6.505 3.96-11.249 0-4.744-1.314-8.5-3.96-11.248-2.646-2.75-5.867-4.115-9.647-4.115-3.798 0-7.02 1.347-9.647 4.06-2.646 2.714-3.96 6.451-3.96 11.195 0 4.762 1.314 8.518 3.96 11.303 2.645 2.785 5.849 4.169 9.647 4.169s7.019-1.366 9.647-4.115Z"
     clip-rule="evenodd"
     id="path4"
     style="fill:#62c862;fill-opacity:1" />
  <path
     fill="#D8D7E0"
     d="M205.886 81.596a43.403 43.403 0 0 1-2.61-6.63h-4.949c-2.088 0-3.564-.395-4.464-1.222-.9-.809-1.332-2.156-1.332-4.007V44.814h12.491V29.019h-12.491V13.871h-19.06V29.02h-7.578v15.795h7.578V69.52c0 7.637 1.926 13.153 5.795 16.532 3.87 3.378 9.252 5.067 16.163 5.067h16.973c-2.538-2.767-4.716-5.93-6.516-9.524Z"
     id="path5"
     style="fill:#62c862;fill-opacity:1" />
  <path
     fill="#D8D7E0"
     fill-rule="evenodd"
     d="M384.179 32.001c-4.895-2.587-10.403-3.899-16.504-3.899-6.102 0-11.592 1.294-16.505 3.9-4.896 2.605-8.765 6.325-11.591 11.194-2.826 4.852-4.23 10.476-4.23 16.855 0 6.45 1.386 12.093 4.176 16.927 2.79 4.816 6.605 8.535 11.483 11.123 4.86 2.605 10.349 3.899 16.451 3.899 6.083 0 11.609-1.294 16.558-3.9 4.932-2.587 8.838-6.324 11.699-11.176C398.578 72.072 400 66.448 400 60.051c0-6.379-1.404-12.003-4.23-16.855-2.825-4.87-6.677-8.59-11.591-11.195Zm-7.415 39.514c-2.556 2.66-5.67 4.007-9.305 4.007-3.636 0-6.678-1.33-9.09-4.007-2.412-2.677-3.617-6.487-3.617-11.464 0-5.05 1.223-8.895 3.671-11.518 2.448-2.642 5.544-3.953 9.252-3.953 3.635 0 6.713 1.33 9.197 4.007 2.484 2.677 3.726 6.487 3.726 11.464.018 4.977-1.26 8.805-3.834 11.464Z"
     clip-rule="evenodd"
     id="path6"
     style="fill:#62c862;fill-opacity:1" />
  <path
     fill="#D8D7E0"
     d="M329.319 28.337c2.987 0 5.237.45 7.127 1.348a39.415 39.415 0 0 0-6.191 8.104c-1.926 3.306-3.366 6.882-4.32 10.691h-1.872c-4.769 0-8.333 1.025-10.709 3.055-2.376 2.049-3.564 5.625-3.564 10.746v28.822h-19.06v-62.1h19.06v10.35c2.232-3.415 5.022-6.092 8.37-8.069 3.347-1.958 8.279-2.947 11.159-2.947Z"
     id="path7"
     style="fill:#62c862;fill-opacity:1" />
</svg>
