<?xml version="1.0" encoding="UTF-8" standalone="no"?>
<svg
   id="_層_2"
   viewBox="0 0 701.22 84.41"
   version="1.1"
   sodipodi:docname="kkcompany.svg"
   inkscape:version="1.4.3 (0d15f75, 2025-12-25)"
   xmlns:inkscape="http://www.inkscape.org/namespaces/inkscape"
   xmlns:sodipodi="http://sodipodi.sourceforge.net/DTD/sodipodi-0.dtd"
   xmlns="http://www.w3.org/2000/svg"
   xmlns:svg="http://www.w3.org/2000/svg">
  <sodipodi:namedview
     id="namedview10"
     pagecolor="#ffffff"
     bordercolor="#000000"
     borderopacity="0.25"
     inkscape:showpageshadow="2"
     inkscape:pageopacity="0.0"
     inkscape:pagecheckerboard="0"
     inkscape:deskcolor="#d1d1d1"
     inkscape:zoom="0.30802036"
     inkscape:cx="349.0029"
     inkscape:cy="40.581733"
     inkscape:current-layer="_層_2" />
  <defs
     id="defs1">
    <style
       id="style1">.cls-1{fill:#fff;}</style>
  </defs>
  <g
     id="_層_4"
     style="fill:#000000">
    <g
       id="g10"
       style="fill:#000000">
      <path
         class="cls-1"
         d="M148.24,41.67c0-25.05,16.88-41.67,41-41.67,8.84,0,17.55,2.01,23.18,5.09l-9.24,18.22c-3.08-1.74-7.5-3.08-12.33-3.08-12.6,0-21.57,9.38-21.57,21.71s8.98,22.24,21.71,22.24c4.69,0,9.11-1.34,12.19-3.08l9.24,18.22c-6.03,3.35-14.87,5.09-23.18,5.09-21.97,0-41-16.08-41-42.74Z"
         id="path1"
         style="fill:#000000" />
      <path
         class="cls-1"
         d="M212.13,41.94c0-24.65,17.42-41.94,42.61-41.94s42.61,17.28,42.61,41.94-19.83,42.47-42.61,42.47-42.61-16.88-42.61-42.47Zm64.18,0c0-12.19-8.98-21.71-21.57-21.71s-21.57,9.51-21.57,21.71,8.98,22.24,21.57,22.24,21.57-9.78,21.57-22.24Z"
         id="path2"
         style="fill:#000000" />
      <path
         class="cls-1"
         d="M307.21,1.34h26.39l18.62,51.99L369.38,1.34h26.39l1.88,81.73h-19.7l-.8-49.84-17.28,49.84h-16.75l-17.28-49.84-.8,49.84h-19.7l1.88-81.73Z"
         id="path3"
         style="fill:#000000" />
      <path
         class="cls-1"
         d="M410.96,1.34h30.37c23.71,0,29.6,15.5,29.6,31.98s-6.64,33.27-30.75,33.27h-8.85v16.48h-20.37V1.34Zm20.37,45.42h8.04c9.24,0,10.52-5.9,10.52-12.86s-1.41-12.73-10.52-12.73h-8.04v25.59Z"
         id="path4"
         style="fill:#000000" />
      <path
         class="cls-1"
         d="M521.98,70.82h-30.39l-4.37,12.25h-20.9L497.54,1.34h19.03l31.22,81.73h-21.3l-4.5-12.25Zm-15.6-43.35l-8.9,26.34h18.33l-9.43-26.34Z"
         id="path5"
         style="fill:#000000" />
      <path
         class="cls-1"
         d="M552.39,1.34h16.61l33.09,46.22V1.34h19.03V83.07h-16.48l-33.23-46.22v46.22h-19.03V1.34Z"
         id="path6"
         style="fill:#000000" />
      <path
         class="cls-1"
         d="M653.12,58.28L625.25,1.34h22.78l15.81,34.43,15.27-34.43h22.11l-27.73,56.67v25.05h-20.37v-24.79Z"
         id="path7"
         style="fill:#000000" />
      <polygon
         class="cls-1"
         points="39.95 42.21 39.96 42.2 39.95 42.2 39.95 42.21"
         id="polygon7"
         style="fill:#000000" />
      <polygon
         class="cls-1"
         points="16.77 42.2 16.78 42.21 16.78 42.2 16.77 42.2"
         id="polygon8"
         style="fill:#000000" />
      <polygon
         class="cls-1"
         points="152.78 1.35 126.35 1.35 99.82 34.3 99.82 34.28 99.82 1.35 79.33 1.35 79.33 83.07 99.82 83.07 99.82 50.14 99.82 50.11 126.35 83.07 152.78 83.07 119 42.16 152.78 1.35"
         id="polygon9"
         style="fill:#000000" />
      <polygon
         class="cls-1"
         points="73.45 1.35 47.01 1.35 20.49 34.3 20.49 34.28 20.49 1.35 0 1.35 0 83.07 20.49 83.07 20.49 50.14 20.49 50.11 47.01 83.07 73.45 83.07 39.67 42.16 73.45 1.35"
         id="polygon10"
         style="fill:#000000" />
    </g>
  </g>
</svg>
