<?xml version="1.0" encoding="UTF-8" standalone="no"?>
<!-- Created with Inkscape (http://www.inkscape.org/) -->

<svg
   width="85.920914mm"
   height="9.646678mm"
   viewBox="0 0 85.920914 9.646678"
   version="1.1"
   id="svg1"
   xml:space="preserve"
   inkscape:version="1.4.3 (0d15f75, 2025-12-25)"
   sodipodi:docname="lee-tsai-partners.svg"
   xmlns:inkscape="http://www.inkscape.org/namespaces/inkscape"
   xmlns:sodipodi="http://sodipodi.sourceforge.net/DTD/sodipodi-0.dtd"
   xmlns="http://www.w3.org/2000/svg"
   xmlns:svg="http://www.w3.org/2000/svg"><sodipodi:namedview
     id="namedview1"
     pagecolor="#ffffff"
     bordercolor="#000000"
     borderopacity="0.25"
     inkscape:showpageshadow="2"
     inkscape:pageopacity="0.0"
     inkscape:pagecheckerboard="0"
     inkscape:deskcolor="#d1d1d1"
     inkscape:document-units="mm"
     inkscape:zoom="1.1"
     inkscape:cx="175.45455"
     inkscape:cy="162.27273"
     inkscape:current-layer="layer1" /><defs
     id="defs1" /><g
     inkscape:label="Layer 1"
     inkscape:groupmode="layer"
     id="layer1"
     transform="translate(-58.693685,-104.2145)"><g
       id="g1"><path
         style="fill:#f9f4e7"
         d="m 72.038072,113.673 c -0.701197,-0.13545 -1.658917,-1.27063 -1.658917,-1.96632 0,-0.27142 -0.119063,-0.49348 -0.264584,-0.49348 -0.145521,0 -0.264583,0.40214 -0.264583,0.89364 0,0.49151 -0.171179,1.03571 -0.380399,1.20935 -0.31044,0.25764 -0.460213,0.16136 -0.814391,-0.52355 -0.411267,-0.7953 -0.407447,-0.85784 0.07296,-1.19433 0.278824,-0.1953 0.820843,-0.76662 1.204486,-1.2696 0.623431,-0.81736 0.642038,-0.9 0.175146,-0.7779 -0.768269,0.2009 -0.670333,-0.61699 0.159333,-1.33064 l 0.68172,-0.58639 -0.854975,0.004 c -1.180426,0.005 -1.273395,-0.55457 -0.127798,-0.76948 0.844922,-0.15851 0.902537,-0.22356 0.611191,-0.69008 -0.269241,-0.43112 -0.232728,-0.60402 0.224021,-1.06077 0.661772,-0.66177 2.223705,-0.93776 2.223705,-0.39292 0,0.20082 -0.386953,0.67009 -0.859896,1.04283 -0.472943,0.37273 -0.694139,0.67902 -0.491546,0.68063 0.202592,0.002 1.01414,-0.54878 1.803441,-1.2231 0.923695,-0.78914 1.52623,-1.1349 1.690845,-0.97029 0.378037,0.37804 0.0072,1.10174 -0.785154,1.53226 -0.535623,0.29103 -0.585408,0.38074 -0.215817,0.38889 0.264228,0.006 0.702718,-0.10838 0.974421,-0.25379 0.395083,-0.21144 0.52788,-0.15766 0.663166,0.26859 0.163181,0.51414 -0.491083,1.89444 -1.408893,2.97236 -0.254528,0.29892 -0.285948,0.46302 -0.08866,0.46302 0.168075,0 0.305591,-0.12899 0.305591,-0.28664 0,-0.15764 0.148828,-0.2365 0.330729,-0.17523 0.181901,0.0613 0.333008,0.39784 0.335793,0.74794 0.0039,0.49342 0.177472,0.66665 0.771922,0.77054 1.020965,0.17842 1.152436,0.7113 0.274212,1.11145 -0.658945,0.30023 -0.763919,0.2577 -1.455634,-0.58983 -0.823686,-1.00922 -0.816869,-1.01031 -1.301791,0.2077 -0.385883,0.96925 -0.919803,1.1093 -1.327172,0.34813 -0.37922,-0.70858 -0.348916,-0.81115 0.239659,-0.81115 0.282454,0 0.575804,-0.10072 0.65189,-0.22383 0.130289,-0.21081 -2.232794,-0.0972 -2.463937,0.11844 -0.05933,0.0554 0.26701,0.4589 0.725196,0.89677 0.642695,0.61419 1.075467,0.79612 1.893808,0.79612 0.961592,0 1.060741,-0.0633 1.060741,-0.67707 0,-0.8056 0.44905,-0.62643 0.810109,0.32322 0.413547,1.08771 -0.09993,1.68322 -1.41473,1.64074 -0.613344,-0.0198 -1.380688,-0.0873 -1.705211,-0.15 z m 0.457749,-4.93572 c 0,-0.33617 -0.122211,-0.18607 -0.507923,0.62383 -0.297034,0.6237 -0.291527,0.63214 0.09645,0.14787 0.226309,-0.28247 0.411471,-0.62974 0.411471,-0.7717 z m -0.529166,-0.83138 c 0,-0.21828 -0.174857,-0.39687 -0.388572,-0.39687 -0.236694,0 -0.329045,0.15512 -0.236275,0.39687 0.08376,0.21829 0.258619,0.39688 0.388571,0.39688 0.129951,0 0.236276,-0.17859 0.236276,-0.39688 z m 1.5875,-0.40618 c 0,-0.1404 -0.238125,-0.25527 -0.529167,-0.25527 -0.355827,0 -0.529167,0.17639 -0.529167,0.53847 0,0.45649 0.08057,0.49536 0.529167,0.25528 0.291042,-0.15576 0.529167,-0.39808 0.529167,-0.53848 z m 1.007234,0.1346 c -0.08146,-0.0815 -0.229406,0.0654 -0.328765,0.32632 -0.143586,0.37708 -0.113195,0.40747 0.148112,0.14811 0.180821,-0.17947 0.262115,-0.39297 0.180653,-0.47443 z m 16.719848,5.17952 c 0,-0.13829 0.20836,-0.36953 0.463021,-0.51388 0.438102,-0.24833 0.436816,-0.28182 -0.02389,-0.62238 -0.442094,-0.3268 -0.448182,-0.39208 -0.06615,-0.70914 0.336781,-0.2795 0.499985,-0.28346 0.817642,-0.0198 0.552071,0.45818 0.495771,0.94559 -0.182182,1.5772 -0.623446,0.58082 -1.008443,0.69079 -1.008443,0.28803 z m -29.012059,-0.60733 c -0.06707,-0.10852 0.152659,-0.30385 0.488287,-0.43407 1.869591,-0.72536 1.972565,-0.80774 0.808669,-0.64695 -1.434595,0.19818 -1.478683,-0.25158 -0.06615,-0.67478 0.582084,-0.1744 1.058334,-0.43556 1.058334,-0.58036 0,-0.16735 -0.194229,-0.15932 -0.533093,0.022 -0.403061,0.21571 -0.558719,0.20185 -0.638156,-0.0568 -0.05779,-0.18817 -0.230037,-0.73373 -0.382783,-1.21235 -0.23033,-0.72173 -0.189558,-1.01519 0.238937,-1.71979 0.284161,-0.46727 0.558944,-0.79005 0.610627,-0.71729 0.05168,0.0728 0.261098,-0.005 0.465365,-0.17223 0.204267,-0.16749 0.966707,-0.34608 1.694311,-0.39687 l 1.322916,-0.0924 -0.0611,1.42781 c -0.06544,1.52909 -0.562282,2.56326 -1.32144,2.75058 -0.258247,0.0637 -0.142117,0.0754 0.258065,0.0259 0.617706,-0.0764 0.727604,0.007 0.727604,0.54889 0,0.52122 -0.158356,0.65967 -0.859895,0.75183 -0.576561,0.0757 -0.506958,0.0937 0.211239,0.0545 0.980996,-0.0536 1.075553,-4.8e-4 1.123641,0.63062 l 0.05251,0.68909 h -2.537969 c -1.395884,0 -2.592845,-0.0888 -2.659916,-0.19731 z m 2.289144,-3.65476 c 0,-0.13693 -0.119063,-0.24897 -0.264584,-0.24897 -0.145521,0 -0.264583,0.18562 -0.264583,0.41249 0,0.22687 0.119062,0.3389 0.264583,0.24897 0.145521,-0.0899 0.264584,-0.27556 0.264584,-0.41249 z m 1.455208,-0.24897 c 0.08994,-0.14552 -0.0221,-0.26458 -0.248969,-0.26458 -0.226869,0 -0.412489,0.11906 -0.412489,0.26458 0,0.14552 0.112035,0.26458 0.248968,0.26458 0.136933,0 0.322553,-0.11906 0.41249,-0.26458 z m -1.340037,-1.56052 c -0.166077,-0.16608 -0.638355,0.50591 -0.631872,0.89906 0.0024,0.14552 0.17794,0.0352 0.39009,-0.24527 0.212149,-0.28042 0.320951,-0.57462 0.241782,-0.65379 z m 1.538474,0.10169 c -0.112609,-0.44427 -0.521758,-0.4374 -0.694077,0.0117 -0.117956,0.30739 -0.0343,0.40231 0.29813,0.33829 0.254151,-0.049 0.432328,-0.20642 0.395947,-0.34995 z m -7.033506,4.98661 c -0.359309,-0.35931 -0.151762,-0.76176 0.619034,-1.20037 1.010694,-0.57512 1.103201,-1.51975 0.130618,-1.33383 -0.889408,0.17002 -0.889408,-0.5402 0,-0.94544 0.363802,-0.16576 0.661459,-0.49578 0.661459,-0.73337 0,-0.35041 -0.17489,-0.39919 -0.926042,-0.25827 -1.564043,0.29342 -1.14329,-0.5016 0.595313,-1.12485 2.472985,-0.88651 2.63291,-0.90884 2.768409,-0.38647 0.19518,0.75246 -0.05286,1.1319 -0.739937,1.1319 -0.385903,0 -0.63941,0.15406 -0.63941,0.38857 0,0.22044 0.156952,0.32835 0.362733,0.24938 0.388398,-0.14904 0.795642,0.57363 0.548552,0.97343 -0.08182,0.13239 -0.320332,0.24071 -0.530025,0.24071 -0.209693,0 -0.38126,0.18278 -0.38126,0.40618 0,0.32976 0.103833,0.35061 0.551827,0.11086 0.303505,-0.16244 0.603964,-0.2432 0.667686,-0.17947 0.319373,0.31937 -0.370387,1.07412 -1.74447,1.90883 -1.651822,1.00343 -1.681708,1.01499 -1.944487,0.75221 z m 20.196527,-0.35278 c 0,-0.14552 0.119062,-0.26458 0.264583,-0.26458 0.15287,0 0.264583,-0.83785 0.264583,-1.98438 0,-1.14653 -0.111713,-1.98437 -0.264583,-1.98437 -0.145521,0 -0.264583,-0.11907 -0.264583,-0.26459 0,-0.14552 0.535781,-0.26458 1.190625,-0.26458 0.654843,0 1.190625,0.11906 1.190625,0.26458 0,0.14552 -0.18381,0.26459 -0.408467,0.26459 -0.337821,0 -0.395021,0.33176 -0.330729,1.91823 0.07549,1.86286 0.09828,1.9206 0.789314,2.0004 0.457056,0.0528 0.914471,-0.12072 1.278819,-0.48507 0.678805,-0.67881 0.874713,-0.56497 0.639631,0.37167 -0.169158,0.67398 -0.230216,0.69268 -2.261835,0.69268 -1.2156,0 -2.087983,-0.11054 -2.087983,-0.26458 z m 5.174377,-0.32346 c -0.592436,-0.84582 -0.508154,-1.72098 0.237554,-2.46669 0.776826,-0.77683 1.208487,-0.81148 2.011212,-0.16148 0.558652,0.45237 0.60138,1.42434 0.0587,1.33525 -0.79653,-0.13077 -1.661008,0.0815 -1.661008,0.40792 0,0.61622 1.030613,0.78639 1.606461,0.26526 0.566564,-0.51274 0.689474,-0.15073 0.236313,0.69601 -0.398449,0.74451 -1.947581,0.69705 -2.48923,-0.0763 z m 1.506352,-2.23302 c -0.181901,-0.0734 -0.479558,-0.0734 -0.661459,0 -0.181901,0.0734 -0.03307,0.13345 0.330729,0.13345 0.363802,0 0.512631,-0.0601 0.33073,-0.13345 z m 2.397802,2.61319 c -0.529528,-0.3367 -0.828088,-1.4605 -0.571027,-2.14937 0.495309,-1.32734 1.713119,-1.70963 2.604995,-0.81776 0.782004,0.78201 0.658727,1.00648 -0.661458,1.20446 -1.247337,0.18705 -1.397543,0.33487 -0.873125,0.85929 0.460267,0.46027 1.203507,0.38933 1.501592,-0.14331 0.141837,-0.25345 0.342475,-0.37623 0.445862,-0.27284 0.103387,0.10338 -0.0095,0.48934 -0.250839,0.85769 -0.440417,0.67216 -1.511102,0.89734 -2.196,0.46184 z M 89.4953,108.9213 c -0.181901,-0.0734 -0.479558,-0.0734 -0.661459,0 -0.181901,0.0734 -0.03307,0.13345 0.33073,0.13345 0.363802,0 0.51263,-0.0601 0.330729,-0.13345 z m 6.81302,2.55648 c 0,-0.14552 0.119063,-0.26458 0.264584,-0.26458 0.15287,0 0.264583,-0.83785 0.264583,-1.98438 0,-1.60557 -0.07734,-1.98437 -0.405179,-1.98437 -0.222848,0 -0.473712,0.17859 -0.557474,0.39687 -0.240181,0.6259 -0.624847,0.46302 -0.624847,-0.26458 0,-0.65368 0.02646,-0.66146 2.248958,-0.66146 2.2225,0 2.248959,0.008 2.248959,0.66146 0,0.7276 -0.384667,0.89048 -0.624847,0.26458 -0.08376,-0.21828 -0.394157,-0.39687 -0.689766,-0.39687 -0.492464,0 -0.537471,0.16617 -0.537471,1.98437 0,1.5875 0.07937,1.98438 0.396875,1.98438 0.218281,0 0.396875,0.11906 0.396875,0.26458 0,0.14552 -0.535781,0.26458 -1.190625,0.26458 -0.654843,0 -1.190625,-0.11906 -1.190625,-0.26458 z m 3.439584,-0.38166 c 0,-0.37217 0.119062,-0.67667 0.264586,-0.67667 0.14552,0 0.26458,0.17859 0.26458,0.39687 0,0.22049 0.23519,0.39688 0.52917,0.39688 0.77558,0 0.64545,-0.45545 -0.26459,-0.92605 -0.549556,-0.28418 -0.793746,-0.60706 -0.793746,-1.04951 0,-0.76382 0.313526,-0.99145 1.494636,-1.08517 0.81921,-0.065 0.88661,-0.0117 0.88661,0.70144 0,0.90912 -0.15562,0.95969 -0.75134,0.24414 -0.28755,-0.34539 -0.56049,-0.44992 -0.79021,-0.30263 -0.25882,0.16596 -0.098,0.37423 0.61276,0.79359 0.79025,0.46626 0.94864,0.69928 0.88009,1.29483 -0.0747,0.64947 -0.20244,0.73483 -1.20807,0.80759 -1.051002,0.076 -1.124476,0.0371 -1.124476,-0.59531 z m 3.024896,0.0609 c -0.18075,-0.56949 0.12982,-0.95435 1.35574,-1.68002 0.30499,-0.18054 0.39723,-0.40617 0.25809,-0.63131 -0.1662,-0.26892 -0.3274,-0.20362 -0.69355,0.28095 -0.3945,0.52209 -0.53671,0.57084 -0.82204,0.2818 -0.28419,-0.2879 -0.2349,-0.43949 0.27961,-0.8599 1.23237,-1.00697 2.41809,-0.29876 2.41809,1.44429 0,0.59061 0.10625,0.9213 0.26458,0.82345 0.38455,-0.23766 0.32508,0.28623 -0.0662,0.58276 -0.1819,0.13788 -0.88916,0.26863 -1.5717,0.29057 -1.05827,0.034 -1.26773,-0.0444 -1.42267,-0.53259 z m 1.7376,-0.76592 c 0,-0.27547 -0.051,-0.50086 -0.11339,-0.50086 -0.28428,0 -0.93455,0.86109 -0.80661,1.06811 0.23918,0.387 0.92,-0.0328 0.92,-0.56725 z m 1.79917,1.03372 c 0.41962,-0.41962 0.40955,-2.25048 -0.0132,-2.4055 -0.42668,-0.15645 -0.0122,-0.59345 0.79375,-0.83696 0.57171,-0.17273 0.59531,-0.11622 0.59531,1.42547 0,0.89383 0.11727,1.60533 0.26459,1.60533 0.14552,0 0.26458,0.11906 0.26458,0.26458 0,0.14552 -0.50006,0.26458 -1.11125,0.26458 -0.86431,0 -1.04069,-0.0706 -0.79375,-0.3175 z m 4.60375,0 c -0.50485,-0.50485 -0.37174,-1.23981 0.35644,-1.96799 0.37066,-0.37066 0.65461,-0.87127 0.63099,-1.11245 -0.083,-0.84787 0.0238,-1.09157 0.6617,-1.50955 0.48332,-0.31668 0.77224,-0.353 1.1595,-0.14574 0.82797,0.44311 0.8994,1.05176 0.20493,1.74622 -0.55501,0.55502 -0.58766,0.69074 -0.26694,1.10979 0.31837,0.41597 0.39934,0.42634 0.62898,0.0806 0.14496,-0.21828 0.19873,-0.60524 0.11949,-0.8599 -0.11565,-0.37165 0.0161,-0.46302 0.6675,-0.46302 0.99745,0 0.99831,0.15325 0.007,1.31257 -0.69415,0.81209 -0.73301,0.94349 -0.34348,1.16149 0.28443,0.15917 0.6107,0.13871 0.92575,-0.058 0.37923,-0.23683 0.48652,-0.22749 0.48652,0.0424 0,0.19041 -0.14288,0.48908 -0.3175,0.6637 -0.38499,0.38499 -1.7042,0.42064 -1.9319,0.0522 -0.1096,-0.17734 -0.32831,-0.17734 -0.65968,0 -0.67713,0.36239 -1.94346,0.33402 -2.32967,-0.0522 z m 2.03727,-0.45428 c 0.30725,-0.19454 0.28007,-0.34935 -0.15943,-0.90808 -0.3986,-0.50674 -0.60502,-0.59838 -0.83342,-0.36998 -0.39024,0.39025 -0.38546,0.8038 0.0139,1.20318 0.37602,0.37602 0.4896,0.3847 0.97894,0.0749 z m 0.64808,-3.0562 c 0.18659,-0.48627 -0.30948,-0.8233 -0.67452,-0.45827 -0.28242,0.28242 -0.0793,0.84667 0.30481,0.84667 0.12136,0 0.28773,-0.17478 0.36971,-0.3884 z m 4.93465,3.5634 c 0,-0.14552 0.17859,-0.26458 0.39687,-0.26458 0.3175,0 0.39688,-0.39688 0.39688,-1.98438 0,-1.5875 -0.0794,-1.98437 -0.39688,-1.98437 -0.21828,0 -0.39687,-0.11907 -0.39687,-0.26459 0,-0.14611 0.69018,-0.26458 1.54138,-0.26458 1.26909,0 1.64301,0.10818 2.11667,0.61236 0.3164,0.33681 0.57528,0.75352 0.57528,0.92605 0,0.54753 -1.03347,1.37201 -1.71979,1.37201 -0.55856,0 -0.66146,0.12347 -0.66146,0.79375 0,0.43656 0.11907,0.79375 0.26459,0.79375 0.14552,0 0.26458,0.11906 0.26458,0.26458 0,0.14552 -0.53578,0.26458 -1.19063,0.26458 -0.65484,0 -1.19062,-0.11906 -1.19062,-0.26458 z m 2.86742,-3.14778 c 0.0807,-0.56844 -0.29883,-1.07092 -0.8169,-1.0815 -0.10914,-0.002 -0.19844,0.4214 -0.19844,0.94139 0,0.75765 0.092,0.92791 0.46302,0.85719 0.25466,-0.0485 0.50321,-0.37122 0.55232,-0.71708 z m 1.89771,3.04458 c -0.48656,-0.48656 -0.27854,-0.9663 0.65883,-1.51936 0.9601,-0.56647 1.12654,-0.86813 0.64365,-1.16657 -0.1555,-0.0961 -0.34771,0.0752 -0.42774,0.38126 -0.1837,0.70247 -0.87737,0.73088 -0.87737,0.0359 0,-0.53198 0.71191,-1.06764 1.41891,-1.06764 0.70875,0 1.22692,0.79678 1.22692,1.88659 0,0.636 0.10509,0.9901 0.26459,0.89153 0.14552,-0.0899 0.26458,-0.0374 0.26458,0.11668 0,0.15411 0.11906,0.2802 0.26458,0.2802 0.14552,0 0.26459,-0.47625 0.26459,-1.05834 0,-0.58208 -0.11907,-1.05833 -0.26459,-1.05833 -0.14552,0 -0.26458,-0.1229 -0.26458,-0.27311 0,-0.3885 1.15237,-0.77864 1.35599,-0.45908 0.1043,0.16369 0.23241,0.15103 0.34694,-0.0343 0.0999,-0.1616 0.46216,-0.22339 0.80509,-0.13732 0.46114,0.11574 0.70048,0.0126 0.91913,-0.3959 0.37005,-0.69143 0.80618,-0.71593 0.80618,-0.0453 0,0.27892 0.14883,0.57658 0.33073,0.66146 0.26458,0.12347 0.26458,0.18521 0,0.30868 -0.18421,0.086 -0.33073,0.62597 -0.33073,1.21894 0,0.8376 0.0846,1.03212 0.39688,0.91229 0.21828,-0.0838 0.39687,-0.037 0.39687,0.10399 0,0.14095 0.11906,0.25628 0.26459,0.25628 0.14552,0 0.26458,-0.47625 0.26458,-1.05834 0,-0.58208 -0.11906,-1.05833 -0.26458,-1.05833 -0.46677,0 -0.28278,-0.50081 0.29823,-0.81176 0.38899,-0.20818 0.61586,-0.21537 0.73458,-0.0233 0.10982,0.17768 0.31241,0.18899 0.56167,0.0314 0.53575,-0.3388 0.68555,-0.31808 1.16474,0.16111 0.2528,0.2528 0.41578,0.87507 0.41578,1.5875 0,0.64445 0.11906,1.17173 0.26458,1.17173 0.14552,0 0.26458,0.11906 0.26458,0.26458 0,0.15287 -0.83785,0.26458 -1.98437,0.26458 -1.15765,0 -1.98438,-0.11116 -1.98438,-0.26682 0,-0.16447 -0.18954,-0.14846 -0.49412,0.0418 -0.90281,0.56382 -1.35796,0.10826 -1.35796,-1.35916 0,-1.32352 -0.007,-1.33461 -0.72761,-1.16235 -1.07451,0.25683 -1.12447,0.31491 -1.12447,1.30699 0,0.63288 0.12098,0.91043 0.39687,0.91043 0.21828,0 0.39688,0.1125 0.39688,0.25001 0,0.33621 -4.9471,0.25331 -5.28904,-0.0886 z m 1.58487,-1.02745 c 0,-0.52541 -0.0337,-0.53658 -0.42818,-0.14206 -0.2355,0.2355 -0.34634,0.56061 -0.2463,0.72247 0.26619,0.4307 0.67448,0.0794 0.67448,-0.58041 z m 8.99583,-0.35287 c 0,-1.0028 -0.0742,-1.19045 -0.41851,-1.05833 -0.23019,0.0883 -0.46831,0.1606 -0.52917,0.1606 -0.0609,0 -0.11065,0.47625 -0.11065,1.05833 0,0.88195 0.0882,1.05834 0.52917,1.05834 0.45259,0 0.52916,-0.17639 0.52916,-1.21894 z m 2.00195,0.90677 c -0.72871,-1.73309 0.68125,-3.4193 2.08826,-2.49739 0.62523,0.40967 0.7708,0.68376 0.60615,1.14126 -0.0364,0.10108 -0.47893,0.22612 -0.98344,0.27788 -1.12713,0.11563 -1.23296,0.21029 -0.80781,0.72256 0.44405,0.53504 1.05622,0.51048 1.48908,-0.0597 0.4305,-0.56711 0.5006,-0.014 0.0944,0.745 -0.191,0.35688 -0.55521,0.51177 -1.2034,0.51177 -0.79391,0 -0.98111,-0.12273 -1.28326,-0.84133 z m 1.50378,-1.97973 c -0.1819,-0.0734 -0.47956,-0.0734 -0.66146,0 -0.1819,0.0734 -0.0331,0.13345 0.33073,0.13345 0.3638,0 0.51263,-0.0601 0.33073,-0.13345 z m 1.52136,2.55648 c 0,-0.14552 0.11906,-0.26458 0.26458,-0.26458 0.14552,0 0.26458,-0.47625 0.26458,-1.05834 0,-0.58208 -0.11906,-1.05833 -0.26458,-1.05833 -0.14552,0 -0.26458,-0.1229 -0.26458,-0.27311 0,-0.36207 1.16268,-0.79489 1.2825,-0.47742 0.0505,0.1339 0.25889,0.10484 0.46302,-0.0646 0.28337,-0.23518 0.46431,-0.2307 0.7651,0.0189 0.4838,0.40152 0.28078,0.79617 -0.40957,0.79617 -0.42276,0 -0.51355,0.18711 -0.51355,1.05833 0,0.58209 0.11906,1.05834 0.26458,1.05834 0.14552,0 0.26458,0.11906 0.26458,0.26458 0,0.14552 -0.47625,0.26458 -1.05833,0.26458 -0.58208,0 -1.05833,-0.11906 -1.05833,-0.26458 z m 2.91041,-0.39688 c 0,-0.7242 0.45545,-0.89683 0.69807,-0.26458 0.16694,0.43504 1.15402,0.55401 1.15402,0.13909 0,-0.14179 -0.34964,-0.4386 -0.77698,-0.65958 -1.05938,-0.54783 -1.19189,-0.84937 -0.70188,-1.59723 0.31074,-0.47424 0.62754,-0.62489 1.22739,-0.58367 0.73517,0.0505 0.8021,0.1309 0.73762,0.88586 -0.039,0.45666 0.0902,1.02444 0.28715,1.26173 0.56027,0.67509 -0.31421,1.47984 -1.60806,1.47984 -0.90876,0 -1.01733,-0.0706 -1.01733,-0.66146 z m 1.95562,-1.83162 c -0.18065,-0.47075 -0.83127,-0.73821 -1.02667,-0.42204 -0.0805,0.13022 0.0645,0.35953 0.32226,0.50957 0.65299,0.38015 0.87337,0.35277 0.70441,-0.0875 z m -37.02716,-2.02789 c -0.27266,-0.44117 0.34058,-0.94708 0.70557,-0.58208 0.30531,0.30531 0.11423,0.86972 -0.29444,0.86972 -0.12835,0 -0.31335,-0.12944 -0.41113,-0.28764 z"
         id="path7" /><path
         style="fill:#f5e9d0"
         d="m 72.044657,113.56609 c -0.969725,-0.2804 -1.665502,-1.12866 -1.665502,-2.03051 0,-0.34476 -0.11703,-0.54587 -0.264584,-0.45468 -0.145521,0.0899 -0.264583,0.56619 -0.264583,1.05834 0,1.0192 -0.3737,1.38444 -0.937632,0.91642 -0.632776,-0.52516 -0.443416,-1.11185 0.790779,-2.45009 0.717357,-0.77783 0.980931,-1.20894 0.680903,-1.11372 -0.770314,0.24449 -0.913848,-0.37087 -0.251066,-1.07637 0.615106,-0.65475 1.304516,-0.85414 1.304516,-0.37728 0,0.14552 0.119062,0.26458 0.264583,0.26458 0.145521,0 0.264584,-0.18216 0.264584,-0.4048 0,-0.32047 -0.283489,-0.38936 -1.360863,-0.33072 -0.907106,0.0494 -1.399672,-0.0362 -1.477257,-0.25667 -0.06799,-0.19319 0.103833,-0.33073 0.413181,-0.33073 1.052149,0 1.37243,-0.26116 1.023424,-0.83451 -0.270564,-0.44448 -0.224639,-0.59961 0.306347,-1.0348 0.561951,-0.46057 2.153501,-0.73012 2.153501,-0.36473 0,0.081 -0.383722,0.49768 -0.852715,0.92604 -1.399681,1.27841 -0.250094,0.88111 1.312005,-0.45343 1.081005,-0.92353 1.496327,-1.14498 1.657692,-0.88389 0.300718,0.48657 0.103805,0.86635 -0.734165,1.41597 l -0.721359,0.47314 0.971549,-0.13108 c 1.124247,-0.15167 1.555943,0.40556 0.886914,1.14483 -0.22179,0.24507 -0.403255,0.5369 -0.403255,0.64849 0,0.1116 -0.246232,0.54871 -0.547183,0.97136 -0.300951,0.42264 -0.42704,0.76845 -0.280198,0.76845 0.146842,0 0.348426,-0.13178 0.447964,-0.29283 0.126781,-0.20514 0.245779,-0.18799 0.397356,0.0573 0.120806,0.19547 0.09304,0.49871 -0.06287,0.68657 -0.298448,0.35961 -0.194959,0.42386 1.160074,0.72021 0.82059,0.17947 0.758277,0.81904 -0.106541,1.09352 -0.393659,0.12494 -0.721076,-0.0597 -1.272665,-0.71753 -0.408457,-0.48717 -0.784029,-0.82622 -0.834604,-0.75346 -0.05058,0.0728 -0.275115,0.48948 -0.498976,0.92604 -0.483082,0.94208 -1.03477,1.02377 -1.340082,0.19844 -0.179914,-0.48636 -0.127787,-0.59532 0.284805,-0.59532 0.277764,0 0.584298,-0.12826 0.681185,-0.28503 0.122363,-0.19799 -0.216272,-0.22803 -1.108864,-0.0984 -0.706763,0.10265 -1.335875,0.23216 -1.398026,0.28779 -0.06215,0.0556 0.228014,0.4571 0.644813,0.89214 0.612065,0.63886 0.97729,0.79099 1.898941,0.79099 0.964735,0 1.141123,-0.0818 1.141123,-0.52916 0,-0.77481 0.436856,-0.64548 0.738035,0.21848 0.521606,1.49628 -0.67652,2.02444 -3.041282,1.34066 z m 0.588934,-4.03397 c 0.185829,0.0713 0.41563,0.004 0.510668,-0.14994 0.105159,-0.17015 0.01207,-0.21791 -0.237821,-0.12202 -0.597469,0.22927 -0.516502,-0.51496 0.11855,-1.08967 0.652156,-0.5902 0.676318,-0.92717 0.06615,-0.9225 -0.322595,0.002 -0.590551,0.40683 -0.883521,1.33331 -0.231275,0.73137 -0.306064,1.21534 -0.166197,1.07547 0.139867,-0.13987 0.406346,-0.19596 0.592175,-0.12465 z m 1.978897,-1.78974 c 0,-0.14552 -0.119063,-0.191 -0.264584,-0.10106 -0.14552,0.0899 -0.264583,0.28259 -0.264583,0.42811 0,0.14552 0.119063,0.19099 0.264583,0.10106 0.145521,-0.0899 0.264584,-0.28259 0.264584,-0.42811 z m 17.330207,4.52915 c 0.446254,-0.4931 0.447726,-0.52917 0.02161,-0.52917 -0.284668,0 -0.42499,-0.1665 -0.371736,-0.44109 0.130494,-0.67286 0.675031,-0.71694 1.014763,-0.0821 0.245833,0.45934 0.216274,0.66373 -0.155386,1.07441 -0.252433,0.27894 -0.578033,0.50716 -0.723553,0.50716 -0.145521,0 -0.04908,-0.23813 0.214305,-0.52917 z m -29.501144,-0.18645 c 5.7e-5,-0.17531 0.418138,-0.39716 0.929068,-0.49301 1.353988,-0.25401 1.453476,-0.69221 0.108322,-0.47711 -1.322879,0.21154 -1.258177,-0.29 0.08222,-0.63733 0.996473,-0.25822 1.320706,-0.8404 0.366443,-0.65798 -0.59531,0.1138 -0.667032,0.0222 -0.829052,-1.05817 -0.19016,-1.26808 0.322219,-2.72264 0.980738,-2.78414 0.190706,-0.0178 0.925483,-0.15559 1.632839,-0.30617 0.707355,-0.15058 1.391964,-0.20836 1.521354,-0.12839 0.317315,0.19611 0.263601,1.33969 -0.123423,2.62771 -0.256,0.85197 -0.497093,1.11991 -1.236437,1.37413 -0.966157,0.3322 -0.86938,0.43339 0.338342,0.35375 0.587046,-0.0387 0.727604,0.0641 0.727604,0.53198 0,0.47184 -0.120117,0.55699 -0.644354,0.45678 -0.354394,-0.0678 -0.800879,-0.0151 -0.992187,0.11708 -0.225779,0.15595 0.04707,0.20908 0.777563,0.1514 0.909859,-0.0718 1.155184,0.005 1.280929,0.40118 0.08554,0.26952 0.09255,0.55301 0.01558,0.62999 -0.07698,0.077 -1.218987,0.1573 -2.537804,0.1785 -1.715167,0.0276 -2.397819,-0.0522 -2.397745,-0.2802 z m 2.067161,-3.50118 c 0.06615,-0.19844 -0.03307,-0.29766 -0.23151,-0.23151 -0.190996,0.0637 -0.399356,0.27202 -0.463021,0.46302 -0.06615,0.19844 0.03307,0.29766 0.23151,0.23151 0.190996,-0.0637 0.399356,-0.27202 0.463021,-0.46302 z m 1.576476,-0.23151 c 0.0576,-0.17281 -0.08379,-0.31419 -0.314193,-0.31419 -0.230408,0 -0.418923,0.18851 -0.418923,0.41892 0,0.46723 0.569584,0.38587 0.733116,-0.10473 z M 64.78217,106.9718 c 0.07994,-0.54836 0.03796,-0.58359 -0.330729,-0.27761 -0.499277,0.41436 -0.567589,1.17137 -0.09156,1.0146 0.181901,-0.0599 0.37193,-0.39155 0.422286,-0.73699 z m 1.628235,-0.12423 c 0,-0.22048 -0.235185,-0.39687 -0.529167,-0.39687 -0.293981,0 -0.529166,0.17639 -0.529166,0.39687 0,0.22049 0.235185,0.39688 0.529166,0.39688 0.293982,0 0.529167,-0.17639 0.529167,-0.39688 z m -7.408333,4.53002 c 0,-0.20063 0.357187,-0.51273 0.79375,-0.69356 0.569835,-0.23603 0.79375,-0.50775 0.79375,-0.96318 0,-0.54458 -0.09366,-0.6109 -0.661459,-0.46839 -0.485358,0.12182 -0.661458,0.0604 -0.661458,-0.23086 0,-0.21828 0.297656,-0.47158 0.661458,-0.56289 0.476764,-0.11966 0.661459,-0.34414 0.661459,-0.80396 0,-0.58239 -0.06882,-0.61821 -0.790182,-0.41133 -0.451747,0.12956 -0.852374,0.126 -0.935387,-0.008 -0.190194,-0.30774 1.791614,-1.31357 2.588153,-1.31357 0.340495,0 0.75013,-0.13105 0.910299,-0.29122 0.211901,-0.2119 0.339059,-0.14048 0.46687,0.26222 0.233911,0.73699 -0.0065,1.06829 -0.652517,0.89934 -0.40394,-0.10563 -0.528903,-0.008 -0.528903,0.41341 0,0.35864 0.126945,0.50301 0.362733,0.41253 0.388398,-0.14904 0.795642,0.57363 0.548552,0.97343 -0.08182,0.13239 -0.320332,0.24071 -0.530025,0.24071 -0.209693,0 -0.38126,0.18278 -0.38126,0.40618 0,0.32976 0.103833,0.35061 0.551827,0.11086 0.303505,-0.16244 0.618128,-0.22903 0.699162,-0.148 0.237678,0.23768 -0.501682,0.98835 -1.76581,1.79281 -1.272454,0.80977 -2.131012,0.96439 -2.131012,0.38379 z m 20.372916,0.10019 c 0,-0.14552 0.119062,-0.26458 0.264583,-0.26458 0.15287,0 0.264583,-0.83785 0.264583,-1.98438 0,-1.14653 -0.111713,-1.98437 -0.264583,-1.98437 -0.145521,0 -0.264583,-0.11907 -0.264583,-0.26459 0,-0.14552 0.535781,-0.26458 1.190625,-0.26458 0.654843,0 1.190625,0.11906 1.190625,0.26458 0,0.14552 -0.178594,0.26459 -0.396875,0.26459 -0.3175,0 -0.396875,0.39687 -0.396875,1.98437 v 1.98438 h 0.911038 c 0.637407,0 1.032919,-0.17401 1.316831,-0.57935 0.519245,-0.74133 0.776763,-0.49666 0.431915,0.41036 -0.254395,0.66911 -0.348256,0.69815 -2.256361,0.69815 -1.150893,0 -1.990923,-0.11163 -1.990923,-0.26458 z m 5.279966,-0.14639 c -0.472971,-0.56989 -0.427279,-2.17386 0.07627,-2.67741 0.77418,-0.77418 2.581262,-0.34907 2.581262,0.60724 0,0.24619 -0.329149,0.36448 -1.014236,0.36448 -1.212634,0 -1.435891,0.17067 -1.083812,0.82853 0.29746,0.55581 1.461436,0.67176 1.642902,0.16365 0.06497,-0.1819 0.213063,-0.24216 0.329107,-0.13391 0.362063,0.33774 -0.713456,1.25839 -1.470071,1.25839 -0.39619,0 -0.873831,-0.18493 -1.061423,-0.41097 z m 1.533054,-2.30101 c -0.06063,-0.1819 -0.268993,-0.33073 -0.463021,-0.33073 -0.194027,0 -0.402387,0.14883 -0.46302,0.33073 -0.06558,0.19675 0.122002,0.33073 0.46302,0.33073 0.341019,0 0.528602,-0.13398 0.463021,-0.33073 z m 2.091528,2.22813 c -1.394997,-1.54146 0.515315,-3.8762 2.141805,-2.61768 0.695063,0.53782 0.355985,0.98487 -0.747004,0.98487 -0.857953,0 -1.060288,0.0886 -0.992188,0.43466 0.144323,0.7333 0.927324,1.06817 1.565605,0.66955 0.770232,-0.48101 0.927298,-0.20428 0.261782,0.46124 -0.680327,0.68032 -1.648799,0.70958 -2.23,0.0674 z m 1.414201,-2.11788 c 0,-0.3728 -0.298024,-0.54383 -0.687325,-0.39444 -0.552171,0.21189 -0.44851,0.61492 0.158159,0.61492 0.291041,0 0.529166,-0.0992 0.529166,-0.22048 z m 6.614583,2.33715 c 0,-0.14552 0.178594,-0.26458 0.396875,-0.26458 0.3175,0 0.396875,-0.39688 0.396875,-1.98438 0,-1.8182 -0.04501,-1.98437 -0.53747,-1.98437 -0.295609,0 -0.606004,0.17859 -0.689766,0.39687 -0.240181,0.6259 -0.624847,0.46302 -0.624847,-0.26458 0,-0.65368 0.02646,-0.66146 2.248958,-0.66146 2.2225,0 2.248959,0.008 2.248959,0.66146 0,0.7276 -0.384667,0.89048 -0.624847,0.26458 -0.08376,-0.21828 -0.394157,-0.39687 -0.689766,-0.39687 -0.492464,0 -0.537471,0.16617 -0.537471,1.98437 0,1.5875 0.07937,1.98438 0.396875,1.98438 0.218281,0 0.396875,0.11906 0.396875,0.26458 0,0.14552 -0.535781,0.26458 -1.190625,0.26458 -0.654843,0 -1.190625,-0.11906 -1.190625,-0.26458 z m 3.447998,-0.46302 c 0.0077,-0.66145 0.04037,-0.68551 0.359902,-0.26458 0.37105,0.48879 1.21918,0.63724 1.21918,0.21339 0,-0.13729 -0.35718,-0.46062 -0.79375,-0.7185 -0.912152,-0.53883 -1.066683,-1.51302 -0.30469,-1.92083 0.65621,-0.35119 1.75098,-0.002 1.79665,0.57385 0.0459,0.57888 -0.12669,0.58337 -0.74977,0.0195 -0.33932,-0.30707 -0.57477,-0.35887 -0.76528,-0.16836 -0.19051,0.19051 0.0149,0.44634 0.66771,0.83149 0.66893,0.39468 0.94288,0.74287 0.94288,1.19839 0,0.70482 -0.43175,0.96327 -1.60914,0.96327 -0.667949,0 -0.770971,-0.0982 -0.763692,-0.7276 z m 3.195162,0.38576 c -0.51255,-0.51255 -0.31979,-0.98321 0.63288,-1.5453 0.94183,-0.55569 1.12583,-0.86857 0.67474,-1.14736 -0.13822,-0.0854 -0.38054,0.0861 -0.53848,0.38126 -0.36903,0.68953 -0.79772,0.69 -0.79772,8.6e-4 0,-0.68718 1.14515,-1.16554 1.86629,-0.7796 0.57149,0.30585 0.9088,1.32163 0.70177,2.11331 -0.0927,0.35447 -0.006,0.52492 0.26724,0.52492 0.30831,0 0.33445,0.0844 0.10993,0.35494 -0.35875,0.43227 -2.50983,0.50379 -2.91665,0.097 z m 1.45989,-0.57547 c 0.2652,-0.69109 -0.001,-0.98096 -0.53975,-0.58719 -0.27541,0.20138 -0.41572,0.5029 -0.31207,0.67061 0.2606,0.42166 0.67353,0.38121 0.85182,-0.0834 z m 1.95112,0.65273 c 0,-0.14552 0.11906,-0.26458 0.26458,-0.26458 0.34765,0 0.34375,-2.03651 -0.004,-2.25163 -0.39313,-0.24297 -0.0465,-0.65879 0.5491,-0.65879 0.43874,0 0.51355,0.18958 0.51355,1.30128 0,0.7157 0.0723,1.48961 0.1606,1.71979 0.12521,0.32629 -0.0206,0.41851 -0.66146,0.41851 -0.45213,0 -0.82205,-0.11906 -0.82205,-0.26458 z m 4.55083,-0.0529 c -0.52055,-0.52055 -0.36441,-1.18348 0.43769,-1.85841 0.59736,-0.50265 0.7309,-0.80102 0.63893,-1.42763 -0.14264,-0.9719 0.40183,-1.49494 1.43289,-1.37651 0.58948,0.0677 0.77177,0.24872 0.88522,0.87901 0.12041,0.66903 0.25572,0.78592 0.86115,0.74394 0.39506,-0.0274 0.71829,0.0619 0.71829,0.19844 0,0.13653 -0.10731,0.24825 -0.23845,0.24825 -0.13115,0 -0.48236,0.41338 -0.78046,0.91864 -0.59719,1.01216 -0.40118,1.34618 0.63707,1.0856 0.69694,-0.17492 0.83874,0.0789 0.32892,0.58867 -0.39643,0.39644 -1.33431,0.41195 -1.71784,0.0284 -0.20908,-0.20907 -0.43863,-0.20907 -0.82928,0 -0.71574,0.38305 -1.97777,0.36795 -2.37413,-0.0284 z m 2.19142,-0.46877 c 0.0874,-0.14141 -0.0397,-0.56021 -0.28243,-0.93067 -0.34604,-0.52813 -0.5198,-0.60844 -0.80474,-0.37195 -0.45395,0.37674 -0.47354,1.20661 -0.0327,1.3845 0.54554,0.22013 0.95156,0.19044 1.11986,-0.0819 z m 1.30508,-2.123 c -0.21568,-0.48336 -0.30575,-0.50657 -0.73833,-0.19026 -0.43075,0.31497 -0.4478,0.43211 -0.1357,0.93187 0.31085,0.49776 0.40625,0.52234 0.73833,0.19026 0.27195,-0.27195 0.31088,-0.53929 0.1357,-0.93187 z m -0.639,-1.22417 c 0,-0.20046 -0.23813,-0.36447 -0.52917,-0.36447 -0.51477,0 -0.74793,0.75137 -0.35507,1.14423 0.23846,0.23846 0.88424,-0.33102 0.88424,-0.77976 z m 5.09323,3.76513 c 0.36088,-0.27394 0.46302,-0.74719 0.46302,-2.14523 0,-1.39804 -0.10214,-1.87128 -0.46302,-2.14523 -0.40218,-0.3053 -0.26154,-0.35259 1.07036,-0.3599 1.28813,-0.007 1.63889,0.0971 2.19307,0.65128 0.56958,0.56958 0.61674,0.74124 0.34524,1.25677 -0.40767,0.77408 -0.74391,0.98495 -1.57847,0.9899 -0.6064,0.004 -0.6689,0.0918 -0.56528,0.79781 0.0641,0.43656 0.22204,0.79375 0.35105,0.79375 0.129,0 0.23455,0.11906 0.23455,0.26458 0,0.14552 -0.56555,0.2608 -1.25677,0.25617 -1.10181,-0.007 -1.19968,-0.0518 -0.79375,-0.3599 z m 2.5441,-2.73371 c 0.16196,-0.28939 0.16336,-0.62798 0.004,-0.92604 -0.41689,-0.77897 -0.95944,-0.54912 -1.0768,0.45619 -0.0872,0.74665 -0.0184,0.92604 0.35478,0.92604 0.25459,0 0.57777,-0.20529 0.71818,-0.45619 z m 1.8955,2.71459 c -0.42494,-0.51203 -0.0488,-1.16641 0.97129,-1.68974 0.78665,-0.40358 0.85878,-0.51564 0.51539,-0.80062 -0.32988,-0.27378 -0.45077,-0.23515 -0.69558,0.22229 -0.16297,0.30451 -0.4094,0.48376 -0.54762,0.39834 -0.46543,-0.28765 -0.25625,-0.83065 0.44265,-1.14909 1.08758,-0.49553 1.95187,0.19536 1.95187,1.56027 0,0.60162 0.12718,1.05223 0.29698,1.05223 0.21839,0 0.21903,0.0939 0.002,0.35494 -0.37977,0.4576 -2.56848,0.49588 -2.93739,0.0514 z m 1.61202,-0.88296 c 0.24603,-0.66509 0.02,-0.73947 -0.68366,-0.22495 -0.28212,0.20628 -0.4048,0.49114 -0.29091,0.67542 0.27487,0.44475 0.71942,0.23927 0.97457,-0.45047 z m 1.76682,0.95289 c 0.43069,-0.43069 0.4197,-2.59043 -0.0132,-2.60096 -0.20557,-0.005 -0.17251,-0.10059 0.0873,-0.25258 0.22995,-0.13449 0.92615,-0.21613 1.54713,-0.18142 0.90549,0.0506 1.22316,-0.0565 1.60437,-0.54117 0.58636,-0.74543 0.88732,-0.77949 0.66376,-0.0751 -0.11919,0.37553 -0.0475,0.52917 0.24675,0.52917 0.22809,0 0.41471,0.11906 0.41471,0.26458 0,0.14552 -0.18544,0.26459 -0.41209,0.26459 -0.31985,0 -0.39388,0.24539 -0.33073,1.09637 0.0726,0.97769 0.16012,1.10462 0.80896,1.17257 0.69577,0.0729 0.72761,0.0249 0.72761,-1.09637 0,-0.64889 -0.12514,-1.17257 -0.2802,-1.17257 -0.15411,0 -0.21368,-0.10764 -0.13237,-0.23919 0.0813,-0.13155 0.74263,-0.24379 1.46962,-0.24942 1.52034,-0.0118 1.71007,0.20011 1.91824,2.14225 0.13284,1.23931 0.12413,1.25677 -0.62654,1.25677 -0.41869,0 -0.76125,-0.11906 -0.76125,-0.26458 0,-0.14552 0.0893,-0.26449 0.19844,-0.26438 0.10914,1.1e-4 0.18484,-0.50591 0.16822,-1.12448 -0.0246,-0.91491 -0.12327,-1.12468 -0.52917,-1.12468 -0.39785,0 -0.51543,0.22785 -0.58031,1.12448 -0.0481,0.66531 0.0329,1.12448 0.19844,1.12448 0.15389,0 0.2798,0.11906 0.2798,0.26458 0,0.14552 -0.41672,0.26458 -0.92605,0.26458 -0.50932,0 -0.92604,-0.12007 -0.92604,-0.26682 0,-0.16193 -0.19958,-0.14218 -0.50768,0.0502 -0.785,0.49025 -1.3444,-0.13591 -1.3444,-1.50482 0,-1.10922 -0.0139,-1.1264 -0.8599,-1.06119 -0.80567,0.0621 -0.86502,0.13523 -0.94125,1.15986 -0.0479,0.6436 0.0338,1.09359 0.19844,1.09359 0.15388,0 0.27979,0.11906 0.27979,0.26458 0,0.14552 -0.44053,0.26458 -0.97896,0.26458 -0.76141,0 -0.9084,-0.0706 -0.66145,-0.3175 z m 9.48663,-0.16635 c -1.395,-1.54146 0.51531,-3.8762 2.1418,-2.61768 0.68992,0.53384 0.35671,0.98487 -0.7276,0.98487 -0.87855,0 -1.05833,0.089 -1.05833,0.52412 0,0.64897 1.15309,1.00452 1.72322,0.53136 0.53467,-0.44374 0.5156,0.10748 -0.0223,0.64541 -0.55757,0.55756 -1.51937,0.52573 -2.05676,-0.0681 z m 1.4142,-2.11788 c 0,-0.3728 -0.29803,-0.54383 -0.68733,-0.39444 -0.55217,0.21189 -0.44851,0.61492 0.15816,0.61492 0.29104,0 0.52917,-0.0992 0.52917,-0.22048 z m 1.53458,2.28423 c 0.41416,-0.41416 0.42157,-2.59291 0.009,-2.59291 -0.16977,0 -0.22751,-0.0812 -0.12831,-0.18037 0.0992,-0.0992 0.71435,-0.21182 1.36701,-0.25027 0.92638,-0.0546 1.18665,0.0202 1.18665,0.34097 0,0.2751 -0.146,0.35484 -0.44187,0.2413 -0.24359,-0.0935 -0.53859,-0.0171 -0.65741,0.17013 -0.30658,0.48318 -0.27524,2.05949 0.041,2.05949 0.14552,0 0.26458,0.11906 0.26458,0.26458 0,0.14552 -0.44053,0.26458 -0.97896,0.26458 -0.76141,0 -0.9084,-0.0706 -0.66146,-0.3175 z m 2.89858,-0.34396 c -0.15316,-0.80117 -0.0882,-0.81437 0.60357,-0.12264 0.29635,0.29635 0.65354,0.46792 0.79375,0.38126 0.45325,-0.28012 0.27272,-0.63271 -0.53881,-1.05237 -1.40986,-0.72906 -0.86823,-2.34154 0.68668,-2.04431 0.40367,0.0772 0.63623,0.30378 0.63623,0.61995 0,0.61453 -0.23747,0.63654 -0.6583,0.061 -0.17586,-0.24052 -0.45688,-0.35255 -0.62448,-0.24897 -0.50276,0.31072 -0.3498,0.60339 0.49914,0.95503 1.6617,0.6883 1.34948,2.11248 -0.46312,2.11248 -0.65199,0 -0.83266,-0.12786 -0.93466,-0.66146 z m -35.27137,-3.85951 c -0.27266,-0.44117 0.34058,-0.94708 0.70557,-0.58208 0.30531,0.30531 0.11423,0.86972 -0.29444,0.86972 -0.12835,0 -0.31335,-0.12944 -0.41113,-0.28764 z"
         id="path6" /><path
         style="fill:#efdaad"
         d="m 72.443541,113.60792 c -1.285683,-0.25002 -1.749667,-0.66779 -1.954539,-1.75985 -0.231837,-1.2358 -0.591658,-1.12917 -0.689947,0.20446 -0.09591,1.30129 -0.605335,1.60397 -1.051497,0.62475 -0.278505,-0.61125 -0.239464,-0.77342 0.326932,-1.35798 2.153688,-2.22276 2.031394,-2.05412 1.371074,-1.89062 -0.907191,0.22463 -1.031411,-0.34446 -0.226345,-1.03694 0.821291,-0.70645 1.272021,-0.80148 1.049366,-0.22125 -0.234098,0.61005 0.317626,0.47044 0.784212,-0.19844 0.550122,-0.78863 0.583266,-0.0767 0.04452,0.95629 -0.492364,0.94406 -0.497995,1.11201 -0.0241,0.71871 0.285056,-0.23658 0.40044,-0.22875 0.497443,0.0338 0.09562,0.25876 0.244162,0.22932 0.611593,-0.12125 0.469214,-0.44768 0.465881,-0.46302 -0.100569,-0.46302 -0.762247,0 -0.73877,-0.20832 0.125097,-1.11 l 0.710959,-0.74208 h -1.222902 c -0.672596,0 -1.544035,0.12209 -1.936531,0.27132 -0.754255,0.28676 -1.702069,0.12575 -1.702069,-0.28915 0,-0.13572 0.254077,-0.24676 0.564616,-0.24676 1.222373,0 2.775735,-0.69762 3.914,-1.75779 0.656648,-0.6116 1.286807,-1.05458 1.400353,-0.9844 0.453284,0.28014 0.161358,0.92669 -0.653448,1.44724 l -0.859896,0.54935 1.106746,-0.12881 c 1.471864,-0.17131 1.558349,0.18571 0.471741,1.94736 -0.915153,1.48368 -0.988226,1.91398 -0.217341,1.27986 0.407984,-0.3356 0.433284,-0.29464 0.28394,0.45972 -0.158499,0.80061 -0.128078,0.83389 0.91477,1.00065 1.053389,0.16844 1.067655,0.18472 0.607488,0.6932 -0.646054,0.71388 -0.983441,0.65598 -1.681812,-0.28861 -0.677633,-0.91655 -1.136001,-0.90468 -1.357871,0.0352 -0.174614,0.73968 -1.129914,0.89542 -1.262711,0.20586 -0.05331,-0.27682 0.07986,-0.42171 0.364775,-0.39688 0.246806,0.0215 0.504322,-0.11896 0.572258,-0.31216 0.09725,-0.27655 -0.149961,-0.31155 -1.162149,-0.16454 -0.707117,0.10271 -1.325917,0.22166 -1.375111,0.26433 -0.0492,0.0427 0.181555,0.44414 0.512777,0.89214 0.527433,0.71339 0.760335,0.81455 1.875382,0.81455 1.096771,0 1.273159,-0.0733 1.273159,-0.52916 0,-0.63084 0.406292,-0.70184 0.633151,-0.11066 0.292358,0.76188 0.166805,1.63916 -0.257915,1.80214 -0.489128,0.1877 -0.941341,0.16974 -2.279599,-0.0905 z m 2.11603,-5.62264 c 0.174625,-0.17463 0.3175,-0.41275 0.3175,-0.52917 0,-0.38983 -0.398502,-0.21707 -0.732347,0.3175 -0.361805,0.57934 -0.091,0.71752 0.414847,0.21167 z m 17.383124,4.28625 c 0.430663,-0.47588 0.434792,-0.52917 0.04101,-0.52917 -0.240836,0 -0.437883,-0.17859 -0.437883,-0.39687 0,-0.49911 0.952765,-0.52445 1.142358,-0.0304 0.1627,0.42399 -0.504581,1.48559 -0.933784,1.48559 -0.159823,0 -0.07509,-0.23813 0.188301,-0.52917 z m -29.501126,-0.19531 c 4.7e-5,-0.18018 0.476336,-0.40376 1.058419,-0.49684 0.582084,-0.0931 1.058334,-0.28633 1.058334,-0.42945 0,-0.15408 -0.377676,-0.18936 -0.926042,-0.0865 -1.155572,0.21678 -1.224929,-0.21715 -0.08687,-0.54354 1.021257,-0.29289 1.408616,-1.00361 0.410451,-0.75309 -0.607493,0.15247 -0.667128,0.0784 -0.834346,-1.03671 -0.283599,-1.89118 0.52445,-2.79683 2.809489,-3.14884 1.37905,-0.21244 1.608318,0.16515 1.233502,2.0315 -0.292991,1.45891 -0.824395,2.11897 -1.570201,1.95035 -0.169606,-0.0383 -0.363573,0.081 -0.431037,0.2652 -0.08632,0.23568 0.13908,0.31408 0.760677,0.26458 0.640061,-0.051 0.88334,0.039 0.88334,0.32655 0,0.2884 -0.235013,0.37417 -0.859896,0.3138 -0.483393,-0.0467 -0.859896,0.0402 -0.859896,0.19844 0,0.25419 0.934488,0.41182 1.785938,0.30126 0.310545,-0.0403 0.371038,0.0714 0.436562,0.80609 0.01761,0.1975 -0.791727,0.30806 -2.421023,0.33073 -1.787513,0.0249 -2.447459,-0.0543 -2.447396,-0.29355 z m 2.116753,-3.39861 c 0,-0.23041 -0.141387,-0.3718 -0.314193,-0.3142 -0.490597,0.16354 -0.571966,0.73312 -0.104731,0.73312 0.230408,0 0.418924,-0.18852 0.418924,-0.41892 z m 1.526866,-0.32522 c 0.0576,-0.17281 -0.08379,-0.31419 -0.314193,-0.31419 -0.230408,0 -0.418923,0.18851 -0.418923,0.41892 0,0.46723 0.569584,0.38587 0.733116,-0.10473 z m -1.306179,-1.33845 c 0.101737,-0.71584 -0.322653,-0.56773 -0.770386,0.26887 -0.244651,0.45713 -0.215019,0.52415 0.197015,0.44558 0.271241,-0.0517 0.523932,-0.36659 0.573371,-0.71445 z m 1.631396,-0.19723 c 0,-0.20131 -0.238125,-0.36601 -0.529167,-0.36601 -0.344115,0 -0.529166,0.17639 -0.529166,0.50439 0,0.37414 0.136659,0.46866 0.529166,0.36602 0.291042,-0.0761 0.529167,-0.30309 0.529167,-0.5044 z m -7.269078,4.67234 c -0.08611,-0.13933 0.204523,-0.44004 0.645844,-0.66826 0.574182,-0.29692 0.802401,-0.6062 0.802401,-1.08743 0,-0.54224 -0.09818,-0.64133 -0.5069,-0.51161 -0.785076,0.24918 -0.930757,-0.34887 -0.169478,-0.69573 0.437138,-0.19917 0.676378,-0.52124 0.676378,-0.91053 0,-0.54354 -0.09688,-0.58925 -0.992188,-0.46807 -0.94385,0.12774 -0.966655,0.11367 -0.4681,-0.28889 0.288247,-0.23275 1.002622,-0.54994 1.587499,-0.70486 0.584878,-0.15492 1.261185,-0.38399 1.502905,-0.50904 0.305458,-0.15802 0.487014,-0.10352 0.595313,0.1787 0.271336,0.70709 0.172936,0.89195 -0.474779,0.89195 -0.408084,0 -0.679429,0.18672 -0.76898,0.52917 -0.102643,0.3925 -0.0081,0.52916 0.366016,0.52916 0.336545,0 0.504397,0.18552 0.504397,0.55748 0,0.38683 -0.121484,0.51085 -0.396875,0.40518 -0.272693,-0.10465 -0.396875,0.0163 -0.396875,0.38639 0,0.42832 0.114838,0.50225 0.56047,0.36081 0.943919,-0.29959 0.451711,0.42755 -0.93742,1.38484 -1.306245,0.90018 -1.8576,1.06089 -2.129628,0.62074 z m 20.56439,-0.115 c 0.631464,-0.47935 0.689932,-4.1296 0.06615,-4.1296 -0.218282,0 -0.396875,-0.11907 -0.396875,-0.26459 0,-0.14552 0.535781,-0.26458 1.190625,-0.26458 0.654843,0 1.190625,0.11906 1.190625,0.26458 0,0.14552 -0.178594,0.26459 -0.396875,0.26459 -0.3175,0 -0.396875,0.39687 -0.396875,1.98437 v 1.98438 h 0.885034 c 0.549918,0 1.066921,-0.20099 1.365392,-0.53079 0.614076,-0.67855 0.767714,-0.52429 0.362843,0.3643 -0.302283,0.66344 -0.409938,0.69526 -2.32501,0.68724 -1.726677,-0.007 -1.943171,-0.0577 -1.54503,-0.3599 z m 5.112128,-0.0475 c -0.53588,-0.53588 -0.53588,-2.07216 0,-2.60804 0.533195,-0.53319 1.545673,-0.53319 2.078869,0 0.682323,0.68233 0.483274,0.90715 -0.803159,0.90715 -1.002805,0 -1.190457,0.0742 -1.058333,0.41851 0.08833,0.23018 0.160599,0.46412 0.160599,0.51986 0,0.0557 0.229856,0.22436 0.510792,0.37471 0.387502,0.20738 0.614063,0.1701 0.938641,-0.15448 0.605227,-0.60523 0.853316,-0.21527 0.271826,0.42727 -0.575336,0.63574 -1.526403,0.68785 -2.099235,0.11502 z m 1.436309,-2.21445 c 0,-0.49368 -0.588961,-0.59838 -1.008128,-0.17921 -0.39452,0.39452 -0.371723,0.42818 0.289973,0.42818 0.394985,0 0.718155,-0.11203 0.718155,-0.24897 z m 2.025382,2.14637 c -0.581201,-0.64222 -0.556917,-1.97224 0.04597,-2.51785 0.855845,-0.77453 2.426563,-0.42429 2.426563,0.54108 0,0.2309 -0.388561,0.34396 -1.182099,0.34396 -1.114295,0 -1.169554,0.0341 -0.963389,0.59531 0.249536,0.67922 1.196343,0.92136 1.763176,0.45093 0.528015,-0.43821 0.49939,0.1218 -0.03346,0.65465 -0.557566,0.55756 -1.519371,0.52573 -2.056761,-0.0681 z m 1.678785,-2.13367 c 0,-0.30858 -0.772793,-0.60166 -1.08221,-0.41043 -0.466326,0.28821 -0.233084,0.6467 0.420751,0.6467 0.363802,0 0.661459,-0.10632 0.661459,-0.23627 z m 6.680728,2.24921 c 0.667798,-0.50693 0.686074,-4.1296 0.02083,-4.1296 -0.243203,0 -0.67206,0.20803 -0.953016,0.46229 -0.492573,0.44577 -0.507501,0.43868 -0.417709,-0.19844 0.09034,-0.64097 0.155629,-0.66073 2.183422,-0.66073 1.964412,0 2.095772,0.0358 2.181152,0.59531 0.101642,0.66603 -0.294415,0.81413 -0.530675,0.19844 -0.08376,-0.21828 -0.394157,-0.39687 -0.689766,-0.39687 -0.490053,0 -0.537471,0.16666 -0.537471,1.88906 0,1.48882 0.0981,1.96353 0.463021,2.24054 0.404589,0.30713 0.296072,0.35148 -0.859896,0.35148 -1.155968,0 -1.264484,-0.0444 -0.859896,-0.35148 z m 3.108855,-0.32246 v -0.69077 l 0.487956,0.6026 c 0.35007,0.43232 0.63044,0.54681 0.99219,0.40517 0.45057,-0.17642 0.39161,-0.29289 -0.5541,-1.09458 -0.886442,-0.75144 -1.01103,-0.97364 -0.767072,-1.36805 0.160192,-0.25899 0.666212,-0.5082 1.124482,-0.5538 0.72014,-0.0717 0.83212,1.5e-4 0.82516,0.52917 -0.007,0.54312 -0.0384,0.55991 -0.27773,0.14905 -0.29627,-0.50867 -0.91294,-0.61343 -1.1693,-0.19865 -0.0899,0.14541 0.2603,0.51436 0.77814,0.81989 1.46899,0.86673 1.13728,2.09074 -0.5666,2.09074 -0.764826,0 -0.873126,-0.0857 -0.873126,-0.69077 z m 3.177706,0.29716 c -0.43727,-0.52687 0.0692,-1.33954 1.04738,-1.68053 0.56021,-0.19529 0.74979,-0.39987 0.63873,-0.68929 -0.23236,-0.60552 -0.81003,-0.50074 -0.98783,0.17918 -0.11946,0.45682 -0.22589,0.51935 -0.46944,0.2758 -0.51061,-0.51062 0.22764,-1.17349 1.20113,-1.0785 0.78696,0.0768 0.81916,0.12981 0.89649,1.47564 0.0525,0.91346 0.17867,1.33514 0.36506,1.21995 0.16592,-0.10255 0.2337,-0.0226 0.16234,0.19151 -0.16915,0.50754 -2.45033,0.59246 -2.85386,0.10624 z m 1.61714,-0.87678 c 0.24604,-0.66509 0.02,-0.73947 -0.68366,-0.22495 -0.28211,0.20628 -0.4048,0.49114 -0.2909,0.67542 0.27487,0.44475 0.71941,0.23927 0.97456,-0.45047 z m 2.0314,0.95289 c 0.43093,-0.43093 0.41993,-2.59166 -0.0132,-2.59697 -0.45007,-0.006 0.34626,-0.51566 0.81337,-0.52106 0.25358,-0.003 0.33104,0.35963 0.28046,1.31269 -0.0384,0.72421 0.0123,1.3989 0.11267,1.49931 0.39217,0.39216 0.14574,0.62353 -0.6641,0.62353 -0.65852,0 -0.77611,-0.0706 -0.52917,-0.3175 z m 4.43744,-0.0983 c -0.57785,-0.57786 -0.52671,-0.83691 0.33542,-1.69903 0.5845,-0.58451 0.72485,-0.93058 0.63253,-1.55964 -0.098,-0.66795 -0.002,-0.86179 0.55485,-1.11533 1.34825,-0.6143 2.23172,0.42305 1.25014,1.46789 -0.50813,0.54088 -0.53802,0.691 -0.23441,1.17716 0.19139,0.30647 0.43039,0.55722 0.5311,0.55722 0.27252,0 0.54284,-1.0126 0.35252,-1.32055 -0.098,-0.15863 0.18395,-0.26695 0.69495,-0.26695 0.73346,0 0.79874,0.0487 0.44388,0.33073 -0.22883,0.1819 -0.61688,0.64963 -0.86233,1.03939 -0.42282,0.67139 -0.42063,0.72238 0.0416,0.96975 0.31502,0.1686 0.64948,0.17065 0.94405,0.006 0.52221,-0.29224 0.61187,0.0386 0.13869,0.51183 -0.41074,0.41075 -1.33901,0.40725 -1.75285,-0.007 -0.25575,-0.25575 -0.43356,-0.25575 -0.84308,0 -0.71635,0.44736 -1.72972,0.40565 -2.22705,-0.0917 z m 2.09315,-0.3705 c 0.21542,-0.34856 -0.65632,-1.63922 -1.0244,-1.51668 -0.3532,0.11759 -0.52725,0.86421 -0.32458,1.39237 0.16513,0.4303 1.10627,0.51703 1.34898,0.12431 z m 0.66608,-3.34717 c 0,-0.20046 -0.23813,-0.36447 -0.52917,-0.36447 -0.51477,0 -0.74793,0.75137 -0.35507,1.14423 0.23846,0.23846 0.88424,-0.33102 0.88424,-0.77976 z m 5.02708,3.86886 c 0,-0.14552 0.11907,-0.26458 0.26459,-0.26458 0.15287,0 0.26458,-0.83785 0.26458,-1.98438 0,-1.14653 -0.11171,-1.98437 -0.26458,-1.98437 -0.14552,0 -0.26459,-0.11907 -0.26459,-0.26459 0,-0.37635 2.12174,-0.32082 2.91042,0.0762 1.39391,0.70166 0.67793,2.56966 -0.98491,2.56966 -0.47488,0 -0.60259,0.14802 -0.60259,0.69843 0,0.38414 0.20836,0.85661 0.46302,1.04992 0.40837,0.31 0.33029,0.35248 -0.66146,0.3599 -0.61846,0.005 -1.12448,-0.11065 -1.12448,-0.25617 z m 2.6318,-2.76121 c 0.42648,-0.51388 -0.0871,-1.47212 -0.78902,-1.47212 -0.41774,0 -0.51986,0.18191 -0.51986,0.92604 0,0.72952 0.10542,0.92604 0.49677,0.92604 0.27322,0 0.63867,-0.17098 0.81211,-0.37996 z m 1.93893,2.56931 c -0.20337,-0.52997 0.2113,-1.17987 1.01149,-1.58527 0.72745,-0.36855 0.83994,-0.95434 0.20668,-1.07629 -0.26357,-0.0508 -0.48963,0.15 -0.58665,0.52098 -0.12205,0.46672 -0.22924,0.53216 -0.47278,0.28861 -0.51062,-0.51062 0.22763,-1.17349 1.20112,-1.0785 0.78521,0.0766 0.81931,0.13204 0.89579,1.45529 0.0675,1.16747 0.14756,1.35015 0.52917,1.20724 0.3756,-0.14067 0.39559,-0.10179 0.12134,0.23607 -0.45657,0.56247 -2.69314,0.587 -2.90616,0.0319 z m 1.36076,-0.23328 c 0.42347,-0.1625 0.59938,-1.16232 0.2045,-1.16232 -0.46127,0 -1.17942,0.73018 -1.00142,1.01819 0.21829,0.35321 0.24124,0.35736 0.79692,0.14413 z m 2.21545,-0.76545 c 0.0924,-1.1139 0.0354,-1.45709 -0.24282,-1.46325 -0.28068,-0.006 -0.27176,-0.0618 0.0391,-0.24394 0.57445,-0.33655 2.17941,-0.20685 2.31006,0.18668 0.0708,0.21334 -0.11016,0.30768 -0.50756,0.26458 -0.53904,-0.0585 -0.62823,0.0616 -0.70086,0.94367 -0.0458,0.55586 0.0581,1.18094 0.23083,1.38906 0.2603,0.31364 0.18024,0.37841 -0.46771,0.37841 h -0.78177 z m 3.03142,1.12448 c -0.14493,-0.1819 -0.31881,-0.93688 -0.38639,-1.67773 -0.0951,-1.04263 -0.013,-1.4827 0.36341,-1.94754 0.48151,-0.59464 0.48629,-0.59505 0.48629,-0.0421 0,0.32004 0.16944,0.55848 0.39687,0.55848 0.21829,0 0.39688,0.11906 0.39688,0.26458 0,0.14552 -0.17859,0.26459 -0.39688,0.26459 -0.29484,0 -0.39687,0.31066 -0.39687,1.20845 0,1.13156 0.0377,1.19647 0.59324,1.02017 0.52735,-0.16738 0.55314,-0.13997 0.23218,0.24675 -0.43039,0.5186 -0.92663,0.55876 -1.28873,0.10431 z m 1.73331,0.0132 c 0.41416,-0.41416 0.42157,-2.59291 0.009,-2.59291 -0.16978,0 -0.22792,-0.0808 -0.12921,-0.17948 0.0987,-0.0987 0.77705,-0.21593 1.50741,-0.26049 1.49093,-0.091 1.63209,0.0735 1.90996,2.2259 0.14294,1.10726 0.1329,1.12448 -0.6558,1.12448 -0.66461,0 -0.74751,-0.0644 -0.48692,-0.37841 0.17273,-0.20812 0.2766,-0.8332 0.23083,-1.38906 -0.0664,-0.80652 -0.1901,-1.01065 -0.61238,-1.01065 -0.42229,0 -0.54598,0.20413 -0.61239,1.01065 -0.0458,0.55586 0.0581,1.18094 0.23084,1.38906 0.26303,0.31694 0.14974,0.37841 -0.69731,0.37841 -0.78661,0 -0.9408,-0.0706 -0.69385,-0.3175 z m 4.45955,-0.16635 c -0.5812,-0.64222 -0.55692,-1.97224 0.046,-2.51785 0.85584,-0.77453 2.42656,-0.42429 2.42656,0.54108 0,0.23126 -0.39009,0.34396 -1.19062,0.34396 -1.28502,0 -1.32969,0.0395 -0.91674,0.81114 0.30616,0.57206 1.30379,0.68034 1.78986,0.19427 0.19463,-0.19462 0.3175,-0.21049 0.3175,-0.041 0,0.44484 -0.92162,1.15225 -1.50118,1.15225 -0.29341,0 -0.73052,-0.21773 -0.97135,-0.48385 z m 1.36399,-2.32558 c -0.2355,-0.2355 -0.55867,-0.34753 -0.71815,-0.24897 -0.52538,0.3247 -0.30252,0.67715 0.42818,0.67715 0.6617,0 0.68449,-0.0337 0.28997,-0.42818 z m 1.81431,1.15588 0.0443,-1.65374 1.08017,-0.0427 c 0.76962,-0.0304 1.08017,0.0638 1.08017,0.32761 0,0.22629 -0.23151,0.34578 -0.59531,0.30726 -0.52318,-0.0554 -0.60518,0.0732 -0.67668,1.06146 -0.0481,0.66531 0.0329,1.12448 0.19844,1.12448 0.15389,0 0.2798,0.11906 0.2798,0.26458 0,0.14552 -0.32742,0.26463 -0.72761,0.26468 -0.72087,1e-4 -0.72719,-0.0152 -0.68329,-1.65365 z m 2.73382,0.96278 v -0.69077 l 0.48631,0.60058 c 0.27552,0.34026 0.61958,0.51822 0.79375,0.41057 0.49877,-0.30825 0.35843,-0.6279 -0.49773,-1.13365 -0.60948,-0.36003 -0.78632,-0.63696 -0.72761,-1.13944 0.0653,-0.55914 0.23401,-0.67676 1.06975,-0.74593 0.87266,-0.0722 0.99219,-0.0115 0.99219,0.50403 0,0.56303 -0.0202,0.56786 -0.51249,0.12235 -0.28187,-0.25509 -0.63906,-0.38558 -0.79375,-0.28998 -0.47673,0.29464 -0.31537,0.59344 0.50369,0.9327 1.53704,0.63666 1.24282,2.12031 -0.42047,2.12031 -0.78694,0 -0.89364,-0.0825 -0.89364,-0.69077 z m -35.11169,-3.759 c -0.20308,-0.12551 -0.22964,-0.33178 -0.075,-0.58208 0.19082,-0.30875 0.30648,-0.3208 0.56812,-0.0592 0.39459,0.39458 -0.02,0.93367 -0.49317,0.64124 z m -36.507707,-1.27262 c -0.217235,-0.56611 0.874114,-1.4077 1.835541,-1.41547 0.929273,-0.008 0.914591,0.11774 -0.125111,1.06736 -0.960357,0.87715 -1.467787,0.98042 -1.71043,0.34811 z"
         id="path5" /><path
         style="fill:#eacd8f"
         d="m 71.512048,113.27528 c -0.548779,-0.26495 -1.342927,-1.94024 -1.055835,-2.22734 0.07139,-0.0714 0.389019,0.23425 0.705844,0.67919 0.507244,0.71236 0.729709,0.80898 1.862545,0.80898 1.128111,0 1.298817,-0.0733 1.386555,-0.59531 0.0977,-0.58128 0.108304,-0.57856 0.450059,0.11542 0.571934,1.1614 0.231338,1.54077 -1.364903,1.52032 -0.768552,-0.01 -1.661471,-0.14542 -1.984265,-0.30126 z m -2.76338,-0.59556 c -0.268763,-0.58987 -0.180048,-0.7677 0.956971,-1.91823 1.110412,-1.12361 1.190026,-1.27772 0.698772,-1.35263 -0.749602,-0.11432 -0.699221,-0.68576 0.107035,-1.21404 0.579093,-0.37944 0.661459,-0.38323 0.661459,-0.0304 0,0.58251 0.400443,0.49498 0.879892,-0.19234 0.62529,-0.89639 0.553711,0.0136 -0.08324,1.05833 -0.288359,0.47295 -0.414003,0.8599 -0.27921,0.8599 0.134794,0 0.326521,-0.13177 0.426059,-0.29283 0.126086,-0.20401 0.248298,-0.18395 0.402922,0.0661 0.181088,0.2929 0.307194,0.27375 0.685082,-0.10404 0.441121,-0.44101 0.435286,-0.46302 -0.122724,-0.46302 -0.762247,0 -0.73877,-0.20832 0.125097,-1.11 l 0.710959,-0.74208 h -1.355193 c -0.745357,0 -1.679989,0.12348 -2.076961,0.27441 -0.483276,0.18374 -0.809576,0.18661 -0.987509,0.009 -0.290247,-0.29025 -0.262461,-0.30346 1.704752,-0.81065 0.819998,-0.21141 1.624309,-0.70158 2.45088,-1.49362 0.967222,-0.92682 1.264207,-1.09066 1.388739,-0.76614 0.187026,0.48739 -0.273016,1.11434 -0.98302,1.33969 -0.2779,0.0882 -0.505273,0.24557 -0.505273,0.34971 0,0.23074 1.1088,0.20314 1.49781,-0.0373 0.33539,-0.20728 0.618856,0.0303 0.618856,0.51862 0,0.19445 -0.350052,0.91596 -0.777894,1.60335 -0.818563,1.31514 -0.858706,1.7174 -0.109918,1.10145 0.408494,-0.33602 0.433094,-0.29371 0.279663,0.4811 -0.159296,0.80443 -0.11952,0.85868 0.749127,1.02164 1.058237,0.19852 1.162897,0.49234 0.333492,0.93623 -0.485776,0.25998 -0.630236,0.23546 -0.859896,-0.14591 -0.781819,-1.29827 -0.750099,-1.28601 -2.824593,-1.09162 -1.086255,0.10179 -2.117645,0.27323 -2.291978,0.38097 -0.174333,0.10775 -0.363611,0.60585 -0.420618,1.1069 -0.05701,0.50106 -0.116959,1.0003 -0.133225,1.10945 -0.06468,0.43394 -0.586831,0.16169 -0.866313,-0.45171 z m 6.044824,-5.34246 c -0.102559,-0.10256 -0.360049,0.043 -0.572198,0.32338 -0.595324,0.78689 -0.472128,1.09389 0.178057,0.4437 0.319338,-0.31934 0.496701,-0.66452 0.394141,-0.76708 z m 17.081117,5.02126 c 0.413186,-0.41319 0.412594,-0.46382 -0.009,-0.77212 -0.519376,-0.37978 -0.277626,-0.77977 0.330293,-0.54649 0.73615,0.28249 0.320499,1.76079 -0.495077,1.76079 -0.1476,0 -0.06938,-0.19899 0.173818,-0.44218 z m -25.331913,-0.10334 c -0.291041,-0.12147 -1.332838,-0.1521 -2.315104,-0.0681 -1.978467,0.16926 -2.53456,-0.27176 -0.727604,-0.57704 0.582084,-0.0983 1.058334,-0.30298 1.058334,-0.45475 0,-0.1676 -0.363591,-0.21694 -0.926042,-0.12567 -1.208873,0.19617 -1.208873,-0.26858 0,-0.49537 0.537521,-0.10084 0.926042,-0.32999 0.926042,-0.5462 0,-0.25903 -0.189703,-0.32485 -0.622891,-0.21613 -0.571611,0.14347 -0.636698,0.0556 -0.790619,-1.06738 -0.119968,-0.87526 -0.05464,-1.39631 0.229437,-1.82987 0.404386,-0.61717 2.368119,-1.44482 2.682397,-1.13054 0.09503,0.095 0.316765,0.0533 0.492748,-0.0928 0.620167,-0.51469 0.905,0.29922 0.605316,1.72969 -0.321201,1.53319 -0.574494,1.91751 -1.338108,2.03029 -0.305455,0.0451 -0.610411,0.24893 -0.677679,0.45292 -0.09459,0.28683 0.06562,0.33331 0.70688,0.20506 0.683753,-0.13675 0.829185,-0.0822 0.829185,0.31089 0,0.38351 -0.161793,0.45298 -0.827458,0.35528 -0.621592,-0.0912 -0.797129,-0.0305 -0.705555,0.24426 0.07202,0.21608 0.491774,0.36571 1.025895,0.36571 0.905805,0 1.554146,0.52878 1.129848,0.9215 -0.12422,0.11497 -0.46398,0.10966 -0.755022,-0.0118 z m -1.874162,-3.59339 c 0.211107,-0.55014 0.08092,-0.68033 -0.469218,-0.46922 -0.23911,0.0917 -0.434744,0.33268 -0.434744,0.53539 0,0.51383 0.701089,0.4625 0.903962,-0.0662 z m 1.427504,-0.42819 c 0.05384,-0.27955 -0.0747,-0.45999 -0.327691,-0.45999 -0.228952,0 -0.416275,0.0498 -0.416275,0.11066 0,0.0609 -0.0769,0.31105 -0.170897,0.556 -0.128618,0.33517 -0.04755,0.42159 0.327691,0.34933 0.274223,-0.0528 0.53845,-0.30301 0.587172,-0.556 z m -1.281936,-1.32919 -0.0088,-0.58601 -0.520364,0.62463 c -0.671312,0.80581 -0.667215,1.19238 0.0088,0.83058 0.291042,-0.15576 0.525206,-0.5469 0.520364,-0.8692 z m 1.177788,0.44402 c 0.728298,-0.27947 0.326367,-1.16232 -0.529166,-1.16232 -0.06086,0 -0.110652,0.29766 -0.110652,0.66146 0,0.72022 0.02243,0.73777 0.639818,0.50086 z m 6.415737,4.48213 c -0.287043,-0.28705 -0.200863,-0.9283 0.09978,-0.74249 0.151896,0.0939 0.449552,0.0268 0.661459,-0.14908 0.411867,-0.34182 0.503467,-0.077 0.224685,0.64944 -0.165043,0.4301 -0.673171,0.55488 -0.985928,0.24213 z m -13.2663,-0.34151 c -0.08611,-0.13933 0.204523,-0.44004 0.645844,-0.66826 0.623813,-0.32258 0.802401,-0.59215 0.802401,-1.2112 0,-0.70597 -0.05819,-0.76512 -0.51311,-0.52165 -0.341953,0.183 -0.567904,0.18594 -0.677379,0.009 -0.09035,-0.14619 0.124312,-0.37551 0.477024,-0.50961 0.675899,-0.25698 1.088118,-0.95054 0.821426,-1.38206 -0.08709,-0.14091 -0.533956,-0.18409 -0.993046,-0.096 -0.796965,0.153 -0.810988,0.14138 -0.310138,-0.25712 0.628904,-0.50038 3.017216,-1.24489 3.344541,-1.04259 0.49348,0.30499 0.197628,0.87466 -0.495673,0.95443 -0.523308,0.0602 -0.727604,0.2323 -0.727604,0.61289 0,0.3671 0.148742,0.50376 0.485656,0.44622 0.347199,-0.0593 0.459312,0.0539 0.393252,0.39688 -0.05082,0.2639 -0.269368,0.47981 -0.485656,0.47981 -0.216288,0 -0.400975,0.1786 -0.410414,0.39688 -0.02848,0.65852 0.175441,0.83698 0.576278,0.50431 0.42775,-0.355 0.778759,-0.16287 0.506691,0.27735 -0.184888,0.29915 -2.780095,1.85734 -3.100713,1.86169 -0.100552,0.001 -0.253273,-0.11151 -0.33938,-0.25083 z m 20.752136,-0.10641 c 0.151401,-0.1514 0.275275,-1.13852 0.275275,-2.19359 0,-1.54784 -0.08942,-1.97039 -0.463021,-2.18799 -0.36016,-0.20978 -0.172591,-0.27148 0.844319,-0.27773 1.099735,-0.007 1.238516,0.0445 0.873937,0.32268 -0.316121,0.24123 -0.450177,0.83192 -0.495387,2.18281 l -0.06198,1.85208 1.029576,0.0854 c 0.748466,0.0621 1.122759,-0.042 1.370859,-0.3813 0.301384,-0.41217 0.341282,-0.41625 0.341282,-0.0349 0,0.63912 -0.410363,0.79186 -2.2911,0.85276 -1.176681,0.0381 -1.614402,-0.0296 -1.423758,-0.22026 z m 4.94649,-0.12413 c -0.941094,-1.0399 -0.251889,-2.95573 1.063298,-2.95573 0.496122,0 1.409236,0.7421 1.409236,1.14531 0,0.0977 -0.535781,0.17761 -1.190625,0.17761 -1.325698,0 -1.545861,0.39025 -0.668237,1.18449 0.493918,0.44699 0.559859,0.4482 1.209988,0.0222 0.665932,-0.43634 0.678885,-0.43425 0.411005,0.0663 -0.498637,0.93171 -1.562135,1.10295 -2.234665,0.35981 z m 1.414201,-2.14637 c 0,-0.38008 -0.433234,-0.56498 -0.902165,-0.38504 -0.646012,0.2479 -0.499421,0.63401 0.240707,0.63401 0.363802,0 0.661458,-0.11203 0.661458,-0.24897 z m 2.116667,2.10106 c -1.394134,-1.39414 0.142257,-3.56091 1.869477,-2.63653 0.970833,0.51958 0.613924,1.04903 -0.70716,1.04903 -1.002805,0 -1.190457,0.0742 -1.058333,0.41851 0.08833,0.23018 0.160599,0.46412 0.160599,0.51986 0,0.0557 0.248029,0.23408 0.551177,0.39632 0.439712,0.23533 0.653738,0.20217 1.058333,-0.16399 0.278936,-0.25243 0.507157,-0.33991 0.507157,-0.19438 0,0.4031 -0.911503,1.14034 -1.409896,1.14034 -0.243203,0 -0.680313,-0.23812 -0.971354,-0.52916 z m 1.521354,-2.18282 c -0.06063,-0.1819 -0.328525,-0.33073 -0.595313,-0.33073 -0.266788,0 -0.534679,0.14883 -0.595312,0.33073 -0.06982,0.20947 0.14846,0.33073 0.595312,0.33073 0.446852,0 0.665133,-0.12126 0.595313,-0.33073 z m 6.945312,2.34157 c 0.145521,-0.14552 0.264583,-1.13374 0.264583,-2.19605 0,-1.88383 -0.01631,-1.93145 -0.661458,-1.93145 -0.363802,0 -0.661458,0.11906 -0.661458,0.26458 0,0.14552 -0.107916,0.26458 -0.239813,0.26458 -0.131898,0 -0.177543,-0.23812 -0.101433,-0.52916 0.122618,-0.4689 0.360895,-0.52917 2.091896,-0.52917 1.855669,0 1.95247,0.0298 1.932628,0.59531 -0.01149,0.32742 -0.08094,0.44649 -0.15434,0.26459 -0.0734,-0.18191 -0.421187,-0.33073 -0.772862,-0.33073 -0.617764,0 -0.63941,0.0654 -0.63941,1.93145 0,1.06231 0.119063,2.05053 0.264584,2.19605 0.176388,0.17639 -0.0441,0.26458 -0.661459,0.26458 -0.617361,0 -0.837847,-0.0882 -0.661458,-0.26458 z m 2.910417,-0.25384 c 0,-0.49607 0.02015,-0.49786 0.519316,-0.0461 0.50684,0.45868 1.33277,0.40357 1.33277,-0.0889 0,-0.13571 -0.41672,-0.49262 -0.92604,-0.79313 -1.362431,-0.80385 -1.104234,-1.88714 0.44979,-1.88714 0.58598,0 0.74083,0.12118 0.74083,0.57974 0,0.55266 -0.0167,0.55683 -0.35861,0.0893 -0.21956,-0.30027 -0.52734,-0.42569 -0.79375,-0.32346 -0.65503,0.25136 -0.52583,0.61099 0.34981,0.97369 1.54991,0.642 1.23348,2.18373 -0.42527,2.07202 -0.684495,-0.0461 -0.888846,-0.17852 -0.888846,-0.57596 z m 3.202766,0.14698 c -0.32311,-0.60374 -0.11357,-0.92464 0.96442,-1.47698 0.94542,-0.48441 1.09395,-0.88296 0.42476,-1.13975 -0.26583,-0.10201 -0.5736,0.0224 -0.79102,0.31972 -0.19573,0.26768 -0.4336,0.40897 -0.5286,0.31397 -0.26714,-0.26714 0.43954,-0.97927 0.97176,-0.97927 1.08191,0 1.31216,0.28628 1.31216,1.63142 0,0.80611 0.1018,1.24731 0.26459,1.1467 0.14552,-0.0899 0.26458,-0.0502 0.26458,0.0884 0,0.36593 -0.8551,0.63735 -1.04416,0.33144 -0.10066,-0.16287 -0.30569,-0.16772 -0.55032,-0.013 -0.5936,0.37539 -1.0063,0.30408 -1.28817,-0.2226 z m 1.4058,-0.21249 c 0.51376,-0.19715 0.55863,-1.16232 0.054,-1.16232 -0.48833,0 -1.04673,0.70142 -0.83331,1.04674 0.19946,0.32273 0.22829,0.32701 0.77927,0.11558 z m 2.25486,0.33509 c 0.40379,-0.4038 0.36144,-2.55475 -0.0504,-2.5598 -0.22048,-0.003 -0.19843,-0.0895 0.0662,-0.26053 0.69073,-0.44638 0.79375,-0.29873 0.79375,1.13771 0,0.77126 0.1126,1.5154 0.25022,1.65365 0.15776,0.15848 -0.0436,0.26206 -0.54491,0.28032 -0.55985,0.0204 -0.71218,-0.054 -0.5148,-0.25135 z m 4.56657,0.0372 c -0.52425,-0.52425 -0.36014,-1.46263 0.35405,-2.02442 0.5032,-0.39581 0.6321,-0.68543 0.51418,-1.15525 -0.30996,-1.23499 1.41066,-2.01631 2.08435,-0.94649 0.22326,0.35454 0.15367,0.58996 -0.32504,1.09952 -0.50492,0.53746 -0.55839,0.74318 -0.31256,1.20251 0.16311,0.30477 0.40341,0.55413 0.534,0.55413 0.31434,0 0.61663,-0.98114 0.40686,-1.32055 -0.0968,-0.15658 0.15884,-0.26695 0.61824,-0.26695 h 0.78323 l -0.76761,0.82173 c -0.88508,0.94749 -0.91972,1.10391 -0.34925,1.57735 0.32579,0.27039 0.52851,0.27842 0.91625,0.0363 0.40763,-0.25457 0.47125,-0.24152 0.35095,0.072 -0.20739,0.54044 -1.04127,0.74789 -1.66481,0.41418 -0.29063,-0.15553 -0.84504,-0.69791 -1.23203,-1.20528 -0.81441,-1.06775 -1.04187,-1.12706 -1.44361,-0.37641 -0.43323,0.8095 0.14412,1.39481 1.18486,1.20119 0.75894,-0.14119 0.77704,-0.12635 0.29498,0.24178 -0.62035,0.47373 -1.51374,0.508 -1.94704,0.0747 z m 2.43578,-3.46127 c 0.19825,-0.3143 0.18796,-0.52958 -0.036,-0.75356 -0.44762,-0.44763 -1.11684,0.1589 -0.93645,0.84871 0.1565,0.59845 0.55986,0.55898 0.97248,-0.0952 z m 5.40912,3.57152 c 0.41943,-0.13982 0.40785,-4.08125 -0.0132,-4.50233 -0.46755,-0.46755 1.41346,-0.41943 2.57496,0.0659 1.57098,0.6564 1.07795,2.35066 -0.68406,2.35066 -0.69726,0 -0.77965,0.0876 -0.77965,0.82903 0,0.45596 0.11906,0.94809 0.26458,1.09361 0.17639,0.17639 -0.0573,0.26458 -0.70114,0.26458 -0.53115,0 -0.82881,-0.0456 -0.66146,-0.10142 z m 2.55726,-2.98044 c 0.20674,-0.65139 -0.27723,-1.31022 -0.96247,-1.31022 -0.39135,0 -0.49677,0.19652 -0.49677,0.92604 0,0.80455 0.0844,0.92604 0.64363,0.92604 0.41628,0 0.70437,-0.1914 0.81561,-0.54186 z m 2.04649,3.01246 c -0.65359,-0.26372 -0.33655,-1.1621 0.60646,-1.71848 0.95907,-0.56587 1.08354,-1.08213 0.29765,-1.23454 -0.26108,-0.0506 -0.44109,0.0843 -0.44109,0.33073 0,0.22895 -0.18852,0.41627 -0.41892,0.41627 -0.23041,0 -0.37215,-0.14032 -0.31499,-0.31182 0.18174,-0.5452 0.89363,-0.83019 1.619,-0.64814 0.64255,0.16127 0.70241,0.28861 0.70241,1.49417 0,0.87575 0.11095,1.31924 0.33073,1.32193 0.22469,0.003 0.20633,0.0827 -0.0573,0.24945 -0.22623,0.14307 -0.50572,0.14769 -0.67034,0.0111 -0.16461,-0.13662 -0.44411,-0.13199 -0.67033,0.0111 -0.42525,0.26896 -0.49666,0.27464 -0.98331,0.0783 z m 1.47361,-1.08424 c 0.0542,-0.3797 -0.053,-0.59261 -0.29833,-0.59261 -0.51297,0 -1.0672,0.69809 -0.84266,1.06139 0.29545,0.47805 1.05014,0.16798 1.14099,-0.46878 z m 1.91419,0.87583 c 0.35011,-0.35171 0.31328,-2.19198 -0.0483,-2.41548 -0.19985,-0.12352 -0.13891,-0.27387 0.18434,-0.45477 0.34622,-0.19375 0.5129,-0.18026 0.58888,0.0477 0.0824,0.2472 0.191,0.24733 0.48832,5.7e-4 0.28962,-0.24035 0.45666,-0.24303 0.68865,-0.011 0.16846,0.16846 0.19318,0.32002 0.0549,0.33681 -0.13824,0.0168 -0.42995,0.0465 -0.64823,0.0661 -0.48377,0.0434 -0.70023,1.89195 -0.28073,2.39742 0.2201,0.26521 0.11007,0.33424 -0.49773,0.31226 -0.49197,-0.0178 -0.68785,-0.1211 -0.53009,-0.27957 z m 3.07244,0.20725 c -0.097,-0.097 -0.17639,-0.72804 -0.17639,-1.40229 0,-0.67424 -0.10563,-1.33901 -0.23474,-1.47725 -0.13977,-0.14966 -0.0327,-0.45742 0.26458,-0.76067 0.4407,-0.44952 0.49933,-0.45728 0.49933,-0.0661 0,0.24374 0.20836,0.44679 0.46302,0.45122 0.44097,0.008 0.44097,0.0209 0,0.27773 -0.62216,0.36237 -0.68504,2.76645 -0.0661,2.52896 0.21829,-0.0838 0.39688,-0.0497 0.39688,0.0757 0,0.12539 -0.18833,0.30024 -0.41852,0.38857 -0.5182,0.19886 -0.51326,0.19897 -0.72801,-0.0158 z m 1.80799,-1.41058 c 0,-0.98286 0.12434,-1.53393 0.38278,-1.69645 0.24627,-0.15487 0.41813,-0.13468 0.48189,0.0566 0.0733,0.21983 0.22298,0.21996 0.57436,5.2e-4 0.87121,-0.54408 1.33909,-0.0853 1.33909,1.313 0,0.70307 0.12303,1.40133 0.2734,1.55171 0.18815,0.18814 0.0204,0.2734 -0.53798,0.2734 -0.55838,0 -0.72614,-0.0853 -0.53799,-0.2734 0.15037,-0.15038 0.27341,-0.79366 0.27341,-1.42952 0,-1.04759 -0.0559,-1.14817 -0.59532,-1.07156 -0.52675,0.0748 -0.59531,0.23697 -0.59531,1.40799 0,1.14705 -0.0705,1.32344 -0.52917,1.32344 -0.46504,0 -0.52916,-0.17639 -0.52916,-1.45573 z m 4.36562,1.05781 c -0.63434,-0.63434 -0.67908,-1.52031 -0.11729,-2.32238 0.48038,-0.68583 1.48603,-0.76901 2.08277,-0.17227 0.68232,0.68233 0.48327,0.90715 -0.80316,0.90715 -1.00281,0 -1.19046,0.0742 -1.05833,0.41851 0.0883,0.23018 0.1606,0.46412 0.1606,0.51986 0,0.0557 0.24802,0.23408 0.55117,0.39632 0.43971,0.23533 0.65374,0.20217 1.05834,-0.16399 0.27893,-0.25243 0.50715,-0.33991 0.50715,-0.19438 0,0.4031 -0.9115,1.14034 -1.40989,1.14034 -0.24321,0 -0.68032,-0.23812 -0.97136,-0.52916 z m 1.5875,-2.12497 c 0,-0.49626 -0.82724,-0.60076 -1.26784,-0.16017 -0.40101,0.40102 -0.37014,0.43305 0.4174,0.43305 0.46774,0 0.85044,-0.1228 0.85044,-0.27288 z m 1.60187,2.27049 c 0.35011,-0.35171 0.31328,-2.19198 -0.0483,-2.41548 -0.19986,-0.12352 -0.13891,-0.27387 0.18434,-0.45477 0.34622,-0.19375 0.5129,-0.18026 0.58887,0.0477 0.0824,0.2472 0.191,0.24733 0.48833,5.7e-4 0.28961,-0.24035 0.45665,-0.24303 0.68865,-0.011 0.16845,0.16846 0.19317,0.32002 0.0549,0.33681 -0.13825,0.0168 -0.42995,0.0465 -0.64823,0.0661 -0.48378,0.0434 -0.70024,1.89195 -0.28074,2.39742 0.22011,0.26521 0.11008,0.33424 -0.49772,0.31226 -0.49197,-0.0178 -0.68785,-0.1211 -0.53009,-0.27957 z m 2.63147,-0.24281 c 0,-0.49388 0.0202,-0.4956 0.51931,-0.0439 0.57504,0.52041 1.40511,0.373 1.18146,-0.20982 -0.0783,-0.20407 -0.43683,-0.50521 -0.79671,-0.66918 -1.31588,-0.59955 -1.00776,-1.89021 0.45125,-1.89021 0.61565,0 0.75974,0.11392 0.75294,0.59531 -0.008,0.55127 -0.0344,0.56105 -0.3599,0.13229 -0.19332,-0.25466 -0.54672,-0.46302 -0.78534,-0.46302 -0.74808,0 -0.47368,0.71798 0.49219,1.28786 1.03179,0.60877 1.11918,0.86246 0.5077,1.47394 -0.59831,0.59831 -1.9629,0.45006 -1.9629,-0.21325 z m -35.18959,-4.13605 c 0,-0.14552 0.11204,-0.26458 0.24897,-0.26458 0.13693,0 0.32255,0.11906 0.41249,0.26458 0.0899,0.14552 -0.0221,0.26459 -0.24897,0.26459 -0.22687,0 -0.41249,-0.11907 -0.41249,-0.26459 z m -36.42329,-0.94291 c -0.187106,-0.48759 0.805475,-1.28104 1.696732,-1.35634 0.840436,-0.071 0.740213,0.27384 -0.313076,1.07722 -1.06031,0.80874 -1.17179,0.83123 -1.383656,0.27912 z"
         id="path4" /><path
         style="fill:#e6c376"
         d="m 71.825177,113.34881 c -0.716847,-0.29872 -1.072259,-0.78035 -1.283069,-1.73874 l -0.174596,-0.79375 0.733425,0.86651 c 0.497498,0.58777 1.051872,0.91796 1.723374,1.02644 1.113779,0.17994 1.900908,-0.26532 1.667277,-0.94315 -0.09391,-0.27245 -0.0014,-0.23489 0.262528,0.10661 0.22413,0.28999 0.373251,0.76624 0.331378,1.05834 -0.06333,0.44176 -0.298633,0.54042 -1.399048,0.58658 -0.727604,0.0305 -1.565175,-0.0455 -1.861269,-0.16884 z m -3.036023,-0.55279 c -0.241811,-0.45182 -0.114938,-0.73635 0.825858,-1.85208 0.611358,-0.72503 1.211985,-1.31824 1.334726,-1.31824 0.122742,0 0.223167,-0.12133 0.223167,-0.26963 0,-0.15548 -0.280023,-0.19934 -0.661459,-0.10361 -0.876196,0.21991 -0.87128,-0.38799 0.0083,-1.02818 0.560823,-0.40818 0.653144,-0.41753 0.653144,-0.0661 0,0.62667 0.711894,0.48623 0.884688,-0.17454 0.08396,-0.32106 0.231802,-0.50461 0.328536,-0.40787 0.09673,0.0967 -0.0622,0.65708 -0.353186,1.24521 -0.409132,0.82693 -0.446623,1.06934 -0.165385,1.06934 0.200024,0 0.365503,-0.14883 0.367731,-0.33073 0.0028,-0.22965 0.07752,-0.21463 0.244418,0.0491 0.199205,0.31481 0.311783,0.32059 0.657407,0.0337 0.529124,-0.43913 0.541778,-0.84174 0.02017,-0.64158 -0.588266,0.22574 -0.484732,-0.43815 0.178412,-1.14404 0.548311,-0.58365 0.551413,-0.61362 0.06615,-0.63917 -1.061322,-0.0559 -2.346112,0.0845 -2.980147,0.32551 -0.409504,0.1557 -0.75155,0.15645 -0.906005,0.002 -0.258746,-0.25874 0.02636,-0.38388 1.5932,-0.69931 0.474112,-0.0954 1.52324,-0.71215 2.331394,-1.37047 0.808155,-0.65832 1.536281,-1.13003 1.61806,-1.04826 0.313162,0.31317 -0.216076,1.02437 -0.975622,1.31106 -0.436231,0.16466 -0.793147,0.39234 -0.793147,0.50596 0,0.32412 1.446741,0.2415 1.790493,-0.10225 0.23538,-0.23538 0.349084,-0.20392 0.478099,0.13229 0.259563,0.67641 -0.07972,1.29345 -0.617379,1.1228 -0.299877,-0.0952 -0.592144,0.0501 -0.813386,0.4044 -0.446322,0.71467 -0.117873,1.05755 0.371697,0.38803 0.20488,-0.28019 0.438163,-0.44378 0.518408,-0.36354 0.08024,0.0802 -0.159723,0.50911 -0.533262,0.95304 -0.729478,0.86693 -0.486042,1.4233 0.285274,0.65198 0.442639,-0.44264 0.456492,-0.42537 0.297315,0.37051 -0.176458,0.88229 0.09532,1.14723 1.176846,1.14723 0.656354,0 0.503303,0.62387 -0.185812,0.75742 -0.304873,0.0591 -0.726657,-0.19439 -1.097593,-0.65958 -0.473597,-0.59395 -0.829856,-0.76083 -1.665739,-0.78028 -0.584812,-0.0136 -1.063566,0.0451 -1.063897,0.13042 -3.32e-4,0.0853 -0.344464,0.16717 -0.764738,0.18185 -1.304529,0.0456 -1.569738,0.2785 -1.75972,1.54539 -0.196084,1.30758 -0.469653,1.50811 -0.917023,0.67219 z m 23.466734,-0.76223 c 0.08321,-0.3182 0.04678,-0.54371 -0.08095,-0.50113 -0.127733,0.0426 -0.262008,-0.0417 -0.298388,-0.18717 -0.03638,-0.14552 0.08105,-0.26459 0.260959,-0.26459 0.424045,0 0.597333,0.90119 0.241677,1.25685 -0.189734,0.18973 -0.227838,0.0958 -0.123298,-0.30396 z m -29.814233,-0.0334 c 0,-0.10474 0.47625,-0.26659 1.058333,-0.35967 0.65774,-0.10518 1.058334,-0.31128 1.058334,-0.54451 0,-0.29599 -0.177979,-0.32424 -0.842372,-0.13369 -0.463305,0.13287 -0.896536,0.18742 -0.962737,0.12122 -0.126744,-0.12674 1.133813,-0.66433 1.55775,-0.66433 0.136047,0 0.247359,-0.1915 0.247359,-0.42556 0,-0.31687 -0.16189,-0.38493 -0.633848,-0.26647 -0.582499,0.14619 -0.643434,0.0681 -0.752179,-0.96351 -0.11379,-1.07952 0.37868,-2.63738 0.79651,-2.51965 0.105953,0.0298 0.465029,-0.0967 0.797948,-0.28118 0.332919,-0.1845 0.828914,-0.26448 1.102213,-0.17774 0.273298,0.0867 0.577057,0.028 0.675019,-0.13048 0.124966,-0.2022 0.27811,-0.2052 0.513227,-0.0101 0.256306,0.21271 0.272853,0.60462 0.07036,1.66649 -0.317901,1.66711 -0.581355,2.04983 -1.411026,2.04983 -0.402444,0 -0.629062,0.15379 -0.629062,0.42691 0,0.32384 0.191633,0.39878 0.79375,0.31041 0.541653,-0.0795 0.79375,-0.005 0.79375,0.23455 0,0.21367 -0.310633,0.35105 -0.79375,0.35105 -0.552253,0 -0.79375,0.1292 -0.79375,0.42467 0,0.33587 0.221279,0.40356 1.058333,0.32373 0.816602,-0.0779 1.058313,-0.009 1.058244,0.30294 -7.3e-5,0.33026 -0.434045,0.40857 -2.381249,0.42968 -1.309639,0.0142 -2.381161,-0.0599 -2.381161,-0.16462 z m 2.38125,-3.60298 c 0,-0.27052 -0.146277,-0.35974 -0.418515,-0.25527 -0.230183,0.0883 -0.468308,0.1606 -0.529166,0.1606 -0.06086,0 -0.110652,0.24231 -0.110652,0.53848 0,0.45648 0.08057,0.49535 0.529166,0.25527 0.291042,-0.15576 0.529167,-0.47034 0.529167,-0.69908 z m 1.322916,-0.11407 c 0,-0.37865 -0.142482,-0.52113 -0.459982,-0.45998 -0.689699,0.13282 -0.766617,1.00855 -0.08858,1.00855 0.378645,0 0.548567,-0.16993 0.548567,-0.54857 z m -1.696583,-0.44767 c 0.158285,-0.10692 0.355498,-0.46228 0.438251,-0.7897 0.190068,-0.75203 -0.457176,-0.81572 -0.849025,-0.0835 -0.486335,0.90872 -0.282694,1.34163 0.410774,0.87324 z m 1.828875,-0.98814 c 0,-0.28705 -0.208359,-0.56204 -0.463021,-0.61109 -0.346802,-0.0668 -0.46302,0.0866 -0.46302,0.61109 0,0.5245 0.116218,0.67788 0.46302,0.61109 0.254662,-0.049 0.463021,-0.32403 0.463021,-0.61109 z m 6.074537,4.87719 c -0.09592,-0.1552 -0.132712,-0.30403 -0.08176,-0.33073 0.05095,-0.0267 0.36053,-0.19838 0.687952,-0.38151 0.604363,-0.33804 0.724402,-0.17901 0.434713,0.57591 -0.183295,0.47766 -0.781527,0.55601 -1.040905,0.13633 z m -13.207835,-0.23007 c -0.08419,-0.13622 0.16898,-0.40411 0.562596,-0.59531 0.395444,-0.19209 0.799866,-0.66572 0.903846,-1.05851 0.228363,-0.86266 0.06463,-1.07374 -0.569583,-0.73432 -0.296538,0.15871 -0.536662,0.1616 -0.631833,0.008 -0.08443,-0.13662 0.176233,-0.40594 0.579255,-0.59851 0.433886,-0.20731 0.769055,-0.60568 0.821735,-0.97668 0.08314,-0.58552 0.02682,-0.6149 -0.859896,-0.44855 -1.833456,0.34396 -0.676011,-0.48041 1.468968,-1.04625 1.068726,-0.28192 1.273482,-0.27318 1.401267,0.0598 0.227372,0.59252 0.207595,0.61129 -0.644098,0.61129 -0.673926,0 -0.79375,0.1016 -0.79375,0.67306 0,0.47994 0.124974,0.65075 0.435572,0.59531 0.239564,-0.0428 0.487611,0.0711 0.551215,0.25298 0.06845,0.19576 -0.109312,0.33073 -0.435572,0.33073 -0.411574,0 -0.551215,0.16757 -0.551215,0.66146 0,0.74567 0.07787,0.78 0.841756,0.37118 0.42795,-0.22903 0.518157,-0.21507 0.427547,0.0662 -0.109465,0.33975 -2.75255,2.07621 -3.160213,2.07621 -0.10699,0 -0.263408,-0.11145 -0.347597,-0.24767 z m 25.845294,-0.1642 c -1.164919,-0.81595 -0.506561,-3.02771 0.901233,-3.02771 0.596779,0 1.156562,0.47382 1.156562,0.97896 0,0.22489 -0.366346,0.34396 -1.058333,0.34396 -1.153265,0 -1.387376,0.42691 -0.64256,1.17172 0.535005,0.53501 0.875186,0.52443 1.520121,-0.0472 0.50505,-0.44769 0.512557,-0.44434 0.226621,0.10116 -0.26655,0.50851 -0.838171,0.89102 -1.331534,0.89102 -0.10124,0 -0.448689,-0.18534 -0.77211,-0.41187 z m 1.462483,-2.30011 c -0.06063,-0.1819 -0.388056,-0.33073 -0.727605,-0.33073 -0.339548,0 -0.66697,0.14883 -0.727604,0.33073 -0.07272,0.21817 0.174919,0.33073 0.727604,0.33073 0.552686,0 0.800326,-0.11256 0.727605,-0.33073 z m 2.048173,2.34611 c -0.336116,-0.24577 -0.500361,-0.6902 -0.500361,-1.35392 0,-1.49744 1.374915,-2.26499 2.335893,-1.30402 0.679259,0.67926 0.484609,0.90715 -0.774851,0.90715 -1.301404,0 -1.394821,0.11989 -0.778747,0.99946 0.491652,0.70193 0.837215,0.73686 1.485517,0.15015 0.26612,-0.24083 0.483855,-0.30711 0.483855,-0.14729 0,0.33054 -1.029398,1.11434 -1.46351,1.11434 -0.158089,0 -0.512597,-0.16464 -0.787796,-0.36587 z m 1.457556,-2.28826 c 0,-0.49626 -0.827247,-0.60076 -1.267838,-0.16017 -0.401018,0.40102 -0.37014,0.43305 0.417391,0.43305 0.467746,0 0.850447,-0.1228 0.850447,-0.27288 z m 10.120309,2.4789 c -0.181898,-0.0734 -0.330726,-0.32057 -0.330726,-0.54928 0,-0.35967 0.07014,-0.35236 0.519316,0.0541 0.50684,0.45868 1.33277,0.40357 1.33277,-0.0889 0,-0.13571 -0.41672,-0.49262 -0.92604,-0.79313 -1.376121,-0.81193 -1.068738,-1.95872 0.49042,-1.82968 0.51162,0.0423 0.69803,0.20274 0.69215,0.59556 -0.007,0.49215 -0.0309,0.49845 -0.27773,0.0746 -0.32129,-0.55163 -1.30172,-0.62113 -1.30172,-0.0923 0,0.20391 0.41672,0.61661 0.92604,0.91712 1.03279,0.60936 1.1847,1.20093 0.41427,1.61325 -0.54064,0.28934 -0.99413,0.31842 -1.53875,0.0987 z m 3.175,0 c -0.65011,-0.26232 -0.33739,-1.1616 0.59532,-1.71191 1.01516,-0.59896 1.15826,-0.95077 0.4909,-1.20686 -0.26583,-0.10201 -0.5736,0.0224 -0.79102,0.31972 -0.19573,0.26768 -0.4336,0.40897 -0.5286,0.31397 -0.29606,-0.29606 0.4667,-0.97927 1.0933,-0.97927 0.83299,0 1.13599,0.47092 1.19169,1.85208 0.0654,1.62192 0.0478,1.69283 -0.34067,1.37045 -0.21528,-0.17867 -0.48164,-0.19201 -0.7276,-0.0365 -0.42525,0.26896 -0.49667,0.27464 -0.98332,0.0783 z m 1.47361,-1.08154 c 0.0929,-0.65426 -0.42963,-0.80585 -0.95767,-0.27781 -0.52804,0.52804 -0.37645,1.05059 0.27781,0.95767 0.38258,-0.0543 0.62553,-0.29728 0.67986,-0.67986 z m 6.59618,0.971 c -0.69214,-0.40314 -0.57846,-1.47847 0.21098,-1.99573 0.54514,-0.35719 0.64301,-0.58265 0.51196,-1.17935 -0.21311,-0.97027 0.8367,-1.77676 1.70672,-1.31114 0.73078,0.3911 0.69043,0.96159 -0.10487,1.48269 -0.6176,0.40467 -0.62988,0.46048 -0.23415,1.06443 0.51409,0.78461 0.77945,0.80154 1.16852,0.0746 0.23494,-0.439 0.22244,-0.61273 -0.0568,-0.7897 -0.24875,-0.15763 -0.13183,-0.22812 0.38302,-0.23094 l 0.74107,-0.004 -0.71727,0.94039 c -0.67109,0.87985 -0.68871,0.96895 -0.27377,1.38389 0.36359,0.36359 0.53631,0.38554 0.9586,0.12182 0.42667,-0.26646 0.48987,-0.25594 0.36816,0.0612 -0.22702,0.59159 -1.1184,0.75342 -1.77614,0.32245 -0.50853,-0.3332 -0.66596,-0.33635 -1.09595,-0.0219 -0.58879,0.43053 -1.14701,0.45591 -1.79004,0.0814 z m 1.99946,-0.41281 c 0.27482,-0.27483 -0.69929,-1.70452 -1.10656,-1.62408 -0.64585,0.12756 -0.97287,0.90175 -0.58057,1.37444 0.34752,0.41875 1.36715,0.56961 1.68713,0.24964 z m 0.2908,-3.08019 c 0.19825,-0.3143 0.18796,-0.52958 -0.036,-0.75356 -0.44762,-0.44763 -1.11684,0.1589 -0.93645,0.84871 0.1565,0.59845 0.55986,0.55898 0.97248,-0.0952 z m 9.94952,3.38527 c -0.46158,-0.55617 -0.13589,-1.18973 0.79156,-1.5398 0.86753,-0.32746 1.04342,-0.89768 0.35801,-1.1607 -0.25776,-0.0989 -0.56625,0.0123 -0.75678,0.27289 -0.35803,0.48964 -0.66017,0.57412 -0.66017,0.18459 0,-0.43314 1.07343,-0.85664 1.74443,-0.68823 0.56608,0.14208 0.63682,0.30624 0.63682,1.47771 0,0.87575 0.11095,1.31924 0.33073,1.32193 0.22469,0.003 0.20633,0.0827 -0.0573,0.24945 -0.22623,0.14307 -0.50572,0.14769 -0.67034,0.0111 -0.16461,-0.13662 -0.44411,-0.13199 -0.67033,0.0111 -0.52927,0.33475 -0.66806,0.31618 -1.04666,-0.14 z m 1.53696,-0.86327 c 0.0929,-0.65426 -0.42964,-0.80585 -0.95767,-0.27781 -0.52804,0.52804 -0.37645,1.05059 0.27781,0.95767 0.38257,-0.0543 0.62552,-0.29728 0.67986,-0.67986 z m 5.14097,1.06673 c -0.20841,-0.0748 -0.33073,-0.64052 -0.33073,-1.52975 0,-0.77611 -0.10181,-1.4508 -0.22625,-1.4993 -0.12443,-0.0485 -0.005,-0.31739 0.26459,-0.59751 0.41453,-0.43014 0.49083,-0.44344 0.49083,-0.0855 0,0.23307 0.20836,0.47822 0.46302,0.54477 0.44097,0.11524 0.44097,0.12246 0,0.15169 -0.37403,0.0248 -0.46302,0.28072 -0.46302,1.33156 0,0.77705 0.12793,1.34351 0.3177,1.40677 0.17924,0.0597 0.20806,0.1691 0.0661,0.25093 -0.13835,0.0798 -0.40038,0.0916 -0.58228,0.0264 z m 6.01927,-0.33912 c -0.29104,-0.29105 -0.52916,-0.82683 -0.52916,-1.19063 0,-0.77592 0.84875,-1.71979 1.54649,-1.71979 0.46042,0 1.36392,0.75868 1.36392,1.14531 0,0.0977 -0.53578,0.17761 -1.19062,0.17761 -1.30738,0 -1.54679,0.38941 -0.70677,1.14961 0.6098,0.55187 0.80491,0.54849 1.45204,-0.0251 0.50505,-0.44769 0.51255,-0.44434 0.22662,0.10116 -0.52019,0.9924 -1.38694,1.13743 -2.16252,0.36186 z m 1.5875,-2.12497 c 0,-0.49626 -0.82724,-0.60076 -1.26784,-0.16017 -0.40101,0.40102 -0.37014,0.43305 0.4174,0.43305 0.46774,0 0.85044,-0.1228 0.85044,-0.27288 z m 4.56406,2.4789 c -0.1819,-0.0734 -0.33072,-0.31062 -0.33072,-0.52717 0,-0.33408 0.065,-0.32874 0.42898,0.0353 0.23595,0.23595 0.61304,0.39328 0.83798,0.34963 0.75551,-0.14661 0.6147,-0.6711 -0.32978,-1.22835 -1.38619,-0.81788 -1.08656,-1.96585 0.47928,-1.83626 0.51163,0.0423 0.69803,0.20274 0.69216,0.59556 -0.007,0.49215 -0.0309,0.49845 -0.27773,0.0746 -0.32741,-0.56212 -1.30173,-0.61672 -1.30173,-0.0729 0,0.21455 0.34276,0.56733 0.76169,0.78397 0.94923,0.49086 1.18986,1.06994 0.66338,1.59642 -0.40186,0.40186 -0.99,0.48493 -1.62351,0.2293 z m -62.288,-2.0864 c 0.04813,-1.09905 -0.03104,-2.14113 -0.175938,-2.31572 -0.195946,-0.2361 -0.03676,-0.31744 0.621236,-0.31744 0.802046,0 0.848122,0.0404 0.493251,0.43253 -0.280181,0.3096 -0.368824,0.91121 -0.311875,2.11667 l 0.07956,1.68413 1.047781,0.0854 c 0.770772,0.0628 1.147418,-0.0421 1.424657,-0.39688 0.364335,-0.46625 0.37129,-0.46618 0.20899,0.002 -0.09234,0.26656 -0.167887,0.53445 -0.167887,0.59531 0,0.0609 -0.74414,0.11093 -1.653645,0.11127 l -1.653646,6.1e-4 z m 16.933152,-0.15214 0.08733,-2.15042 -0.814938,0.1196 c -0.448216,0.0658 -0.814938,0.0212 -0.814938,-0.0991 0,-0.12032 0.892969,-0.21876 1.984375,-0.21876 1.091406,0 1.984375,0.0984 1.984375,0.21876 0,0.12032 -0.357187,0.16634 -0.79375,0.10226 l -0.79375,-0.11649 v 2.14669 c 0,1.86785 -0.06015,2.14678 -0.463021,2.14732 -0.410196,5.5e-4 -0.453057,-0.24471 -0.375687,-2.14981 z m 9.792878,0.69648 c -0.0585,-0.93713 0.0187,-1.49451 0.21746,-1.57051 0.20745,-0.0793 0.33708,0.39536 0.39687,1.45319 0.0602,1.06474 -0.01,1.57084 -0.21745,1.57051 -0.18366,-2.9e-4 -0.34252,-0.58195 -0.39688,-1.45319 z m 12.697,-0.48615 c 0.0761,-1.50669 0.005,-2.03163 -0.31834,-2.3551 -0.37861,-0.3786 -0.31522,-0.40516 0.70098,-0.29368 2.00797,0.22027 2.29392,0.33894 2.46566,1.02323 0.19855,0.79108 -0.27068,1.44774 -1.03452,1.44774 -0.52321,0 -0.52589,-0.0157 -0.0609,-0.35571 0.73686,-0.5388 0.36014,-1.76095 -0.5428,-1.76095 -0.67652,0 -0.67656,1.3e-4 -0.59027,2.11728 0.0716,1.75575 0.0176,2.11719 -0.31573,2.11667 -0.33192,-5.1e-4 -0.38494,-0.33865 -0.3041,-1.93948 z m 7.67271,0.87555 c 0.0573,-0.60101 -0.04,-1.2337 -0.22385,-1.45521 -0.17888,-0.21554 -0.26087,-0.3919 -0.18219,-0.3919 0.0787,0 0.35091,-0.0798 0.60496,-0.17725 0.31493,-0.12085 0.40105,-0.0788 0.27061,0.13229 -0.25053,0.40537 0.17323,0.39957 0.58076,-0.008 0.24694,-0.24695 0.38805,-0.24695 0.635,0 0.17462,0.17462 0.20439,0.33123 0.0661,0.34802 -0.13824,0.0168 -0.42995,0.0465 -0.64823,0.0661 -0.29209,0.0262 -0.39687,0.36754 -0.39687,1.29283 0,0.95098 -0.0984,1.25709 -0.40387,1.25677 -0.31188,-3.3e-4 -0.38077,-0.24262 -0.30246,-1.06374 z m 4.90234,-0.08 c -0.003,-0.62879 -0.0842,-1.27116 -0.18086,-1.42748 -0.0966,-0.15632 -0.005,-0.34954 0.20261,-0.42937 0.20804,-0.0798 0.42112,-0.0166 0.47351,0.14061 0.0645,0.19336 0.27693,0.17231 0.65707,-0.0651 0.44726,-0.27932 0.64207,-0.28425 0.95544,-0.0242 0.50734,0.42106 0.71708,2.94918 0.24465,2.94894 -0.22046,-1.1e-4 -0.33072,-0.44122 -0.33072,-1.32308 0,-1.11777 -0.077,-1.32291 -0.49677,-1.32291 -0.75018,0 -1.16203,0.67899 -1.04094,1.71614 0.0665,0.56997 -0.005,0.92969 -0.18513,0.92969 -0.16905,0 -0.29587,-0.48513 -0.29886,-1.14327 z m 7.53912,-0.0798 c 0.0605,-0.76011 -0.0224,-1.29707 -0.2189,-1.41851 -0.21249,-0.13132 -0.1353,-0.2427 0.23536,-0.33963 0.30334,-0.0793 0.55153,-0.0217 0.55153,0.12798 0,0.15783 0.17148,0.12989 0.40809,-0.0665 0.3091,-0.25654 0.48238,-0.26439 0.71438,-0.0324 0.16845,0.16846 0.19317,0.32002 0.0549,0.33681 -0.13825,0.0168 -0.42995,0.0465 -0.64823,0.0661 -0.2921,0.0262 -0.39688,0.36754 -0.39688,1.29283 0,0.94398 -0.0993,1.25709 -0.39878,1.25677 -0.31179,-3.4e-4 -0.37756,-0.26722 -0.3015,-1.22352 z m -32.76951,-3.27483 c 0,-0.14552 0.11907,-0.26458 0.26459,-0.26458 0.14552,0 0.26458,0.11906 0.26458,0.26458 0,0.14552 -0.11906,0.26459 -0.26458,0.26459 -0.14552,0 -0.26459,-0.11907 -0.26459,-0.26459 z m -36.220296,-0.8927 c -0.381792,-0.46003 0.565925,-1.35124 1.455264,-1.36849 0.859029,-0.0167 0.797827,0.22124 -0.265573,1.03234 -0.728022,0.55529 -0.954671,0.61933 -1.189691,0.33615 z"
         id="path3" /><path
         style="fill:#e4bb64"
         d="m 72.098946,113.40415 c -0.771193,-0.18788 -1.381968,-0.80761 -1.522992,-1.54533 -0.06788,-0.35509 -0.08956,-0.64562 -0.04817,-0.64562 0.04139,0 0.432436,0.35718 0.868999,0.79375 0.61799,0.61799 1.028655,0.79375 1.854606,0.79375 0.865463,0 1.095403,-0.10885 1.248422,-0.59097 l 0.187566,-0.59097 0.236692,0.63984 c 0.37713,1.01948 0.09222,1.33917 -1.163173,1.30515 -0.623031,-0.0169 -1.370908,-0.0887 -1.66195,-0.1596 z m -3.242864,-0.7 c -0.250297,-0.54935 -0.197209,-0.72851 0.374526,-1.26395 l 0.666162,-0.62388 -0.187774,1.05833 c -0.244441,1.37772 -0.49299,1.61944 -0.852914,0.8295 z m 23.40673,-0.69684 c 0.100979,-0.38614 0.0083,-0.52953 -0.342174,-0.52953 -0.352933,0 -0.402411,-0.0782 -0.186205,-0.29445 0.161946,-0.16194 0.423883,-0.21445 0.582084,-0.11667 0.348574,0.21543 0.381085,1.11589 0.04773,1.32191 -0.13195,0.0815 -0.177594,-0.09 -0.101433,-0.38126 z m -29.648428,-0.0658 c 0.0677,-0.10954 0.344445,-0.19916 0.614996,-0.19916 0.773933,0 1.328942,-0.28807 1.328942,-0.68976 0,-0.43847 0.07824,-0.42995 -1.029868,-0.11215 -1.088636,0.31222 -0.844961,-0.0126 0.30528,-0.40694 1.085925,-0.37229 1.310993,-0.9854 0.317346,-0.86449 -0.559232,0.068 -0.749072,-0.0318 -0.807419,-0.42464 -0.04195,-0.28248 -0.138717,-0.76236 -0.215026,-1.0664 -0.121712,-0.48494 0.542216,-1.91896 0.90052,-1.94504 0.07276,-0.005 0.429948,-0.11651 0.79375,-0.24715 0.694691,-0.24945 2.183553,-0.29032 2.341235,-0.0643 0.166629,0.23889 -0.285263,2.77053 -0.554924,3.10885 -0.144983,0.1819 -0.546683,0.33073 -0.892666,0.33073 -0.402444,0 -0.629062,0.15379 -0.629062,0.42691 0,0.32384 0.191633,0.39878 0.79375,0.31041 0.541653,-0.0795 0.79375,-0.005 0.79375,0.23455 0,0.21367 -0.310633,0.35105 -0.79375,0.35105 -0.552253,0 -0.79375,0.1292 -0.79375,0.42467 0,0.33587 0.221279,0.40356 1.058333,0.32373 0.816627,-0.0779 1.058295,-0.009 1.058163,0.30294 -1.41e-4,0.3318 -0.420625,0.404 -2.356428,0.40459 -1.295941,3.9e-4 -2.300869,-0.0889 -2.233172,-0.19844 z m 1.790006,-2.74101 c 0.230183,-0.0883 0.418515,-0.39872 0.418515,-0.68976 0,-0.37383 -0.122856,-0.48202 -0.418515,-0.36857 -0.230183,0.0883 -0.468308,0.1606 -0.529166,0.1606 -0.06086,0 -0.110652,0.23812 -0.110652,0.52917 0,0.58264 0.03276,0.60151 0.639818,0.36856 z m 1.741431,-0.91713 c 0,-0.37865 -0.142482,-0.52113 -0.459982,-0.45998 -0.689699,0.13282 -0.766617,1.00855 -0.08858,1.00855 0.378645,0 0.548567,-0.16993 0.548567,-0.54857 z m -1.696583,-0.44767 c 0.158285,-0.10692 0.355498,-0.46228 0.438251,-0.7897 0.190068,-0.75203 -0.457176,-0.81572 -0.849025,-0.0835 -0.486335,0.90872 -0.282694,1.34163 0.410774,0.87324 z m 1.913423,-0.91929 c -0.12238,-0.85778 -0.913005,-0.91809 -1.072865,-0.0818 -0.109585,0.57326 -0.03244,0.67444 0.514243,0.67444 0.514898,0 0.626308,-0.11819 0.558622,-0.59261 z m 6.059752,4.75169 c -0.07151,-0.18636 0.153873,-0.47281 0.500859,-0.63656 0.703248,-0.33188 0.89681,0.0745 0.313383,0.6579 -0.408383,0.40838 -0.651791,0.402 -0.814242,-0.0213 z m -13.155758,-0.196 c 0,-0.14864 0.297656,-0.40588 0.661458,-0.57164 0.363802,-0.16576 0.671249,-0.37157 0.683216,-0.45735 0.01197,-0.0858 0.07527,-0.48117 0.140682,-0.87863 0.112698,-0.68483 0.07346,-0.7156 -0.749361,-0.58757 l -0.868287,0.13511 0.859896,-0.45263 c 0.612905,-0.32262 0.859896,-0.63877 0.859896,-1.1007 0,-0.59841 -0.07429,-0.63602 -0.969352,-0.49077 -1.358355,0.22043 -0.804168,-0.20385 1.098304,-0.84084 1.175968,-0.39375 1.635108,-0.45032 1.781886,-0.21955 0.351074,0.55196 0.221669,0.70774 -0.587921,0.70774 -0.673926,0 -0.79375,0.1016 -0.79375,0.67306 0,0.47994 0.124974,0.65075 0.435572,0.59531 0.239564,-0.0428 0.487611,0.0711 0.551215,0.25298 0.06845,0.19576 -0.109312,0.33073 -0.435572,0.33073 -0.411574,0 -0.551215,0.16757 -0.551215,0.66146 0,0.75027 0.07309,0.78013 0.87729,0.35838 0.573057,-0.30054 0.573697,-0.29833 0.07603,0.26222 -0.465625,0.52445 -2.575647,1.89294 -2.918662,1.89294 -0.08323,0 -0.151323,-0.12161 -0.151323,-0.27025 z m 15.663433,-0.50837 c -0.517816,-0.70039 -0.702572,-0.77036 -1.83859,-0.69638 -0.69461,0.0452 -1.648577,0.16696 -2.119927,0.27049 -0.980063,0.21525 -1.165525,-0.18583 -0.327833,-0.70897 0.734625,-0.45878 0.66188,-0.77574 -0.132292,-0.57642 -0.363802,0.0913 -0.661458,0.0548 -0.661458,-0.0811 0,-0.13593 0.297656,-0.52678 0.661458,-0.86855 0.547531,-0.51438 0.661459,-0.54511 0.661459,-0.17841 0,0.5772 0.505796,0.56673 0.967318,-0.02 0.314612,-0.39998 0.320548,-0.35495 0.0436,0.33073 -0.17633,0.43656 -0.433356,0.94546 -0.57117,1.13087 -0.377666,0.50812 -0.03243,0.67297 0.433535,0.20701 0.303132,-0.30313 0.435341,-0.32324 0.517638,-0.0787 0.08556,0.2542 0.209888,0.24635 0.550428,-0.0347 0.547976,-0.45234 0.574782,-0.86265 0.04303,-0.6586 -0.594977,0.22831 -0.485836,-0.51522 0.132291,-0.90125 0.660683,-0.4126 0.69137,-1.11974 0.04859,-1.11974 -0.264315,0 -1.164786,0.12649 -2.001046,0.28108 -2.014566,0.37241 -2.544932,0.16329 -0.69338,-0.27339 1.026001,-0.24198 1.857843,-0.68392 2.820324,-1.49837 1.497662,-1.26731 1.677592,-1.34818 1.677592,-0.75399 0,0.22063 -0.416718,0.59987 -0.926041,0.84275 -1.247265,0.59478 -1.167165,0.93063 0.198437,0.83203 1.087319,-0.0785 1.168346,-0.0149 1.031875,0.80971 -0.02183,0.13189 -0.267618,0.1802 -0.5462,0.10735 -0.337455,-0.0882 -0.609539,0.0601 -0.815187,0.44431 -0.401691,0.75057 -0.06965,1.08024 0.417291,0.41431 0.206383,-0.28225 0.375242,-0.38741 0.375242,-0.2337 0,0.1537 -0.251698,0.59945 -0.55933,0.99054 -0.647921,0.8237 -0.460543,1.2163 0.341461,0.71544 0.513188,-0.3205 0.540259,-0.29857 0.386725,0.31316 -0.173667,0.69194 0.169811,0.97752 1.1757,0.97752 0.613258,0 0.67088,0.40987 0.08901,0.63315 -0.663318,0.25454 -0.771113,0.20629 -1.380552,-0.61802 z m 25.346982,0.51827 c -0.297547,-0.18911 -0.20545,-0.23776 0.36798,-0.19438 1.06464,0.0805 1.16221,-0.51104 0.17587,-1.06633 -0.62686,-0.35291 -0.80547,-0.62093 -0.74955,-1.12477 0.0608,-0.54825 0.22058,-0.66599 0.9333,-0.68792 0.70792,-0.0218 0.85848,0.0718 0.85185,0.52917 -0.007,0.50449 -0.0329,0.51301 -0.27773,0.0926 -0.32129,-0.55163 -1.30172,-0.62113 -1.30172,-0.0923 0,0.20391 0.41672,0.61661 0.92604,0.91712 1.03279,0.60936 1.1847,1.20093 0.41427,1.61325 -0.62596,0.33501 -0.83127,0.33708 -1.34031,0.0135 z m 11.37708,0.007 c -0.9393,-0.23417 -1.00101,-1.16702 -0.13056,-1.97373 0.38443,-0.35627 0.67643,-0.86406 0.64888,-1.12842 -0.0903,-0.86677 0.004,-1.11986 0.52085,-1.39643 1.19172,-0.63779 1.94054,0.49934 0.93965,1.42693 l -0.66191,0.61344 0.532,0.62833 c 0.52511,0.62021 0.5372,0.62159 0.93488,0.10676 0.22159,-0.28687 0.34447,-0.67382 0.27306,-0.8599 -0.0816,-0.21264 0.0882,-0.33681 0.45719,-0.33427 0.32285,0.002 0.46519,0.0915 0.31631,0.19844 -0.36469,0.26188 -1.18451,1.56794 -1.18451,1.88704 0,0.44572 1.06202,0.61702 1.53405,0.24744 0.40536,-0.31739 0.41407,-0.30636 0.0872,0.11043 -0.41724,0.53201 -1.78729,0.62481 -1.95305,0.13229 -0.0821,-0.24404 -0.20929,-0.2548 -0.48507,-0.0411 -0.58243,0.45137 -1.11043,0.56186 -1.82897,0.38272 z m 1.71629,-0.53442 c 0.088,-0.1424 -0.10768,-0.62099 -0.43486,-1.06353 -0.58467,-0.79081 -0.60351,-0.79598 -1.09814,-0.30135 -0.72534,0.72534 -0.38634,1.6238 0.61268,1.6238 0.41817,0 0.83231,-0.11652 0.92032,-0.25892 z m 0.26809,-2.82159 c 0.39515,-0.39516 0.39687,-0.47247 0.0189,-0.85045 -0.374,-0.37399 -0.45663,-0.37491 -0.82237,-0.009 -0.23003,0.23002 -0.33264,0.59934 -0.23628,0.85044 0.21436,0.55861 0.48791,0.56102 1.03975,0.009 z m 30.02162,3.24862 c 0.40942,-0.52019 0.21814,-0.78147 -1.21682,-1.66217 -0.39722,-0.24379 -0.43681,-0.39979 -0.20144,-0.79375 0.16111,-0.26967 0.5183,-0.51995 0.79375,-0.55618 0.36876,-0.0485 0.33936,0.003 -0.11151,0.1962 -0.7177,0.30716 -0.57773,0.64559 0.4968,1.20125 0.87565,0.45282 1.00992,1.19905 0.31395,1.74487 -0.42591,0.33402 -0.4319,0.32359 -0.0747,-0.13022 z M 80.122032,109.2282 c -0.07081,-1.86127 -0.01708,-2.24957 0.311289,-2.24958 0.326904,0 0.381661,0.37329 0.310582,2.11729 l -0.08629,2.11729 h 1.157855 c 0.636821,0 1.307785,-0.14883 1.491031,-0.33073 0.26714,-0.26518 0.298238,-0.23896 0.156901,0.13229 -0.139999,0.36774 -0.493137,0.46302 -1.716027,0.46302 H 80.20762 Z m 4.553931,1.73781 c -0.38027,-0.71054 -0.342055,-1.41252 0.109823,-2.01735 0.371016,-0.49659 0.378788,-0.49403 0.234835,0.0775 -0.368473,1.46286 0.716714,2.65531 1.709251,1.87819 0.405363,-0.31739 0.414069,-0.30636 0.0872,0.11043 -0.495186,0.63141 -1.792909,0.60186 -2.141107,-0.0487 z m 3.752396,0.18104 c -0.38868,-0.47288 -0.459772,-1.0188 -0.240664,-1.84805 0.248995,-0.94237 1.316251,-1.24999 2.04587,-0.5897 0.762621,0.69017 0.638551,0.92076 -0.473682,0.88036 -0.614197,-0.0223 -0.765393,-0.0797 -0.396875,-0.15069 0.681098,-0.13118 0.786299,-0.55034 0.195068,-0.77722 -1.050118,-0.40297 -1.592411,1.30902 -0.67705,2.13741 0.535458,0.48458 1.606461,0.36654 1.606461,-0.17706 0,-0.15997 0.0765,-0.21435 0.169995,-0.12085 0.0935,0.0935 0.01939,0.35146 -0.164688,0.57326 -0.403992,0.48678 -1.686903,0.53186 -2.064435,0.0725 z m 8.673711,-1.81597 v -2.14669 l -0.79375,0.11649 c -0.436562,0.0641 -0.79375,0.0181 -0.79375,-0.10226 0,-0.12032 0.892969,-0.21876 1.984375,-0.21876 1.091406,0 1.984375,0.0952 1.984375,0.21146 0,0.1163 -0.429987,0.16125 -0.955528,0.0999 l -0.955528,-0.11155 0.09759,2.14905 c 0.07272,1.60136 0.01281,2.14906 -0.235097,2.14906 -0.239862,0 -0.332691,-0.59898 -0.332691,-2.1467 z m 5.82083,1.62363 c 0,-0.51612 1.204,-1.53613 1.48341,-1.25672 0.0792,0.0792 -0.10313,0.2224 -0.40513,0.31825 -0.66762,0.2119 -0.72815,1.11137 -0.0861,1.27916 0.28487,0.0744 0.18307,0.1328 -0.26458,0.15169 -0.55874,0.0236 -0.72761,-0.0907 -0.72761,-0.49238 z m 1.82755,0.32463 c -0.0135,-0.10914 -0.004,-0.70473 0.02,-1.32354 0.0517,-1.30526 -0.60261,-1.83428 -1.22164,-0.98772 -0.19573,0.26768 -0.44622,0.39636 -0.55663,0.28594 -0.25394,-0.25394 0.67834,-0.95124 1.27179,-0.95124 0.67458,0 0.97335,0.53075 1.07982,1.91823 0.0678,0.88401 -0.002,1.25677 -0.23619,1.25677 -0.18295,0 -0.34367,-0.0893 -0.35717,-0.19844 z m 2.09954,-1.25427 c -0.0585,-0.93713 0.0187,-1.49451 0.21746,-1.57051 0.20745,-0.0793 0.33708,0.39536 0.39687,1.45319 0.0602,1.06474 -0.01,1.57084 -0.21745,1.57051 -0.18366,-2.9e-4 -0.34252,-0.58195 -0.39688,-1.45319 z m 12.60937,-0.79625 v -2.24896 h 1.08347 c 1.61046,0 2.44554,1.06341 1.54347,1.96548 -0.53286,0.53285 -1.09286,0.56148 -0.65465,0.0335 0.56094,-0.67589 0.23314,-1.59189 -0.60399,-1.68779 l -0.74836,-0.0857 0.0869,2.13687 c 0.0717,1.76188 0.0173,2.13675 -0.30996,2.13624 -0.32161,-5e-4 -0.39688,-0.42717 -0.39688,-2.24958 z m 3.93085,1.84872 c -0.16756,-0.43666 0.32852,-1.18726 0.78467,-1.18726 0.18575,0 0.17446,0.11064 -0.0324,0.3175 -0.45659,0.45658 -0.39091,0.94743 0.14552,1.08762 0.34375,0.0898 0.30754,0.1289 -0.1406,0.15169 -0.33199,0.0169 -0.67273,-0.14942 -0.7572,-0.36955 z m 1.73418,0.2018 c -0.0129,-0.10914 -0.004,-0.76398 0.0196,-1.45521 0.0377,-1.09964 -0.0238,-1.25677 -0.49251,-1.25677 -0.2946,0 -0.65699,0.20836 -0.80532,0.46302 -0.25386,0.43586 -0.27016,0.43615 -0.27773,0.005 -0.0103,-0.58561 1.18083,-0.90868 1.71518,-0.46521 0.23642,0.19622 0.39344,0.77996 0.39344,1.46271 0,0.66138 0.13821,1.19195 0.33073,1.26963 0.1819,0.0734 0.0628,0.14285 -0.26459,0.15434 -0.32742,0.0115 -0.60589,-0.0684 -0.61882,-0.17755 z m 2.00789,-1.25969 c 0,-1.1294 0.0821,-1.42662 0.36426,-1.31836 0.20035,0.0769 0.53282,-1e-4 0.73882,-0.17107 0.2837,-0.23545 0.44885,-0.23655 0.68084,-0.005 0.23199,0.23199 0.17295,0.30629 -0.2434,0.30629 -0.8003,0 -1.21775,0.65493 -1.09386,1.71614 0.0632,0.54143 -0.007,0.92969 -0.16906,0.92969 -0.16017,0 -0.2776,-0.61685 -0.2776,-1.45813 z m 2.73548,-0.12593 c -0.0558,-0.98514 0.0354,-1.75453 0.24108,-2.03494 0.27585,-0.37608 0.33073,-0.13885 0.33073,1.42971 0,1.25692 0.10968,1.92487 0.33073,2.01406 0.1819,0.0734 0.0734,0.14285 -0.24108,0.15434 -0.51521,0.0188 -0.58069,-0.13591 -0.66146,-1.56317 z m 2.38506,0.36097 c 0.0604,-0.75977 -0.0224,-1.29708 -0.21871,-1.41839 -0.22839,-0.14116 -0.19982,-0.23988 0.10307,-0.3561 0.23048,-0.0884 0.42621,-0.0752 0.43496,0.0293 0.13273,1.58662 0.0628,2.96861 -0.1501,2.96845 -0.15451,-1.1e-4 -0.22562,-0.51413 -0.16922,-1.22328 z m 1.89092,-0.0469 c 0,-0.6985 -0.14288,-1.41288 -0.3175,-1.5875 -0.17639,-0.17639 -0.19991,-0.3175 -0.0529,-0.3175 0.57256,0 0.89958,0.69252 0.89958,1.905 0,0.6985 -0.11906,1.27 -0.26458,1.27 -0.14552,0 -0.26458,-0.5715 -0.26458,-1.27 z m 2.10906,0.86396 c -1.09912,-1.32436 0.61208,-3.64615 1.80677,-2.45146 0.38528,0.38528 0.41792,1.00542 0.0529,1.00542 -0.14553,0 -0.26459,-0.17157 -0.26459,-0.38126 0,-0.52315 -0.43062,-0.74401 -1.0607,-0.54403 -0.3643,0.11562 -0.5268,0.4007 -0.5268,0.92422 0,1.01135 0.6848,1.67328 1.51541,1.46481 0.4142,-0.10396 0.58464,-0.0634 0.47552,0.11315 -0.25818,0.41775 -1.61708,0.32878 -1.99853,-0.13085 z m 3.31489,-1.04624 c 0,-0.91775 0.12173,-1.499 0.33073,-1.5792 0.1819,-0.0698 0.33073,0.003 0.33073,0.16176 0,0.19429 0.12598,0.18412 0.38529,-0.0311 0.21431,-0.17786 0.536,-0.22661 0.72493,-0.10984 0.23818,0.1472 0.14284,0.256 -0.31914,0.36416 -0.57084,0.13364 -0.66955,0.3206 -0.73943,1.40036 -0.11708,1.80924 -0.71311,1.63692 -0.71311,-0.20616 z m 2.51355,1.0554 c 0,-0.21828 0.0468,-0.39687 0.10398,-0.39687 0.0572,0 0.17252,0.17859 0.25628,0.39687 0.0838,0.21829 0.037,0.39688 -0.10399,0.39688 -0.14095,0 -0.25627,-0.17859 -0.25627,-0.39688 z m -56.157815,-1.64193 c 0.327422,-0.0631 0.595312,-0.22928 0.595312,-0.36937 0,-0.14009 -0.26789,-0.36238 -0.595312,-0.49399 -0.327422,-0.13161 -0.438657,-0.24684 -0.247189,-0.25606 0.57613,-0.0278 1.371668,0.505 1.371668,0.91858 0,0.26826 -0.264714,0.37647 -0.859896,0.35153 -0.621839,-0.026 -0.695087,-0.0678 -0.264583,-0.15069 z m 20.968225,-2.45911 c 0,-0.14552 0.11907,-0.26458 0.26459,-0.26458 0.14552,0 0.26458,0.11906 0.26458,0.26458 0,0.14552 -0.11906,0.26459 -0.26458,0.26459 -0.14552,0 -0.26459,-0.11907 -0.26459,-0.26459 z m -36.238937,-0.91522 c -0.246563,-0.29709 -0.165308,-0.46642 0.402281,-0.83832 0.736038,-0.48227 1.705411,-0.68139 1.705411,-0.35031 0,0.10393 -0.404712,0.49765 -0.89936,0.87494 -0.757554,0.57781 -0.948077,0.62727 -1.208332,0.31369 z"
         id="path2" /><path
         style="fill:#e5ba5e"
         d="m 123.38467,111.06312 c -0.0875,-0.22806 -0.0397,-0.53406 0.10621,-0.67999 0.17739,-0.17738 0.30842,-0.0399 0.39532,0.41466 0.141,0.7376 -0.24245,0.94046 -0.50153,0.26533 z m 12.84198,-0.0484 c -0.3291,-0.41965 -0.31975,-0.429 0.0999,-0.0999 0.44073,0.34565 0.58089,0.56292 0.36312,0.56292 -0.0549,0 -0.2633,-0.20836 -0.46302,-0.46302 z m -3.87361,-0.59531 c 0,-0.50933 0.0545,-0.71769 0.121,-0.46302 0.0666,0.25466 0.0666,0.67138 0,0.92604 -0.0666,0.25466 -0.121,0.0463 -0.121,-0.46302 z m 11.60117,0.48085 c -0.0115,-0.24486 -0.25831,-0.52055 -0.54849,-0.61265 -0.64435,-0.20451 -1.32448,-0.8561 -1.32448,-1.26889 0,-0.16751 0.18534,-0.0399 0.41187,0.28348 0.22654,0.32342 0.56914,0.58804 0.76136,0.58804 0.48241,0 1.02267,0.70324 0.85704,1.11558 -0.0886,0.22066 -0.14373,0.18368 -0.1573,-0.10556 z m -30.83088,-0.72284 c -0.0852,-0.13784 -0.0421,-0.32032 0.0957,-0.40551 0.13784,-0.0852 0.32032,-0.0421 0.40551,0.0957 0.0852,0.13784 0.0421,0.32032 -0.0957,0.40551 -0.13783,0.0852 -0.32031,0.0421 -0.4055,-0.0957 z m 1.59054,-0.8939 c 0.0994,-0.26094 0.24731,-0.40779 0.32877,-0.32632 0.0815,0.0815 1.7e-4,0.29495 -0.18066,0.47443 -0.2613,0.25936 -0.29169,0.22897 -0.14811,-0.14811 z m 12.59248,-0.18703 c 0,-0.3638 0.0601,-0.51263 0.13345,-0.33073 0.0734,0.1819 0.0734,0.47956 0,0.66146 -0.0734,0.1819 -0.13345,0.0331 -0.13345,-0.33073 z m -5.46574,-0.26458 c 0.0899,-0.14552 0.21603,-0.26459 0.2802,-0.26459 0.0642,0 0.11668,0.11907 0.11668,0.26459 0,0.14552 -0.12609,0.26458 -0.2802,0.26458 -0.15411,0 -0.20662,-0.11906 -0.11668,-0.26458 z m 10.57245,-0.0176 c -0.0959,-0.1552 -0.11765,-0.33893 -0.0483,-0.40828 0.0694,-0.0694 0.19661,0.0576 0.28278,0.28218 0.1789,0.46623 0.0264,0.54824 -0.23448,0.1261 z m -20.18796,-1.04073 c 0,-0.3638 0.0601,-0.51263 0.13345,-0.33073 0.0734,0.1819 0.0734,0.47956 0,0.66146 -0.0734,0.1819 -0.13345,0.0331 -0.13345,-0.33073 z m 9.35093,-0.26458 c -0.0899,-0.14552 -0.0445,-0.26458 0.10106,-0.26458 0.14552,0 0.33817,0.11906 0.4281,0.26458 0.0899,0.14552 0.0445,0.26458 -0.10106,0.26458 -0.14552,0 -0.33817,-0.11906 -0.4281,-0.26458 z m -47.492709,-2.48115 c 0,-0.0549 0.20836,-0.2633 0.463021,-0.46302 0.419644,-0.3291 0.429002,-0.31975 0.0999,0.0999 -0.345644,0.44073 -0.562916,0.58089 -0.562916,0.36312 z"
         id="path1" /></g></g></svg>
