<?xml version="1.0" encoding="UTF-8" standalone="no"?>
<!-- Created with Inkscape (http://www.inkscape.org/) -->

<svg
   version="1.1"
   id="svg1"
   width="346"
   height="41"
   viewBox="0 0 346 41"
   sodipodi:docname="lee-tsai.svg"
   inkscape:version="1.4.3 (0d15f75, 2025-12-25)"
   xmlns:inkscape="http://www.inkscape.org/namespaces/inkscape"
   xmlns:sodipodi="http://sodipodi.sourceforge.net/DTD/sodipodi-0.dtd"
   xmlns="http://www.w3.org/2000/svg"
   xmlns:svg="http://www.w3.org/2000/svg">
  <defs
     id="defs1" />
  <sodipodi:namedview
     id="namedview1"
     pagecolor="#ffffff"
     bordercolor="#000000"
     borderopacity="0.25"
     inkscape:showpageshadow="2"
     inkscape:pageopacity="0.0"
     inkscape:pagecheckerboard="0"
     inkscape:deskcolor="#d1d1d1"
     inkscape:zoom="1.78"
     inkscape:cx="173.31461"
     inkscape:cy="20.505618"
     inkscape:current-layer="g1" />
  <g
     inkscape:groupmode="layer"
     inkscape:label="Image"
     id="g1">
    <g
       id="g2">
      <path
         style="fill:#f9f4e7"
         d="M 62.269925,37.296878 C 59.61973,36.784971 56,32.494507 56,29.865141 56,28.839314 55.55,28 55,28 c -0.55,0 -1,1.5199 -1,3.377555 0,1.857656 -0.646977,3.914499 -1.437727,4.570763 -1.173318,0.973768 -1.739388,0.609859 -3.078015,-1.978761 -1.554397,-3.00587 -1.539957,-3.242243 0.275757,-4.514018 1.053825,-0.738128 3.1024,-2.897441 4.552388,-4.798474 2.356278,-3.089239 2.4266,-3.401574 0.661969,-2.940112 -2.903693,0.759333 -2.53354,-2.331909 0.602206,-5.029164 l 2.576577,-2.216278 -3.231399,0.01424 C 50.4603,14.505422 50.108923,12.389749 54.438739,11.57747 57.632146,10.978384 57.849903,10.732519 56.748752,8.9692961 55.73115,7.3398562 55.869152,6.6864036 57.595448,4.960108 60.096631,2.4589245 66,1.415804 66,3.4750304 c 0,0.7590076 -1.4625,2.5326387 -3.25,3.9414024 -1.7875,1.4087638 -2.623516,2.5663788 -1.857813,2.5724779 0.765702,0.0061 3.832973,-2.07414 6.816157,-4.6227536 3.491132,-2.9825672 5.768428,-4.2893847 6.390596,-3.6672174 1.4288,1.4288001 0.02722,4.1640398 -2.967514,5.7912125 -2.024401,1.0999486 -2.212566,1.4390085 -0.815685,1.4698102 0.998658,0.022021 2.655941,-0.4096235 3.682852,-0.9592093 C 75.491819,7.2016029 75.99373,7.4048842 76.505048,9.0159033 77.121793,10.959096 74.648983,16.176006 71.180098,20.25 70.2181,21.379808 70.099347,22 70.845012,22 71.480256,22 72,21.5125 72,20.916667 c 0,-0.595834 0.5625,-0.893863 1.25,-0.662289 0.6875,0.231575 1.258613,1.503647 1.26914,2.826828 0.01484,1.864905 0.670761,2.519658 2.917501,2.912289 3.858764,0.674341 4.355661,2.688385 1.036392,4.200746 -2.490504,1.134749 -2.887254,0.973986 -5.50161,-2.229255 C 69.858278,24.150603 69.884045,24.146492 68.051269,28.75 66.592812,32.413305 64.574846,32.942626 63.035184,30.065741 61.601911,27.387647 61.716445,27 63.940983,27 c 1.067541,0 2.176266,-0.380696 2.463834,-0.845991 0.492431,-0.79677 -8.438906,-0.36743 -9.312515,0.447664 -0.224235,0.209215 1.00917,1.734426 2.740898,3.389359 C 62.262281,32.312392 63.897955,33 66.990898,33 70.625263,33 71,32.760804 71,30.440983 c 0,-3.044776 1.697197,-2.367615 3.061826,1.221631 1.563012,4.111035 -0.377687,6.361764 -5.34701,6.201204 -2.318149,-0.0749 -5.21835,-0.330023 -6.444891,-0.56694 z M 64,18.642204 C 64,17.371661 63.5381,17.938968 62.080288,21 60.957643,23.357268 60.978456,23.389176 62.444834,21.55887 63.300175,20.491249 64,19.178749 64,18.642204 Z M 62,15.5 C 62,14.675 61.339123,14 60.531385,14 59.636792,14 59.28775,14.586289 59.638374,15.5 59.954956,16.325 60.615833,17 61.106989,17 61.598145,17 62,16.325 62,15.5 Z m 6,-1.535184 C 68,13.434167 67.1,13 66,13 c -1.344859,0 -2,0.666667 -2,2.035184 0,1.725306 0.30452,1.872209 2,0.964816 1.1,-0.588702 2,-1.504535 2,-2.035184 z m 3.806872,0.508723 c -0.307887,-0.307888 -0.867048,0.247112 -1.242579,1.233333 -0.542685,1.425198 -0.427821,1.540062 0.559795,0.559795 0.683418,-0.678334 0.990671,-1.485241 0.682784,-1.793128 z M 135,34.04969 c 0,-0.52267 0.7875,-1.39668 1.75,-1.942245 1.65582,-0.938549 1.65096,-1.065148 -0.0903,-2.352303 -1.67091,-1.23515 -1.69392,-1.481855 -0.25,-2.6802 1.27287,-1.056388 1.88971,-1.071347 3.0903,-0.07494 2.08657,1.731697 1.87378,3.573862 -0.68856,5.961045 C 136.45511,35.156302 135,35.571918 135,34.04969 Z M 25.34812,31.754253 c -0.253493,-0.41016 0.576978,-1.148417 1.845492,-1.640571 7.066173,-2.74151 7.455363,-3.05287 3.056388,-2.445178 -5.422092,0.74903 -5.588722,-0.950838 -0.25,-2.550358 2.2,-0.659136 4,-1.646198 4,-2.193471 0,-0.632506 -0.734092,-0.602169 -2.014837,0.08327 -1.52338,0.815289 -2.111694,0.762891 -2.411928,-0.214816 -0.2184,-0.711218 -0.869434,-2.773178 -1.446742,-4.582133 -0.870538,-2.727771 -0.716438,-3.836932 0.903069,-6.5 C 30.103559,9.9449461 31.142107,8.725 31.337447,9 31.532787,9.275 32.324273,8.9820721 33.096305,8.349049 33.868337,7.716026 36.75,7.041026 39.5,6.849049 L 44.5,6.5 44.269053,11.896448 C 44.021726,17.675663 42.143894,21.58436 39.274634,22.292305 38.298585,22.53313 38.7375,22.57713 40.25,22.390084 42.584636,22.101367 43,22.41471 43,24.464635 c 0,1.96996 -0.598513,2.493258 -3.25,2.841568 -2.179128,0.286259 -1.916061,0.354112 0.798384,0.205927 3.707704,-0.202407 4.065084,-0.0018 4.246835,2.383432 L 44.99367,32.5 h -9.592326 c -5.27578,0 -9.799731,-0.335586 -10.053224,-0.745747 z M 34,17.940983 C 34,17.423442 33.55,17 33,17 c -0.55,0 -1,0.701558 -1,1.559017 0,0.857459 0.45,1.280902 1,0.940983 0.55,-0.339919 1,-1.041476 1,-1.559017 z M 39.5,17 C 39.839919,16.45 39.416476,16 38.559017,16 37.701558,16 37,16.45 37,17 c 0,0.55 0.423442,1 0.940983,1 0.517541,0 1.219098,-0.45 1.559017,-1 z M 34.435295,11.101961 C 33.807603,10.474269 32.022612,13.014058 32.047116,14.5 c 0.0091,0.55 0.67253,0.13285 1.474355,-0.926999 0.801825,-1.05985 1.213046,-2.171818 0.913824,-2.47104 z M 40.25,11.486305 c -0.425611,-1.6791305 -1.971999,-1.6531463 -2.623286,0.04408 -0.445817,1.161781 -0.129648,1.520537 1.126793,1.278569 C 39.714078,12.623965 40.3875,12.028773 40.25,11.486305 Z M 13.666667,30.333333 c -1.358018,-1.358017 -0.573589,-2.879102 2.339656,-4.536823 3.819949,-2.173662 4.169578,-5.743954 0.493677,-5.041261 -3.361545,0.6426 -3.361545,-2.041673 0,-3.573295 C 17.875,16.555462 19,15.308149 19,14.410148 19,13.08577 18.339001,12.901422 15.5,13.434022 9.5886545,14.542997 11.178902,11.538195 17.75,9.182606 27.096718,5.8320199 27.701159,5.7476414 28.213279,7.7219572 28.95097,10.565891 28.013474,12 25.416667,12 23.958139,12 23,12.582263 23,13.468615 c 0,0.833156 0.593204,1.240982 1.370958,0.94253 1.467964,-0.563311 3.007154,2.168041 2.073269,3.679097 C 26.134984,18.590609 25.233524,19 24.440983,19 23.648442,19 23,19.690833 23,20.535184 c 0,1.24632 0.39244,1.325156 2.085646,0.418979 1.147106,-0.613912 2.282698,-0.919152 2.523539,-0.678311 1.207077,1.207077 -1.399891,4.059669 -6.593276,7.214484 -6.243106,3.792486 -6.356059,3.836181 -7.349242,2.842997 z M 90,29 c 0,-0.55 0.45,-1 1,-1 0.577778,0 1,-3.166667 1,-7.5 0,-4.333333 -0.422222,-7.5 -1,-7.5 -0.55,0 -1,-0.45 -1,-1 0,-0.55 2.025,-1 4.5,-1 2.475,0 4.5,0.45 4.5,1 0,0.55 -0.694714,1 -1.54381,1 -1.276803,0 -1.492994,1.253907 -1.25,7.25 0.285329,7.040729 0.37144,7.258965 2.983233,7.560577 1.727457,0.199488 3.456267,-0.456268 4.833337,-1.833333 2.56556,-2.565561 3.306,-2.135307 2.4175,1.404757 C 105.80092,29.929328 105.57015,30 97.891592,30 93.297197,30 90,29.582189 90,29 Z m 19.5567,-1.222506 c -2.23913,-3.196807 -1.92058,-6.504524 0.89785,-9.322949 2.93603,-2.936034 4.56751,-3.067022 7.60142,-0.610303 2.11145,1.709742 2.27294,5.38334 0.22186,5.046612 C 115.26732,22.396617 112,23.199032 112,24.432612 c 0,2.329011 3.89523,2.972179 6.07166,1.002533 2.14135,-1.937892 2.60589,-0.569681 0.89316,2.630596 -1.50595,2.813893 -7.36094,2.634506 -9.40812,-0.288247 z m 5.6933,-8.439775 c -0.6875,-0.277412 -1.8125,-0.277412 -2.5,0 -0.6875,0.277413 -0.125,0.504386 1.25,0.504386 1.375,0 1.9375,-0.226973 1.25,-0.504386 z m 9.06256,9.876616 c -2.00137,-1.272579 -3.12978,-5.519989 -2.15821,-8.123614 C 124.02638,16.074013 128.62913,14.62913 132,18 c 2.95561,2.955606 2.48967,3.804023 -2.5,4.552271 -4.71434,0.706959 -5.28205,1.265676 -3.3,3.247729 1.73959,1.739593 4.54869,1.471484 5.67531,-0.54167 0.53608,-0.957918 1.29439,-1.421961 1.68515,-1.031208 0.39075,0.390754 -0.0359,1.849505 -0.94805,3.24167 -1.66457,2.540454 -5.71126,3.391513 -8.29985,1.745543 z M 128.25,19.337719 c -0.6875,-0.277412 -1.8125,-0.277412 -2.5,0 -0.6875,0.277413 -0.125,0.504386 1.25,0.504386 1.375,0 1.9375,-0.226973 1.25,-0.504386 z M 154,29 c 0,-0.55 0.45,-1 1,-1 0.57778,0 1,-3.166667 1,-7.5 0,-6.068315 -0.29233,-7.5 -1.53138,-7.5 -0.84227,0 -1.79041,0.675 -2.10699,1.5 C 151.45386,16.865611 150,16.249994 150,13.5 c 0,-2.470588 0.1,-2.5 8.5,-2.5 8.4,0 8.5,0.02941 8.5,2.5 0,2.749994 -1.45386,3.365611 -2.36163,1 C 164.32179,13.675 163.14865,13 162.03138,13 160.17011,13 160,13.628042 160,20.5 c 0,6 0.3,7.5 1.5,7.5 0.825,0 1.5,0.45 1.5,1 0,0.55 -2.025,1 -4.5,1 -2.475,0 -4.5,-0.45 -4.5,-1 z m 13,-1.442502 C 167,26.150874 167.45,25 168,25 c 0.55,0 1,0.675 1,1.5 0,0.833333 0.88889,1.5 2,1.5 2.93134,0 2.43952,-1.721353 -1,-3.5 -2.07708,-1.074098 -3,-2.294407 -3,-3.966663 0,-2.886874 1.185,-3.747237 5.649,-4.101434 3.09624,-0.245672 3.351,-0.04412 3.351,2.651106 0,3.436042 -0.58817,3.627163 -2.83971,0.922746 -1.08682,-1.30543 -2.1184,-1.700504 -2.98662,-1.14381 -0.97823,0.62724 -0.37042,1.414431 2.31593,2.999415 2.98678,1.762244 3.58539,2.642949 3.32632,4.89381 -0.28253,2.454718 -0.76512,2.777331 -4.56592,3.052328 -3.9723,0.287406 -4.25,0.140389 -4.25,-2.25 z m 11.43266,0.230343 c -0.68314,-2.152402 0.49069,-3.607004 5.12407,-6.349703 1.15273,-0.682352 1.50136,-1.535122 0.97547,-2.386032 -0.62816,-1.016394 -1.23743,-0.769586 -2.6213,1.061862 -1.491,1.973239 -2.02851,2.157497 -3.10691,1.065049 -1.07411,-1.088109 -0.88781,-1.661045 1.05679,-3.25 C 184.51854,14.123122 189,16.79984 189,23.387758 c 0,2.232207 0.4016,3.482075 1,3.112242 1.45341,-0.898255 1.22866,1.081793 -0.25,2.20256 -0.6875,0.521097 -3.36064,1.015292 -5.9403,1.098211 -3.99978,0.128567 -4.79141,-0.167788 -5.37704,-2.01293 z M 185,24.893011 C 185,23.851855 184.80714,23 184.57143,23 c -1.07446,0 -3.53218,3.254499 -3.0486,4.036946 C 182.42682,28.499621 185,26.91306 185,24.893011 Z M 191.8,28.8 c 1.58596,-1.585958 1.5479,-8.505769 -0.05,-9.091667 -1.61266,-0.591309 -0.0463,-2.242966 3,-3.163326 2.1608,-0.652833 2.25,-0.439251 2.25,5.387605 C 197,25.310871 197.44321,28 198,28 c 0.55,0 1,0.45 1,1 0,0.55 -1.89,1 -4.2,1 -3.26667,0 -3.93333,-0.266667 -3,-1.2 z m 17.4,0 c -1.9081,-1.908101 -1.40499,-4.685921 1.34717,-7.438076 1.40094,-1.400942 2.47412,-3.292987 2.38484,-4.204546 -0.31385,-3.204557 0.0899,-4.125627 2.50093,-5.705397 1.82671,-1.196902 2.9187,-1.334158 4.38235,-0.550833 3.12933,1.674762 3.3993,3.975172 0.77456,6.59991 -2.0977,2.097703 -2.22109,2.610684 -1.00893,4.19447 1.20329,1.572179 1.50931,1.611374 2.37725,0.304472 0.54789,-0.825 0.75112,-2.2875 0.45161,-3.25 -0.4371,-1.404676 0.0607,-1.75 2.52283,-1.75 3.76991,0 3.77316,0.579215 0.0279,4.960878 -2.62356,3.069339 -2.77042,3.565979 -1.29818,4.389889 1.07499,0.601591 2.30813,0.524283 3.49888,-0.219351 C 228.59449,25.2363 229,25.271609 229,26.291526 229,27.011187 228.46,28.14 227.8,28.8 c -1.45508,1.455077 -6.44106,1.589801 -7.30167,0.197296 -0.41425,-0.670273 -1.24086,-0.670273 -2.49328,0 C 215.44584,30.366947 210.6597,30.259703 209.2,28.8 Z m 7.69992,-1.716987 c 1.16126,-0.735249 1.05853,-1.320379 -0.60257,-3.432118 -1.50652,-1.915237 -2.28668,-2.261567 -3.14992,-1.398326 -1.47495,1.474951 -1.45688,3.03798 0.0526,4.547431 1.42118,1.421177 1.85044,1.454012 3.69992,0.283013 z m 2.44942,-11.550988 C 220.05458,13.694179 218.17965,12.420347 216.8,13.8 c -1.06741,1.06741 -0.29966,3.2 1.15203,3.2 0.4587,0 1.08748,-0.660589 1.39731,-1.467975 z M 238,29 c 0,-0.55 0.675,-1 1.5,-1 1.2,0 1.5,-1.5 1.5,-7.5 0,-6 -0.3,-7.5 -1.5,-7.5 -0.825,0 -1.5,-0.45 -1.5,-1 0,-0.552231 2.60856,-1 5.82569,-1 4.79655,0 6.20978,0.408858 8,2.314451 1.19587,1.272948 2.17431,2.847948 2.17431,3.5 C 254,18.883856 250.09396,22 247.5,22 c -2.11111,0 -2.5,0.466667 -2.5,3 0,1.65 0.45,3 1,3 0.55,0 1,0.45 1,1 0,0.55 -2.025,1 -4.5,1 -2.475,0 -4.5,-0.45 -4.5,-1 z m 10.83749,-11.897126 c 0.30508,-2.148434 -1.12942,-4.047583 -3.08749,-4.087561 -0.4125,-0.0084 -0.75,1.592683 -0.75,3.558011 0,2.863562 0.3476,3.507074 1.75,3.239784 0.9625,-0.183446 1.90187,-1.403052 2.08749,-2.710234 z m 7.17245,11.507068 c -1.83897,-1.838969 -1.05273,-3.652145 2.49006,-5.742443 3.62874,-2.141011 4.25779,-3.281123 2.43269,-4.409098 -0.5877,-0.36322 -1.31415,0.284299 -1.61663,1.440983 C 258.62176,22.554392 256,22.661758 256,20.035184 256,18.024554 258.69067,16 261.36283,16 264.04155,16 266,19.011448 266,23.130446 c 0,2.403748 0.39719,3.74211 1,3.369554 0.55,-0.339919 1,-0.141476 1,0.440983 C 268,27.523442 268.45,28 269,28 c 0.55,0 1,-1.8 1,-4 0,-2.2 -0.45,-4 -1,-4 -0.55,0 -1,-0.464501 -1,-1.032224 0,-1.468345 4.35541,-2.942911 5.125,-1.73512 0.39421,0.618676 0.87842,0.570833 1.31129,-0.129564 0.37745,-0.610738 1.74673,-0.844277 3.04283,-0.518977 1.74292,0.437446 2.6475,0.04781 3.4739,-1.496329 C 282.35161,12.474491 284,12.381917 284,14.916667 c 0,1.054166 0.5625,2.179166 1.25,2.5 1,0.466666 1,0.7 0,1.166666 -0.69624,0.324913 -1.25,2.365843 -1.25,4.606989 0,3.16574 0.31983,3.900927 1.5,3.448052 0.825,-0.316583 1.5,-0.139728 1.5,0.393011 C 287,27.564123 287.45,28 288,28 c 0.55,0 1,-1.8 1,-4 0,-2.2 -0.45,-4 -1,-4 -1.76416,0 -1.06876,-1.892835 1.12717,-3.068061 1.47021,-0.786833 2.32768,-0.814002 2.7764,-0.08797 0.41504,0.671548 1.18076,0.714313 2.12282,0.118558 2.02488,-1.280518 2.59108,-1.202202 4.40218,0.608903 0.95545,0.955453 1.57143,3.307359 1.57143,6 C 300,26.007143 300.45,28 301,28 c 0.55,0 1,0.45 1,1 0,0.577778 -3.16667,1 -7.5,1 -4.37535,0 -7.5,-0.420151 -7.5,-1.008474 0,-0.621627 -0.71638,-0.561087 -1.86753,0.157821 C 281.72027,31.2803 280,29.558507 280,24.012333 c 0,-5.002249 -0.0262,-5.044165 -2.75,-4.393127 C 273.18885,20.58991 273,20.809413 273,24.559017 273,26.951002 273.45728,28 274.5,28 c 0.825,0 1.5,0.425223 1.5,0.944941 0,1.270726 -18.69767,0.957385 -19.99006,-0.334999 z M 262,24.726697 c 0,-1.985831 -0.12723,-2.028043 -1.61832,-0.536944 -0.89008,0.890078 -1.30899,2.118847 -0.93091,2.730598 C 260.45685,28.548212 262,27.220303 262,24.726697 Z m 34,-1.333686 c 0,-3.790128 -0.28047,-4.499364 -1.58179,-4 C 293.54823,19.726855 292.64823,20 292.41821,20 292.1882,20 292,21.8 292,24 c 0,3.333333 0.33333,4 2,4 1.71058,0 2,-0.666667 2,-4.606989 z m 7.56643,3.42716 c -2.75418,-6.550273 2.5748,-12.923332 7.89261,-9.438969 2.36307,1.548347 2.91329,2.584297 2.29096,4.313408 -0.1375,0.382036 -1.81012,0.85466 -3.71694,1.050276 -4.26002,0.437026 -4.65999,0.794789 -3.05312,2.730948 1.67828,2.022198 3.99199,1.929356 5.62801,-0.225834 1.62709,-2.143417 1.89205,-0.05278 0.35687,2.815741 C 312.24294,29.414586 310.86638,30 308.41654,30 c -3.0006,0 -3.70813,-0.46387 -4.85011,-3.179829 z M 309.25,19.337719 c -0.6875,-0.277412 -1.8125,-0.277412 -2.5,0 -0.6875,0.277413 -0.125,0.504386 1.25,0.504386 1.375,0 1.9375,-0.226973 1.25,-0.504386 z M 315,29 c 0,-0.55 0.45,-1 1,-1 0.55,0 1,-1.8 1,-4 0,-2.2 -0.45,-4 -1,-4 -0.55,0 -1,-0.464501 -1,-1.032224 0,-1.368468 4.39441,-3.004316 4.84725,-1.804418 0.19098,0.506065 0.97848,0.396235 1.75,-0.244065 1.07101,-0.88886 1.75489,-0.871934 2.89174,0.07157 C 326.31752,18.508406 325.55019,20 322.94098,20 321.34317,20 321,20.707208 321,24 c 0,2.2 0.45,4 1,4 0.55,0 1,0.45 1,1 0,0.55 -1.8,1 -4,1 -2.2,0 -4,-0.45 -4,-1 z m 11,-1.5 c 0,-2.737162 1.7214,-3.389608 2.63837,-1 0.63096,1.644248 4.36163,2.093883 4.36163,0.52568 0,-0.535876 -1.32146,-1.657676 -2.93659,-2.492888 -4.00396,-2.070531 -4.50478,-3.210224 -2.65277,-6.036759 1.17444,-1.792415 2.3718,-2.361815 4.63894,-2.206024 2.7786,0.190936 3.03158,0.494748 2.78787,3.348123 -0.14741,1.725973 0.34096,3.871914 1.08528,4.768758 C 338.04029,26.958398 334.73515,30 329.84501,30 326.41033,30 326,29.733205 326,27.5 Z m 7.3913,-6.922681 c -0.68276,-1.779225 -3.14178,-2.790073 -3.88031,-1.595105 -0.30418,0.492176 0.24391,1.358838 1.21798,1.925917 2.46802,1.436819 3.30092,1.333326 2.66233,-0.330812 z M 193.44615,12.912868 c -1.03052,-1.667419 1.28721,-3.5795095 2.66672,-2.2 C 197.26679,11.866792 196.54459,14 195,14 c -0.48508,0 -1.18431,-0.48921 -1.55385,-1.087132 z"
         id="path8" />
      <path
         style="fill:#f5e9d0"
         d="M 62.29481,36.892831 C 58.629709,35.833054 56,32.627029 56,29.218477 56,27.915447 55.557682,27.155334 55,27.5 c -0.55,0.339919 -1,2.139919 -1,4 0,3.852087 -1.412408,5.232547 -3.543805,3.463645 -2.391594,-1.984847 -1.675904,-4.202287 2.98877,-9.26018 2.711273,-2.939826 3.707455,-4.569229 2.573491,-4.209323 -2.911424,0.92405 -3.453915,-1.401715 -0.948911,-4.06817 C 57.394356,14.951324 60,14.197727 60,16 c 0,0.55 0.45,1 1,1 0.55,0 1,-0.68847 1,-1.529933 0,-1.211225 -1.071452,-1.471619 -5.143417,-1.25 C 53.428152,14.406661 51.566483,14.083208 51.273249,13.25 51.016275,12.519819 51.665687,12 52.834879,12 56.811504,12 58.022013,11.012937 56.702937,8.8459421 55.680333,7.1659949 55.853906,6.579685 57.860784,4.9348711 59.984695,3.1941384 66,2.1753548 66,3.5563709 c 0,0.3060039 -1.450288,1.8810039 -3.222861,3.5 -5.290132,4.8317891 -0.945236,3.3301861 4.958761,-1.7137561 4.085687,-3.4905114 5.65541,-4.3274952 6.265293,-3.3406837 1.13657,1.8390086 0.392335,3.2744032 -2.774798,5.3517058 L 68.5,9.1418623 72.171994,8.6464603 C 76.421118,8.0731957 78.052726,10.179269 75.52411,12.973358 74.68585,13.899626 74,15.002581 74,15.42437 74,15.846159 73.069358,17.498226 71.931906,19.09563 70.794454,20.693033 70.317896,22 70.872889,22 c 0.554992,0 1.316885,-0.498043 1.693094,-1.106763 0.479172,-0.775316 0.928926,-0.710492 1.501815,0.216462 0.456591,0.73878 0.351636,1.884913 -0.237625,2.594929 -1.127991,1.359147 -0.736855,1.601976 4.384531,2.722042 3.101443,0.678298 2.865929,3.095575 -0.402674,4.132989 -1.487844,0.472224 -2.725326,-0.225472 -4.810072,-2.711933 C 71.458182,26.006477 70.038697,24.725 69.847546,25 c -0.19115,0.275 -1.039801,1.85 -1.885891,3.5 -1.825821,3.560621 -3.910943,3.869383 -5.064877,0.75 -0.67999,-1.838188 -0.482974,-2.25 1.076429,-2.25 1.049818,0 2.208369,-0.484779 2.574558,-1.077286 0.462472,-0.748294 -0.817409,-0.861859 -4.190983,-0.371869 -2.67123,0.387979 -5.048976,0.877452 -5.28388,1.087717 -0.234903,0.210265 0.861788,1.727606 2.437092,3.371869 C 61.82331,32.425013 63.203688,33 66.687091,33 70.333333,33 71,32.690851 71,31 c 0,-2.92839 1.651106,-2.439595 2.789423,0.825784 1.971423,5.655227 -2.556927,7.651411 -11.494613,5.067047 z m 2.225894,-15.246512 c 0.702347,0.269515 1.570885,0.01451 1.930083,-0.566691 0.397454,-0.643095 0.04562,-0.823613 -0.898849,-0.461185 C 63.293786,21.484978 63.599805,18.672147 66,16.5 c 2.464842,-2.230651 2.556162,-3.504251 0.25,-3.486625 -1.219257,0.0093 -2.232003,1.537644 -3.339292,5.039292 -0.874111,2.764254 -1.156776,4.593401 -0.628145,4.06477 0.528631,-0.528631 1.535795,-0.740634 2.238141,-0.471118 z M 72,14.881966 c 0,-0.55 -0.45,-0.721885 -1,-0.381966 -0.55,0.339919 -1,1.068034 -1,1.618034 0,0.55 0.45,0.721885 1,0.381966 0.55,-0.339919 1,-1.068034 1,-1.618034 z M 137.5,32 c 1.68663,-1.863701 1.69219,-2 0.0817,-2 -1.07591,0 -1.60626,-0.629307 -1.40498,-1.667134 0.4932,-2.543077 2.55129,-2.709667 3.83532,-0.310444 0.92914,1.736105 0.81742,2.50859 -0.58728,4.060765 C 138.47064,33.137434 137.24002,34 136.69002,34 c -0.55,0 -0.18551,-0.9 0.80998,-2 z M 25.999606,31.295313 c 2.17e-4,-0.662578 1.580364,-1.501091 3.511439,-1.863363 5.117436,-0.960037 5.493453,-2.616211 0.409407,-1.803239 -4.99986,0.79951 -4.755314,-1.096067 0.310759,-2.408818 3.766198,-0.97592 4.991644,-3.176313 1.384984,-2.486856 -2.249994,0.430114 -2.521067,0.08413 -3.133427,-3.999381 -0.718716,-4.792743 1.217837,-10.2902652 3.706725,-10.5227202 0.720779,-0.067319 3.497891,-0.5880463 6.17136,-1.1571726 2.673469,-0.5691263 5.260969,-0.7874898 5.75,-0.4852522 1.199301,0.7412088 0.99629,5.063393 -0.466479,9.931489 -0.967559,3.22004 -1.878776,4.232732 -4.673148,5.193558 -3.651617,1.255584 -3.285847,1.638019 1.278774,1.337038 2.218754,-0.1463 2.75,0.242111 2.75,2.010615 0,1.783332 -0.453987,2.105158 -2.435354,1.726396 -1.339445,-0.256051 -3.026945,-0.05692 -3.75,0.442517 -0.853337,0.589425 0.177894,0.790214 2.938821,0.572213 3.438838,-0.271528 4.366051,0.01887 4.841306,1.516267 0.323312,1.018664 0.349805,2.090151 0.05887,2.381081 -0.29093,0.290931 -4.607196,0.594519 -9.5917,0.67464 -6.482521,0.1042 -9.062624,-0.197307 -9.062342,-1.059012 z M 33.8125,18.0625 c 0.25,-0.75 -0.125,-1.125 -0.875,-0.875 -0.721875,0.240625 -1.509375,1.028125 -1.75,1.75 -0.25,0.75 0.125,1.125 0.875,0.875 0.721875,-0.240625 1.509375,-1.028125 1.75,-1.75 z m 5.958333,-0.875 C 39.988542,16.534375 39.454167,16 38.583333,16 37.7125,16 37,16.7125 37,17.583333 c 0,1.765927 2.152759,1.45839 2.770833,-0.395833 z m -4.924791,-5.21798 c 0.302121,-2.0725314 0.143467,-2.2057026 -1.25,-1.049228 -1.88703,1.566096 -2.145217,4.427234 -0.346042,3.834713 0.6875,-0.226413 1.405719,-1.479882 1.596042,-2.785485 z M 41,11.5 C 41,10.666667 40.111111,10 39,10 c -1.111111,0 -2,0.666667 -2,1.5 0,0.833333 0.888889,1.5 2,1.5 1.111111,0 2,-0.666667 2,-1.5 z M 13,28.62132 C 13,27.863047 14.35,26.683452 16,26 c 2.153707,-0.892095 3,-1.919035 3,-3.640372 0,-2.058237 -0.353975,-2.30889 -2.5,-1.770272 -1.834427,0.460412 -2.5,0.228116 -2.5,-0.87254 0,-0.825 1.125,-1.782357 2.5,-2.12746 1.801942,-0.452259 2.5,-1.300707 2.5,-3.038602 0,-2.201159 -0.260092,-2.336549 -2.986515,-1.554621 -1.707387,0.489672 -3.22157,0.476196 -3.53532,-0.03146 C 11.759324,11.80156 19.249621,8 22.260162,8 c 1.286911,0 2.835136,-0.4952984 3.440501,-1.1006631 0.800884,-0.8008841 1.28148,-0.5309592 1.764548,0.9910514 0.884072,2.7854657 -0.02444,4.0376377 -2.466207,3.3991007 C 23.472299,10.890246 23,11.259413 23,12.851984 c 0,1.355476 0.479792,1.901133 1.370958,1.559161 1.467964,-0.563311 3.007154,2.168041 2.073269,3.679097 C 26.134984,18.590609 25.233524,19 24.440983,19 23.648442,19 23,19.690833 23,20.535184 c 0,1.24632 0.39244,1.325156 2.085646,0.418979 1.147106,-0.613912 2.336231,-0.865619 2.642501,-0.559349 0.898312,0.898312 -1.896121,3.735475 -6.673928,6.775978 C 16.244943,30.231322 13,30.815721 13,28.62132 Z M 90,29 c 0,-0.55 0.45,-1 1,-1 0.577778,0 1,-3.166667 1,-7.5 0,-4.333333 -0.422222,-7.5 -1,-7.5 -0.55,0 -1,-0.45 -1,-1 0,-0.55 2.025,-1 4.5,-1 2.475,0 4.5,0.45 4.5,1 0,0.55 -0.675,1 -1.5,1 -1.2,0 -1.5,1.5 -1.5,7.5 V 28 h 3.443296 c 2.409094,0 3.903944,-0.65767 4.977004,-2.189668 1.96249,-2.80186 2.93579,-1.877127 1.63243,1.55098 C 105.09123,29.890235 104.73648,30 97.524751,30 93.174917,30 90,29.57807 90,29 Z m 19.95578,-0.553284 c -1.78761,-2.153933 -1.61491,-8.216155 0.28827,-10.119335 C 113.17008,15.401346 120,17.008067 120,20.622445 120,21.552944 118.75597,22 116.16667,22 c -4.58319,0 -5.42699,0.645062 -4.0963,3.131483 1.12426,2.1007 5.52354,2.538912 6.20939,0.618517 0.24554,-0.6875 0.80528,-0.915259 1.24387,-0.506131 C 120.89206,26.520367 116.82711,30 113.96746,30 c -1.49742,0 -3.30267,-0.698978 -4.01168,-1.553284 z M 115.75,19.75 c -0.22917,-0.6875 -1.01667,-1.25 -1.75,-1.25 -0.73333,0 -1.52083,0.5625 -1.75,1.25 -0.24786,0.74359 0.46111,1.25 1.75,1.25 1.28889,0 1.99786,-0.50641 1.75,-1.25 z m 7.90499,8.421259 C 118.38256,22.34529 125.60263,13.521043 131.75,18.277679 134.37701,20.310375 133.09545,22 128.92668,22 c -3.24266,0 -4.00739,0.335018 -3.75,1.642817 0.54547,2.771547 3.50484,4.037169 5.91724,2.5306 2.91111,-1.818019 3.50475,-0.772087 0.98941,1.74325 -2.57131,2.571314 -6.23168,2.681881 -8.42834,0.254592 z M 129,20.166667 c 0,-1.408995 -1.12639,-2.055396 -2.59777,-1.490777 C 124.31529,19.476725 124.70708,21 127,21 c 1.1,0 2,-0.375 2,-0.833333 z M 154,29 c 0,-0.55 0.675,-1 1.5,-1 1.2,0 1.5,-1.5 1.5,-7.5 0,-6.871958 -0.17011,-7.5 -2.03138,-7.5 -1.11727,0 -2.29041,0.675 -2.60699,1.5 C 151.45386,16.865611 150,16.249994 150,13.5 c 0,-2.470588 0.1,-2.5 8.5,-2.5 8.4,0 8.5,0.02941 8.5,2.5 0,2.749994 -1.45386,3.365611 -2.36163,1 C 164.32179,13.675 163.14865,13 162.03138,13 160.17011,13 160,13.628042 160,20.5 c 0,6 0.3,7.5 1.5,7.5 0.825,0 1.5,0.45 1.5,1 0,0.55 -2.025,1 -4.5,1 -2.475,0 -4.5,-0.45 -4.5,-1 z m 13.0318,-1.75 c 0.0289,-2.499972 0.15259,-2.590891 1.36025,-1 1.40239,1.847421 4.60795,2.408494 4.60795,0.806536 0,-0.518905 -1.35,-1.740928 -3,-2.715607 -3.44752,-2.036499 -4.03157,-5.718481 -1.15159,-7.259802 2.48017,-1.327347 6.61789,-0.0058 6.79048,2.168873 0.17364,2.187894 -0.47881,2.204846 -2.83378,0.07363 -1.28245,-1.1606 -2.17236,-1.356383 -2.8924,-0.636338 -0.72005,0.720045 0.0564,1.686948 2.52363,3.142646 C 174.9646,23.321646 176,24.637625 176,26.359286 176,29.023159 174.36819,30 169.91821,30 c -2.52455,0 -2.91392,-0.370973 -2.88641,-2.75 z m 12.07621,1.458011 c -1.93721,-1.937208 -1.20867,-3.716069 2.39199,-5.840512 3.55967,-2.100255 4.25509,-3.282795 2.55017,-4.33649 -0.5224,-0.322864 -1.43823,0.325578 -2.03518,1.440983 -1.39475,2.606116 -3.01499,2.607866 -3.01499,0.0033 0,-2.597223 4.32811,-4.405203 7.05367,-2.946527 2.15996,1.155978 3.43486,4.995153 2.65238,7.987324 C 188.35571,26.355756 188.68369,27 189.71606,27 c 1.16528,0 1.26409,0.318996 0.4155,1.341478 -1.35592,1.633781 -9.48598,1.904106 -11.02355,0.366533 z m 5.5177,-2.175022 c 1.00232,-2.611999 -0.005,-3.707548 -2.04002,-2.219304 -1.04093,0.761143 -1.57121,1.900721 -1.17945,2.534611 0.98493,1.59364 2.5456,1.440792 3.21947,-0.315307 z M 192,29 c 0,-0.55 0.45,-1 1,-1 1.31396,0 1.2992,-7.697048 -0.0163,-8.510081 C 191.49784,18.571614 192.80777,17 195.05902,17 196.71723,17 197,17.716514 197,21.918213 c 0,2.705016 0.27314,5.630016 0.60699,6.5 C 198.08022,29.651433 197.52931,30 195.10699,30 193.39814,30 192,29.55 192,29 Z m 17.2,-0.2 c -1.96743,-1.967429 -1.37731,-4.473014 1.65428,-7.02393 2.25774,-1.899761 2.76244,-3.027472 2.41484,-5.395776 -0.53912,-3.673289 1.51871,-5.650144 5.41566,-5.202552 2.22792,0.255893 2.91692,0.94007 3.34569,3.322258 0.45512,2.528626 0.96652,2.970419 3.25474,2.811736 C 226.77835,17.208191 228,17.545691 228,18.061736 228,18.577781 227.59445,19 227.09878,19 c -0.49568,0 -1.82307,1.562412 -2.94977,3.472027 -2.2571,3.825492 -1.51625,5.087944 2.40783,4.103064 2.6341,-0.661117 3.17003,0.298043 1.24316,2.224909 -1.49833,1.498334 -5.04305,1.556948 -6.49264,0.107359 -0.79019,-0.790187 -1.65778,-0.790187 -3.13426,0 C 215.46792,30.355127 210.69806,30.298058 209.2,28.8 Z m 8.28254,-1.771754 c 0.33032,-0.534465 -0.15003,-2.117334 -1.06745,-3.517487 -1.30787,-1.99606 -1.9646,-2.299599 -3.04156,-1.4058 -1.71569,1.423896 -1.78973,4.560432 -0.12353,5.23276 2.06188,0.831988 3.59643,0.719786 4.23254,-0.309473 z m 4.93259,-8.023926 c -0.81517,-1.826859 -1.15559,-1.914583 -2.79053,-0.719088 -1.62803,1.190446 -1.69251,1.633172 -0.5129,3.52202 1.17488,1.881285 1.53543,1.974193 2.79053,0.719088 1.02784,-1.027842 1.17498,-2.038237 0.5129,-3.52202 z M 220,14.377555 C 220,13.6199 219.1,13 218,13 c -1.9456,0 -2.82684,2.839823 -1.34201,4.324657 C 217.55925,18.22592 220,16.073583 220,14.377555 Z m 19.25,14.230399 C 240.61395,27.572571 241,25.783942 241,20.5 c 0,-5.283942 -0.38605,-7.072571 -1.75,-8.107954 -1.52005,-1.153884 -0.98848,-1.332618 4.04545,-1.360243 4.86853,-0.02672 6.19424,0.366977 8.28877,2.461507 2.15275,2.152751 2.33098,2.801549 1.30484,4.75 -1.54077,2.925658 -2.8116,3.722633 -5.96587,3.741377 -2.29189,0.01362 -2.52812,0.347019 -2.1365,3.015313 0.24217,1.65 0.83923,3 1.32681,3 0.48757,0 0.8865,0.45 0.8865,1 0,0.55 -2.1375,0.985688 -4.75,0.968197 -4.16431,-0.02788 -4.53422,-0.195604 -3,-1.360243 z m 9.61552,-10.332131 c 0.6121,-1.093773 0.61741,-2.373464 0.0145,-3.5 -1.57565,-2.94413 -3.62623,-2.075399 -4.06981,1.724177 -0.32946,2.821995 -0.0697,3.5 1.3409,3.5 0.96223,0 2.18371,-0.77588 2.71441,-1.724177 z m 7.1641,10.259861 c -1.6061,-1.935226 -0.18445,-4.408473 3.67099,-6.386431 2.97315,-1.525318 3.24579,-1.948846 1.94794,-3.025969 -1.24679,-1.034745 -1.70372,-0.888724 -2.62898,0.840158 -0.61596,1.150916 -1.54734,1.828413 -2.06974,1.505549 -1.75908,-1.08717 -0.96851,-3.139452 1.673,-4.343003 C 262.73338,15.253098 266,17.864329 266,23.023053 266,25.296908 266.48068,27 267.12244,27 c 0.8254,0 0.82781,0.355015 0.009,1.341478 -1.43537,1.729518 -9.70765,1.874225 -11.10194,0.194206 z m 6.09265,-3.337183 c 0.92989,-2.513714 0.0755,-2.794832 -2.58392,-0.850205 -1.06625,0.779667 -1.52995,1.856277 -1.09948,2.552787 1.03888,1.680952 2.71904,0.904331 3.6834,-1.702582 z M 268.8,28.8 c 1.62781,-1.627806 1.58629,-9.790603 -0.05,-9.830409 -0.77694,-0.0189 -0.652,-0.38018 0.33013,-0.954628 0.86908,-0.50832 3.5004,-0.816877 5.8474,-0.685681 3.42234,0.191308 4.62298,-0.213678 6.06379,-2.045372 2.21615,-2.817378 3.35363,-2.946108 2.50868,-0.28391 -0.45047,1.419321 -0.1797,2 0.93261,2 0.86207,0 1.56739,0.45 1.56739,1 0,0.55 -0.70087,1 -1.5575,1 -1.20889,0 -1.48867,0.927475 -1.25,4.143761 0.27421,3.69521 0.60518,4.174938 3.0575,4.43178 2.62965,0.275415 2.75,0.09407 2.75,-4.143761 C 289,20.979277 288.52703,19 287.94098,19 c -0.58246,0 -0.8076,-0.406803 -0.50031,-0.904007 0.30729,-0.497204 2.80682,-0.921422 5.5545,-0.942705 5.74615,-0.04451 6.46323,0.756314 7.25002,8.096712 0.50206,4.684017 0.46917,4.75 -2.36803,4.75 C 296.29472,30 295,29.55 295,29 c 0,-0.55 0.3375,-0.999659 0.75,-0.999241 0.4125,4.17e-4 0.69861,-1.912083 0.63581,-4.25 -0.0929,-3.457926 -0.46592,-4.250759 -2,-4.250759 -1.5037,0 -1.94812,0.861155 -2.19331,4.25 -0.18193,2.514572 0.12432,4.25 0.75,4.25 0.58163,0 1.0575,0.45 1.0575,1 0,0.55 -1.575,1 -3.5,1 -1.925,0 -3.5,-0.453813 -3.5,-1.008474 0,-0.612009 -0.75434,-0.537378 -1.9188,0.189836 C 282.11427,31.034239 280,28.66767 280,23.493823 c 0,-4.192321 -0.0526,-4.257233 -3.25,-4.010799 -3.04508,0.234693 -3.26939,0.511104 -3.5575,4.383732 C 273.01153,26.299258 273.32014,28 273.9425,28 274.52413,28 275,28.45 275,29 c 0,0.55 -1.665,1 -3.7,1 -2.87778,0 -3.43333,-0.266667 -2.5,-1.2 z m 35.85499,-0.628741 C 299.38256,22.34529 306.60263,13.521043 312.75,18.277679 315.35756,20.295324 314.09817,22 310,22 c -3.32051,0 -4,0.336509 -4,1.980948 0,2.452787 4.35816,3.796622 6.51299,2.008275 2.02079,-1.677114 1.9487,0.40623 -0.0844,2.439348 -2.10733,2.107334 -5.7425,1.987007 -7.77358,-0.257312 z M 310,20.166667 c 0,-1.408995 -1.12639,-2.055396 -2.59777,-1.490777 C 305.31529,19.476725 305.70708,21 308,21 c 1.1,0 2,-0.375 2,-0.833333 z M 315.8,28.8 c 1.56533,-1.565327 1.59334,-9.8 0.0333,-9.8 -0.64166,0 -0.8599,-0.306764 -0.48496,-0.681699 0.37493,-0.374934 2.69993,-0.800589 5.16666,-0.9459 3.50129,-0.206254 4.48497,0.07639 4.48497,1.288688 0,1.039779 -0.55182,1.341134 -1.67005,0.91203 -0.92065,-0.353286 -2.0356,-0.06475 -2.48469,0.643011 C 319.68652,22.042311 319.80495,28 321,28 c 0.55,0 1,0.45 1,1 0,0.55 -1.665,1 -3.7,1 -2.87778,0 -3.43333,-0.266667 -2.5,-1.2 z m 10.95525,-1.3 c -0.57885,-3.028052 -0.33321,-3.077963 2.28122,-0.463525 1.12007,1.12006 2.47007,1.768503 3,1.440983 C 333.74952,27.418738 333.06721,26.086116 330,24.5 c -5.32859,-2.755519 -3.28147,-8.849949 2.59533,-7.726527 1.52568,0.291651 2.40467,1.14814 2.40467,2.343104 0,2.322626 -0.89752,2.405828 -2.48805,0.230648 -0.6647,-0.909026 -1.72681,-1.332469 -2.36025,-0.940983 -1.9002,1.174392 -1.32208,2.280542 1.88652,3.609588 C 338.31866,24.617275 337.1386,30 330.28784,30 c -2.46422,0 -3.14706,-0.483244 -3.53259,-2.5 z M 193.44615,12.912868 c -1.03052,-1.667419 1.28721,-3.5795095 2.66672,-2.2 C 197.26679,11.866792 196.54459,14 195,14 c -0.48508,0 -1.18431,-0.48921 -1.55385,-1.087132 z"
         id="path7" />
      <path
         style="fill:#efdaad"
         d="m 63.802404,37.050937 c -4.859272,-0.944973 -6.612913,-2.523941 -7.387233,-6.65142 -0.876234,-4.670733 -2.236188,-4.267722 -2.607673,0.772762 -0.362478,4.918269 -2.287881,6.062262 -3.974162,2.361278 -1.052619,-2.310247 -0.905062,-2.923157 1.235649,-5.132523 8.139922,-8.40098 7.677708,-7.763616 5.182011,-7.145664 -3.428755,0.848985 -3.898246,-1.301878 -0.855476,-3.919159 3.104091,-2.670027 4.807636,-3.029201 3.966106,-0.836211 -0.884779,2.305699 1.200476,1.778045 2.96395,-0.75 2.079205,-2.980663 2.20447,-0.289943 0.168263,3.614307 -1.860904,3.568121 -1.882188,4.202884 -0.09108,2.7164 1.077379,-0.894145 1.513477,-0.864558 1.880102,0.127555 C 64.64427,23.186274 65.205674,23.074976 66.594388,21.75 68.367794,20.057988 68.355199,20 66.214286,20 63.333349,20 63.422082,19.212654 66.687091,15.804719 L 69.374182,13 64.752191,13 c -2.542095,0 -5.835723,0.46146 -7.319173,1.025467 C 54.58229,15.109311 51,14.500745 51,12.932612 51,12.419676 51.960291,12 53.13398,12 57.753974,12 63.62495,9.3633231 67.927053,5.3563769 70.408872,3.0448289 72.790575,1.3705684 73.219726,1.6357981 74.932925,2.6946135 73.829585,5.1382686 70.75,7.1056934 L 67.5,9.1819898 71.682976,8.6951413 c 5.562952,-0.6474614 5.889826,0.7018794 1.78296,7.3600837 -3.458848,5.607615 -3.735028,7.233964 -0.821447,4.837276 1.541988,-1.268428 1.637608,-1.113612 1.07316,1.737525 -0.599052,3.025936 -0.484074,3.151708 3.457397,3.781974 3.981313,0.636638 4.035232,0.698164 2.296018,2.619974 -2.441779,2.698136 -3.716941,2.479306 -6.356453,-1.090825 -2.561135,-3.46412 -4.293548,-3.419228 -5.132113,0.13299 -0.659956,2.79562 -4.270541,3.384238 -4.772451,0.778031 -0.201489,-1.046247 0.301833,-1.593861 1.378676,-1.5 0.932811,0.08131 1.9061,-0.449613 2.162865,-1.179821 0.367541,-1.04524 -0.566782,-1.177521 -4.392371,-0.621869 -2.672569,0.38818 -5.011342,0.837749 -5.197273,0.999041 -0.185931,0.161292 0.686195,1.678633 1.938058,3.371869 C 61.093449,32.617671 61.973707,33 66.188058,33 70.333333,33 71,32.722912 71,31 c 0,-2.384246 1.535591,-2.652613 2.393011,-0.418213 1.104976,2.879521 0.630442,6.195236 -0.974798,6.811224 -1.848671,0.709402 -3.557824,0.641543 -8.615809,-0.342074 z M 71.8,15.8 c 0.66,-0.66 1.2,-1.56 1.2,-2 0,-1.473397 -1.506151,-0.820424 -2.767927,1.2 -1.36745,2.189636 -0.343935,2.711862 1.567927,0.8 z M 137.5,32 c 1.6277,-1.798589 1.64331,-2 0.15499,-2 C 136.74474,30 136,29.325 136,28.5 c 0,-1.886407 3.601,-1.982156 4.31757,-0.114802 C 140.9325,29.987673 138.41049,34 136.78831,34 136.18425,34 136.50451,33.1 137.5,32 Z M 25.999675,31.261818 C 25.999854,30.580817 27.8,29.735804 30,29.384009 c 2.2,-0.351794 4,-1.082193 4,-1.623108 0,-0.582381 -1.427433,-0.715695 -3.5,-0.326879 -4.367515,0.819351 -4.629652,-0.820721 -0.328347,-2.054319 3.859869,-1.106996 5.323903,-3.793168 1.551312,-2.846308 -2.296037,0.576269 -2.52143,0.296205 -3.153435,-3.918305 -1.07187,-7.147738 1.982174,-10.5706636 10.618543,-11.9011007 5.212155,-0.8029351 6.078682,0.6241754 4.662055,7.6780847 -1.10737,5.513999 -3.115824,8.008714 -5.934618,7.371429 -0.64103,-0.144926 -1.374133,0.306117 -1.629118,1.00232 -0.326235,0.890746 0.525658,1.187056 2.875,1 C 41.58052,23.57321 42.5,23.913112 42.5,25 c 0,1.090045 -0.888236,1.414191 -3.25,1.18603 -1.826997,-0.176499 -3.25,0.151886 -3.25,0.75 0,0.960723 3.531923,1.556501 6.75,1.138616 1.173716,-0.152414 1.402351,0.269751 1.65,3.04666 0.06657,0.746457 -2.992354,1.164328 -9.150325,1.25 -6.755952,0.09399 -9.250237,-0.205185 -9.25,-1.109488 z M 34,18.416667 c 0,-0.870834 -0.534375,-1.405209 -1.1875,-1.1875 C 30.958277,17.847241 30.65074,20 32.416667,20 33.2875,20 34,19.2875 34,18.416667 Z M 39.770833,17.1875 C 39.988542,16.534375 39.454167,16 38.583333,16 37.7125,16 37,16.7125 37,17.583333 c 0,1.765927 2.152759,1.45839 2.770833,-0.395833 z m -4.936737,-5.058707 c 0.384515,-2.7055379 -1.219479,-2.1457316 -2.911696,1.016205 -0.924664,1.72775 -0.812671,1.981042 0.744622,1.684091 1.025162,-0.195483 1.980218,-1.385536 2.167074,-2.700296 z M 41,11.383369 C 41,10.622516 40.1,10 39,10 c -1.300594,0 -2,0.666667 -2,1.90638 0,1.414051 0.516507,1.771311 2,1.383369 1.1,-0.287656 2,-1.145528 2,-1.90638 z M 13.526321,29.042588 c -0.325442,-0.526577 0.773,-1.663133 2.440983,-2.52568 C 18.137441,25.394686 19,24.225728 19,22.406932 19,20.357516 18.628929,19.982998 17.084157,20.47329 14.116941,21.415047 13.566336,19.154713 16.443612,17.843738 18.095787,17.090957 19,15.873715 19,14.402356 c 0,-2.054318 -0.366164,-2.227057 -3.75,-1.769073 -3.567308,0.482816 -3.6535,0.429622 -1.7692,-1.091878 1.089441,-0.879682 3.789441,-2.0784932 6,-2.6640259 2.21056,-0.5855328 4.766682,-1.4513008 5.680271,-1.9239289 1.154485,-0.5972513 1.84068,-0.3912709 2.25,0.6754004 C 28.436592,10.301316 28.064688,11 25.616631,11 c -1.542364,0 -2.56792,0.705727 -2.90638,2 -0.387942,1.483493 -0.03068,2 1.383369,2 C 25.365601,15 26,15.701157 26,17.106989 c 0,1.462036 -0.459152,1.930795 -1.5,1.531385 -1.03065,-0.395498 -1.5,0.06146 -1.5,1.460398 0,1.618834 0.434035,1.898246 2.118313,1.363677 3.567565,-1.132301 1.707253,1.615924 -3.543006,5.234056 -4.93699,3.402248 -7.02085,4.009642 -8.048986,2.346083 z M 91.25,28.607954 C 93.636637,26.796238 93.857618,13 91.5,13 90.675,13 90,12.55 90,12 c 0,-0.55 2.025,-1 4.5,-1 2.475,0 4.5,0.45 4.5,1 0,0.55 -0.675,1 -1.5,1 -1.2,0 -1.5,1.5 -1.5,7.5 V 28 h 3.345012 c 2.078428,0 4.032458,-0.759619 5.160538,-2.006131 2.32092,-2.564584 2.9016,-1.981563 1.37138,1.376905 -1.14249,2.507485 -1.54938,2.627753 -8.787445,2.597423 C 90.563462,29.94085 89.745215,29.750248 91.25,28.607954 Z m 19.32143,-0.179383 c -2.02537,-2.02537 -2.02537,-7.831772 0,-9.857142 2.01523,-2.015229 5.84191,-2.015229 7.85714,0 C 121.00743,21.150289 120.25512,22 115.39301,22 c -3.79013,0 -4.49936,0.280465 -4,1.581787 0.33385,0.869984 0.60699,1.754151 0.60699,1.964817 0,0.210666 0.86875,0.847969 1.93055,1.41623 1.46458,0.783815 2.32087,0.642887 3.54762,-0.583864 2.28748,-2.287473 3.22514,-0.813595 1.02738,1.614899 -2.1745,2.402793 -5.76909,2.599737 -7.93412,0.434702 z M 116,20.059017 c 0,-1.865881 -2.226,-2.261593 -3.81025,-0.677341 C 110.69865,20.872775 110.78481,21 113.28571,21 114.77857,21 116,20.576558 116,20.059017 Z m 7.65499,8.112242 c -2.19667,-2.427287 -2.10488,-7.454135 0.17375,-9.516271 C 127.06343,15.727634 133,17.051374 133,20.7 c 0,0.872685 -1.46858,1.3 -4.46778,1.3 -4.2115,0 -4.42036,0.129058 -3.64115,2.25 0.94313,2.567117 4.52161,3.482319 6.66397,1.704319 1.99565,-1.65624 1.88746,0.460321 -0.12647,2.474252 -2.10733,2.107334 -5.7425,1.987007 -7.77358,-0.257312 z M 130,20.106989 c 0,-1.166272 -2.92079,-2.273976 -4.09024,-1.551216 C 124.14727,19.645052 125.02881,21 127.5,21 c 1.375,0 2.5,-0.401855 2.5,-0.893011 z m 25.25,8.500965 C 157.77396,26.691995 157.84303,13 155.32874,13 c -0.91919,0 -2.54007,0.786264 -3.60195,1.747253 -1.86169,1.684808 -1.91812,1.658004 -1.57874,-0.75 0.34143,-2.422575 0.5882,-2.497253 8.2523,-2.497253 7.42455,0 7.92103,0.135507 8.24373,2.25 0.38416,2.517249 -1.11275,3.076995 -2.00571,0.75 C 164.32179,13.675 163.14865,13 162.03138,13 160.17922,13 160,13.629897 160,20.139757 c 0,5.627031 0.37078,7.421219 1.75,8.468197 1.52915,1.160794 1.11901,1.328439 -3.25,1.328439 -4.36901,0 -4.77915,-0.167645 -3.25,-1.328439 z M 167,27.389216 v -2.610784 l 1.84424,2.277543 c 1.32311,1.633969 2.38276,2.066688 3.75,1.531348 1.70297,-0.666794 1.48013,-1.107004 -2.09424,-4.137017 -3.35031,-2.840079 -3.8212,-3.679891 -2.89915,-5.170564 0.60547,-0.978858 2.51797,-1.920753 4.25,-2.0931 2.72181,-0.270836 3.14502,5.65e-4 3.11874,2 -0.027,2.052739 -0.14524,2.116206 -1.04969,0.563358 -1.11978,-1.92254 -3.45051,-2.318504 -4.4194,-0.750803 -0.33965,0.549559 0.98379,1.944008 2.94098,3.098776 C 177.99359,25.373797 176.73987,30 170.3,30 167.40933,30 167,29.676164 167,27.389216 Z m 12.01024,1.123119 c -1.65267,-1.991344 0.26161,-5.062851 3.95858,-6.35162 2.11736,-0.738115 2.83387,-1.511333 2.41412,-2.605183 -0.87822,-2.288601 -3.06154,-1.892573 -3.73356,0.677221 -0.4515,1.726553 -0.85375,1.962877 -1.77425,1.042382 -1.92988,-1.929881 0.86036,-4.435246 4.5397,-4.0762 2.97433,0.290249 3.09606,0.490613 3.38834,5.577223 0.19837,3.452437 0.67528,5.046177 1.37973,4.610804 0.62711,-0.387574 0.88327,-0.08538 0.61357,0.723842 -0.63932,1.918252 -9.2611,2.239208 -10.78623,0.401531 z m 6.11203,-3.313834 c 0.92989,-2.513714 0.0755,-2.794832 -2.58392,-0.850205 -1.06625,0.779667 -1.52995,1.856277 -1.09948,2.552787 1.03888,1.680952 2.71904,0.904331 3.6834,-1.702582 z M 192.8,28.8 c 1.62872,-1.628717 1.58712,-9.795258 -0.05,-9.815313 -1.70106,-0.02084 1.30868,-1.948958 3.07414,-1.969374 0.95841,-0.01108 1.25118,1.359241 1.06,4.961352 -0.14528,2.737166 0.0464,5.287166 0.42586,5.666667 C 198.79219,29.125526 197.86082,30 194.8,30 c -2.48889,0 -2.93333,-0.266667 -2,-1.2 z m 16.77143,-0.371429 c -2.18402,-2.18402 -1.99074,-3.163111 1.2677,-6.421545 2.20915,-2.209157 2.73962,-3.517127 2.39066,-5.8947 -0.37052,-2.524514 -0.006,-3.257151 2.09711,-4.215408 5.09573,-2.3217702 8.43481,1.598926 4.72492,5.547925 -1.9205,2.044271 -2.03348,2.61166 -0.88597,4.449118 C 219.88923,23.052283 220.79252,24 221.17316,24 c 1.03002,0 2.05169,-3.827166 1.33237,-4.991051 C 222.13499,18.4094 223.20077,18 225.13211,18 c 2.77211,0 3.01887,0.183852 1.67766,1.25 -0.86487,0.6875 -2.33151,2.455271 -3.25921,3.92838 -1.59804,2.537549 -1.58977,2.730267 0.15718,3.665207 1.19065,0.637215 2.45475,0.644984 3.56808,0.02193 1.97371,-1.104541 2.31258,0.146079 0.52418,1.934482 -1.55241,1.552413 -5.06081,1.539195 -6.62496,-0.02496 -0.96661,-0.966613 -1.63864,-0.966613 -3.18643,0 -2.70745,1.69083 -6.53754,1.533176 -8.41718,-0.34647 z m 7.91111,-1.400325 c 0.8142,-1.317391 -2.48057,-6.19545 -3.87175,-5.73231 -1.33494,0.44442 -1.99276,3.26629 -1.22675,5.262477 0.62409,1.626346 4.18116,1.954133 5.0985,0.469833 z M 220,14.377555 C 220,13.6199 219.1,13 218,13 c -1.9456,0 -2.82684,2.839823 -1.34201,4.324657 C 217.55925,18.22592 220,16.073583 220,14.377555 Z M 239,29 c 0,-0.55 0.45,-1 1,-1 0.57778,0 1,-3.166667 1,-7.5 0,-4.333333 -0.42222,-7.5 -1,-7.5 -0.55,0 -1,-0.45 -1,-1 0,-1.422452 8.01916,-1.21256 11,0.287913 C 255.26832,14.939838 252.56226,22 246.27749,22 244.48268,22 244,22.559456 244,24.639757 c 0,1.451867 0.7875,3.237555 1.75,3.968197 1.54344,1.171635 1.24835,1.332193 -2.5,1.360243 C 240.9125,29.985688 239,29.55 239,29 Z m 9.94695,-10.436078 C 250.55883,16.621724 248.61767,13 245.96482,13 244.38598,13 244,13.687558 244,16.5 c 0,2.757249 0.39844,3.5 1.87756,3.5 1.03265,0 2.41388,-0.646235 3.06939,-1.436078 z m 7.32823,9.710792 c -0.76864,-2.003024 0.79864,-4.45934 3.82298,-5.991566 2.74941,-1.392945 3.17456,-3.606945 0.78113,-4.067877 -0.99616,-0.191844 -1.85058,0.566933 -2.21724,1.969058 -0.4613,1.763998 -0.86642,2.011301 -1.78692,1.090806 -1.92988,-1.929881 0.86036,-4.435246 4.5397,-4.0762 2.9677,0.289602 3.09661,0.499023 3.38567,5.500302 0.25503,4.412467 0.55767,5.102924 2,4.562769 1.41959,-0.531642 1.49513,-0.38469 0.45862,0.892241 -1.72563,2.125892 -10.17881,2.218604 -10.98394,0.120467 z m 5.14303,-0.881703 C 263.01873,26.778834 263.68359,23 262.19113,23 c -1.74338,0 -4.45765,2.759742 -3.78489,3.848296 0.82504,1.334945 0.91179,1.350633 3.01197,0.544715 z M 269.79156,24.5 c 0.34913,-4.210035 0.13388,-5.507132 -0.91773,-5.530409 -1.06085,-0.02348 -1.02714,-0.233525 0.14798,-0.921986 2.17114,-1.272002 8.23711,-0.781803 8.73091,0.705557 0.2677,0.806321 -0.41632,1.162892 -1.91833,1 -2.03732,-0.220945 -2.37442,0.232931 -2.64892,3.566626 -0.17298,2.100883 0.21962,4.463383 0.87245,5.25 C 275.04171,29.755189 274.73913,30 272.29017,30 h -2.95472 z m 11.45737,4.25 c -0.54778,-0.6875 -1.20495,-3.540965 -1.46038,-6.341033 -0.35948,-3.940655 -0.0491,-5.60391 1.37352,-7.360784 C 282.98195,12.800727 283,12.799166 283,14.889216 283,16.098802 283.64042,17 284.5,17 c 0.825,0 1.5,0.45 1.5,1 0,0.55 -0.675,1 -1.5,1 -1.11439,0 -1.5,1.174154 -1.5,4.567388 0,4.276742 0.14268,4.522103 2.24216,3.855754 1.99314,-0.632599 2.0906,-0.529023 0.87755,0.932612 -1.62668,1.960037 -3.50225,2.111847 -4.87078,0.394246 z M 287.8,28.8 c 1.56533,-1.565327 1.59334,-9.8 0.0333,-9.8 -0.64166,0 -0.86141,-0.305251 -0.48833,-0.678335 0.37309,-0.373084 2.93687,-0.816124 5.6973,-0.984534 5.63498,-0.343781 6.16851,0.277998 7.21871,8.412869 0.54027,4.184897 0.5023,4.25 -2.47861,4.25 -2.51189,0 -2.82521,-0.243496 -1.84032,-1.430212 0.65283,-0.786617 1.04543,-3.149117 0.87245,-5.25 C 296.56353,20.271509 296.09605,19.5 294.5,19.5 c -1.59605,0 -2.06353,0.771509 -2.31453,3.819788 -0.17298,2.100883 0.21962,4.463383 0.87245,5.25 C 294.05205,29.767647 293.62389,30 290.42244,30 287.44943,30 286.86667,29.733333 287.8,28.8 Z m 16.85499,-0.628741 c -2.19667,-2.427287 -2.10488,-7.454135 0.17375,-9.516271 C 308.06343,15.727634 314,17.051374 314,20.7 c 0,0.874074 -1.47436,1.3 -4.5,1.3 -4.85674,0 -5.02559,0.149404 -3.46482,3.065741 1.15713,2.162119 4.9277,2.571379 6.76482,0.734259 0.73558,-0.735584 1.2,-0.795567 1.2,-0.154988 C 314,27.326328 310.51669,30 308.32625,30 c -1.10895,0 -2.76102,-0.822933 -3.67126,-1.828741 z m 5.15526,-8.789583 c -0.89008,-0.890079 -2.11151,-1.313521 -2.71429,-0.940983 C 305.11028,19.667912 305.9526,21 308.71429,21 c 2.5009,0 2.58706,-0.127225 1.09596,-1.618324 z m 6.85722,4.368689 0.16747,-6.250365 4.08253,-0.16131 C 323.82629,17.223755 325,17.579736 325,18.5769 c 0,0.855269 -0.87499,1.306884 -2.25,1.16131 -1.97736,-0.209345 -2.28726,0.276782 -2.5575,4.01179 -0.18193,2.514572 0.12432,4.25 0.75,4.25 0.58163,0 1.0575,0.45 1.0575,1 0,0.55 -1.2375,1.000164 -2.75,1.000365 -2.72458,3.62e-4 -2.74845,-0.05741 -2.58253,-6.25 z M 327,27.389216 v -2.610784 l 1.83805,2.269893 c 1.04134,1.286008 2.34169,1.958621 3,1.551767 1.8851,-1.165058 1.35467,-2.373178 -1.88121,-4.284657 -2.30354,-1.360735 -2.9719,-2.407406 -2.75,-4.306536 0.24694,-2.113299 0.88445,-2.557837 4.04316,-2.819264 3.29824,-0.272976 3.75,-0.04349 3.75,1.904987 0,2.127989 -0.0764,2.146224 -1.93699,0.462404 -1.06534,-0.964122 -2.41534,-1.457308 -3,-1.09597 -1.80181,1.113582 -1.19193,2.242902 1.90374,3.52517 C 337.77603,24.392509 336.66402,30 330.37756,30 327.40328,30 327,29.688274 327,27.389216 Z M 194.29443,13.181966 c -0.76757,-0.474382 -0.86795,-1.253984 -0.28328,-2.2 0.7212,-1.1669369 1.15835,-1.2124612 2.14721,-0.223607 1.49135,1.491352 -0.0756,3.52884 -1.86393,2.423607 z M 56.312524,8.3720412 C 55.491477,6.232428 59.616262,3.0516174 63.25,3.0222358 66.762215,2.9938369 66.706724,3.4672494 62.777139,7.0563709 59.147444,10.371585 57.2296,10.761902 56.312524,8.3720412 Z"
         id="path6" />
      <path
         style="fill:#eacd8f"
         d="m 60.281802,35.793696 c -2.074127,-1.001387 -5.07563,-7.333201 -3.990558,-8.418273 0.269815,-0.269816 1.470307,0.885335 2.667759,2.567002 C 60.876142,32.634799 61.716955,33 65.998543,33 c 4.263726,0 4.908913,-0.277009 5.240521,-2.25 0.369255,-2.196977 0.40934,-2.186697 1.701011,0.43623 2.161641,4.38953 0.874347,5.823402 -5.15869,5.74609 -2.904762,-0.03722 -6.279574,-0.549605 -7.499583,-1.138624 z m -10.44427,-2.250929 c -1.0158,-2.229437 -0.680497,-2.901545 3.616896,-7.25 4.196833,-4.246702 4.497739,-4.829175 2.641029,-5.112318 -2.833142,-0.432046 -2.642723,-2.591847 0.404543,-4.588492 2.188698,-1.43409 2.5,-1.448411 2.5,-0.11501 0,2.201625 1.513488,1.870788 3.325576,-0.726947 2.363302,-3.387934 2.092769,0.0516 -0.314616,4 -1.08986,1.7875 -1.564735,3.25 -1.055279,3.25 0.509457,0 1.234093,-0.498043 1.610302,-1.106763 0.476544,-0.771064 0.938449,-0.695235 1.522853,0.25 0.684428,1.107018 1.161048,1.034634 2.589286,-0.393237 1.66723,-1.666802 1.645179,-1.75 -0.463836,-1.75 -2.880937,0 -2.792204,-0.787346 0.472805,-4.195281 L 69.374182,13 h -5.121991 c -2.817095,0 -6.349564,0.466722 -7.849931,1.037161 -1.826553,0.694454 -3.059813,0.705286 -3.732317,0.03278 -1.096998,-1.096998 -0.991978,-1.146937 6.443156,-3.063859 3.099207,-0.799036 6.139123,-2.651628 9.26317,-5.6451826 3.655642,-3.5029455 4.778105,-4.1221836 5.248776,-2.895634 0.706872,1.8420789 -1.03187,4.2116908 -3.71535,5.0633943 C 68.859363,7.8620242 68,8.4568106 68,8.8504093 68,9.7224942 72.190741,9.6181836 73.661018,8.7095025 74.928632,7.9260736 76,8.8239016 76,10.669617 c 0,0.734957 -1.323032,3.461925 -2.940071,6.059929 -3.093782,4.970603 -3.245503,6.490942 -0.41544,4.162955 1.543916,-1.270014 1.636892,-1.110068 1.056996,1.818345 -0.602064,3.040363 -0.451731,3.245382 2.831346,3.861291 3.999634,0.750336 4.3952,1.860828 1.260441,3.5385 -1.836005,0.982601 -2.381994,0.889961 -3.25,-0.551438 -2.954906,-4.906875 -2.83502,-4.860543 -10.675626,-4.125818 -4.105531,0.38472 -8.0037,1.032671 -8.662597,1.439892 -0.658896,0.40722 -1.374279,2.289824 -1.589738,4.183564 -0.21546,1.89374 -0.442047,3.780663 -0.503528,4.193163 -0.24445,1.640115 -2.217942,0.611113 -3.274251,-1.707233 z m 22.84658,-20.191988 c -0.387627,-0.387628 -1.360816,0.162372 -2.162641,1.222222 -2.250041,2.974096 -1.784419,4.134391 0.672973,1.676999 1.206945,-1.206944 1.877295,-2.511594 1.489668,-2.899221 z m 64.558548,18.977985 c 1.56165,-1.561648 1.55941,-1.753006 -0.0341,-2.918239 -1.963,-1.43538 -1.04929,-2.947138 1.24835,-2.065448 C 141.23917,28.412745 139.66821,34 136.58571,34 c -0.55785,0 -0.26223,-0.752056 0.65695,-1.671236 z M 41.5,31.938192 C 40.4,31.479091 36.4625,31.363329 32.75,31.680942 25.272327,32.320675 23.170559,30.653827 30,29.5 c 2.2,-0.371688 4,-1.145121 4,-1.71874 0,-0.633455 -1.374199,-0.819943 -3.5,-0.474973 -4.568969,0.741442 -4.568969,-1.015121 0,-1.872265 2.031577,-0.381126 3.5,-1.247229 3.5,-2.064365 0,-0.979024 -0.716987,-1.227809 -2.354232,-0.816887 -2.160421,0.542232 -2.40642,0.21012 -2.988167,-4.03419 -0.453424,-3.308086 -0.206501,-5.277413 0.867163,-6.91603 1.528391,-2.3326197 8.950372,-5.4607473 10.138194,-4.2729249 0.359163,0.3591626 1.197222,0.2013782 1.862354,-0.3506322 2.34394,-1.945297 3.420474,1.1309017 2.287811,6.5374261 -1.21399,5.794728 -2.171315,7.247263 -5.057416,7.673547 -1.154478,0.170518 -2.307067,0.940838 -2.561308,1.71182 -0.357489,1.084082 0.248024,1.259729 2.671672,0.775 C 41.450336,23.159933 42,23.366021 42,24.851807 42,26.301305 41.388497,26.563865 38.872601,26.19461 36.523276,25.849802 35.859829,26.079486 36.205934,27.117802 36.478157,27.93447 38.064606,28.5 40.083333,28.5 c 3.423514,0 5.873938,1.998557 4.270292,3.482836 C 43.884131,32.417382 42.6,32.397292 41.5,31.938192 Z M 34.41655,18.356872 C 35.214437,16.277612 34.722388,15.785563 32.643128,16.58345 31.739408,16.93024 31,17.840833 31,18.606989 c 0,1.942017 2.649788,1.748033 3.41655,-0.250117 z m 5.395291,-1.618356 C 40.015316,15.681957 39.529491,15 38.573324,15 37.707996,15 37,15.188196 37,15.418213 c 0,0.230016 -0.290659,1.175657 -0.645909,2.101423 -0.486113,1.266792 -0.17971,1.59343 1.238517,1.320304 1.036434,-0.199599 2.035088,-1.145239 2.219233,-2.101424 z m -4.84511,-5.0237 L 34.933461,9.5 32.966731,11.860784 C 30.429489,14.906386 30.444973,16.367409 33,15 c 1.1,-0.588702 1.985029,-2.067035 1.966731,-3.285184 z m 4.451482,1.678195 C 42.170835,12.336731 40.651726,9 37.418213,9 37.188196,9 37,10.125 37,11.5 c 0,2.722072 0.08478,2.788435 2.418213,1.893011 z m 24.248454,16.940322 c -1.084886,-1.084885 -0.759167,-3.508535 0.377138,-2.80626 0.574093,0.354809 1.699093,0.101266 2.5,-0.563428 1.556665,-1.291917 1.90287,-0.291237 0.849206,2.454568 -0.623786,1.62556 -2.54427,2.097195 -3.726344,0.91512 z M 13.526321,29.042588 c -0.325442,-0.526577 0.773,-1.663133 2.440983,-2.52568 C 18.325024,25.297683 19,24.278826 19,21.939136 c 0,-2.668233 -0.219913,-2.89181 -1.939312,-1.971615 -1.292419,0.691682 -2.146411,0.702793 -2.560174,0.03331 -0.341474,-0.552518 0.469843,-1.419263 1.802927,-1.9261 2.554578,-0.971249 4.112573,-3.59259 3.104603,-5.22352 C 19.0789,12.318645 17.38994,12.155458 15.6548,12.488574 12.642648,13.066854 12.589646,13.022913 14.482624,11.516778 16.859582,9.6255683 25.886274,6.8116792 27.123406,7.5762693 28.988529,8.7289783 27.870348,10.882073 25.25,11.183578 23.272141,11.411155 22.5,12.061557 22.5,13.5 c 0,1.387461 0.562173,1.90399 1.83555,1.686518 1.312248,-0.224111 1.735983,0.203527 1.486305,1.5 C 25.62977,17.683933 24.803773,18.5 23.986305,18.5 c -0.817468,0 -1.515495,0.675 -1.551171,1.5 -0.10763,2.488911 0.663084,3.163376 2.17806,1.906058 1.616692,-1.341736 2.943341,-0.615568 1.915051,1.048241 -0.69879,1.130666 -10.507446,7.01986 -11.719228,7.036317 -0.380041,0.0052 -0.957254,-0.421451 -1.282696,-0.948028 z m 78.433271,-0.40218 C 92.531816,28.068184 93,24.337361 93,20.34969 c 0,-5.850093 -0.337969,-7.447159 -1.75,-8.269591 -1.361232,-0.792845 -0.652313,-1.026037 3.19113,-1.04969 4.156477,-0.02558 4.681005,0.168091 3.303067,1.219591 -1.194787,0.911738 -1.701457,3.144267 -1.872328,8.25 l -0.234265,7 3.891314,0.322892 c 2.828842,0.23473 4.243502,-0.15875 5.181202,-1.44113 C 105.8492,24.823967 106,24.808546 106,26.249853 c 0,2.415586 -1.55098,2.99287 -8.659274,3.223035 -4.447299,0.144003 -6.101679,-0.111935 -5.381134,-0.83248 z M 110.65499,28.171259 C 107.0981,24.240942 109.70297,17 114.67375,17 116.54886,17 120,19.804806 120,21.328741 120,21.697933 117.975,22 115.5,22 c -5.01051,0 -5.84263,1.474965 -2.52562,4.476811 1.86677,1.689411 2.116,1.693988 4.57318,0.08398 2.51691,-1.649143 2.56587,-1.641247 1.5534,0.250553 -1.88461,3.521428 -5.90412,4.168623 -8.44597,1.359913 z M 116,20.059017 c 0,-1.436536 -1.63742,-2.135382 -3.40976,-1.455273 C 110.14862,19.540681 110.70267,21 113.5,21 c 1.375,0 2.5,-0.423442 2.5,-0.940983 z M 124,28 c -5.26917,-5.269165 0.53766,-13.458537 7.06574,-9.964816 C 134.73503,19.998928 133.38609,22 128.39301,22 c -3.79013,0 -4.49936,0.280465 -4,1.581787 0.33385,0.869984 0.60699,1.754151 0.60699,1.964817 0,0.210666 0.93743,0.884728 2.08319,1.497916 1.6619,0.889426 2.47082,0.764083 4,-0.619803 C 132.13743,25.470636 133,25.140025 133,25.690025 133,27.213586 129.55495,30 127.67126,30 126.75207,30 125.1,29.1 124,28 Z m 5.75,-8.25 c -0.22917,-0.6875 -1.24167,-1.25 -2.25,-1.25 -1.00833,0 -2.02083,0.5625 -2.25,1.25 -0.26389,0.791667 0.56111,1.25 2.25,1.25 1.68889,0 2.51389,-0.458333 2.25,-1.25 z M 156,28.6 c 0.55,-0.55 1,-4.285 1,-8.3 0,-7.12 -0.0616,-7.3 -2.5,-7.3 -1.375,0 -2.5,0.45 -2.5,1 0,0.55 -0.40787,1 -0.90638,1 -0.49851,0 -0.67103,-0.9 -0.38337,-2 0.46344,-1.77219 1.36402,-2 7.90638,-2 7.01355,0 7.37942,0.112698 7.30442,2.25 -0.0434,1.2375 -0.30592,1.6875 -0.58333,1 C 165.06031,13.5625 163.74583,13 162.41667,13 160.08181,13 160,13.247126 160,20.3 c 0,4.015 0.45,7.75 1,8.3 0.66667,0.666667 -0.16667,1 -2.5,1 -2.33333,0 -3.16667,-0.333333 -2.5,-1 z m 11,-0.959375 c 0,-1.87492 0.0762,-1.881684 1.96275,-0.174331 1.91562,1.733609 5.03725,1.525304 5.03725,-0.336133 0,-0.512935 -1.575,-1.861882 -3.5,-2.99766 C 165.35067,21.094323 166.32654,17 172.2,17 c 2.21475,0 2.8,0.457988 2.8,2.19113 0,2.088826 -0.0633,2.104584 -1.35539,0.33752 -0.82984,-1.134866 -1.9931,-1.6089 -3,-1.222515 -2.4757,0.950016 -1.98738,2.309246 1.32214,3.680091 5.85793,2.426434 4.66195,8.253459 -1.60733,7.831245 C 167.77235,29.643241 167,29.142771 167,27.640625 Z m 12.10496,0.555493 c -1.22121,-2.281853 -0.42926,-3.494705 3.64504,-5.582266 3.57323,-1.830828 4.13461,-3.337164 1.60539,-4.307717 -1.00472,-0.385546 -2.16795,0.08462 -2.98967,1.208384 -0.73978,1.011714 -1.63883,1.545704 -1.99789,1.186646 C 178.3582,19.691529 181.02912,17 183.04066,17 187.12975,17 188,18.081995 188,23.166006 c 0,3.046708 0.38476,4.714236 1,4.333994 0.55,-0.339919 1,-0.189621 1,0.333994 0,1.383034 -3.23186,2.408877 -3.94644,1.252662 -0.38044,-0.615559 -1.15537,-0.633883 -2.07995,-0.04918 -2.24353,1.418796 -3.80331,1.149249 -4.86865,-0.841356 z m 5.31325,-0.803107 C 186.35996,26.647894 186.52955,23 184.62244,23 c -1.84566,0 -3.95615,2.651035 -3.14951,3.956195 0.75385,1.219761 0.86284,1.235925 2.94528,0.436816 z m 8.5223,1.26648 c 1.52615,-1.52615 1.36607,-9.655735 -0.19051,-9.674804 C 191.91667,18.974479 192,18.64625 193,18 c 2.61065,-1.687132 3,-1.129066 3,4.3 0,2.915 0.42557,5.7275 0.9457,6.25 0.59627,0.598975 -0.16471,0.990457 -2.05949,1.059491 -2.11595,0.07709 -2.69169,-0.204013 -1.9457,-0.95 z M 210.2,28.8 c -1.98143,-1.981435 -1.36116,-5.528069 1.33815,-7.651345 1.90183,-1.495987 2.38903,-2.590615 1.94335,-4.366332 -1.17151,-4.667663 5.33161,-7.6206746 7.87785,-3.577266 0.84382,1.339979 0.58078,2.229766 -1.22849,4.155651 -1.90838,2.031372 -2.11047,2.808873 -1.18135,4.544943 C 219.56598,23.057543 220.47421,24 220.9678,24 c 1.18804,0 2.33054,-3.708255 1.53773,-4.991051 C 222.13977,18.417142 223.10585,18 224.84219,18 h 2.96023 l -2.90121,3.105755 c -3.34518,3.581032 -3.47609,4.172248 -1.32001,5.961636 1.23136,1.021941 1.99755,1.052269 3.463,0.137078 1.54067,-0.962166 1.78112,-0.912841 1.32642,0.272097 -0.78381,2.04258 -3.9355,2.826672 -6.2922,1.565403 -1.09842,-0.587855 -3.19383,-2.637785 -4.65646,-4.555399 -3.07811,-4.035607 -3.93779,-4.259762 -5.45617,-1.422648 -1.63741,3.05952 0.54472,5.271728 4.4782,4.539941 2.86844,-0.533647 2.93687,-0.47756 1.11488,0.913797 -2.34461,1.790456 -5.7212,1.920007 -7.35887,0.28234 z m 9.20608,-13.081995 c 0.7493,-1.187885 0.7104,-2.001528 -0.13617,-2.8481 -1.69181,-1.6918 -4.22114,0.600571 -3.53935,3.207754 0.59149,2.261859 2.11601,2.112683 3.67552,-0.359654 z M 239.85,29.216667 C 241.43526,28.688246 241.39149,13.791491 239.8,12.2 c -1.76712,-1.767116 5.34223,-1.58524 9.73212,0.248973 5.93759,2.480885 4.07414,8.88436 -2.5854,8.88436 -2.63533,0 -2.94672,0.33111 -2.94672,3.133334 0,1.723333 0.45,3.583333 1,4.133333 0.66667,0.666667 -0.21667,1 -2.65,1 -2.0075,0 -3.1325,-0.1725 -2.5,-0.383333 z m 9.66523,-11.264655 C 250.29661,15.490094 248.46743,13 245.87756,13 244.39844,13 244,13.742751 244,16.5 c 0,3.040812 0.31915,3.5 2.43261,3.5 1.57336,0 2.66221,-0.7234 3.08262,-2.047988 z M 257.25,29.337719 c -2.47025,-0.996768 -1.272,-4.392189 2.29212,-6.495074 3.62485,-2.138713 4.0953,-4.089911 1.12501,-4.665969 C 259.68037,17.985303 259,18.495437 259,19.426676 259,20.292004 258.2875,21 257.41667,21 c -0.87084,0 -1.40655,-0.530351 -1.19048,-1.178557 0.68686,-2.060584 3.37749,-3.137729 6.11903,-2.449645 2.42853,0.609522 2.65478,1.090793 2.65478,5.647254 0,3.309925 0.41935,4.986085 1.25,4.996261 0.84924,0.0104 0.77984,0.312675 -0.21646,0.942797 -0.85501,0.540766 -1.91139,0.558232 -2.53354,0.04189 -0.62215,-0.516342 -1.67853,-0.498876 -2.53354,0.04189 -1.60724,1.016525 -1.87714,1.038009 -3.71646,0.295829 z m 5.56955,-4.097935 C 263.02429,23.804703 262.61919,23 261.692,23 c -1.93878,0 -4.03349,2.638445 -3.18485,4.011564 1.11666,1.806803 3.96904,0.634884 4.3124,-1.77178 z M 270.0543,28.55 c 1.32326,-1.329273 1.18406,-8.284654 -0.18272,-9.129366 -0.75534,-0.466828 -0.52499,-1.035092 0.69674,-1.718806 1.30855,-0.732301 1.93852,-0.681318 2.22566,0.18012 0.31144,0.934324 0.72189,0.934807 1.84565,0.0022 1.0946,-0.908438 1.72593,-0.918562 2.60275,-0.04174 0.63669,0.63669 0.73012,1.209525 0.20762,1.272968 -0.5225,0.06344 -1.625,0.175942 -2.45,0.25 -1.82845,0.164134 -2.64656,7.150661 -1.06105,9.061095 0.83191,1.002381 0.41603,1.26329 -1.88117,1.180212 -1.85941,-0.06724 -2.59973,-0.457699 -2.00348,-1.056657 z m 11.61237,0.783333 C 281.3,28.966667 281,26.581667 281,24.033333 281,21.485 280.60074,18.9725 280.11277,18.45 c -0.52827,-0.565636 -0.12367,-1.728829 1,-2.874965 1.66565,-1.698956 1.88723,-1.728308 1.88723,-0.25 0,0.921231 0.7875,1.688649 1.75,1.705374 1.66667,0.02896 1.66667,0.07895 0,1.04969 -2.35147,1.369605 -2.58912,10.455881 -0.25,9.558275 0.825,-0.316583 1.5,-0.187873 1.5,0.286022 0,0.473895 -0.7118,1.134771 -1.58179,1.468615 -1.95858,0.751579 -1.93988,0.751985 -2.75154,-0.05968 z M 288.5,24.001978 c 0,-3.714716 0.46996,-5.797514 1.44674,-6.411768 0.93078,-0.585329 1.58032,-0.509031 1.82131,0.213939 0.27694,0.83083 0.84276,0.831344 2.1708,0.002 C 297.23163,15.749742 299,17.483644 299,22.768615 c 0,2.657262 0.465,5.296385 1.03333,5.864718 0.71111,0.711111 0.0771,1.033334 -2.03333,1.033334 -2.11039,0 -2.74444,-0.322223 -2.03333,-1.033334 C 296.535,28.065 297,25.633702 297,23.230449 c 0,-3.959401 -0.2112,-4.339556 -2.25,-4.05 -1.99086,0.282748 -2.25,0.895641 -2.25,5.321525 0,4.335307 -0.26656,5.001975 -2,5.001979 -1.75766,3e-6 -2,-0.666661 -2,-5.501975 z M 305,28 c -2.3975,-2.397502 -2.56662,-5.746031 -0.4433,-8.777494 1.81559,-2.592106 5.61647,-2.906476 7.87187,-0.651077 C 315.00743,21.150289 314.25512,22 309.39301,22 c -3.79013,0 -4.49936,0.280465 -4,1.581787 0.33385,0.869984 0.60699,1.754151 0.60699,1.964817 0,0.210666 0.93743,0.884728 2.08319,1.497916 1.6619,0.889426 2.47082,0.764083 4,-0.619803 C 313.13743,25.470636 314,25.140025 314,25.690025 314,27.213586 310.55495,30 308.67126,30 307.75207,30 306.1,29.1 305,28 Z m 6,-8.031385 c 0,-1.875598 -3.1266,-2.270586 -4.79183,-0.605359 C 304.69251,20.878915 304.80922,21 307.78571,21 309.55357,21 311,20.535877 311,19.968615 Z M 317.0543,28.55 c 1.32326,-1.329273 1.18406,-8.284654 -0.18272,-9.129366 -0.75534,-0.466828 -0.52499,-1.035092 0.69674,-1.718806 1.30855,-0.732301 1.93852,-0.681318 2.22566,0.18012 0.31144,0.934324 0.72189,0.934807 1.84565,0.0022 1.0946,-0.908438 1.72593,-0.918562 2.60275,-0.04174 0.63669,0.63669 0.73012,1.209525 0.20762,1.272968 -0.5225,0.06344 -1.625,0.175942 -2.45,0.25 -1.82845,0.164134 -2.64656,7.150661 -1.06105,9.061095 0.83191,1.002381 0.41603,1.26329 -1.88117,1.180212 -1.85941,-0.06724 -2.59973,-0.457699 -2.00348,-1.056657 z M 327,27.632305 c 0,-1.866653 0.0764,-1.873117 1.96275,-0.166011 2.17341,1.9669 5.31066,1.409767 4.46538,-0.79299 -0.29598,-0.771322 -1.65103,-1.909463 -3.01121,-2.529202 C 325.44352,21.878068 326.60807,17 332.12244,17 c 2.32689,0 2.87147,0.430574 2.84576,2.25 -0.0294,2.083517 -0.1301,2.120513 -1.36025,0.5 -0.73064,-0.9625 -2.06633,-1.75 -2.96819,-1.75 -2.8274,0 -1.79032,2.713618 1.86024,4.867499 3.89968,2.300865 4.22995,3.259696 1.91887,5.570775 C 332.15753,30.699609 327,30.139306 327,27.632305 Z M 194,12 c 0,-0.55 0.42344,-1 0.94098,-1 0.51754,0 1.2191,0.45 1.55902,1 0.33992,0.55 -0.0835,1 -0.94098,1 C 194.70156,13 194,12.55 194,12 Z M 56.337155,8.4362288 C 55.629983,6.5933685 59.381468,3.5944972 62.75,3.3099128 65.926449,3.0415562 65.547654,4.3449062 61.566722,7.3813111 57.559249,10.43796 57.137907,10.522954 56.337155,8.4362288 Z"
         id="path5" />
      <path
         style="fill:#e6c376"
         d="M 61.465282,36.071613 C 58.755937,34.9426 57.412648,33.122255 56.615885,29.5 l -0.659889,-3 2.772002,3.274996 c 1.880305,2.221496 3.975578,3.469442 6.513538,3.879469 4.209559,0.680085 7.184534,-1.002816 6.301519,-3.564679 -0.354925,-1.029734 -0.0054,-0.88778 0.992232,0.402957 0.847107,1.096009 1.410711,2.896009 1.252454,4 -0.239346,1.669656 -1.128693,2.042535 -5.287741,2.217008 -2.75,0.115362 -5.915623,-0.1718 -7.034718,-0.638138 z M 49.990549,33.982341 c -0.913931,-1.707697 -0.434413,-2.783073 3.121353,-7 C 55.422546,24.242053 57.692632,22 58.156537,22 58.620442,22 59,21.541427 59,20.980948 59,20.393303 57.941646,20.227526 56.5,20.589356 53.188392,21.420517 53.206972,19.122927 56.531425,16.703315 58.651073,15.160587 59,15.12525 59,16.453315 c 0,2.368551 2.690623,1.837745 3.343705,-0.659645 0.317333,-1.213481 0.876103,-1.907196 1.241711,-1.541588 0.365608,0.365608 -0.235087,2.483457 -1.334877,4.70633 C 60.704214,22.083812 60.562515,23 61.62546,23 c 0.755997,0 1.381431,-0.5625 1.389853,-1.25 0.01063,-0.867954 0.292975,-0.811198 0.923784,0.185698 0.7529,1.18984 1.178393,1.211684 2.484688,0.127555 1.999837,-1.659717 2.047664,-3.181395 0.07622,-2.424879 -2.223366,0.853185 -1.832058,-1.656012 0.674314,-4.323923 2.072358,-2.205924 2.084081,-2.319202 0.25,-2.415768 -4.011293,-0.211198 -8.867193,0.319201 -11.263545,1.230292 -1.547733,0.588448 -2.840507,0.591287 -3.424272,0.0075 -0.977937,-0.977937 0.09963,-1.450917 6.021542,-2.643061 1.791921,-0.360733 5.757128,-2.6916217 8.81157,-5.1797531 3.054443,-2.4881315 5.806418,-4.2709897 6.1155,-3.9619072 1.183606,1.1836059 -0.816664,3.8716088 -3.687387,4.9551859 C 68.348975,7.9292941 67,8.7898183 67,9.2192376 c 0,1.2250264 5.467997,0.9127654 6.767217,-0.386455 0.889624,-0.8896233 1.319372,-0.7707105 1.806989,0.5 0.981026,2.5565134 -0.301297,4.8886104 -2.333403,4.2436454 -1.133392,-0.359725 -2.238022,0.189472 -3.074214,1.528428 -1.686887,2.701135 -0.445504,3.997069 1.40484,1.466573 0.774348,-1.058985 1.65605,-1.677283 1.959337,-1.373996 0.303287,0.303287 -0.603678,1.9242 -2.015479,3.60203 -2.75708,3.276604 -1.837008,5.379401 1.0782,2.464193 1.67297,-1.67297 1.725326,-1.607723 1.123711,1.400355 C 73.05027,25.998648 74.077472,27 78.165121,27 c 2.480707,0 1.902249,2.357931 -0.702283,2.862668 -1.152274,0.223301 -2.746421,-0.734675 -4.148384,-2.492904 -1.789971,-2.244838 -3.136462,-2.875568 -6.295704,-2.949065 -2.210312,-0.05142 -4.019776,0.170386 -4.02103,0.492904 -0.0013,0.322519 -1.30191,0.631817 -2.890346,0.68733 -4.930504,0.172312 -5.932871,1.052589 -6.65091,5.840818 -0.741106,4.942048 -1.775069,5.699965 -3.465915,2.54059 z m 88.693171,-2.88088 c 0.3145,-1.202652 0.17682,-2.054975 -0.30595,-1.894051 C 137.895,29.368335 137.3875,29.05 137.25,28.5 c -0.1375,-0.55 0.30634,-1 0.9863,-1 1.60269,0 2.25764,3.40606 0.91343,4.75027 -0.71711,0.717108 -0.86112,0.362089 -0.46601,-1.148809 z M 26,30.975366 c 0,-0.395862 1.8,-1.007581 4,-1.359375 2.485946,-0.397519 4,-1.176501 4,-2.058003 0,-1.118698 -0.672675,-1.225456 -3.183768,-0.505284 -1.751073,0.502201 -3.388483,0.708379 -3.638689,0.458173 C 26.69851,27.031844 31.46282,25 33.0651,25 33.579295,25 34,24.276216 34,23.391592 c 0,-1.197608 -0.611867,-1.454839 -2.395645,-1.007139 -2.201571,0.552559 -2.431877,0.257549 -2.84288,-3.641592 -0.430074,-4.080065 1.431232,-9.9680673 3.010429,-9.5231075 0.400453,0.1128328 1.757594,-0.3653825 3.015869,-1.0627006 1.258275,-0.6973181 3.132904,-0.9996167 4.165843,-0.6717747 1.032938,0.327842 2.181003,0.1059204 2.551255,-0.4931592 0.47231,-0.7642139 1.051122,-0.7755754 1.939755,-0.038075 0.968714,0.8039609 1.031255,2.2851804 0.265943,6.2985584 C 42.509055,19.553475 41.513322,21 38.377555,21 36.856508,21 36,21.581259 36,22.613499 c 0,1.223957 0.724282,1.507198 3,1.173193 2.047191,-0.300464 3,-0.01891 3,0.886501 C 42,25.480756 40.825955,26 39,26 c -2.087255,0 -3,0.488329 -3,1.605035 0,1.269452 0.836328,1.525279 4,1.223575 3.08637,-0.294333 3.999923,-0.03281 3.999662,1.144964 -2.76e-4,1.248241 -1.640487,1.544206 -9,1.623984 C 30.049848,31.651215 26,31.371229 26,30.975366 Z M 35,17.357827 C 35,16.335389 34.447144,15.998173 33.418213,16.393011 32.548229,16.726855 31.648229,17 31.418213,17 31.188196,17 31,17.915833 31,19.035184 31,20.76049 31.30452,20.907393 33,20 c 1.1,-0.588702 2,-1.77768 2,-2.642173 z m 5,-0.431151 C 40,15.495577 39.461484,14.95706 38.261484,15.188159 35.654747,15.690171 35.364033,19 37.926676,19 39.357775,19 40,18.357775 40,16.926676 Z M 33.587716,15.234687 C 34.185959,14.830609 34.931331,13.4875 35.244096,12.25 35.962464,9.40768 33.516187,9.1669782 32.035184,11.934259 c -1.838118,3.434554 -1.068449,5.070744 1.552532,3.300428 z M 40.5,11.5 C 40.5,10.415065 39.7125,9.3757314 38.75,9.1903709 37.43925,8.9379436 37,9.5176609 37,11.5 c 0,1.982339 0.43925,2.562056 1.75,2.309629 C 39.7125,13.624269 40.5,12.584935 40.5,11.5 Z m 22.958881,18.433469 c -0.362533,-0.586592 -0.501591,-1.149092 -0.309017,-1.25 0.192575,-0.100908 1.362636,-0.749782 2.600136,-1.441943 2.284205,-1.277605 2.737899,-0.676545 1.643011,2.176687 -0.692769,1.805327 -2.953803,2.101457 -3.93413,0.515256 z M 13.539504,29.063918 c -0.318192,-0.514844 0.638664,-1.527344 2.126347,-2.25 1.49459,-0.72601 3.023115,-2.516087 3.41611,-4.000654 0.863104,-3.26044 0.244286,-4.058233 -2.152756,-2.775376 -1.120775,0.599821 -2.02833,0.610741 -2.38803,0.02874 -0.319111,-0.516332 0.666079,-1.534264 2.189312,-2.262071 1.639882,-0.783543 2.906665,-2.28919 3.105768,-3.691391 0.314233,-2.213006 0.101372,-2.324042 -3.25,-1.69532 -6.9295987,1.3 -2.555004,-1.815725 5.552003,-3.9543129 4.03928,-1.0655419 4.813163,-1.0325064 5.296128,0.2260804 C 28.293745,10.929062 28.219,11 25,11 c -2.547119,0 -3,0.384018 -3,2.543837 0,1.813957 0.472345,2.459529 1.646256,2.25 C 24.551697,15.632227 25.489197,16.0625 25.72959,16.75 25.988292,17.489865 25.316441,18 24.083333,18 22.527778,18 22,18.633333 22,20.5 c 0,2.818269 0.294303,2.948045 3.181443,1.402894 1.617447,-0.865631 1.958385,-0.812884 1.615926,0.25 C 26.383641,23.436974 16.39403,30 14.853254,30 14.448883,30 13.857695,29.578763 13.539504,29.063918 Z M 111.22251,28.443296 C 106.81966,25.359424 109.30794,17 114.62874,17 116.88428,17 119,18.790822 119,20.7 c 0,0.85 -1.38462,1.3 -4,1.3 -4.35879,0 -5.24363,1.613517 -2.42857,4.428571 2.02207,2.022068 3.30779,1.982106 5.74534,-0.178571 1.90885,-1.692029 1.93722,-1.679363 0.85652,0.382351 C 118.16586,28.554286 116.0054,30 114.14072,30 c -0.38264,0 -1.69584,-0.700517 -2.91821,-1.556704 z M 116.75,19.75 c -0.22917,-0.6875 -1.46667,-1.25 -2.75,-1.25 -1.28333,0 -2.52083,0.5625 -2.75,1.25 -0.27485,0.824561 0.66111,1.25 2.75,1.25 2.08889,0 3.02485,-0.425439 2.75,-1.25 z m 7.74113,8.867172 C 123.22077,27.68826 122.6,26.008538 122.6,23.5 c 0,-5.659638 5.19653,-8.560613 8.82857,-4.928571 C 133.99585,21.138709 133.26016,22 128.5,22 c -4.91869,0 -5.27176,0.45314 -2.9433,3.777494 1.85822,2.652972 3.16428,2.784989 5.61456,0.567518 C 132.17707,25.434769 133,25.184252 133,25.788308 133,27.037597 129.10936,30 127.46862,30 c -0.5975,0 -1.93737,-0.622272 -2.97749,-1.382828 z M 130,19.968615 c 0,-1.875598 -3.1266,-2.270586 -4.79183,-0.605359 C 123.69251,20.878915 123.80922,21 126.78571,21 128.55357,21 130,20.535877 130,19.968615 Z m 38.25,9.369104 c -0.6875,-0.277412 -1.25,-1.21163 -1.25,-2.07604 0,-1.359373 0.26511,-1.331736 1.96275,0.204615 1.91562,1.733609 5.03725,1.525304 5.03725,-0.336133 0,-0.512935 -1.575,-1.861882 -3.5,-2.99766 -5.20107,-3.068705 -4.0393,-7.40302 1.85357,-6.915311 1.9337,0.160038 2.63824,0.76625 2.61602,2.250918 -0.0278,1.860078 -0.1166,1.883915 -1.04969,0.281892 C 172.70555,17.66509 169,17.4024 169,19.401224 c 0,0.770673 1.575,2.330497 3.5,3.466275 3.90344,2.303088 4.47759,4.538941 1.56574,6.097317 -2.04338,1.093584 -3.75735,1.203483 -5.81574,0.372903 z m 12,0 c -2.45712,-0.991469 -1.27518,-4.390312 2.25,-6.47022 3.83686,-2.2638 4.37771,-3.593459 1.85539,-4.561364 -1.00472,-0.385546 -2.16795,0.08462 -2.98967,1.208384 -0.73978,1.011714 -1.63883,1.545704 -1.99789,1.186646 C 178.24886,19.582197 181.13176,17 183.5,17 c 3.14831,0 4.29353,1.779866 4.50402,7 0.24718,6.13007 0.18056,6.398078 -1.28756,5.179647 -0.81367,-0.675291 -1.82036,-0.72572 -2.75,-0.137757 -1.60724,1.016525 -1.87714,1.038009 -3.71646,0.295829 z M 185.81955,25.25 c 0.35119,-2.472796 -1.62382,-3.04573 -3.61955,-1.05 -1.99573,1.99573 -1.4228,3.970744 1.05,3.619551 1.44596,-0.205359 2.36419,-1.123594 2.56955,-2.569551 z M 210.75,28.919901 c -2.61596,-1.523657 -2.18632,-5.587908 0.79738,-7.5429 2.0604,-1.350025 2.4303,-2.202138 1.93496,-4.457389 -0.80544,-3.667163 3.16236,-6.715317 6.4506,-4.9555 2.76201,1.478184 2.60951,3.634353 -0.39635,5.603868 -2.33425,1.529459 -2.38065,1.740387 -0.88499,4.023053 1.94303,2.965435 2.94597,3.029428 4.41646,0.281793 0.88797,-1.65919 0.84071,-2.315829 -0.21481,-2.984687 -0.94017,-0.595758 -0.49828,-0.862188 1.44764,-0.872826 L 227.10178,18 l -2.71094,3.554232 c -2.5364,3.325385 -2.60302,3.662159 -1.03473,5.230451 1.3742,1.374193 2.02701,1.45715 3.62306,0.460401 1.61259,-1.00708 1.85148,-0.967338 1.39145,0.231482 -0.85801,2.235925 -4.22702,2.847546 -6.71296,1.218693 -1.92201,-1.259351 -2.51702,-1.271263 -4.14217,-0.08293 -2.22533,1.627202 -4.33514,1.723118 -6.76549,0.30757 z m 7.55698,-1.560217 c 1.03872,-1.038715 -2.64298,-6.442261 -4.18227,-6.138238 -2.44099,0.482116 -3.67698,3.408186 -2.19428,5.194731 1.31348,1.582647 5.1672,2.152862 6.37655,0.943507 z m 1.0991,-11.641679 c 0.7493,-1.187885 0.7104,-2.001528 -0.13617,-2.8481 -1.69181,-1.6918 -4.22114,0.600571 -3.53935,3.207754 0.59149,2.261859 2.11601,2.112683 3.67552,-0.359654 z m 37.60449,12.79473 c -1.74455,-2.102049 -0.51359,-4.496593 2.99171,-5.819697 3.27889,-1.237641 3.94364,-3.392824 1.35311,-4.386903 -0.97418,-0.373828 -2.14016,0.04662 -2.86024,1.031385 C 257.14194,21.18814 256,21.507436 256,20.035184 c 0,-1.637054 4.05708,-3.237675 6.59314,-2.601163 2.13949,0.536976 2.40686,1.15741 2.40686,5.585031 0,3.309925 0.41935,4.986085 1.25,4.996261 0.84924,0.0104 0.77984,0.312675 -0.21646,0.942797 -0.85501,0.540766 -1.91139,0.558232 -2.53354,0.04189 -0.62215,-0.516342 -1.67853,-0.498876 -2.53354,0.04189 -2.00038,1.265172 -2.52497,1.195002 -3.95589,-0.529155 z M 262.81955,25.25 c 0.35119,-2.472796 -1.62382,-3.04573 -3.61955,-1.05 -1.99573,1.99573 -1.4228,3.970744 1.05,3.619551 1.44596,-0.205359 2.36419,-1.123594 2.56955,-2.569551 z M 282.25,29.281721 C 281.4623,28.999165 281,26.86086 281,23.5 c 0,-2.933333 -0.3848,-5.483333 -0.85511,-5.666667 -0.47031,-0.183333 -0.0203,-1.199567 1,-2.258298 C 282.71162,13.949309 283,13.899048 283,15.25171 c 0,0.880903 0.7875,1.807437 1.75,2.058964 1.66667,0.435546 1.66667,0.462847 0,0.573325 -1.41365,0.09371 -1.75,1.060986 -1.75,5.032668 0,2.936881 0.4835,5.077834 1.20075,5.316915 0.67744,0.225813 0.78639,0.639137 0.25,0.948388 -0.52291,0.301476 -1.51325,0.346365 -2.20075,0.09975 z M 305,28 c -1.1,-1.1 -2,-3.125 -2,-4.5 0,-2.93262 3.2079,-6.5 5.84501,-6.5 C 310.5852,17 314,19.867471 314,21.328741 314,21.697933 311.975,22 309.5,22 c -4.94126,0 -5.84611,1.471812 -2.67126,4.345012 2.30476,2.085777 3.04219,2.07301 5.48803,-0.09501 1.90885,-1.692029 1.93722,-1.679363 0.85652,0.382351 C 311.20721,30.383148 307.93131,30.931309 305,28 Z m 6,-8.031385 c 0,-1.875598 -3.1266,-2.270586 -4.79183,-0.605359 C 304.69251,20.878915 304.80922,21 307.78571,21 309.55357,21 311,20.535877 311,19.968615 Z m 17.25,9.369104 C 327.5625,29.060307 327,28.16369 327,27.345238 c 0,-1.262658 0.24563,-1.242467 1.62138,0.133282 0.89176,0.891758 2.31697,1.486401 3.16713,1.321429 2.85549,-0.554098 2.32329,-2.536431 -1.24639,-4.642594 -5.23915,-3.091178 -4.10669,-7.429965 1.81145,-6.940165 1.9337,0.160038 2.63824,0.76625 2.61602,2.250918 -0.0278,1.860078 -0.1166,1.883915 -1.04969,0.281892 C 332.68245,17.625433 329,17.419091 329,19.47432 c 0,0.810876 1.29547,2.144232 2.87882,2.963015 3.58764,1.855242 4.49711,4.043878 2.50726,6.033726 -1.51884,1.518841 -3.74173,1.832801 -6.13608,0.866658 z M 92.830761,21.452101 C 93.012679,17.298197 92.713445,13.359649 92.165797,12.699774 91.425214,11.807426 92.026852,11.5 94.513778,11.5 c 3.031354,0 3.205502,0.152711 1.864254,1.634773 -1.058951,1.170127 -1.393979,3.443936 -1.17874,8 L 95.5,27.5 l 3.960116,0.322892 c 2.913154,0.237526 4.336694,-0.159038 5.384534,-1.5 1.37701,-1.762229 1.4033,-1.761933 0.78988,0.0089 -0.34899,1.007484 -0.63453,2.019984 -0.63453,2.25 0,0.230017 -2.8125,0.41926 -6.25,0.420541 l -6.25,0.0023 z m 63.999319,-0.575005 0.33008,-8.127601 -3.08008,0.45206 C 152.38604,13.450187 151,13.281551 151,12.826807 151,12.372063 154.375,12 158.5,12 c 4.125,0 7.5,0.372063 7.5,0.826807 0,0.454744 -1.35,0.628669 -3,0.386501 l -3,-0.440307 v 8.1135 c 0,7.05958 -0.22732,8.113804 -1.75,8.115848 -1.55035,0.0021 -1.71234,-0.924905 -1.41992,-8.125253 z m 37.01247,2.632353 c -0.22098,-3.541908 0.0707,-5.648564 0.82187,-5.935774 0.78406,-0.299794 1.27403,1.494256 1.5,5.492373 0.22744,4.024192 -0.0374,5.937009 -0.82187,5.935774 -0.69416,-0.0011 -1.29456,-2.199492 -1.5,-5.492373 z m 47.98863,-1.837408 c 0.28756,-5.694606 0.0194,-7.678617 -1.20316,-8.901168 -1.43095,-1.430945 -1.19137,-1.53132 2.64938,-1.109991 7.58918,0.83253 8.66992,1.281029 9.31904,3.867334 C 253.34686,18.518133 251.57337,21 248.68643,21 c -1.97748,0 -1.98763,-0.05927 -0.2301,-1.344409 C 251.2413,17.619168 249.81748,13 246.4048,13 c -2.55694,0 -2.55707,4.99e-4 -2.23095,8.002349 0.27046,6.635896 0.0667,8.001948 -1.19328,8 -1.25453,-0.0019 -1.45492,-1.279958 -1.14939,-7.330308 z m 28.99922,3.309144 c 0.21663,-2.271523 -0.1512,-4.662801 -0.84601,-5.5 C 269.30828,18.666533 268.99841,18 269.29577,18 c 0.29736,0 1.32628,-0.301472 2.28649,-0.669939 1.19028,-0.456755 1.51574,-0.297649 1.02277,0.5 -0.9469,1.532111 0.65473,1.510175 2.19497,-0.03006 0.93333,-0.933333 1.46667,-0.933333 2.4,0 0.66,0.66 0.7725,1.251907 0.25,1.31535 -0.5225,0.06344 -1.625,0.175942 -2.45,0.25 -1.10399,0.0991 -1.5,1.389119 -1.5,4.886269 0,3.594263 -0.37179,4.751225 -1.52643,4.75 -1.17875,-0.0013 -1.43913,-0.916991 -1.14317,-4.020434 z m 18.52853,-0.302193 c -0.0108,-2.376555 -0.3184,-4.804402 -0.68355,-5.395216 -0.36514,-0.590813 -0.0206,-1.32108 0.76576,-1.622814 0.7863,-0.301734 1.59165,-0.06258 1.78967,0.531455 0.24359,0.730798 1.04667,0.651243 2.4834,-0.246012 1.69044,-1.055696 2.42672,-1.074329 3.6111,-0.09138 1.91752,1.591398 2.71025,11.146489 0.92469,11.145601 C 297.41675,29.000207 297,27.333002 297,24 c 0,-4.224642 -0.29116,-5 -1.87756,-5 -2.8353,0 -4.39189,2.566267 -3.93425,6.486227 C 291.43968,27.640436 291.16895,29 290.48849,29 c -0.63894,0 -1.11825,-1.83355 -1.12956,-4.321008 z m 28.49432,-0.301711 c 0.22849,-2.872856 -0.0847,-4.902283 -0.82733,-5.361262 -0.8031,-0.496345 -0.51139,-0.91731 0.88955,-1.283662 1.14649,-0.299815 2.08453,-0.08215 2.08453,0.483707 0,0.596507 0.64812,0.490936 1.54238,-0.251238 1.16826,-0.969568 1.82318,-0.999269 2.7,-0.122444 0.63669,0.63669 0.73012,1.209525 0.20762,1.272968 -0.5225,0.06344 -1.625,0.175942 -2.45,0.25 -1.10399,0.0991 -1.5,1.389119 -1.5,4.886269 0,3.567808 -0.3755,4.751216 -1.50721,4.75 -1.17843,-0.0013 -1.427,-1.009974 -1.13954,-4.624338 z M 194,12 c 0,-0.55 0.45,-1 1,-1 0.55,0 1,0.45 1,1 0,0.55 -0.45,1 -1,1 -0.55,0 -1,-0.45 -1,-1 z M 57.104376,8.6257652 c -1.442992,-1.7386989 2.13893,-5.1070295 5.50021,-5.1722309 3.246725,-0.062979 3.015409,0.8361949 -1.003741,3.9017502 -2.751579,2.0987311 -3.608206,2.3407719 -4.496469,1.2704807 z"
         id="path4" />
      <path
         style="fill:#e4bb64"
         d="M 62.5,36.280761 C 59.585252,35.570676 57.276813,33.228385 56.74381,30.440161 56.487254,29.098073 56.405326,28 56.561749,28 c 0.156423,0 1.634405,1.35 3.284405,3 2.335711,2.335712 3.887829,3 7.009535,3 3.271043,0 4.140106,-0.411389 4.718445,-2.233577 l 0.70891,-2.233576 0.894585,2.418292 c 1.425375,3.853156 0.348553,5.061417 -4.396244,4.93286 C 66.426623,36.820198 63.6,36.548741 62.5,36.280761 Z M 50.243504,33.635087 c -0.946005,-2.076254 -0.745357,-2.7534 1.415532,-4.777126 L 54.176814,26.5 l -0.709698,4 c -0.92387,5.207117 -1.863268,6.120718 -3.223612,3.135087 z M 138.70989,31.00138 C 139.09154,29.541939 138.74135,29 137.41663,29 c -1.33392,0 -1.52092,-0.295711 -0.70376,-1.112868 0.61207,-0.612077 1.60207,-0.810519 2.2,-0.440983 1.31744,0.814226 1.44032,4.217533 0.18039,4.996214 -0.49871,0.308218 -0.67122,-0.340224 -0.38337,-1.440983 z M 26.652833,30.752711 C 26.908694,30.33872 27.954672,30 28.97723,30 31.90233,30 34,28.911238 34,27.393011 c 0,-1.657201 0.295698,-1.625001 -3.892413,-0.423867 -4.11453,1.180032 -3.193553,-0.04763 1.153814,-1.538038 4.104283,-1.407067 4.954934,-3.724343 1.199417,-3.267359 -2.11363,0.257193 -2.831139,-0.120159 -3.05166,-1.60493 -0.158571,-1.067651 -0.524285,-2.881384 -0.8127,-4.030519 C 28.136446,14.695465 30.64578,9.2755562 32,9.1769901 32.275,9.1569744 33.625,8.7366246 35,8.2428794 37.625603,7.3000584 43.2528,7.1456041 43.848763,8 44.478543,8.9028781 42.770602,18.47128 41.751411,19.75 41.203446,20.4375 39.685211,21 38.377555,21 36.856508,21 36,21.581259 36,22.613499 c 0,1.223957 0.724282,1.507198 3,1.173193 2.047191,-0.300464 3,-0.01891 3,0.886501 C 42,25.480756 40.825955,26 39,26 c -2.087255,0 -3,0.488329 -3,1.605035 0,1.269452 0.836328,1.525279 4,1.223575 3.086461,-0.294342 3.999852,-0.03285 3.999354,1.144964 -5.32e-4,1.254049 -1.589762,1.52691 -8.906184,1.529137 -4.898046,0.0015 -8.696197,-0.336009 -8.440337,-0.75 z m 6.76538,-10.3597 C 34.288196,20.059167 35,18.886022 35,17.786022 35,16.373127 34.535663,15.964205 33.418213,16.393011 32.548229,16.726855 31.648229,17 31.418213,17 31.188196,17 31,17.9 31,19 c 0,2.202127 0.123818,2.273453 2.418213,1.393011 z M 40,16.926676 C 40,15.495577 39.461484,14.95706 38.261484,15.188159 35.654747,15.690171 35.364033,19 37.926676,19 39.357775,19 40,18.357775 40,16.926676 Z M 33.587716,15.234687 C 34.185959,14.830609 34.931331,13.4875 35.244096,12.25 35.962464,9.40768 33.516187,9.1669782 32.035184,11.934259 c -1.838118,3.434554 -1.068449,5.070744 1.552532,3.300428 z m 7.231835,-3.474471 C 40.357012,8.5182048 37.368825,8.2902856 36.764629,11.450933 36.350448,13.61758 36.642033,14 38.708223,14 c 1.946073,0 2.367149,-0.446694 2.111328,-2.239784 z M 63.72255,29.71936 C 63.452265,29.015008 64.30412,27.932346 65.615561,27.313445 68.273508,26.059095 69.005079,27.594921 66.8,29.8 65.256506,31.343494 64.336538,31.319388 63.72255,29.71936 Z M 14,28.978561 c 0,-0.561791 1.125,-1.534023 2.5,-2.160515 1.375,-0.626492 2.537004,-1.404344 2.582231,-1.728561 0.04523,-0.324217 0.284497,-1.818589 0.531711,-3.320827 0.425947,-2.58833 0.277651,-2.704606 -2.83223,-2.220716 L 13.5,20.058568 16.75,18.347857 C 19.066492,17.12852 20,15.933593 20,14.187731 20,11.926035 19.71922,11.78388 16.336307,12.332851 11.202366,13.165975 13.296931,11.562413 20.487377,9.1548646 24.931983,7.6666954 26.667315,7.4528809 27.222065,8.3250676 28.548958,10.411231 28.059868,11 25,11 c -2.547119,0 -3,0.384018 -3,2.543837 0,1.813957 0.472345,2.459529 1.646256,2.25 C 24.551697,15.632227 25.489197,16.0625 25.72959,16.75 25.988292,17.489865 25.316441,18 24.083333,18 22.527778,18 22,18.633333 22,20.5 c 0,2.835658 0.276261,2.948511 3.315741,1.354491 2.165888,-1.135875 2.168305,-1.12754 0.287351,0.991072 C 23.843252,24.827758 15.868364,30 14.57193,30 14.257369,30 14,29.540353 14,28.978561 Z m 59.200381,-1.921402 c -1.957101,-2.647121 -2.655393,-2.911601 -6.949005,-2.63196 -2.625297,0.170984 -6.230842,0.631017 -8.012322,1.022296 C 54.534879,26.261068 53.833919,24.745177 57,22.767927 59.776534,21.033953 59.501595,19.836004 56.5,20.589356 55.125,20.934459 54,20.796474 54,20.282722 54,19.76897 55.125,18.291745 56.5,17 58.569407,15.055893 59,14.939751 59,16.325686 c 0,2.181544 1.911673,2.141969 3.656008,-0.07569 1.189082,-1.511735 1.211517,-1.341545 0.164781,1.25 -0.666441,1.65 -1.637879,3.573375 -2.158751,4.274166 -1.427401,1.920454 -0.122555,2.543494 1.638557,0.782382 1.145698,-1.145698 1.645384,-1.221712 1.956427,-0.297619 0.32338,0.960747 0.793276,0.931073 2.080357,-0.131374 C 68.40847,20.417931 68.509784,18.867147 66.5,19.638374 64.251269,20.501292 64.663773,17.691071 67,16.232073 69.497067,14.672628 69.613052,12 67.183659,12 66.184672,12 62.781317,12.478048 59.620649,13.06233 52.006542,14.469874 50.002007,13.67951 57,12.02904 60.8778,11.114465 64.021769,9.4441575 67.659492,6.3659353 73.319948,1.5760876 74,1.2704365 74,3.5161786 c 0,0.8338983 -1.575,2.2672438 -3.5,3.1852123 -4.714072,2.2479841 -4.411332,3.5173471 0.75,3.1446872 4.109551,-0.2967189 4.415796,-0.056411 3.9,3.0603019 -0.0825,0.49851 -1.011471,0.681101 -2.06438,0.405759 -1.275419,-0.333529 -2.303768,0.226957 -3.08102,1.679266 -1.518203,2.836788 -0.263237,4.082788 1.577161,1.565893 C 72.361792,15.490542 73,15.093063 73,15.674012 c 0,0.580949 -0.951302,2.265655 -2.114004,3.743792 -2.448837,3.11319 -1.740636,4.597021 1.290563,2.704006 1.939606,-1.211304 2.041924,-1.12845 1.461637,1.183596 C 72.981816,25.920632 74.280003,27 78.081787,27 c 2.317824,0 2.535607,1.549106 0.336426,2.393011 -2.507028,0.962037 -2.914441,0.779652 -5.217832,-2.335852 z M 169,29.015999 c -1.12459,-0.71477 -0.77651,-0.898643 1.39079,-0.734687 4.02383,0.304403 4.3926,-1.931485 0.66471,-4.030207 -2.36925,-1.333837 -3.04432,-2.346826 -2.83297,-4.251105 0.22998,-2.07211 0.83373,-2.517116 3.52747,-2.6 2.67558,-0.08233 3.24463,0.271163 3.21959,2 -0.0276,1.906733 -0.12421,1.938944 -1.04969,0.35 C 172.70555,17.66509 169,17.4024 169,19.401224 c 0,0.770673 1.575,2.330497 3.5,3.466275 3.90344,2.303088 4.47759,4.538941 1.56574,6.097317 -2.36584,1.266161 -3.14181,1.274001 -5.06574,0.05118 z m 43,0.02528 c -3.55012,-0.885067 -3.78334,-4.410798 -0.49345,-7.459763 1.45295,-1.346556 2.55655,-3.26576 2.45244,-4.264899 -0.34137,-3.275983 0.0154,-4.23255 1.96857,-5.277845 4.50415,-2.4105499 7.33433,1.88725 3.55145,5.393102 l -2.50172,2.318516 2.01069,2.374806 c 1.98469,2.344106 2.03037,2.349322 3.53342,0.4035 0.8375,-1.084219 1.30192,-2.546719 1.03205,-3.25 -0.3084,-0.803685 0.33349,-1.273006 1.72793,-1.263381 1.22024,0.0084 1.75823,0.345922 1.19552,0.75 -1.37834,0.989791 -4.4769,5.926075 -4.4769,7.132116 0,1.684605 4.01394,2.332036 5.79799,0.935189 1.53208,-1.199569 1.56498,-1.157898 0.32957,0.417382 -1.57694,2.010746 -6.75508,2.361493 -7.38161,0.5 -0.31043,-0.922339 -0.791,-0.96303 -1.83333,-0.155235 -2.20128,1.705971 -4.19688,2.123563 -6.91262,1.446512 z m 6.48676,-2.019853 c 0.33264,-0.538218 -0.40697,-2.347056 -1.64356,-4.019642 -2.20979,-2.988898 -2.28099,-3.008436 -4.15047,-1.138955 C 209.95129,24.604264 211.23255,28 215.00837,28 c 1.58048,0 3.14575,-0.440359 3.47839,-0.978576 z M 219.5,16.357143 c 1.49351,-1.493507 1.5,-1.785714 0.0714,-3.214286 -1.41353,-1.413525 -1.72585,-1.41701 -3.10817,-0.03468 -0.86939,0.869382 -1.25719,2.26525 -0.89302,3.214286 0.81017,2.111264 1.84406,2.120389 3.92976,0.03468 z m 113.46757,12.278241 c 1.54741,-1.966058 0.82447,-2.953591 -4.59901,-6.2822 -1.50133,-0.921434 -1.65097,-1.51102 -0.76138,-3 0.60895,-1.019251 1.95895,-1.965192 3,-2.10209 1.39377,-0.183281 1.28266,0.01223 -0.42142,0.741541 -2.71257,1.16092 -2.18358,2.440013 1.87765,4.540157 3.30955,1.711435 3.81702,4.531835 1.18659,6.594763 -1.60975,1.26245 -1.63238,1.223005 -0.28243,-0.492171 z M 92.823474,20.497666 C 92.555836,13.462941 92.758919,11.995329 94,11.995317 c 1.235542,-1.2e-5 1.442498,1.410843 1.173853,8.002334 L 94.847706,28 h 4.376147 c 2.406877,0 4.942807,-0.5625 5.635397,-1.25 1.00966,-1.002248 1.12719,-0.903147 0.59301,0.5 -0.52913,1.389871 -1.86383,1.75 -6.485775,1.75 h -5.819538 z m 17.211706,6.568075 c -1.43724,-2.685511 -1.2928,-5.338663 0.41508,-7.624611 1.40227,-1.876886 1.43164,-1.867194 0.88757,0.292824 -1.39266,5.528945 2.70884,10.035821 6.46016,7.098664 1.53208,-1.199569 1.56498,-1.157898 0.32957,0.417382 -1.87157,2.38643 -6.77635,2.274751 -8.09238,-0.184259 z M 124.21747,27.75 c -1.46903,-1.78727 -1.73772,-3.850576 -0.9096,-6.98477 0.94108,-3.561705 4.97481,-4.72437 7.73242,-2.228764 2.88235,2.608488 2.41343,3.480011 -1.79029,3.327352 -2.32138,-0.0843 -2.89283,-0.301281 -1.5,-0.569551 2.57423,-0.495818 2.97184,-2.080041 0.73727,-2.937527 -3.96896,-1.52303 -6.01856,4.947482 -2.55893,8.078405 2.02378,1.831495 6.07166,1.38535 6.07166,-0.669199 0,-0.604604 0.28913,-0.810154 0.6425,-0.456779 0.35338,0.353376 0.0733,1.328376 -0.62244,2.166667 -1.5269,1.839801 -6.3757,2.010177 -7.80259,0.274166 z M 157,20.886501 v -8.1135 l -3,0.440307 c -1.65,0.242168 -3,0.06824 -3,-0.386501 C 151,12.372063 154.375,12 158.5,12 c 4.125,0 7.5,0.35964 7.5,0.799199 0,0.43956 -1.62515,0.609472 -3.61144,0.377584 l -3.61145,-0.421616 0.36886,8.122416 C 159.42082,26.929958 159.19437,29 158.25741,29 157.35085,29 157,26.736148 157,20.886501 Z m 22,6.136552 c 0,-1.950693 4.55053,-5.805852 5.60657,-4.749818 0.29928,0.299284 -0.38976,0.840565 -1.53121,1.202847 -2.52327,0.800855 -2.75206,4.20043 -0.32536,4.834592 1.07666,0.281362 0.6919,0.501957 -1,0.573325 -2.11176,0.08908 -2.75,-0.342822 -2.75,-1.860946 z M 185.90726,28.25 c -0.051,-0.4125 -0.017,-2.663556 0.0757,-5.002346 0.19537,-4.933279 -2.2776,-6.932745 -4.61722,-3.733135 -0.73978,1.011714 -1.6865,1.498037 -2.10382,1.080719 C 178.30214,19.635475 181.82573,17 184.06868,17 c 2.54958,0 3.67879,2.005967 4.08122,7.25 0.2564,3.341146 -0.008,4.75 -0.89269,4.75 -0.69147,0 -1.29894,-0.3375 -1.34995,-0.75 z m 7.93529,-4.740551 c -0.22098,-3.541908 0.0707,-5.648564 0.82187,-5.935774 0.78406,-0.299794 1.27403,1.494256 1.5,5.492373 0.22744,4.024192 -0.0374,5.937009 -0.82187,5.935774 -0.69416,-0.0011 -1.29456,-2.199492 -1.5,-5.492373 z M 241.5,20.5 V 12 l 4.09501,0 c 6.08676,0 9.24296,4.019168 5.83356,7.428571 -2.01393,2.013932 -4.13049,2.122119 -2.47425,0.126471 2.1201,-2.554564 0.88118,-6.016612 -2.28279,-6.379036 l -2.82847,-0.323995 0.32847,8.076343 c 0.27083,6.659075 0.0652,8.075931 -1.17153,8.073995 -1.2155,-0.0019 -1.5,-1.614504 -1.5,-8.502349 z m 14.85674,6.987265 C 255.72344,25.836923 257.59841,23 259.32244,23 c 0.70205,0 0.65938,0.418176 -0.12244,1.2 -1.72567,1.725666 -1.47745,3.580847 0.55,4.110674 1.29924,0.339527 1.16236,0.487203 -0.53138,0.573325 -1.25477,0.0638 -2.54261,-0.56473 -2.86188,-1.396734 z m 6.5544,0.762735 c -0.0489,-0.4125 -0.0155,-2.8875 0.0741,-5.5 0.14262,-4.156132 -0.0901,-4.75 -1.86145,-4.75 -1.11345,0 -2.48313,0.7875 -3.04373,1.75 -0.95947,1.647314 -1.02107,1.648432 -1.04969,0.01905 -0.0389,-2.213341 4.46298,-3.434387 6.48258,-1.758275 0.89357,0.741598 1.48701,2.947866 1.48701,5.528334 0,2.499705 0.52236,4.505001 1.25,4.798608 0.6875,0.277413 0.2375,0.539913 -1,0.583334 -1.2375,0.04342 -2.28999,-0.258553 -2.33886,-0.671053 z M 270.5,23.488945 c 0,-4.268597 0.31039,-5.391948 1.37675,-4.982747 0.75721,0.29057 2.01378,-3.84e-4 2.79238,-0.646563 1.07225,-0.889893 1.69643,-0.894078 2.57325,-0.01725 C 278.11921,18.719206 277.89606,19 276.32244,19 c -3.02474,0 -4.6025,2.475344 -4.13425,6.486227 C 272.42708,27.532573 272.16023,29 271.5492,29 270.94385,29 270.5,26.668599 270.5,23.488945 Z m 10.33882,-0.475936 c -0.21072,-3.723376 0.13379,-6.631307 0.91118,-7.69113 1.0426,-1.421381 1.25,-0.524786 1.25,5.403658 0,4.750565 0.41455,7.275071 1.25,7.612182 0.6875,0.277413 0.27747,0.539913 -0.91118,0.583334 -1.94725,0.07113 -2.19472,-0.513698 -2.5,-5.908044 z m 9.01443,1.364272 c 0.22838,-2.87155 -0.0848,-4.902331 -0.82664,-5.360836 -0.86322,-0.533496 -0.75523,-0.906607 0.38954,-1.345897 0.87112,-0.334278 1.6109,-0.284402 1.64396,0.110837 0.50164,5.996671 0.23752,11.219938 -0.56732,11.21935 -0.58398,-4.26e-4 -0.85271,-1.943191 -0.63954,-4.623454 z M 297,24.2 c 0,-2.64 -0.54,-5.34 -1.2,-6 -0.66667,-0.666667 -0.75556,-1.2 -0.2,-1.2 2.16401,0 3.4,2.617399 3.4,7.2 0,2.64 -0.45,4.8 -1,4.8 -0.55,0 -1,-2.16 -1,-4.8 z m 7.97125,3.265358 C 300.81711,22.459925 307.28466,13.684655 311.8,18.2 c 1.45618,1.456184 1.57954,3.8 0.2,3.8 -0.55,0 -1,-0.648442 -1,-1.440983 0,-1.977241 -1.62755,-2.812005 -4.00895,-2.056177 C 305.61415,18.939852 305,20.01732 305,21.995959 c 0,3.822433 2.58821,6.324211 5.72754,5.536287 1.56545,-0.392902 2.20964,-0.23961 1.79723,0.427672 -0.97581,1.578898 -6.11179,1.242624 -7.55352,-0.49456 z M 317.5,23.511055 c 0,-3.468666 0.46008,-5.665494 1.25,-5.968615 0.6875,-0.263819 1.25,0.01131 1.25,0.61139 0,0.734298 0.47616,0.695885 1.4562,-0.117475 0.81,-0.672243 2.02585,-0.856467 2.73991,-0.41515 0.90021,0.556358 0.53985,0.967544 -1.20619,1.376335 -2.15751,0.505124 -2.53061,1.211721 -2.79471,5.292705 -0.44253,6.838066 -2.69521,6.18681 -2.69521,-0.77919 z M 327,27.5 c 0,-0.825 0.17686,-1.5 0.39301,-1.5 0.21616,0 0.65203,0.675 0.96862,1.5 0.31658,0.825 0.13972,1.5 -0.39301,1.5 C 327.43588,29 327,28.325 327,27.5 Z M 114.75,21.294267 c 1.2375,-0.238353 2.25,-0.866572 2.25,-1.396042 0,-0.52947 -1.0125,-1.369649 -2.25,-1.867063 -1.2375,-0.497414 -1.65792,-0.932913 -0.93426,-0.967776 2.1775,-0.104902 5.18426,1.908666 5.18426,3.471798 0,1.013881 -1.00049,1.422893 -3.25,1.328634 -2.35026,-0.09848 -2.6271,-0.256158 -1,-0.569551 z M 194,12 c 0,-0.55 0.45,-1 1,-1 0.55,0 1,0.45 1,1 0,0.55 -0.45,1 -1,1 -0.55,0 -1,-0.45 -1,-1 z M 57.033923,8.5408749 C 56.102029,7.418011 56.409133,6.7780315 58.554352,5.3724301 61.336231,3.5496733 65,2.7970988 65,4.0484301 65,4.4412358 63.47038,5.9293203 61.600845,7.3552845 58.73765,9.5391495 58.017562,9.7260871 57.033923,8.5408749 Z"
         id="path3" />
      <path
         style="fill:#e5ba5e"
         d="m 256.33583,27.432783 c -0.33077,-0.86197 -0.15013,-2.018486 0.40142,-2.570035 0.67043,-0.670423 1.16566,-0.150953 1.49411,1.567217 0.53292,2.787762 -0.91636,3.554492 -1.89553,1.002818 z M 304.87244,27.25 C 303.62857,25.663944 303.66394,25.628574 305.25,26.872445 306.91575,28.178814 307.44548,29 306.62244,29 c -0.20765,0 -0.99515,-0.7875 -1.75,-1.75 z M 290.232,25 c 0,-1.925 0.2058,-2.7125 0.45733,-1.75 0.25152,0.9625 0.25152,2.5375 0,3.5 C 290.4378,27.7125 290.232,26.925 290.232,25 Z m 43.84695,1.817388 c -0.0434,-0.925437 -0.97629,-1.967416 -2.07303,-2.315509 C 329.5706,23.728938 327,21.266231 327,19.706065 c 0,-0.633093 0.70052,-0.15095 1.5567,1.071429 C 329.41289,21.999872 330.70779,23 331.43426,23 c 1.82329,0 3.86522,2.657905 3.23923,4.216378 -0.33499,0.833978 -0.54325,0.694214 -0.59454,-0.39899 z M 217.55279,24.08541 c -0.32198,-0.520967 -0.15917,-1.210648 0.3618,-1.532624 0.52097,-0.321975 1.21065,-0.159164 1.53262,0.361804 0.32198,0.520967 0.15917,1.210648 -0.3618,1.532624 -0.52097,0.321975 -1.21065,0.159164 -1.53262,-0.361804 z m 6.0115,-3.378538 c 0.37553,-0.986221 0.93469,-1.541221 1.24258,-1.233333 0.30789,0.307887 6.4e-4,1.114794 -0.68278,1.793128 -0.98762,0.980267 -1.10248,0.865403 -0.5598,-0.559795 z M 271.15789,20 c 0,-1.375 0.22698,-1.9375 0.50439,-1.25 0.27741,0.6875 0.27741,1.8125 0,2.5 -0.27741,0.6875 -0.50439,0.125 -0.50439,-1.25 z M 250.5,19 c 0.33992,-0.55 0.81648,-1 1.05902,-1 0.24254,0 0.44098,0.45 0.44098,1 0,0.55 -0.47656,1 -1.05902,1 -0.58246,0 -0.7809,-0.45 -0.44098,-1 z m 39.95888,-0.06653 c -0.36253,-0.586592 -0.44468,-1.281 -0.18255,-1.543128 0.26212,-0.262129 0.74306,0.21781 1.06875,1.066531 0.67618,1.762107 0.0999,2.072058 -0.8862,0.476597 z M 214.15789,15 c 0,-1.375 0.22698,-1.9375 0.50439,-1.25 0.27741,0.6875 0.27741,1.8125 0,2.5 -0.27741,0.6875 -0.50439,0.125 -0.50439,-1.25 z M 249.5,14 c -0.33992,-0.55 -0.16803,-1 0.38197,-1 0.55,0 1.27811,0.45 1.61803,1 0.33992,0.55 0.16803,1 -0.38197,1 -0.55,0 -1.27811,-0.45 -1.61803,-1 z M 70,4.6224447 c 0,-0.2076554 0.7875,-0.9951554 1.75,-1.75 C 73.336056,1.6285741 73.371426,1.6639444 72.127555,3.25 70.821186,4.915748 70,5.4454789 70,4.6224447 Z"
         id="path2" />
    </g>
  </g>
</svg>
