<svg width="68" height="24" viewBox="0 0 68 24" fill="none" xmlns="http://www.w3.org/2000/svg">
    <path d="M23.272 0h-3.481a.974.974 0 00-.967.984V23.01c0 .544.435.984.967.984h3.481c.535 0 .967-.44.967-.984V.984A.974.974 0 0023.272 0zm23.975 0h-3.481a.974.974 0 00-.967.984V14.07L32.882.437a1.298 1.298 0 00-.075-.1c-.002-.003-.002-.006-.005-.006a1.107 1.107 0 00-.058-.06l-.017-.018a23.672 23.672 0 01-.052-.043L32.65.19 32.6.155l-.028-.017a.466.466 0 00-.084-.043.443.443 0 00-.054-.023c-.012-.003-.02-.009-.032-.012-.02-.005-.038-.014-.058-.02L32.31.032a.34.34 0 00-.058-.012c-.014-.003-.026-.006-.04-.006-.017-.002-.035-.005-.052-.005-.017-.003-.034-.003-.052-.003-.011 0-.02-.003-.031-.003h-3.481a.974.974 0 00-.967.984v22.026c0 .544.434.984.967.984h3.48c.536 0 .967-.44.967-.984V9.93l9.927 13.65c.07.098.153.178.245.242l.011.008c.02.015.04.026.06.038.01.005.018.011.03.014.014.009.031.014.045.023l.046.02.03.012c.02.008.042.014.065.02.006 0 .009.003.015.003.08.02.16.034.247.034h3.481c.535 0 .967-.44.967-.984V.984A.97.97 0 0047.247 0zM14.88 18.479H5.417V.984A.976.976 0 004.451 0H.967A.976.976 0 000 .984v22.029c0 .265.104.504.27.682l.015.014.014.015c.173.17.409.276.668.276h13.916c.532 0 .966-.44.966-.984v-3.553a.98.98 0 00-.97-.984zM66.481 0H52.565a.953.953 0 00-.67.276c-.003.003-.009.006-.012.012a.98.98 0 00-.282.696v22.029c0 .265.104.504.271.682l.014.014a.951.951 0 00.682.29h13.916a.975.975 0 00.967-.983v-3.553a.974.974 0 00-.967-.984h-9.462v-3.723h9.462c.533 0 .967-.44.967-.984v-3.547a.974.974 0 00-.967-.984h-9.462V5.515h9.462c.533 0 .967-.44.967-.984V.984a.98.98 0 00-.97-.984z" fill="#06C755"/>
</svg>
