<?xml version="1.0" encoding="UTF-8" standalone="no"?>
<!-- Created with Inkscape (http://www.inkscape.org/) -->

<svg
   width="190.78146mm"
   height="69.193802mm"
   viewBox="0 0 190.78146 69.193802"
   version="1.1"
   id="svg1"
   xml:space="preserve"
   inkscape:version="1.4.3 (0d15f75, 2025-12-25)"
   sodipodi:docname="lr29.svg"
   xmlns:inkscape="http://www.inkscape.org/namespaces/inkscape"
   xmlns:sodipodi="http://sodipodi.sourceforge.net/DTD/sodipodi-0.dtd"
   xmlns="http://www.w3.org/2000/svg"
   xmlns:svg="http://www.w3.org/2000/svg"><sodipodi:namedview
     id="namedview1"
     pagecolor="#ffffff"
     bordercolor="#000000"
     borderopacity="0.25"
     inkscape:showpageshadow="2"
     inkscape:pageopacity="0.0"
     inkscape:pagecheckerboard="0"
     inkscape:deskcolor="#d1d1d1"
     inkscape:document-units="mm"
     inkscape:zoom="0.2"
     inkscape:cx="345"
     inkscape:cy="117.5"
     inkscape:current-layer="layer1" /><defs
     id="defs1" /><g
     inkscape:label="Layer 1"
     inkscape:groupmode="layer"
     id="layer1"
     transform="translate(-13.58194,-116.41021)"><path
       style="fill:#000000"
       d="m 14.632399,183.00347 c -0.408819,-1.4067 -0.827235,-2.84843 -0.929813,-3.20385 -0.148166,-0.51337 -0.01859,-0.62215 0.630356,-0.52916 0.658457,0.0943 0.876117,0.42489 1.122434,1.70454 0.449111,2.3332 0.773912,2.37589 1.302804,0.17122 0.39795,-1.65884 0.585235,-1.95188 1.190992,-1.86354 0.558761,0.0815 0.835886,0.57606 1.244764,2.22149 l 0.525977,2.11666 0.520134,-2.20486 c 0.448028,-1.8992 0.630441,-2.20486 1.315836,-2.20486 h 0.795701 l -0.688589,2.38125 c -0.378724,1.30969 -0.783738,2.74695 -0.900032,3.19391 -0.149515,0.57464 -0.42704,0.78128 -0.947563,0.70555 -0.555545,-0.0808 -0.87796,-0.58306 -1.314336,-2.04737 l -0.578216,-1.94028 -0.607986,2.02847 c -0.460934,1.53785 -0.768971,2.02847 -1.273571,2.02847 -0.522708,0 -0.825146,-0.54903 -1.408892,-2.55764 z m 8.474542,-0.61736 v -3.175 h 2.116666 c 1.646297,0 2.116667,0.1176 2.116667,0.52917 0,0.38218 -0.391975,0.52917 -1.411111,0.52917 -1.161287,0 -1.411111,0.12114 -1.411111,0.68426 0,0.53605 0.286541,0.70797 1.322916,0.79375 0.892079,0.0738 1.322917,0.28182 1.322917,0.63865 0,0.35683 -0.430838,0.56483 -1.322917,0.63866 -1.036375,0.0858 -1.322916,0.2577 -1.322916,0.79375 0,0.56312 0.249824,0.68426 1.411111,0.68426 1.019136,0 1.411111,0.14699 1.411111,0.52917 0,0.41157 -0.47037,0.52916 -2.116667,0.52916 h -2.116666 z m 8.113889,2.46945 c -0.571164,-0.57117 -0.705556,-1.17593 -0.705556,-3.175 0,-2.21502 0.07103,-2.46945 0.689437,-2.46945 0.604438,0 0.702298,0.28904 0.79375,2.34442 0.07671,1.72406 0.259851,2.44211 0.692104,2.71358 1.098733,0.69003 1.705265,-0.30877 1.705265,-2.80814 0,-2.01467 0.07375,-2.24986 0.705555,-2.24986 0.63836,0 0.705556,0.23519 0.705556,2.46945 0,2.93649 -0.643676,3.88055 -2.645833,3.88055 -0.764352,0 -1.503506,-0.26878 -1.940278,-0.70555 z m 5.644444,-2.46945 c 0,-2.86974 0.06362,-3.175 0.661741,-3.175 0.398912,0 1.13452,0.69697 1.852084,1.75479 0.654688,0.96514 1.309405,1.75889 1.454926,1.76389 0.14552,0.005 0.264583,-0.78465 0.264583,-1.75479 0,-1.33271 0.129352,-1.76389 0.529167,-1.76389 0.431172,0 0.529166,0.58797 0.529166,3.175 0,3.88139 -0.376126,4.05801 -2.441548,1.14654 l -1.439007,-2.02846 v 2.02846 c 0,1.79328 -0.0818,2.02846 -0.705556,2.02846 -0.653292,0 -0.705556,-0.23518 -0.705556,-3.175 z m 8.11389,0.52917 c 0,-2.58704 -0.0196,-2.64583 -0.881945,-2.64583 -0.548765,0 -0.881944,-0.19991 -0.881944,-0.52917 0,-0.42333 0.529166,-0.52917 2.645833,-0.52917 2.116667,0 2.645834,0.10584 2.645834,0.52917 0,0.35278 -0.352778,0.52917 -1.058334,0.52917 h -1.058333 v 2.64583 c 0,2.41065 -0.06272,2.64583 -0.705556,2.64583 -0.642839,0 -0.705555,-0.23518 -0.705555,-2.64583 z m 4.289864,-0.52917 c 0.990396,-2.95303 1.131543,-3.175 2.018941,-3.175 0.883811,0 1.024431,0.21596 1.908759,2.93143 0.525062,1.61228 0.954658,3.04103 0.954658,3.175 0,0.58661 -1.346618,0.17552 -1.513328,-0.46198 -0.139879,-0.5349 -0.481194,-0.70556 -1.411111,-0.70556 -0.929917,0 -1.271232,0.17066 -1.411111,0.70556 -0.107793,0.4122 -0.481195,0.70555 -0.898078,0.70555 -0.690222,0 -0.678728,-0.10388 0.35127,-3.175 z m 2.765691,0.55214 c 0,-0.0844 -0.176233,-0.60033 -0.39163,-1.14653 -0.363888,-0.92276 -0.412112,-0.94313 -0.68076,-0.28755 -0.475987,1.16153 -0.377556,1.5875 0.366835,1.5875 0.388055,0 0.705555,-0.069 0.705555,-0.15342 z m 3.175001,-0.55214 c 0,-2.79104 0.07466,-3.17423 0.617361,-3.16866 0.347898,0.004 1.156286,0.81196 1.852083,1.85208 l 1.234722,1.84575 0.106631,-1.85208 c 0.09004,-1.56384 0.213569,-1.85209 0.79375,-1.85209 0.630076,0 0.687119,0.26358 0.687119,3.175 0,2.78889 -0.07508,3.17492 -0.617361,3.17432 -0.347698,-3.8e-4 -1.156686,-0.79404 -1.852083,-1.81698 l -1.234722,-1.81629 -0.106631,1.81698 c -0.08973,1.52904 -0.215517,1.81697 -0.79375,1.81697 -0.630076,0 -0.687119,-0.26358 -0.687119,-3.175 z m 7.215909,2.30909 c -1.116217,-1.11621 -1.178678,-3.22743 -0.134749,-4.55457 0.568145,-0.72228 1.040065,-0.92952 2.116667,-0.92952 1.344486,0 2.796617,0.91589 2.796617,1.76389 0,0.19403 -0.3175,0.35278 -0.705555,0.35278 -0.388056,0 -0.705556,-0.15573 -0.705556,-0.34606 0,-0.56561 -1.723259,-0.83239 -2.297637,-0.35569 -0.690375,0.57296 -0.672021,2.62058 0.02978,3.32238 0.607984,0.60799 0.874097,0.66094 1.709838,0.34024 0.709061,-0.27209 0.731355,-1.19698 0.02885,-1.19698 -0.291042,0 -0.529167,-0.23813 -0.529167,-0.52917 0,-0.36958 0.372376,-0.52917 1.234722,-0.52917 1.136729,0 1.234722,0.084 1.234722,1.05834 0,2.34456 -3.023059,3.35901 -4.778535,1.60353 z m 5.836869,-2.30909 c 0,-2.93981 0.05226,-3.175 0.705555,-3.175 0.64284,0 0.705556,0.23519 0.705556,2.64584 v 2.64583 h 1.411111 c 1.019136,0 1.411111,0.14699 1.411111,0.52917 0,0.41157 -0.47037,0.52916 -2.116666,0.52916 h -2.116667 z m 4.938889,0 v -3.175 h 2.293056 c 1.803086,0 2.293055,0.11307 2.293055,0.52917 0,0.39197 -0.411574,0.52917 -1.5875,0.52917 -1.352315,0 -1.5875,0.10452 -1.5875,0.70555 0,0.59008 0.235185,0.70556 1.436978,0.70556 1.177936,0 1.415888,0.11129 1.319983,0.61736 -0.08177,0.43145 -0.514482,0.65033 -1.436978,0.72685 -1.033472,0.0857 -1.319983,0.25801 -1.319983,0.79375 0,0.57579 0.251654,0.68426 1.5875,0.68426 1.175926,0 1.5875,0.13719 1.5875,0.52917 0,0.41609 -0.489969,0.52916 -2.293055,0.52916 h -2.293056 z m 9.172222,0.52917 c 0,-2.58704 -0.0196,-2.64583 -0.881944,-2.64583 -0.548765,0 -0.881944,-0.19991 -0.881944,-0.52917 0,-0.42333 0.529166,-0.52917 2.645833,-0.52917 2.116667,0 2.645833,0.10584 2.645833,0.52917 0,0.35278 -0.352777,0.52917 -1.058333,0.52917 h -1.058333 v 2.64583 c 0,2.41065 -0.06272,2.64583 -0.705556,2.64583 -0.642839,0 -0.705556,-0.23518 -0.705556,-2.64583 z m 4.233334,-0.52917 c 0,-2.93981 0.05226,-3.175 0.705556,-3.175 0.571164,0 0.705555,0.23519 0.705555,1.23472 0,1.20533 0.0336,1.23473 1.411111,1.23473 1.377514,0 1.411111,-0.0294 1.411111,-1.23473 0,-0.99953 0.134392,-1.23472 0.705556,-1.23472 0.653292,0 0.705556,0.23519 0.705556,3.175 0,2.93982 -0.05226,3.175 -0.705556,3.175 -0.571164,0 -0.705556,-0.23518 -0.705556,-1.23472 0,-1.20532 -0.0336,-1.23472 -1.411111,-1.23472 -1.377513,0 -1.411111,0.0294 -1.411111,1.23472 0,0.99954 -0.134391,1.23472 -0.705555,1.23472 -0.653293,0 -0.705556,-0.23518 -0.705556,-3.175 z m 6.702778,0 v -3.175 h 2.116667 c 1.646296,0 2.116666,0.1176 2.116666,0.52917 0,0.38218 -0.391975,0.52917 -1.411111,0.52917 -1.175926,0 -1.411111,0.11759 -1.411111,0.70555 0,0.57117 0.235185,0.70556 1.234722,0.70556 1.020884,0 1.234723,0.12887 1.234723,0.74415 0,0.64273 -0.168282,0.7245 -1.234723,0.6 -1.094892,-0.12782 -1.234722,-0.0523 -1.234722,0.66696 0,0.71111 0.173975,0.81111 1.411111,0.81111 1.019136,0 1.411111,0.14699 1.411111,0.52917 0,0.41157 -0.47037,0.52916 -2.116666,0.52916 h -2.116667 z m 8.175379,2.35852 c -1.03777,-1.10466 -1.06351,-3.67115 -0.0478,-4.76144 0.95473,-1.02478 3.22554,-1.06058 4.21959,-0.0665 0.38806,0.38805 0.70556,0.8643 0.70556,1.05833 0,0.54428 -1.27129,0.41715 -1.76389,-0.17639 -1.04348,-1.25732 -2.46944,-0.34063 -2.46944,1.5875 0,1.92813 1.42596,2.84482 2.46944,1.5875 0.46343,-0.55839 1.76389,-0.73378 1.76389,-0.23788 0,0.16021 -0.36742,0.63646 -0.81649,1.05833 -1.11887,1.05113 -3.04905,1.02763 -4.06091,-0.0494 z m 6.90431,0.32426 c -1.02265,-0.77624 -1.44464,-2.47503 -0.97116,-3.90967 0.47569,-1.44137 1.23433,-1.94811 2.91651,-1.94811 1.7238,0 2.73052,1.18883 2.73052,3.22444 0,1.20741 -0.19704,1.77657 -0.81649,2.35851 -0.93115,0.87477 -2.88562,1.01395 -3.85938,0.27483 z m 2.89155,-1.07066 c 0.60041,-0.72345 0.32208,-3.0497 -0.42054,-3.51486 -0.79909,-0.50053 -1.73347,0.0556 -2.17516,1.29458 -0.63012,1.7676 1.47615,3.56925 2.5957,2.22028 z m 2.84265,-1.63555 v -3.19843 l 0.95983,0.11162 c 0.79629,0.0926 1.0814,0.42722 1.67326,1.96371 0.39238,1.01865 0.81232,1.85209 0.9332,1.85209 0.12088,0 0.5354,-0.83344 0.92115,-1.85209 0.57551,-1.51971 0.86888,-1.87211 1.63475,-1.96371 l 0.93337,-0.11162 v 3.19843 c 0,2.93464 -0.0567,3.19843 -0.68712,3.19843 -0.58018,0 -0.70372,-0.28824 -0.79375,-1.85208 l -0.10663,-1.85208 -0.69124,1.86372 c -0.87211,2.3514 -1.47894,2.28509 -2.53405,-0.27692 l -0.79878,-1.93958 -0.0164,2.02847 c -0.0145,1.78781 -0.10015,2.02847 -0.72199,2.02847 -0.65368,0 -0.70556,-0.23518 -0.70556,-3.19843 z m 8.11389,0.006 v -3.19261 l 2.01673,0.1058 c 1.78157,0.0935 2.07981,0.21893 2.55764,1.07594 0.4858,0.87131 0.48587,1.06897 6.6e-4,1.94028 -0.41337,0.7423 -0.84834,0.99585 -1.85209,1.07963 -1.19159,0.0994 -1.31183,0.20454 -1.31183,1.14652 0,0.80186 -0.16001,1.03704 -0.70555,1.03704 -0.65358,0 -0.70556,-0.23518 -0.70556,-3.1926 z m 3.30257,-0.51156 c 0.33189,-0.86487 -0.14483,-1.5875 -1.04726,-1.5875 -0.70281,0 -0.8442,0.17724 -0.8442,1.05833 0,0.88109 0.14139,1.05833 0.8442,1.05833 0.46431,0 0.93558,-0.23812 1.04726,-0.52916 z m 2.34187,0.52916 c 0,-2.93981 0.0523,-3.175 0.70556,-3.175 0.64284,0 0.70556,0.23519 0.70556,2.64584 v 2.64583 h 1.41111 c 1.01913,0 1.41111,0.14699 1.41111,0.52917 0,0.41157 -0.47037,0.52916 -2.11667,0.52916 h -2.11667 z m 4.93889,0 v -3.175 h 2.29306 c 1.80309,0 2.29305,0.11307 2.29305,0.52917 0,0.39197 -0.41157,0.52917 -1.5875,0.52917 -1.35231,0 -1.5875,0.10452 -1.5875,0.70555 0,0.58796 0.23519,0.70556 1.41112,0.70556 1.17592,0 1.41111,0.11759 1.41111,0.70555 0,0.58797 -0.23519,0.70556 -1.41111,0.70556 -1.17593,0 -1.41112,0.11759 -1.41112,0.70555 0,0.60103 0.23519,0.70556 1.5875,0.70556 1.17593,0 1.5875,0.13719 1.5875,0.52917 0,0.41609 -0.48996,0.52916 -2.29305,0.52916 h -2.29306 z m 5.50508,2.73403 c 0.14028,-0.24253 0.54653,-0.86235 0.90277,-1.37737 0.83842,-1.21212 0.82026,-1.45012 -0.23866,-3.12756 l -0.88637,-1.4041 h 0.82676 c 0.52082,0 1.00142,0.32636 1.29876,0.88195 0.2596,0.48507 0.60733,0.88194 0.77273,0.88194 0.1654,0 0.48156,-0.39687 0.70257,-0.88194 0.26489,-0.58139 0.68817,-0.88195 1.24203,-0.88195 h 0.84019 l -0.92101,1.57159 -0.92102,1.57159 0.93967,1.60341 c 0.91976,1.56946 0.9239,1.60341 0.1954,1.60341 -0.45789,0 -1.0064,-0.43104 -1.42552,-1.12023 l -0.68125,-1.12023 -0.63648,1.118 c -0.42534,0.74712 -0.9067,1.11874 -1.45105,1.12023 -0.55284,0.002 -0.73262,-0.13945 -0.55952,-0.43874 z m 6.48937,-2.73403 c 0,-2.93981 0.0523,-3.175 0.70555,-3.175 0.6533,0 0.70556,0.23519 0.70556,3.175 0,2.93982 -0.0523,3.175 -0.70556,3.175 -0.65329,0 -0.70555,-0.23518 -0.70555,-3.175 z m 4.11574,2.93982 c -0.12935,-0.12935 -0.23519,-1.31998 -0.23519,-2.64584 0,-2.33617 -0.0272,-2.41064 -0.88194,-2.41064 -0.54877,0 -0.88194,-0.19991 -0.88194,-0.52917 0,-0.42333 0.52916,-0.52917 2.64583,-0.52917 2.11667,0 2.64583,0.10584 2.64583,0.52917 0,0.35278 -0.35278,0.52917 -1.05833,0.52917 h -1.05833 v 2.64583 c 0,1.96968 -0.12021,2.64583 -0.47037,2.64583 -0.25871,0 -0.57621,-0.10583 -0.70556,-0.23518 z m 6.1088,-0.91135 c -0.003,-0.63059 -0.47685,-1.94027 -1.05232,-2.91041 -1.2449,-2.09869 -1.27432,-2.29306 -0.34707,-2.29306 0.46554,0 0.91468,0.42658 1.30006,1.23472 0.32384,0.6791 0.68874,1.23473 0.8109,1.23473 0.12216,0 0.48706,-0.55563 0.8109,-1.23473 0.3957,-0.8298 0.83074,-1.23472 1.32656,-1.23472 0.70774,0 0.69362,0.0815 -0.34707,2.00293 -0.59666,1.10161 -1.08483,2.53036 -1.08483,3.175 0,0.93689 -0.14158,1.17207 -0.70556,1.17207 -0.55959,0 -0.7068,-0.23719 -0.71157,-1.14653 z m 7.22192,0.28062 c -1.11621,-1.11621 -1.17867,-3.22743 -0.13475,-4.55457 0.58991,-0.74994 1.02796,-0.92952 2.26746,-0.92952 1.9315,0 2.99861,1.15251 2.99861,3.23861 0,2.80343 -3.18124,4.19556 -5.13132,2.24548 z m 3.16584,-0.74679 c 1.14782,-1.14781 0.43701,-3.67896 -1.03313,-3.67896 -0.95478,0 -1.5875,0.89464 -1.5875,2.24466 0,0.95667 0.82381,1.98867 1.5875,1.98867 0.26332,0 0.72823,-0.24946 1.03313,-0.55437 z m 3.02381,-1.5623 v -3.175 h 2.11667 c 1.64629,0 2.11666,0.1176 2.11666,0.52917 0,0.38218 -0.39197,0.52917 -1.41111,0.52917 -1.17592,0 -1.41111,0.11759 -1.41111,0.70555 0,0.57392 0.23519,0.70556 1.26059,0.70556 1.01219,0 1.23638,0.12165 1.13771,0.61736 -0.0868,0.43587 -0.45734,0.61636 -1.26059,0.61395 -1.08062,-0.003 -1.13771,0.0631 -1.13771,1.32292 0,1.09114 -0.12511,1.32632 -0.70555,1.32632 -0.6533,0 -0.70556,-0.23518 -0.70556,-3.175 z m 7.05556,0 c 0,-2.93981 0.0523,-3.175 0.70555,-3.175 0.64284,0 0.70556,0.23519 0.70556,2.64584 v 2.64583 h 1.41111 c 1.01913,0 1.41111,0.14699 1.41111,0.52917 0,0.41157 -0.47037,0.52916 -2.11667,0.52916 h -2.11666 z m 4.93889,0 v -3.175 h 2.29305 c 1.80309,0 2.29306,0.11307 2.29306,0.52917 0,0.39197 -0.41158,0.52917 -1.5875,0.52917 -1.35232,0 -1.5875,0.10452 -1.5875,0.70555 0,0.58796 0.23518,0.70556 1.41111,0.70556 1.17592,0 1.41111,0.11759 1.41111,0.70555 0,0.58797 -0.23519,0.70556 -1.41111,0.70556 -1.17593,0 -1.41111,0.11759 -1.41111,0.70555 0,0.60103 0.23518,0.70556 1.5875,0.70556 1.17592,0 1.5875,0.13719 1.5875,0.52917 0,0.41609 -0.48997,0.52916 -2.29306,0.52916 h -2.29305 z m 6.45204,2.38125 c -1.03326,-1.12889 -1.27265,-2.20685 -0.80488,-3.62422 0.47105,-1.42729 1.23338,-1.93203 2.91802,-1.93203 1.18831,0 2.37093,0.84969 2.37093,1.70347 0,0.5857 -0.88945,0.5126 -1.41111,-0.11597 -1.13696,-1.36994 -3.25386,0.40673 -2.61613,2.19566 0.43645,1.22431 1.37796,1.79473 2.15416,1.30511 0.89678,-0.56567 0.97046,-1.20771 0.13859,-1.20771 -0.41811,0 -0.73496,-0.22813 -0.73496,-0.52917 0,-0.38217 0.39198,-0.52917 1.41111,-0.52917 1.24855,0 1.41111,0.0961 1.41111,0.83437 0,0.45891 -0.32902,1.25266 -0.73116,1.76389 -0.9681,1.23075 -3.04074,1.29929 -4.10568,0.13577 z m 6.30449,-2.38125 c 0.98498,-2.93689 1.13523,-3.17488 2.00346,-3.17345 0.863,0.001 1.02927,0.25718 2.06395,3.175 l 1.12533,3.17345 h -0.8196 c -0.52292,0 -0.8864,-0.2554 -1.00411,-0.70555 -0.13582,-0.51939 -0.4812,-0.70556 -1.3089,-0.70556 -0.8277,0 -1.17307,0.18617 -1.30889,0.70556 -0.11741,0.44895 -0.4812,0.70555 -1.0003,0.70555 h -0.81578 z m 2.54639,-0.26458 c -0.38228,-1.5935 -0.62491,-1.59333 -1.02499,7.2e-4 -0.20828,0.82984 -0.13525,0.96942 0.50721,0.96942 0.63999,0 0.71624,-0.14288 0.51778,-0.97014 z m 3.3943,0.26458 c 0,-2.93981 0.0523,-3.175 0.70555,-3.175 0.64284,0 0.70556,0.23519 0.70556,2.64584 v 2.64583 h 1.41111 c 1.01914,0 1.41111,0.14699 1.41111,0.52917 0,0.41157 -0.47037,0.52916 -2.11666,0.52916 h -2.11667 z m -23.63611,-7.25085 c -4.87715,-1.04642 -10.16052,-4.7364 -12.50175,-8.7314 -0.96976,-1.65478 -2.05975,-4.51326 -2.48135,-6.50733 l -0.24241,-1.1467 h 6.20164 c 5.8114,0 6.20164,0.0413 6.20164,0.65633 0,0.71289 1.5055,3.10473 2.42656,3.85518 2.46649,2.00959 6.98216,2.46073 10.09962,1.009 4.09605,-1.90743 6.64465,-7.13571 7.07622,-14.51634 0.18076,-3.09132 0.16954,-3.15176 -0.42584,-2.29306 -0.33632,0.48507 -1.57395,1.84205 -2.75027,3.01551 -2.90106,2.89399 -5.74882,4.0652 -10.47567,4.30835 -2.12531,0.10933 -4.10726,0.008 -5.29167,-0.27175 -6.26949,-1.47844 -11.58567,-6.88718 -13.00817,-13.23467 -0.50768,-2.26537 -0.50962,-7.61727 -0.004,-9.85772 1.16383,-5.1527 5.15436,-10.14969 10.02152,-12.54908 7.70266,-3.79721 17.7429,-3.14734 24.36342,1.57696 6.13895,4.38067 9.25153,11.64715 9.60623,22.42629 0.28516,8.66597 -0.91238,14.86009 -4.05818,20.99028 -4.67267,9.1056 -14.33847,13.50553 -24.75796,11.26998 z m 10.16124,-30.16465 c 5.61695,-2.80682 7.29683,-9.54103 3.68281,-14.76343 -2.45749,-3.55116 -6.59665,-4.98668 -10.83003,-3.75601 -3.89635,1.13271 -6.89458,5.27313 -6.89458,9.52114 0,3.3223 1.54176,6.4289 4.11703,8.29569 1.83687,1.33153 3.0849,1.72134 5.61621,1.75415 1.72632,0.0224 2.57298,-0.18426 4.30856,-1.05154 z M 13.817125,174.74259 C 13.687773,174.61324 13.58194,161.59574 13.58194,145.81481 v -28.69259 h 6.173612 6.173611 v 23.8125 23.8125 h 12.347223 12.347222 v 5.11528 5.11528 H 32.337959 c -10.057106,0 -18.391482,-0.10583 -18.520834,-0.23519 z m 44.920372,-28.71773 v -28.95292 l 14.022918,0.12686 14.022917,0.12687 2.877745,0.96163 c 8.181582,2.73399 12.468093,8.82215 12.468093,17.70853 0,6.95065 -2.602118,12.01366 -7.834083,15.24301 -1.311628,0.80959 -2.006314,1.4553 -1.890464,1.7572 0.100735,0.26251 2.546234,4.79985 5.434444,10.08299 2.888213,5.28313 5.517133,10.12508 5.842053,10.75988 l 0.59076,1.1542 -6.768609,-0.0959 -6.768607,-0.0959 -5.374444,-10.05417 -5.374443,-10.05416 -4.450529,-0.0987 -4.450528,-0.0987 v 10.24109 10.2411 h -6.173611 -6.173612 z m 24.43118,-1.87464 c 4.424607,-1.0412 6.338883,-3.50374 6.338883,-8.15439 0,-4.29132 -1.653653,-6.78516 -5.394287,-8.135 -1.069593,-0.38597 -3.373642,-0.62746 -7.295914,-0.76467 l -5.732639,-0.20055 v 8.87164 8.87164 l 5.027084,-0.006 c 2.972833,-0.003 5.85653,-0.2007 7.056873,-0.48316 z m 27.427153,26.31456 v -4.513 l 7.84517,-7.21686 c 11.12682,-10.2357 16.37229,-15.36934 18.14076,-17.75402 5.21704,-7.03489 1.83839,-14.84325 -6.42264,-14.84325 -4.61638,0 -7.53209,2.36448 -8.37316,6.79015 l -0.41545,2.18609 h -5.5748 c -4.74354,0 -5.60653,-0.0827 -5.78762,-0.5546 -0.40355,-1.05163 0.62551,-5.62327 1.82906,-8.12566 2.25097,-4.68019 7.07313,-8.20235 13.00734,-9.50075 4.03533,-0.88292 9.99532,-0.58849 13.73644,0.6786 7.82949,2.6518 12.23157,8.29864 12.23157,15.69023 0,4.77374 -1.74481,8.92893 -5.7235,13.63023 -0.98523,1.16417 -5.37893,5.64047 -9.76377,9.94733 l -7.97245,7.83066 12.08264,0.0186 12.08264,0.0186 v 5.11528 5.11528 h -20.46112 -20.46111 z"
       id="path1" /></g></svg>
