<?xml version="1.0" encoding="utf-8"?>
<!-- Generator: Adobe Illustrator 19.2.1, SVG Export Plug-In . SVG Version: 6.00 Build 0)  -->
<svg version="1.1" id="layer" xmlns="http://www.w3.org/2000/svg" xmlns:xlink="http://www.w3.org/1999/xlink" x="0px" y="0px"
	 viewBox="0 0 652 652" style="enable-background:new 0 0 652 652;" xml:space="preserve">
<style type="text/css">
	.st0{clip-path:url(#SVGID_2_);fill:url(#SVGID_3_);}
	.st1{fill:#7B7B7B;}
	.st2{fill:#004696;}
	.st3{fill:#231815;}
</style>
<title>header-top-logo</title>
<g>
	<defs>
		<path id="SVGID_1_" d="M36.3,179.9c-1.6,1.3-2.5,3.3-2.5,5.4v283.8c0,2.1,0.9,4,2.5,5.4c1.6,1.3,3.7,1.9,5.7,1.5l235.2-44.4
			c3.3-0.6,5.6-3.5,5.6-6.8v-39.2c-2.3,0.2-4.7,0.3-7.2,0.3c-4.2,0-8-0.2-11.6-0.5v29.7L52.5,454.8V199.6l211.6,42.2v28.6
			c3-1.9,6.4-3.6,9.9-5c2.7-1.1,5.7-1.9,8.8-2.6v-30.6c0-3.3-2.3-6.2-5.6-6.8L42,178.5c-0.5-0.1-0.9-0.1-1.4-0.1
			C39.1,178.3,37.5,178.9,36.3,179.9"/>
	</defs>
	<clipPath id="SVGID_2_">
		<use xlink:href="#SVGID_1_"  style="overflow:visible;"/>
	</clipPath>
	
		<linearGradient id="SVGID_3_" gradientUnits="userSpaceOnUse" x1="29.4937" y1="756.0523" x2="40.0751" y2="756.0523" gradientTransform="matrix(38.7359 -38.7359 -38.7359 -38.7359 28283.1816 30775.0566)">
		<stop  offset="0" style="stop-color:#008AD4"/>
		<stop  offset="0.1538" style="stop-color:#1070BB"/>
		<stop  offset="0.3523" style="stop-color:#2156A2"/>
		<stop  offset="0.5568" style="stop-color:#2D448F"/>
		<stop  offset="0.7687" style="stop-color:#343985"/>
		<stop  offset="1" style="stop-color:#363581"/>
	</linearGradient>
	<polygon class="st0" points="-115.2,327.3 158.3,53.8 431.8,327.3 158.3,600.8 	"/>
</g>
<path class="st1" d="M348.1,375.3l-3.6-74.2h19.1l0.9,48.6l25.9-48.6h19l-0.6,48.6l27.2-48.6h19.3l-43.6,74.2h-18.9l-0.1-47.7
	l-25.4,47.7H348.1z M466.2,323.5c2.1-3.5,4.4-5.9,6.7-7.3c2.3-1.4,5.2-2.1,8.7-2.1c5.2,0,8.5,0.8,9.9,2.5c1.4,1.6,1.6,4.4,0.6,8.2
	l-0.5,2c-4,1.5-10.7,3.1-20.4,4.9c-7.1,1.3-12.7,2.9-16.8,4.6c-4.1,1.8-7.6,4.3-10.4,7.6c-2.9,3.3-4.9,7.1-6,11.3
	c-1.7,6.4-1,11.7,2.3,15.8c3.2,4.2,8.6,6.3,16.2,6.3c4.3,0,8.6-0.8,12.8-2.5c4.2-1.6,8.5-4.1,12.7-7.4c0,0.4,0.1,1.1,0.1,2.3
	c0.1,2.5,0.2,4.4,0.3,5.7h19.7c-0.8-3.5-1.1-6.9-0.9-10c0.2-3.1,1.2-8,2.9-14.5l6.4-23c2.3-8.5,3-14.4,2.1-17.6
	c-0.9-3.2-3.2-5.8-6.9-7.9c-3.7-2.1-10-3.1-18.7-3.1c-9.6,0-17.4,1.7-23.2,5.2c-5.8,3.5-10.7,8.8-14.6,16L466.2,323.5 M487.2,343.5
	c-1.3,4.8-2.4,8-3.4,9.7c-1.4,2.6-3.6,4.8-6.4,6.6c-3.9,2.4-7.5,3.5-11,3.5c-3.2,0-5.5-1-7-3c-1.5-2-1.9-4.4-1.1-7.2
	c0.8-2.8,2.7-5.2,5.7-7c2-1.1,5.8-2.3,11.6-3.5c5.7-1.2,9.9-2.2,12.7-3L487.2,343.5z M533.1,352.2c3.4-12.7,6.2-21,8.3-25
	c2.1-4,4.3-6.7,6.7-8.2c2.3-1.5,4.8-2.3,7.5-2.3c2.8,0,5.6,1.1,8.3,3.2l10.7-17.1c-3.5-2.5-7.4-3.7-11.9-3.7c-3.2,0-6.2,0.8-9.2,2.5
	c-2.9,1.7-6.6,5-11,10l2.8-10.6h-18.2l-19.9,74.2h19.7L533.1,352.2z M607.9,351.7c-2.1,3.8-4.4,6.5-6.9,8.2
	c-2.6,1.7-5.4,2.5-8.5,2.5c-4.5,0-7.9-1.6-10-4.9c-2.2-3.3-2.5-7.9-1.1-13.7h49.2c4.3-15.1,4.3-26.4-0.1-33.7
	c-4.4-7.3-12.1-11-23.2-11c-9.8,0-18.9,3.5-27.2,10.5c-8.3,7-14.1,16.7-17.4,29.1c-2.8,10.4-2.6,18.9,0.4,25.7
	c3.9,8.5,12.3,12.7,25.3,12.7c8.1,0,15.4-1.9,21.9-5.7c6.4-3.8,11.9-9.3,16.4-16.5L607.9,351.7 M584.9,331.8c1.4-5.5,3.9-9.8,7.6-13
	c3.7-3.2,7.6-4.8,11.9-4.8c4,0,7,1.5,9,4.5c2,3,2.3,7.4,0.8,13.2H584.9z"/>
<path class="st2" d="M237.5,340.6l30.6-1.9c-0.6,4.9-0.3,8.6,1,11.1c2.1,4.1,6.3,6.2,12.3,6.2c4.5,0,8.3-1.1,11.3-3.2
	c3-2.1,4.9-4.6,5.6-7.4c0.7-2.7,0.2-5-1.6-7.1c-1.8-2.1-6.6-4.1-14.6-5.9c-13.1-3.1-21.9-7.3-26.4-12.4c-4.6-5.2-5.8-11.7-3.6-19.8
	c1.4-5.3,4.3-10.2,8.6-14.9c4.3-4.7,9.9-8.4,16.7-11c6.8-2.7,15.6-4,26.3-4c13.1,0,22.4,2.5,28,7.3c5.6,4.9,7.6,12.6,6.1,23.2
	l-30.2,1.8c0.4-4.6-0.3-8-2.3-10.1c-2-2.1-5.2-3.1-9.7-3.1c-3.7,0-6.7,0.8-9,2.3c-2.3,1.6-3.7,3.5-4.3,5.7c-0.5,1.6-0.1,3.1,1.1,4.4
	c1.1,1.4,4.3,2.6,9.6,3.8c13.1,3,22.2,6,27.3,9c5.2,3,8.5,6.8,10,11.3c1.5,4.5,1.6,9.6,0.1,15.2c-1.8,6.5-5.2,12.6-10.3,18.2
	c-5.1,5.5-11.3,9.7-18.6,12.6c-7.3,2.9-15.9,4.3-25.8,4.3c-17.4,0-28.6-3.3-33.5-10C237.2,359.4,235.6,350.9,237.5,340.6
	 M143.3,372.3h81.1l6.8-25.2h-49.4l20.7-77.2h-31.7L143.3,372.3z"/>
<path class="st3" d="M429,428v-20.2h1.7v18.5h9.7v1.6H429z M453.4,421.1c0-5.2-2.2-8-5.7-8c-3.7,0-6,3.5-6,7.7c0,4.3,1.8,7.6,6,7.6
	c3.3,0,4.9-2.1,5.7-4.8h-1.7c-0.5,2.1-2,3.3-4,3.3c-2.9,0-4.4-2.6-4.4-5.7H453.4z M443.2,419.7c0.3-2.7,1.7-5.1,4.4-5.1
	c2.7,0,4.1,2.3,4.1,5.1H443.2z M459.7,419.8c-3,0.4-4.6,1.9-4.6,4.4c0,2.8,2.1,4.2,4.4,4.2c1.9,0,3.6-0.8,4.9-2.4c0,1,0.2,2,1.2,2.2
	c0.2,0.1,0.4,0.1,0.7,0.1c0.4,0,0.9-0.2,1.2-0.3v-1.3c-1.3,0.5-1.6,0.2-1.6-1.1v-7.9c0-3.4-2.1-4.5-4.7-4.5c-2.8,0-5.1,1.4-5.4,4.8
	h1.5c0.3-2.5,1.7-3.3,3.8-3.3c2.3,0,3.2,1.2,3.2,2.9c0,0.5,0,1.3-0.6,1.5c-0.5,0.3-1.4,0.4-2,0.5L459.7,419.8z M464.3,422.6
	c0,2.9-2.4,4.2-4.8,4.2c-1.4,0-2.8-0.8-2.8-2.6c0-1.9,1.4-2.9,3.7-3.1c1.3-0.1,2.6-0.2,3.9-0.8V422.6z M479.4,415.8
	c-1-1.8-2.8-2.7-4.6-2.7c-4,0-5.8,3.6-5.8,7.7c0,4.3,1.7,7.6,5.9,7.6c1.7,0,3.6-1,4.5-2.9h0v2.6h1.5v-20.2h-1.5V415.8z M475,414.6
	c2.8,0,4.4,2.8,4.4,6.1c0,3.5-1.5,6.2-4.4,6.2c-2.5,0-4.4-2.1-4.5-5.7C470.4,417.5,471.8,414.6,475,414.6 M485.1,421.1
	c0,3.1,1.5,5.7,4.4,5.7c2,0,3.5-1.2,3.9-3.3h1.7c-0.7,2.8-2.3,4.8-5.6,4.8c-4.2,0-6-3.3-6-7.6c0-4.2,2.3-7.7,6-7.7
	c3.6,0,5.8,2.8,5.7,8H485.1z M493.6,419.7c0-2.8-1.4-5.1-4.1-5.1c-2.7,0-4.1,2.4-4.4,5.1H493.6z M499.3,420.9c0-3.2,0.9-6,4.3-6
	v-1.8c-2.2,0-3.4,0.8-4.3,3.1h0v-2.7h-1.5V428h1.5V420.9z M511.2,420.7c0,5.1,2.7,7.6,6.1,7.6c3.7,0,6-3,6-7.6c0-4.3-2-7.7-6-7.7
	C513.2,413.1,511.2,416.5,511.2,420.7 M517.3,414.6c3.2,0,4.4,2.7,4.4,6.1c0,3.1-1.2,6.1-4.4,6.1c-2.9,0-4.4-2.5-4.4-6.1
	C512.8,417.6,514.1,414.6,517.3,414.6 M526.2,414.9V428h1.5v-13.1h2.5v-1.4h-2.5v-1.8c0-1.3,0-2.7,1.6-2.7c0.3,0,0.6,0,0.9,0.1v-1.5
	c-0.4-0.1-0.8-0.1-1.3-0.1c-2,0-2.7,1.5-2.7,3.7v2.3h-2v1.4H526.2z M537.8,422c0,4.4,2.8,6.5,6.6,6.5c4.2,0,6.6-2.2,6.6-5.9
	c0-7.8-10.3-4-11.1-9.3c-0.3-2.1,1-4.4,4.4-4.4c2.3,0,4.5,1.3,4.5,4.4h1.6c0-3.3-2-6-6.1-6c-4.1,0-6.1,2.6-6.1,5.4
	c0,7.9,11,3.8,11,10c0,2.2-1.3,4.2-4.6,4.2c-2.8,0-4.9-1.3-5.2-4.9H537.8z M564.5,421.1c0-5.2-2.1-8-5.7-8c-3.7,0-6,3.5-6,7.7
	c0,4.3,1.8,7.6,6,7.6c3.3,0,4.9-2.1,5.7-4.8h-1.7c-0.5,2.1-2,3.3-4,3.3c-2.9,0-4.4-2.6-4.4-5.7H564.5z M554.4,419.7
	c0.3-2.7,1.7-5.1,4.4-5.1c2.8,0,4.2,2.3,4.2,5.1H554.4z M577.7,418c-0.5-3.4-2.4-5-5.4-5c-3.9,0-6,3.7-6,7.7c0,4.3,1.8,7.6,6,7.6
	c3.3,0,5.1-2.2,5.6-5.4h-1.6c-0.3,2.4-1.8,3.9-4,3.9c-3.1,0-4.4-3.1-4.4-6.1c0-3,1.3-6.2,4.4-6.2c2,0,3.3,1.3,3.9,3.4H577.7z
	 M589.3,421.4c0,3.2-1.5,5.5-4,5.5c-2.4,0-3.3-1.4-3.3-3.9v-9.5h-1.5v9.5c0,3,1.2,5.3,4.7,5.3c2.3,0,3.4-1.4,4.2-2.4v2h1.5v-14.5
	h-1.5V421.4z M595.5,420.9c0-3.2,0.9-6,4.3-6v-1.8c-2.2,0-3.4,0.8-4.3,3.1h-0.1v-2.7H594V428h1.5V420.9z M601.9,410.3h1.7v-2.5h-1.7
	V410.3z M602,428h1.5v-14.5H602V428z M611.5,426.6c-0.4,0.1-0.8,0.2-1.2,0.2c-1.3,0-1.3-0.6-1.3-2.1v-9.9h2.4v-1.4h-2.4v-4h-1.5v4
	h-1.8v1.4h1.8v10.6c0,2.2,0.8,2.9,2.3,2.9c0.7,0,1.4-0.2,1.7-0.3V426.6z M613.3,433.5c0.4,0.1,0.9,0.2,1.4,0.2
	c2.1,0,2.9-2.3,4.1-5.9l4.9-14.3h-1.7l-4.2,12.5l-4.2-12.5H612l5,14.6c-0.6,1.2-0.8,4-2.5,4c-0.4,0-0.8-0.1-1.3-0.2V433.5z"/>
</svg>
