<?xml version="1.0" encoding="UTF-8" standalone="no"?>
<!-- Created with Inkscape (http://www.inkscape.org/) -->

<svg
   version="1.1"
   id="svg1"
   width="373.44"
   height="232"
   viewBox="0 0 373.44 232"
   sodipodi:docname="lyra.svg"
   inkscape:version="1.4.3 (0d15f75, 2025-12-25)"
   xmlns:inkscape="http://www.inkscape.org/namespaces/inkscape"
   xmlns:sodipodi="http://sodipodi.sourceforge.net/DTD/sodipodi-0.dtd"
   xmlns="http://www.w3.org/2000/svg"
   xmlns:svg="http://www.w3.org/2000/svg">
  <defs
     id="defs1" />
  <sodipodi:namedview
     id="namedview1"
     pagecolor="#ffffff"
     bordercolor="#000000"
     borderopacity="0.25"
     inkscape:showpageshadow="2"
     inkscape:pageopacity="0.0"
     inkscape:pagecheckerboard="0"
     inkscape:deskcolor="#d1d1d1"
     inkscape:zoom="0.77"
     inkscape:cx="187.01299"
     inkscape:cy="116.23377"
     inkscape:current-layer="g1" />
  <g
     inkscape:groupmode="layer"
     inkscape:label="Image"
     id="g1">
    <g
       id="g2">
      <path
         style="fill:#9fe4f8"
         d="m 74.992974,231.52716 c 0.102147,-0.26619 13.17246,-15.5687 29.045136,-34.00557 15.87268,-18.43688 29.05925,-33.7553 29.30348,-34.04095 0.38966,-0.45576 -3.16336,-8.06493 -29.00877,-62.12522 C 88.13377,67.472194 74.88,39.587392 74.88,39.389189 c 0,-0.259739 2.205915,-0.336469 7.899625,-0.274779 L 90.679249,39.2 117.41963,94.794326 c 14.7072,30.576874 26.83265,55.560874 26.94544,55.520004 0.11278,-0.0409 8.44478,-10.01033 18.51554,-22.15433 10.07077,-12.144 18.65449,-22.43673 19.07494,-22.87273 l 0.76445,-0.79272 -0.0184,10.07272 -0.0184,10.07273 -22.6773,26.88 c -12.47251,14.784 -33.09273,38.904 -45.82269,53.6 l -23.145398,26.72 -8.11524,0.0856 c -7.134576,0.0752 -8.092797,0.0271 -7.929518,-0.39841 z M 311.36,193.91816 c -15.59911,-1.39983 -30.57984,-9.36792 -40.27614,-21.42243 -9.11221,-11.32839 -13.65401,-24.96668 -13.05954,-39.21573 0.80719,-19.3479 11.12549,-37.096126 27.4757,-47.260229 8.6602,-5.383614 20.18401,-8.882899 29.29998,-8.897145 l 1.68,-0.0026 v 7.68 7.68 h -2.18361 c -4.80834,0 -12.13899,1.86378 -17.04177,4.332781 -10.35426,5.214329 -18.28905,14.354979 -21.88939,25.215979 -1.69566,5.11523 -2.19562,8.92145 -1.99659,15.20026 0.13559,4.2775 0.33298,5.9821 0.99885,8.62589 4.34371,17.2464 18.22741,29.86127 35.87251,32.59412 4.07093,0.6305 11.2756,0.3977 15.2,-0.49116 8.20576,-1.85856 14.76627,-5.35196 20.69501,-11.01987 6.56617,-6.27731 10.66814,-13.53133 12.60897,-22.298 0.55802,-2.52055 0.60262,-4.386 0.60824,-25.44 l 0.006,-22.72 -0.9435,-3.732227 C 355.3028,80.437698 349.11145,70.002041 339.15488,60.284813 333.14154,54.416035 327.86032,50.625338 321.12,47.339942 312.59874,43.186471 304.18856,41.092078 294.4,40.685844 L 289.44,40.48 v -7.52 -7.52 l 4.16,0.05987 c 17.78786,0.256015 35.11236,6.47691 49.28,17.6955 14.65558,11.60496 26.20584,30.152118 29.75834,47.785289 l 0.82614,4.100663 -0.10849,26.299334 c -0.10607,25.71291 -0.12407,26.36588 -0.80715,29.28361 -1.88339,8.04473 -4.76909,14.46646 -8.72476,19.41573 -8.89893,11.13422 -19.15704,18.2522 -31.37046,21.76759 -6.42824,1.85025 -14.60482,2.65287 -21.09362,2.07057 z M 0.07947022,95.6 0.16,0.16 h 7.04 7.04 l 0.08057,88.4 0.08057,88.4 h 35.679429 35.679429 v 7.04 7.04 H 42.87947 -0.00105957 Z M 189.76,115.04 v -76 h 7.03756 7.03756 l 0.0824,19.719741 L 204,78.479483 236.09816,39.724438 C 253.75215,18.409164 268.41444,0.75128017 268.68102,0.48469688 269.09128,0.07443412 270.56684,0 278.28953,0 c 5.85703,0 9.08561,0.11301016 9.01714,0.31562729 C 287.248,0.4892223 268.444,22.883484 245.52,50.080653 L 203.84,99.530052 V 145.28503 191.04 h -7.04 -7.04 z"
         id="path8" />
      <path
         style="fill:#5cd2f5"
         d="M 75.263249,231.12 C 113.69682,186.50769 133.76,163.11262 133.76,162.9087 c 0,-0.1428 -13.18681,-27.81968 -29.30401,-61.50417 C 88.33878,67.720038 75.074395,39.977449 74.979575,39.75433 c -0.137094,-0.322595 1.454398,-0.388126 7.771601,-0.32 l 7.944,0.08567 4.554398,9.44 c 2.504918,5.192 14.553666,30.21731 26.774986,55.6118 l 22.2206,46.1718 18.67742,-22.48057 c 10.27258,-12.36432 18.92463,-22.77363 19.22678,-23.1318 0.52136,-0.61805 0.54989,-0.14382 0.56,9.30637 l 0.0106,9.95761 -22.64,26.87612 c -12.452,14.78187 -33.06971,38.92095 -45.81713,53.6424 L 91.085735,231.68 h -8.152463 c -7.734705,0 -8.127742,-0.0287 -7.670023,-0.56 z M 311.36,193.91816 c -15.59911,-1.39983 -30.57984,-9.36792 -40.27614,-21.42243 -9.11221,-11.32839 -13.65401,-24.96668 -13.05954,-39.21573 0.80719,-19.3479 11.12549,-37.096126 27.4757,-47.260229 8.6602,-5.383614 20.18401,-8.882899 29.29998,-8.897145 l 1.68,-0.0026 v 7.68 7.68 h -2.18361 c -4.80834,0 -12.13899,1.86378 -17.04177,4.332781 -10.35426,5.214329 -18.28905,14.354979 -21.88939,25.215979 -1.69566,5.11523 -2.19562,8.92145 -1.99659,15.20026 0.13559,4.2775 0.33298,5.9821 0.99885,8.62589 4.34371,17.2464 18.22741,29.86127 35.87251,32.59412 4.07093,0.6305 11.2756,0.3977 15.2,-0.49116 8.20576,-1.85856 14.76627,-5.35196 20.69501,-11.01987 6.56617,-6.27731 10.66814,-13.53133 12.60897,-22.298 0.55802,-2.52055 0.60262,-4.386 0.60824,-25.44 l 0.006,-22.72 -0.9435,-3.732227 C 355.3028,80.437698 349.11145,70.002041 339.15488,60.284813 333.14154,54.416035 327.86032,50.625338 321.12,47.339942 312.59874,43.186471 304.18856,41.092078 294.4,40.685844 L 289.44,40.48 v -7.52 -7.52 l 4.16,0.05987 c 17.78786,0.256015 35.11236,6.47691 49.28,17.6955 14.65558,11.60496 26.20584,30.152118 29.75834,47.785289 l 0.82614,4.100663 -0.10849,26.299334 c -0.10607,25.71291 -0.12407,26.36588 -0.80715,29.28361 -1.88339,8.04473 -4.76909,14.46646 -8.72476,19.41573 -8.89893,11.13422 -19.15704,18.2522 -31.37046,21.76759 -6.42824,1.85025 -14.60482,2.65287 -21.09362,2.07057 z M 0.07947022,95.6 0.16,0.16 h 7.04 7.04 l 0.08057,88.4 0.08057,88.4 h 35.679429 35.679429 v 7.04 7.04 H 42.87947 -0.00105957 Z M 189.76,115.04 v -76 l 7.03758,0 7.03758,0 0.0824,19.782559 L 204,78.605118 236.42055,39.462559 268.8411,0.32 h 9.27409 9.27409 l -3.18733,3.76 c -1.75303,2.068 -20.54832,24.352 -41.76732,49.52 l -38.57999,45.76 -0.007,45.84 -0.007,45.84 h -7.04 -7.04 z"
         id="path7" />
      <path
         style="fill:#b6b6b6"
         d="m 76.712775,229.52 c 1.044276,-1.188 14.039631,-16.272 28.878565,-33.52 14.83894,-17.248 27.3083,-31.72 27.7097,-32.16 l 0.72982,-0.8 -29.53073,-61.76 -29.530741,-61.76 7.693485,-0.08582 c 4.231416,-0.0472 7.796081,0.0248 7.921477,0.16 C 90.709747,39.72938 102.81234,64.788 117.47901,95.28 c 14.66666,30.492 26.74189,55.43263 26.83383,55.42363 0.0919,-0.009 8.51916,-10.09752 18.72716,-22.41892 10.208,-12.32141 18.74,-22.55568 18.96,-22.74282 0.31869,-0.27109 0.3997,1.63533 0.3985,9.37893 l -0.002,9.71918 -22.95849,27.24291 c -12.62718,14.9836 -33.1825,39.06119 -45.6785,53.50575 l -22.719999,26.26283 -8.112956,0.0143 -8.112955,0.0143 z M 311.36,193.91816 c -15.59911,-1.39983 -30.57984,-9.36792 -40.27614,-21.42243 -9.11221,-11.32839 -13.65401,-24.96668 -13.05954,-39.21573 0.80719,-19.3479 11.12549,-37.096126 27.4757,-47.260229 8.6602,-5.383614 20.18401,-8.882899 29.29998,-8.897145 l 1.68,-0.0026 v 7.68 7.68 h -2.18361 c -4.80834,0 -12.13899,1.86378 -17.04177,4.332781 -10.35426,5.214329 -18.28905,14.354979 -21.88939,25.215979 -1.69566,5.11523 -2.19562,8.92145 -1.99659,15.20026 0.13559,4.2775 0.33298,5.9821 0.99885,8.62589 4.34371,17.2464 18.22741,29.86127 35.87251,32.59412 4.07093,0.6305 11.2756,0.3977 15.2,-0.49116 8.20576,-1.85856 14.76627,-5.35196 20.69501,-11.01987 6.56617,-6.27731 10.66814,-13.53133 12.60897,-22.298 0.55802,-2.52055 0.60262,-4.386 0.60824,-25.44 l 0.006,-22.72 -0.9435,-3.732227 C 355.3028,80.437698 349.11145,70.002041 339.15488,60.284813 333.14154,54.416035 327.86032,50.625338 321.12,47.339942 312.59874,43.186471 304.18856,41.092078 294.4,40.685844 L 289.44,40.48 v -7.52 -7.52 l 4.16,0.05987 c 17.78786,0.256015 35.11236,6.47691 49.28,17.6955 14.65558,11.60496 26.20584,30.152118 29.75834,47.785289 l 0.82614,4.100663 -0.10849,26.299334 c -0.10607,25.71291 -0.12407,26.36588 -0.80715,29.28361 -1.88339,8.04473 -4.76909,14.46646 -8.72476,19.41573 -8.89893,11.13422 -19.15704,18.2522 -31.37046,21.76759 -6.42824,1.85025 -14.60482,2.65287 -21.09362,2.07057 z M 0.07947022,95.6 0.16,0.16 h 7.04 7.04 l 0.08057,88.4 0.08057,88.4 h 35.679429 35.679429 v 7.04 7.04 H 42.87947 -0.00105957 Z M 189.76,115.04 v -76 l 7.03758,0 7.03758,0 0.0824,19.855348 L 204,78.750696 236.4791,39.535348 268.9582,0.32 h 9.05978 c 6.3728,0 8.99682,0.10189872 8.84745,0.34357444 C 286.74864,0.85254039 268.02015,23.113624 245.24655,50.132648 L 203.84,99.258148 V 145.14907 191.04 h -7.04 -7.04 z"
         id="path6" />
      <path
         style="fill:#1ec2f2"
         d="m 76.712775,229.52 c 1.044276,-1.188 14.039631,-16.272 28.878565,-33.52 14.83894,-17.248 27.3083,-31.72 27.7097,-32.16 l 0.72982,-0.8 -29.53073,-61.76 -29.530741,-61.76 7.693485,-0.08582 c 4.231416,-0.0472 7.796081,0.0248 7.921477,0.16 C 90.709747,39.72938 102.81234,64.788 117.47901,95.28 c 14.66666,30.492 26.74189,55.43263 26.83383,55.42363 0.0919,-0.009 8.51916,-10.09752 18.72716,-22.41892 10.208,-12.32141 18.74,-22.55568 18.96,-22.74282 0.31869,-0.27109 0.3997,1.63533 0.3985,9.37893 l -0.002,9.71918 -22.95849,27.24291 c -12.62718,14.9836 -33.1825,39.06119 -45.6785,53.50575 l -22.719999,26.26283 -8.112956,0.0143 -8.112955,0.0143 z M 307.90037,193.43611 c -9.51049,-1.44628 -19.1505,-5.50592 -26.72035,-11.25259 -2.60901,-1.98064 -7.82224,-7.05725 -10.12897,-9.86352 -2.74723,-3.34217 -5.2826,-7.39369 -7.36574,-11.77039 -9.34384,-19.63161 -6.99872,-42.58567 6.14251,-60.12311 2.56079,-3.41746 7.98122,-8.837895 11.39868,-11.398681 9.36944,-7.020754 19.9987,-10.912353 32.1335,-11.764763 l 3.12,-0.219164 v 7.512738 7.512738 l -3.89751,0.390314 c -13.52064,1.354015 -24.96011,8.202018 -32.31804,19.346548 -4.88858,7.40436 -7.10166,14.91436 -7.08238,24.03377 0.0248,11.71672 4.32025,21.98166 12.72938,30.41951 6.00404,6.02454 13.2342,9.979 21.60855,11.81858 3.7833,0.83107 11.71929,0.99912 15.72493,0.33299 17.81559,-2.96269 31.9834,-16.49565 35.62849,-34.032 0.40904,-1.96787 0.48658,-5.98175 0.48658,-25.18761 0,-21.486535 -0.037,-23.004593 -0.62081,-25.499078 C 355.91412,81.62244 349.58823,70.519012 340.17418,61.106448 331.90513,52.838691 323.24433,47.345939 313.21601,44.009337 306.80282,41.875556 301.48266,40.922164 293.36,40.451071 l -3.76,-0.21807 v -7.297615 c 0,-4.034316 0.13011,-7.378027 0.29096,-7.477438 0.44565,-0.275426 10.48516,0.397753 14.15716,0.949279 10.91642,1.639622 20.92508,5.240765 30.14529,10.846356 19.96996,12.141099 34.65592,33.201481 38.76458,55.590311 0.44159,2.406345 0.49432,6.090629 0.40754,28.479996 -0.1125,29.02621 0.0107,27.45033 -2.8052,35.87253 -2.35587,7.0462 -4.77982,10.92776 -11.12412,17.81347 -8.40825,9.12578 -19.15432,15.25641 -31.25397,17.83038 -3.2824,0.69827 -4.8711,0.83868 -10.58224,0.93528 -4.70659,0.0796 -7.61274,-0.0221 -9.69963,-0.33944 z M 0.32,95.68 V 0.32 h 7.04 7.04 v 88.32 88.32 h 35.52 35.520001 v 7.04 7.04 H 42.88 0.32 Z m 189.58795,94.96 c -0.0836,-0.22 -0.11506,-34.384 -0.07,-75.92 l 0.082,-75.52 6.95758,-0.08623 6.95757,-0.08623 0.0824,19.861582 L 204,78.750696 236.4791,39.535348 268.9582,0.32 h 9.05978 c 6.3728,0 8.99682,0.10189872 8.84745,0.34357444 C 286.74864,0.85254039 268.02015,23.113624 245.24655,50.132648 L 203.84,99.258148 V 145.14907 191.04 h -6.89004 c -5.21766,0 -6.92693,-0.0971 -7.04201,-0.4 z"
         id="path5" />
      <path
         style="fill:#797979"
         d="m 307.90037,193.43611 c -9.51049,-1.44628 -19.1505,-5.50592 -26.72035,-11.25259 -2.60901,-1.98064 -7.82224,-7.05725 -10.12897,-9.86352 -2.74723,-3.34217 -5.2826,-7.39369 -7.36574,-11.77039 -9.34384,-19.63161 -6.99872,-42.58567 6.14251,-60.12311 2.56079,-3.41746 7.98122,-8.837895 11.39868,-11.398681 9.36944,-7.020754 19.9987,-10.912353 32.1335,-11.764763 l 3.12,-0.219164 v 7.512738 7.512738 l -3.89751,0.390314 c -13.52064,1.354015 -24.96011,8.202018 -32.31804,19.346548 -4.88858,7.40436 -7.10166,14.91436 -7.08238,24.03377 0.0248,11.71672 4.32025,21.98166 12.72938,30.41951 6.00404,6.02454 13.2342,9.979 21.60855,11.81858 3.7833,0.83107 11.71929,0.99912 15.72493,0.33299 17.81559,-2.96269 31.9834,-16.49565 35.62849,-34.032 0.40904,-1.96787 0.48658,-5.98175 0.48658,-25.18761 0,-21.486535 -0.037,-23.004593 -0.62081,-25.499078 C 355.91412,81.62244 349.58823,70.519012 340.17418,61.106448 331.90513,52.838691 323.24433,47.345939 313.21601,44.009337 306.80282,41.875556 301.48266,40.922164 293.36,40.451071 l -3.76,-0.21807 v -7.297615 c 0,-4.034316 0.13011,-7.378027 0.29096,-7.477438 0.44565,-0.275426 10.48516,0.397753 14.15716,0.949279 10.91642,1.639622 20.92508,5.240765 30.14529,10.846356 19.96996,12.141099 34.65592,33.201481 38.76458,55.590311 0.44159,2.406345 0.49432,6.090629 0.40754,28.479996 -0.1125,29.02621 0.0107,27.45033 -2.8052,35.87253 -2.35587,7.0462 -4.77982,10.92776 -11.12412,17.81347 -8.40825,9.12578 -19.15432,15.25641 -31.25397,17.83038 -3.2824,0.69827 -4.8711,0.83868 -10.58224,0.93528 -4.70659,0.0796 -7.61274,-0.0221 -9.69963,-0.33944 z M 0.32,95.68 V 0.32 h 7.04 7.04 v 88.32 88.32 h 35.52 35.520001 v 7.04 7.04 H 42.88 0.32 Z m 189.58795,94.96 c -0.0836,-0.22 -0.11506,-34.384 -0.07,-75.92 l 0.082,-75.52 6.96,-0.08624 6.96,-0.08624 V 115.03376 191.04 h -6.89004 c -5.21766,0 -6.92693,-0.0971 -7.04201,-0.4 z"
         id="path4" />
      <path
         style="fill:#3c3c3c"
         d="m 309.56868,193.57187 c -6.47603,-0.75586 -13.00368,-2.76469 -19.32208,-5.94618 -5.38176,-2.70987 -9.19549,-5.34625 -13.38787,-9.25484 -9.14114,-8.52235 -14.99653,-18.93387 -17.71031,-31.49085 -0.63885,-2.95603 -0.7275,-4.28335 -0.73729,-11.04 -0.01,-6.77199 0.0757,-8.1088 0.72367,-11.30681 4.0419,-19.95011 17.68252,-36.145475 36.59577,-43.44978 5.19685,-2.007027 11.95822,-3.408822 18.10943,-3.754522 l 2.64,-0.148369 V 84.670259 92.16 l -1.52,0.0019 c -0.836,0.001 -2.95468,0.218123 -4.70818,0.482412 -19.70752,2.97033 -34.68681,18.460862 -36.98957,38.252022 -2.3269,19.9986 10.14366,39.40988 29.47339,45.87735 4.70102,1.5729 8.60683,2.19498 13.74436,2.18907 11.79154,-0.0136 22.21839,-4.34597 30.57758,-12.70516 5.88557,-5.88558 9.75166,-12.77434 11.68318,-20.81758 0.57768,-2.40559 0.61461,-3.97862 0.61227,-26.08 -0.003,-26.023396 0.12334,-24.238896 -2.22206,-31.44781 C 353.86948,77.88758 347.52437,68.050959 339.08788,59.940602 329.04971,50.29048 317.91555,44.324387 305.19018,41.776968 301.02438,40.943042 295.30357,40.322887 291.76,40.321093 L 289.6,40.32 v -7.408779 -7.408778 l 5.36,0.197437 c 15.20591,0.560113 29.30715,5.021849 41.70258,13.195008 18.62516,12.280843 32.3587,32.677553 36.13929,53.673161 0.60025,3.333507 0.63802,4.960518 0.63625,27.407921 -0.002,25.38564 -0.0723,26.80852 -1.62073,32.82403 -1.55518,6.04156 -4.00025,11.6948 -6.59924,15.25803 -0.8577,1.17591 -3.00646,3.77214 -4.77503,5.76939 -9.7236,10.98091 -22.33454,17.7564 -36.50727,19.61429 -3.8757,0.50806 -10.60694,0.56904 -14.36717,0.13016 z M 0.32,95.68 V 0.32 h 6.88 6.88 v 88.32 88.32 h 35.68 35.680001 v 7.04 7.04 H 42.88 0.32 Z M 190.08,115.2 V 39.36 h 6.88 6.88 v 75.84 75.84 h -6.88 -6.88 z"
         id="path3" />
      <path
         style="fill:#000000"
         d="m 310.0973,193.57527 c -23.98737,-2.70518 -44.06269,-20.09546 -50.0262,-43.33527 -1.44952,-5.6488 -1.67139,-7.6308 -1.66569,-14.88 0.005,-5.88333 0.11165,-7.40847 0.73884,-10.52798 3.20229,-15.92758 12.1558,-29.223631 25.65575,-38.099051 8.1078,-5.330403 18.36007,-8.7079 27.92,-9.197939 l 3.76,-0.192736 v 7.360514 7.360513 l -3.12,0.192938 c -7.48923,0.463126 -14.67263,2.939833 -21.25429,7.328099 -3.58749,2.391922 -9.01313,7.723702 -11.38829,11.191262 -3.2238,4.70652 -5.76188,10.61767 -6.98346,16.26438 -0.77201,3.56864 -0.94172,10.98099 -0.34067,14.88 2.86594,18.59145 16.58879,32.79825 35.28703,36.53145 4.18615,0.83579 11.99897,0.75585 16.35446,-0.16733 5.71562,-1.21146 11.24892,-3.57457 16.07142,-6.8636 3.10242,-2.11591 8.99841,-8.0119 11.11432,-11.11432 3.29273,-4.82792 5.68974,-10.44248 6.81449,-15.96169 0.61021,-2.99438 0.64462,-4.35291 0.63807,-25.19478 -0.008,-24.739474 0.076,-23.688921 -2.50483,-31.397877 C 354.8904,80.947974 351.8406,75.166054 347.32038,69.081902 344.47489,65.251911 337.96519,58.473076 334.24,55.46075 322.66455,46.100395 309.17771,41.017002 294.32,40.414301 l -4.72,-0.191466 v -7.361549 -7.361548 l 5.04,0.210089 c 21.91695,0.913596 40.93375,9.387713 55.95898,24.935999 11.82823,12.24 19.84811,27.714963 22.34617,43.118633 0.40972,2.526447 0.49249,6.834641 0.49357,25.688151 7.9e-4,13.92438 -0.13044,23.84992 -0.34058,25.76 -0.976,8.87137 -4.28127,17.99495 -8.54518,23.58739 -10.3432,13.56591 -23.44009,21.7787 -38.79296,24.32628 -3.74431,0.62131 -12.02886,0.8588 -15.6627,0.44899 z M 0.32,95.52 V 0.32 h 6.88 6.88 v 88.48 88.48 h 35.68 35.680001 v 6.72 6.72 H 42.88 0.32 Z m 189.76,19.52 V 39.36 l 6.83655,0 6.83654,0 0.044,75.68 0.0439,75.68 h -6.8805 -6.88049 z"
         id="path2"
         inkscape:label="path2" />
    </g>
  </g>
</svg>
