<?xml version="1.0" encoding="UTF-8" standalone="no"?>
<!-- Created with Inkscape (http://www.inkscape.org/) -->

<svg
   version="1.1"
   id="svg1"
   width="2007"
   height="365"
   viewBox="0 0 2007 365"
   sodipodi:docname="metaeffekt.svg"
   inkscape:version="1.4.3 (0d15f75, 2025-12-25)"
   xmlns:inkscape="http://www.inkscape.org/namespaces/inkscape"
   xmlns:sodipodi="http://sodipodi.sourceforge.net/DTD/sodipodi-0.dtd"
   xmlns="http://www.w3.org/2000/svg"
   xmlns:svg="http://www.w3.org/2000/svg">
  <defs
     id="defs1" />
  <sodipodi:namedview
     id="namedview1"
     pagecolor="#ffffff"
     bordercolor="#000000"
     borderopacity="0.25"
     inkscape:showpageshadow="2"
     inkscape:pageopacity="0.0"
     inkscape:pagecheckerboard="0"
     inkscape:deskcolor="#d1d1d1"
     inkscape:zoom="0.2"
     inkscape:cx="1000"
     inkscape:cy="182.5"
     inkscape:current-layer="g1" />
  <g
     inkscape:groupmode="layer"
     inkscape:label="Image"
     id="g1">
    <g
       id="g2">
      <path
         style="fill:#cbcbcb"
         d="M 74.081368,356.41153 C 60.084079,352.64823 52.979911,343.21326 49.300238,323.5 48.193703,317.57191 47.603988,302.93904 47.023249,267 46.359636,225.93224 45.978267,217.58716 44.534577,212.54317 40.114903,197.10162 31.340068,187.96781 19.345685,186.32379 13.044912,185.46018 11,183.22243 11,177.19113 c 0,-6.63912 1.557836,-8.32371 9.12372,-9.86607 14.423014,-2.94023 22.460275,-13.70922 25.858542,-34.64743 C 46.533709,129.27994 46.992242,113.45 47.001225,97.5 47.017705,68.23953 48.175328,44.64205 49.991943,36.53595 52.825659,23.891343 59.808528,13.178977 67.912032,9.0448777 76.851359,4.4843736 98.016919,3.5264681 101.90472,7.5064455 105.07436,10.751234 105.13043,19.869569 102,23 c -1.64596,1.645961 -3.333333,2 -9.532119,2 -9.833165,0 -13.746481,1.665615 -16.473867,7.011733 -4.231537,8.294498 -5.06723,17.065056 -5.954126,62.488267 -0.918146,47.02369 -1.280774,50.15001 -7.215204,62.20455 -3.831312,7.7825 -11.188265,15.42398 -17.249865,17.917 -2.512027,1.03315 -4.567322,2.10345 -4.567322,2.37845 0,0.275 2.135813,1.37657 4.746251,2.44794 9.514312,3.90482 18.071728,15.91541 21.830853,30.64026 1.334293,5.22655 1.783618,15.09995 2.430701,53.4118 0.833111,49.32602 1.515381,57.55447 5.496052,66.28451 C 78.51994,336.38267 81.858066,338 92.467881,338 c 10.129949,0 12.402829,2.23468 11.696549,11.5 -0.33749,4.42743 -1.23499,6.21112 -3.68751,7.32856 -3.537473,1.61178 -19.805525,1.35476 -26.395552,-0.41703 z m 1833.154132,0.61268 c -3.0105,-1.29022 -4.5197,-5.51755 -3.9217,-10.98475 0.7102,-6.4916 3.0839,-8.03946 12.3291,-8.03946 11.4856,0 15.3713,-2.3655 18.2335,-11.09979 2.6208,-7.99817 3.2619,-17.27359 4.1054,-59.40021 0.9037,-45.13541 1.1476,-47.79804 5.6508,-61.69228 4.0803,-12.5889 14.1639,-25.71461 21.0906,-27.45309 2.4509,-0.61514 3.1428,-2.35463 0.9365,-2.35463 -2.84,0 -13.6792,-6.2582 -16.5991,-9.58375 -1.6854,-1.91954 -4.1606,-5.6535 -5.5005,-8.29768 -4.682,-9.23943 -5.4236,-17.19937 -5.927,-63.61857 -0.4911,-45.277835 -1.0872,-52.377044 -5.1461,-61.284513 C 1929.4535,26.558106 1926.1725,25 1915.1871,25 c -6.3405,0 -8.1977,-0.354184 -9.5202,-1.815617 -2.1382,-2.362683 -3.0714,-7.214664 -2.24,-11.646525 1.0608,-5.65467 4.5451,-6.8671539 18.2288,-6.3433812 10.4668,0.4006399 11.7891,0.6843379 18.032,3.8689328 10.7002,5.4582384 15.9763,14.0149694 19.3839,31.4365904 0.7242,3.702494 1.4486,24.380048 1.8919,54 0.6392,42.71962 0.9178,48.55004 2.5327,53 4.1911,11.54851 11.0165,17.2183 23.5038,19.52435 8.0396,1.48467 10,3.43165 10,9.93145 0,5.89022 -1.7651,7.67213 -8.9495,9.03462 -7.1866,1.36292 -11.3086,4.1272 -16.0707,10.77745 -4.8196,6.73052 -8.3751,17.43457 -9.8758,29.73213 -0.6041,4.95 -1.1,23.85 -1.102,42 -0.01,46.44385 -1.5666,60.21751 -8.2529,72.80139 -3.6038,6.7825 -7.1684,10.0585 -14.7491,13.55527 -4.6905,2.16357 -7.1926,2.58122 -17,2.83753 -6.325,0.1653 -12.519,-0.13619 -13.7645,-0.66998 z M 543.58475,295.96073 C 495.93105,288.46784 471.04088,254.18492 471.01102,196 c -0.0174,-33.98862 9.18095,-60.36898 27.40153,-78.58577 16.2361,-16.23273 34.64611,-23.387618 60.22698,-23.406676 39.36401,-0.02933 65.48248,19.995626 75.50977,57.893116 1.43769,5.43366 2.16718,12.222 2.55977,23.82026 l 0.54908,16.22092 -3.52908,3.52908 L 630.2,199 h -66.17196 -66.17195 l 0.54208,5.25 c 0.29815,2.8875 0.82806,8.4 1.17759,12.25 3.13657,34.54914 22.47114,54.58661 55.42424,57.43918 18.62308,1.6121 36.07707,-1.31553 56.65027,-9.50218 6.13264,-2.44035 12.06962,-4.437 13.19329,-4.437 1.12367,0 2.74355,1.00013 3.59974,2.22251 1.98567,2.83494 2.06568,12.89254 0.13232,16.63126 -2.5814,4.99188 -17.00257,10.74723 -38.11167,15.21001 -11.33615,2.39664 -37.07692,3.43823 -46.8792,1.89695 z M 610.66954,169.25 c -2.56986,-35.69565 -23.63789,-54.90586 -58.12728,-53.00151 -28.81972,1.59129 -48.83767,22.45908 -53.37567,55.6417 L 498.33102,178 h 56.48423 56.48424 z M 740,296.01108 C 716.91765,293.14511 703.92346,279.84936 700.09604,255.18104 699.38559,250.60206 699,225.40524 699,183.55845 V 119 h -15 c -18.51001,0 -19,-0.27918 -19,-10.82569 0,-5.84184 0.3336,-7.13908 2.31445,-8.999996 C 669.47385,97.145668 670.61276,97 684.31445,97 L 699,97 V 73.023053 49.046106 l 2.4822,-1.6264 c 3.11256,-2.039429 18.25979,-1.710758 20.86509,0.452739 1.45248,1.206172 1.65271,4.265226 1.65271,25.25 V 97 l 26.38922,0 C 782.33527,97 781.5,96.70986 781.5,107.80666 781.5,119.46356 782.77202,119 750.78512,119 l -26.90491,0 0.38139,64.25 c 0.34285,57.75866 0.55957,64.85183 2.14508,70.20683 4.63727,15.66219 10.85671,20.69124 25.59332,20.69482 5.71769,0.001 9.16349,-0.63297 14.5,-2.6694 10.30812,-3.9336 11.95762,-4.09469 13.87649,-1.35512 2.03623,2.90713 2.14496,11.6891 0.20229,16.33857 -0.79001,1.89076 -2.76616,4.09696 -4.44946,4.96743 -7.67038,3.9665 -24.19261,6.06004 -36.12932,4.57795 z m 117.5,-0.42377 c -31.28861,-6.11179 -48.27777,-27.65973 -46.18998,-58.58433 2.10445,-31.17118 26.84951,-51.23121 68.99307,-55.9305 C 885.59303,180.48262 898.93891,180 909.96059,180 H 930 l -0.0148,-13.75 c -0.0216,-20.04317 -2.8751,-30.19959 -10.84124,-38.5864 -7.15948,-7.53754 -19.19133,-11.62303 -34.30601,-11.64882 -16.11709,-0.0275 -29.03848,3.64964 -47.55298,13.53253 -15.07957,8.04936 -17.7462,7.33584 -17.63582,-4.71886 0.0485,-5.29494 0.5378,-7.6104 2.03881,-9.64774 4.13603,-5.61388 20.2777,-13.39892 37.23825,-17.959824 8.54362,-2.297486 11.51059,-2.581869 27.57377,-2.642942 14.193,-0.05396 19.37475,0.30284 24.5,1.687007 15.55033,4.199649 27.16152,12.620739 34.09347,24.726509 1.87359,3.27198 3.63153,5.94085 3.90653,5.93081 0.275,-0.01 2.28967,-2.51421 4.47705,-5.56482 7.57499,-10.56445 22.15466,-19.95801 38.10769,-24.552495 6.80862,-1.960888 10.22216,-2.279601 24.41526,-2.279601 14.2155,0 17.6014,0.317128 24.4549,2.290485 13.1772,3.794131 20.9206,8.433471 31.0825,18.622571 10.2956,10.3231 15.8235,20.02155 19.4144,34.06159 4.058,15.86624 5.3207,36.51873 2.627,42.9657 -2.8233,6.75698 -0.3516,6.5343 -72.5291,6.5343 H 956 v 4.77623 c 0,14.06823 3.36231,29.33697 8.99432,40.84451 6.60044,13.48626 19.44017,23.66087 34.50568,27.3434 20.7132,5.06301 47.727,2.03014 71.1844,-7.99195 5.1134,-2.1847 10.4105,-3.97219 11.7712,-3.97219 3.1101,0 4.5616,2.61262 5.1869,9.33581 0.93,10.0013 -3.344,14.13965 -20.2629,19.61949 -18.3563,5.94543 -28.0952,7.44777 -48.3796,7.46317 -15.8709,0.012 -19.77903,-0.30525 -27.5,-2.23268 -19.23738,-4.80234 -33.79619,-14.69398 -45.08436,-30.6315 -1.30527,-1.84288 -1.81508,-1.52166 -9.64687,6.07819 -12.91923,12.53662 -26.73884,20.8505 -41.26877,24.82729 -8.2571,2.25995 -29.04505,2.87677 -38,1.12754 z m 30.25357,-22.09132 c 13.2187,-3.11665 28.85369,-13.48191 40.94653,-27.14561 l 6.2001,-7.00549 -1.4134,-5.42244 c -1.6305,-6.25534 -3.46663,-21.18914 -3.4786,-28.29245 l -0.008,-4.87 -25.25,0.51428 c -21.15329,0.43084 -26.58957,0.85372 -33.5064,2.6064 -15.24783,3.8637 -24.87886,10.60433 -29.97313,20.97781 -2.43807,4.96464 -2.77047,6.78343 -2.77047,15.15906 0,8.74294 0.26819,10.06261 3.29514,16.21441 4.6578,9.46625 11.32279,14.56426 22.70486,17.36682 6.87578,1.693 15.8045,1.65353 23.25357,-0.10279 z M 1068.5443,170.25 c -1.6436,-18.44144 -6.4153,-30.33023 -15.9598,-39.76403 -9.8222,-9.70843 -22.3305,-14.45641 -38.0845,-14.45641 -16.15542,0 -28.59054,5.01459 -39.5371,15.94374 -9.90854,9.89279 -16.47309,24.25454 -18.4994,40.4725 L 955.76955,178 h 56.73275 56.7327 z m 370.0404,125.71073 C 1390.931,288.46784 1366.0409,254.18492 1366.011,196 c -0.017,-33.98862 9.181,-60.36898 27.4015,-78.58577 16.2362,-16.23273 34.6462,-23.387618 60.227,-23.406676 39.364,-0.02933 65.4825,19.995626 75.5098,57.893116 1.4377,5.43366 2.1672,12.222 2.5598,23.82026 l 0.549,16.22092 -3.529,3.52908 L 1525.2,199 h -66.172 -66.1719 l 0.5421,5.25 c 0.2981,2.8875 0.828,8.4 1.1776,12.25 3.1365,34.54914 22.4711,54.58661 55.4242,57.43918 18.6231,1.6121 36.0771,-1.31553 56.6503,-9.50218 6.1326,-2.44035 12.0696,-4.437 13.1933,-4.437 1.1236,0 2.7435,1.00013 3.5997,2.22251 1.9857,2.83494 2.0657,12.89254 0.1323,16.63126 -2.5814,4.99188 -17.0026,10.74723 -38.1116,15.21001 -11.3362,2.39664 -37.077,3.43823 -46.8793,1.89695 z M 1505.6695,169.25 c -2.5698,-35.69565 -23.6378,-54.90586 -58.1272,-53.00151 -28.8198,1.59129 -48.8377,22.45908 -53.3757,55.6417 L 1393.331,178 h 56.4843 56.4842 z M 1822,296.01108 c -23.0823,-2.86597 -36.0765,-16.16172 -39.904,-40.83004 -0.7104,-4.57898 -1.096,-29.7758 -1.096,-71.62259 V 119 h -15 c -18.51,0 -19,-0.27918 -19,-10.82569 0,-5.84184 0.3336,-7.13908 2.3145,-8.999996 2.1593,-2.028646 3.2983,-2.174314 17,-2.174314 L 1781,97 V 73.023053 49.046106 l 2.4822,-1.6264 c 3.1126,-2.039429 18.2598,-1.710758 20.8651,0.452739 1.4525,1.206172 1.6527,4.265226 1.6527,25.25 V 97 l 26.3892,0 c 31.9461,0 31.1108,-0.29014 31.1108,10.80666 0,11.6569 1.272,11.19334 -30.7149,11.19334 l -26.9049,0 0.3814,64.25 c 0.3428,57.75866 0.5596,64.85183 2.1451,70.20683 4.6373,15.66219 10.8567,20.69124 25.5933,20.69482 5.7177,0.001 9.1635,-0.63297 14.5,-2.6694 10.3081,-3.9336 11.9576,-4.09469 13.8765,-1.35512 2.0362,2.90713 2.1449,11.6891 0.2023,16.33857 -0.79,1.89076 -2.7662,4.09696 -4.4495,4.96743 -7.6704,3.9665 -24.1926,6.06004 -36.1293,4.57795 z M 156,294.27264 c -1.375,-0.25024 -3.2875,-1.15871 -4.25,-2.0188 C 150.10641,290.78511 150,284.869 150,194.95895 V 99.227883 l 3.62415,-1.719773 c 4.27768,-2.029893 16.13447,-1.783255 18.75319,0.390093 C 173.73307,99.023357 174,101.55195 174,113.26941 v 14.02452 l 9.25,-8.93626 c 18.26519,-17.64567 32.35142,-24.331626 51.25,-24.325525 23.61463,0.0076 42.48992,10.673915 52.17193,29.481995 l 3.76183,7.30766 9.06112,-8.6609 C 321.12469,101.48645 335.97895,94.025843 355.5,94.032145 c 30.0557,0.0097 50.58635,16.455385 58.66463,46.992175 2.20519,8.33586 2.24779,9.65009 2.58224,79.66723 l 0.34006,71.19156 -2.29346,1.30796 c -1.37994,0.78697 -5.54399,1.30254 -10.45405,1.29436 -13.52681,-0.0226 -12.16548,7.64582 -12.57568,-70.83852 -0.33974,-65.00297 -0.4193,-67.3913 -2.49191,-74.80102 -5.50968,-19.69757 -15.89515,-30.52612 -31.38026,-32.71909 -17.43375,-2.46892 -32.65709,6.00462 -53.63652,29.85488 L 296,155.36636 v 68.28164 68.28163 l -2.25,1.2847 c -1.33349,0.76139 -5.57412,1.27916 -10.41058,1.2711 -13.55389,-0.0226 -12.19309,7.64492 -12.57399,-70.84914 -0.31822,-65.57472 -0.37686,-67.31804 -2.52106,-74.95024 -6.13623,-21.8417 -18.58481,-32.82897 -37.24437,-32.87238 -15.21871,-0.0354 -28.90225,8.57618 -47.58721,29.94849 L 176,154.24109 v 66.81436 c 0,39.89553 -0.3837,67.82357 -0.95238,69.3193 -1.44768,3.80769 -9.96562,5.55079 -19.04762,3.89789 z m 1003.2105,-0.33815 c -2.0584,-0.63335 -3.649,-1.95761 -4.25,-3.53842 C 1154.374,288.85359 1154,254.98893 1154,203.4349 V 119 h -14.9769 c -14.4357,0 -15.0294,-0.0813 -16.4261,-2.25 -3.4717,-5.39055 -2.6527,-16.57947 1.3712,-18.732994 C 1125.0134,97.457653 1132.1981,97 1139.9343,97 H 1154 l 0.023,-10.25 c 0.032,-14.488534 1.6304,-33.311755 3.5593,-41.916345 6.2616,-27.932709 23.3385,-41.0884841 53.418,-41.1521821 18.5017,-0.03918 29.9717,3.9552765 31.9649,11.1318411 1.3914,5.009578 1.2731,11.163643 -0.2727,14.186686 -1.6566,3.239716 -4.8131,3.131921 -14.6922,-0.501741 -6.0558,-2.227392 -9.2363,-2.768217 -16.5166,-2.808583 C 1187.2084,25.555081 1180,38.270157 1180,81.223766 V 97 l 23.3892,0 c 28.5338,0 28.1108,-0.162603 28.1108,10.80666 0,11.53089 0.834,11.19334 -27.655,11.19334 L 1180,119 v 85.84501 c 0,98.87586 1.1773,88.94578 -10.6321,89.67661 -3.7773,0.23376 -8.3482,-0.0304 -10.1574,-0.58713 z m 119,0 c -2.0584,-0.63335 -3.649,-1.95761 -4.25,-3.53842 C 1273.374,288.85359 1273,254.98893 1273,203.4349 V 119 h -14.9769 c -14.4357,0 -15.0294,-0.0813 -16.4261,-2.25 -3.4717,-5.39055 -2.6527,-16.57947 1.3712,-18.732994 C 1244.0134,97.457653 1251.1981,97 1258.9343,97 H 1273 l 0.023,-10.25 c 0.032,-14.488534 1.6304,-33.311755 3.5593,-41.916345 6.2616,-27.932709 23.3385,-41.0884841 53.418,-41.1521821 18.5017,-0.03918 29.9717,3.9552765 31.9649,11.1318411 1.3914,5.009578 1.2731,11.163643 -0.2727,14.186686 -1.6566,3.239716 -4.8131,3.131921 -14.6922,-0.501741 -6.0558,-2.227392 -9.2363,-2.768217 -16.5166,-2.808583 C 1306.2084,25.555081 1299,38.270157 1299,81.223766 V 97 l 23.3892,0 c 28.5338,0 28.1108,-0.162603 28.1108,10.80666 0,11.53089 0.834,11.19334 -27.655,11.19334 L 1299,119 v 85.84501 c 0,98.87586 1.1773,88.94578 -10.6321,89.67661 -3.7773,0.23376 -8.3482,-0.0304 -10.1574,-0.58713 z M 1595,294.27264 c -1.375,-0.25024 -3.2875,-1.15871 -4.25,-2.0188 -1.651,-1.47538 -1.75,-9.55423 -1.75,-142.85212 V 8.1134079 l 2.2225,-1.5567039 c 1.6005,-1.1210546 4.609,-1.5478037 10.75,-1.5249006 14.038,0.052355 12.4468,-10.8370385 13.0275,89.1551746 l 0.5,86.101382 40.5,-40.99307 C 1700.9169,93.831494 1698.1224,96 1711.7936,96 c 10.8613,0 15.3899,3.551614 12.1788,9.55153 -0.7057,1.3186 -18.7742,18.89877 -40.1523,39.06705 -34.53,32.57595 -38.7138,36.84889 -37.4765,38.27552 2.2719,2.61941 78.8675,94.2513 82.4068,98.58374 3.699,4.52794 4.3324,9.36486 1.4611,11.15798 -2.9376,1.83458 -10.0014,2.61967 -16.9118,1.87963 -5.4311,-0.58162 -7.0906,-1.23784 -10.1464,-4.01221 -2.0093,-1.82428 -22.5533,-26.25019 -45.6533,-54.2798 l -42,-50.96292 -0.5,52.61974 c -0.275,28.94086 -0.8538,53.16558 -1.2861,53.83271 -1.6727,2.58091 -11.3353,3.90255 -18.7139,2.55967 z"
         id="path8" />
      <path
         style="fill:#b2b2b2"
         d="M 75.383506,356.63216 C 62.168457,353.31157 54.457581,344.72011 50.387396,328.78148 49.086201,323.68607 48.630074,313.15337 47.971734,273 47.08954,219.1934 46.717355,215.40401 41.145276,203.49675 36.408929,193.37541 26.769008,186 18.276407,186 14.251781,186 11,181.77482 11,176.54545 11,171.31419 13.506351,168 17.462487,168 c 8.707025,0 19.439927,-8.07719 23.918252,-18 5.121146,-11.34714 5.812851,-18.11232 6.645909,-65 0.840716,-47.318715 1.207963,-50.618485 6.873605,-61.760268 3.704426,-7.28495 8.02992,-11.411619 15.599747,-14.8826948 5.420895,-2.485702 7.123482,-2.756351 17.640177,-2.8041414 14.484273,-0.06582 15.868053,0.7509449 15.844513,9.3520922 -0.008,3.077256 -0.34592,6.090145 -0.75,6.695308 -1.54553,2.314643 -5.34808,3.39976 -11.918949,3.401258 -12.065769,0.0028 -15.704952,3.394198 -18.924523,17.636243 C 71.201489,47.900665 70.655071,59.638301 70.046726,93 c -0.880314,48.27647 -1.39498,52.36867 -8.189548,65.11658 -3.844848,7.21368 -12.244805,15.17369 -18.090504,17.14302 L 39.5,176.69698 l 5.201795,2.25392 c 10.101572,4.37697 18.414301,15.79164 22.499262,30.89499 1.898006,7.0175 2.134976,11.68795 2.849152,56.15411 0.798516,49.71734 1.407814,57.18368 5.277142,64.66613 2.952035,5.70861 5.065526,6.72798 15.139883,7.30222 C 102.39488,338.64823 104,339.83808 104,348 c 0,8.34195 -1.57091,9.44296 -13.852596,9.7089 -5.306072,0.1149 -11.949826,-0.36963 -14.763898,-1.07674 z M 1906.672,355.95667 c -1.4645,-1.15202 -2.8752,-3.52271 -3.2339,-5.43482 -0.7712,-4.11109 1.0283,-10.06127 3.3603,-11.1109 0.9359,-0.42125 5.8326,-1.03779 10.8816,-1.37008 9.8975,-0.65139 12.068,-1.71904 14.9926,-7.37474 3.7718,-7.29368 4.4691,-15.25772 5.3121,-60.66613 0.9299,-50.08552 1.6987,-56.48383 8.5111,-70.82871 4.6837,-9.86254 9.4412,-15.55426 16.1802,-19.35752 l 5.4529,-3.07745 -4.982,-1.68658 c -11.0876,-3.75354 -19.1414,-12.80471 -22.7343,-25.54974 -1.4223,-5.04511 -1.8134,-13.55956 -2.4573,-53.5 -0.5929,-36.773039 -1.1101,-49.004885 -2.2903,-54.163774 -3.1366,-13.710777 -6.65,-16.82659 -18.9807,-16.832488 -4.2987,-0.0021 -8.6502,-0.450283 -9.67,-0.996061 -4.4126,-2.361572 -4.9761,-12.92505 -0.8866,-16.6203889 1.8075,-1.6332278 3.6558,-1.8766219 13.7305,-1.8080543 9.5136,0.06475 12.6791,0.4840138 17.316,2.2935069 11.3143,4.4151993 18.3254,14.7822933 21.389,31.6272593 1.276,7.016311 1.7997,19.359264 2.3757,56 0.8158,51.88912 0.9853,53.31191 7.346,61.65127 3.965,5.19853 10.195,8.52681 18.7387,10.01087 4.0985,0.7119 7.1189,1.84725 8.2264,3.09219 3.5847,4.02975 1.3136,14.74567 -3.1252,14.74567 -4.2526,0 -12.5374,3.378 -16.0353,6.53809 -4.8967,4.42387 -9.596,13.31332 -12.2369,23.14796 -1.9146,7.12968 -2.1701,11.79842 -2.9182,53.31395 -0.8412,46.67968 -1.4739,54.97429 -5.01,65.68065 C 1950.2546,350.84768 1938.9791,358 1917.5856,358 c -6.8605,0 -8.7705,-0.35761 -10.9136,-2.04333 z M 545.90564,296.03785 c -29.53173,-3.77284 -50.83023,-18.1242 -62.85197,-42.35094 -6.38027,-12.85777 -9.69846,-25.84291 -11.20807,-43.86065 -2.2119,-26.39986 1.69387,-51.19367 11.07478,-70.30278 8.5823,-17.48229 19.89133,-28.91707 36.57962,-36.98635 11.66862,-5.642119 19.28539,-7.477231 34,-8.19164 36.74233,-1.783876 63.47846,13.95441 76.33445,44.93445 4.38811,10.57436 6.22054,20.40438 6.85857,36.79256 0.62844,16.14193 0.23758,17.77952 -5.00684,20.97727 -3.06877,1.87116 -5.59068,1.94289 -68.43618,1.94649 L 498,199 v 3.03941 c 0,13.46647 4.73175,34.92652 9.79833,44.43864 4.06779,7.63697 14.51695,17.63551 22.30212,21.34033 10.77099,5.12572 18.4973,6.5732 34.89955,6.53823 17.2848,-0.0369 29.26867,-2.5503 47.22537,-9.90486 12.26718,-5.0243 15.17137,-5.14011 16.89723,-0.67382 1.60649,4.15735 0.61532,13.74862 -1.6837,16.29268 -9.21581,10.19808 -55.59548,19.28094 -81.53326,15.96724 z M 611,171.95784 c 0,-15.6205 -6.39984,-32.52877 -15.89654,-41.99841 C 585.56361,120.44676 573.42579,116 557,116 c -16.90378,0 -28.70406,4.72909 -40.1083,16.07382 -9.71766,9.66695 -15.96665,23.77822 -18.23432,41.17618 L 498.03826,178 H 554.51913 611 Z m 249.10659,123.95108 c -28.81443,-4.43611 -46.21899,-21.99889 -48.67656,-49.11908 -2.18491,-24.11131 9.34123,-44.17644 31.71716,-55.21445 C 860.36677,183.08101 878.78092,180 912.32935,180 l 18.982,0 -0.6299,-14.25 C 929.7725,145.18708 926.53673,134.53673 918.86858,126.86858 910.66866,118.66866 899.74356,115.59913 881,116.22899 c -11.15488,0.37484 -13.6837,0.81947 -23.5,4.13184 -6.05,2.04149 -15.40298,6.17045 -20.78439,9.17548 -10.44598,5.83312 -14.01732,6.63698 -15.68043,3.52943 -1.53072,-2.86018 -1.26028,-13.72976 0.42257,-16.98405 3.02066,-5.84131 20.24791,-14.27603 38.54225,-18.870871 9.25171,-2.323676 12.4616,-2.635434 27,-2.622349 18.45131,0.01661 25.83792,1.322987 36.64578,6.48111 8.60605,4.10728 17.23693,12.30402 21.54119,20.45766 l 3.4706,6.57439 2.86964,-4.14089 c 5.45425,-7.87049 16.28186,-16.8277 25.92856,-21.44957 11.15453,-5.344299 19.62347,-7.459265 32.84253,-8.201842 26.5084,-1.489097 47.7229,6.195062 63.1723,22.881762 11.3595,12.26939 18.0725,28.72795 20.4637,50.1724 2.1371,19.16615 1.1049,26.2131 -4.3319,29.5732 -3.2834,2.02925 -4.4161,2.06331 -68.6232,2.06331 h -65.28478 l 0.64046,10.75 c 2.0766,34.85557 16.08287,55.0223 43.35117,62.41857 6.25615,1.69691 10.70475,2.12285 22.31395,2.13647 19.4295,0.0228 26.9101,-1.70045 56.1811,-12.94195 4.5355,-1.74184 4.7455,-1.73952 6.75,0.0746 1.723,1.55926 2.0689,3.06325 2.0689,8.99483 0,8.85847 -1.0797,10.51552 -9.4196,14.45589 -18.7027,8.8366 -50.9545,13.81331 -72.5804,11.19973 -21.47082,-2.59483 -35.85025,-8.88948 -48.08509,-21.04944 -4.17179,-4.14626 -8.51056,-8.87128 -9.64169,-10.50004 l -2.05661,-2.96138 -8.55899,8.1018 c -19.12877,18.10698 -36.40289,25.93151 -59.15762,26.79618 -6.05,0.2299 -13.87704,-0.0249 -17.39341,-0.5663 z m 28.43331,-22.45605 c 14.77937,-3.83644 29.68194,-14.2027 42.61987,-29.64648 l 3.93204,-4.69361 -1.53002,-5.80639 c -0.84151,-3.19351 -2.06758,-11.81221 -2.7246,-19.15266 l -1.19457,-13.34627 -25.57131,0.44092 c -22.06906,0.38053 -26.63926,0.73217 -33.36882,2.56751 -15.20957,4.14806 -25.31097,11.44518 -29.89009,21.59222 -3.22084,7.13719 -3.33072,22.89107 -0.20674,29.6427 5.91491,12.78347 18.11286,19.72613 34.93424,19.88338 3.87195,0.0362 9.72195,-0.6304 13,-1.48132 z M 1068.6595,169.75 C 1066.018,135.46346 1046.4062,116 1014.5,116 c -16.94346,0 -27.93591,4.43487 -39.60324,15.97782 -10.65838,10.54475 -16.49821,23.25961 -18.49667,40.27218 l -0.67545,5.75 h 56.78516 56.7853 z m 372.2461,126.28785 c -29.5317,-3.77284 -50.8302,-18.1242 -62.8519,-42.35094 -6.3803,-12.85777 -9.6985,-25.84291 -11.2081,-43.86065 -2.2119,-26.39986 1.6939,-51.19367 11.0748,-70.30278 8.5823,-17.48229 19.8913,-28.91707 36.5796,-36.98635 11.6686,-5.642119 19.2854,-7.477231 34,-8.19164 36.7423,-1.783876 63.4785,13.95441 76.3344,44.93445 4.3882,10.57436 6.2206,20.40438 6.8586,36.79256 0.6285,16.14193 0.2376,17.77952 -5.0068,20.97727 -3.0688,1.87116 -5.5907,1.94289 -68.4362,1.94649 L 1393,199 v 3.03941 c 0,13.46647 4.7318,34.92652 9.7983,44.43864 4.0678,7.63697 14.517,17.63551 22.3021,21.34033 10.771,5.12572 18.4974,6.5732 34.8996,6.53823 17.2848,-0.0369 29.2687,-2.5503 47.2254,-9.90486 12.2672,-5.0243 15.1713,-5.14011 16.8972,-0.67382 1.6065,4.15735 0.6153,13.74862 -1.6837,16.29268 -9.2158,10.19808 -55.5955,19.28094 -81.5333,15.96724 z M 1506,171.95784 c 0,-15.6205 -6.3998,-32.52877 -15.8965,-41.99841 C 1480.5636,120.44676 1468.4258,116 1452,116 c -16.9038,0 -28.7041,4.72909 -40.1083,16.07382 -9.7177,9.66695 -15.9666,23.77822 -18.2343,41.17618 l -0.6191,4.75 H 1449.5191 1506 Z M 734.17629,294.93 C 722.69585,292.67074 711.67395,284.49404 706.1574,274.14393 699.60577,261.85182 699.66408,262.58654 699.26198,187.25 L 698.8977,119 h -14.87627 -14.87627 l -2.07258,-2.63486 c -3.16181,-4.01959 -2.94581,-13.58282 0.38197,-16.910595 C 669.83561,97.073485 670.34456,97 684.45455,97 L 699,97 V 73.122445 c 0,-19.73349 0.25385,-24.088231 1.46264,-25.091441 1.83253,-1.52086 12.16182,-2.51164 16.90604,-1.621618 C 724.02249,47.657648 724,47.565691 724,73.525517 v 23.38266 l 27.08185,0.295911 c 25.38207,0.277339 27.17006,0.416654 28.48728,2.219645 3.28254,4.493097 2.94334,14.063797 -0.62491,17.632047 C 777.11624,118.88376 775.4128,119 750.45261,119 h -26.54739 l 0.32633,64.75 0.32632,64.75 2.37642,7.25149 c 4.00679,12.22651 10.24882,17.48678 22.31345,18.80392 5.38412,0.5878 13.88041,-1.24837 23.98179,-5.1828 4.52514,-1.76252 4.80604,-1.76561 6.5,-0.0717 2.23397,2.23397 2.47947,14.07148 0.37344,18.00664 -1.62819,3.04229 -7.40248,5.97436 -14.90219,7.56704 -6.05985,1.28689 -24.59834,1.31997 -31.02449,0.0554 z m 1082.00001,0 c -11.4805,-2.25926 -22.5023,-10.43596 -28.0189,-20.78607 -6.5516,-12.29211 -6.4933,-11.55739 -6.8954,-86.89393 L 1780.8977,119 h -14.8763 -14.8762 l -2.0726,-2.63486 c -3.1618,-4.01959 -2.9458,-13.58282 0.3819,-16.910595 2.3811,-2.38106 2.8901,-2.454545 17,-2.454545 L 1781,97 V 73.122445 c 0,-19.73349 0.2538,-24.088231 1.4626,-25.091441 1.8326,-1.52086 12.1619,-2.51164 16.9061,-1.621618 6.6538,1.248262 6.6313,1.156305 6.6313,27.116131 v 23.38266 l 27.0819,0.295911 c 25.382,0.277339 27.17,0.416654 28.4872,2.219645 3.2826,4.493097 2.9434,14.063797 -0.6249,17.632047 -1.828,1.82798 -3.5314,1.94422 -28.4916,1.94422 h -26.5474 l 0.3263,64.75 0.3264,64.75 2.3764,7.25149 c 4.0068,12.22651 10.2488,17.48678 22.3134,18.80392 5.3842,0.5878 13.8805,-1.24837 23.9818,-5.1828 4.5252,-1.76252 4.8061,-1.76561 6.5,-0.0717 2.234,2.23397 2.4795,14.07148 0.3735,18.00664 -1.6282,3.04229 -7.4025,5.97436 -14.9022,7.56704 -6.0599,1.28689 -24.5984,1.31997 -31.0245,0.0554 z M 152,292 c -1.97188,-1.97188 -2,-3.33333 -2,-96.84501 v -94.84501 l 2.10499,-1.904992 c 1.68701,-1.526726 3.62301,-1.902362 9.75,-1.891762 C 174.08604,96.534386 174,96.416329 174,113.17775 v 14.10739 l 8.75179,-8.43676 c 13.73987,-13.24527 23.96655,-19.579382 36.9891,-22.909989 13.71505,-3.507719 30.45662,-1.823321 43.25911,4.352369 9.04441,4.36287 19.52129,14.92833 24.26699,24.47217 l 3.61151,7.26292 2.7575,-3.61527 c 4.15315,-5.44506 19.90959,-18.92508 28.19318,-24.11995 10.36064,-6.497455 18.83092,-9.351516 29.67082,-9.99758 25.49666,-1.519615 46.09289,9.70559 56.34172,30.70695 8.70833,17.84464 9.11498,22.29878 9.13847,100.09501 0.0188,62.29149 -0.0723,65.67836 -1.80893,67.25 -1.40188,1.26868 -3.82693,1.65499 -10.38922,1.65499 -14.14642,0 -12.67824,7.97395 -13.07267,-71 -0.37038,-74.1594 -0.28352,-73.03585 -6.68211,-86.44287 -7.38692,-15.47791 -23.53954,-23.90649 -39.52087,-20.62234 -12.6823,2.60619 -26.5987,12.86326 -43.05906,31.73663 L 296,155.0639 v 67.81306 c 0,64.4262 -0.0913,67.89572 -1.82874,69.46805 -1.40571,1.27215 -3.83463,1.65499 -10.5,1.65499 -14.02617,0 -12.66895,7.30272 -12.6844,-68.25 -0.0121,-59.05792 -0.16575,-64.9895 -1.90167,-73.40101 -2.40075,-11.63298 -6.66611,-20.56492 -12.70204,-26.59893 -11.87383,-11.87005 -28.09999,-13.71065 -44.59985,-5.05914 -7.45264,3.9077 -20.55536,15.61263 -30.46127,27.21168 L 175,155.3052 v 67.98716 c 0,63.57693 -0.11352,68.07333 -1.75,69.31559 -1.13721,0.86327 -4.81394,1.33958 -10.5,1.36025 -7.44262,0.027 -9.04883,-0.26703 -10.75,-1.9682 z m 1004.75,0.60795 c -1.6428,-1.24709 -1.75,-6.60307 -1.75,-87.46819 V 119 h -15 c -18.5406,0 -19,-0.26422 -19,-10.92742 0,-6.29273 0.2414,-7.11731 2.6349,-9 2.3878,-1.878308 3.9813,-2.07258 17,-2.07258 H 1155 l 0.01,-17.75 c 0.01,-20.91225 1.7397,-34.118588 5.8733,-44.764019 5.4032,-13.914901 14.1511,-22.670127 27.6208,-27.6440373 5.2604,-1.9424731 8.034,-2.2233814 22.5,-2.2787687 15.434,-0.059094 16.8817,0.098342 22.4085,2.436825 8.1083,3.430746 9.9647,6.198511 10.0354,14.961812 0.043,5.31926 -0.3522,7.37397 -1.6713,8.693566 -1.6368,1.637316 -2.2289,1.558362 -11.2826,-1.504359 -22.4173,-7.583351 -37.7237,-4.178199 -44.8003,9.966486 -4.131,8.257042 -5.6147,18.655701 -5.6548,39.632495 L 1180,97 l 22.4349,0 c 12.3392,0 23.5665,0.430245 24.9496,0.9561 4.8703,1.851658 5.8888,14.77064 1.5097,19.14967 C 1227.1427,118.85727 1225.2293,119 1203.5,119 H 1180 v 85.5 c 0,100.05867 1.5019,89.52 -12.75,89.4682 -5.6861,-0.0207 -9.3628,-0.49698 -10.5,-1.36025 z m 119,0 c -1.6428,-1.24709 -1.75,-6.60307 -1.75,-87.46819 V 119 h -15 c -18.5406,0 -19,-0.26422 -19,-10.92742 0,-6.29273 0.2414,-7.11731 2.6349,-9 2.3878,-1.878308 3.9813,-2.07258 17,-2.07258 H 1274 l 0.01,-17.75 c 0.01,-20.91225 1.7397,-34.118588 5.8733,-44.764019 5.4032,-13.914901 14.1511,-22.670127 27.6208,-27.6440373 5.2604,-1.9424731 8.034,-2.2233814 22.5,-2.2787687 15.434,-0.059094 16.8817,0.098342 22.4085,2.436825 8.1083,3.430746 9.9647,6.198511 10.0354,14.961812 0.043,5.31926 -0.3522,7.37397 -1.6713,8.693566 -1.6368,1.637316 -2.2289,1.558362 -11.2826,-1.504359 -22.4173,-7.583351 -37.7237,-4.178199 -44.8003,9.966486 -4.131,8.257042 -5.6147,18.655701 -5.6548,39.632495 L 1299,97 l 22.4349,0 c 12.3392,0 23.5665,0.430245 24.9496,0.9561 4.8703,1.851658 5.8888,14.77064 1.5097,19.14967 C 1346.1427,118.85727 1344.2293,119 1322.5,119 H 1299 v 85.5 c 0,100.05867 1.5019,89.52 -12.75,89.4682 -5.6861,-0.0207 -9.3628,-0.49698 -10.5,-1.36025 z M 1591,292 c -1.981,-1.98102 -2,-3.33333 -2,-142.5 0,-163.118602 -1.5819,-144.5 12.2775,-144.5 5.8733,0 8.923,0.4521417 10.5,1.556704 L 1614,8.1134079 V 94.790659 181.46791 l 41.75,-41.67095 c 29.3375,-29.28193 42.6419,-41.904692 44.75,-42.457148 3.8749,-1.015474 17.2009,-1.063408 20.7348,-0.07458 3.962,1.108646 4.6504,4.95018 1.637,9.13569 -1.3045,1.81187 -19.3593,19.35591 -40.1218,38.98677 -20.7625,19.63085 -37.75,35.81834 -37.75,35.9722 0,0.15387 19.5727,23.64833 43.4949,52.20993 46.2742,55.24836 46.4277,55.4691 41.0402,58.99916 -3.8049,2.49306 -22.4581,1.713 -25.5618,-1.06898 -1.2272,-1.1 -21.8607,-25.7905 -45.8523,-54.86778 l -43.621,-52.86778 -0.2588,53.76394 c -0.2394,49.74866 -0.3888,53.86268 -2,55.08598 -1.1272,0.85589 -4.8264,1.33325 -10.4912,1.35384 -7.4426,0.027 -9.0488,-0.26703 -10.75,-1.9682 z"
         id="path7" />
      <path
         style="fill:#8f8f8f"
         d="M 77.2697,356.99049 C 62.783227,353.97878 53.861636,343.90514 49.835621,326.01384 49.276967,323.53123 48.448059,299.225 47.993603,272 c -0.891137,-53.38517 -1.272762,-57.37246 -6.56101,-68.5509 -4.685189,-9.90368 -14.213117,-17.37372 -22.228048,-17.42714 -2.144588,-0.0143 -4.152651,-0.87916 -5.75,-2.47651 C 8.1865903,178.2775 11.717185,168 18.794823,168 c 4.32358,0 14.642468,-5.57347 17.671564,-9.54482 1.461664,-1.91634 3.768244,-5.91028 5.125734,-8.87543 C 46.4512,138.96612 47.173113,131.72372 47.97951,85.5 48.658991,46.551283 48.92503,41.777451 50.803225,34.830925 54.432022,21.409782 59.141166,14.418099 67.68344,9.7688103 77.473293,4.4405045 98.459417,3.4090046 102.25,8.0698113 c 2.76466,3.3993577 2.37547,11.3956247 -0.70455,14.4756437 -2.18539,2.185394 -3.309345,2.454955 -10.249995,2.458283 -12.314256,0.0059 -15.850779,3.148779 -18.940782,16.832488 C 71.228853,46.821789 70.637058,59.455082 70.004797,92 c -0.464798,23.925 -1.297258,45.525 -1.849909,48 -3.927481,17.58887 -11.768364,29.42027 -22.607269,34.11295 -3.032417,1.31288 -5.521166,2.65332 -5.530553,2.97876 -0.0094,0.32544 1.758387,1.12365 3.928386,1.7738 6.129884,1.83656 14.443124,10.11311 18.558335,18.47644 6.294567,12.79243 6.636454,15.93576 7.522033,69.15805 0.818276,49.17746 1.439643,56.69807 5.301531,64.16613 2.96683,5.73722 5.04661,6.72778 15.331702,7.30222 8.455987,0.47228 9.732437,0.79529 11.429987,2.89243 2.60043,3.21256 2.60067,11.0654 4.3e-4,14.27844 -1.73745,2.1469 -2.756662,2.37754 -11.250005,2.54576 -5.136706,0.10174 -11.2431,-0.21078 -13.569765,-0.69449 z m 1831.1956,0.12688 c -3.511,-1.54201 -4.8499,-4.09058 -4.8499,-9.23146 0,-7.74751 2.1313,-9.25562 14.0305,-9.928 9.2274,-0.52141 9.7019,-0.66361 12.4391,-3.72705 6.1955,-6.9339 7.8526,-20.5912 7.8892,-65.02027 0.014,-17.20918 0.5068,-35.60347 1.0948,-40.87621 2.6622,-23.87475 12.0361,-42.94469 23.8301,-48.4792 4.8628,-2.2819 6.42,-3.84487 3.8509,-3.86495 -2.7732,-0.0217 -12.4847,-5.33375 -16.0864,-8.79907 -2.11,-2.03014 -4.9902,-5.94116 -6.4005,-8.69116 -5.32,-10.37385 -5.4542,-11.70695 -6.291,-62.5 -0.8022,-48.686944 -1.4255,-56.174728 -5.2995,-63.666134 -2.967,-5.737708 -5.1483,-6.808602 -14.5269,-7.131929 -4.7551,-0.163934 -9.6463,-0.796103 -10.8692,-1.40482 -4.6251,-2.302104 -5.2989,-12.656913 -1.0725,-16.4817482 2.7744,-2.5107919 20.7603,-2.5391008 28.9321,-0.045538 6.4909,1.9806474 14.908,8.901949 17.7766,14.617604 6.2665,12.485629 7.1879,21.125707 8.0109,75.112565 0.6892,45.2145 0.772,46.66122 2.9951,52.33196 4.1711,10.63968 10.2274,15.48653 22.1352,17.71494 3.5454,0.66347 7.0154,1.3628 7.7111,1.55408 1.6599,0.45633 3.235,4.71255 3.235,8.74161 0,4.93938 -2.2518,7.31812 -7.701,8.13528 -12.5307,1.87909 -20.5822,11.15413 -25.494,29.36802 -1.8752,6.95396 -2.136,11.81618 -2.8512,53.15411 -0.8342,48.22651 -1.5803,56.55541 -6.1457,68.61109 -2.9393,7.7619 -11.2806,16.32462 -18.3081,18.79419 -5.6263,1.97718 -24.7693,3.14624 -28.0347,1.71209 z M 546.24687,295.9676 c -34.95843,-4.40751 -57.97262,-23.02015 -68.58465,-55.4676 -4.54523,-13.89752 -6.04729,-25.16878 -5.99689,-45 0.0358,-14.09932 0.49043,-20.16704 2.0978,-28 7.82348,-38.12496 28.17559,-61.70521 61.0384,-70.719991 6.25025,-1.714539 10.6143,-2.119652 23.19847,-2.153501 18.11243,-0.04872 24.84616,1.305809 38,7.643922 6.95202,3.3498 10.15761,5.74692 17.60199,13.16263 7.41394,7.38538 9.87409,10.64335 13.26511,17.56694 6.17449,12.6067 9.16845,25.57417 9.81249,42.5 0.60264,15.83781 -0.007,18.5097 -4.90466,21.4958 -3.18478,1.94176 -5.07427,1.99683 -68.64385,2.00046 l -65.36892,0.004 0.72106,9.61762 c 2.6708,35.62345 15.81318,55.5548 41.54651,63.00823 20.88046,6.04784 46.03397,3.55197 72.61357,-7.20513 6.98412,-2.82656 12.05141,-4.335 13.26673,-3.94927 4.27366,1.3564 5.30464,13.49959 1.62318,19.11822 -3.08073,4.70178 -20.93679,11.27244 -40.40561,14.86843 -10.51177,1.94158 -31.35061,2.71104 -40.88073,1.5095 z M 610.98264,171.25 c -0.0406,-15.79982 -6.03486,-31.46222 -15.76479,-41.19215 C 584.52682,119.36682 573.12457,115.54437 554,116.24015 c -13.09881,0.47655 -18.13767,1.92117 -27.64523,7.92573 -15.12138,9.55002 -24.76778,26.56276 -27.83121,49.08412 L 497.87745,178 H 554.43873 611 Z m 249.87103,124.70778 c -14.07776,-1.96135 -27.29933,-8.43051 -35.95098,-17.5904 -5.70585,-6.04105 -8.10671,-10.05727 -10.97985,-18.36738 -3.20581,-9.27228 -3.27963,-25.60341 -0.16101,-35.62004 5.4712,-17.5728 19.29096,-30.30053 40.67384,-37.4598 13.98111,-4.68106 24.87628,-6.07629 51.96179,-6.65424 l 24.89747,-0.53125 -0.62356,-14.11734 c -1.16095,-26.28396 -6.2404,-37.74793 -19.70696,-44.47725 -8.7662,-4.38052 -15.44148,-5.45725 -30.46099,-4.91341 -11.24543,0.40719 -14.28777,0.9047 -22.50342,3.67995 -5.225,1.765 -14.5282,5.88306 -20.67377,9.15124 C 831.18066,132.32604 825.5129,135 824.73122,135 821.59614,135 820,131.51642 820,124.67414 c 0,-6.18193 0.24857,-6.94351 3.40749,-10.44007 3.69157,-4.08612 14.96438,-10.11921 25.78334,-13.79898 13.38101,-4.55117 22.35781,-5.907208 38.80917,-5.862523 16.96418,0.04608 25.46144,1.70404 36.87894,7.195723 7.11102,3.42031 16.71739,12.95435 20.75811,20.60181 l 3.10161,5.8701 3.09573,-4.49949 c 8.18365,-11.89454 23.94505,-22.31503 40.66561,-26.885672 11.4492,-3.129681 35.4621,-3.156605 46.7867,-0.05246 26.3341,7.21831 44.592,26.30602 51.6667,54.01505 2.5812,10.10948 4.434,27.75749 3.7357,35.58187 -0.436,4.88454 -1.0599,6.43291 -3.6267,9 l -3.1001,3.1005 -65.9811,0.27096 -65.9812,0.27096 0.004,6.72904 c 0.002,3.70097 0.67467,10.86406 1.49435,15.91798 3.66405,22.59152 12.95912,37.13865 29.11491,45.56595 10.70624,5.58466 18.31482,7.09194 35.88672,7.10928 12.9105,0.0127 16.4867,-0.35456 25.6727,-2.63676 5.87,-1.45837 14.645,-4.27577 19.5,-6.26091 15.1649,-6.20068 15.2932,-6.22686 17.4514,-3.56158 2.2067,2.72517 2.6003,12.41108 0.676,16.63456 -3.1976,7.01783 -33.6569,16.27399 -59.3001,18.02047 -11.6975,0.79667 -28.11139,-0.74043 -38.09066,-3.56705 -15.84487,-4.48804 -30.78442,-14.56227 -39.79199,-26.83304 l -3.50567,-4.77568 -7.95321,7.70095 c -13.04591,12.63213 -27.67316,21.33722 -42.02282,25.00897 -8.99667,2.30205 -24.92166,3.16778 -34.28198,1.86368 z m 28.43059,-22.53144 c 12.66225,-3.28112 24.10327,-10.81828 37.01143,-24.38255 4.78737,-5.0307 8.70431,-9.55162 8.70431,-10.04647 0,-0.49486 -0.66244,-3.44301 -1.47208,-6.55144 -0.80965,-3.10844 -2.00658,-11.50287 -2.65986,-18.65429 l -1.18777,-13.00258 -26.09014,0.4894 c -28.50082,0.53462 -33.7833,1.32533 -45.17489,6.76203 -7.64154,3.64697 -14.19061,9.82577 -17.46269,16.47538 C 838.82132,228.84701 838.5,230.87563 838.5,240 c 0,8.83931 0.36367,11.2908 2.29935,15.5 4.09517,8.90506 13.03357,16.07801 22.94657,18.41433 6.13153,1.44509 19.02944,1.19864 25.53834,-0.48799 z M 1068.9869,172.75 c -0.038,-15.15601 -6.967,-33.63487 -15.9988,-42.6667 -10.1183,-10.11822 -23.1739,-14.5211 -40.9881,-13.82281 -14.07133,0.55158 -19.52238,2.19445 -29.56248,8.90967 -14.37232,9.61279 -23.94069,26.86829 -26.10633,47.07984 l -0.6161,5.75 H 1012.3575 1069 Z m 372.26,123.2176 c -34.9585,-4.40751 -57.9726,-23.02015 -68.5847,-55.4676 -4.5452,-13.89752 -6.0473,-25.16878 -5.9969,-45 0.036,-14.09932 0.4905,-20.16704 2.0978,-28 7.8235,-38.12496 28.1756,-61.70521 61.0384,-70.719991 6.2503,-1.714539 10.6143,-2.119652 23.1985,-2.153501 18.1124,-0.04872 24.8462,1.305809 38,7.643922 6.952,3.3498 10.1576,5.74692 17.602,13.16263 7.4139,7.38538 9.8741,10.64335 13.2651,17.56694 6.1745,12.6067 9.1684,25.57417 9.8125,42.5 0.6026,15.83781 -0.01,18.5097 -4.9047,21.4958 -3.1848,1.94176 -5.0742,1.99683 -68.6438,2.00046 l -65.3689,0.004 0.721,9.61762 c 2.6708,35.62345 15.8132,55.5548 41.5465,63.00823 20.8805,6.04784 46.034,3.55197 72.6136,-7.20513 6.9841,-2.82656 12.0514,-4.335 13.2667,-3.94927 4.2737,1.3564 5.3047,13.49959 1.6232,19.11822 -3.0807,4.70178 -20.9368,11.27244 -40.4056,14.86843 -10.5118,1.94158 -31.3506,2.71104 -40.8807,1.5095 z M 1505.9826,171.25 c -0.041,-15.79982 -6.0348,-31.46222 -15.7647,-41.19215 -10.6911,-10.69103 -22.0933,-14.51348 -41.2179,-13.8177 -13.0988,0.47655 -18.1377,1.92117 -27.6452,7.92573 -15.1214,9.55002 -24.7678,26.56276 -27.8312,49.08412 l -0.6461,4.75 H 1449.4387 1506 Z M 732,294.2476 c -8.25226,-2.23557 -14.50784,-5.90513 -19.73648,-11.57754 -5.15406,-5.5915 -7.79263,-10.72112 -10.54528,-20.50098 -2.09818,-7.4546 -2.16764,-9.56382 -2.48394,-75.41908 L 698.9089,119 h -14.49991 c -14.06162,0 -14.57409,-0.0742 -16.95444,-2.45455 C 665.39994,114.49085 665,113.12391 665,108.15624 c 0,-4.34983 0.50989,-6.56512 1.90937,-8.295456 1.8302,-2.262901 2.53506,-2.374137 17,-2.682829 L 699,96.85591 V 72.876928 48.897947 l 3.70961,-1.549976 c 5.1089,-2.134632 16.36103,-1.499005 19.21694,1.085555 C 723.91169,50.230052 724,51.304297 724,73.654988 V 97 l 25.86514,0 c 24.53378,0 25.99885,0.105177 28.46282,2.043331 4.45009,3.500439 4.80334,13.825369 0.61626,18.012449 C 777.11641,118.88359 775.41325,119 750.5,119 H 724 l 0.0349,61.25 c 0.0368,64.59135 0.4262,71.27531 4.71121,80.86393 4.26322,9.5399 10.90258,13.33593 23.2539,13.29535 7.21381,-0.0237 9.75511,-0.52433 16.79459,-3.30849 4.56202,-1.8043 8.95627,-3.02664 9.765,-2.7163 3.96315,1.52081 4.46973,14.40181 0.76323,19.40698 -1.11426,1.50467 -4.63192,3.77953 -7.91429,5.11815 -8.09252,3.30029 -29.48406,4.02657 -39.40853,1.33798 z m 1082,0 c -8.2523,-2.23557 -14.5078,-5.90513 -19.7365,-11.57754 -5.154,-5.5915 -7.7926,-10.72112 -10.5453,-20.50098 -2.0981,-7.4546 -2.1676,-9.56382 -2.4839,-75.41908 L 1780.9089,119 h -14.4999 c -14.0616,0 -14.5741,-0.0742 -16.9545,-2.45455 -2.0546,-2.0546 -2.4545,-3.42154 -2.4545,-8.38921 0,-4.34983 0.5099,-6.56512 1.9094,-8.295456 1.8302,-2.262901 2.535,-2.374137 17,-2.682829 L 1781,96.85591 V 72.876928 48.897947 l 3.7096,-1.549976 c 5.1089,-2.134632 16.361,-1.499005 19.2169,1.085555 1.9852,1.796526 2.0735,2.870771 2.0735,25.221462 V 97 l 25.8651,0 c 24.5338,0 25.9989,0.105177 28.4629,2.043331 4.45,3.500439 4.8033,13.825369 0.6162,18.012449 C 1859.1164,118.88359 1857.4133,119 1832.5,119 H 1806 l 0.035,61.25 c 0.037,64.59135 0.4262,71.27531 4.7112,80.86393 4.2632,9.5399 10.9026,13.33593 23.2539,13.29535 7.2138,-0.0237 9.7551,-0.52433 16.7946,-3.30849 4.562,-1.8043 8.9563,-3.02664 9.765,-2.7163 3.9631,1.52081 4.4697,14.40181 0.7632,19.40698 -1.1142,1.50467 -4.6319,3.77953 -7.9143,5.11815 -8.0925,3.30029 -29.484,4.02657 -39.4085,1.33798 z M 152,292 c -1.97175,-1.97175 -2,-3.33333 -2,-96.38922 C 150,85.428331 148.67447,96.575191 161.78241,96.52851 173.74697,96.4859 174,96.842534 174,113.74895 v 13.43898 l 9.16252,-8.62521 c 19.87217,-18.706824 35.81936,-25.649427 55.66083,-24.231917 22.0856,1.577834 39.35333,12.442707 48.25721,30.363477 l 3.57446,7.19428 8.42249,-8.5019 c 15.51436,-15.66061 29.55075,-24.675753 43.57517,-27.986989 8.15759,-1.926046 22.79384,-1.386179 31.34732,1.156263 18.41369,5.473296 32.74009,20.176906 38.43216,39.444066 4.23668,14.34079 4.55962,20.65223 4.56382,89.1933 l 0.004,65.69329 -2.22251,1.55671 c -3.09586,2.16842 -17.45912,2.16842 -20.55498,0 L 392,290.88659 l -0.008,-63.69329 c -0.005,-38.07091 -0.4155,-66.3081 -1.02163,-70.1933 -3.63336,-23.28918 -13.25561,-36.32507 -29.95546,-40.58263 -18.02221,-4.59469 -33.27423,3.20556 -56.75225,29.02448 l -8.23688,9.05815 -0.0131,68.1933 -0.0131,68.19329 -2.22251,1.55671 c -2.967,2.07817 -17.5464,2.17709 -20.33636,0.13798 -1.87975,-1.37386 -1.95694,-3.56345 -2.44113,-69.25 -0.49791,-67.54735 -0.50988,-67.86581 -2.8595,-76.08111 -6.00863,-21.0087 -18.54229,-31.70964 -37.1405,-31.70964 -9.49425,0 -15.83408,2.15371 -24.66957,8.38052 -6.67272,4.7026 -20.63423,18.24201 -27.76293,26.92356 L 175,155.18923 v 67.84868 67.84868 l -2.22251,1.55671 c -1.57698,1.10456 -4.62668,1.5567 -10.5,1.5567 -6.94416,0 -8.59965,-0.32216 -10.27749,-2 z M 1157.2225,292.4433 1155,290.88659 V 204.9433 119 l -14.9274,0 -14.9274,0 -2.0726,-2.63486 c -3.1618,-4.01959 -2.9458,-13.58282 0.3819,-16.910595 C 1125.8337,97.075346 1126.3519,97 1140.3352,97 l 14.4261,0 0.5129,-22.25 c 0.5812,-25.213252 2.0718,-33.529761 8.1854,-45.669735 9.0981,-18.066453 24.7969,-25.7699994 50.5404,-24.80065 13.5231,0.5092024 21.2801,2.3330221 25.5368,6.004261 3.1158,2.687215 4.793,9.334243 3.8842,15.394042 -0.9525,6.351755 -3.0126,7.098594 -10.8863,3.946537 -12.3867,-4.958764 -26.4174,-5.788933 -35.2786,-2.087377 -7.1422,2.983459 -11.9364,9.359321 -15.0108,19.962922 -0.9813,3.384309 -1.6169,12.189824 -1.9669,27.25 L 1179.7613,97 h 22.9845 c 21.4855,0 23.1506,0.130697 25.5321,2.003967 4.5914,3.611623 4.4246,16.479353 -0.2461,18.979023 C 1226.9013,118.58802 1216.7877,119 1203.0657,119 H 1180 v 85.5 c 0,99.84263 1.4188,89.5 -12.2775,89.5 -5.8733,0 -8.923,-0.45214 -10.5,-1.5567 z m 119,0 L 1274,290.88659 V 204.9433 119 l -14.9274,0 -14.9274,0 -2.0726,-2.63486 c -3.1618,-4.01959 -2.9458,-13.58282 0.3819,-16.910595 C 1244.8337,97.075346 1245.3519,97 1259.3352,97 l 14.4261,0 0.5129,-22.25 c 0.5812,-25.213252 2.0718,-33.529761 8.1854,-45.669735 9.0981,-18.066453 24.7969,-25.7699994 50.5404,-24.80065 13.5231,0.5092024 21.2801,2.3330221 25.5368,6.004261 3.1158,2.687215 4.793,9.334243 3.8842,15.394042 -0.9525,6.351755 -3.0126,7.098594 -10.8863,3.946537 -12.3867,-4.958764 -26.4174,-5.788933 -35.2786,-2.087377 -7.1422,2.983459 -11.9364,9.359321 -15.0108,19.962922 -0.9813,3.384309 -1.6169,12.189824 -1.9669,27.25 L 1298.7613,97 h 22.9845 c 21.4855,0 23.1506,0.130697 25.5321,2.003967 4.5914,3.611623 4.4246,16.479353 -0.2461,18.979023 C 1345.9013,118.58802 1335.7877,119 1322.0657,119 H 1299 v 85.5 c 0,99.84263 1.4188,89.5 -12.2775,89.5 -5.8733,0 -8.923,-0.45214 -10.5,-1.5567 z M 1591,292 c -1.9811,-1.98113 -1.9999,-3.32298 -1.9847,-142.25 0.01,-77.1375 0.3459,-140.7451332 0.75,-141.350296 C 1591.3374,6.0452136 1595.164,5 1602.2118,5 c 5.0277,0 8.044,0.4908666 9.5657,1.556704 L 1614,8.1134079 V 94.556704 C 1614,142.10052 1614.2221,181 1614.4936,181 c 0.2715,0 18.7637,-18.42902 41.0938,-40.95338 30.0657,-30.32734 41.5487,-41.288619 44.2563,-42.245405 2.011,-0.710613 7.6351,-1.292147 12.4982,-1.292298 8.0813,-2.51e-4 9.0059,0.202406 10.75,2.356188 2.441,3.014545 2.4004,4.239365 -0.2524,7.611865 -1.1883,1.51067 -19.0758,18.76188 -39.75,38.33602 -20.6742,19.57413 -37.536,36.11995 -37.4706,36.76847 0.066,0.64852 18.5266,23.1705 41.0249,50.04884 22.4983,26.87833 41.9073,50.16789 43.1311,51.75456 2.8342,3.67451 2.8352,7.07444 0,9.05844 -3.0553,2.14002 -19.6747,2.17833 -23.7811,0.0548 -1.6566,-0.85663 -21.9352,-24.58208 -47.2004,-55.22321 l -44.296,-53.72132 -0.2421,53.4732 C 1613.9737,299.80261 1615.2844,294 1601.3892,294 c -7.0559,0 -8.7071,-0.31787 -10.3892,-2 z"
         id="path6" />
      <path
         style="fill:#6c6c6c"
         d="m 78.011945,356.92003 c -3.01843,-0.53465 -7.369256,-1.88277 -9.668501,-2.99582 -5.230092,-2.53184 -11.907899,-9.68535 -14.48966,-15.52185 C 49.271278,328.04284 48.837359,323.01671 48.034761,271 47.33132,225.4097 47.106734,220.89248 45.191314,213.80828 40.596242,196.81335 33.035964,188.48489 19.848496,185.89041 c -3.197654,-0.6291 -6.323619,-1.75797 -6.946591,-2.50861 -1.603408,-1.93199 -1.434442,-11.29026 0.23271,-12.88878 C 13.885577,169.77297 17.425,168.44912 21,167.55112 34.459291,164.17031 41.034771,156.26342 45.575121,138 c 1.28774,-5.17989 1.781994,-15.4361 2.433631,-50.5 0.859192,-46.232246 1.397041,-51.846938 5.953261,-62.14703 3.119282,-7.051652 8.424582,-12.905907 14.29914,-15.7787128 9.815989,-4.8002635 29.66735,-5.6457545 33.870527,-1.4425822 2.30195,2.301958 2.55479,10.443238 0.41902,13.492477 -1.22091,1.743092 -2.914965,2.172247 -10.749999,2.723292 C 85.247091,24.808365 81.76159,25.533576 80,26.802758 76.905225,29.032467 73.385324,35.88363 71.935278,42.5 71.31975,45.308573 70.479417,66.565417 70.017957,91 c -0.618217,32.73503 -1.193579,45.10856 -2.324973,50 -4.209734,18.20026 -12.200005,29.43106 -24.101151,33.87559 l -4.908167,1.83297 5.908167,2.69986 C 56.623311,184.90646 63.378261,194.7335 67.682146,213 c 1.196132,5.07661 1.703191,17.12069 2.315517,55 0.820097,50.73234 1.253969,55.62029 5.595116,63.03388 3.458176,5.9057 6.407529,7.30237 16.432579,7.78168 C 102.57083,339.31974 104,340.42923 104,348.11172 c 0,7.53812 -1.88295,9.0134 -12.038113,9.43179 -4.654038,0.19175 -10.931512,-0.0888 -13.949942,-0.62348 z M 1910,357.27264 c -4.4142,-0.80337 -6,-3.10414 -6,-8.70512 0,-7.93527 1.6708,-9.56632 9.8067,-9.5731 8.6436,-0.007 13.1823,-1.3183 16.4021,-4.73809 6.1926,-6.57724 7.7716,-18.90208 7.7838,-60.75633 0.01,-33.89346 1.016,-48.76031 4.1279,-61 4.5472,-17.88462 14.2814,-31.55489 24.2509,-34.05708 3.0032,-0.75374 3.5482,-2.44292 0.7883,-2.44292 -3.4389,0 -13.9778,-6.05623 -17.691,-10.16627 -4.2322,-4.68462 -7.9768,-12.29412 -9.5588,-19.42467 -0.6274,-2.82814 -1.4282,-25.04406 -1.8891,-52.40906 -0.8363,-49.655103 -1.2881,-54.646968 -5.6136,-62.033883 -3.2648,-5.575557 -5.9935,-6.876981 -15.9072,-7.587014 C 1905.1909,23.569136 1904,22.675546 1904,15 c 0,-8.6638433 1.3713,-9.4981826 15.3354,-9.3303629 8.8661,0.1065526 12.3753,0.5909874 17.0454,2.3530675 10.8199,4.0824524 17.0128,11.7101284 20.7549,25.5634654 1.985,7.348459 2.1937,11.41443 2.9211,56.91383 0.4404,27.54853 1.2349,50.75635 1.8148,53.01189 3.7532,14.59767 12.3845,22.54676 26.2673,24.19097 2.7583,0.32668 5.6547,1.23364 6.4366,2.01548 2.1103,2.11027 2.8242,6.09726 1.8173,10.14873 -0.9413,3.78774 -0.9904,3.816 -10.8928,6.27184 -7.1168,1.76498 -15.1417,9.92049 -18.8011,19.10708 -5.0708,12.72964 -5.8081,20.44734 -6.6637,69.75401 -0.7166,41.29778 -0.9799,46.20829 -2.8507,53.16908 -3.6226,13.478 -8.7858,21.07498 -17.2326,25.35528 -7.1495,3.62292 -21.0693,5.36489 -29.9519,3.74828 z M 549.56872,295.91225 C 515.39184,293.06493 490.66233,275.2855 479.45005,245.5 c -10.58176,-28.11051 -10.33691,-71.92064 0.55436,-99.18992 14.62222,-36.61073 48.3638,-56.01038 89.37553,-51.386282 34.73052,3.915889 57.51401,25.354072 65.20086,61.350902 2.37334,11.11413 3.03657,31.37552 1.17197,35.80298 C 632.74745,199.21378 635.00661,199 562.59887,199 H 498 v 4.77623 c 0,6.66041 1.72942,19.74955 3.5409,26.79942 5.4901,21.36614 19.91569,36.36104 40.4591,42.05583 5.01637,1.39057 10.15201,1.80127 22.5,1.7993 18.97194,-0.003 27.74063,-1.77505 47.37941,-9.57468 11.53705,-4.58199 12.53635,-4.8137 14.68588,-3.40528 2.90589,1.90402 4.05088,8.54719 2.47917,14.38405 -1.39809,5.19214 -5.14955,7.82218 -17.10113,11.98911 -19.65727,6.85354 -42.16401,9.77204 -62.37461,8.08827 z M 611.21644,171.5 c -1.15866,-28.60284 -14.87335,-47.97908 -38.32934,-54.15204 -9.43729,-2.48363 -24.55972,-2.29096 -33.42863,0.42589 -22.10081,6.77026 -37.9764,28.16539 -41.04862,55.32016 l -0.67006,5.92262 56.8801,-0.25832 L 611.5,178.5 Z m 253.01018,124.38786 c -26.31446,-2.4158 -44.3155,-15.99026 -50.74661,-38.26767 -1.98246,-6.86725 -2.24493,-22.52367 -0.50495,-30.11963 4.96477,-21.67384 23.8483,-37.18564 53.01901,-43.55223 10.82886,-2.36344 30.94304,-3.94272 50.25593,-3.9459 L 931,180 l -0.0198,-10.75 c -0.0473,-25.65908 -5.30856,-39.39654 -18.0074,-47.01824 -6.55544,-3.93449 -9.9296,-4.96649 -20.71408,-6.33545 -16.62472,-2.11031 -34.03658,2.04086 -54.8834,13.08476 C 831.12647,132.29148 825.34606,135 824.52995,135 c -3.03881,0 -4.78736,-4.61645 -4.35003,-11.48472 0.34782,-5.46238 0.86262,-6.95024 3.27653,-9.46982 5.91563,-6.1746 24.24487,-13.943 41.58404,-17.624402 11.03466,-2.342845 33.3323,-2.381353 43.95951,-0.07592 16.19026,3.512264 29.71059,13.125001 36.60131,26.022931 l 3.10132,5.80499 3.62295,-4.93545 c 9.84396,-13.41015 24.65094,-22.57372 43.43446,-26.880182 10.57916,-2.425474 29.98426,-2.402447 40.73996,0.04834 36.7537,8.374668 57.5,38.322428 57.5,83.002708 0,13.30779 -0.6741,15.33741 -6.011,18.09723 -2.4769,1.28081 -12.1877,1.49429 -67.9738,1.49429 h -65.08409 l 0.49997,4.75 c 0.27499,2.6125 0.76215,7.9 1.08259,11.75 2.03433,24.44189 13.65136,44.22678 30.76393,52.39386 11.62592,5.54854 17.4229,6.60344 35.7224,6.50055 19.0176,-0.10694 26.9677,-1.75253 47.2812,-9.78673 6.3818,-2.52408 12.3168,-4.31544 13.1888,-3.98081 2.5455,0.97678 3.53,3.83019 3.53,10.23066 0,7.86721 -2.4953,10.91417 -12.266,14.97769 -15.7366,6.54471 -35.7817,10.30034 -55.234,10.34859 -27.91283,0.0693 -47.62189,-6.529 -62.82683,-21.03331 -2.89639,-2.76293 -9.48674,-10.94654 -11.19275,-13.89867 -0.0789,-0.13649 -3.77473,3.28686 -8.21301,7.60745 -21.60517,21.03229 -44.81244,29.62009 -73.04079,27.02858 z m 25.84188,-22.48537 c 10.80197,-3.17707 20.47479,-9.15497 30.98687,-19.15022 5.4843,-5.21467 10.90018,-10.78548 12.03528,-12.37958 1.98731,-2.79091 2.00738,-3.14812 0.54142,-9.63553 C 932.79475,228.53172 931.8406,221.9 931.51173,217.5 c -0.32886,-4.4 -0.83752,-9.95527 -1.13035,-12.34504 l -0.53243,-4.34504 -26.67448,0.44217 c -20.98941,0.34793 -27.95323,0.80265 -32.67447,2.13359 -15.98916,4.50741 -26.40726,12.43579 -30.45048,23.17343 -3.19452,8.48375 -2.62723,22.61281 1.20647,30.04849 3.75636,7.28569 11.52879,13.9326 19.09698,16.33157 7.84183,2.48571 22.0844,2.70778 29.71553,0.46332 z m 178.6282,-104.34026 c -1.5943,-26.16892 -13.9798,-43.85046 -35.5991,-50.82111 -9.7859,-3.15526 -25.4669,-3.53441 -34.5976,-0.83655 -16.00035,4.72767 -27.58941,14.62475 -34.85468,29.76595 C 959.04125,156.76562 956,167.81508 956,174.94741 V 179 h 56.6511 56.651 z m 375.872,126.85002 C 1410.3918,293.06493 1385.6623,275.2855 1374.45,245.5 c -10.5817,-28.11051 -10.3369,-71.92064 0.5544,-99.18992 14.6222,-36.61073 48.3638,-56.01038 89.3755,-51.386282 34.7306,3.915889 57.5141,25.354072 65.2009,61.350902 2.3733,11.11413 3.0366,31.37552 1.172,35.80298 -3.0054,7.1361 -0.7462,6.92232 -73.1539,6.92232 H 1393 v 4.77623 c 0,6.66041 1.7294,19.74955 3.5409,26.79942 5.4901,21.36614 19.9157,36.36104 40.4591,42.05583 5.0164,1.39057 10.152,1.80127 22.5,1.7993 18.9719,-0.003 27.7406,-1.77505 47.3794,-9.57468 11.5371,-4.58199 12.5364,-4.8137 14.6859,-3.40528 2.9059,1.90402 4.0509,8.54719 2.4792,14.38405 -1.3981,5.19214 -5.1496,7.82218 -17.1012,11.98911 -19.6572,6.85354 -42.164,9.77204 -62.3746,8.08827 z M 1506.2164,171.5 c -1.1586,-28.60284 -14.8733,-47.97908 -38.3293,-54.15204 -9.4373,-2.48363 -24.5597,-2.29096 -33.4286,0.42589 -22.1008,6.77026 -37.9764,28.16539 -41.0486,55.32016 l -0.6701,5.92262 56.8801,-0.25832 L 1506.5,178.5 Z M 734.15575,294.52794 C 716.59709,290.54037 706.41412,279.94843 701.44166,260.5 c -1.61224,-6.30583 -1.82772,-13.71857 -2.17294,-74.75 l -0.38323,-67.75 -15.3203,0 C 665.3894,118 665.5,118.06122 665.5,108 c 0,-10.065088 -0.11795,-10 18.12244,-10 H 699 V 74.154988 C 699,45.23984 698.4216,46.5 711.69334,46.5 724.40484,46.5 724,45.575256 724,74.610784 V 98 h 26.84501 c 31.47959,0 30.48832,-0.325129 30.48832,10 0,10.32513 0.99127,10 -30.48832,10 L 724,118 l 0.0174,62.75 c 0.0183,66.28098 0.25906,70.34161 4.7707,80.47669 6.01301,13.50782 21.71586,17.31936 40.54212,9.84077 9.31129,-3.69884 11.11056,-3.22606 11.95749,3.14201 2.02852,15.25237 -5.17941,20.60294 -28.78767,21.36957 -8.14825,0.2646 -14.03637,-0.0728 -18.34425,-1.0511 z m 1081.99995,0 c -17.5586,-3.98757 -27.7416,-14.57951 -32.714,-34.02794 -1.6123,-6.30583 -1.8278,-13.71857 -2.173,-74.75 l -0.3832,-67.75 -15.3203,0 c -18.1758,0 -18.0652,0.0612 -18.0652,-10 0,-10.065088 -0.118,-10 18.1224,-10 H 1781 V 74.154988 C 1781,45.23984 1780.4216,46.5 1793.6933,46.5 1806.4048,46.5 1806,45.575256 1806,74.610784 V 98 h 26.845 c 31.4796,0 30.4883,-0.325129 30.4883,10 0,10.32513 0.9913,10 -30.4883,10 l -26.845,0 0.017,62.75 c 0.018,66.28098 0.259,70.34161 4.7707,80.47669 6.013,13.50782 21.7158,17.31936 40.5421,9.84077 9.3113,-3.69884 11.1105,-3.22606 11.9575,3.14201 2.0285,15.25237 -5.1794,20.60294 -28.7877,21.36957 -8.1483,0.2646 -14.0364,-0.0728 -18.3443,-1.0511 z M 153.25,292.96884 151,292.06445 V 195.56741 C 151,84.390186 149.49307,97 162.77927,97 173.89964,97 174,97.152026 174,113.99774 l 0,13.34026 7.25,-7.00603 c 12.98838,-12.5513 24.96574,-20.24098 37.30228,-23.948733 7.14638,-2.147848 23.24232,-2.380946 31.44772,-0.455419 16.01045,3.757104 29.23532,13.991052 36.53858,28.275052 l 3.9384,7.70288 9.51151,-9.30343 C 321.42728,101.63256 335.7054,94.50933 356,94.658677 c 31.98092,0.235346 50.36511,16.167683 58.68018,50.854163 1.46177,6.09777 1.72311,15.7805 2.05316,76.06843 0.35159,64.22186 0.25794,69.18107 -1.33127,70.5 -1.20944,1.00375 -4.46686,1.41873 -11.13638,1.41873 -8.17747,0 -9.61504,-0.25728 -10.8463,-1.94113 -1.19082,-1.62854 -1.42151,-12.33733 -1.43253,-66.5 -0.012,-59.07726 -0.17152,-65.32626 -1.87847,-73.59665 C 386.73,135.09354 379.54292,124.3618 368.22905,118.792 c -6.14898,-3.02714 -7.45302,-3.29129 -16.20802,-3.28311 -8.94044,0.008 -9.97838,0.23363 -17.02103,3.69444 -8.66528,4.2582 -18.86011,12.92155 -30.74559,26.12696 l -8.25316,9.16971 -6.3e-4,68.12756 c -5.7e-4,62.14233 -0.14585,68.24808 -1.65376,69.49954 -2.06557,1.71426 -15.83738,2.42803 -19.51633,1.01149 l -2.66947,-1.02785 -0.43419,-66.30537 c -0.48132,-73.50248 -0.55352,-74.39331 -7.15753,-88.30537 -4.56943,-9.62601 -9.33423,-14.76663 -17.34029,-18.708 -6.14898,-3.02714 -7.45302,-3.29129 -16.20802,-3.28311 -8.94044,0.008 -9.97838,0.23363 -17.02103,3.69444 -8.65443,4.25287 -18.1708,12.33978 -30.39394,25.8285 l -8.57983,9.46817 -0.0131,68.1933 -0.0131,68.19329 -2.22251,1.55671 c -2.48869,1.74314 -15.61909,2.09652 -19.52749,0.52554 z m 1003.8505,-0.71884 -2.121,-1.75 -0.2398,-86 -0.2397,-86 -15,-0.25588 C 1121.6373,117.9394 1121,117.58653 1121,108 c 0,-9.586526 0.6373,-9.939396 18.5,-10.244116 l 15,-0.255884 0.6228,-21 c 0.7963,-26.853395 3.2099,-38.860215 10.2145,-50.812527 8.8156,-15.042731 26.1607,-22.5408423 49.5681,-21.4277774 11.7968,0.5609628 22.5874,3.417365 25.6362,6.7862314 3.2337,3.573291 3.356,19.011909 0.1603,20.238241 -0.7235,0.277623 -5.1149,-0.877522 -9.7587,-2.56699 -7.4401,-2.706802 -9.7501,-3.078851 -19.4432,-3.131449 -12.8124,-0.06952 -16.7783,1.416684 -22.9167,8.587956 -6.5424,7.643342 -7.8328,13.916694 -8.3464,40.576315 l -0.4478,23.25 24.0487,0 c 23.7177,0 24.0702,0.0306 25.6055,2.22251 0.9974,1.42402 1.5567,4.42213 1.5567,8.34501 0,9.65578 0.647,9.43248 -27.3287,9.43248 H 1180 l -0.014,84.75 c -0.01,46.6125 -0.2706,85.70765 -0.5847,86.8781 -0.834,3.10756 -4.5466,4.3719 -12.8379,4.3719 -5.5178,0 -7.8691,-0.43482 -9.4632,-1.75 z m 119,0 -2.121,-1.75 -0.2398,-86 -0.2397,-86 -15,-0.25588 C 1240.6373,117.9394 1240,117.58653 1240,108 c 0,-9.586526 0.6373,-9.939396 18.5,-10.244116 l 15,-0.255884 0.6228,-21 c 0.7963,-26.853395 3.2099,-38.860215 10.2145,-50.812527 8.8156,-15.042731 26.1607,-22.5408423 49.5681,-21.4277774 11.7968,0.5609628 22.5874,3.417365 25.6362,6.7862314 3.2337,3.573291 3.356,19.011909 0.1603,20.238241 -0.7235,0.277623 -5.1149,-0.877522 -9.7587,-2.56699 -7.4401,-2.706802 -9.7501,-3.078851 -19.4432,-3.131449 -12.8124,-0.06952 -16.7783,1.416684 -22.9167,8.587956 -6.5424,7.643342 -7.8328,13.916694 -8.3464,40.576315 l -0.4478,23.25 24.0487,0 c 23.7177,0 24.0702,0.0306 25.6055,2.22251 0.9974,1.42402 1.5567,4.42213 1.5567,8.34501 0,9.65578 0.647,9.43248 -27.3287,9.43248 H 1299 l -0.014,84.75 c -0.01,46.6125 -0.2706,85.70765 -0.5847,86.8781 -0.834,3.10756 -4.5466,4.3719 -12.8379,4.3719 -5.5178,0 -7.8691,-0.43482 -9.4632,-1.75 z m 316.1495,0.71884 -2.25,-0.90439 V 150.15467 c 0,-130.783909 0.1297,-142.0173816 1.6537,-143.2822253 2.2873,-1.8982563 18.4053,-1.8982563 20.6926,0 C 1613.8612,8.1297031 1614,15.49437 1614,94.622445 1614,142.1301 1614.2233,181 1614.4963,181 c 0.2729,0 18.6104,-18.28777 40.75,-40.6395 23.4945,-23.71964 41.5934,-41.205931 43.4716,-42 3.2741,-1.384296 19.6608,-1.919882 22.7281,-0.742851 2.918,1.119735 3.7605,4.082291 2.0834,7.325541 -0.8423,1.62869 -18.7434,19.2512 -39.7804,39.16113 -21.0369,19.90993 -38.3894,36.5526 -38.561,36.98371 -0.1716,0.43112 18.3671,23.07362 41.197,50.31667 22.8299,27.24306 42.4721,50.83561 43.6494,52.42791 2.6662,3.60622 2.2446,7.22464 -1.0344,8.87762 -3.3554,1.69151 -18.2002,1.65078 -22.2975,-0.0612 -2.3675,-0.98919 -14.9687,-15.58229 -47.0581,-54.49672 -24.1036,-29.23017 -44.2342,-53.3988 -44.7346,-53.70807 -0.5421,-0.33503 -0.9098,21.06188 -0.9098,52.94002 v 53.50231 l -2.2225,1.55671 c -2.4887,1.74314 -15.6191,2.09652 -19.5275,0.52554 z"
         id="path5" />
      <path
         style="fill:#4d4d4d"
         d="M 79.444764,357.00819 C 67.749285,355.29086 59.053668,348.96757 54.532099,338.89218 49.190257,326.98897 48.841922,323.31337 48.00321,270 47.165234,216.73342 46.859072,213.57562 41.508999,203.01776 36.400669,192.93696 28.656264,186.97075 18.751178,185.4854 c -5.899276,-0.88466 -6.981947,-2.21448 -6.981947,-8.57579 0,-6.28349 1.184628,-7.57334 8.172692,-8.8986 10.084764,-1.91253 17.141549,-7.64695 21.752402,-17.67622 C 46.620576,139.61948 47.153493,134.3757 48.029296,88 48.483609,63.943089 49.335497,42.265162 49.935224,39.5 53.993634,20.78788 60.484,11.985615 73.5,7.5413386 79.560018,5.4721629 97.350097,5.0047962 100.70697,6.8265791 c 2.52265,1.3690488 3.85868,6.5951719 2.90502,11.3634819 -0.97854,4.8927 -2.30182,5.805643 -8.484435,5.85349 -14.816193,0.114661 -19.681633,3.563658 -22.670488,16.07058 -1.46845,6.144758 -1.891383,14.611526 -2.516882,50.385869 -0.822929,47.06597 -1.384326,52.2058 -7.038791,64.44325 -5.230789,11.32053 -11.838009,17.72712 -21.225569,20.58106 -3.466906,1.05398 -3.83629,1.39018 -2.175825,1.98036 15.165535,5.39028 22.791138,14.69323 27.609651,33.68276 1.935848,7.62908 2.17373,12.3004 2.893128,56.81257 0.829739,51.3395 1.355554,56.98962 6.003467,64.51011 2.697505,4.36465 6.076273,5.67363 16.468045,6.37993 8.280669,0.56282 9.071749,0.80319 10.235259,3.10996 1.50558,2.98498 1.65221,7.9183 0.33807,11.37475 -1.59768,4.20223 -10.449373,5.56486 -23.602856,3.63344 z M 1910.263,357.33942 C 1906.0589,356.73653 1904,353.66633 1904,348 c 0,-7.51369 1.486,-8.67939 11.72,-9.19392 10.7807,-0.54201 14.33,-2.21226 17.1707,-8.08032 3.7551,-7.75708 4.2559,-13.46502 5.0645,-57.72576 0.8651,-47.35593 1.5445,-54.09147 6.9505,-68.9042 4.689,-12.84831 11.4826,-21.17715 20.5349,-25.17567 l 4.9405,-2.18231 -5.6042,-1.73397 c -10.4661,-3.23828 -17.1275,-9.01159 -21.2885,-18.45024 -4.4282,-10.04473 -4.7722,-13.97904 -5.4702,-62.55361 -0.5696,-39.641934 -0.9316,-47.589307 -2.4542,-53.885869 -3.0241,-12.505192 -7.8891,-15.955612 -22.659,-16.07058 -7.1332,-0.05552 -8.905,-1.782795 -8.905,-8.681162 0,-2.739071 0.5965,-5.7959395 1.3256,-6.7930403 1.9096,-2.6114496 10.5772,-3.7121641 20.4301,-2.5944383 18.0894,2.0520866 26.2012,9.4990886 31.4484,28.8709756 1.9051,7.033177 2.1336,11.588657 2.8174,56.154114 0.8882,57.88913 1.3233,60.65818 10.8915,69.30242 4.9031,4.42969 9.6334,6.50927 16.6938,7.33908 6.9171,0.81297 8.8932,2.93371 8.8932,9.5441 0,5.34709 -1.8704,7.80895 -5.9411,7.81998 -10.5495,0.0286 -21.0626,10.30006 -25.6594,25.06945 -3.4996,11.24418 -4.0463,18.41985 -4.8705,63.92497 -0.9019,49.79608 -1.3647,54.10051 -7.0646,65.70803 -5.6503,11.50674 -14.9495,16.86399 -30.6411,17.65231 -4.8528,0.2438 -10.2799,0.23438 -12.0603,-0.0209 z M 550,295.85983 C 525.78823,293.91388 504.74609,283.80732 492.49849,268.24181 478.53939,250.50116 471.83,226.82334 471.88622,195.5 c 0.0436,-24.3027 3.69268,-40.95672 12.92748,-59 6.33167,-12.37104 19.98824,-26.25851 31.6863,-32.22204 19.80972,-10.09877 41.29448,-12.497902 64.36272,-7.187174 24.83994,5.718604 43.81329,24.500584 51.47777,50.958554 4.36559,15.0701 6.0424,37.70517 3.28254,44.31046 C 632.77912,199.16624 634.60725,199 562.59887,199 H 498 l 0.006,5.75 c 0.009,8.69401 2.65642,24.4778 5.45622,32.52862 5.33591,15.34342 17.18231,27.7427 31.63859,33.11522 20.33502,7.55728 50.27756,5.61348 75.62002,-4.90907 13.12944,-5.45153 13.89426,-5.61711 16.43647,-3.55856 1.83406,1.48513 2.20051,2.82475 2.23626,8.17499 0.0235,3.51934 -0.54253,7.45112 -1.25789,8.73729 -1.86647,3.35579 -13.73608,8.63816 -27.13557,12.07623 -19.00725,4.87692 -33.89161,6.32015 -51,4.94511 z M 611.13434,170 c -0.73156,-17.00537 -5.53202,-29.42167 -15.31349,-39.60805 -9.96993,-10.38265 -21.61418,-14.75604 -39.32085,-14.76826 -17.3433,-0.012 -29.97912,5.51088 -41.72885,18.23882 -8.91106,9.65294 -14.6216,23.24378 -16.34306,38.8958 l -0.6883,6.25832 56.8801,-0.25832 L 611.5,178.5 Z M 865,295.90433 c -26.67996,-2.31792 -45.67052,-16.55097 -51.55243,-38.63753 -2.10804,-7.91567 -2.08649,-23.54643 0.0426,-30.92202 4.52867,-15.68801 14.14752,-26.71174 30.00981,-34.39289 17.22081,-8.33899 30.55645,-10.77435 63.75,-11.64204 l 23.75,-0.62084 -0.0349,-11.5945 c -0.065,-21.62076 -4.01507,-34.35775 -13.2223,-42.63583 -5.98736,-5.38316 -13.01264,-8.08584 -24.71744,-9.509 -17.85552,-2.17103 -32.879,1.28496 -55.139,12.68411 -10.74686,5.50338 -13.05326,6.34726 -14.79702,5.41403 -2.62826,-1.4066 -3.44744,-4.71615 -2.87524,-11.61613 0.35376,-4.26595 1.07362,-6.12258 3.25778,-8.40235 5.77658,-6.02945 24.18688,-13.74943 42.02811,-17.623636 11.82368,-2.567498 34.35165,-2.321028 45,0.492329 16.57737,4.379837 27.36461,12.141097 34.5,24.822227 1.925,3.42114 3.725,6.21657 4,6.21206 0.275,-0.005 2.20577,-2.46493 4.2906,-5.46759 7.82828,-11.27464 23.21307,-21.05712 40.2094,-25.567328 11.3898,-3.02245 33.5723,-3.027825 45,-0.0109 26.8651,7.092403 44.7892,25.645333 52.204,54.035543 3.3976,13.00872 4.5079,38.57944 1.8512,42.63399 -3.5935,5.48445 -3.0506,5.44397 -73.0103,5.44397 l -64.51939,0 0.56713,7.75 c 2.45413,33.53652 12.25179,51.95841 32.80005,61.67181 10.98356,5.19206 16.11011,6.0846 34.60731,6.0252 14.6081,-0.0469 17.6801,-0.36227 26.7916,-2.75039 5.6604,-1.48357 15.1957,-4.71855 21.1895,-7.18884 6.1401,-2.53054 11.6126,-4.21717 12.535,-3.86322 2.2883,0.87811 3.4839,4.57941 3.4839,10.78568 0,8.88308 -3.5367,11.80526 -21,17.35113 -32.539,10.33352 -67.52613,9.99964 -90.5187,-0.86383 -11.06712,-5.22896 -24.45633,-16.9029 -29.28728,-25.53532 -0.78775,-1.40764 -2.12289,-0.486 -8.62723,5.95534 -21.23542,21.02969 -44.795,29.97954 -72.56679,27.56677 z m 30.77608,-24.17968 c 3.45184,-1.43315 9.38223,-4.6707 13.17865,-7.19455 7.71339,-5.12786 24.82782,-21.81553 25.6231,-24.98418 0.28302,-1.12765 -0.17762,-4.97429 -1.02365,-8.54809 -0.84602,-3.57381 -1.79059,-10.32283 -2.09904,-14.99783 -0.30844,-4.675 -0.78242,-9.9625 -1.05329,-11.75 l -0.49248,-3.25 -23.70468,0.0131 c -19.1995,0.0106 -25.42236,0.36765 -32.74247,1.87847 -15.6014,3.22003 -26.38614,10.06592 -31.98741,20.30484 -2.50692,4.58256 -2.95582,6.62105 -3.30203,14.99499 -0.45291,10.95458 0.77916,15.97145 5.66708,23.07581 3.5738,5.19434 9.38095,9.40323 16.45998,11.92984 8.03902,2.86924 26.90498,2.08621 35.47624,-1.47244 z M 1069,172.45784 c 0,-8.62945 -2.5035,-20.41781 -5.9276,-27.91206 -9.6668,-21.15708 -31.0628,-31.89748 -56.9719,-28.59879 -10.25665,1.30587 -21.98241,6.55622 -29.58216,13.24578 -10.22296,8.99861 -18.52265,26.13342 -20.37675,42.06803 -0.43267,3.71843 -0.56652,6.98093 -0.29746,7.25 0.26906,0.26906 25.8392,0.4892 56.82257,0.4892 H 1069 Z m 376,123.40199 c -24.2118,-1.94595 -45.2539,-12.05251 -57.5015,-27.61802 -13.9591,-17.74065 -20.6685,-41.41847 -20.6123,-72.74181 0.044,-24.3027 3.6927,-40.95672 12.9275,-59 6.3317,-12.37104 19.9882,-26.25851 31.6863,-32.22204 19.8097,-10.09877 41.2945,-12.497902 64.3627,-7.187174 24.84,5.718604 43.8133,24.500584 51.4778,50.958554 4.3656,15.0701 6.0424,37.70517 3.2825,44.31046 -2.8439,6.80644 -1.0157,6.6402 -73.0241,6.6402 H 1393 l 0.01,5.75 c 0.01,8.69401 2.6564,24.4778 5.4562,32.52862 5.3359,15.34342 17.1823,27.7427 31.6386,33.11522 20.335,7.55728 50.2776,5.61348 75.62,-4.90907 13.1295,-5.45153 13.8943,-5.61711 16.4365,-3.55856 1.8341,1.48513 2.2005,2.82475 2.2363,8.17499 0.024,3.51934 -0.5426,7.45112 -1.2579,8.73729 -1.8665,3.35579 -13.7361,8.63816 -27.1356,12.07623 -19.0073,4.87692 -33.8916,6.32015 -51,4.94511 z M 1506.1343,170 c -0.7315,-17.00537 -5.532,-29.42167 -15.3135,-39.60805 -9.9699,-10.38265 -21.6141,-14.75604 -39.3208,-14.76826 -17.3433,-0.012 -29.9791,5.51088 -41.7288,18.23882 -8.9111,9.65294 -14.6216,23.24378 -16.3431,38.8958 l -0.6883,6.25832 56.8801,-0.25832 L 1506.5,178.5 Z M 734.26266,294.55054 c -8.14842,-1.85477 -17.39843,-6.85153 -21.89279,-11.82626 -4.47496,-4.95324 -8.89457,-14.26531 -11.06406,-23.31184 -1.43655,-5.99026 -1.70862,-15.88415 -2.03937,-74.16244 L 698.88477,118 h -15.31994 c -12.54512,0 -15.55041,-0.2777 -16.59237,-1.53318 -2.03882,-2.45663 -2.38413,-10.5458 -0.62944,-14.74536 L 667.89795,98 H 683.44897 699 V 74.154988 C 699,45.264819 698.38566,46.6 711.67858,46.6 724.44173,46.6 724,45.595808 724,74.610784 V 98 l 26.97695,0 26.97694,0 1.63862,2.50085 c 2.21499,3.3805 2.25547,11.55602 0.0737,14.88581 L 777.95389,118 750.97695,118 724,118 l 0.0174,63.25 c 0.0189,68.99379 0.21751,71.85675 5.68763,82.00365 4.07371,7.55661 9.9761,10.94376 20.08329,11.52503 6.56021,0.37729 8.83161,0.0408 15.21172,-2.25335 4.125,-1.48327 9.14351,-2.92634 11.15223,-3.20681 3.16602,-0.44205 3.75705,-0.19766 4.43949,1.83577 1.48465,4.42368 0.73241,13.93145 -1.32387,16.73264 -4.67655,6.37068 -29.89088,10.104 -45.00519,6.66361 z m 1082.00004,0 c -8.1485,-1.85477 -17.3985,-6.85153 -21.8928,-11.82626 -4.475,-4.95324 -8.8946,-14.26531 -11.0641,-23.31184 -1.4365,-5.99026 -1.7086,-15.88415 -2.0394,-74.16244 L 1780.8848,118 h -15.32 c -12.5451,0 -15.5504,-0.2777 -16.5923,-1.53318 -2.0389,-2.45663 -2.3842,-10.5458 -0.6295,-14.74536 L 1749.8979,98 H 1765.449 1781 V 74.154988 C 1781,45.264819 1780.3857,46.6 1793.6786,46.6 1806.4417,46.6 1806,45.595808 1806,74.610784 V 98 l 26.9769,0 26.977,0 1.6386,2.50085 c 2.215,3.3805 2.2555,11.55602 0.074,14.88581 l -1.7123,2.61334 -26.977,0 -26.9769,0 0.017,63.25 c 0.019,68.99379 0.2175,71.85675 5.6876,82.00365 4.0737,7.55661 9.9761,10.94376 20.0833,11.52503 6.5602,0.37729 8.8316,0.0408 15.2117,-2.25335 4.125,-1.48327 9.1435,-2.92634 11.1522,-3.20681 3.166,-0.44205 3.7571,-0.19766 4.4395,1.83577 1.4847,4.42368 0.7324,13.93145 -1.3238,16.73264 -4.6766,6.37068 -29.8909,10.104 -45.0052,6.66361 z M 153.25,292.82976 151,291.69437 v -96.312 C 151,84.551614 149.55322,97 162.43426,97 173.66331,97 174,97.504619 174,114.33413 v 13.33414 l 8.07454,-7.86044 c 20.40039,-19.859444 39.02656,-27.595458 59.97407,-24.909048 21.33086,2.735573 35.6486,12.181248 44.48571,29.348038 l 3.89296,7.56239 10.75876,-10.30946 c 22.67431,-21.727415 40.40708,-29.352524 61.86257,-26.600968 30.53139,3.915493 47.20002,22.126568 52.38232,57.229558 2.22535,15.07371 2.35561,136.41374 0.14968,139.43053 -1.23315,1.68644 -2.66988,1.94113 -10.95,1.94113 -6.4826,0 -9.94637,-0.41545 -10.83061,-1.29905 -1.03059,-1.02984 -1.41291,-15.53656 -1.84485,-70 -0.48286,-60.88438 -0.73972,-69.36404 -2.25761,-74.52897 -4.35894,-14.83214 -10.95695,-23.70517 -21.47915,-28.88523 -6.13052,-3.01805 -7.45471,-3.28675 -16.19736,-3.28675 -8.56852,0 -10.17131,0.30886 -16.02103,3.08734 -8.93241,4.24266 -20.57845,13.88665 -31.13394,25.78175 L 296,154.36034 v 67.6287 c 0,56.18028 -0.23547,67.95073 -1.39098,69.53098 -1.73557,2.37354 -13.55721,3.31224 -19.01771,1.51012 L 272,291.8449 l -0.009,-58.17245 c -0.0107,-72.8886 -0.83623,-83.31228 -7.70965,-97.34964 -4.02556,-8.22126 -9.43512,-13.78067 -17.06341,-17.53606 -6.13052,-3.01805 -7.45471,-3.28675 -16.19736,-3.28675 -8.56852,0 -10.17131,0.30886 -16.02103,3.08734 -8.99336,4.27161 -20.51477,13.841 -31.06934,25.80539 l -8.91629,10.10727 -0.007,68.12756 c -0.007,62.12987 -0.15268,68.24838 -1.65989,69.5 -2.11008,1.75225 -16.98636,2.27203 -20.09729,0.7022 z m 1004.75,-0.0716 -2.5,-1.31716 -0.2555,-86.72053 L 1154.989,118 h -15.3721 c -18.2341,0 -18.1169,0.0647 -18.1169,-10 0,-10.056241 -0.1012,-10 17.9919,-10 l 15.247,0 0.5561,-21.75 c 0.3759,-14.705094 1.0935,-24.179278 2.2152,-29.25 5.3084,-23.99549 17.3389,-37.1341062 37.9898,-41.4890784 18.4207,-3.884655 42.818,0.307367 46.3029,7.9559224 0.6584,1.444994 1.1971,5.475988 1.1971,8.957764 0,9.567037 -1.698,10.214836 -14.5,5.531773 -3.6105,-1.320765 -9.407,-2.3973 -14.5552,-2.703211 -10.9898,-0.653036 -18.1172,1.26982 -23.2753,6.279341 C 1182.2811,39.679186 1180,49.604878 1180,77.957842 V 98 l 23.9433,0 c 23.6087,0 23.965,0.03106 25.5,2.22251 2.0719,2.95811 2.0719,12.59687 0,15.55498 -1.535,2.19145 -1.8913,2.22251 -25.5,2.22251 H 1180 v 85.38922 c 0,99.70413 1.2647,89.89358 -11.652,90.3866 -5.1,0.19466 -8.7234,-0.16166 -10.348,-1.01761 z m 119,0 -2.5,-1.31716 -0.2555,-86.72053 L 1273.989,118 h -15.3721 c -18.2341,0 -18.1169,0.0647 -18.1169,-10 0,-10.056241 -0.1012,-10 17.9919,-10 l 15.247,0 0.5561,-21.75 c 0.3759,-14.705094 1.0935,-24.179278 2.2152,-29.25 5.3084,-23.99549 17.3389,-37.1341062 37.9898,-41.4890784 18.4207,-3.884655 42.818,0.307367 46.3029,7.9559224 0.6584,1.444994 1.1971,5.475988 1.1971,8.957764 0,9.567037 -1.698,10.214836 -14.5,5.531773 -3.6105,-1.320765 -9.407,-2.3973 -14.5552,-2.703211 -10.9898,-0.653036 -18.1172,1.26982 -23.2753,6.279341 C 1301.2811,39.679186 1299,49.604878 1299,77.957842 V 98 l 23.9433,0 c 23.6087,0 23.965,0.03106 25.5,2.22251 2.0719,2.95811 2.0719,12.59687 0,15.55498 -1.535,2.19145 -1.8913,2.22251 -25.5,2.22251 H 1299 v 85.38922 c 0,99.70413 1.2647,89.89358 -11.652,90.3866 -5.1,0.19466 -8.7234,-0.16166 -10.348,-1.01761 z m 315.25,0.0716 -2.25,-1.13539 V 149.96963 C 1590,19.253595 1590.1287,8.1382825 1591.6567,6.8724447 1592.7877,5.9354636 1596.145,5.5 1602.2379,5.5 c 7.6803,0 9.1223,0.2706137 10.3433,1.9411296 1.1987,1.6399549 1.4232,15.3711164 1.4471,88.5000004 l 0.028,86.55887 40.7217,-41.26812 c 28.8673,-29.25469 41.804,-41.699514 44.4396,-42.750005 4.3223,-1.722784 19.8946,-2.027233 22.8478,-0.446691 2.5071,1.341731 2.5331,5.936746 0.051,9.079956 -1.0356,1.31167 -18.8174,18.35986 -39.5152,37.88486 -20.6978,19.525 -37.513,36.0177 -37.3671,36.65045 0.1459,0.63275 19.5785,24.21473 43.1835,52.40439 23.605,28.18966 43.0938,52.19695 43.3084,53.34954 0.2146,1.15259 -0.2748,2.99562 -1.0876,4.09562 -1.2305,1.66533 -2.879,2.05759 -9.8519,2.34414 -15.7576,0.64756 -10.7498,5.23266 -60.9382,-55.79537 -24.3919,-29.66007 -44.6864,-53.95472 -45.0989,-53.98809 -0.4125,-0.0334 -0.75,23.95922 -0.75,53.31688 0,48.41844 -0.1535,53.50506 -1.6527,54.75 -2.1101,1.75225 -16.9864,2.27203 -20.0973,0.7022 z"
         id="path4" />
      <path
         style="fill:#2e2e2e"
         d="M 72.332455,355.14893 C 60.379158,351.01817 53.851623,342.27554 50.372642,325.73713 49.20482,320.18553 48.663009,306.97144 48.046276,269 47.170417,215.07448 47.056911,213.99867 40.971274,201.94309 36.162489,192.41694 25.458136,185 16.518499,185 13.126459,185 12,182.98627 12,176.92244 c 0,-6.41392 0.72062,-7.3428 6.5,-8.37845 14.105528,-2.52768 21.967581,-10.88394 26.696775,-28.37491 C 47.07497,133.22255 47.341009,128.44872 48.02049,89.5 48.830859,43.048591 49.514734,36.288 54.534755,25.101905 57.699638,18.049607 63.747058,11.888096 70.5,8.8354583 74.53171,7.0129418 77.764219,6.4994666 87.191844,6.1840048 98.641169,5.8008941 98.936751,5.8458418 101.44184,8.350935 104.32176,11.230853 104.8713,16.714102 102.70955,21 101.54604,23.306774 100.75496,23.547144 92.474291,24.109959 82.088479,24.815856 78.703569,26.125534 76.012886,30.479151 71.295293,38.112377 70.785207,43.022563 69.985497,88.5 69.190439,133.71293 68.596695,140.05686 64.01987,152.24046 59.921335,163.15084 51.349891,172.12905 42,175.3053 c -3.735265,1.26891 -4.160118,1.65068 -2.5,2.24649 11.583767,4.15741 18.076582,10.03055 22.961726,20.77024 1.795765,3.94789 3.770002,9.26391 4.387195,11.81338 2.191023,9.0506 3.134084,27.8193 3.142526,62.54223 0.0089,36.58933 0.777309,46.95654 4.148169,55.96597 2.937792,7.85195 5.947276,9.597 17.751041,10.29289 8.907693,0.52516 9.647763,0.73362 10.875973,3.0635 1.86264,3.53339 1.0341,11.68076 -1.37319,13.50307 -2.902691,2.19732 -22.364016,1.96017 -29.060985,-0.35414 z m 1833.765445,-0.051 c -2.5384,-2.53836 -2.9008,-10.50663 -0.6256,-13.7549 1.2768,-1.82288 2.7183,-2.15651 10.8548,-2.51238 11.1454,-0.48746 13.931,-1.89912 16.8734,-8.55103 3.8549,-8.71448 4.7276,-18.01119 4.767,-50.77959 0.059,-48.67154 2.3027,-67.18726 9.988,-82.41187 C 1953.0054,187.0844 1962.7639,178 1968.4602,178 c 3.2566,0 1.3227,-1.67754 -3.2997,-2.86222 -11.7448,-3.01012 -20.5101,-12.63797 -24.2543,-26.64117 -1.9802,-7.40593 -2.1934,-11.50524 -2.8858,-55.49661 -0.793,-50.379736 -1.2118,-54.719506 -6.0333,-62.520849 -2.7132,-4.390028 -6.1575,-5.714731 -16.2671,-6.256306 -10.2782,-0.550612 -11.72,-1.707794 -11.72,-9.406396 0,-3.616013 0.533,-5.24332 2.25,-6.8693809 2.0993,-1.9880861 3.0902,-2.1059087 14.7908,-1.7586746 11.24,0.333565 13.1258,0.6584255 18.1816,3.1319725 6.5926,3.225459 11.1322,8.028233 14.461,15.299211 5.0384,11.005286 5.4654,15.556251 6.3221,67.380423 0.5054,30.57174 1.2284,50.21549 1.9558,53.14078 1.8033,7.25151 6.907,14.89779 12.0688,18.08125 2.4915,1.53662 7.8915,3.49015 12,4.34118 4.1084,0.85102 8.1074,2.17602 8.8866,2.94444 0.8085,0.79739 1.4166,3.34366 1.4166,5.93183 0,5.60377 -2.3459,8.56052 -6.7919,8.56052 -7.5191,0 -16.5229,6.98416 -21.2712,16.5 -6.6,13.22647 -7.2676,18.98602 -8.2297,71 -0.6782,36.66578 -1.184,47.47657 -2.4926,53.2767 -3.3727,14.948 -8.8154,23.24328 -18.3091,27.90521 -5.2014,2.55419 -6.9236,2.85067 -18.3909,3.16599 -11.7665,0.32356 -12.7989,0.20106 -14.75,-1.75 z M 544.5,295.29317 c -40.33511,-5.47431 -64.55916,-31.18607 -71.07071,-75.43551 -2.22092,-15.09235 -1.50551,-43.30068 1.41827,-55.92143 4.66607,-20.14147 11.76131,-33.52182 24.65244,-46.49007 7.63001,-7.67565 10.44611,-9.76087 18.5,-13.69859 15.03767,-7.352247 19.50514,-8.245987 41,-8.202267 17.3369,0.03526 19.00296,0.205687 26.5,2.710714 18.9983,6.348013 32.69777,18.307373 41.51752,36.243983 4.93596,10.03819 7.66468,20.63949 9.10241,35.36353 1.32186,13.5374 0.72915,21.52753 -1.80833,24.37768 C 630.07447,199.00044 630.08113,199 562.03212,199 H 498 v 6.86901 c 0,7.75073 2.25692,22.13617 4.64878,29.63099 4.65951,14.60044 14.8734,26.80198 27.49313,32.84337 11.2156,5.36919 21.31336,7.02636 38.80111,6.36777 16.35602,-0.61598 26.05753,-2.79662 43.41244,-9.75796 15.05547,-6.03899 16.65702,-5.50938 16.6223,5.49682 -0.0162,5.13333 -0.49196,7.65165 -1.75,9.26303 -3.73354,4.78216 -23.8328,11.64248 -43.22776,14.75457 -8.72017,1.39923 -31.72985,1.88014 -39.5,0.82557 z M 611.61522,170.1016 c -2.52475,-33.44476 -19.85541,-52.41734 -49.99745,-54.73424 -25.34458,-1.94814 -46.89717,10.92613 -57.16713,34.14833 -3.02055,6.82999 -6.43378,20.46163 -6.44363,25.73431 L 498,179 h 57.14348 57.14348 z m 126.14817,124.86559 c -20.53051,-3.457 -31.71214,-14.54477 -36.43595,-36.13012 -1.35719,-6.20168 -1.67306,-17.6664 -2.04115,-74.08707 L 698.8508,118 h -15.47643 -15.47642 l -1.55464,-3.72077 c -1.84462,-4.41479 -1.18141,-11.69566 1.3168,-14.456145 C 669.11546,98.214937 671.06016,98 684.15499,98 H 699 V 74.5 C 699,45.878485 698.49802,47 711.30887,47 c 5.08336,0 8.96183,0.485251 9.99088,1.25 1.48126,1.100812 1.71294,4.114407 1.94113,25.25 l 0.25912,24 27,0.247747 c 26.10933,0.239575 27.05773,0.317451 28.75,2.360783 1.22098,1.47428 1.75,3.85983 1.75,7.89147 0,4.03164 -0.52902,6.41719 -1.75,7.89147 -1.69227,2.04333 -2.64067,2.12121 -28.75,2.36078 l -27,0.24775 0.0702,63.5 c 0.0686,62.09734 0.11849,63.67671 2.25771,71.5 2.84856,10.41739 6.23869,15.26686 13.10761,18.75 7.88328,3.99751 16.47554,3.85869 28.8381,-0.46594 11.68123,-4.08628 12.60798,-3.70218 13.01811,5.39554 0.16043,3.55895 -0.15893,7.65607 -0.70971,9.10473 -2.64517,6.95731 -25.14721,11.57425 -42.31861,8.68286 z M 855.5,294.51792 c -22.96724,-5.06456 -38.01441,-19.03794 -42.36975,-39.34618 -1.6004,-7.46241 -1.40084,-21.71269 0.40094,-28.63019 4.82868,-18.53855 20.10506,-32.68214 43.07111,-39.87723 C 870.07845,182.44234 883.29242,181 908.49575,181 h 22.73907 l -0.47842,-16.25 c -0.54541,-18.52519 -2.46049,-26.58438 -8.06244,-33.92902 C 914.27501,119.78299 903.45537,115.514 884,115.55393 c -17.13124,0.0352 -30.18177,3.80563 -48.15328,13.91209 -9.71923,5.4657 -11.00448,5.87033 -13.30448,4.18853 -2.56304,-1.87415 -3.27161,-10.97315 -1.23424,-15.84927 3.04262,-7.28201 22.14145,-16.59934 42.692,-20.827203 9.00367,-1.852325 12.78013,-2.093216 26.5,-1.690373 10.34718,0.303814 18.11981,1.04891 22,2.108954 14.56169,3.978162 25.77451,12.608092 32.59622,25.087622 l 3.59622,6.57887 2.56044,-3.8691 c 6.58845,-9.95581 18.81325,-19.60588 31.03512,-24.49863 18.5768,-7.436789 47.8868,-7.721461 65.8536,-0.6396 13.0049,5.12603 28.2864,18.66027 34.6696,30.70555 7.612,14.36391 11.5957,32.79152 11.0303,51.02351 -0.3853,12.42242 -1.3427,14.4265 -7.7414,16.20393 -2.226,0.61833 -27.9333,1.00216 -67.3501,1.00561 L 955,199 l 0.008,3.25 c 0.0147,5.80885 2.00907,21.09111 3.6215,27.75 4.19247,17.31375 14.56745,31.04064 28.74956,38.03787 11.41818,5.63355 21.31614,7.32708 39.12074,6.69354 15.9687,-0.56822 27.576,-3.12654 42.2207,-9.30564 4.8286,-2.03735 10.3954,-3.90707 12.3707,-4.15494 3.2493,-0.40772 3.7136,-0.15577 4.8734,2.6443 0.7724,1.86465 1.0946,5.35548 0.8105,8.78147 -0.4099,4.94184 -0.9072,6.05017 -3.7981,8.46357 -4.1982,3.50479 -16.0875,7.829 -31.5,11.45666 -11.1262,2.6188 -13.4338,2.81704 -32.4772,2.78997 -17.9918,-0.0256 -21.47881,-0.2989 -28.5,-2.23387 -19.49089,-5.37151 -32.29389,-14.31088 -43.90489,-30.6555 -1.34362,-1.89138 -1.82469,-1.58125 -10.45986,6.74307 -14.50576,13.9836 -28.47824,21.87043 -44.67208,25.21536 -8.97514,1.85386 -27.64782,1.87571 -35.96317,0.0421 z m 31,-20.02232 c 14.28181,-2.9985 30.11819,-13.33641 42.92618,-28.02199 l 6.414,-7.35426 -1.3302,-4.41994 C 933.08675,229.9704 931.12053,215.02206 930.73502,206 l -0.23502,-5.5 -16,-0.29582 c -35.36338,-0.65381 -53.79304,3.25974 -66.01559,14.01846 -11.69207,10.29177 -14.59265,29.41877 -6.68712,44.09621 4.62314,8.58336 13.89913,14.66167 25.24538,16.54263 8.04811,1.33421 11.68565,1.26581 19.45733,-0.36588 z M 1069.178,171.5 c -1.2923,-28.09245 -14.4317,-47.14638 -37.178,-53.91314 -13.9793,-4.15869 -31.2974,-2.72132 -44,3.65192 -8.28365,4.15612 -19.46592,15.13038 -23.72952,23.28811 -3.66463,7.01169 -7.71659,20.48105 -8.64317,28.7313 l -0.64671,5.7582 57.2597,-0.2582 L 1069.5,178.5 Z M 1439.5,295.29317 c -40.3351,-5.47431 -64.5592,-31.18607 -71.0707,-75.43551 -2.2209,-15.09235 -1.5055,-43.30068 1.4183,-55.92143 4.666,-20.14147 11.7613,-33.52182 24.6524,-46.49007 7.63,-7.67565 10.4461,-9.76087 18.5,-13.69859 15.0377,-7.352247 19.5051,-8.245987 41,-8.202267 17.3369,0.03526 19.003,0.205687 26.5,2.710714 18.9983,6.348013 32.6978,18.307373 41.5175,36.243983 4.936,10.03819 7.6647,20.63949 9.1024,35.36353 1.3219,13.5374 0.7292,21.52753 -1.8083,24.37768 -4.2371,4.75923 -4.2305,4.75879 -72.2795,4.75879 H 1393 v 6.86901 c 0,7.75073 2.2569,22.13617 4.6488,29.63099 4.6595,14.60044 14.8734,26.80198 27.4931,32.84337 11.2156,5.36919 21.3134,7.02636 38.8011,6.36777 16.356,-0.61598 26.0575,-2.79662 43.4125,-9.75796 15.0554,-6.03899 16.657,-5.50938 16.6223,5.49682 -0.016,5.13333 -0.492,7.65165 -1.75,9.26303 -3.7336,4.78216 -23.8328,11.64248 -43.2278,14.75457 -8.7202,1.39923 -31.7298,1.88014 -39.5,0.82557 z m 67.1152,-125.19157 c -2.5247,-33.44476 -19.8554,-52.41734 -49.9974,-54.73424 -25.3446,-1.94814 -46.8972,10.92613 -57.1672,34.14833 -3.0205,6.82999 -6.4337,20.46163 -6.4436,25.73431 L 1393,179 h 57.1435 57.1435 z m 313.1482,124.86559 c -20.5305,-3.457 -31.7121,-14.54477 -36.436,-36.13012 -1.3572,-6.20168 -1.673,-17.6664 -2.0411,-74.08707 L 1780.8508,118 h -15.4764 -15.4765 l -1.5546,-3.72077 c -1.8446,-4.41479 -1.1814,-11.69566 1.3168,-14.456145 C 1751.1155,98.214937 1753.0602,98 1766.155,98 H 1781 V 74.5 c 0,-28.621515 -0.502,-27.5 12.3089,-27.5 5.0833,0 8.9618,0.485251 9.9909,1.25 1.4812,1.100812 1.7129,4.114407 1.9411,25.25 l 0.2591,24 27,0.247747 c 26.1093,0.239575 27.0577,0.317451 28.75,2.360783 1.221,1.47428 1.75,3.85983 1.75,7.89147 0,4.03164 -0.529,6.41719 -1.75,7.89147 -1.6923,2.04333 -2.6407,2.12121 -28.75,2.36078 l -27,0.24775 0.07,63.5 c 0.069,62.09734 0.1185,63.67671 2.2577,71.5 2.8486,10.41739 6.2387,15.26686 13.1076,18.75 7.8833,3.99751 16.4755,3.85869 28.8381,-0.46594 11.6812,-4.08628 12.608,-3.70218 13.0181,5.39554 0.1604,3.55895 -0.1589,7.65607 -0.7097,9.10473 -2.6452,6.95731 -25.1472,11.57425 -42.3186,8.68286 z M 154,292.76896 l -2.5,-1.32793 -0.25497,-96.05774 -0.25498,-96.057728 2.55203,-1.162781 C 154.94569,97.523251 159.22293,97 163.04705,97 173.61204,97 174,97.626385 174,114.68422 v 13.68422 l 9.25,-9.05381 c 17.92558,-17.54539 32.17353,-24.32721 51.05162,-24.299849 16.0918,0.02332 26.53483,3.160994 36.94771,11.101159 6.56696,5.00753 12.92959,12.98309 16.47895,20.65636 l 2.43876,5.27231 10.16648,-9.66955 c 21.95545,-20.88228 35.0106,-27.35428 55.16648,-27.34841 18.53876,0.0054 29.77135,4.254082 41.27251,15.61116 5.77799,5.7056 8.06471,8.89537 11.12748,15.52179 8.32569,18.01295 9.0611,26.31373 9.08268,102.51897 0.0192,67.75971 0.44087,63.58854 -6.56117,64.90213 -4.86152,0.91203 -13.97782,0.0324 -15.86088,-1.53039 -1.38167,-1.14668 -1.56072,-8.01787 -1.56146,-59.92275 -4.6e-4,-32.24516 -0.45712,-63.43924 -1.01481,-69.32018 -1.03821,-10.94826 -3.6754,-21.29168 -7.1898,-28.19942 -3.09923,-6.09171 -10.5073,-13.32388 -16.66816,-16.27239 -7.95801,-3.80861 -20.26586,-4.41748 -28.27221,-1.39863 -11.44649,4.31598 -22.97258,13.44572 -36.52803,28.93361 L 296,154.24109 l -0.0153,67.62946 c -0.008,37.1962 -0.35508,68.1638 -0.77035,68.81689 -2.04441,3.21521 -15.24179,4.53332 -20.21434,2.01895 l -2.5,-1.26413 -0.54713,-66.97113 c -0.53166,-65.07698 -0.6095,-67.19739 -2.75205,-74.97113 -4.43999,-16.10945 -12.18796,-26.8272 -22.94187,-31.73546 -3.8401,-1.75269 -6.68974,-2.18099 -14.75895,-2.2183 -9.25416,-0.0428 -10.51108,0.19581 -16.8524,3.19914 -10.83672,5.1324 -23.4936,16.19358 -35.8976,31.37188 l -3.75,4.58872 v 67.45588 c 0,55.08106 -0.24788,67.79488 -1.35121,69.30377 -1.76753,2.41724 -15.79944,3.34799 -19.64879,1.30333 z m 1005.5,0.53068 c -4.6112,-1.07985 -4.5,1.13186 -4.5,-89.49077 V 118 l -15.3776,0 c -18.2404,0 -18.1224,0.0651 -18.1224,-10 0,-10.065088 -0.118,-10 18.1224,-10 L 1155,98 V 83.605955 c 0,-35.663809 5.4524,-55.55376 18.4478,-67.296318 8.6193,-7.7883503 17.3596,-10.9024935 33.5727,-11.9617722 16.7346,-1.0933557 32.6362,3.3600134 34.8691,9.7653762 1.3972,4.007794 1.4394,12.403553 0.075,14.9525 -1.3789,2.576508 -3.4279,2.442916 -11.5957,-0.75601 -5.993,-2.34713 -8.3381,-2.697888 -18.3859,-2.75 -10.4275,-0.05408 -11.9883,0.180717 -16.5,2.482164 -5.7847,2.950755 -10.6502,9.413833 -12.9716,17.231045 -2.1721,7.31418 -3.6714,25.268063 -3.3175,39.72706 l 0.3059,12.5 24,0.249097 c 28.0721,0.291361 27.5,0.07812 27.5,10.250903 0,10.17279 0.5721,9.95954 -27.5,10.2509 l -24,0.2491 -0.5,86.47058 -0.5,86.47058 -2.5,1.26468 c -2.399,1.21357 -12.3276,1.57088 -16.5,0.5938 z m 119,0 c -4.6112,-1.07985 -4.5,1.13186 -4.5,-89.49077 V 118 l -15.3776,0 c -18.2404,0 -18.1224,0.0651 -18.1224,-10 0,-10.065088 -0.118,-10 18.1224,-10 L 1274,98 V 83.605955 c 0,-35.663809 5.4524,-55.55376 18.4478,-67.296318 8.6193,-7.7883503 17.3596,-10.9024935 33.5727,-11.9617722 16.7346,-1.0933557 32.6362,3.3600134 34.8691,9.7653762 1.3972,4.007794 1.4394,12.403553 0.075,14.9525 -1.3789,2.576508 -3.4279,2.442916 -11.5957,-0.75601 -5.993,-2.34713 -8.3381,-2.697888 -18.3859,-2.75 -10.4275,-0.05408 -11.9883,0.180717 -16.5,2.482164 -5.7847,2.950755 -10.6502,9.413833 -12.9716,17.231045 -2.1721,7.31418 -3.6714,25.268063 -3.3175,39.72706 l 0.3059,12.5 24,0.249097 c 28.0721,0.291361 27.5,0.07812 27.5,10.250903 0,10.17279 0.5721,9.95954 -27.5,10.2509 l -24,0.2491 -0.5,86.47058 -0.5,86.47058 -2.5,1.26468 c -2.399,1.21357 -12.3276,1.57088 -16.5,0.5938 z m 314.5,-0.53071 -2.5,-1.32795 -0.2534,-141.5952 c -0.2331,-130.228606 -0.1217,-141.7045093 1.3872,-142.9568497 1.0887,-0.9035223 4.4186,-1.3662368 9.8972,-1.3752887 6.7279,-0.011116 8.6463,0.3390154 10.3627,1.891346 l 2.1063,1.9049875 0.053,86.5950129 0.053,86.595012 40.715,-41.20401 c 27.8552,-28.18981 41.8836,-41.692316 44.415,-42.750005 4.2019,-1.75568 18.14,-2.114026 22.1992,-0.570736 1.9859,0.755052 2.5651,1.669564 2.5651,4.050351 0,3.77646 -0.8948,4.69391 -46.2809,47.45358 -33.7048,31.75423 -33.7767,31.83077 -31.8987,33.92343 9.5189,10.60642 84.4581,101.11452 85.3599,103.09368 1.8569,4.07553 -1.483,6.75332 -9.1116,7.30512 -9.0467,0.65438 -14.6618,-0.50525 -18.4187,-3.80383 -1.796,-1.57697 -22.5896,-26.31059 -46.2078,-54.9636 L 1614.5,182.9376 1614,236.91939 c -0.3743,40.41327 -0.805,54.28659 -1.7132,55.19444 -1.7961,1.79522 -16.2182,2.28508 -19.2868,0.6551 z"
         id="path3" />
      <path
         style="fill:#000000"
         d="M 76.5,356.32791 C 65.194965,353.8403 56.596637,345.72916 52.625202,333.80588 49.320368,323.88391 48.762191,315.88966 48.030479,268 47.408552,227.29559 47.020186,218.5356 45.614272,213.5 40.954863,196.81128 32.459818,187.52864 20,185.51097 c -6.467015,-1.04724 -8,-2.78018 -8,-9.04351 0,-6.04356 0.80869,-6.96505 7,-7.97642 13.6088,-2.22303 22.202398,-11.55827 26.679852,-28.98236 C 46.881511,134.83241 47.398558,123.96489 48.011553,90.5 48.445902,66.787842 49.306628,44.671469 49.930441,41.19412 53.064648,23.722968 59.467531,13.816069 70.949195,8.6727277 74.401504,7.1262262 78.275926,6.5301529 87,6.2033378 97.427142,5.8127235 98.73323,5.9614846 101,7.7979133 c 2.06127,1.6699412 2.5,2.8999247 2.5,7.0087457 0,7.607615 -1.66004,8.860733 -12.419503,9.375149 -10.196446,0.487498 -13.042395,1.863019 -16.049302,7.757044 -3.933158,7.709628 -5.030592,19.1292 -5.039748,52.442138 -0.01481,53.87473 -2.582803,68.16251 -14.666772,81.60279 -4.815744,5.35627 -8.207453,7.54833 -14.824675,9.5812 -3.321765,1.02047 -3.660883,1.34439 -2,1.91038 13.726319,4.67757 22.224395,13.56017 26.811457,28.02464 3.43712,10.83834 3.918247,17.52268 4.678582,65 0.615102,38.40861 1.074707,49.05002 2.300089,53.25481 3.524972,12.09563 7.611695,15.24114 19.804884,15.24364 C 101.49206,339.00037 103.5,340.58517 103.5,348 c 0,7.98685 -1.68058,9.02331 -14.404988,8.884 C 83.267756,356.8202 77.6,356.56996 76.5,356.32791 Z m 1829.6502,-1.86408 c -3.238,-4.11648 -2.5544,-12.15861 1.2495,-14.69852 0.6052,-0.40408 4.4753,-0.74227 8.6003,-0.75155 10.1898,-0.0229 13.6841,-1.85377 17.2033,-9.01376 3.9195,-7.97459 4.7964,-17.2605 4.7991,-50.82236 0,-47.70499 2.0615,-65.01002 9.621,-80.91537 4.1866,-8.80862 12.178,-17.39849 17.8871,-19.22647 5.7051,-1.82672 6.1653,-2.68644 1.8694,-3.49235 -9.1363,-1.71399 -18.5261,-9.0088 -23.0566,-17.91238 -4.962,-9.75153 -5.4394,-14.7325 -6.2902,-65.63107 -0.8225,-49.209798 -1.1109,-52.45392 -5.3981,-60.740582 -2.7452,-5.305936 -5.7908,-6.630059 -16.3079,-7.09004 C 1905.4093,23.691868 1904,22.638096 1904,14.951808 c 0,-3.581109 0.5393,-5.1098088 2.4288,-6.8849234 2.301,-2.1617011 3.0507,-2.2616991 14.25,-1.9007442 10.1371,0.3267193 12.6171,0.7508791 17.4077,2.9772446 10.3733,4.820867 16.0581,12.971212 19.4298,27.856615 1.4031,6.194364 1.8289,15.943114 2.4461,56 0.8141,52.84537 1.012,54.66124 6.9168,63.47431 4.3478,6.48926 10.0118,9.41609 23.6208,12.20574 3.3731,0.69144 4.1717,1.35106 5.0953,4.20873 1.5187,4.69875 0.3884,9.31167 -2.6328,10.74434 -1.3544,0.64228 -4.7044,1.68876 -7.4444,2.32551 -11.3946,2.64797 -18.8926,13.25398 -23.0848,32.65349 -1.3847,6.40811 -1.8532,16.51753 -2.4969,53.88788 -0.8613,50.0004 -1.3097,54.32708 -6.8398,66 -3.5614,7.51736 -8.0449,12.08712 -15.0966,15.38697 -4.7464,2.2211 -7.1578,2.62421 -17.5998,2.94208 l -12.0998,0.36833 z M 540.34157,294.52053 C 507.08324,288.48548 484.6417,267.14038 476.13944,233.45519 473.14552,221.59352 472,211.36679 472,196.5 c 0,-28.32471 5.33993,-48.76769 17.52041,-67.07382 11.55585,-17.36738 28.28195,-28.46712 49.67954,-32.968241 9.19422,-1.934063 28.85386,-1.877352 38.48009,0.111001 36.78731,7.59863 58.26472,37.81791 58.70519,82.59976 0.10209,10.37991 -0.11647,11.98141 -1.97889,14.5 -1.15152,1.55721 -3.62652,3.3684 -5.5,4.02486 -2.49536,0.87435 -20.4955,1.20865 -67.30615,1.25 L 497.70038,199 l 0.57388,10.75 c 1.95752,36.66831 18.12018,58.27781 47.78004,63.88197 6.34085,1.19808 12.05941,1.46726 22.9457,1.08006 16.88318,-0.60049 25.90059,-2.55701 42.65027,-9.25391 C 617.78291,263.00616 623.72958,261 624.86508,261 c 2.9309,0 4.13492,2.93111 4.13492,10.06618 0,5.73148 -0.25043,6.43221 -3.3293,9.31574 -5.56554,5.21244 -26.15514,11.85695 -45.1707,14.57712 -9.6071,1.37429 -31.48487,1.1354 -40.15843,-0.43851 z M 611.62797,170.3215 C 609.41501,141.53164 597.43783,124.28518 575,117.57929 c -14.07697,-4.20712 -32.26964,-2.72765 -45,3.65949 -16.71285,8.38527 -29.62795,29.14874 -31.64762,50.87956 L 497.7128,179 h 57.29113 57.29112 z m 126.57168,124.72489 c -10.6086,-1.68166 -17.20855,-4.93851 -24.2911,-11.98681 -4.99366,-4.96951 -7.13713,-8.014 -8.84257,-12.55958 -5.35241,-14.266 -5.34791,-14.19945 -5.7966,-85.75 L 698.8508,118 l -14.77041,0 c -17.77605,0 -18.54706,-0.4157 -18.54706,-10 0,-9.586512 0.7679,-10 18.57114,-10 l 14.7945,0 0.30051,-24.082046 C 699.555,45.428123 698.84745,46.982104 711.44113,47.031803 723.71251,47.080231 723,45.426486 723,73.860243 V 98 h 27.4433 c 27.2255,0 27.45565,0.01764 29,2.22251 0.95538,1.364 1.5567,4.36826 1.5567,7.77749 0,3.40923 -0.60132,6.41349 -1.5567,7.77749 C 777.89877,117.98262 777.67139,118 750.36587,118 l -27.52072,0 0.42483,63.75 c 0.45296,67.97126 0.68755,71.36595 5.59669,80.98866 2.60388,5.10401 8.07939,9.87474 12.856,11.20121 6.77065,1.88023 17.12027,1.24574 24.77733,-1.51898 13.34322,-4.81781 14.5,-4.36123 14.5,5.72319 0,9.55247 -2.59767,12.56593 -13.35393,15.4914 -6.45011,1.75428 -22.44547,2.5207 -29.44642,1.41091 z M 855.5,294.45265 c -10.16316,-2.18504 -22.56502,-8.55988 -28.80292,-14.80537 -5.99755,-6.00485 -10.97216,-14.76653 -13.16589,-23.18883 -1.79328,-6.88486 -1.99725,-20.1251 -0.42611,-27.65923 3.16487,-15.17651 14.40001,-28.90283 29.89492,-36.52353 17.40534,-8.56029 33.04455,-11.26145 65.25,-11.26979 L 931,181 v -12.91203 c 0,-27.62189 -5.93238,-40.97086 -21.4114,-48.17965 -7.96614,-3.70995 -18.68616,-5.3103 -30.5886,-4.56646 -13.2313,0.82688 -22.24604,3.56512 -38.68558,11.75077 -16.02356,7.97853 -18.34411,8.3103 -19.70186,2.81671 -1.45177,-5.87399 0.0478,-12.41587 3.67829,-16.04635 6.32653,-6.32652 28.71277,-15.196678 45.04133,-17.846833 9.28308,-1.506661 29.65963,-1.233314 38.45998,0.515931 11.43755,2.273444 22.80226,8.180982 29.34168,15.252242 2.95139,3.19141 6.76986,8.42456 8.48549,11.62922 l 3.11933,5.82665 3.01555,-4.3701 c 4.24737,-6.15522 13.67445,-14.82222 20.8,-19.12294 3.32981,-2.00975 10.30481,-5.13015 15.5,-6.934221 9.30692,-3.231907 9.71042,-3.280372 27.44579,-3.296535 16.1019,-0.01467 18.7909,0.230548 25.5,2.325459 10.8347,3.383117 20.0182,8.523517 27.5385,15.414517 16.0974,14.75031 24.0067,34.20742 25.1761,61.93396 0.6939,16.45166 -0.063,19.15523 -6.1384,21.9144 -3.8302,1.73961 -7.9607,1.85266 -68.4451,1.8733 l -64.36894,0.022 0.72106,9.61762 c 2.70459,36.07409 15.31293,55.37179 41.51678,63.54349 6.7756,2.11298 9.2869,2.33169 26,2.26435 16.7162,-0.0674 19.416,-0.32634 28,-2.68593 5.225,-1.43625 12.875,-4.03684 17,-5.77906 11.9616,-5.05208 14.7173,-5.67179 16.6457,-3.74335 2.3658,2.36581 2.9011,10.53853 0.9898,15.11284 -1.3499,3.23076 -2.6493,4.26857 -9.043,7.22265 -8.7808,4.05696 -26.3258,8.73581 -39.3061,10.482 -13.068,1.75799 -36.4275,0.77908 -46.7864,-1.96065 -16.96756,-4.48757 -34.39001,-16.28709 -42.1428,-28.54161 l -2.78616,-4.40397 -8.53731,8.23 c -12.99131,12.52366 -24.96855,19.99206 -39.53373,24.65123 -9.2138,2.94735 -31.4496,3.71133 -42,1.44304 z M 885,274.95514 c 6.98993,-1.10738 18.18615,-5.92308 25.54997,-10.98952 5.66281,-3.89611 16.19833,-13.69304 21.37687,-19.87824 l 3.9003,-4.65848 -1.91698,-7.96445 C 932.85581,227.084 931.70055,218.2125 931.34291,211.75 l -0.65026,-11.75 -17.09633,0.009 c -29.5282,0.0148 -45.39044,2.29631 -56.98836,8.1969 -5.17911,2.63494 -13.36288,10.38978 -15.58688,14.76993 -4.87687,9.60501 -4.92208,23.50458 -0.10947,33.66421 6.95586,14.68415 23.53519,21.57167 44.08839,18.31555 z M 1069.3428,171.25 c -0.6336,-9.76339 -3.6014,-22.18882 -6.9266,-28.99976 -7.55,-15.46435 -23.2953,-25.39194 -42.6029,-26.86165 -34.59125,-2.63312 -59.65442,19.93474 -64.2591,57.86141 l -0.69811,5.75 h 57.49481 57.4949 z m 365.9988,123.27053 c -33.2584,-6.03505 -55.6999,-27.38015 -64.2022,-61.06534 C 1368.1455,221.59352 1367,211.36679 1367,196.5 c 0,-28.32471 5.3399,-48.76769 17.5204,-67.07382 11.5559,-17.36738 28.282,-28.46712 49.6796,-32.968241 9.1942,-1.934063 28.8538,-1.877352 38.48,0.111001 36.7874,7.59863 58.2648,37.81791 58.7052,82.59976 0.1021,10.37991 -0.1164,11.98141 -1.9789,14.5 -1.1515,1.55721 -3.6265,3.3684 -5.5,4.02486 -2.4953,0.87435 -20.4955,1.20865 -67.3061,1.25 l -63.8998,0.0564 0.5739,10.75 c 1.9575,36.66831 18.1201,58.27781 47.78,63.88197 6.3408,1.19808 12.0594,1.46726 22.9457,1.08006 16.8832,-0.60049 25.9006,-2.55701 42.6503,-9.25391 6.1326,-2.45196 12.0793,-4.45812 13.2148,-4.45812 2.9309,0 4.1349,2.93111 4.1349,10.06618 0,5.73148 -0.2504,6.43221 -3.3293,9.31574 -5.5655,5.21244 -26.1551,11.85695 -45.1707,14.57712 -9.6071,1.37429 -31.4849,1.1354 -40.1584,-0.43851 z M 1506.628,170.3215 c -2.213,-28.78986 -14.1902,-46.03632 -36.628,-52.74221 -14.077,-4.20712 -32.2696,-2.72765 -45,3.65949 -16.7129,8.38527 -29.6279,29.14874 -31.6476,50.87956 L 1392.7128,179 h 57.2911 57.2912 z m 313.5716,124.72489 c -10.6086,-1.68166 -17.2085,-4.93851 -24.2911,-11.98681 -4.9936,-4.96951 -7.1371,-8.014 -8.8425,-12.55958 -5.3524,-14.266 -5.3479,-14.19945 -5.7966,-85.75 l -0.4186,-66.75 -14.7704,0 c -17.7761,0 -18.5471,-0.4157 -18.5471,-10 0,-9.586512 0.7679,-10 18.5712,-10 l 14.7945,0 0.3005,-24.082046 c 0.3555,-28.489831 -0.352,-26.93585 12.2416,-26.886151 12.2714,0.04843 11.5589,-1.605317 11.5589,26.82844 V 98 h 27.4433 c 27.2255,0 27.4556,0.01764 29,2.22251 2.0719,2.95811 2.0719,12.59687 0,15.55498 -1.5445,2.20513 -1.7719,2.22251 -29.0774,2.22251 l -27.5208,0 0.4249,63.75 c 0.4529,67.97126 0.6875,71.36595 5.5967,80.98866 2.6038,5.10401 8.0794,9.87474 12.856,11.20121 6.7706,1.88023 17.1202,1.24574 24.7773,-1.51898 13.3432,-4.81781 14.5,-4.36123 14.5,5.72319 0,9.55247 -2.5977,12.56593 -13.3539,15.4914 -6.4501,1.75428 -22.4455,2.5207 -29.4465,1.41091 z M 155.5,293.32638 c -4.69026,-1.27012 -4.5,2.86886 -4.5,-97.89212 v -95.32085 l 2.22251,-1.556706 c 2.92711,-2.050231 15.58761,-2.146422 18.33636,-0.139314 1.71684,1.253617 1.9989,3.04923 2.44113,15.54027 l 0.5,14.12288 5.5,-5.65907 c 12.81454,-13.18514 27.44369,-22.739185 39.71066,-25.934324 7.42957,-1.935158 23.23571,-1.908802 30.82924,0.05141 16.17504,4.175459 29.59027,14.922289 36.34912,29.118979 l 3.38901,7.11849 8.72468,-8.72468 c 14.94851,-14.9485 28.97709,-24.254427 41.45739,-27.500935 7.64156,-1.987805 23.34944,-2.002354 31.0798,-0.02879 21.01272,5.364571 35.62563,20.798361 41.42636,43.753491 3.46338,13.70557 4.03374,26.17964 4.03374,88.22006 0,71.31168 1.18957,65.00483 -12.26088,65.00483 -5.49889,0 -8.98433,-0.4575 -10.01681,-1.31482 -1.40738,-1.16862 -1.63064,-8.6741 -2.00787,-67.5 -0.47027,-73.33505 -0.56771,-74.55324 -7.05081,-88.14967 -6.49893,-13.62962 -16.66764,-20.57345 -31.25499,-21.34288 -10.01687,-0.52834 -16.69285,1.25248 -25.12415,6.70189 -7.06343,4.56532 -18.99225,15.60104 -27.4352,25.38116 L 296,154.05135 v 67.36354 c 0,79.44073 1.25111,72.08511 -12.26088,72.08511 -5.5301,0 -8.98248,-0.45597 -10.02846,-1.32449 -1.42376,-1.18222 -1.63615,-8.48606 -1.97735,-68 -0.41969,-73.20386 -0.44664,-73.55489 -6.66652,-86.84648 -3.85168,-8.23084 -11.6478,-16.46331 -18.365,-19.39287 -6.95724,-3.03425 -19.33844,-3.76512 -26.83993,-1.58438 -10.5978,3.08087 -24.12449,13.81395 -38.50254,30.55082 L 175,154.3052 v 67.69241 c 0,78.47383 1.08678,71.27871 -10.82345,71.65784 -3.6721,0.11689 -7.57655,-0.0312 -8.67655,-0.32907 z m 1003.5282,-0.37841 c -1.3594,-0.57618 -2.8151,-1.58768 -3.2347,-2.24778 -0.4196,-0.66011 -0.7698,-39.78769 -0.7782,-86.95019 L 1155,118 h -15.551 -15.5511 l -1.5542,-3.71984 c -1.894,-4.53293 -1.3089,-11.55615 1.193,-14.32074 1.6078,-1.776574 3.1447,-1.95942 16.47,-1.95942 l 14.6968,0 0.6029,-20.75 c 0.7124,-24.516429 2.7096,-35.846276 8.3205,-47.202155 6.1004,-12.346404 14.6489,-19.347313 28.9158,-23.6810489 9.0468,-2.7480673 28.6476,-2.5605591 38.0012,0.3635326 9.5013,2.9702535 11.7468,5.4716043 12.2686,13.6661993 0.7176,11.269067 -1.0763,12.277655 -13.3125,7.484733 -5.1019,-1.998429 -7.7962,-2.35253 -18,-2.365734 -10.5026,-0.01359 -12.5183,0.261614 -16.1533,2.205451 -12.0233,6.429502 -16.2574,20.96513 -16.3209,56.029022 L 1179,98 l 24.3776,0 c 28.4183,0 27.1224,-0.477801 27.1224,10 0,10.4778 1.2959,10 -27.1224,10 H 1179 v 86.37756 c 0,76.46543 -0.1763,86.52386 -1.5362,87.65251 -1.9676,1.63295 -15.1946,2.29152 -18.4356,0.9179 z m 119,0 c -1.3594,-0.57618 -2.8151,-1.58768 -3.2347,-2.24778 -0.4196,-0.66011 -0.7698,-39.78769 -0.7782,-86.95019 L 1274,118 h -15.551 -15.5511 l -1.5542,-3.71984 c -1.894,-4.53293 -1.3089,-11.55615 1.193,-14.32074 1.6078,-1.776574 3.1447,-1.95942 16.47,-1.95942 l 14.6968,0 0.6029,-20.75 c 0.7124,-24.516429 2.7096,-35.846276 8.3205,-47.202155 6.1004,-12.346404 14.6489,-19.347313 28.9158,-23.6810489 9.0468,-2.7480673 28.6476,-2.5605591 38.0012,0.3635326 9.5013,2.9702535 11.7468,5.4716043 12.2686,13.6661993 0.7176,11.269067 -1.0763,12.277655 -13.3125,7.484733 -5.1019,-1.998429 -7.7962,-2.35253 -18,-2.365734 -10.5026,-0.01359 -12.5183,0.261614 -16.1533,2.205451 -12.0233,6.429502 -16.2574,20.96513 -16.3209,56.029022 L 1298,98 l 24.3776,0 c 28.4183,0 27.1224,-0.477801 27.1224,10 0,10.4778 1.2959,10 -27.1224,10 H 1298 v 86.37756 c 0,76.46543 -0.1763,86.52386 -1.5362,87.65251 -1.9676,1.63295 -15.1946,2.29152 -18.4356,0.9179 z m 316.4718,0.37841 c -1.1,-0.29788 -2.5625,-0.99827 -3.25,-1.55643 -0.9893,-0.8032 -1.25,-30.49123 -1.25,-142.35721 V 8.0703675 l 2.25,-1.2782457 c 1.3112,-0.7449215 5.53,-1.2692454 10.1114,-1.2566742 C 1615.263,5.5708492 1614,-4.2851165 1614,96.35632 v 86.13475 l 41.7535,-41.74465 c 32.0968,-32.08998 42.5607,-41.976142 45.2434,-42.745539 4.7514,-1.362684 17.3304,-1.264521 20.456,0.159634 3.581,1.631605 3.3062,5.451995 -0.7178,9.979045 -1.7793,2.00175 -19.7926,19.2565 -40.0296,38.34389 -32.1873,30.3588 -36.6324,34.9068 -35.5,36.32123 0.712,0.88929 19.8273,23.76749 42.4784,50.84046 22.6512,27.07297 41.9405,50.37811 42.865,51.78922 1.5495,2.36482 1.5553,2.75766 0.074,5.01891 -1.9904,3.03769 -6.4553,3.97053 -15.8031,3.3017 -4.7922,-0.34288 -7.8415,-1.12281 -9.6609,-2.47106 -1.4623,-1.08352 -22.4586,-25.96399 -46.6586,-55.28993 l -44,-53.31989 -0.2586,53.51576 c -0.3005,62.18556 0.6803,57.09173 -11.0649,57.4656 -3.6721,0.11689 -7.5765,-0.0312 -8.6765,-0.32907 z"
         id="path2" />
    </g>
  </g>
</svg>
