<?xml version="1.0" encoding="UTF-8" standalone="no"?>
<!-- Created with Inkscape (http://www.inkscape.org/) -->

<svg
   version="1.1"
   id="svg1"
   width="281.21042"
   height="225.46817"
   viewBox="0 0 281.21042 225.46817"
   sodipodi:docname="mca.svg"
   inkscape:version="1.4.3 (0d15f75, 2025-12-25)"
   xmlns:inkscape="http://www.inkscape.org/namespaces/inkscape"
   xmlns:sodipodi="http://sodipodi.sourceforge.net/DTD/sodipodi-0.dtd"
   xmlns="http://www.w3.org/2000/svg"
   xmlns:svg="http://www.w3.org/2000/svg">
  <defs
     id="defs1" />
  <sodipodi:namedview
     id="namedview1"
     pagecolor="#ffffff"
     bordercolor="#000000"
     borderopacity="0.25"
     inkscape:showpageshadow="2"
     inkscape:pageopacity="0.0"
     inkscape:pagecheckerboard="0"
     inkscape:deskcolor="#d1d1d1"
     inkscape:zoom="0.7"
     inkscape:cx="140.71429"
     inkscape:cy="110.71429"
     inkscape:current-layer="g1" />
  <g
     inkscape:groupmode="layer"
     inkscape:label="Image"
     id="g1"
     transform="translate(-11.909569,-13.76)">
    <path
       style="fill:#000000"
       d="m 124.64,239.01693 c -12.39027,-1.7022 -26.406156,-8.99465 -35.316905,-18.37535 -7.705239,-8.11161 -14.194949,-20.31299 -16.816499,-31.61689 -1.468912,-6.33383 -1.901164,-16.71684 -0.986431,-23.69481 1.13166,-8.63279 4.408656,-17.96226 9.290578,-26.44988 l 0.828262,-1.44 -9.406761,-22.4 C 67.058525,102.72 57.377036,79.608001 50.717824,63.680001 44.058613,47.752001 38.490879,34.583201 38.345083,34.416001 38.199288,34.248801 38.08,55.56986 38.08,81.796132 v 47.684128 l 0.881131,0.84418 c 1.329897,1.27412 4.565599,2.60822 9.820565,4.04908 3.768173,1.0332 10.718004,2.58648 11.57264,2.58648 0.08902,0 -0.09334,0.432 -0.405239,0.96 l -0.567086,0.96 H 35.982371 12.58273 l -0.383346,-0.84135 c -0.21084,-0.46274 -0.331849,-0.89285 -0.268908,-0.95579 0.06294,-0.0629 1.256708,-0.33112 2.652816,-0.59596 3.507801,-0.66542 11.669879,-2.8961 13.851984,-3.78572 0.992598,-0.40468 2.415888,-1.12527 3.162867,-1.60132 l 1.358143,-0.86554 0.08186,-53.65573 c 0.07606,-49.85397 0.04374,-53.704187 -0.456121,-54.339636 -1.207115,-1.534551 -9.851628,-4.505485 -17.324773,-5.954153 -1.77326,-0.343746 -3.272956,-0.673841 -3.33266,-0.733545 -0.0597,-0.0597 0.06395,-0.48716 0.274795,-0.949903 L 12.58273,13.76 H 32.957675 53.33262 l 0.338716,1.04 c 0.186293,0.572 2.859219,7.52 5.939834,15.440001 4.502393,11.57527 29.168394,75.129079 30.365888,78.239999 0.247496,0.64296 0.359896,0.70578 0.572588,0.32 0.145553,-0.264 5.698432,-14.735998 12.339734,-32.159999 6.64129,-17.424 13.06413,-34.272 14.27297,-37.44 1.20883,-3.168 3.88185,-10.188001 5.94004,-15.600001 l 3.74216,-9.84 h 21.14873 21.14873 l 0.55757,0.943891 0.55757,0.943891 -1.20857,0.206369 c -9.19011,1.569245 -19.13909,4.539649 -21.24535,6.343085 -0.5855,0.501323 -0.60323,1.799979 -0.60323,44.193536 v 43.677038 l 0.72,0.1443 c 0.396,0.0794 1.656,0.30667 2.8,0.50513 7.27099,1.26133 16.77498,4.61116 24.13586,8.50706 1.85282,0.98064 3.50514,1.69869 3.67183,1.59567 0.16669,-0.10302 0.40025,-0.65366 0.51902,-1.22364 0.25915,-1.24366 1.75979,-4.71698 2.03699,-4.71474 0.10797,8.8e-4 0.57961,0.32488 1.0481,0.72 l 0.85179,0.71841 -0.43542,2.4 c -1.70997,9.42529 -1.16935,19.80849 1.42764,27.41951 l 0.89382,2.6195 -1.37775,0.73089 c -0.75776,0.402 -1.43456,0.66322 -1.504,0.5805 -0.0694,-0.0827 -0.74678,-1.3024 -1.50521,-2.7104 -2.8284,-5.25083 -7.48712,-12.75674 -9.37215,-15.09996 -2.80797,-3.49051 -7.98452,-8.62178 -10.95052,-10.85473 -4.37855,-3.29639 -10.87735,-6.84531 -12.53517,-6.84531 -0.34083,0 -0.42483,1.45947 -0.42483,7.38104 0,4.48729 0.13018,7.62428 0.33205,8.00148 0.55148,1.03044 3.93786,2.50202 9.20492,4.00005 3.91507,1.11351 12.34693,3.01743 13.36321,3.01743 0.0968,0 -0.0792,0.432 -0.39108,0.96 l -0.56709,0.96 h -32.67964 -32.67964 l -0.38335,-0.84135 c -0.21084,-0.46274 -0.33184,-0.89285 -0.2689,-0.95579 0.0629,-0.0629 1.32833,-0.34056 2.81198,-0.61694 4.856,-0.90458 14.04627,-3.32244 16.39622,-4.31366 3.89079,-1.64116 3.55749,-0.76843 3.74132,-9.79653 0.088,-4.32186 0.0598,-7.91961 -0.0627,-7.99499 -0.37677,-0.23194 -4.72075,1.41141 -6.90601,2.61258 C 106.12815,124.10977 96.9992,139.86645 94.182945,160 c -0.814583,5.8235 -0.814171,20.52549 7.14e-4,25.44 2.292231,13.82427 7.337401,24.04453 16.191541,32.8 7.36813,7.28603 15.86735,11.37923 25.9448,12.49493 5.66821,0.62755 14.99021,-0.77371 21.17293,-3.18266 8.61918,-3.35825 15.56606,-8.35469 20.64263,-14.84691 l 0.69556,-0.88952 1.62444,0.99953 c 0.89344,0.54974 1.62444,1.20604 1.62444,1.45844 0,1.23269 -4.1694,6.59451 -7.32473,9.41954 -3.82017,3.42028 -7.08169,5.66749 -11.5634,7.96726 -7.37385,3.78386 -13.47188,5.89224 -19.99187,6.91213 -3.84396,0.60129 -15.40282,0.87792 -18.56,0.44419 z M 90.745846,126.74347 c 5.965287,-5.58024 13.123714,-10.10295 20.855084,-13.1763 2.85486,-1.13485 9.94012,-3.00463 12.63907,-3.3354 l 1.84,-0.22551 V 70.469796 c 0,-21.745054 -0.0541,-39.476462 -0.12026,-39.403129 -0.0661,0.07333 -3.32281,7.981334 -7.23705,17.573334 -3.91423,9.592 -8.55696,20.968 -10.31719,25.28 -1.76022,4.312 -3.81475,9.352 -4.56561,11.2 -0.75087,1.848 -5.558016,13.628051 -10.682552,26.177889 C 88.032802,123.84773 83.84,134.18463 83.84,134.26877 c 0,0.0841 1.068935,-1.12105 2.37541,-2.6782 1.306476,-1.55715 3.345172,-3.73835 4.530436,-4.8471 z m 56.982704,77.54459 c -0.32529,-0.4465 -0.51201,-0.89126 -0.41493,-0.98834 0.0971,-0.0971 2.09124,-0.45299 4.43145,-0.79089 4.7221,-0.68182 10.61777,-2.05852 13.4968,-3.15163 2.03816,-0.77385 4.11636,-2.44144 4.87792,-3.91415 0.2631,-0.50877 1.75264,-4.2636 3.3101,-8.34405 1.55745,-4.08045 3.36156,-8.55304 4.00914,-9.9391 0.64757,-1.38606 1.79308,-4.19406 2.54557,-6.24 2.15801,-5.86741 7.66846,-19.37614 12.80857,-31.3999 2.59577,-6.072 6.70804,-15.864 9.13839,-21.76 2.43035,-5.896 4.93398,-11.92076 5.56363,-13.38835 0.62965,-1.4676 1.14481,-2.86981 1.14481,-3.11602 0,-0.24621 -0.9554,-2.057196 -2.12312,-4.024407 -1.85941,-3.132491 -2.05915,-3.619877 -1.60808,-3.923985 0.28327,-0.19098 1.38488,-0.840845 2.44801,-1.444145 2.03209,-1.153152 6.55227,-5.489619 8.05592,-7.728504 1.46207,-2.176978 2.26643,-4.69089 2.29559,-7.174588 0.0145,-1.232 -0.088,-2.545724 -0.22771,-2.919387 -0.2145,-0.573713 -0.0931,-0.73548 0.78044,-1.04 2.06941,-0.721402 1.82321,-1.114265 6.54224,10.439387 2.42617,5.940001 6.70573,16.200001 9.51015,22.799999 2.80442,6.6 6.87472,16.32 9.04511,21.6 11.11211,27.03293 18.67084,44.17005 26.16809,59.32818 5.1208,10.35337 6.54847,11.72217 14.33106,13.74015 2.01427,0.52229 4.9223,1.19928 6.4623,1.50444 1.54,0.30515 2.8,0.67233 2.8,0.81597 0,0.14363 -0.16711,0.62793 -0.37136,1.07621 L 292.37727,205.12 H 255.36 218.34273 l -0.37136,-0.81505 c -0.20425,-0.44828 -0.37137,-0.86372 -0.37137,-0.92319 0,-0.0595 1.188,-0.28098 2.64,-0.49224 5.18029,-0.75371 13.81317,-2.59215 16.67606,-3.55131 5.34572,-1.79098 7.83874,-3.67969 8.11712,-6.14953 0.146,-1.2953 -0.62219,-3.32009 -8.7505,-23.06432 l -8.91055,-21.64436 -16.32606,0.001 -16.32607,0.001 -3.16588,8.07859 c -4.44483,11.34217 -7.68917,19.88773 -9.32373,24.55859 -0.76989,2.2 -2.06535,5.872 -2.87881,8.16 -1.64096,4.61551 -1.84974,6.47807 -0.87521,7.80797 0.89008,1.21467 3.42245,2.83319 5.31533,3.39721 2.08554,0.62143 8.78839,1.91726 12.4483,2.40658 1.54,0.20589 2.8,0.43654 2.8,0.51255 0,0.076 -0.23256,0.49314 -0.5168,0.92695 l -0.51681,0.78874 -24.84319,-0.0101 -24.8432,-0.0101 z M 225.8366,145.04 c -0.11383,-0.40334 -13.28922,-34.15801 -14.87736,-38.11502 -0.14717,-0.36671 -0.21268,-0.36671 -0.41709,0 -0.13338,0.23926 -2.93689,7.49102 -6.23003,16.11502 -7.50882,19.66397 -8.47212,22.21138 -8.47212,22.40433 0,0.0856 6.7848,0.15567 15.07732,0.15567 14.20623,0 15.06819,-0.0324 14.91928,-0.56 z"
       id="path1" />
  </g>
</svg>
