<?xml version="1.0" encoding="UTF-8" standalone="no"?>
<!-- Created with Inkscape (http://www.inkscape.org/) -->

<svg
   version="1.1"
   id="svg1"
   width="383"
   height="100"
   viewBox="0 0 383 100"
   sodipodi:docname="moorcrofts.svg"
   inkscape:version="1.4.3 (0d15f75, 2025-12-25)"
   xmlns:inkscape="http://www.inkscape.org/namespaces/inkscape"
   xmlns:sodipodi="http://sodipodi.sourceforge.net/DTD/sodipodi-0.dtd"
   xmlns="http://www.w3.org/2000/svg"
   xmlns:svg="http://www.w3.org/2000/svg">
  <defs
     id="defs1" />
  <sodipodi:namedview
     id="namedview1"
     pagecolor="#ffffff"
     bordercolor="#000000"
     borderopacity="0.25"
     inkscape:showpageshadow="2"
     inkscape:pageopacity="0.0"
     inkscape:pagecheckerboard="0"
     inkscape:deskcolor="#d1d1d1"
     inkscape:zoom="0.84"
     inkscape:cx="191.07143"
     inkscape:cy="49.404762"
     inkscape:current-layer="g1" />
  <g
     inkscape:groupmode="layer"
     inkscape:label="Image"
     id="g1">
    <g
       id="g2">
      <path
         style="fill:#b7bac5"
         d="M 52.623207,98.460477 C 52.280443,97.567248 52,92.174787 52,86.47723 c 0,-10.166242 0.866514,-13.010716 3.240328,-10.636902 0.742289,0.742289 1.655245,0.750743 3.006009,0.02784 C 62.669357,73.501036 69,78.025484 69,83.553703 c 0,1.747119 -0.972287,4.412642 -2.160637,5.923385 -1.902192,2.418245 -2.673565,2.68899 -6.448787,2.263468 l -4.288149,-0.483337 -0.301213,4.04367 c -0.313191,4.204458 -2.096644,5.977571 -3.178007,3.159588 z M 64.559875,86.548963 c 1.973115,-3.011354 1.115978,-6.283901 -2.020117,-7.712802 -3.021065,-1.376489 -6.138948,0.286803 -6.775032,3.614266 -1.104917,5.779995 5.635371,8.920967 8.795149,4.098536 z M 4.4545455,89.545455 C 2.7592953,87.850204 2,85.979378 2,83.497706 c 0,-6.472115 7.5019086,-10.776058 12.461646,-7.14941 2.546793,1.862261 1.137687,4.042825 -1.648828,2.551527 -4.9532016,-2.650873 -9.9883486,4.038761 -6.1949025,8.230472 1.4747781,1.629612 2.6139434,1.928339 5.5581655,1.457539 4.156913,-0.664717 5.914503,0.758136 2.917669,2.361993 -3.428355,1.834799 -8.0040194,1.230813 -10.6392045,-1.404372 z m 17.4587975,1.172742 c -4.587568,-3.522223 -4.995271,-8.790115 -0.990266,-12.79512 8.129422,-8.129422 19.633124,3.387665 11.813179,11.826923 -2.333183,2.517964 -8.129083,3.036453 -10.822913,0.968197 z m 8.257916,-3.373185 C 32.796586,84.969124 32.471502,81.355046 29.454663,79.378337 25.726018,76.935235 22,79.054964 22,83.61929 c 0,4.933659 4.54608,7.006465 8.171259,3.725722 z M 39,83.5 c 0,-7.76374 0.828651,-10.2043 2.530011,-7.451442 0.443728,0.717967 1.088804,0.68276 2.046031,-0.111667 1.72709,-1.433357 6.732671,-0.33185 6.134765,1.349991 -0.237199,0.667215 -1.454146,1.095296 -2.704326,0.951291 C 43.220983,77.802133 42,79.724953 42,86.122445 42,90.680272 41.663195,92 40.5,92 39.284314,92 39,90.388889 39,83.5 Z m 34.500297,5.317984 C 70.251458,84.956958 70.639929,80.694973 74.554694,77.25 c 8.090637,-7.119718 18.538657,4.560248 11.181562,12.5 -3.262998,3.521417 -8.846506,3.096119 -12.235959,-0.932016 z m 9.982565,-1.443704 c 2.407141,-2.40714 1.520493,-6.536692 -1.791253,-8.342737 -2.690063,-1.467014 -2.909727,-1.415114 -5.2135,1.231787 -4.707769,5.408951 1.949031,12.166673 7.004753,7.11095 z M 92,83.5 c 0,-7.76374 0.828651,-10.2043 2.530011,-7.451442 0.443728,0.717967 1.088804,0.68276 2.046031,-0.111667 1.72709,-1.433357 6.732668,-0.33185 6.134768,1.349991 -0.2372,0.667215 -1.45415,1.095296 -2.70433,0.951291 C 96.220983,77.802133 95,79.724953 95,86.122445 95,90.680272 94.663195,92 93.5,92 92.284314,92 92,90.388889 92,83.5 Z m 14.07258,5.865141 c -5.29214,-6.727864 0.43229,-16.500338 7.99358,-13.646268 1.71716,0.648154 3.15784,0.727706 3.48853,0.192631 C 119.17031,73.297388 120,75.87217 120,83.5 c 0,6.888889 -0.28431,8.5 -1.5,8.5 -0.825,0 -1.5,-0.54 -1.5,-1.2 0,-0.933333 -0.26667,-0.933333 -1.2,0 -2.20939,2.209387 -7.4714,1.433206 -9.72742,-1.434859 z M 115.8,87.8 C 118.59434,85.005664 116.18422,78 112.42857,78 110.47188,78 107,81.627095 107,83.671259 c 0,4.106013 6.00523,6.923515 8.8,4.128741 z M 127,85.073324 C 127,78.572356 126.83142,78 124.91667,78 c -1.23518,0 -1.90381,-0.508892 -1.64237,-1.25 0.24252,-0.6875 1.18002,-1.1875 2.08333,-1.111111 C 126.58502,75.742685 127,74.92151 127,72.388889 127,69.666667 127.39344,69 129,69 c 1.6156,0 2,0.666667 2,3.468615 0,2.672371 0.34434,3.336482 1.5,2.893011 1.04681,-0.401698 1.5,0.07422 1.5,1.575222 0,1.437978 -0.53767,2.053439 -1.62227,1.856989 -1.34953,-0.244436 -1.64375,0.796143 -1.75,6.189309 -0.10475,5.316764 -0.44257,6.544347 -1.87773,6.823324 -1.53379,0.29815 -1.75,-0.533721 -1.75,-6.733146 z m 11.63486,4.854096 c -2.64302,-2.079 -3.50151,-6.505398 -2.01368,-10.382618 C 137.37628,77.577038 142.12494,75 144.99579,75 147.87054,75 152,79.368026 152,82.408856 c 0,2.387578 -0.30002,2.513034 -6.6851,2.795454 -6.50748,0.287834 -6.63577,0.344853 -4.82823,2.146031 1.42428,1.419275 2.73466,1.709978 5.62474,1.247834 4.2103,-0.673253 5.999,0.737186 2.98234,2.351652 -3.11269,1.665862 -7.59883,1.227321 -10.45889,-1.022407 z m 9.72345,-9.436052 c -1.01768,-2.652055 -5.29493,-2.999191 -7.67151,-0.62261 L 138.55556,82 h 5.19083 c 4.21644,0 5.08217,-0.283194 4.61192,-1.508632 z M 162,79.5 c 0,-10.979769 0.20761,-12.604033 1.57514,-12.323324 1.32805,0.272604 1.57514,2.205753 1.57514,12.323324 0,10.117571 -0.24709,12.05072 -1.57514,12.323324 C 162.20761,92.104033 162,90.479769 162,79.5 Z m 9.04308,9.827636 c -5.5681,-7.078686 1.36682,-17.389733 8.96197,-13.324932 1.18698,0.635249 2.09078,0.651254 2.46629,0.04367 0.32599,-0.527466 1.2533,-0.705538 2.06069,-0.395715 C 185.64782,76.078834 186,78.072176 186,83.959455 v 7.745477 l -6.45692,0.110029 c -5.8264,0.09929 -6.65643,-0.143605 -8.5,-2.487325 z M 180.8,87.8 C 183.59434,85.005664 181.18422,78 177.42857,78 175.47188,78 172,81.627095 172,83.671259 c 0,4.106013 6.00523,6.923515 8.8,4.128741 z m 10.33836,-3.910189 c -1.75788,-4.490944 -2.97756,-8.383949 -2.71038,-8.651121 1.2867,-1.286698 3.26498,1.006153 4.97779,5.76932 l 1.89028,5.256707 2.10198,-5.229019 c 1.15608,-2.87596 2.50206,-5.298022 2.99105,-5.382358 0.48899,-0.08434 1.80485,2.256768 2.92412,5.202456 l 2.03504,5.355796 1.89585,-4.855796 c 2.16058,-5.53385 3.16204,-6.840862 4.5733,-5.968656 1.15085,0.711266 -4.89482,15.805335 -6.55178,16.357655 -0.58908,0.196362 -1.83568,-1.94504 -2.77022,-4.75867 -1.88839,-5.685421 -2.2921,-5.663094 -4.47845,0.247675 -0.83432,2.255553 -2.00418,4.263086 -2.59969,4.461184 -0.5955,0.198099 -2.52101,-3.314229 -4.27889,-7.805173 z M 124.99353,53.065659 C 114.70327,49.935506 109,42.601814 109,32.5 c 0,-19.213797 22.80547,-28.1985537 35.79789,-14.103434 8.11386,8.802499 8.11386,19.404369 0,28.206868 -5.40494,5.863674 -13.30144,8.440325 -19.80436,6.462225 z M 136,40.109047 c 1.375,-0.990384 2.89836,-3.369328 3.38524,-5.286543 1.20237,-4.734579 -0.86084,-8.821934 -5.62929,-11.15202 -6.98497,-3.413175 -13.78061,1.062092 -13.73371,9.044333 0.0508,8.646523 8.68903,12.64415 15.97776,7.39423 z M 0,39.083333 c 0,-7.654166 0.3375,-14.066666 0.75,-14.25 0.4125,-0.183333 1.6422573,-2.083773 2.732794,-4.2232 2.9871091,-5.860144 8.518219,-9.0768 15.607754,-9.0768 4.463899,0 6.495564,0.523881 8.886246,2.291389 l 3.099268,2.291388 3.707544,-2.291388 C 40.346159,10.386875 48.402753,10.621106 53.824382,14.378297 60.633702,19.097158 62,23.264668 62,39.315724 V 53 H 56.5 51 V 40.110784 c 0,-14.867702 -1.033868,-17.444117 -7,-17.444117 -5.966132,0 -7,2.576415 -7,17.444117 V 53 H 31.5 26 V 40.110784 c 0,-14.867702 -1.033868,-17.444117 -7,-17.444117 -5.966132,0 -7,2.576415 -7,17.444117 V 53 H 6 0 Z M 75.900334,51.009041 C 68.705142,47.206093 64.020288,39.501154 64.005577,31.446344 c -0.0031,-1.67951 1.185493,-5.443822 2.641245,-8.365136 7.856718,-15.7663768 29.42208,-15.627444 37.517918,0.241706 3.03524,5.949561 2.27823,15.166307 -1.71082,20.829739 -5.800592,8.235341 -17.989776,11.382704 -26.553586,6.856388 z M 92.312909,39.195281 C 94.25557,37.16758 95,35.348611 95,32.62954 c 0,-4.858183 -1.32696,-7.230137 -5.151126,-9.20769 -4.244526,-2.19493 -9.067049,-1.139708 -12.288593,2.68888 -2.913268,3.462222 -3.228235,6.696909 -1.060303,10.889228 1.946623,3.764354 4.076586,4.932313 9.062931,4.969633 3.169452,0.02372 4.653815,-0.586365 6.75,-2.77431 z m 61.047851,12.302463 c -0.31706,-0.826241 -0.39676,-6.563741 -0.17712,-12.75 0.42723,-12.033176 1.54198,-15.551876 6.68052,-21.08702 3.83429,-4.130228 7.3768,-5.665095 14.64076,-6.343414 5.36914,-0.501377 6.5519,-0.332822 7.06603,1.00698 0.95,2.475679 -5.81399,10.176846 -9.18332,10.455701 -6.24792,0.517093 -8.37361,5.70829 -8.38205,20.470009 L 164,53 h -5.03138 c -3.55321,0 -5.20075,-0.441349 -5.60786,-1.502256 z m 36.10527,0.102222 c -4.01089,-1.747347 -9.4185,-7.241962 -11.10889,-11.287627 -4.66996,-11.176795 2.25492,-24.983923 14.20921,-28.330915 6.67143,-1.867886 16.27476,0.776451 20.56306,5.662166 C 214.73387,19.471572 218,25.377221 218,26.45034 218,26.752653 215.36974,27 212.15499,27 c -4.55578,0 -6.24034,-0.436825 -7.63729,-1.980442 -5.66068,-6.254985 -16.44442,-1.477872 -16.49546,7.307365 -0.0492,8.473139 10.09932,12.807446 16.79539,7.173077 2.32016,-1.952283 4.08966,-2.5 8.07673,-2.5 2.89813,0 5.10564,0.453839 5.10564,1.04966 0,3.687807 -7.40319,12.037142 -12.3151,13.889006 -3.84478,1.44954 -12.53046,1.268157 -16.21887,-0.3387 z m 31.70547,-11.87875 c 0.3166,-12.903749 0.43866,-13.566836 3.36947,-18.304982 1.87466,-3.030691 4.62406,-5.790701 7.16861,-7.196259 4.65282,-2.570127 16.57194,-4.191517 17.67634,-2.404559 0.36658,0.593133 -0.80779,3.080106 -2.60971,5.526606 -2.41594,3.280172 -4.32654,4.727576 -7.27621,5.512207 -5.95666,1.584507 -6.90089,3.809186 -7.48951,17.645771 l -0.51049,12 -5.3285,0.304982 -5.32851,0.304982 z M 256.5,51.430599 c -10.74742,-5.578195 -15.11578,-17.066993 -10.42305,-27.412616 2.53284,-5.583916 4.45673,-7.737603 8.96956,-10.040905 8.19111,-4.1806563 16.57746,-3.384272 23.37623,2.219854 5.64954,4.65682 7.86793,9.897266 7.387,17.450089 -0.49441,7.764595 -4.13772,13.55274 -10.71702,17.026206 -5.26123,2.7776 -14.01347,3.134122 -18.59272,0.757372 z m 15.57692,-12.353676 c 2.22593,-2.225929 2.91778,-3.83579 2.90084,-6.75 -0.0564,-9.701307 -11.21936,-13.582244 -17.52217,-6.091776 -2.22683,2.646436 -2.57572,3.832545 -2.12211,7.214433 1.12524,8.389351 10.74748,11.623309 16.74344,5.627343 z M 296,41.05226 V 29 h -3.55226 l -3.55226,0 0.30226,-5.25 c 0.29503,-5.12449 0.38028,-5.257515 3.56573,-5.564363 2.69223,-0.259336 3.53297,-0.959511 4.80305,-4 0.84677,-2.0271 2.7532,-4.9675655 4.23653,-6.534367 C 304.49135,4.81168 313.21071,0 315.6681,0 c 1.60536,0 2.58367,3.6515234 2.15558,8.0457112 -0.26214,2.6907588 -0.86697,3.4666068 -3.18113,4.0806258 C 311.66827,12.915504 308,15.692519 308,17.154988 308,17.619744 309.125,18 310.5,18 c 2.3601,0 2.5,0.304224 2.5,5.436642 0,5.345736 -0.0518,5.441881 -3.10027,5.75 L 306.79946,29.5 306.64973,41 306.5,52.5 301.25,52.80226 296,53.104519 Z m 40.5,10.526464 C 329.94797,48.645616 324,39.29964 324,31.937632 324,29.497289 323.57154,29.085406 320.75,28.813358 317.55845,28.505635 317.5,28.41008 317.5,23.5 c 0,-4.897758 0.0657,-5.00635 3.21195,-5.310521 l 3.21195,-0.31052 0.28805,-8.6894796 L 324.5,0.5 328.90089,0.18512925 c 2.84393,-0.2034751 4.69587,0.15030705 5.23469,1.00000005 0.45859,0.7231789 0.84069,4.7738594 0.84911,9.0015127 l 0.0153,7.686641 3.25,0.313359 c 3.19155,0.307723 3.25,0.403278 3.25,5.313358 0,4.9477 -0.0353,5.003373 -3.37195,5.322454 -3.31885,0.317375 -3.36349,0.385534 -2.83475,4.327616 0.64277,4.792208 2.94724,7.597558 7.12537,8.674093 2.88693,0.743848 3.1004,1.121423 3.38359,5.984886 L 346.10452,53 342.80226,52.960858 C 340.98602,52.93933 338.15,52.31737 336.5,51.578724 Z m 13.16667,0.754609 C 348.53705,51.203714 348.93027,44.469727 350.2,43.2 c 0.76827,-0.768266 4.68734,-1.2 10.89301,-1.2 7.31261,0 9.82289,-0.338444 10.22186,-1.378145 C 372.24591,38.195606 369.75458,37 363.76788,37 356.35992,37 351.60207,35.010226 348.96709,30.810176 344.62119,23.882996 348.6503,14.356183 356.95847,11.91458 358.90631,11.34215 364.325,11.014694 369,11.186899 L 377.5,11.5 v 5 5 L 368,22 c -7.55556,0.397661 -9.5,0.807018 -9.5,2 0,1.15148 1.7426,1.626826 7.5,2.045849 8.41118,0.612164 12.18015,2.480701 14.19776,7.038789 C 380.90751,34.688087 381.82837,36 382.24411,36 c 1.6902,0 0.59477,6.294969 -1.73867,9.991377 C 376.74137,51.954053 373.86272,53 361.21633,53 c -5.98565,0 -11.183,-0.3 -11.54966,-0.666667 z"
         id="path8" />
      <path
         style="fill:#9fa4b0"
         d="m 53,87 c 0,-9.716164 0.900029,-13.545377 2.291667,-9.75 0.366666,1 0.723333,1 1.783333,0 2.063553,-1.946748 7.251475,-1.517503 9.202759,0.761431 2.406333,2.810392 2.259333,9.192532 -0.264336,11.476422 C 63.91179,91.389804 59.667297,91.887455 56.75,90.573953 55.239501,89.893857 55,90.348096 55,93.893011 55,96.151855 54.55,98 54,98 53.393939,98 53,93.666667 53,87 Z m 10.777494,1.443296 C 67.524346,85.818899 66.325605,79.257875 61.813824,77.695613 59.398001,76.859103 55,80.652408 55,83.57258 55,86.158393 58.154307,90 60.277494,90 c 0.702621,0 2.277621,-0.700517 3.5,-1.556704 z m -56.3122119,2.60518 c -3.267001,-1.324245 -4.8641009,-3.962312 -4.7538347,-7.85232 0.1603366,-5.656412 5.8265181,-8.84563 11.7067656,-6.589167 2.951059,1.132428 1.617969,2.490425 -1.812916,1.846787 C 7.6632586,77.526644 5,79.298002 5,83.512131 5,88.041832 8.7819541,90.876009 12.540964,89.163289 14.497753,88.271716 15,88.321045 15,89.404807 c 0,0.749062 -1.0125,1.63327 -2.25,1.964907 -2.695494,0.722364 -2.712653,0.721321 -5.2847179,-0.321238 z M 22.25,90.01096 C 19.4915,88.32907 19,87.448613 19,84.189012 19,76.70292 27.285966,73.195057 32.545455,78.454545 35.847906,81.756997 35.684146,85.4697 32.076923,89.076923 28.640125,92.513722 26.663037,92.701641 22.25,90.01096 Z m 7.764216,-1.821388 c 4.20345,-3.403747 2.273974,-10.204334 -2.886661,-10.174259 -3.854066,0.02246 -4.907519,1.050221 -5.983072,5.837156 -0.531783,2.366793 -0.722727,4.059108 -0.424319,3.7607 0.298407,-0.298407 1.483574,0.116554 2.633704,0.922136 2.728166,1.910882 3.952,1.847354 6.660348,-0.345733 z M 76.5,90.792183 C 68.836909,86.397403 71.467065,76 80.241871,76 c 8.160003,0 10.55364,11.493989 3.100804,14.889728 -3.024897,1.378236 -4.301108,1.360043 -6.842675,-0.09755 z m 7.066787,-3.095972 c 2.26185,-1.945561 2.568858,-2.80214 1.974392,-5.508726 C 85.154021,80.424769 84.423874,79.238032 83.918628,79.550291 83.413383,79.862549 83,79.641476 83,79.059017 c 0,-1.664616 -5.145889,-1.236965 -7.171259,0.595971 -3.789381,3.429342 -1.148819,9.638986 4.365495,10.266065 0.38183,0.04342 1.899478,-0.957758 3.372551,-2.224842 z m 25.898493,3.376453 C 106.23395,89.724464 104.8,87.340707 104.8,83.317228 c 0,-2.649121 0.64352,-4.257953 2.21078,-5.527044 2.56367,-2.075927 7.00129,-2.344839 8.91422,-0.540184 1.06,1 1.41667,1 1.78333,0 C 118.9369,73.899369 120,76.749663 120,83.394213 c 0,7.003567 -0.11887,7.393828 -2.25,7.386922 -1.2375,-0.004 -3.15,0.250955 -4.25,0.566589 -1.1,0.315634 -2.91562,0.191857 -4.03472,-0.27506 z M 116,88 c 1.1,-1.1 2,-3.092339 2,-4.42742 0,-2.920172 -4.398,-6.713477 -6.81382,-5.876967 -4.51179,1.562262 -5.71053,8.123286 -1.96367,10.747683 C 112.15982,90.500669 113.59308,90.406924 116,88 Z m 25.46528,3.048476 C 136.28042,88.946847 134.84439,81.163928 139.01792,77.784407 143.62805,74.051347 151,76.539613 151,81.828741 151,83.815835 150.49108,84 145,84 c -6.45943,0 -7.62772,1.216959 -4.17126,4.345012 2.09463,1.895611 5.2679,2.158349 6.85839,0.567856 0.78285,-0.782843 1.27552,-0.782319 1.76018,0.0019 0.38405,0.621413 -0.45419,1.517577 -1.95224,2.087133 -3.02916,1.151684 -3.29834,1.153765 -6.02979,0.0466 z m 7.34919,-9.773359 c -0.53553,-2.780771 -4.86931,-4.482118 -7.30512,-2.867826 -1.10514,0.732418 -2.15485,2.065403 -2.33267,2.962189 C 138.91135,82.707514 139.77657,83 144,83 c 4.33474,0 5.09425,-0.272108 4.81447,-1.724883 z m 25.65081,9.797547 c -1.11909,-0.466917 -2.65373,-1.594811 -3.41031,-2.506432 -1.8425,-2.220075 -1.51043,-8.405471 0.57496,-10.709807 1.83367,-2.026183 7.8199,-2.555642 8.9122,-0.788251 0.3631,0.587495 1.28965,0.826618 2.05902,0.531384 1.11338,-0.427243 1.39885,0.841604 1.39885,6.217541 0,5.72136 -0.26764,6.772262 -1.75,6.871585 -0.9625,0.06449 -2.65,0.36828 -3.75,0.675088 -1.1,0.306807 -2.91562,0.175809 -4.03472,-0.291108 z M 181,88 c 5.41268,-5.412679 -1.69257,-13.409363 -7.75,-8.722321 -2.13553,1.652406 -1.52388,7.417082 0.97251,9.165617 C 177.15982,90.500669 178.59308,90.406924 181,88 Z M 39,83.717467 v -7.282533 l 5,-0.217553 c 3.144937,-0.136838 5,0.196764 5,0.899165 0,0.637706 -0.889725,0.884048 -2.074213,0.574298 C 43.456384,76.783575 41,80.227924 41,86 c 0,2.75 -0.45,5 -1,5 -0.575123,0 -1,-3.094178 -1,-7.282533 z M 92.000368,83.75 92.000736,76.5 97.000368,76.289144 C 99.750166,76.173172 102,76.510672 102,77.039144 102,77.567615 100.66583,78 99.035184,78 95.360847,78 94,80.279506 94,86.434259 94,88.945416 93.55,91 93,91 92.425253,91 92.000157,87.916912 92.000368,83.75 Z M 128,84.5 c 0,-5.833333 -0.20513,-6.5 -2,-6.5 -1.1,0 -2,-0.45 -2,-1 0,-0.55 0.9,-1 2,-1 1.61905,0 2,-0.666667 2,-3.5 0,-1.925 0.45,-3.5 1,-3.5 0.55,0 1,1.522516 1,3.383369 0,2.621691 0.50653,3.550766 2.25,4.126949 l 2.25,0.743581 -2.25,0.442601 C 130.19582,78.100582 130,78.698745 130,84.569551 130,88.18985 129.56299,91 129,91 c -0.5641,0 -1,-2.833333 -1,-6.5 z m 35,-5 c 0,-7 0.3913,-11.5 1,-11.5 0.6087,0 1,4.5 1,11.5 0,7 -0.3913,11.5 -1,11.5 -0.6087,0 -1,-4.5 -1,-11.5 z m 28.72213,4.357084 c -1.52329,-3.928604 -2.52644,-7.386104 -2.22921,-7.683334 0.87569,-0.875693 2.0681,1.035796 3.5098,5.62638 0.74277,2.365072 1.68369,4.506062 2.09094,4.757756 0.40725,0.251694 1.48719,-1.790572 2.39986,-4.538368 0.91267,-2.747797 2.01802,-5.217631 2.45633,-5.488522 0.43831,-0.27089 1.6414,1.729952 2.67354,4.446316 1.03213,2.716364 2.25953,5.070208 2.72754,5.230766 0.46801,0.160557 1.52384,-1.733078 2.34629,-4.208078 1.5403,-4.63523 2.89419,-6.741928 3.76995,-5.866167 0.51037,0.51037 -4.60693,13.339259 -5.79465,14.526978 -0.35913,0.359129 -1.61736,-1.667637 -2.79607,-4.503925 C 200.6689,80.844923 199,79.485811 199,83 c 0,1.1 -0.47656,2 -1.05902,2 -0.58246,0 -0.86029,0.3375 -0.61741,0.75 0.59469,1.009996 -1.05726,5.25 -2.04546,5.25 -0.43249,0 -2.03268,-3.214312 -3.55598,-7.142916 z M 1.25,52.361095 C -0.30908097,51.702836 -0.54349587,27.453933 1,26.5 c 0.55,-0.339919 1,-1.388947 1,-2.331173 0,-2.397653 5.5707791,-8.895508 9.263468,-10.805071 4.480123,-2.316762 11.916314,-2.045248 16.397495,0.598713 l 3.717262,2.193239 3.902341,-2.193239 c 7.395705,-4.1566185 16.589241,-2.471204 22.073679,4.04668 3.881156,4.612492 4.793487,9.220074 4.453335,22.490851 L 61.5,52.5 56.25,52.80226 51,53.104519 V 39.726574 c 0,-12.69084 -0.118873,-13.489621 -2.314451,-15.55226 -2.991358,-2.810235 -6.779521,-2.76764 -9.479722,0.106593 -1.927045,2.051245 -2.171147,3.586754 -2.424314,15.25 L 36.5,52.5 h -5 -5 L 26.218487,39.530907 c -0.253167,-11.663246 -0.497269,-13.198755 -2.424314,-15.25 -2.743131,-2.919929 -6.845215,-2.919929 -9.588346,0 -1.927045,2.051245 -2.171147,3.586754 -2.424314,15.25 L 11.5,52.5 7,52.694429 C 4.525,52.801364 1.9375,52.651364 1.25,52.361095 Z M 78.029883,51.887411 C 64.229175,46.379591 60.216009,29.230203 70.194538,18.404777 c 9.058833,-9.8276733 24.417148,-8.7409698 32.151092,2.274905 7.12545,10.149158 3.13933,24.461129 -8.461112,30.379232 -4.104721,2.094073 -11.690315,2.490465 -15.854635,0.828497 z M 89.568108,41.535989 C 93.716571,39.802651 96.467039,34.4029 95.483185,29.923442 94.661969,26.184471 89.638107,22 85.970328,22 c -9.020982,0 -14.193425,9.632778 -8.832211,16.448458 3.552445,4.516202 6.975644,5.366503 12.429991,3.087531 z m 30.339172,9.137238 c -6.56817,-3.46759 -10.22837,-9.269538 -10.68911,-16.943801 -0.46611,-7.763679 2.39478,-13.792126 8.62918,-18.183343 5.68978,-4.007615 14.87827,-4.747033 20.88833,-1.680929 15.30096,7.805965 15.4215,29.402231 0.20743,37.163868 -5.43651,2.773502 -13.39001,2.624844 -19.03583,-0.355795 z M 136.6,39.6 c 4.77863,-4.778632 4.73681,-9.463193 -0.12792,-14.327924 -3.17075,-3.170745 -3.93793,-3.47293 -7.57762,-2.984746 -4.59573,0.616418 -7.17751,2.567575 -8.90005,6.726155 -2.5669,6.19706 3.19221,13.973381 10.35559,13.982777 1.91105,0.0025 3.97015,-1.116409 6.25,-3.396262 z m 17.57442,-0.518226 c 0.3195,-13.658468 0.38235,-13.998912 3.36717,-18.241515 4.44076,-6.312052 9.44114,-8.80366 17.70841,-8.823809 3.7125,-0.009 6.75,0.247485 6.75,0.570072 0,0.322588 -1.42628,2.572588 -3.16952,5 C 176.80547,20.406298 174.89977,22 173.55299,22 c -1.15939,0 -3.15564,0.733812 -4.43612,1.630693 C 165.25856,26.333162 164,30.9664 164,42.467881 V 53 h -5.07558 -5.07559 z M 189.5,51.343348 C 178.20226,45.406096 174.08524,33.197867 179.70934,22.311045 185.57903,10.948836 202.39051,8.2179398 211.65531,17.121668 214.75425,20.099838 218,24.872101 218,26.45034 218,26.752653 215.70246,27 212.89436,27 208.90729,27 207.13779,26.452283 204.81763,24.5 197.87141,18.655144 188,23.195058 188,32.234515 c 0,9.037362 10.79773,14.066427 16.5513,7.708804 C 205.90453,38.448007 207.63588,38 212.06137,38 c 5.12964,0 5.69843,0.202535 5.26145,1.873526 -0.88263,3.375178 -6.59864,9.347212 -10.75208,11.233661 -4.9691,2.256913 -13.01376,2.368205 -17.07074,0.236161 z m 32.21277,1.036087 c -1.41036,-1.410354 -0.76641,-21.975953 0.82976,-26.499983 1.81589,-5.146771 6.65521,-10.559151 11.17535,-12.498694 C 236.79496,12.060416 250,11.394398 250,12.559543 c 0,0.307748 -1.63837,2.519555 -3.64082,4.915126 -2.49981,2.990578 -4.69593,4.553525 -7.00756,4.98719 -5.51881,1.035334 -6.77594,4.111072 -7.35162,17.986627 L 231.5,52.5 l -4.53723,0.296102 c -2.49548,0.162855 -4.85798,-0.02464 -5.25,-0.416667 z m 35.29437,-0.972418 C 249.27593,48.054331 244.58266,40.687391 244.64349,32 c 0.14086,-20.116078 26.81088,-27.8704437 37.95225,-11.034697 3.01767,4.560019 4.10214,12.390056 2.42139,17.4828 -3.72037,11.272816 -17.35343,17.580196 -28.00999,12.958914 z m 12.35266,-9.78399 c 4.63039,-1.934703 7.18486,-7.442658 5.63279,-12.145466 -2.76485,-8.377599 -12.59455,-10.055693 -18.22035,-3.110521 -3.67494,4.53678 -1.07497,13.353532 4.61588,15.652891 3.01482,1.218126 4.25403,1.156427 7.97168,-0.396904 z M 296,41.063358 V 29.126717 l -3.25,-0.313359 C 289.55845,28.505635 289.5,28.41008 289.5,23.5 v -5 l 3.63571,-0.303552 c 3.06073,-0.255546 3.7225,-0.737515 4.18452,-3.047606 0.917,-4.584967 7.53116,-10.9736315 13.62903,-13.1643594 6.4231,-2.3075719 7.20326,-1.73724498 6.81126,4.9792914 -0.24572,4.210165 -0.45527,4.503334 -3.68839,5.160079 -1.88533,0.382968 -4.22705,1.74927 -5.20382,3.036226 -1.74956,2.305144 -1.73577,2.347434 0.92787,2.845447 2.47991,0.463663 2.72885,0.939824 3.00608,5.75 L 313.10452,29 309.55226,29 H 306 v 12 12 h -5 -5 z m 41.00714,10.343659 c -6.88518,-2.985798 -11.51147,-9.511559 -12.65439,-17.850048 -0.56141,-4.095984 -0.85781,-4.473558 -3.7313,-4.753198 C 317.58288,28.508066 317.5,28.367241 317.5,23.5 c 0,-4.91008 0.0584,-5.005635 3.25,-5.313358 L 324,17.873283 V 10.518429 C 324,0.6117595 324.31988,0 329.5,0 334.6847,0 335,0.60662196 335,10.581787 335,17.780053 335.07237,18 337.44098,18 c 3.54136,0 4.30172,2.087563 3.64235,10 -0.0458,0.55 -1.43333,1 -3.08333,1 -2.7491,0 -3,0.286303 -3,3.423275 0,4.270112 3.9071,9.177773 8.02703,10.082662 2.80603,0.616307 2.97297,0.92928 2.97297,5.573518 0,4.71069 -0.11728,4.918876 -2.75,4.881403 -1.5125,-0.02153 -4.32179,-0.720756 -6.24286,-1.553841 z M 350,48 v -5 h 9.87756 c 10.30785,0 12.84211,-0.961002 11.5327,-4.373252 C 370.92852,37.371347 369.39873,37 364.70874,37 349.51847,37 342.15161,25.582383 350.96929,15.705777 L 353.83136,12.5 H 365.66568 377.5 v 4.5 4.5 l -8.99247,0.292469 c -4.94586,0.160858 -9.42336,0.723358 -9.95,1.25 -1.82665,1.826649 1.121,3.082121 7.80303,3.323497 7.98216,0.288339 11.05141,2.182399 14.57007,8.991331 l 2.43063,4.703489 -2.50932,4.643106 C 377.10419,51.638516 373.8078,53 360.7656,53 H 350 Z"
         id="path7" />
      <path
         style="fill:#7a858f"
         d="M 1.7127682,52.379435 C 0.61308682,51.279753 0.88086068,28.969141 2.0440063,24.781055 3.3679254,20.014079 7.5090173,15.103092 11.67119,13.364026 16.836595,11.205782 24.160483,11.620546 28.110453,14.29501 L 31.5,16.590019 35,14.207405 c 2.977198,-2.026718 4.431966,-2.325208 9.739229,-1.998302 6.884735,0.424072 10.274569,2.29176 13.94512,7.683308 C 61.332156,23.781685 62.226703,30.390226 61.812246,43 L 61.5,52.5 h -5 -5 L 51.218487,39.530907 c -0.253167,-11.663246 -0.497269,-13.198755 -2.424314,-15.25 -2.743131,-2.919929 -6.845215,-2.919929 -9.588346,0 -1.927045,2.051245 -2.171147,3.586754 -2.424314,15.25 L 36.5,52.5 h -5 -5 L 26.218487,39.530907 C 25.96532,27.867661 25.721218,26.332152 23.794173,24.280907 21.341572,21.670233 17.418608,21.370908 14.5,23.571755 12.719265,24.914562 12.445184,26.582967 12,38.789952 L 11.5,52.5 6.9627682,52.796102 c -2.4954775,0.162855 -4.8579775,-0.02464 -5.25,-0.416667 z M 78.684977,51.983141 C 70.774286,49.608678 65,41.237867 65,32.144438 65,20.630951 73.626743,12 85.134616,12 c 9.258162,0 16.742194,5.280542 19.699154,13.899223 5.37798,15.675265 -9.935285,30.950543 -26.148793,26.083918 z M 90.032733,41.483073 C 99.772083,36.44666 95.926391,22 84.846352,22 c -8.354806,0 -12.943843,9.792461 -7.708235,16.448458 3.575071,4.544966 7.972613,5.579882 12.894616,3.034615 z M 121.5,51.63291 c -6.81372,-3.173328 -12.52059,-12.023471 -12.47804,-19.350791 0.0438,-7.539254 6.31484,-16.328623 13.73309,-19.247965 5.22371,-2.055714 13.57005,-0.887403 18.52152,2.592617 5.98904,4.209258 8.69053,9.454371 8.69053,16.873229 0,11.536782 -7.71315,19.643372 -19.23767,20.218961 -3.86057,0.192815 -7.37024,-0.220176 -9.22943,-1.086051 z m 13.52749,-10.337019 c 3.89133,-2.68199 4.9082,-4.500498 4.91847,-8.795891 0.0223,-9.305679 -10.20136,-13.817608 -17.18018,-7.582029 C 119.96196,27.42318 119.5,28.495697 119.5,32.5 c 0,4.004303 0.46196,5.07682 3.26578,7.582029 3.78647,3.383213 8.44505,3.844395 12.26171,1.213862 z M 154,40.521547 c 0,-11.294244 0.24584,-13.07282 2.39191,-17.304791 2.8278,-5.576298 4.89162,-7.601621 9.86257,-9.678618 C 169.67758,12.107876 182,11.328332 182,12.542041 c 0,1.625649 -6.75836,9.385876 -8.20295,9.418959 -2.77269,0.0635 -6.30298,2.026732 -7.84046,4.360164 -0.95649,1.451672 -1.60598,6.183709 -1.9461,14.178836 l -0.51049,12 -4.75,0.304791 -4.75,0.304791 z m 35.42926,10.648709 c -6.68401,-3.139364 -12.44422,-11.849578 -12.42368,-18.786276 0.0216,-7.296089 7.02344,-17.248364 13.6807,-19.445456 1.93911,-0.639967 6.17107,-0.972224 9.40434,-0.73835 4.67156,0.33791 6.65184,1.047421 9.64403,3.455351 C 213.40732,18.611067 218,24.441193 218,26.147883 218,26.616547 215.70246,27 212.89436,27 c -3.98707,0 -5.75657,-0.547717 -8.07673,-2.5 -8.06326,-6.784787 -20.08643,1.095435 -16.8115,11.018585 1.30708,3.960481 5.92701,7.471442 9.83958,7.477677 C 200.35595,43.000262 206,40.084986 206,38.784392 206,38.352977 208.73372,38 212.07492,38 h 6.07493 l -2.32493,4.205595 c -5.06181,9.15641 -17.20599,13.280892 -26.39566,8.964661 z m 32.23741,1.163077 c -1.08356,-1.083555 -0.76025,-20.076062 0.42165,-24.769822 1.35358,-5.37554 5.89611,-11.004756 10.96857,-13.592533 C 237.28604,11.813424 249,11.143097 249,13.058638 249,15.377223 242.62147,22 240.3884,22 c -3.42176,0 -7.3761,3.993386 -8.4169,8.5 -0.50808,2.2 -0.93452,8.1625 -0.94764,13.25 L 231,53 h -4.33333 c -2.38334,0 -4.63334,-0.3 -5,-0.666667 z m 37.01831,-0.350192 c -4.40941,-1.323522 -9.51008,-5.719979 -11.76564,-10.141246 -2.23209,-4.375255 -2.75642,-12.514318 -1.08861,-16.898265 1.54053,-4.049403 6.07082,-8.852757 10.46266,-11.093304 5.865,-2.992105 15.00458,-2.301833 20.56766,1.553384 4.58002,3.173952 9.14224,11.187432 9.13337,16.042634 -0.0263,14.427043 -13.61647,24.646862 -27.30944,20.536797 z m 11.34775,-10.500068 c 6.60766,-3.416953 7.5626,-12.121459 1.85654,-16.922792 C 264.83489,18.624412 255,23.142721 255,32.319485 c 0,3.868758 0.47773,4.892783 3.5348,7.576923 3.91251,3.435234 7.07837,3.872109 11.49793,1.586665 z M 296,41.063358 V 29.126717 l -3.25,-0.313359 C 289.63376,28.512897 289.48746,28.304502 289.19521,23.75 L 288.89042,19 h 3.48148 c 3.23684,0 3.65383,-0.37644 5.93399,-5.356964 2.69773,-5.8926387 7.57296,-10.2688061 12.54843,-11.2639003 1.75302,-0.3506027 3.443,-1.0511879 3.75552,-1.55685589 C 315.79184,-1.0902475 318,2.3851204 318,6.1579821 318,9.8340828 317.73172,10.186072 313.57034,11.969849 309.7898,13.590377 307,16.3352 307,18.434259 307,18.745416 308.37466,19 310.05479,19 c 3.02042,0 3.05136,0.05344 2.75,4.75 -0.29225,4.554502 -0.43855,4.762897 -3.55479,5.063358 L 306,29.126717 V 41.063358 53 h -5 -5 z m 42.79136,10.948234 C 331.61643,49.848754 326.67162,43.67779 324.85159,34.615207 323.79732,29.365633 323.53754,29 320.86195,29 318.09428,29 318,28.835292 318,24 c 0,-4.888889 0.0667,-5 3,-5 h 3 v -8.377555 c 0,-9.480546 0.87089,-10.95073433 6.18468,-10.44067554 L 333.5,0.5 l 0.5,9 0.5,9 3.25,0.313358 c 3.18545,0.307136 3.25,0.411402 3.25,5.25 V 29 h -3.60841 c -3.42562,0 -3.57584,0.139305 -2.96556,2.75 1.70821,7.307539 5.22114,11.25 10.02431,11.25 1.19293,0 1.54966,1.15101 1.54966,5 0,4.543986 -0.20521,4.992161 -2.25,4.914047 -1.2375,-0.04727 -3.46889,-0.453379 -4.95864,-0.902455 z M 350,48.086053 V 43 h 9.87756 c 7.5225,0 10.17184,-0.3546 11.11187,-1.487265 2.46129,-2.965668 0.48059,-4.219557 -7.47155,-4.729894 -8.77678,-0.563259 -11.97206,-2.308064 -14.85781,-8.113227 -1.64108,-3.301292 -1.69512,-4.155695 -0.5,-7.905538 C 350.38502,13.782985 354.14623,12 366.64788,12 L 377,12 v 5 5 h -9.03138 c -7.35846,0 -9.14519,0.296548 -9.64572,1.600925 -0.93899,2.446951 1.51541,3.36697 9.0271,3.383762 6.41582,0.01434 7.06051,0.22582 10.17113,3.336444 4.3448,4.344801 5.32541,9.303518 2.832,14.32085 -3.31196,6.664467 -5.96452,7.813104 -18.92268,8.194072 L 350,53.172106 Z"
         id="path6" />
      <path
         style="fill:#6d7986"
         d="M 1.359286,51.493901 C 1.0181128,50.604818 0.94860381,44.167475 1.2048215,37.188693 1.7311497,22.852721 2.7721684,19.801033 8.6711063,15.301693 11.834307,12.889003 13.25762,12.5 18.922158,12.5 c 5.134121,0 7.240823,0.472938 9.598495,2.154785 l 3.020652,2.154784 2.886002,-2.102306 c 1.88174,-1.370752 4.832357,-2.228792 8.479348,-2.465794 6.858332,-0.445695 11.376155,1.72546 15.319116,7.361993 2.644687,3.780627 2.729613,4.327874 2.854887,18.396538 l 0.129116,14.5 H 56.354887 51.5 L 51,38.666357 C 50.558887,26.461964 50.271384,24.665903 48.55887,23.416357 44.373921,20.362784 37.117432,23.06699 36.929933,27.75 c -0.03854,0.9625 -0.151036,6.925 -0.25,13.25 L 36.5,52.5 h -5 -5 L 26,38.666357 c -0.441113,-12.204393 -0.728616,-14.000454 -2.44113,-15.25 -2.484986,-1.813185 -6.632754,-1.813185 -9.11774,0 -1.712514,1.249546 -2.000017,3.045607 -2.44113,15.25 L 11.5,52.5 6.7398004,52.805208 C 3.0863707,53.039453 1.8353746,52.734568 1.359286,51.493901 Z M 76.3094,50.466891 C 69.601948,47.124426 65.803828,41.679566 65.213423,34.560061 64.146538,21.694833 72.708175,12.079708 85.282119,12.021962 c 6.367787,-0.02924 10.453179,1.82484 14.914071,6.768492 8.0377,8.907532 7.35617,21.127327 -1.617773,29.006551 C 92.144126,53.446388 84.199815,54.39885 76.3094,50.466891 Z M 92.727273,39.727273 c 1.422039,-1.42204 2.643205,-4.070501 2.95759,-6.414416 0.464623,-3.464025 0.110219,-4.476653 -2.678283,-7.652582 C 90.206379,22.471023 89.217165,22 85.319485,22 c -6.285063,0 -10.333033,4.002876 -10.287682,10.173077 0.0339,4.611872 0.98279,6.366897 4.968197,9.188942 3.360349,2.379444 9.501934,1.590592 12.727273,-1.634746 z M 121.49142,51.190528 C 114.45198,47.895097 109.01115,39.746881 109.01115,32.5 c 0,-11.592684 11.16064,-21.410563 23.04112,-20.269 18.44731,1.772553 24.485,26.386606 9.12614,37.204815 -5.41149,3.811652 -13.71263,4.551538 -19.68699,1.754713 z m 12.82432,-9.307568 c 3.77639,-1.93126 5.6385,-5.131826 5.66202,-9.73175 C 140.00782,26.273517 135.7207,22 129.79424,22 124.2537,22 119,27.110483 119,32.5 c 0,2.87451 0.75856,4.458559 3.4,7.1 3.63523,3.635233 7.73542,4.420796 11.91574,2.28296 z m 20.39798,10.497428 C 154.32117,51.987841 154,46.430022 154,40.029678 c 0,-10.553712 0.24416,-12.126963 2.62291,-16.900483 3.75215,-7.52958 8.32381,-10.297796 18.03599,-10.921086 4.26259,-0.273557 7.43412,-0.09698 7.22105,0.402044 -1.67829,3.930582 -6.68862,9.319003 -8.69569,9.351896 -6.76988,0.110947 -8.54095,3.690066 -9.17324,18.537951 l -0.51102,12 -4.03628,0.297055 c -2.21995,0.16338 -4.35745,-0.02412 -4.75,-0.416667 z m 36.46217,-0.465758 c -1.82826,-0.555622 -5.24038,-2.926486 -7.58248,-5.268586 -8.36881,-8.368815 -8.33933,-20.97759 0.0673,-28.781882 8.33612,-7.738825 19.99682,-7.9445265 28.18429,-0.497189 2.44674,2.225557 5.15499,6.753047 5.15499,8.61781 0,1.695418 -10.11167,0.02218 -12.88486,-2.132139 -3.638,-2.826128 -9.44373,-2.429465 -13.13409,0.897356 -4.03435,3.636922 -4.805,8.585498 -2.0284,13.024926 3.56417,5.698653 9.54951,6.730757 15.52332,2.676821 3.01592,-2.046657 4.73576,-2.489546 8.73732,-2.25 l 4.98227,0.298253 -3.34778,4.930349 c -1.92965,2.841842 -4.98513,5.768032 -7.21307,6.907871 -4.52467,2.314863 -11.7514,3.007032 -16.45882,1.57641 z m 30.1686,-0.459289 c -0.32601,-0.849562 -0.3903,-6.587062 -0.14287,-12.75 0.60758,-15.133284 3.80267,-21.302225 13.02991,-25.157613 C 238.46718,11.77796 249,11.435289 249,13.067256 c 0,2.142793 -6.52716,8.896924 -8.61514,8.914718 -3.26691,0.02784 -7.20716,3.717206 -8.34484,7.813512 -0.56588,2.037483 -1.03138,8.092014 -1.03444,13.454514 L 231,53 h -4.53138 c -3.16364,0 -4.7103,-0.466239 -5.12413,-1.544659 z m 37.1051,0.277965 C 249.80211,48.237053 245,41.242943 245,32.144438 c 0,-19.073266 23.03705,-27.255639 35.8026,-12.716482 10.83883,12.344743 2.58641,31.822965 -14.03452,33.125737 -2.89745,0.227106 -6.64076,-0.142068 -8.31849,-0.820387 z m 10.98485,-9.70838 c 3.1688,-1.204774 6.55682,-6.561595 6.56182,-10.374926 0.003,-1.911054 -1.11641,-3.970147 -3.39626,-6.25 -4.61216,-4.612155 -10.35508,-4.79877 -14.67692,-0.476923 -8.28396,8.283953 0.47563,21.297626 11.51136,17.101849 z m 27.23223,10.308407 C 296.3,51.966667 296,46.595178 296,40.396692 V 29.126717 l -3.25,-0.313359 C 289.63376,28.512897 289.48746,28.304502 289.19521,23.75 l -0.30479,-4.75 3.50799,0 c 3.2196,0 3.67941,-0.387504 5.59299,-4.713464 1.14674,-2.592406 2.8553,-5.56529 3.79679,-6.60641 2.17275,-2.4026604 7.75934,-5.2099062 11.96181,-6.0107723 L 317,1.05 v 4.866592 c 0,4.400259 -0.24781,4.928788 -2.58612,5.515667 C 311.65404,12.124934 307,16.219282 307,17.954545 307,18.529545 308.37466,19 310.05479,19 c 3.02042,0 3.05136,0.05344 2.75,4.75 -0.29225,4.554502 -0.43855,4.762897 -3.55479,5.063358 L 306,29.126717 V 41.063358 53 h -4.33333 c -2.38334,0 -4.63334,-0.3 -5,-0.666667 z M 339,51.836123 C 331.03148,49.54655 325,41.510961 325,33.184276 325,29.068913 324.94236,29 321.5,29 H 318 v -4.936642 c 0,-4.838598 0.0645,-4.942864 3.25,-5.25 L 324.5,18.5 324.78974,9.6944441 325.07949,0.88888825 329.28974,1.1944441 333.5,1.5 334,10 l 0.5,8.5 3.30205,0.31724 c 3.27081,0.31424 3.29918,0.361534 3,5 -0.2909,4.509866 -0.42566,4.6946 -3.65008,5.00343 -3.26004,0.312242 -3.33041,0.414643 -2.67726,3.896199 C 335.61723,38.807031 339.74659,43 344.60184,43 c 1.1745,0 1.44038,1.047863 1.20295,4.741006 -0.33875,5.269284 -1.10771,5.732043 -6.80479,4.095117 z m 11.66667,0.49721 C 350.3,51.966667 350,49.716667 350,47.333333 V 43 h 9.87756 c 7.5225,0 10.17184,-0.3546 11.11187,-1.487265 2.17849,-2.624919 0.43839,-4.509022 -4.20805,-4.556286 C 354.07697,36.827217 348,32.780277 348,24.44904 348,14.989427 352.56376,12 367.00513,12 h 10.10445 l -0.30479,4.75 -0.30479,4.75 -8,0.194168 c -4.4,0.106792 -8.5938,0.219292 -9.31955,0.25 -0.78575,0.03325 -1.19028,0.966036 -1,2.305832 0.29123,2.050588 0.98426,2.295066 7.81955,2.758486 4.125,0.279667 8.44877,1.048893 9.60838,1.709392 5.62229,3.202381 7.60574,12.792904 3.7372,18.070408 -3.48909,4.759859 -7.7878,6.208434 -18.42891,6.21016 -5.27084,8.55e-4 -9.88334,-0.298446 -10.25,-0.665113 z"
         id="path5" />
      <path
         style="fill:#546170"
         d="M 2.1796072,37.75 C 2.4758689,23.64859 2.6758069,22.253513 4.8342148,19.227361 9.835184,12.215852 19.971175,10.01368 27.5,14.302935 l 4,2.278844 4,-2.274439 c 7.539716,-4.287156 17.666647,-2.088921 22.665785,4.920021 2.15941,3.027557 2.358272,4.419003 2.655448,18.580339 L 61.142466,53.115401 56.321233,52.8077 51.5,52.5 51.324135,39.82278 C 51.227409,32.850309 50.65192,26.218123 50.04527,25.084588 48.760172,22.68336 45.053047,21.518886 41.518189,22.406079 37.214692,23.486188 36,27.580306 36,41.005131 V 53.109582 L 31.317456,52.804791 26.634911,52.5 26.890017,40.840657 C 27.088772,31.756715 26.793745,28.501828 25.554372,26.105144 22.786018,20.751737 15.255896,20.670685 12.518189,25.964827 11.407031,28.113569 11,32.131229 11,40.95034 V 53 H 6.4296072 1.8592144 Z M 78.624765,51.530892 C 76.493386,50.771164 73.177227,48.653416 71.255524,46.824784 58.475522,34.663746 66.164716,13.483707 83.823371,12.206395 102.56706,10.850599 112.89792,33.168199 99.65002,46.396459 93.493852,52.5435 86.355841,54.286624 78.624765,51.530892 Z M 92.6,39.6 C 97.510009,34.689991 97.114233,28.212238 91.63296,23.772236 88.651978,21.357547 81.925434,21.484213 78.70725,24.015637 70.564453,30.420762 75.24443,42.83321 85.85,42.959962 88.357733,42.989934 90.054838,42.145162 92.6,39.6 Z M 122,51.461111 C 113.87443,47.812879 109.6537,41.330795 109.6537,32.5 c 0,-8.958329 4.34771,-15.514737 12.56418,-18.946952 8.35677,-3.49082 19.42139,-0.07748 24.46775,7.548096 2.43479,3.67922 2.81437,5.228841 2.81437,11.489685 0,6.430523 -0.33427,7.710115 -3,11.48397 -1.65,2.335896 -4.75942,5.156102 -6.90983,6.267124 C 134.4737,52.985386 126.52183,53.491329 122,51.461111 Z M 136.29275,40.984363 C 144.35908,34.639385 139.95478,22 129.67749,22 124.25784,22 119,27.170435 119,32.5 c 0,5.37468 5.25474,10.5 10.76514,10.5 2.4612,0 4.93706,-0.764513 6.52761,-2.015637 z m 18.13673,11.111785 c -0.23621,-0.236215 -0.4196,-5.641981 -0.40752,-12.012815 0.0172,-9.050274 0.42164,-12.46315 1.84961,-15.606618 2.21835,-4.883379 6.98294,-9.55127 11.37547,-11.144595 3.6029,-1.306899 15.11257,-1.766235 14.58629,-0.58212 -1.74537,3.927092 -6.67701,9.17973 -8.64907,9.212049 C 166.19894,22.076527 164,26.59868 164,40.849646 v 10.948967 l -4.57052,0.363508 c -2.51378,0.199929 -4.76378,0.170241 -5,-0.06597 z M 192,51.876191 c -8.61356,-2.573518 -14,-9.988051 -14,-19.271253 0,-6.576262 1.22758,-10.14175 4.81362,-13.981037 9.34713,-10.0072377 26.69877,-8.11418 32.78139,3.576439 0.77275,1.485187 1.40527,3.060187 1.40561,3.5 0.001,1.565186 -10.44708,0.09363 -12.87061,-1.812711 C 202.63056,22.708162 200.13152,22 197.46873,22 c -3.62632,0 -4.72417,0.526895 -7.36514,3.534796 -3.42567,3.901629 -3.87203,7.078532 -1.6093,11.45416 3.31205,6.4048 10.93556,8.044566 16.32334,3.511044 2.22799,-1.874728 4.12299,-2.5 7.57673,-2.5 5.22192,0 5.5503,0.735446 2.51861,5.640814 -4.14401,6.705154 -14.9887,10.602952 -22.91297,8.235377 z m 30.24404,0.374972 c -1.44416,-0.482984 -0.37866,-23.5534 1.29108,-27.954564 1.92747,-5.080518 7.06002,-9.812546 12.18755,-11.236471 C 240.66085,11.688784 249,11.69326 249,13.067256 c 0,0.586991 -1.4625,2.828879 -3.25,4.981974 -2.22417,2.679082 -4.06299,3.920408 -5.82569,3.932744 C 237.54089,21.998654 234.57218,24.372672 232.39877,28 231.90444,28.825 231.275,34.629085 231,40.897967 l -0.5,11.397967 -3.75596,0.102033 c -2.06578,0.05612 -4.09078,-0.0099 -4.5,-0.146804 z m 37.5986,-0.225857 C 245.47207,47.68396 240.19259,30.243602 249.79457,18.832298 258.79133,8.1402555 277.01388,10.645171 283.75078,23.5 c 2.29946,4.387643 2.01968,13.114889 -0.5832,18.192068 -4.31966,8.425932 -14.58496,12.973585 -23.32494,10.333238 z M 271.88927,40.439719 C 279.53094,34.009679 275.36867,22 265.4985,22 c -7.72372,0 -12.79676,6.536215 -10.49237,13.518585 2.34623,7.109129 11.21177,9.693277 16.88314,4.921134 z m 24.82445,11.940669 C 296.32117,51.987841 296,46.595178 296,40.396692 V 29.126717 l -3.25,-0.313359 C 289.61124,28.510725 289.5,28.345978 289.5,24 c 0,-4.34618 0.11112,-4.510713 3.2507,-4.813411 2.85147,-0.274919 3.56944,-0.987168 5.84595,-5.799306 2.99947,-6.3403515 8.06306,-10.2636974 14.33184,-11.1045176 L 317,1.7366618 v 4.5522138 c 0,4.2407984 -0.2044,4.5971064 -2.98781,5.2084484 C 311.24871,12.104285 307,16.125993 307,18.134859 307,18.610686 308.37466,19 310.05479,19 c 3.02042,0 3.05136,0.05344 2.75,4.75 -0.29159,4.544221 -0.44423,4.763474 -3.52358,5.061031 l -3.2188,0.311031 -0.2812,11.688969 L 305.5,52.5 l -4.03628,0.297055 c -2.21995,0.16338 -4.35745,-0.02412 -4.75,-0.416667 z m 43.05032,-0.364926 c -8.18052,-2.496604 -13.50991,-9.172183 -14.63578,-18.332749 -0.59765,-4.862722 -0.77441,-5.11348 -3.62826,-5.147232 -2.85731,-0.03379 -3.01437,-0.258207 -3.30205,-4.718241 -0.29918,-4.638466 -0.27081,-4.68576 3,-5 L 324.5,18.5 325,10.07959 325.5,1.6591801 h 4 4 l 0.5,8.4204099 0.5,8.42041 3.30205,0.31724 c 3.27081,0.31424 3.29918,0.361534 3,5 -0.28727,4.453664 -0.44882,4.68569 -3.30205,4.742653 -2.85865,0.05707 -2.98841,0.245536 -2.75396,4 0.31039,4.970674 2.97132,8.617984 7.34762,10.071337 3.18052,1.056236 3.40634,1.419951 3.40634,5.486305 0,4.75348 -0.90886,5.371103 -5.73596,3.897927 z M 350,47.533832 v -4.466169 l 10.73814,-0.283831 c 9.54037,-0.252172 10.77782,-0.490883 11.09379,-2.140052 0.59238,-3.091939 -1.53073,-4.090311 -10.02579,-4.714524 -7.52085,-0.552627 -8.32946,-0.831342 -10.96295,-3.778722 C 348.71471,29.76835 348,27.954421 348,24.934564 348,15.295953 352.94375,12 367.40113,12 L 377,12 v 4.5 4.5 l -8.25,0.01531 c -9.00695,0.01672 -11.13401,0.740778 -10.58889,3.604514 0.30149,1.583856 1.5384,1.960311 7.84839,2.388659 4.11978,0.279667 8.49834,1.080507 9.73015,1.779644 3.21494,1.824706 5.26035,6.398266 5.26035,11.76221 0,3.954515 -0.50832,5.157975 -3.4,8.04966 L 374.2,52 H 362.1 350 Z"
         id="path4" />
      <path
         style="fill:#364759"
         d="M 2.4155386,52.083333 C 2.1869924,51.854167 2,45.622175 2,38.234462 2,22.675826 3.0491595,19.319382 9.1808708,15.261608 14.777804,11.557732 21.286266,11.190235 27,14.255459 l 4.5,2.414098 4.398939,-2.334779 C 38.318356,13.05065 41.88878,12 43.833215,12 c 5.629009,0 11.836184,3.579732 14.709873,8.483312 2.403466,4.101204 2.502467,4.901406 2.235866,18.07185 L 60.5,52.335797 l -4,0.0017 -4,0.0017 L 52,39.194862 c -0.45007,-11.83176 -0.719136,-13.363229 -2.694444,-15.33627 -2.8747,-2.8714 -7.736412,-2.8714 -10.611112,0 C 36.719136,25.831633 36.45007,27.363102 36,39.194862 l -0.5,13.144345 h -4 -4 L 27,39.194862 c -0.45007,-11.83176 -0.719136,-13.363229 -2.694444,-15.33627 -2.8747,-2.8714 -7.736412,-2.8714 -10.611112,0 C 11.71963,25.83114 11.449958,27.363863 11,39.172908 l -0.5,13.12239 -3.8344614,0.102351 c -2.1089538,0.05629 -4.0214538,-0.08515 -4.25,-0.314316 z M 79.691875,51.570328 C 66.880852,48.131405 60.992358,32.165448 68.404264,20.965303 77.737565,6.8617328 100.30428,10.478286 104.5262,26.754224 108.63981,42.612594 95.443983,55.798739 79.691875,51.570328 Z M 92.6,39.6 c 2.639992,-2.639992 3.4,-4.22609 3.4,-7.09563 0,-4.964292 -3.162089,-9.173043 -7.975268,-10.615106 -3.348913,-1.003359 -4.321286,-0.90017 -7.164389,0.760291 -1.809265,1.056668 -4.15412,3.401523 -5.210788,5.210788 -1.659937,2.842206 -1.763473,3.816067 -0.761316,7.160967 C 77.416027,43.458314 86.415278,45.784722 92.6,39.6 Z m 30.98542,12.158387 C 118.3256,50.367831 111.34327,43.346717 110.44187,38.541819 107.66766,23.754002 115.94351,12.466275 129.5,12.547764 c 6.70341,0.04029 10.7161,1.74181 15.12572,6.413812 7.70763,8.166254 6.83851,21.033581 -1.94141,28.74245 -5.56543,4.886515 -11.32583,6.109347 -19.09889,4.054361 z m 13.44029,-11.630252 c 3.58893,-3.588933 4.56533,-7.287021 2.95221,-11.18144 -1.85209,-4.471335 -5.56212,-6.950399 -10.36278,-6.924459 -10.73695,0.05802 -14.40162,12.808185 -5.66103,19.695961 0.85024,0.670008 3.49301,1.232508 5.87281,1.25 3.45585,0.0254 4.90508,-0.546349 7.19879,-2.840062 z m 56.20988,11.890253 c -15.73024,-3.718517 -20.70593,-24.871835 -8.30484,-35.306661 8.90757,-7.495232 23.04609,-5.526235 29.60264,4.122606 C 215.89003,22.830798 217,24.809808 217,25.232135 217,25.654461 214.59474,26 211.65499,26 207.63193,26 205.87501,25.519368 204.5513,24.056681 198.71602,17.608778 187,23.581581 187,33.004292 c 0,2.301001 0.9519,4.147611 3.4,6.595708 4.3665,4.3665 9.88829,4.71119 14.41763,0.9 2.22799,-1.874728 4.12299,-2.5 7.57673,-2.5 3.22502,0 4.60564,0.409224 4.60564,1.365141 0,1.43712 -3.39409,6.229092 -5.97651,8.437985 -4.10816,3.513941 -12.4212,5.483912 -17.7879,4.215262 z m 66.46825,-0.445022 c -16.1536,-4.336773 -19.8245,-26.188224 -6.03165,-35.904176 8.69835,-6.1272941 20.78861,-4.09983 27.75412,4.6542 2.637,3.314098 3.08705,4.779344 3.37867,11 0.30809,6.572005 0.0821,7.572851 -2.68266,11.879956 -4.86371,7.577003 -13.44232,10.779858 -22.41848,8.37002 z M 272.6,39.6 c 3.85143,-3.851425 4.41194,-7.742441 1.83358,-12.728438 -1.85811,-3.593199 -7.56657,-6.301359 -11.32561,-5.373001 -1.43438,0.354247 -3.83987,1.815812 -5.34552,3.247923 C 250.62732,31.533119 255.37655,43 265.32251,43 c 3.07636,0 4.57996,-0.702473 7.27749,-3.4 z m 23.96055,12.627219 C 296.25225,51.918915 296,46.341667 296,39.833333 V 28 h -3 c -2.88889,0 -3,-0.166667 -3,-4.5 0,-4.43559 0.0478,-4.5 3.34171,-4.5 3.0007,0 3.45745,-0.3863 4.47587,-3.785481 C 299.83704,8.4741656 307.99449,2 314.46788,2 316.80224,2 317,2.3514453 317,6.5 317,10.273494 316.6895,11 315.07673,11 312.75113,11 307,15.644404 307,17.522471 c 0,0.739577 1.2375,1.487074 2.75,1.661107 2.46072,0.283136 2.78235,0.763494 3.0575,4.566422 L 313.115,28 h -3.52672 l -3.52672,0 -0.28078,12.25 -0.28078,12.25 -4.18945,0.143886 c -2.30419,0.07914 -4.44169,-0.108363 -4.75,-0.416667 z m 43.9522,-0.41291 C 331.95943,49.923041 326.29897,43.238774 325.12826,33.647233 324.52719,28.72273 324.35937,28.48644 321.25,28.186642 318.11878,27.884735 318,27.711138 318,23.436642 318,19.032861 318.02592,19 321.5,19 H 325 V 10.5 2 h 4.5 4.5 v 8.5 8.5 h 3.5 c 3.47408,0 3.5,0.03286 3.5,4.436642 0,4.274496 -0.11878,4.448093 -3.25,4.75 -3.0731,0.296302 -3.24336,0.522375 -3.12794,4.15351 0.15336,4.825152 3.06153,8.828333 7.4716,10.284895 2.97055,0.981115 3.44705,1.605662 3.72456,4.881779 0.40331,4.761248 -0.37939,5.396716 -5.30547,4.307483 z M 154,41.681501 c 0,-13.345273 1.71754,-19.290148 6.93494,-24.003759 2.15793,-1.949556 5.64285,-4.022085 7.74428,-4.605618 4.19002,-1.163503 11.62804,-1.431531 12.60534,-0.454232 C 182.32071,13.654043 174.70423,22 172.7225,22 166.25706,22 164,26.903643 164,40.95034 V 52 h -5 -5 z m 68,-2.024217 c 0,-10.991081 0.2548,-12.825353 2.32677,-16.75 3.54032,-6.705929 8.74245,-9.861779 17.46115,-10.592723 3.96664,-0.33255 7.21208,-0.327525 7.21208,0.01117 0,0.33869 -1.43663,2.653957 -3.1925,5.145037 -2.34538,3.327422 -3.87112,4.537675 -5.75,4.561039 C 233.60156,22.112085 231,27.689625 231,41.45034 V 52 H 226.5 222 Z M 350,47.5 V 43 h 10.53138 c 8.82764,0 10.63295,-0.264657 11.15915,-1.635923 1.3015,-3.391653 -1.07197,-4.841764 -8.79354,-5.372563 -8.44175,-0.580304 -11.24551,-1.831002 -13.38664,-5.971498 -2.58551,-4.999836 -1.95254,-9.566571 1.91064,-13.784701 L 354.84199,12.5 365.92099,12.161524 377,11.823048 V 16.411524 21 h -8.96482 c -7.69347,0 -9.10498,0.261903 -9.95319,1.846804 -1.549,2.894326 0.6385,4.153196 7.21688,4.153196 7.01092,0 11.6594,1.966487 13.99507,5.92045 3.54278,5.997446 0.87866,15.92283 -4.8595,18.104476 C 373.02389,51.561217 366.9491,52 360.9349,52 H 350 Z"
         id="path3" />
      <path
         style="fill:#1c2e42"
         d="m 126,51.97423 c -10.04425,-1.769761 -16.02649,-9.142564 -15.97804,-19.692111 0.0392,-8.545726 5.50472,-16.53616 12.83746,-18.768169 3.91467,-1.191584 12.90618,-0.686522 15.96829,0.896954 6.04219,3.124539 11.16114,11.420926 11.16114,18.089096 0,6.132282 -5.00991,14.835354 -10.1117,17.565746 C 136.89549,51.661485 129.77938,52.640143 126,51.97423 Z M 137.5,39.957743 C 145.33341,32.134247 137.05888,18.515254 126.57445,21.975431 121.70212,23.583443 119,27.306729 119,32.412352 c 0,4.918508 2.10077,8.274609 6.3783,10.18971 4.22756,1.892728 8.51549,0.957326 12.1217,-2.644319 z M 2,38.967881 C 2,30.284587 2.4508442,24.856741 3.3510444,22.702258 5.27939,18.087078 11.110573,13.326063 15.806501,12.532691 c 4.538766,-0.766819 11.372518,0.773161 13.199455,2.974486 1.577727,1.901044 3.410361,1.901044 4.988088,0 1.826937,-2.201325 8.660689,-3.741305 13.199455,-2.974486 4.695928,0.793372 10.527111,5.554387 12.455457,10.169567 C 60.549156,24.856741 61,30.284587 61,38.967881 L 61,52 H 56.5 52 V 39.423077 c 0,-12.567476 -0.0022,-12.579119 -2.923077,-15.5 -3.697319,-3.697319 -6.456527,-3.697319 -10.153846,0 C 36.002196,26.843958 36,26.855601 36,39.423077 V 52 H 31.5 27 V 39.423077 c 0,-12.567476 -0.0022,-12.579119 -2.923077,-15.5 -3.697319,-3.697319 -6.456527,-3.697319 -10.153846,0 C 11.002196,26.843958 11,26.855601 11,39.423077 V 52 H 6.5 2 Z M 75.732441,49.922906 C 67.737495,45.702782 63.38862,35.321672 65.98513,26.655296 c 1.670342,-5.575105 8.330016,-12.124524 13.836272,-13.607205 8.384289,-2.257654 16.472829,0.537907 21.812768,7.538928 2.57827,3.380281 2.86583,4.526254 2.86583,11.420638 0,6.803813 -0.32096,8.126492 -2.86163,11.792675 -5.393774,7.783218 -17.389094,10.618177 -25.905929,6.122574 z M 88.504864,43 c 0.73771,0 2.725905,-1.384615 4.418213,-3.076923 5.334146,-5.334146 3.892311,-13.898703 -2.934121,-17.428788 -3.652004,-1.888525 -5.378366,-1.877867 -9.458726,0.05839 -6.674041,3.16704 -8.420462,12.383461 -3.264408,17.227323 2.692378,2.529357 6.739563,4.257411 8.565965,3.657468 C 86.564271,43.196862 87.767155,43 88.504864,43 Z m 65.690306,-3.25 c 0.35624,-9.994959 0.8306,-13.009205 2.57687,-16.374209 2.38692,-4.59952 7.24796,-9.132725 10.55503,-9.843188 4.57753,-0.983399 13.67481,-1.005136 13.64498,-0.0326 -0.0627,2.043342 -5.86109,7.316718 -8.7406,7.949166 C 165.50397,22.926769 163,28.70268 163,42.743398 V 52 h -4.62072 -4.62072 z m 35.21233,10.729825 c -3.49844,-1.535159 -9.07466,-7.474203 -10.47449,-11.156015 -1.50134,-3.948835 -1.03718,-11.497693 0.98011,-15.939898 3.32325,-7.318034 13.04584,-12.356209 20.99611,-10.880027 6.88418,1.278235 13.30802,6.185274 15.37692,11.746115 1.08243,2.90939 -7.26538,2.382438 -11.88129,-0.75 -4.22059,-2.864172 -7.27806,-3.134049 -11.39382,-1.005711 -6.93108,3.584203 -8.1297,11.223223 -2.69202,17.15676 2.81287,3.069368 3.9647,3.621678 7.55295,3.621678 3.21207,0 4.89806,-0.636285 6.9857,-2.636363 C 207.03231,38.552921 208.59417,38 212.30472,38 214.88712,38 217,38.247347 217,38.54966 c 0,1.393409 -3.03884,6.158522 -5.15499,8.083367 -5.80059,5.276226 -15.42122,6.925634 -22.43751,3.846798 z M 222,40.114192 c 0,-11.071606 0.1917,-12.253267 2.79841,-17.25 3.58709,-6.875985 8.28919,-9.655578 16.70159,-9.872953 3.3,-0.08527 6.37026,-0.118184 6.8228,-0.07314 2.12462,0.21148 -5.72329,7.645421 -9.54992,9.046178 -6.3364,2.319468 -7.76939,5.87564 -7.77133,19.285722 L 231,52 h -4.5 -4.5 z m 34.5,10.279343 c -13.03541,-7.111801 -15.40703,-22.693903 -4.92467,-32.356205 13.88156,-12.7955812 34.58943,-2.816789 33.2275,16.011802 -0.47766,6.603562 -3.16108,11.287252 -8.60327,15.016301 -4.51319,3.092484 -15.15104,3.809665 -19.69956,1.328102 z m 14.08068,-8.53475 c 4.86267,-2.373309 7.02179,-11.125922 3.85862,-15.64199 C 272.57423,23.554039 267.93039,21 264.95395,21 c -3.25943,0 -7.63459,2.991788 -9.53459,6.519874 -3.09483,5.746765 -0.11169,12.703511 6.58115,15.347352 2.58724,1.022026 5.00128,0.738301 8.58017,-1.008441 z M 296.78174,40.25 296.5,28.5 293.25,28.186642 C 290.11878,27.884735 290,27.711138 290,23.436642 290,19.05201 290.04012,19 293.42245,19 c 3.02938,0 3.55607,-0.404892 4.58593,-3.525404 C 300.29456,8.5474217 308.33751,2.0845536 314.75,2.021962 316.74382,2.0025005 317,2.4981224 317,6.375 c 0,4.035671 -0.22675,4.42035 -2.9235,4.9597 C 310.9618,11.95764 307,15.514867 307,17.688561 307,18.420763 308.1042,19 309.5,19 c 2.2963,0 2.5,0.366667 2.5,4.5 0,4.333333 -0.11111,4.5 -3,4.5 h -3 v 12 12 h -4.46826 -4.46827 z M 337.5,50.798285 C 330.5981,48.396838 325,39.448927 325,30.818499 325,28.264024 324.67214,28 321.5,28 c -3.48148,0 -3.5,-0.02381 -3.5,-4.5 0,-4.47619 0.0185,-4.5 3.5,-4.5 H 325 V 10.5 2 h 4.5 4.5 v 8.5 8.5 h 3.5 c 3.48148,0 3.5,0.02381 3.5,4.5 V 28 h -3.63005 -3.63005 l 0.51578,4.576009 c 0.5683,5.041926 4.4367,10.09502 8.13207,10.622492 1.71139,0.244281 2.17061,1.108053 2.41975,4.551499 0.28068,3.879343 0.10625,4.243115 -2,4.171053 -1.26913,-0.04342 -3.6575,-0.548667 -5.3075,-1.122768 z M 350.61615,47.750759 350.7323,43.5 359.86887,43.355944 C 370.76163,43.184199 372,42.804702 372,39.638374 372,36.66442 370.41479,36 363.31934,36 353.04406,36 347.22456,30.818832 348.32049,22.646346 349.39576,14.627922 355.87678,11.500528 370,12.184988 l 6.5,0.315012 0.3075,4.25 0.3075,4.25 -8.93506,0 c -6.72232,0 -9.24334,0.37147 -10.17994,1.5 -2.31545,2.789942 0.52498,4.5 7.47456,4.5 4.82877,0 6.9905,0.512721 9.61299,2.280015 5.80113,3.909384 7.56354,10.626457 4.39552,16.752718 -2.48176,4.799199 -6.04035,5.967173 -18.18341,5.968026 L 350.5,52.001517 Z"
         id="path2" />
    </g>
  </g>
</svg>
