<svg width="104" height="20" viewBox="0 0 104 20" fill="none" xmlns="http://www.w3.org/2000/svg">
<g clip-path="url(#clip0_13461_173061)">
<path d="M29.9379 0.0390625L22.111 19.954H28.7639L29.7091 17.3182H37.2109L38.1562 19.954H44.809L36.9821 0.0390625H29.9379ZM31.229 12.5347L33.46 6.31363L35.6911 12.5347H31.229Z" fill="#1A1D24"/>
<path d="M72.4967 12.3882H81.5955V7.60477H72.4967V4.92016H81.6933V0.0390625H66.1373V19.954H81.889V15.0729H72.4967V12.3882Z" fill="#1A1D24"/>
<path d="M52.7338 13.1338L48.0376 0.0390625H41.3848L49.2117 19.954H56.2559L64.0828 0.0390625H57.4299L52.7338 13.1338Z" fill="#1A1D24"/>
<path d="M13.5992 10.6978L6.16368 0.0390625H0V19.954H6.45719V9.29529L13.8927 19.954H20.0564V0.0390625H13.5992V10.6978Z" fill="#1A1D24"/>
<path d="M98.9541 13.122L99.5594 12.8693C101.879 11.9005 103.059 9.80435 103.059 7.1441C103.059 4.62843 102.139 2.76738 100.326 1.6126C98.6396 0.539046 96.4532 0.0390625 93.445 0.0390625H85.0198V19.954H91.2813V14.3895H93.5315L97.3471 19.954H104L98.9541 13.122ZM94.6077 9.31317H91.1834V5.11541H94.6077C95.7694 5.11541 96.7112 6.05511 96.7112 7.21428C96.7112 8.37347 95.7694 9.31317 94.6077 9.31317Z" fill="#1A1D24"/>
</g>
<defs>
<clipPath id="clip0_13461_173061">
<rect width="104" height="19.9149" fill="white" transform="translate(0 0.0390625)"/>
</clipPath>
</defs>
</svg>
