<svg xmlns="http://www.w3.org/2000/svg" width="24" height="24" viewBox="0 0 24 24"><path fill-rule="evenodd" d="M17.12 9.811h5.931a.274.274 0 0 0 .276-.272V6.272A.274.274 0 0 0 23.05 6h-7.759a.44.44 0 0 0-.319.135l-2.166 2.248-2.166-2.248A.44.44 0 0 0 10.323 6h-7.18a.44.44 0 0 0-.319.135L.781 8.263a.43.43 0 0 0-.121.299v9.166c0 .15.123.272.275.272h3.308a.274.274 0 0 0 .275-.272v-7.416c0-.248.204-.449.455-.449h3.524c.25 0 .454.201.454.45v7.415c0 .15.123.272.275.272h3.308a.274.274 0 0 0 .275-.272v-2.106l2.164 2.243a.44.44 0 0 0 .319.135h7.76a.274.274 0 0 0 .275-.272v-3.267a.274.274 0 0 0-.276-.272H17.12a.45.45 0 0 1-.454-.449v-3.48c0-.248.204-.449.454-.449" clip-rule="evenodd"></path></svg>
