<?xml version="1.0" encoding="UTF-8" standalone="no"?>
<!-- Created with Inkscape (http://www.inkscape.org/) -->

<svg
   version="1.1"
   id="svg1"
   width="1380.1608"
   height="157.36058"
   viewBox="0 0 1380.1607 157.36058"
   sodipodi:docname="nodeweaver.svg"
   inkscape:version="1.4.3 (0d15f75, 2025-12-25)"
   xmlns:inkscape="http://www.inkscape.org/namespaces/inkscape"
   xmlns:sodipodi="http://sodipodi.sourceforge.net/DTD/sodipodi-0.dtd"
   xmlns="http://www.w3.org/2000/svg"
   xmlns:svg="http://www.w3.org/2000/svg">
  <defs
     id="defs1" />
  <sodipodi:namedview
     id="namedview1"
     pagecolor="#ffffff"
     bordercolor="#000000"
     borderopacity="0.25"
     inkscape:showpageshadow="2"
     inkscape:pageopacity="0.0"
     inkscape:pagecheckerboard="0"
     inkscape:deskcolor="#d1d1d1"
     inkscape:zoom="0.28"
     inkscape:cx="689.28571"
     inkscape:cy="80.357143"
     inkscape:current-layer="g1" />
  <g
     inkscape:groupmode="layer"
     inkscape:label="Image"
     id="g1"
     transform="translate(-15.04,-11.08624)">
    <g
       id="g2">
      <path
         style="fill:#f9cba8"
         d="m 611.28001,168.40766 c -5.676,-0.0531 -10.32,-0.16296 -10.32,-0.24415 0,-0.41964 -9.17001,-39.57712 -15.49894,-66.18308 -3.96938,-16.686755 -8.66461,-36.558754 -10.43383,-44.159995 -1.76922,-7.60124 -3.29182,-14.072437 -3.38356,-14.380437 -0.15677,-0.526338 -1.49923,-0.56 -22.33352,-0.56 -12.1917,0 -25.42999,0.09497 -29.41844,0.211045 l -7.25171,0.211045 v 13.868955 13.868954 l 31.28,0.0044 c 17.204,0.0024 31.604,0.0912 32,0.197322 l 0.72,0.192952 V 86.597319 101.76 h -32 -32 v 17.88223 17.88223 l 14.32,0.24266 c 7.876,0.13347 18.22281,0.14751 22.99292,0.0312 4.77011,-0.1163 14.16611,-0.11326 20.88,0.007 l 12.20708,0.21823 v 15.14834 15.14833 h -55.36 -55.36 V 90.427853 12.535712 l 58,-0.107856 c 31.9,-0.05932 61.37221,-0.03586 65.49381,0.05214 l 7.49381,0.16 4.10121,17.279999 c 10.42552,43.926673 14.67477,61.961795 18.05714,76.640005 2.00755,8.712 3.73987,16.2 3.8496,16.64 0.1772,0.71053 0.26578,0.60896 0.79212,-0.90837 0.32594,-0.9396 0.95184,-3.1716 1.3909,-4.96 1.17153,-4.77205 14.47164,-61.527762 19.80911,-84.531635 L 655.91108,12.96 l 1.56446,-0.2889 c 1.62267,-0.299647 37.426,-0.436235 37.71835,-0.143894 0.24153,0.241537 13.89386,57.824593 20.53606,86.617448 5.45735,23.656686 5.7275,24.697846 6.14422,23.679996 0.67435,-1.64714 1.53941,-5.22421 13.33593,-55.144652 6.07213,-25.696 11.56449,-48.627999 12.20525,-50.959999 L 748.58037,12.48 h 72.74982 72.74983 v 15.359999 15.359999 h -33.92001 -33.92 v 13.918454 13.918455 l 31.92,0.08155 31.92001,0.08154 v 15.2 V 101.6 l -31.92001,0.0815 -31.92,0.0816 V 119.68155 137.6 h 35.13624 35.13623 l 1.53729,-3.91999 c 4.30023,-10.96537 6.33623,-16.34846 9.95078,-26.30938 9.7855,-26.966727 31.56092,-85.549776 34.88444,-93.85062 l 0.54452,-1.36 h 9.03269 c 4.96799,0 15.73776,0.09529 23.93284,0.211744 l 14.90013,0.211745 6.10225,16.188255 c 3.35628,8.90354 10.51058,28.140254 15.89858,42.748253 8.9424,24.245037 13.8943,37.654443 26.2931,71.199993 4.502,12.18024 9.0509,24.92133 9.0509,25.35046 0,0.29343 -39.0635,0.34323 -39.8256,0.0508 -0.2849,-0.10933 -0.7365,-0.62112 -1.0034,-1.13731 -0.547,-1.05774 -7.3857,-20.68684 -8.43639,-24.21493 l -0.68169,-2.28899 h -28.57729 c -15.71751,0 -29.86928,0.0917 -31.44837,0.2038 l -2.87108,0.20379 -4.4349,13.09767 c -3.542,10.4607 -4.5932,13.2222 -5.22123,13.71621 -0.7718,0.60709 -2.07908,0.61853 -70.66252,0.61853 h -69.87617 l -0.0807,-74.695284 -0.0807,-74.695288 -7.14874,30.615289 C 767.44769,95.983538 759.16857,131.05317 754.4439,150.55999 l -4.26281,17.6 h -23.32651 -23.32651 l -13.74989,-57.67813 c -7.56244,-31.722975 -13.87115,-57.556884 -14.01934,-57.408688 -0.6914,0.691396 -2.17796,6.34309 -6.14948,23.379408 -2.3627,10.135079 -6.82133,29.1219 -9.90809,42.19294 -3.08675,13.07104 -6.62977,28.26304 -7.87338,33.76 -1.24361,5.49696 -2.55052,11.24122 -2.90424,12.76503 l -0.64313,2.77055 -3.26026,0.18006 c -4.62895,0.25566 -21.61609,0.3999 -33.74025,0.2865 z m 376.88001,-57.47662 c 0,-0.16747 -11.80406,-34.739576 -14.3303,-41.971043 -4.06228,-11.628439 -6.30706,-17.756764 -6.50482,-17.758392 -0.29355,-0.0024 -5.45244,14.271276 -10.17718,28.158392 -3.42822,10.076342 -10.42692,30.329063 -10.85437,31.410213 -0.0587,0.14838 9.33733,0.26979 20.88,0.26979 11.54267,0 20.98667,-0.049 20.98667,-0.10896 z M 15.04,90.435802 V 12.551611 l 7.6,-0.242178 c 10.892648,-0.347101 37.220346,0.05121 37.728837,0.570797 0.215178,0.219873 6.097508,11.271769 13.071845,24.559769 6.974337,13.287999 19.475322,36.95756 27.779968,52.599024 L 116.32,118.47805 116.401,65.479023 116.4819,12.48 h 19.03906 19.03905 v 77.922143 77.922147 l -22.61023,-0.0821 -22.61024,-0.0822 -6.21283,-11.84 C 94.593368,140.05772 78.246929,109.07443 74.003804,101.12 72.079192,97.511996 68.11708,90.023997 65.199111,84.479997 c -2.917969,-5.544 -6.756746,-12.672 -8.530616,-15.84 l -3.225218,-5.759999 -0.0016,48.829762 c -9.01e-4,26.85636 -0.09577,50.58036 -0.210815,52.71999 l -0.209176,3.89024 H 34.030824 15.04 Z m 210.4,77.388598 c -20.29956,-2.2434 -36.92466,-10.12057 -48.55302,-23.005 -10.04067,-11.12524 -15.39844,-23.27726 -18.06764,-40.9794 -0.90218,-5.98325 -0.81464,-22.607337 0.15211,-28.886944 2.48431,-16.137043 7.81842,-28.712652 16.37026,-38.594252 6.35236,-7.340113 12.56352,-12.218878 20.84067,-16.370026 9.48362,-4.756216 18.6821,-7.270533 31.17762,-8.522112 5.74297,-0.575229 18.3897,-0.48308 23.97817,0.174712 16.96023,1.996314 30.81268,7.621096 42.13691,17.109685 12.64977,10.599264 21.25465,27.008055 23.7708,45.328934 2.88527,21.008597 -0.19975,42.277193 -8.33109,57.435823 -5.01844,9.35547 -12.57455,17.74962 -21.23479,23.58989 -10.36098,6.98722 -23.50524,11.4401 -38.0339,12.88476 -4.55706,0.45314 -19.53288,0.35039 -24.2061,-0.16607 z m 20.27443,-29.43627 c 12.02981,-2.30168 21.09182,-9.7077 25.97413,-21.22764 3.58646,-8.46232 4.98786,-17.377812 4.70175,-29.911721 C 276.1295,75.823086 274.73337,68.860192 271.15953,61.161307 264.82197,47.50872 253.92777,40.614489 238.56,40.53117 c -2.64,-0.01431 -5.93129,0.160491 -7.31398,0.388454 -17.5021,2.885548 -28.35808,16.476052 -30.92168,38.710567 -0.44001,3.81631 -0.44645,15.964994 -0.0105,19.907241 1.41372,12.785568 5.58007,22.812828 12.29098,29.580998 5.16104,5.20507 12.77326,8.76056 20.83523,9.73165 3.13687,0.37784 9.04795,0.15538 12.27443,-0.46195 z m 76.09293,28.25186 c -0.25999,-2.16452 -0.26559,-150.26904 -0.006,-152.431298 l 0.19603,-1.631308 22.12119,-0.223855 c 30.33547,-0.306979 43.22645,0.183759 58.6012,2.230851 7.69244,1.02422 11.07646,1.752882 16.48,3.548542 16.91327,5.620481 31.24606,17.296178 39.61024,32.267076 2.94663,5.274128 5.65899,12.368245 7.14485,18.687214 3.00043,12.759991 2.85689,30.118433 -0.36411,44.032788 -3.45977,14.9458 -13.04545,29.32157 -25.91329,38.86249 -9.34854,6.93152 -18.46257,10.76776 -31.51769,13.26627 -13.8932,2.65892 -21.42284,3.05714 -57.95543,3.06509 l -28.19543,0.006 z m 56.91265,-29.03294 c 7.86947,-0.30056 12.52423,-0.93805 17.6,-2.41037 6.06178,-1.75833 11.91031,-4.92739 16.69144,-9.04436 4.3273,-3.72617 8.5062,-10.26167 10.62389,-16.61498 3.68892,-11.067167 3.75318,-27.553221 0.14881,-38.177343 -5.2408,-15.447637 -16.67515,-24.462943 -34.67789,-27.341442 -5.16739,-0.826226 -13.1253,-1.208759 -20.18212,-0.970143 l -6.59586,0.223028 -0.23706,23.519427 c -0.13038,12.935684 -0.13046,34.155073 -1.9e-4,47.154203 l 0.23686,23.63479 3.55606,0.10166 c 1.95583,0.0559 3.98806,0.12529 4.51606,0.15415 0.528,0.0289 4.272,-0.074 8.32,-0.22862 z m 687.89569,29.03496 c -0.3476,-0.92511 -2.8895,-7.65802 -5.6488,-14.96202 -2.7594,-7.304 -13.3613,-35.88799 -23.5599,-63.519993 -10.1986,-27.631999 -20.1209,-54.487998 -22.0496,-59.679998 -1.9286,-5.192 -3.9959,-10.893393 -4.5939,-12.669762 l -1.0873,-3.229762 9.9404,-0.196099 c 5.4673,-0.107855 14.5385,-0.107085 20.1582,0.0017 l 10.2178,0.197809 0.5844,0.960908 c 0.3214,0.528499 1.2312,2.773122 2.0218,4.988052 0.7906,2.214929 5.4649,15.331144 10.3873,29.147143 4.9223,13.816 10.9632,30.735999 13.4241,37.599999 2.4609,6.864 5.8073,16.224003 7.4364,20.800003 3.0795,8.65014 7.3492,19.79257 7.5181,19.61962 0.3024,-0.30953 18.6731,-51.390042 36.0002,-100.099621 3.6175,-10.169529 4.3899,-12.065312 5.1838,-12.724171 0.3208,-0.266246 25.9108,-0.386951 97.2233,-0.458593 l 96.788,-0.09723 6.88,1.048169 c 13.1756,2.007302 19.1383,3.963119 26.08,8.554542 8.159,5.396522 12.6447,12.280167 14.908,22.877287 0.8229,3.853301 1.166,13.16745 0.6563,17.81972 -0.6085,5.554271 -3.4749,13.147166 -6.8631,18.180279 -3.7324,5.544259 -10.2759,10.216936 -18.6212,13.297243 -1.584,0.584665 -3.0012,1.164424 -3.1494,1.288352 -0.1482,0.123929 0.2838,0.404758 0.96,0.624065 6.6765,2.165343 14.1961,8.565458 19.5393,16.630348 1.3331,2.01212 28.2501,54.87718 28.2501,55.48322 0,0.11072 -9.612,0.16428 -21.36,0.11903 l -21.36,-0.0823 -11.2,-22.25604 c -6.16,-12.24082 -12.0567,-23.54482 -13.1038,-25.12 -2.8663,-4.31179 -5.198,-6.49161 -8.8246,-8.24967 -5.655,-2.74141 -3.7657,-2.5756 -31.5116,-2.76557 L 1263.2,109.6 l -0.082,-33.200003 -0.082,-33.199999 h -28.4785 -28.4785 v 47.148176 47.148176 l 11.0923,0.21182 c 6.1008,0.1165 21.9185,0.21182 35.1504,0.21182 h 24.0581 l 0.2241,8.91348 c 0.1233,4.90241 0.1234,11.74241 4e-4,15.2 l -0.2237,6.28652 h -54.6319 -54.6319 l -0.2394,-29.04 c -0.1317,-15.97199 -0.1337,-47.399993 0,-69.839993 0.1292,-22.439999 0.1616,-40.727998 0.072,-40.639998 -0.09,0.088 -3.6466,9.664 -7.9043,21.279999 -4.2577,11.616 -12.3511,33.575999 -17.9853,48.799998 -5.6342,15.224004 -11.6099,31.424004 -13.2793,36.000004 -3.4928,9.57388 -9.4101,25.39715 -11.2488,30.07999 l -1.2564,3.2 -24.0122,0.082 -24.0121,0.082 z m 252.2716,-85.512885 c 3.4011,-0.551643 7.4544,-1.815064 9.3259,-2.906864 4.9062,-2.862292 7.7049,-10.955722 6.8087,-19.689352 -0.3735,-3.640094 -1.6007,-7.43471 -3.117,-9.63863 -4.0786,-5.928005 -10.179,-7.468168 -27.9849,-7.065275 l -8.56,0.193687 v 19.788653 19.788653 l 10.32,-0.0013 c 7.5247,-9.38e-4 11.1021,-0.12813 13.2073,-0.469585 z M 1221.76,95.679996 V 81.599997 h 13.44 13.44 V 95.679996 109.76 h -13.44 -13.44 z"
         id="path8" />
      <path
         style="fill:#aec9e3"
         d="M 15.04,90.435802 V 12.551611 l 7.6,-0.242178 c 10.892648,-0.347101 37.220346,0.05121 37.728837,0.570797 0.215178,0.219873 6.097508,11.271769 13.071845,24.559769 6.974337,13.287999 19.475322,36.95756 27.779968,52.599024 L 116.32,118.47805 116.401,65.479023 116.4819,12.48 h 19.03906 19.03905 v 77.922143 77.922147 l -22.61023,-0.0821 -22.61024,-0.0822 -6.21283,-11.84 C 94.593368,140.05772 78.246929,109.07443 74.003804,101.12 72.079192,97.511996 68.11708,90.023997 65.199111,84.479997 c -2.917969,-5.544 -6.756746,-12.672 -8.530616,-15.84 l -3.225218,-5.759999 -0.0016,48.829762 c -9.01e-4,26.85636 -0.09577,50.58036 -0.210815,52.71999 l -0.209176,3.89024 H 34.030824 15.04 Z m 210.4,77.388598 c -20.29956,-2.2434 -36.92466,-10.12057 -48.55302,-23.005 -10.04067,-11.12524 -15.39844,-23.27726 -18.06764,-40.9794 -0.90218,-5.98325 -0.81464,-22.607337 0.15211,-28.886944 2.48431,-16.137043 7.81842,-28.712652 16.37026,-38.594252 6.35236,-7.340113 12.56352,-12.218878 20.84067,-16.370026 9.48362,-4.756216 18.6821,-7.270533 31.17762,-8.522112 5.74297,-0.575229 18.3897,-0.48308 23.97817,0.174712 16.96023,1.996314 30.81268,7.621096 42.13691,17.109685 12.64977,10.599264 21.25465,27.008055 23.7708,45.328934 2.88527,21.008597 -0.19975,42.277193 -8.33109,57.435823 -5.01844,9.35547 -12.57455,17.74962 -21.23479,23.58989 -10.36098,6.98722 -23.50524,11.4401 -38.0339,12.88476 -4.55706,0.45314 -19.53288,0.35039 -24.2061,-0.16607 z m 20.27443,-29.43627 c 12.02981,-2.30168 21.09182,-9.7077 25.97413,-21.22764 3.58646,-8.46232 4.98786,-17.377812 4.70175,-29.911721 C 276.1295,75.823086 274.73337,68.860192 271.15953,61.161307 264.82197,47.50872 253.92777,40.614489 238.56,40.53117 c -2.64,-0.01431 -5.93129,0.160491 -7.31398,0.388454 -17.5021,2.885548 -28.35808,16.476052 -30.92168,38.710567 -0.44001,3.81631 -0.44645,15.964994 -0.0105,19.907241 1.41372,12.785568 5.58007,22.812828 12.29098,29.580998 5.16104,5.20507 12.77326,8.76056 20.83523,9.73165 3.13687,0.37784 9.04795,0.15538 12.27443,-0.46195 z m 76.09293,28.25186 c -0.25999,-2.16452 -0.26559,-150.26904 -0.006,-152.431298 l 0.19603,-1.631308 22.12119,-0.223855 c 30.33547,-0.306979 43.22645,0.183759 58.6012,2.230851 7.69244,1.02422 11.07646,1.752882 16.48,3.548542 16.91327,5.620481 31.24606,17.296178 39.61024,32.267076 2.94663,5.274128 5.65899,12.368245 7.14485,18.687214 3.00043,12.759991 2.85689,30.118433 -0.36411,44.032788 -3.45977,14.9458 -13.04545,29.32157 -25.91329,38.86249 -9.34854,6.93152 -18.46257,10.76776 -31.51769,13.26627 -13.8932,2.65892 -21.42284,3.05714 -57.95543,3.06509 l -28.19543,0.006 z m 56.91265,-29.03294 c 7.86947,-0.30056 12.52423,-0.93805 17.6,-2.41037 6.06178,-1.75833 11.91031,-4.92739 16.69144,-9.04436 4.3273,-3.72617 8.5062,-10.26167 10.62389,-16.61498 3.68892,-11.067167 3.75318,-27.553221 0.14881,-38.177343 -5.2408,-15.447637 -16.67515,-24.462943 -34.67789,-27.341442 -5.16739,-0.826226 -13.1253,-1.208759 -20.18212,-0.970143 l -6.59586,0.223028 -0.23706,23.519427 c -0.13038,12.935684 -0.13046,34.155073 -1.9e-4,47.154203 l 0.23686,23.63479 3.55606,0.10166 c 1.95583,0.0559 3.98806,0.12529 4.51606,0.15415 0.528,0.0289 4.272,-0.074 8.32,-0.22862 z m 93.6,-47.207053 V 12.48 h 65.44 c 35.992,0 65.44,0.05804 65.44,0.128972 0,0.07094 2.45625,10.474934 5.45833,23.119999 10.31228,43.436304 13.79177,58.220659 17.12189,72.751029 1.8353,8.008 3.45273,14.83144 3.5943,15.1632 0.19326,0.45291 0.50455,-0.22482 1.24932,-2.72 0.94201,-3.15594 10.07474,-41.820684 20.58538,-87.151165 2.65102,-11.433379 4.89742,-20.865379 4.992,-20.959999 0.0946,-0.09462 8.908,-0.220823 19.58537,-0.28045 l 19.41341,-0.108414 7.60769,32.108413 c 4.18423,17.659627 10.06351,42.763694 13.06507,55.786815 3.00156,13.02312 5.51408,23.73509 5.58336,23.80438 0.42913,0.42913 0.64643,-0.45391 13.76221,-55.924644 9.96454,-42.143198 12.08697,-50.942229 13.05389,-54.118137 l 0.43842,-1.439999 72.68468,-0.08069 72.68469,-0.08069 v 15.200692 15.200692 h -17.22736 c -9.47504,0 -24.81255,0.09557 -34.08336,0.212375 l -16.85601,0.212375 0.0834,13.787625 0.0834,13.787624 31.92,0.08155 31.92001,0.08154 V 86.401542 101.76 h -32.00001 -32 v 17.92139 17.9214 l 35.37145,-0.0814 35.37145,-0.0814 2.7356,-6.87999 c 2.6431,-6.64736 6.44563,-16.78229 9.78497,-26.08 6.06993,-16.900529 30.70303,-83.150994 33.70232,-90.642029 l 0.54533,-1.362027 23.86946,0.08203 23.86945,0.08203 1.21981,3.199999 c 4.48718,11.771457 14.54527,38.756921 23.61557,63.359998 5.8397,15.84 14.4772,39.239999 19.1943,51.999999 4.7171,12.75999 9.6174,26.15199 10.8894,29.75999 1.272,3.608 2.3817,6.74 2.4661,6.96 0.1999,0.52156 -38.6409,0.5907 -39.6129,0.0705 -0.3386,-0.18122 -0.8438,-0.77067 -1.1226,-1.30988 -0.557,-1.07702 -5.1081,-14.0725 -7.4947,-21.40064 l -1.51111,-4.64 -15.16695,-0.23286 c -8.34182,-0.12807 -22.52499,-0.14656 -31.51815,-0.0411 l -16.35121,0.19177 -4.39161,13.00109 c -3.70866,10.97929 -4.53813,13.13793 -5.33383,13.88108 l -0.94224,0.88 h -69.59495 -69.59496 l -0.0469,-6.8 c -0.0258,-3.74 -0.1338,-37.47199 -0.24,-74.959989 l -0.1931,-68.159998 -6.98842,29.919999 C 767.45991,95.379687 758.7878,132.1181 754.25443,150.82878 c -2.29589,9.47586 -4.17434,17.28786 -4.17434,17.36 0,0.0721 -10.42459,0.13117 -23.16576,0.13117 -18.24549,0 -23.19515,-0.0849 -23.30412,-0.4 -0.0761,-0.22 -6.31951,-26.36645 -13.87424,-58.10323 l -13.73588,-57.703228 -0.75029,1.703235 c -0.93791,2.129156 -1.92369,6.046998 -6.91009,27.463234 -2.19236,9.416 -6.56636,28.063999 -9.72,41.439999 -3.15365,13.376 -6.7894,29.02088 -8.07946,34.76642 l -2.34556,10.44642 -7.0573,0.21331 c -3.88151,0.11732 -14.47325,0.16843 -23.53719,0.11357 l -16.4799,-0.0997 -3.89341,-16.8 c -2.14137,-9.24 -7.41963,-31.63199 -11.72945,-49.75999 -4.30983,-18.127999 -9.18184,-38.75513 -10.8267,-45.838068 l -2.99065,-12.878069 -22.26829,-0.0019 c -12.24755,-0.0011 -25.53155,0.09304 -29.52,0.209115 l -7.25171,0.211045 v 13.868955 13.868954 l 31.28,0.0044 c 17.204,0.0024 31.604,0.0912 32,0.197322 l 0.72,0.192952 V 86.597319 101.76 h -32 -32 v 17.88223 17.88223 l 14.32,0.24266 c 7.876,0.13347 18.22281,0.14751 22.99292,0.0312 4.77011,-0.1163 14.16611,-0.11326 20.88,0.007 l 12.20708,0.21823 v 15.14834 15.14833 h -55.36 -55.36 z m 515.84001,20.366623 c 0,-0.35805 -9.25172,-27.60983 -13.54113,-39.886623 -5.05026,-14.454444 -7.07191,-19.999999 -7.29107,-19.999999 -0.29563,0 -5.57642,14.588999 -10.07728,27.839999 -2.18198,6.424 -5.55198,16.230526 -7.48888,21.792283 -1.93691,5.56175 -3.52164,10.20575 -3.52164,10.32 0,0.11424 9.432,0.20772 20.96,0.20772 11.528,0 20.96,-0.12302 20.96,-0.27338 z m 71.77288,37.79337 c -6.7736,-18.0304 -29.7513,-80.088994 -39.7804,-107.439992 -2.2588,-6.159999 -5.4029,-14.727999 -6.987,-19.039999 -1.5841,-4.312 -2.9782,-8.237095 -3.0981,-8.722435 l -0.218,-0.882435 19.9426,0.08243 19.9426,0.08244 0.6745,1.000963 c 0.371,0.550529 1.7702,4.078529 3.1094,7.839999 7.4412,20.900255 20.8194,58.386167 23.854,66.839035 1.9271,5.368 4.8357,13.504004 6.4634,18.080004 3.0843,8.67109 7.3532,19.79831 7.5278,19.62203 0.2459,-0.24832 12.4268,-33.978062 25.1139,-69.542033 15.7452,-44.136711 15.211,-42.692794 16.0748,-43.444059 0.6169,-0.536537 5.4128,-0.559517 98.2881,-0.470941 l 97.6395,0.09312 6.3707,1.022935 c 10.0021,1.60602 14.6868,2.961284 20.4694,5.92167 4.145,2.122042 7.4158,4.590735 10.7802,8.13658 6.8909,7.262576 10.1775,19.413376 8.9754,33.182566 -0.4046,4.634134 -0.8719,6.705287 -2.4902,11.035323 -3.9684,10.618653 -10.1414,16.824527 -21.1994,21.312233 -2.2912,0.929857 -4.4944,1.788579 -4.896,1.908272 l -0.7301,0.217623 0.8,0.344436 c 5.6208,2.420012 8.4203,4.103571 12.1242,7.291435 2.4877,2.14115 6.2345,6.65987 8.7633,10.56881 0.9678,1.496 7.6082,14.42 14.7565,28.71999 l 12.9968,26 h -21.2143 -21.2142 l -3.2496,-6.16 c -1.7872,-3.388 -6.7712,-13.288 -11.0755,-22 -10.9729,-22.20967 -12.9791,-25.03516 -20.0472,-28.23505 -4.8878,-2.21282 -4.2037,-2.16494 -30.9297,-2.16494 h -24.1073 l -0.082,-33.360003 -0.082,-33.359999 h -28.3734 c -15.6055,0 -28.4935,0.120019 -28.64,0.266708 -0.3469,0.347061 -0.3443,93.842164 0,94.189154 0.1452,0.14527 16.0201,0.3044 35.2775,0.35361 l 35.0134,0.0895 v 15.19052 15.19052 h -54.7193 -54.7192 l -0.081,-69.97898 -0.081,-69.978984 -7.7946,21.258986 c -4.2871,11.692442 -12.7993,34.794985 -18.916,51.338988 -6.1166,16.544 -13.1023,35.47999 -15.5237,42.07999 -2.4213,6.6 -5.5623,14.988 -6.98,18.64 l -2.5775,6.64 h -23.8659 -23.866 z M 1316,81.592818 c 4.2203,-0.39163 7.8731,-1.276839 10.7972,-2.616578 5.7588,-2.638563 8.9201,-9.612056 8.4573,-18.656242 -0.2736,-5.348502 -1.2087,-8.421014 -3.6105,-11.863719 -2.1277,-3.049915 -4.3048,-4.445188 -8.6317,-5.532023 -4.2003,-1.055016 -7.8317,-1.322412 -17.9723,-1.323356 l -9.68,-9.02e-4 v 19.991874 19.991874 l 5.04,0.09686 c 2.772,0.05327 6.624,0.128809 8.56,0.167858 1.936,0.03905 5.104,-0.07599 7.04,-0.255646 z m -94.24,14.087178 V 81.599997 h 13.44 13.44 V 95.679996 109.76 h -13.44 -13.44 z"
         id="path7" />
      <path
         style="fill:#8fb6d9"
         d="M 15.252736,139.94707 C 15.135731,124.34196 15.04,102.04577 15.04,90.399997 c 0,-11.645778 0.09573,-33.941959 0.212736,-49.54707 L 15.465472,12.48 36.132737,12.51473 c 11.366995,0.0191 21.4992,0.127102 22.516011,0.24 L 60.497495,12.96 75.292421,41.119998 c 8.137209,15.488 20.697273,39.267867 27.911249,52.844149 L 116.32,118.6483 116.40094,65.564148 116.48188,12.48 H 135.52094 154.56 v 77.919997 77.919993 l -21.52,-0.004 c -11.836,-0.002 -22.024,-0.0877 -22.64,-0.1905 -1.10172,-0.18393 -1.1927,-0.32617 -5.57546,-8.71648 -7.2486,-13.8762 -25.695902,-48.8702 -27.859927,-52.84901 -1.100828,-2.024 -5.057505,-9.512004 -8.792615,-16.640003 -3.735111,-7.128 -8.54181,-16.104844 -10.681554,-19.948543 l -3.890443,-6.988542 -0.227409,14.348542 c -0.125074,7.891699 -0.142334,21.116542 -0.03835,29.388546 0.10398,8.272 0.08093,25.516 -0.05122,38.31999 l -0.240272,23.28 H 34.25411 15.465472 Z M 229.12,168.1036 c -8.91219,-0.64724 -19.56401,-3.01806 -26.96253,-6.00119 -9.16309,-3.6946 -15.56523,-7.86921 -22.58445,-14.72649 -11.71435,-11.44411 -18.02873,-24.93367 -20.75336,-44.33592 -0.8581,-6.110591 -0.77518,-20.854979 0.15387,-27.360003 2.09469,-14.666619 6.60002,-26.482768 13.67332,-35.86108 12.78272,-16.948292 31.02633,-26.220745 55.71238,-28.31624 6.76204,-0.574001 20.48394,-0.236395 26.20077,0.64463 20.97725,3.232815 37.20766,12.159229 48.31568,26.572692 6.55156,8.501116 11.81108,20.746286 13.77748,32.076594 1.99118,11.473127 1.90576,27.57148 -0.20481,38.599537 -4.42782,23.13602 -17.38906,40.78697 -36.92835,50.28998 -9.38896,4.56636 -19.48472,7.28053 -30.88,8.30187 -3.3342,0.29883 -15.96689,0.37366 -19.52,0.11562 z m 16.90804,-29.67901 c 5.22128,-1.12871 9.88262,-3.10598 13.80563,-5.85614 5.92432,-4.15315 10.28314,-10.38477 13.27399,-18.97724 2.48864,-7.14969 3.46401,-13.817793 3.46246,-23.671213 -0.002,-12.338967 -1.63909,-21.136929 -5.38898,-28.959999 C 265.87182,49.883628 257.95767,43.53163 246.4,41.070333 c -3.82873,-0.815358 -12.82347,-0.807736 -16.64,0.0141 -14.2012,3.058035 -23.4768,12.732867 -27.79905,28.995563 -2.97201,11.182344 -2.98326,27.603987 -0.0268,39.140224 3.17599,12.39289 9.78031,21.43794 19.02586,26.05718 3.41408,1.70573 6.25667,2.54473 12.64,3.73074 1.64927,0.30643 10.15957,-0.0932 12.42804,-0.58355 z m 75.74634,-9.14861 c -0.13059,-21.50373 -0.13078,-56.577772 -4.2e-4,-77.942314 l 0.23703,-38.844622 20.99451,-0.08452 c 33.39235,-0.134435 44.67627,0.282407 59.07451,2.182286 11.99962,1.583376 18.22265,3.376139 27.04,7.789823 8.86156,4.435818 17.23595,11.130264 23.26444,18.597466 13.2054,16.356915 18.2368,38.898672 14.46043,64.785901 -2.39442,16.41387 -8.87407,29.12465 -20.64312,40.4945 -12.30565,11.88823 -25.9761,17.73294 -47.80175,20.43734 -10.44128,1.29376 -13.29637,1.391 -45.1541,1.53785 l -31.23409,0.14398 z m 65.50587,7.8816 c 4.20943,-0.59457 9.3015,-1.80004 12.17941,-2.88328 18.58185,-6.99419 27.77424,-22.80683 26.99372,-46.434303 -0.32162,-9.735938 -1.64109,-15.46927 -5.19195,-22.559999 -6.07121,-12.123605 -17.16023,-19.225916 -33.74142,-21.610744 -4.15009,-0.596897 -19.18136,-1.016127 -23.13823,-0.645338 l -2.46177,0.230687 v 47.152421 47.152426 l 1.04,0.15004 c 2.38586,0.34423 20.95999,-0.0773 24.32024,-0.55191 z m 85.25309,30.94908 c -0.11733,-0.11733 -0.21333,-35.18133 -0.21333,-77.919997 V 12.48 h 65.44 c 35.992,0 65.44,0.05804 65.44,0.128972 0,0.07094 2.45625,10.474934 5.45833,23.119999 10.31228,43.436304 13.79177,58.220659 17.12189,72.751029 1.8353,8.008 3.45273,14.83144 3.5943,15.1632 0.19326,0.45291 0.50455,-0.22482 1.24932,-2.72 0.94201,-3.15594 10.07474,-41.820684 20.58538,-87.151165 2.65102,-11.433379 4.89742,-20.865379 4.992,-20.959999 0.0946,-0.09462 8.908,-0.220823 19.58537,-0.28045 l 19.41341,-0.108414 7.60769,32.108413 c 4.18423,17.659627 10.06351,42.763694 13.06507,55.786815 3.00156,13.02312 5.51408,23.73509 5.58336,23.80438 0.42913,0.42913 0.64643,-0.45391 13.76221,-55.924644 9.96454,-42.143198 12.08697,-50.942229 13.05389,-54.118137 l 0.43842,-1.439999 72.68468,-0.08069 72.68469,-0.08069 v 15.200692 15.200692 h -17.22736 c -9.47504,0 -24.81255,0.09557 -34.08336,0.212375 l -16.85601,0.212375 0.0834,13.787625 0.0834,13.787624 31.92,0.08155 31.92001,0.08154 V 86.401542 101.76 h -32.00001 -32 v 17.92139 17.9214 l 35.37145,-0.0814 35.37145,-0.0814 2.7356,-6.87999 c 2.6431,-6.64736 6.44563,-16.78229 9.78497,-26.08 6.06993,-16.900529 30.70303,-83.150994 33.70232,-90.642029 l 0.54533,-1.362027 23.86946,0.08203 23.86945,0.08203 1.21981,3.199999 c 4.48718,11.771457 14.54527,38.756921 23.61557,63.359998 5.8397,15.84 14.4772,39.239999 19.1943,51.999999 4.7171,12.75999 9.6174,26.15199 10.8894,29.75999 1.272,3.608 2.3817,6.74 2.4661,6.96 0.1999,0.52156 -38.6409,0.5907 -39.6129,0.0705 -0.3386,-0.18122 -0.8438,-0.77067 -1.1226,-1.30988 -0.557,-1.07702 -5.1081,-14.0725 -7.4947,-21.40064 l -1.51111,-4.64 -15.16695,-0.23286 c -8.34182,-0.12807 -22.52499,-0.14656 -31.51815,-0.0411 l -16.35121,0.19177 -4.39161,13.00109 c -3.70866,10.97929 -4.53813,13.13793 -5.33383,13.88108 l -0.94224,0.88 h -69.59495 -69.59496 l -0.0469,-6.8 c -0.0258,-3.74 -0.1338,-37.47199 -0.24,-74.959989 l -0.1931,-68.159998 -6.98842,29.919999 C 767.45991,95.379687 758.7878,132.1181 754.25443,150.82878 c -2.29589,9.47586 -4.17434,17.28786 -4.17434,17.36 0,0.0721 -10.42459,0.13117 -23.16576,0.13117 -18.24549,0 -23.19515,-0.0849 -23.30412,-0.4 -0.0761,-0.22 -6.31951,-26.36645 -13.87424,-58.10323 l -13.73588,-57.703228 -0.75029,1.703235 c -0.93791,2.129156 -1.92369,6.046998 -6.91009,27.463234 -2.19236,9.416 -6.56636,28.063999 -9.72,41.439999 -3.15365,13.376 -6.7894,29.02088 -8.07946,34.76642 l -2.34556,10.44642 -7.0573,0.21331 c -3.88151,0.11732 -14.47325,0.16843 -23.53719,0.11357 l -16.4799,-0.0997 -3.89341,-16.8 c -2.14137,-9.24 -7.41963,-31.63199 -11.72945,-49.75999 -4.30983,-18.127999 -9.18184,-38.75513 -10.8267,-45.838068 l -2.99065,-12.878069 -28.32,0.0016 c -15.576,8.76e-4 -28.86,0.09085 -29.52,0.19994 l -1.2,0.198348 v 13.838654 13.838654 l 12.08,0.242192 c 6.644,0.133205 17.624,0.192797 24.4,0.132424 6.776,-0.06037 15.74141,-0.07959 19.92313,-0.04272 l 7.60314,0.06705 -0.0831,15.12 -0.0831,15.120005 -31.92,0.0815 -31.92,0.0816 v 17.87388 17.87388 l 1.68,0.20179 c 0.924,0.11099 16.764,0.20304 35.2,0.20457 l 33.52,0.003 v 15.2 15.2 h -55.14667 c -30.33066,0 -55.24267,-0.096 -55.36,-0.21333 z m 515.62668,-57.34004 c 0,-0.35805 -9.25172,-27.60983 -13.54113,-39.886623 -5.05026,-14.454444 -7.07191,-19.999999 -7.29107,-19.999999 -0.29563,0 -5.57642,14.588999 -10.07728,27.839999 -2.18198,6.424 -5.55198,16.230526 -7.48888,21.792283 -1.93691,5.56175 -3.52164,10.20575 -3.52164,10.32 0,0.11424 9.432,0.20772 20.96,0.20772 11.528,0 20.96,-0.12302 20.96,-0.27338 z m 71.77288,37.79337 c -6.7736,-18.0304 -29.7513,-80.088994 -39.7804,-107.439992 -2.2588,-6.159999 -5.4029,-14.727999 -6.987,-19.039999 -1.5841,-4.312 -2.9782,-8.237095 -3.0981,-8.722435 l -0.218,-0.882435 19.9426,0.08243 19.9426,0.08244 0.6745,1.000963 c 0.371,0.550529 1.7702,4.078529 3.1094,7.839999 7.4412,20.900255 20.8194,58.386167 23.854,66.839035 1.9271,5.368 4.8357,13.504004 6.4634,18.080004 3.0843,8.67109 7.3532,19.79831 7.5278,19.62203 0.2459,-0.24832 12.4268,-33.978062 25.1139,-69.542033 15.7452,-44.136711 15.211,-42.692794 16.0748,-43.444059 0.6169,-0.536537 5.4128,-0.559517 98.2881,-0.470941 l 97.6395,0.09312 6.3707,1.022935 c 10.0021,1.60602 14.6868,2.961284 20.4694,5.92167 4.145,2.122042 7.4158,4.590735 10.7802,8.13658 6.8909,7.262576 10.1775,19.413376 8.9754,33.182566 -0.4046,4.634134 -0.8719,6.705287 -2.4902,11.035323 -3.9684,10.618653 -10.1414,16.824527 -21.1994,21.312233 -2.2912,0.929857 -4.4944,1.788579 -4.896,1.908272 l -0.7301,0.217623 0.8,0.344436 c 5.6208,2.420012 8.4203,4.103571 12.1242,7.291435 2.4877,2.14115 6.2345,6.65987 8.7633,10.56881 0.9678,1.496 7.6082,14.42 14.7565,28.71999 l 12.9968,26 h -21.2143 -21.2142 l -3.2496,-6.16 c -1.7872,-3.388 -6.7712,-13.288 -11.0755,-22 -10.9729,-22.20967 -12.9791,-25.03516 -20.0472,-28.23505 -4.8878,-2.21282 -4.2037,-2.16494 -30.9297,-2.16494 h -24.1073 l -0.082,-33.360003 -0.082,-33.359999 h -28.3734 c -15.6055,0 -28.4935,0.120019 -28.64,0.266708 -0.3469,0.347061 -0.3443,93.842164 0,94.189154 0.1452,0.14527 16.0201,0.3044 35.2775,0.35361 l 35.0134,0.0895 v 15.19052 15.19052 h -54.7193 -54.7192 l -0.081,-69.97898 -0.081,-69.978984 -7.7946,21.258986 c -4.2871,11.692442 -12.7993,34.794985 -18.916,51.338988 -6.1166,16.544 -13.1023,35.47999 -15.5237,42.07999 -2.4213,6.6 -5.5623,14.988 -6.98,18.64 l -2.5775,6.64 h -23.8659 -23.866 z M 1316,81.592818 c 4.2203,-0.39163 7.8731,-1.276839 10.7972,-2.616578 5.7588,-2.638563 8.9201,-9.612056 8.4573,-18.656242 -0.2736,-5.348502 -1.2087,-8.421014 -3.6105,-11.863719 -2.1277,-3.049915 -4.3048,-4.445188 -8.6317,-5.532023 -4.2003,-1.055016 -7.8317,-1.322412 -17.9723,-1.323356 l -9.68,-9.02e-4 v 19.991874 19.991874 l 5.04,0.09686 c 2.772,0.05327 6.624,0.128809 8.56,0.167858 1.936,0.03905 5.104,-0.07599 7.04,-0.255646 z m -93.92,14.087178 V 81.592897 l 13.2,0.08355 13.2,0.08355 V 95.679996 109.6 l -13.2,0.0836 -13.2,0.0836 z"
         id="path6" />
      <path
         style="fill:#f59e5d"
         d="m 15.314668,129.23172 c -0.06385,-21.49856 -0.0638,-56.562556 1.04e-4,-77.920001 L 15.430966,12.48 h 18.634277 c 10.248852,0 20.364612,0.09304 22.479467,0.206754 l 3.84519,0.206754 13.043189,24.833245 c 7.173754,13.658284 19.758026,37.477135 27.965051,52.930778 L 116.32,118.75506 116.50462,65.697532 c 0.10153,-29.181643 0.20953,-53.093532 0.24,-53.137532 0.0305,-0.044 8.55167,-0.08 18.93603,-0.08 h 18.88065 l -0.0806,77.839997 -0.0806,77.839993 -19.2,0.0812 c -10.56,0.0447 -20.70334,-0.0273 -22.54075,-0.16 l -3.34075,-0.24121 -6.04191,-11.52 C 95.452842,141.40261 78.850407,109.93101 74.156543,101.12 72.140705,97.335996 68.219844,89.919997 65.443519,84.639997 c -2.776325,-5.28 -6.576886,-12.336 -8.445691,-15.68 l -3.397827,-6.079999 -0.198282,6.079999 c -0.109054,3.344 -0.217054,27.067999 -0.24,52.720003 l -0.04172,46.63999 H 34.27538 15.430758 Z M 228.16,167.9857 c -20.11045,-1.9223 -35.92727,-8.46075 -47.65717,-19.7008 -7.72794,-7.40521 -12.51706,-14.52265 -16.44827,-24.4449 -8.66102,-21.8601 -7.74257,-52.518776 2.19327,-73.213638 3.66587,-7.635465 7.48512,-12.840959 14.18132,-19.328627 8.35984,-8.099502 19.40157,-14.031705 32.03417,-17.210453 12.65001,-3.18313 29.85556,-3.813723 43.727,-1.60262 34.24975,5.459397 56.64939,28.568163 61.10101,63.035335 0.70229,5.437572 0.96375,17.594302 0.49898,23.199999 -1.54283,18.608324 -7.55083,33.859754 -17.93165,45.519894 -11.48624,12.90178 -26.94895,20.50317 -47.37866,23.29109 -4.3841,0.59827 -19.80235,0.88656 -24.32,0.45472 z m 16.5485,-29.24917 c 17.70195,-3.11534 28.33482,-15.8219 31.3437,-37.45653 0.65319,-4.696638 0.73664,-17.330953 0.14583,-22.080003 -0.92181,-7.409759 -3.06586,-14.732068 -5.85622,-19.999999 -5.70032,-10.761692 -14.40039,-16.872459 -26.45919,-18.58445 -3.38752,-0.480927 -11.20627,-0.221802 -14.44262,0.478649 -6.79685,1.471061 -12.18659,4.371525 -16.91715,9.103885 -8.90451,8.907895 -13.34093,23.698541 -12.73033,42.441915 0.36552,11.220663 2.15544,19.468013 5.79263,26.690503 5.65227,11.22391 13.81718,17.21834 26.57485,19.51045 2.56982,0.46171 9.66726,0.40265 12.5485,-0.10442 z M 321.8626,129.36 c -0.0564,-21.428 -0.056,-56.504307 9.4e-4,-77.947344 l 0.10353,-38.987341 30.61647,0.141793 c 32.34548,0.149801 35.63396,0.277102 47.89647,1.854136 15.24125,1.960119 24.01073,4.807423 34.17935,11.097478 22.95074,14.196746 34.70082,38.491594 33.18319,68.610636 -0.56246,11.162642 -1.81213,18.439332 -4.41547,25.710642 -3.48226,9.72624 -8.54477,17.63354 -16.20518,25.31143 -13.72564,13.75695 -28.66274,19.73263 -55.54189,22.2199 -6.96299,0.64432 -20.69482,0.9298 -45.17741,0.93922 l -24.53741,0.009 z m 61.65741,8.23067 c 13.43807,-1.12938 23.43663,-5.25746 30.8834,-12.75077 5.93802,-5.97512 9.41829,-12.97849 11.26712,-22.6729 0.63165,-3.312041 0.71731,-4.771858 0.7093,-12.087003 -0.0119,-10.85682 -0.83372,-15.453914 -4.07373,-22.78748 -5.90208,-13.35899 -16.96644,-20.947548 -34.46609,-23.638781 -2.9555,-0.454519 -5.85351,-0.570644 -14.72,-0.589838 l -11.04,-0.0239 -0.0822,47.039999 c -0.0452,25.872003 -0.0137,47.219993 0.07,47.439993 0.19204,0.50478 15.67992,0.5558 21.45227,0.0707 z m 89.01275,11.28932 c -0.27353,-25.06124 -0.2737,-92.371512 -3e-4,-117.147256 L 472.74492,12.48 h 65.22755 c 35.87515,0 65.22754,0.05804 65.22754,0.128972 0,0.07094 2.45625,10.474934 5.45833,23.119999 10.31228,43.436304 13.79177,58.220659 17.12189,72.751029 1.8353,8.008 3.45273,14.83144 3.5943,15.1632 0.19326,0.45291 0.50455,-0.22482 1.24932,-2.72 0.94201,-3.15594 10.07474,-41.820684 20.58538,-87.151165 2.65102,-11.433379 4.89742,-20.865379 4.992,-20.959999 0.0946,-0.09462 8.908,-0.220823 19.58537,-0.28045 l 19.41341,-0.108414 7.60769,32.108413 c 4.18423,17.659627 10.06351,42.763694 13.06507,55.786815 3.00156,13.02312 5.51408,23.73509 5.58336,23.80438 0.42913,0.42913 0.64643,-0.45391 13.76221,-55.924644 9.96454,-42.143198 12.08697,-50.942229 13.05389,-54.118137 l 0.43842,-1.439999 72.68468,-0.08069 72.68469,-0.08069 v 15.200692 15.200692 h -17.22736 c -9.47504,0 -24.81255,0.09557 -34.08336,0.212375 l -16.85601,0.212375 0.0834,13.787625 0.0834,13.787624 31.92,0.08155 31.92001,0.08154 V 86.401542 101.76 h -32.00001 -32 v 17.92139 17.9214 l 35.37145,-0.0814 35.37145,-0.0814 2.7356,-6.87999 c 2.6431,-6.64736 6.44563,-16.78229 9.78497,-26.08 6.06993,-16.900529 30.70303,-83.150994 33.70232,-90.642029 l 0.54533,-1.362027 23.86946,0.08203 23.86945,0.08203 1.21981,3.199999 c 4.48718,11.771457 14.54527,38.756921 23.61557,63.359998 5.8397,15.84 14.4772,39.239999 19.1943,51.999999 4.7171,12.75999 9.6174,26.15199 10.8894,29.75999 1.272,3.608 2.3817,6.74 2.4661,6.96 0.1999,0.52156 -38.6409,0.5907 -39.6129,0.0705 -0.3386,-0.18122 -0.8438,-0.77067 -1.1226,-1.30988 -0.557,-1.07702 -5.1081,-14.0725 -7.4947,-21.40064 l -1.51111,-4.64 -15.16695,-0.23286 c -8.34182,-0.12807 -22.52499,-0.14656 -31.51815,-0.0411 l -16.35121,0.19177 -4.39161,13.00109 c -3.70866,10.97929 -4.53813,13.13793 -5.33383,13.88108 l -0.94224,0.88 h -69.59495 -69.59496 l -0.0469,-6.8 c -0.0258,-3.74 -0.1338,-37.47199 -0.24,-74.959989 l -0.1931,-68.159998 -6.98842,29.919999 C 767.45991,95.379687 758.7878,132.1181 754.25443,150.82878 c -2.29589,9.47586 -4.17434,17.28786 -4.17434,17.36 0,0.0721 -10.42459,0.13117 -23.16576,0.13117 -18.24549,0 -23.19515,-0.0849 -23.30412,-0.4 -0.0761,-0.22 -6.31951,-26.36645 -13.87424,-58.10323 l -13.73588,-57.703228 -0.75029,1.703235 c -0.93791,2.129156 -1.92369,6.046998 -6.91009,27.463234 -2.19236,9.416 -6.56636,28.063999 -9.72,41.439999 -3.15365,13.376 -6.7894,29.02088 -8.07946,34.76642 l -2.34556,10.44642 -7.0573,0.21331 c -3.88151,0.11732 -14.47325,0.16843 -23.53719,0.11357 l -16.4799,-0.0997 -3.89341,-16.8 c -2.14137,-9.24 -7.41963,-31.63199 -11.72945,-49.75999 -4.30983,-18.127999 -9.18184,-38.75513 -10.8267,-45.838068 l -2.99065,-12.878069 -29.48914,-0.0019 -29.48914,-0.0019 -0.11086,7.12 c -0.061,3.916 -0.0628,10.231076 -0.004,14.033503 l 0.1069,6.913503 3.0931,0.204841 c 1.7012,0.112663 15.99628,0.205586 31.76683,0.206497 l 28.67372,0.0017 0.204,2.16 c 0.1122,1.188 0.20502,7.932603 0.20628,14.988007 l 0.002,12.828006 -12.53241,0.21199 c -6.89282,0.1166 -21.28641,0.212 -31.98574,0.212 H 512.6683 l -0.0943,8.88 c -0.0518,4.884 -0.05,13.02 0.004,18.08 l 0.0983,9.19999 h 35.18173 35.18172 v 14.99023 14.99022 l -4.56,0.20861 c -2.508,0.11473 -27.32439,0.20913 -55.14754,0.20977 l -50.58753,0.001 z m 515.62726,-38.11337 c 0,-0.35805 -9.25172,-27.60983 -13.54113,-39.886623 -5.05026,-14.454444 -7.07191,-19.999999 -7.29107,-19.999999 -0.29563,0 -5.57642,14.588999 -10.07728,27.839999 -2.18198,6.424 -5.55198,16.230526 -7.48888,21.792283 -1.93691,5.56175 -3.52164,10.20575 -3.52164,10.32 0,0.11424 9.432,0.20772 20.96,0.20772 11.528,0 20.96,-0.12302 20.96,-0.27338 z m 71.77288,37.79337 c -6.7736,-18.0304 -29.7513,-80.088994 -39.7804,-107.439992 -2.2588,-6.159999 -5.4029,-14.727999 -6.987,-19.039999 -1.5841,-4.312 -2.9782,-8.237095 -3.0981,-8.722435 l -0.218,-0.882435 19.9426,0.08243 19.9426,0.08244 0.6745,1.000963 c 0.371,0.550529 1.7702,4.078529 3.1094,7.839999 7.4412,20.900255 20.8194,58.386167 23.854,66.839035 1.9271,5.368 4.8357,13.504004 6.4634,18.080004 3.0843,8.67109 7.3532,19.79831 7.5278,19.62203 0.2459,-0.24832 12.4268,-33.978062 25.1139,-69.542033 15.7452,-44.136711 15.211,-42.692794 16.0748,-43.444059 0.6169,-0.536537 5.4128,-0.559517 98.2881,-0.470941 l 97.6395,0.09312 6.3707,1.022935 c 10.0021,1.60602 14.6868,2.961284 20.4694,5.92167 4.145,2.122042 7.4158,4.590735 10.7802,8.13658 6.8909,7.262576 10.1775,19.413376 8.9754,33.182566 -0.4046,4.634134 -0.8719,6.705287 -2.4902,11.035323 -3.9684,10.618653 -10.1414,16.824527 -21.1994,21.312233 -2.2912,0.929857 -4.4944,1.788579 -4.896,1.908272 l -0.7301,0.217623 0.8,0.344436 c 5.6208,2.420012 8.4203,4.103571 12.1242,7.291435 2.4877,2.14115 6.2345,6.65987 8.7633,10.56881 0.9678,1.496 7.6082,14.42 14.7565,28.71999 l 12.9968,26 h -21.2143 -21.2142 l -3.2496,-6.16 c -1.7872,-3.388 -6.7712,-13.288 -11.0755,-22 -10.9729,-22.20967 -12.9791,-25.03516 -20.0472,-28.23505 -4.8878,-2.21282 -4.2037,-2.16494 -30.9297,-2.16494 h -24.1073 l -0.082,-33.360003 -0.082,-33.359999 h -28.3734 c -15.6055,0 -28.4935,0.120019 -28.64,0.266708 -0.3469,0.347061 -0.3443,93.842164 0,94.189154 0.1452,0.14527 16.0201,0.3044 35.2775,0.35361 l 35.0134,0.0895 v 15.19052 15.19052 h -54.7193 -54.7192 l -0.081,-69.97898 -0.081,-69.978984 -7.7946,21.258986 c -4.2871,11.692442 -12.7993,34.794985 -18.916,51.338988 -6.1166,16.544 -13.1023,35.47999 -15.5237,42.07999 -2.4213,6.6 -5.5623,14.988 -6.98,18.64 l -2.5775,6.64 h -23.8659 -23.866 z M 1316,81.592818 c 4.2203,-0.39163 7.8731,-1.276839 10.7972,-2.616578 5.7588,-2.638563 8.9201,-9.612056 8.4573,-18.656242 -0.2736,-5.348502 -1.2087,-8.421014 -3.6105,-11.863719 -2.1277,-3.049915 -4.3048,-4.445188 -8.6317,-5.532023 -4.2003,-1.055016 -7.8317,-1.322412 -17.9723,-1.323356 l -9.68,-9.02e-4 v 19.991874 19.991874 l 5.04,0.09686 c 2.772,0.05327 6.624,0.128809 8.56,0.167858 1.936,0.03905 5.104,-0.07599 7.04,-0.255646 z m -93.92,14.247178 V 81.919997 h 13.0685 13.0684 l 0.2204,13.616272 c 0.1212,7.488951 0.1359,13.752951 0.033,13.920001 -0.1135,0.18363 -5.3679,0.30373 -13.2889,0.30373 H 1222.08 Z"
         id="path5" />
      <path
         style="fill:#5d95c9"
         d="m 15.314668,129.23172 c -0.06385,-21.49856 -0.0638,-56.562556 1.04e-4,-77.920001 L 15.430966,12.48 h 18.634277 c 10.248852,0 20.364612,0.09304 22.479467,0.206754 l 3.84519,0.206754 13.043189,24.833245 c 7.173754,13.658284 19.758026,37.477135 27.965051,52.930778 L 116.32,118.75506 116.50462,65.697532 c 0.10153,-29.181643 0.20953,-53.093532 0.24,-53.137532 0.0305,-0.044 8.55167,-0.08 18.93603,-0.08 h 18.88065 l -0.0806,77.839997 -0.0806,77.839993 -19.2,0.0812 c -10.56,0.0447 -20.70334,-0.0273 -22.54075,-0.16 l -3.34075,-0.24121 -6.04191,-11.52 C 95.452842,141.40261 78.850407,109.93101 74.156543,101.12 72.140705,97.335996 68.219844,89.919997 65.443519,84.639997 c -2.776325,-5.28 -6.576886,-12.336 -8.445691,-15.68 l -3.397827,-6.079999 -0.198282,6.079999 c -0.109054,3.344 -0.217054,27.067999 -0.24,52.720003 l -0.04172,46.63999 H 34.27538 15.430758 Z M 228.16,167.9857 c -20.11045,-1.9223 -35.92727,-8.46075 -47.65717,-19.7008 -7.72794,-7.40521 -12.51706,-14.52265 -16.44827,-24.4449 -8.66102,-21.8601 -7.74257,-52.518776 2.19327,-73.213638 3.66587,-7.635465 7.48512,-12.840959 14.18132,-19.328627 8.35984,-8.099502 19.40157,-14.031705 32.03417,-17.210453 12.65001,-3.18313 29.85556,-3.813723 43.727,-1.60262 34.24975,5.459397 56.64939,28.568163 61.10101,63.035335 0.70229,5.437572 0.96375,17.594302 0.49898,23.199999 -1.54283,18.608324 -7.55083,33.859754 -17.93165,45.519894 -11.48624,12.90178 -26.94895,20.50317 -47.37866,23.29109 -4.3841,0.59827 -19.80235,0.88656 -24.32,0.45472 z m 16.5485,-29.24917 c 17.70195,-3.11534 28.33482,-15.8219 31.3437,-37.45653 0.65319,-4.696638 0.73664,-17.330953 0.14583,-22.080003 -0.92181,-7.409759 -3.06586,-14.732068 -5.85622,-19.999999 -5.70032,-10.761692 -14.40039,-16.872459 -26.45919,-18.58445 -3.38752,-0.480927 -11.20627,-0.221802 -14.44262,0.478649 -6.79685,1.471061 -12.18659,4.371525 -16.91715,9.103885 -8.90451,8.907895 -13.34093,23.698541 -12.73033,42.441915 0.36552,11.220663 2.15544,19.468013 5.79263,26.690503 5.65227,11.22391 13.81718,17.21834 26.57485,19.51045 2.56982,0.46171 9.66726,0.40265 12.5485,-0.10442 z M 321.8626,129.36 c -0.0564,-21.428 -0.056,-56.504307 9.4e-4,-77.947344 l 0.10353,-38.987341 30.61647,0.141793 c 32.34548,0.149801 35.63396,0.277102 47.89647,1.854136 15.24125,1.960119 24.01073,4.807423 34.17935,11.097478 22.95074,14.196746 34.70082,38.491594 33.18319,68.610636 -0.56246,11.162642 -1.81213,18.439332 -4.41547,25.710642 -3.48226,9.72624 -8.54477,17.63354 -16.20518,25.31143 -13.72564,13.75695 -28.66274,19.73263 -55.54189,22.2199 -6.96299,0.64432 -20.69482,0.9298 -45.17741,0.93922 l -24.53741,0.009 z m 61.65741,8.23067 c 13.43807,-1.12938 23.43663,-5.25746 30.8834,-12.75077 5.93802,-5.97512 9.41829,-12.97849 11.26712,-22.6729 0.63165,-3.312041 0.71731,-4.771858 0.7093,-12.087003 -0.0119,-10.85682 -0.83372,-15.453914 -4.07373,-22.78748 -5.90208,-13.35899 -16.96644,-20.947548 -34.46609,-23.638781 -2.9555,-0.454519 -5.85351,-0.570644 -14.72,-0.589838 l -11.04,-0.0239 -0.0822,47.039999 c -0.0452,25.872003 -0.0137,47.219993 0.07,47.439993 0.19204,0.50478 15.67992,0.5558 21.45227,0.0707 z m 89.01275,11.28932 c -0.27353,-25.06124 -0.2737,-92.371512 -3e-4,-117.147256 L 472.74492,12.48 h 45.84088 c 36.37329,0 45.87421,0.08261 46.00228,0.4 0.12912,0.32 0.16646,0.32 0.18667,0 0.0199,-0.315257 4.07729,-0.4 19.15138,-0.4 h 19.12612 l 5.06743,21.359999 c 10.08704,42.518488 15.55156,65.752195 18.27016,77.680001 1.52433,6.688 2.85008,12.376 2.9461,12.64 0.19901,0.54713 1.07358,-1.79146 2.03441,-5.44 0.7729,-2.93494 12.82882,-54.319179 19.67077,-83.840001 2.75339,-11.88 5.14031,-21.737573 5.30425,-21.905719 0.17995,-0.184562 7.89724,-0.358848 19.47331,-0.439783 l 19.17524,-0.134064 0.331,1.239783 c 1.01026,3.783923 14.0429,58.976816 19.55935,82.83328 3.53984,15.308424 6.48806,27.885484 6.55159,27.949014 0.2273,0.2273 2.03738,-5.94356 3.03374,-10.34251 1.3899,-6.13644 20.93608,-88.666456 22.13007,-93.440001 0.52827,-2.112 1.25348,-4.812 1.61158,-6 L 748.86235,12.48 h 72.44883 72.44884 v 15.199999 15.199999 h -33.92001 -33.92 v 14.08 14.079999 h 19.94763 c 10.9712,0 25.3712,0.09537 32,0.211941 l 12.05238,0.211941 V 86.451937 101.44 h -19.94763 c -10.9712,0 -25.3712,0.0954 -32,0.21194 l -12.05238,0.21194 v 17.86945 17.86946 l 35.42078,-0.0814 35.42077,-0.0814 2.43925,-6.07999 c 1.34158,-3.344 4.28936,-11.12 6.55062,-17.28 13.5413,-36.888556 30.83068,-83.602807 34.02119,-91.922022 l 3.71317,-9.68202 23.80464,0.08202 23.80465,0.08202 4.95401,13.119999 c 5.33901,14.139643 6.93991,18.453654 23.63041,63.679998 6.0405,16.368005 13.8867,37.608005 17.436,47.199995 3.5492,9.592 7.3682,20.032 8.4866,23.2 1.1185,3.168 2.2597,6.39069 2.5362,7.16153 l 0.5026,1.40153 -19.8483,-0.1408 c -17.468,-0.12392 -19.9084,-0.20092 -20.3496,-0.64214 -0.4827,-0.48267 -7.4222,-19.98344 -8.8057,-24.745 l -0.67452,-2.32143 -13.00138,-0.2422 c -12.76256,-0.23775 -49.86923,-0.0303 -50.18006,0.28053 -0.087,0.087 -2.14743,6.01943 -4.57866,13.1831 -2.86293,8.43569 -4.66,13.26445 -5.10041,13.70487 l -0.67999,0.68001 -59.75113,0.10001 c -32.86313,0.055 -64.25114,0.002 -69.75114,-0.11686 l -10,-0.21686 V 92.699138 c 0,-41.374926 -0.12042,-75.090339 -0.26759,-74.923139 -0.14718,0.1672 -3.18492,12.832 -6.75052,28.143999 -16.28782,69.945812 -28.62088,121.677252 -29.13186,122.194592 -0.30654,0.31035 -45.60583,0.15632 -45.91826,-0.15614 -0.11084,-0.11085 -6.39113,-26.16715 -13.95621,-57.9029 -7.56508,-31.735742 -13.81877,-57.765428 -13.89708,-57.843743 -0.22341,-0.223403 -1.31967,2.522258 -2.0411,5.112064 -0.36099,1.29587 -2.80923,11.572126 -5.44055,22.836126 -2.63132,11.264 -6.82813,29.120003 -9.32624,39.680003 -2.49811,10.56 -6.01383,25.67999 -7.81271,33.59999 l -3.27068,14.4 -5.5736,0.20102 c -7.38181,0.26623 -35.24495,0.27143 -38.68467,0.007 l -2.71107,-0.20824 -3.78265,-16.32 C 595.27476,142.54399 590.06441,120.44 585.77665,102.4 581.48889,84.359997 576.57258,63.551998 574.8515,56.159998 l -3.12922,-13.44 -29.51032,0.08328 -29.51033,0.08328 -0.11081,7.116721 c -0.061,3.914197 -0.0627,10.227797 -0.004,14.030224 l 0.1069,6.913503 3.0931,0.204841 c 1.7012,0.112663 15.99628,0.205586 31.76683,0.206497 l 28.67372,0.0017 0.204,2.16 c 0.1122,1.188 0.20502,7.932603 0.20628,14.988007 l 0.002,12.828009 -12.53241,0.21199 c -6.89282,0.1166 -21.28641,0.212 -31.98574,0.212 h -19.45333 l -0.0943,8.88 c -0.0518,4.884 -0.05,13.02 0.004,18.08 l 0.0983,9.19999 h 35.18173 35.18172 v 14.99023 14.99022 l -4.56,0.20861 c -2.508,0.11473 -27.32439,0.20913 -55.14754,0.20977 l -50.58753,0.001 z M 983.69204,97.039996 C 974.96535,71.314569 967.66059,50.5644 967.33007,50.561605 c -0.17782,-0.0015 -1.95905,4.710944 -5.32139,14.078393 -0.78967,2.2 -4.0668,11.703999 -7.28252,21.119999 -3.21572,9.416 -6.49539,18.956003 -7.28816,21.200003 l -1.44139,4.08 h 21.22228 21.22229 z M 571.41861,41.539998 c -0.10216,-0.255274 -0.17798,-0.179448 -0.19334,0.193334 -0.0139,0.337333 0.0617,0.526333 0.16807,0.42 0.10634,-0.106334 0.11771,-0.382334 0.0253,-0.613334 z m -0.32,-1.599999 c -0.10216,-0.255275 -0.17798,-0.179449 -0.19334,0.193333 -0.0139,0.337333 0.0617,0.526333 0.16807,0.42 0.10634,-0.106333 0.11771,-0.382333 0.0253,-0.613333 z m -0.32,-1.28 c -0.10216,-0.255275 -0.17798,-0.179449 -0.19334,0.193333 -0.0139,0.337333 0.0617,0.526333 0.16807,0.42 0.10634,-0.106333 0.1177,-0.382333 0.0253,-0.613333 z m -0.32,-1.28 c -0.10216,-0.255275 -0.17798,-0.179449 -0.19334,0.193333 -0.0139,0.337333 0.0617,0.526333 0.16807,0.42 0.10634,-0.106333 0.1177,-0.382333 0.0253,-0.613333 z m -0.64,-2.88 c -0.10216,-0.255275 -0.17798,-0.179449 -0.19334,0.193333 -0.0139,0.337333 0.0617,0.526333 0.16807,0.42 0.10634,-0.106333 0.1177,-0.382333 0.0253,-0.613333 z m -0.32,-1.28 c -0.10216,-0.255275 -0.17798,-0.179449 -0.19334,0.193333 -0.0139,0.337333 0.0617,0.526333 0.16807,0.42 0.10634,-0.106333 0.1177,-0.382333 0.0253,-0.613333 z m -0.64,-2.88 c -0.10216,-0.255275 -0.17798,-0.179449 -0.19334,0.193333 -0.0139,0.337334 0.0617,0.526334 0.16807,0.42 0.10634,-0.106333 0.1177,-0.382333 0.0253,-0.613333 z m -0.32,-1.28 c -0.10216,-0.255275 -0.17798,-0.179448 -0.19334,0.193333 -0.0139,0.337334 0.0617,0.526334 0.16807,0.42 0.10634,-0.106333 0.1177,-0.382333 0.0253,-0.613333 z m -0.32,-1.28 c -0.10216,-0.255274 -0.17798,-0.179448 -0.19334,0.193333 -0.0139,0.337334 0.0617,0.526334 0.16807,0.42 0.10634,-0.106333 0.1177,-0.382333 0.0253,-0.613333 z m -0.64,-2.88 c -0.10216,-0.255274 -0.17798,-0.179448 -0.19334,0.193333 -0.0139,0.337334 0.0617,0.526334 0.16807,0.42 0.10634,-0.106333 0.1177,-0.382333 0.0253,-0.613333 z m -0.32,-1.28 c -0.10216,-0.255274 -0.17798,-0.179448 -0.19334,0.193333 -0.0139,0.337334 0.0617,0.526334 0.16807,0.42 0.10634,-0.106333 0.1177,-0.382333 0.0253,-0.613333 z m -0.64,-2.88 c -0.10216,-0.255274 -0.17798,-0.179448 -0.19334,0.193334 -0.0139,0.337333 0.0617,0.526333 0.16807,0.42 0.10634,-0.106334 0.1177,-0.382334 0.0253,-0.613334 z m -0.32,-1.28 c -0.10216,-0.255274 -0.17798,-0.179448 -0.19334,0.193334 -0.0139,0.337333 0.0617,0.526333 0.16807,0.42 0.10634,-0.106334 0.1177,-0.382334 0.0253,-0.613334 z m -0.32,-1.28 c -0.10216,-0.255274 -0.17798,-0.179448 -0.19334,0.193334 -0.0139,0.337333 0.0617,0.526333 0.16807,0.42 0.10634,-0.106334 0.1177,-0.382334 0.0253,-0.613334 z m -0.32,-1.6 c -0.10216,-0.255274 -0.17798,-0.179448 -0.19334,0.193334 -0.0139,0.337333 0.0617,0.526333 0.16807,0.42 0.10634,-0.106334 0.1177,-0.382334 0.0253,-0.613334 z m -0.32,-1.28 c -0.10216,-0.255274 -0.17798,-0.179448 -0.19334,0.193334 -0.0139,0.337333 0.0617,0.526333 0.16807,0.42 0.10634,-0.106334 0.1177,-0.382334 0.0253,-0.613334 z m -0.32,-1.28 c -0.10216,-0.255274 -0.17798,-0.179448 -0.19334,0.193334 -0.0139,0.337333 0.0617,0.526333 0.16807,0.42 0.10634,-0.106334 0.1177,-0.382334 0.0253,-0.613334 z M 1067.1623,167.43999 c -4.4438,-11.43989 -36.1569,-96.850319 -46.8434,-126.159992 -1.6364,-4.487999 -4.0813,-11.111573 -5.4331,-14.719053 -2.2232,-5.93258 -4.9658,-13.640837 -4.9658,-13.956516 0,-0.06844 8.8401,-0.124429 19.6446,-0.124429 18.237,0 19.6932,0.04012 20.3238,0.56 0.4128,0.340337 1.3613,2.442817 2.418,5.359999 1.6825,4.644782 17.3754,48.599757 28.3332,79.359997 5.5092,15.465064 10.0742,27.633814 10.5451,28.109844 0.1469,0.14841 0.5832,-0.57159 0.9697,-1.6 2.6522,-7.05735 12.9716,-35.707886 24.6678,-68.486932 7.5472,-21.151399 14.0928,-39.38286 14.5458,-40.514358 0.4888,-1.221144 1.1098,-2.208931 1.5278,-2.430428 0.533,-0.282452 24.273,-0.349892 97.6642,-0.27744 l 96.96,0.09572 5.5505,0.865253 c 3.0528,0.47589 6.6987,1.083069 8.1021,1.349288 13.2029,2.504544 24.1329,9.495631 29.0312,18.569057 3.3949,6.288625 4.9095,13.206925 4.904,22.399999 0,6.336631 -0.388,9.393731 -1.6924,13.467654 -4.1275,12.891397 -11.5439,20.358764 -24.7754,24.945815 -1.408,0.488121 -2.6709,0.982911 -2.8065,1.099534 -0.1356,0.116623 0.9444,0.665671 2.4,1.220106 4.1453,1.578935 8.2004,4.392162 12.2471,8.496302 5.7103,5.79129 6.7573,7.59724 21.411,36.9298 7.1436,14.29957 12.9884,26.07157 12.9884,26.16 0,0.0884 -9.4341,0.16078 -20.9647,0.16078 h -20.9647 l -0.6419,-1.04 c -0.353,-0.572 -5.4528,-10.61802 -11.3328,-22.3245 -5.88,-11.70648 -11.3958,-22.36248 -12.2574,-23.68 -3.5358,-5.40684 -5.8347,-7.49149 -10.5206,-9.53991 -5.0013,-2.18628 -3.5359,-2.07978 -30.4379,-2.21203 l -24.4,-0.11995 v -33.261801 -33.2618 h -28.801 -28.8011 l 0.081,47.439999 0.081,47.439992 35.28,0.0814 35.28,0.0814 v 15.1986 15.19859 h -48.9087 c -26.8998,0 -51.5345,-0.0951 -54.7438,-0.21136 l -5.8351,-0.21136 0.1038,-70.012695 c 0.057,-38.506984 0.01,-69.91187 -0.1039,-69.788637 -0.1143,0.123234 -3.9814,10.520062 -8.5936,23.104061 -4.6123,12.584 -13.1779,35.839999 -19.0347,51.680001 -5.8569,15.84 -12.5515,33.98399 -14.877,40.31999 -2.3256,6.336 -5.3783,14.48553 -6.7839,18.11006 l -2.5557,6.59006 -6.4537,0.2091 c -3.5495,0.11501 -14.2692,0.20948 -23.8216,0.20994 l -17.3679,8.4e-4 z m 249.8688,-85.836213 c 5.317,-0.614004 10.5118,-2.35436 12.7918,-4.285522 1.6238,-1.375303 3.5347,-4.515772 4.4711,-7.347894 0.7961,-2.407876 0.8647,-3.032347 0.8845,-8.050363 0.019,-4.83521 -0.061,-5.706819 -0.7246,-7.84 -1.8863,-6.067786 -5.1139,-9.494708 -10.3659,-11.006059 -4.0928,-1.177747 -7.7806,-1.470112 -18.568,-1.472054 l -10.48,-0.0019 v 19.946666 c 0,10.970667 0.06,20.006666 0.1334,20.08 0.329,0.328767 18.9816,0.309236 21.8577,-0.02289 z M 1222.08,95.839996 V 81.919997 h 13.0685 13.0684 l 0.2204,13.616272 c 0.1212,7.488951 0.1359,13.752951 0.033,13.920001 -0.1135,0.18363 -5.3679,0.30373 -13.2889,0.30373 H 1222.08 Z"
         id="path4" />
      <path
         style="fill:#f48837"
         d="M 15.36,90.399997 V 12.48 l 17.040001,9.78e-4 c 9.372,5.38e-4 19.488,0.09436 22.48,0.208498 l 5.44,0.20752 13.87811,26.431501 c 21.928232,41.763328 42.097959,79.690523 42.385329,79.701473 0.1449,0.006 0.16105,-9.02597 0.0359,-20.069974 -0.12515,-11.043999 -0.11813,-35.019998 0.0156,-53.279998 L 116.87808,12.48 h 18.62832 18.62832 l 0.21264,24.532864 c 0.27156,31.330591 0.27156,75.443676 0,106.774266 l -0.21264,24.53286 -17.46736,-0.0423 c -9.60705,-0.0233 -19.67119,-0.13129 -22.36475,-0.24 l -4.8974,-0.19765 -3.69247,-7.04 C 93.595893,137.69823 81.36303,114.48325 78.31195,108.8 76.37498,105.192 71.845729,96.623996 68.24695,89.759997 60.944158,75.831285 53.725763,62.720136 53.360001,62.720052 c -0.132,-3e-5 -0.24,23.759945 -0.24,52.799948 v 52.79999 h -18.88 H 15.36 Z m 217.12,77.702163 c -14.18305,-0.49331 -28.32665,-4.23762 -39.25564,-10.39235 -10.89874,-6.1377 -20.64765,-16.38464 -26.2903,-27.63335 -3.98438,-7.94293 -6.31775,-15.74576 -7.94149,-26.55646 -0.69502,-4.627406 -0.59511,-23.208334 0.15229,-28.320003 3.47769,-23.785104 14.15138,-41.128946 32.17125,-52.275581 12.58015,-7.781761 28.52733,-11.73129 47.32915,-11.721679 31.74168,0.01622 55.97112,12.274129 68.93971,34.877261 5.51276,9.608267 8.56739,19.416034 9.91659,31.839999 0.53924,4.965613 0.53531,19.092607 -0.007,23.680003 -2.26254,19.15317 -8.69485,33.52839 -20.26088,45.27999 -10.23834,10.40262 -24.21943,17.21426 -40.99863,19.97468 -7.67196,1.26216 -13.91214,1.58985 -23.75545,1.24749 z m 12.48,-29.39464 c 7.68352,-1.22118 14.29302,-4.63743 19.48388,-10.07065 2.92728,-3.06395 4.85686,-5.95602 6.90911,-10.35546 3.37221,-7.22903 4.96205,-14.7745 5.33526,-25.321413 0.50833,-14.365113 -1.86869,-26.27971 -7.02257,-35.199999 -5.56557,-9.632854 -13.4537,-15.131018 -24.36564,-16.983272 -4.70271,-0.798263 -13.26456,-0.50564 -17.46004,0.596741 -6.03617,1.586035 -11.04523,4.462096 -15.37565,8.828284 -6.25253,6.304168 -10.2354,15.136635 -11.99409,26.598246 -0.70498,4.594522 -0.97508,16.156574 -0.49821,21.326757 1.8609,20.175486 10.32766,33.571556 24.50795,38.776356 6.49363,2.38345 13.14796,2.96973 20.48,1.80441 z M 321.92001,90.399997 V 12.48 l 25.52,4.82e-4 c 31.52024,5.95e-4 41.97045,0.449383 55.83576,2.397885 6.7369,0.946742 8.19927,1.222495 12.08424,2.278669 17.13522,4.658413 32.6252,16.03615 41.67669,30.612459 5.45851,8.790269 9.36821,20.763929 10.46385,32.046079 0.76257,7.852492 0.29457,19.695386 -1.11527,28.222466 -2.35246,14.22834 -8.69363,26.54422 -19.02351,36.94766 -11.09342,11.17242 -23.99743,17.50591 -41.92176,20.57586 -12.57715,2.15412 -25.46155,2.72477 -62,2.74595 l -21.52,0.0125 z m 62.58442,47.185763 c 10.06945,-0.96281 18.70278,-3.89475 25.18457,-8.55288 2.92765,-2.10395 7.74142,-6.9744 9.29319,-9.40262 3.09083,-4.83652 5.42611,-10.74584 6.63595,-16.79191 0.87603,-4.377922 1.22709,-15.804388 0.64344,-20.943242 -1.23272,-10.853764 -5.15236,-19.535739 -11.84456,-26.23564 -5.31066,-5.316773 -11.56549,-8.72378 -19.69701,-10.728975 -6.30799,-1.55552 -8.91731,-1.796881 -21.2,-1.960996 l -11.6,-0.154994 v 47.552746 47.552741 h 9.54442 c 5.24943,0 11.11743,-0.1504 13.04,-0.33423 z m 88.0577,-8.35013 c -0.0968,-21.4964 -0.0967,-56.560397 8e-5,-77.919996 L 472.73825,12.48 h 45.84741 c 43.39513,0 45.85525,0.02995 45.99377,0.56 0.13937,0.533333 0.14811,0.533333 0.18346,0 0.0349,-0.526673 1.17536,-0.56 19.16324,-0.56 h 19.12612 l 5.06743,21.359999 c 10.08704,42.518488 15.55156,65.752195 18.27016,77.680001 1.52433,6.688 2.85008,12.376 2.9461,12.64 0.19901,0.54713 1.07358,-1.79146 2.03441,-5.44 0.7729,-2.93494 12.82882,-54.319179 19.67077,-83.840001 2.75339,-11.88 5.14031,-21.737573 5.30425,-21.905719 0.17995,-0.184562 7.89724,-0.358848 19.47331,-0.439783 l 19.17524,-0.134064 0.331,1.239783 c 1.01026,3.783923 14.0429,58.976816 19.55935,82.83328 3.53984,15.308424 6.48806,27.885484 6.55159,27.949014 0.2273,0.2273 2.03738,-5.94356 3.03374,-10.34251 1.3899,-6.13644 20.93608,-88.666456 22.13007,-93.440001 0.52827,-2.112 1.25348,-4.812 1.61158,-6 L 748.86235,12.48 h 72.44883 72.44884 v 15.199999 15.199999 h -33.92001 -33.92 v 14.08 14.079999 h 19.94763 c 10.9712,0 25.3712,0.09537 32,0.211941 l 12.05238,0.211941 V 86.451937 101.44 h -19.94763 c -10.9712,0 -25.3712,0.0954 -32,0.21194 l -12.05238,0.21194 v 17.86945 17.86946 l 35.42078,-0.0814 35.42077,-0.0814 2.43925,-6.07999 c 1.34158,-3.344 4.28936,-11.12 6.55062,-17.28 13.5413,-36.888556 30.83068,-83.602807 34.02119,-91.922022 l 3.71317,-9.68202 23.80464,0.08202 23.80465,0.08202 4.95401,13.119999 c 5.33901,14.139643 6.93991,18.453654 23.63041,63.679998 6.0405,16.368005 13.8867,37.608005 17.436,47.199995 3.5492,9.592 7.3682,20.032 8.4866,23.2 1.1185,3.168 2.2597,6.39069 2.5362,7.16153 l 0.5026,1.40153 -19.8483,-0.1408 c -17.468,-0.12392 -19.9084,-0.20092 -20.3496,-0.64214 -0.4827,-0.48267 -7.4222,-19.98344 -8.8057,-24.745 l -0.67452,-2.32143 -13.00138,-0.2422 c -12.76256,-0.23775 -49.86923,-0.0303 -50.18006,0.28053 -0.087,0.087 -2.14743,6.01943 -4.57866,13.1831 -2.86293,8.43569 -4.66,13.26445 -5.10041,13.70487 l -0.67999,0.68001 -59.75113,0.10001 c -32.86313,0.055 -64.25114,0.002 -69.75114,-0.11686 l -10,-0.21686 V 92.699138 c 0,-41.374926 -0.12042,-75.090339 -0.26759,-74.923139 -0.14718,0.1672 -3.18492,12.832 -6.75052,28.143999 -16.28782,69.945812 -28.62088,121.677252 -29.13186,122.194592 -0.30654,0.31035 -45.60583,0.15632 -45.91826,-0.15614 -0.11084,-0.11085 -6.39113,-26.16715 -13.95621,-57.9029 -7.56508,-31.735742 -13.81877,-57.765428 -13.89708,-57.843743 -0.22341,-0.223403 -1.31967,2.522258 -2.0411,5.112064 -0.36099,1.29587 -2.80923,11.572126 -5.44055,22.836126 -2.63132,11.264 -6.82813,29.120003 -9.32624,39.680003 -2.49811,10.56 -6.01383,25.67999 -7.81271,33.59999 l -3.27068,14.4 -5.5736,0.20102 c -7.38181,0.26623 -35.24495,0.27143 -38.68467,0.007 l -2.71107,-0.20824 -3.78265,-16.32 C 595.27476,142.54399 590.06441,120.44 585.77665,102.4 581.48889,84.359997 576.57258,63.551998 574.8515,56.159998 l -3.12922,-13.44 -29.49132,0.08327 -29.49131,0.08327 -0.20982,4.847605 c -0.26681,6.164354 -0.26677,12.608467 1.4e-4,18.77497 l 0.20996,4.850878 h 31.79004 31.79004 v 14.987918 14.987911 l -31.71965,0.1984 c -17.44581,0.10912 -31.7659,0.24465 -31.82243,0.30118 -0.29053,0.29053 -0.5155,20.69351 -0.30688,27.83132 l 0.24045,8.22673 34.81771,0.0933 c 19.14974,0.0513 34.888,0.16526 34.9739,0.25326 0.0859,0.088 0.26161,6.79624 0.39045,14.9072 l 0.23426,14.7472 -14.20391,0.21241 c -7.81214,0.11682 -32.64983,0.21258 -55.19487,0.2128 l -40.99096,3.9e-4 z M 983.69204,97.039996 C 974.96535,71.314569 967.66059,50.5644 967.33007,50.561605 c -0.17782,-0.0015 -1.95905,4.710944 -5.32139,14.078393 -0.78967,2.2 -4.0668,11.703999 -7.28252,21.119999 -3.21572,9.416 -6.49539,18.956003 -7.28816,21.200003 l -1.44139,4.08 h 21.22228 21.22229 z M 571.41861,41.539998 c -0.10216,-0.255274 -0.17798,-0.179448 -0.19334,0.193334 -0.0139,0.337333 0.0617,0.526333 0.16807,0.42 0.10634,-0.106334 0.11771,-0.382334 0.0253,-0.613334 z m -0.39638,-2.002222 c -0.12047,-0.642191 -0.28304,-1.103619 -0.36127,-1.025397 -0.0782,0.07822 -0.0437,0.667651 0.0768,1.309842 0.12047,0.642191 0.28304,1.10362 0.36127,1.025397 0.0782,-0.07822 0.0436,-0.667651 -0.0768,-1.309842 z m -0.56362,-2.157777 c -0.10216,-0.255275 -0.17798,-0.179449 -0.19334,0.193333 -0.0139,0.337333 0.0617,0.526333 0.16807,0.42 0.10634,-0.106333 0.1177,-0.382333 0.0253,-0.613333 z m -0.32,-1.28 c -0.10216,-0.255275 -0.17798,-0.179449 -0.19334,0.193333 -0.0139,0.337333 0.0617,0.526333 0.16807,0.42 0.10634,-0.106333 0.1177,-0.382333 0.0253,-0.613333 z m -0.39638,-2.002222 c -0.12047,-0.642191 -0.28304,-1.10362 -0.36127,-1.025398 -0.0782,0.07822 -0.0436,0.667651 0.0768,1.309842 0.12047,0.642191 0.28304,1.10362 0.36127,1.025398 0.0782,-0.07822 0.0436,-0.667652 -0.0768,-1.309842 z m -0.56362,-2.157778 c -0.10216,-0.255275 -0.17798,-0.179449 -0.19334,0.193333 -0.0139,0.337333 0.0617,0.526333 0.16807,0.42 0.10634,-0.106333 0.1177,-0.382333 0.0253,-0.613333 z m -0.39638,-2.002222 c -0.12047,-0.642191 -0.28304,-1.10362 -0.36127,-1.025398 -0.0782,0.07822 -0.0437,0.667651 0.0768,1.309842 0.12047,0.642191 0.28304,1.10362 0.36127,1.025398 0.0782,-0.07822 0.0436,-0.667651 -0.0768,-1.309842 z m -0.56362,-2.157778 c -0.10216,-0.255274 -0.17798,-0.179448 -0.19334,0.193333 -0.0139,0.337334 0.0617,0.526334 0.16807,0.42 0.10634,-0.106333 0.1177,-0.382333 0.0253,-0.613333 z m -0.32,-1.28 c -0.10216,-0.255274 -0.17798,-0.179448 -0.19334,0.193333 -0.0139,0.337334 0.0617,0.526334 0.16807,0.42 0.10634,-0.106333 0.1177,-0.382333 0.0253,-0.613333 z m -0.39638,-2.002222 c -0.12047,-0.642191 -0.28304,-1.10362 -0.36127,-1.025398 -0.0782,0.07822 -0.0436,0.667651 0.0768,1.309842 0.12047,0.642191 0.28304,1.10362 0.36127,1.025398 0.0782,-0.07822 0.0436,-0.667651 -0.0768,-1.309842 z m -0.56362,-2.157778 c -0.10216,-0.255274 -0.17798,-0.179448 -0.19334,0.193334 -0.0139,0.337333 0.0617,0.526333 0.16807,0.419999 0.10634,-0.106333 0.1177,-0.382333 0.0253,-0.613333 z m -0.39638,-2.002222 c -0.12047,-0.642191 -0.28304,-1.10362 -0.36127,-1.025398 -0.0782,0.07822 -0.0437,0.667652 0.0768,1.309842 0.12047,0.642191 0.28304,1.10362 0.36127,1.025398 0.0782,-0.07822 0.0436,-0.667651 -0.0768,-1.309842 z m -0.56362,-2.157778 c -0.10216,-0.255274 -0.17798,-0.179448 -0.19334,0.193334 -0.0139,0.337333 0.0617,0.526333 0.16807,0.42 0.10634,-0.106334 0.1177,-0.382334 0.0253,-0.613334 z m -0.39638,-2.002222 c -0.12047,-0.642191 -0.28304,-1.10362 -0.36127,-1.025397 -0.0782,0.07822 -0.0436,0.667651 0.0768,1.309842 0.12047,0.642191 0.28304,1.103619 0.36127,1.025397 0.0782,-0.07822 0.0437,-0.667651 -0.0768,-1.309842 z m -0.56362,-2.157778 c -0.10216,-0.255274 -0.17798,-0.179448 -0.19334,0.193334 -0.0139,0.337333 0.0617,0.526333 0.16807,0.42 0.10634,-0.106334 0.1177,-0.382334 0.0253,-0.613334 z M 1067.1623,167.43999 c -4.4438,-11.43989 -36.1569,-96.850319 -46.8434,-126.159992 -1.6364,-4.487999 -4.0813,-11.111573 -5.4331,-14.719053 -2.2232,-5.93258 -4.9658,-13.640837 -4.9658,-13.956516 0,-0.06844 8.8401,-0.124429 19.6446,-0.124429 18.237,0 19.6932,0.04012 20.3238,0.56 0.4128,0.340337 1.3613,2.442817 2.418,5.359999 1.6825,4.644782 17.3754,48.599757 28.3332,79.359997 5.5092,15.465064 10.0742,27.633814 10.5451,28.109844 0.1469,0.14841 0.5832,-0.57159 0.9697,-1.6 2.6522,-7.05735 12.9716,-35.707886 24.6678,-68.486932 7.5472,-21.151399 14.0928,-39.38286 14.5458,-40.514358 0.4888,-1.221144 1.1098,-2.208931 1.5278,-2.430428 0.533,-0.282452 24.273,-0.349892 97.6642,-0.27744 l 96.96,0.09572 5.5505,0.865253 c 3.0528,0.47589 6.6987,1.083069 8.1021,1.349288 13.2029,2.504544 24.1329,9.495631 29.0312,18.569057 3.3949,6.288625 4.9095,13.206925 4.904,22.399999 0,6.336631 -0.388,9.393731 -1.6924,13.467654 -4.1275,12.891397 -11.5439,20.358764 -24.7754,24.945815 -1.408,0.488121 -2.6709,0.982911 -2.8065,1.099534 -0.1356,0.116623 0.9444,0.665671 2.4,1.220106 4.1453,1.578935 8.2004,4.392162 12.2471,8.496302 5.7103,5.79129 6.7573,7.59724 21.411,36.9298 7.1436,14.29957 12.9884,26.07157 12.9884,26.16 0,0.0884 -9.4341,0.16078 -20.9647,0.16078 h -20.9647 l -0.6419,-1.04 c -0.353,-0.572 -5.4528,-10.61802 -11.3328,-22.3245 -5.88,-11.70648 -11.3958,-22.36248 -12.2574,-23.68 -3.5358,-5.40684 -5.8347,-7.49149 -10.5206,-9.53991 -5.0013,-2.18628 -3.5359,-2.07978 -30.4379,-2.21203 l -24.4,-0.11995 v -33.261801 -33.2618 h -28.801 -28.8011 l 0.081,47.439999 0.081,47.439992 35.28,0.0814 35.28,0.0814 v 15.1986 15.19859 h -48.9087 c -26.8998,0 -51.5345,-0.0951 -54.7438,-0.21136 l -5.8351,-0.21136 0.1038,-70.012695 c 0.057,-38.506984 0.01,-69.91187 -0.1039,-69.788637 -0.1143,0.123234 -3.9814,10.520062 -8.5936,23.104061 -4.6123,12.584 -13.1779,35.839999 -19.0347,51.680001 -5.8569,15.84 -12.5515,33.98399 -14.877,40.31999 -2.3256,6.336 -5.3783,14.48553 -6.7839,18.11006 l -2.5557,6.59006 -6.4537,0.2091 c -3.5495,0.11501 -14.2692,0.20948 -23.8216,0.20994 l -17.3679,8.4e-4 z m 249.8688,-85.836213 c 5.317,-0.614004 10.5118,-2.35436 12.7918,-4.285522 1.6238,-1.375303 3.5347,-4.515772 4.4711,-7.347894 0.7961,-2.407876 0.8647,-3.032347 0.8845,-8.050363 0.019,-4.83521 -0.061,-5.706819 -0.7246,-7.84 -1.8863,-6.067786 -5.1139,-9.494708 -10.3659,-11.006059 -4.0928,-1.177747 -7.7806,-1.470112 -18.568,-1.472054 l -10.48,-0.0019 v 19.946666 c 0,10.970667 0.06,20.006666 0.1334,20.08 0.329,0.328767 18.9816,0.309236 21.8577,-0.02289 z M 1222.08,95.679996 V 81.919997 h 13.12 13.12 V 95.679996 109.44 h -13.12 -13.12 z"
         id="path3" />
      <path
         style="fill:#367cbd"
         d="M 15.36,90.399997 V 12.48 l 17.040001,9.78e-4 c 9.372,5.38e-4 19.488,0.09436 22.48,0.208498 l 5.44,0.20752 13.87811,26.431501 c 21.928232,41.763328 42.097959,79.690523 42.385329,79.701473 0.1449,0.006 0.16105,-9.02597 0.0359,-20.069974 -0.12515,-11.043999 -0.11813,-35.019998 0.0156,-53.279998 L 116.87808,12.48 h 18.62832 18.62832 l 0.21264,24.532864 c 0.27156,31.330591 0.27156,75.443676 0,106.774266 l -0.21264,24.53286 -17.46736,-0.0423 c -9.60705,-0.0233 -19.67119,-0.13129 -22.36475,-0.24 l -4.8974,-0.19765 -3.69247,-7.04 C 93.595893,137.69823 81.36303,114.48325 78.31195,108.8 76.37498,105.192 71.845729,96.623996 68.24695,89.759997 60.944158,75.831285 53.725763,62.720136 53.360001,62.720052 c -0.132,-3e-5 -0.24,23.759945 -0.24,52.799948 v 52.79999 h -18.88 H 15.36 Z m 217.12,77.702163 c -14.18305,-0.49331 -28.32665,-4.23762 -39.25564,-10.39235 -10.89874,-6.1377 -20.64765,-16.38464 -26.2903,-27.63335 -3.98438,-7.94293 -6.31775,-15.74576 -7.94149,-26.55646 -0.69502,-4.627406 -0.59511,-23.208334 0.15229,-28.320003 3.47769,-23.785104 14.15138,-41.128946 32.17125,-52.275581 12.58015,-7.781761 28.52733,-11.73129 47.32915,-11.721679 31.74168,0.01622 55.97112,12.274129 68.93971,34.877261 5.51276,9.608267 8.56739,19.416034 9.91659,31.839999 0.53924,4.965613 0.53531,19.092607 -0.007,23.680003 -2.26254,19.15317 -8.69485,33.52839 -20.26088,45.27999 -10.23834,10.40262 -24.21943,17.21426 -40.99863,19.97468 -7.67196,1.26216 -13.91214,1.58985 -23.75545,1.24749 z m 12.48,-29.39464 c 7.68352,-1.22118 14.29302,-4.63743 19.48388,-10.07065 2.92728,-3.06395 4.85686,-5.95602 6.90911,-10.35546 3.37221,-7.22903 4.96205,-14.7745 5.33526,-25.321413 0.50833,-14.365113 -1.86869,-26.27971 -7.02257,-35.199999 -5.56557,-9.632854 -13.4537,-15.131018 -24.36564,-16.983272 -4.70271,-0.798263 -13.26456,-0.50564 -17.46004,0.596741 -6.03617,1.586035 -11.04523,4.462096 -15.37565,8.828284 -6.25253,6.304168 -10.2354,15.136635 -11.99409,26.598246 -0.70498,4.594522 -0.97508,16.156574 -0.49821,21.326757 1.8609,20.175486 10.32766,33.571556 24.50795,38.776356 6.49363,2.38345 13.14796,2.96973 20.48,1.80441 z M 321.92001,90.399997 V 12.48 l 25.52,4.82e-4 c 31.52024,5.95e-4 41.97045,0.449383 55.83576,2.397885 6.7369,0.946742 8.19927,1.222495 12.08424,2.278669 17.13522,4.658413 32.6252,16.03615 41.67669,30.612459 5.45851,8.790269 9.36821,20.763929 10.46385,32.046079 0.76257,7.852492 0.29457,19.695386 -1.11527,28.222466 -2.35246,14.22834 -8.69363,26.54422 -19.02351,36.94766 -11.09342,11.17242 -23.99743,17.50591 -41.92176,20.57586 -12.57715,2.15412 -25.46155,2.72477 -62,2.74595 l -21.52,0.0125 z m 62.58442,47.185763 c 10.06945,-0.96281 18.70278,-3.89475 25.18457,-8.55288 2.92765,-2.10395 7.74142,-6.9744 9.29319,-9.40262 3.09083,-4.83652 5.42611,-10.74584 6.63595,-16.79191 0.87603,-4.377922 1.22709,-15.804388 0.64344,-20.943242 -1.23272,-10.853764 -5.15236,-19.535739 -11.84456,-26.23564 -5.31066,-5.316773 -11.56549,-8.72378 -19.69701,-10.728975 -6.30799,-1.55552 -8.91731,-1.796881 -21.2,-1.960996 l -11.6,-0.154994 v 47.552746 47.552741 h 9.54442 c 5.24943,0 11.11743,-0.1504 13.04,-0.33423 z m 88.0577,-8.35013 c -0.0968,-21.4964 -0.0967,-56.560397 8e-5,-77.919996 L 472.73825,12.48 h 45.87088 c 25.22898,0 45.87088,0.07279 45.87088,0.161751 0,0.22687 6.69729,28.993373 6.90956,29.678247 0.16443,0.530531 -1.3742,0.56 -29.23803,0.56 h -29.41161 l -0.20996,4.850878 c -0.11548,2.667983 -0.20996,6.893088 -0.20996,9.389122 0,2.496034 0.0945,6.721139 0.20996,9.389121 l 0.20996,4.850878 h 31.79004 31.79004 v 14.987918 14.987915 l -31.71965,0.1984 c -17.44581,0.10912 -31.7659,0.24465 -31.82243,0.30118 -0.29053,0.29053 -0.5155,20.69351 -0.30688,27.83132 l 0.24045,8.22673 34.81771,0.0933 c 19.14974,0.0513 34.888,0.16526 34.9739,0.25326 0.0859,0.088 0.26161,6.79624 0.39045,14.9072 l 0.23426,14.7472 -14.20391,0.21241 c -7.81214,0.11682 -32.64983,0.21258 -55.19487,0.2128 l -40.99096,3.9e-4 z M 1222.08,95.679996 V 81.919997 h 13.12 13.12 V 95.679996 109.44 h -13.12 -13.12 z"
         id="path2" />
    </g>
  </g>
</svg>
