<svg version="1.1" id="Layer_1" xmlns="http://www.w3.org/2000/svg" xmlns:xlink="http://www.w3.org/1999/xlink" x="0px" y="0px"
	 width="100%" viewBox="0 0 2504 418" enable-background="new 0 0 2504 418" xml:space="preserve">
<path fill="#FEFEFE" opacity="1.000000" stroke="none" 
	d="
M1818.000000,419.000000 
	C1212.000000,419.000000 606.500000,419.000000 1.000000,419.000000 
	C1.000000,279.666656 1.000000,140.333328 1.000000,1.000000 
	C835.666687,1.000000 1670.333374,1.000000 2505.000000,1.000000 
	C2505.000000,140.333328 2505.000000,279.666656 2505.000000,419.000000 
	C2276.166748,419.000000 2047.333374,419.000000 1818.000000,419.000000 
M1415.831665,195.500397 
	C1415.831665,188.847244 1415.831665,182.194092 1415.831665,174.182526 
	C1442.773315,207.700851 1468.666992,239.915451 1494.969238,272.638214 
	C1521.365479,239.820587 1547.417114,207.431473 1573.468750,175.042358 
	C1573.795776,175.203354 1574.122803,175.364365 1574.449829,175.525360 
	C1574.449829,228.945633 1574.449829,282.365906 1574.449829,335.765625 
	C1592.109741,335.765625 1609.376831,335.765625 1626.630371,335.765625 
	C1626.630371,253.667313 1626.630371,171.803894 1626.630371,89.833183 
	C1611.596924,89.833183 1596.931519,89.736679 1582.270874,89.960396 
	C1580.520020,89.987106 1578.286255,91.347206 1577.134155,92.779404 
	C1550.562988,125.809265 1524.105469,158.930588 1497.661621,192.062515 
	C1496.854858,193.073242 1496.420776,194.381561 1495.580444,195.998489 
	C1485.430786,183.332413 1476.398315,172.076248 1467.382812,160.806610 
	C1449.228638,138.113708 1431.102173,115.398415 1412.884644,92.756363 
	C1411.862549,91.485985 1410.130981,89.979034 1408.711182,89.960030 
	C1393.603882,89.757790 1378.492920,89.834480 1363.362305,89.834480 
	C1363.362305,172.167480 1363.362305,254.033020 1363.362305,335.698120 
	C1380.986572,335.698120 1398.247681,335.698120 1415.831665,335.698120 
	C1415.831665,289.098114 1415.831665,242.799179 1415.831665,195.500397 
M70.491905,335.999908 
	C74.924835,335.999908 79.357765,335.999908 84.068481,335.999908 
	C84.068481,284.988098 84.068481,234.574997 84.068481,183.223404 
	C85.260880,184.575485 85.902374,185.230865 86.463287,185.949173 
	C124.702377,234.918381 162.948578,283.882050 201.125793,332.899445 
	C202.928192,335.213654 204.773712,336.153717 207.763687,336.081970 
	C217.090515,335.858154 226.426117,335.999939 235.758316,335.999939 
	C240.860733,335.999939 245.963150,335.999908 250.850922,335.999908 
	C250.850922,253.584198 250.850922,171.838531 250.850922,90.132782 
	C233.279388,90.132782 216.025253,90.132782 198.212296,90.132782 
	C198.212296,140.718582 198.212296,191.006897 198.212296,241.295227 
	C196.829056,241.193192 196.553909,240.565689 196.145142,240.042603 
	C159.219498,192.789444 122.102470,145.683487 85.560486,98.135582 
	C80.573029,91.645958 75.746101,89.281227 67.922905,89.673622 
	C55.840511,90.279640 43.705341,89.833328 31.401901,89.833328 
	C31.401901,172.082657 31.401901,253.817078 31.401901,335.999908 
	C44.251720,335.999908 56.873447,335.999908 70.491905,335.999908 
M2267.489746,335.999908 
	C2271.431885,335.999908 2275.374023,335.999908 2279.616699,335.999908 
	C2279.616699,284.982025 2279.616699,234.567490 2279.616699,183.006622 
	C2287.399170,192.968506 2294.506104,202.073380 2301.621338,211.171844 
	C2333.348633,251.743683 2365.099121,292.297516 2396.754150,332.925659 
	C2398.588867,335.280640 2400.453125,336.111633 2403.401611,336.073181 
	C2416.398926,335.903564 2429.399414,336.009094 2442.398926,335.986816 
	C2443.821533,335.984375 2445.243408,335.800751 2446.479004,335.714264 
	C2446.479004,253.518158 2446.479004,171.782776 2446.479004,90.093292 
	C2428.864258,90.093292 2411.603271,90.093292 2393.770752,90.093292 
	C2393.770752,140.819992 2393.770752,191.289352 2393.770752,242.528793 
	C2354.602051,192.424591 2316.002930,143.100098 2277.518799,93.686150 
	C2275.353760,90.906113 2273.217773,89.687172 2269.660156,89.751175 
	C2257.664551,89.966942 2245.662598,89.833321 2233.663086,89.833321 
	C2231.418213,89.833321 2229.173340,89.833321 2227.187012,89.833321 
	C2227.187012,172.345200 2227.187012,254.078201 2227.187012,335.999908 
	C2240.524170,335.999908 2253.509033,335.999908 2267.489746,335.999908 
M1975.496826,89.834488 
	C1964.891235,89.834488 1954.285767,89.834488 1943.814209,89.834488 
	C1943.814209,172.231506 1943.814209,253.962692 1943.814209,335.731873 
	C1961.372559,335.731873 1978.624634,335.731873 1996.191040,335.731873 
	C1996.191040,285.066467 1996.191040,234.666977 1996.191040,183.158600 
	C1997.782837,185.014664 1998.741455,186.047562 1999.606689,187.153503 
	C2037.579224,235.692871 2075.561035,284.225281 2113.456299,332.824890 
	C2115.269775,335.150848 2117.036865,336.158722 2120.042969,336.079559 
	C2128.702148,335.851501 2137.371094,335.999054 2146.036377,335.999054 
	C2151.802246,335.999054 2157.568115,335.999023 2163.162109,335.999023 
	C2163.162109,253.618271 2163.162109,171.888000 2163.162109,90.133453 
	C2145.596191,90.133453 2128.360840,90.133453 2110.638184,90.133453 
	C2110.638184,140.764755 2110.638184,191.098999 2110.638184,242.263184 
	C2109.455811,240.974213 2108.869629,240.416748 2108.376709,239.786560 
	C2072.251709,193.598389 2035.858032,147.615417 2000.263916,101.021553 
	C1993.669067,92.388489 1987.139526,87.827507 1975.496826,89.834488 
M410.746887,339.634827 
	C447.861023,344.387482 482.707153,338.635803 513.131775,315.663513 
	C555.972229,283.316498 573.141357,239.963318 563.447327,187.374115 
	C556.144653,147.758224 532.092102,119.227554 497.200989,99.988113 
	C470.660065,85.353088 441.876373,82.193771 412.163544,85.918808 
	C372.941071,90.836060 342.127350,110.283546 320.214203,142.580109 
	C294.772522,180.077164 291.183136,221.243561 308.935486,262.426910 
	C327.808044,306.208984 362.518188,331.760345 410.746887,339.634827 
M1079.017334,186.641663 
	C1075.237305,169.596924 1068.494629,153.923370 1057.712402,140.065338 
	C1033.166382,108.517311 1000.622437,91.745766 961.023010,90.250282 
	C928.415161,89.018837 895.726318,89.931030 863.073364,89.911819 
	C862.791199,89.911652 862.508911,90.168343 862.033569,90.398689 
	C862.033569,172.050827 862.033569,253.779602 862.033569,335.801514 
	C863.108826,335.873077 864.064453,335.991974 865.020081,335.992279 
	C894.011414,336.002075 923.006348,336.261536 951.992004,335.857605 
	C962.070190,335.717224 972.277466,334.703857 982.163879,332.758148 
	C1018.703857,325.566803 1046.718018,305.477905 1065.705811,273.725708 
	C1081.651489,247.060730 1084.361206,217.745270 1079.017334,186.641663 
M807.894409,158.766693 
	C805.070190,149.469498 803.645630,139.426910 799.164246,131.012299 
	C784.646301,103.751999 760.245667,91.039215 730.264709,90.231384 
	C692.638000,89.217537 654.965942,89.887878 617.313416,89.843552 
	C616.183594,89.842224 615.053711,89.976982 613.725281,90.060814 
	C613.725281,172.051025 613.725281,253.786499 613.725281,335.685822 
	C631.208801,335.685822 648.598755,335.685822 666.433350,335.685822 
	C666.433350,308.638580 666.433350,281.903015 666.433350,254.999420 
	C681.537048,254.999420 696.197083,255.135025 710.851135,254.899902 
	C714.325073,254.844147 716.211365,255.997604 717.788635,258.915314 
	C731.048401,283.444061 744.473816,307.883606 757.635315,332.464630 
	C759.135620,335.266693 760.667725,336.106995 763.694397,336.070801 
	C777.354980,335.907410 791.018677,335.999481 804.681213,335.999481 
	C808.736145,335.999481 812.791016,335.999451 817.637878,335.999451 
	C800.398438,305.070068 783.628723,274.983429 766.794312,244.780777 
	C767.879761,244.150986 768.572876,243.714783 769.295471,243.334503 
	C787.225159,233.899216 799.200745,219.498596 805.027283,200.106628 
	C809.003418,186.873611 809.674255,173.339523 807.894409,158.766693 
M1229.500000,89.834122 
	C1196.083618,89.834122 1162.667114,89.834122 1129.260986,89.834122 
	C1129.260986,172.207367 1129.260986,253.950653 1129.260986,335.731689 
	C1191.442993,335.731689 1253.364136,335.731689 1315.197266,335.731689 
	C1315.197266,319.376251 1315.197266,303.290100 1315.197266,286.739075 
	C1270.659424,286.739075 1226.412964,286.739075 1182.012329,286.739075 
	C1182.012329,269.004791 1182.012329,251.739304 1182.012329,233.997391 
	C1215.924927,233.997391 1249.660034,233.997391 1283.555176,233.997391 
	C1283.555176,217.947388 1283.555176,202.374969 1283.555176,186.297577 
	C1249.547241,186.297577 1215.812012,186.297577 1182.020874,186.297577 
	C1182.020874,170.346649 1182.020874,154.902725 1182.020874,138.905182 
	C1225.413818,138.905182 1268.620361,138.905182 1311.713379,138.905182 
	C1311.713379,122.257874 1311.713379,106.166664 1311.713379,89.834122 
	C1284.451904,89.834122 1257.475952,89.834122 1229.500000,89.834122 
M1725.979248,311.514252 
	C1729.436646,302.189148 1733.058472,292.919861 1736.255005,283.506195 
	C1737.261230,280.542816 1738.669678,279.746094 1741.611572,279.771790 
	C1756.609131,279.902832 1771.608398,279.832245 1786.607056,279.832245 
	C1801.925293,279.832214 1817.243530,279.832245 1832.648193,279.832245 
	C1833.565796,282.179565 1834.421875,284.312164 1835.235840,286.460602 
	C1841.147461,302.062286 1847.007324,317.684021 1853.043579,333.237335 
	C1853.496460,334.404266 1855.181519,335.872162 1856.306030,335.882660 
	C1874.096924,336.049042 1891.889771,335.999603 1910.125366,335.999603 
	C1903.044800,317.545837 1896.157349,299.515472 1889.210938,281.507782 
	C1874.150146,242.464523 1859.042969,203.439133 1843.986694,164.394104 
	C1834.884766,140.790298 1825.893555,117.143524 1816.660400,93.591354 
	C1816.041504,92.012581 1813.810425,90.013306 1812.306030,89.993942 
	C1793.322998,89.749557 1774.335571,89.833382 1755.305420,89.833382 
	C1723.658203,171.886368 1692.097290,253.715424 1660.407959,335.877380 
	C1679.564575,335.877380 1698.046387,335.877380 1716.622681,335.877380 
	C1719.648438,327.982849 1722.665771,320.110229 1725.979248,311.514252 
z"/>
<path fill="#0F223D" opacity="1.000000" stroke="none" 
	d="
M1415.831665,196.000320 
	C1415.831665,242.799179 1415.831665,289.098114 1415.831665,335.698120 
	C1398.247681,335.698120 1380.986572,335.698120 1363.362305,335.698120 
	C1363.362305,254.033020 1363.362305,172.167480 1363.362305,89.834480 
	C1378.492920,89.834480 1393.603882,89.757790 1408.711182,89.960030 
	C1410.130981,89.979034 1411.862549,91.485985 1412.884644,92.756363 
	C1431.102173,115.398415 1449.228638,138.113708 1467.382812,160.806610 
	C1476.398315,172.076248 1485.430786,183.332413 1495.580444,195.998489 
	C1496.420776,194.381561 1496.854858,193.073242 1497.661621,192.062515 
	C1524.105469,158.930588 1550.562988,125.809265 1577.134155,92.779404 
	C1578.286255,91.347206 1580.520020,89.987106 1582.270874,89.960396 
	C1596.931519,89.736679 1611.596924,89.833183 1626.630371,89.833183 
	C1626.630371,171.803894 1626.630371,253.667313 1626.630371,335.765625 
	C1609.376831,335.765625 1592.109741,335.765625 1574.449829,335.765625 
	C1574.449829,282.365906 1574.449829,228.945633 1574.449829,175.525360 
	C1574.122803,175.364365 1573.795776,175.203354 1573.468750,175.042358 
	C1547.417114,207.431473 1521.365479,239.820587 1494.969238,272.638214 
	C1468.666992,239.915451 1442.773315,207.700851 1415.831665,174.182526 
	C1415.831665,182.194092 1415.831665,188.847244 1415.831665,196.000320 
z"/>
<path fill="#0F223C" opacity="1.000000" stroke="none" 
	d="
M69.993546,335.999908 
	C56.873447,335.999908 44.251720,335.999908 31.401901,335.999908 
	C31.401901,253.817078 31.401901,172.082657 31.401901,89.833328 
	C43.705341,89.833328 55.840511,90.279640 67.922905,89.673622 
	C75.746101,89.281227 80.573029,91.645958 85.560486,98.135582 
	C122.102470,145.683487 159.219498,192.789444 196.145142,240.042603 
	C196.553909,240.565689 196.829056,241.193192 198.212296,241.295227 
	C198.212296,191.006897 198.212296,140.718582 198.212296,90.132782 
	C216.025253,90.132782 233.279388,90.132782 250.850922,90.132782 
	C250.850922,171.838531 250.850922,253.584198 250.850922,335.999908 
	C245.963150,335.999908 240.860733,335.999939 235.758316,335.999939 
	C226.426117,335.999939 217.090515,335.858154 207.763687,336.081970 
	C204.773712,336.153717 202.928192,335.213654 201.125793,332.899445 
	C162.948578,283.882050 124.702377,234.918381 86.463287,185.949173 
	C85.902374,185.230865 85.260880,184.575485 84.068481,183.223404 
	C84.068481,234.574997 84.068481,284.988098 84.068481,335.999908 
	C79.357765,335.999908 74.924835,335.999908 69.993546,335.999908 
z"/>
<path fill="#0F223C" opacity="1.000000" stroke="none" 
	d="
M2266.991699,335.999908 
	C2253.509033,335.999908 2240.524170,335.999908 2227.187012,335.999908 
	C2227.187012,254.078201 2227.187012,172.345200 2227.187012,89.833321 
	C2229.173340,89.833321 2231.418213,89.833321 2233.663086,89.833321 
	C2245.662598,89.833321 2257.664551,89.966942 2269.660156,89.751175 
	C2273.217773,89.687172 2275.353760,90.906113 2277.518799,93.686150 
	C2316.002930,143.100098 2354.602051,192.424591 2393.770752,242.528793 
	C2393.770752,191.289352 2393.770752,140.819992 2393.770752,90.093292 
	C2411.603271,90.093292 2428.864258,90.093292 2446.479004,90.093292 
	C2446.479004,171.782776 2446.479004,253.518158 2446.479004,335.714264 
	C2445.243408,335.800751 2443.821533,335.984375 2442.398926,335.986816 
	C2429.399414,336.009094 2416.398926,335.903564 2403.401611,336.073181 
	C2400.453125,336.111633 2398.588867,335.280640 2396.754150,332.925659 
	C2365.099121,292.297516 2333.348633,251.743683 2301.621338,211.171844 
	C2294.506104,202.073380 2287.399170,192.968506 2279.616699,183.006622 
	C2279.616699,234.567490 2279.616699,284.982025 2279.616699,335.999908 
	C2275.374023,335.999908 2271.431885,335.999908 2266.991699,335.999908 
z"/>
<path fill="#0E213C" opacity="1.000000" stroke="none" 
	d="
M1975.995483,89.834488 
	C1987.139526,87.827507 1993.669067,92.388489 2000.263916,101.021553 
	C2035.858032,147.615417 2072.251709,193.598389 2108.376709,239.786560 
	C2108.869629,240.416748 2109.455811,240.974213 2110.638184,242.263184 
	C2110.638184,191.098999 2110.638184,140.764755 2110.638184,90.133453 
	C2128.360840,90.133453 2145.596191,90.133453 2163.162109,90.133453 
	C2163.162109,171.888000 2163.162109,253.618271 2163.162109,335.999023 
	C2157.568115,335.999023 2151.802246,335.999054 2146.036377,335.999054 
	C2137.371094,335.999054 2128.702148,335.851501 2120.042969,336.079559 
	C2117.036865,336.158722 2115.269775,335.150848 2113.456299,332.824890 
	C2075.561035,284.225281 2037.579224,235.692871 1999.606689,187.153503 
	C1998.741455,186.047562 1997.782837,185.014664 1996.191040,183.158600 
	C1996.191040,234.666977 1996.191040,285.066467 1996.191040,335.731873 
	C1978.624634,335.731873 1961.372559,335.731873 1943.814209,335.731873 
	C1943.814209,253.962692 1943.814209,172.231506 1943.814209,89.834488 
	C1954.285767,89.834488 1964.891235,89.834488 1975.995483,89.834488 
z"/>
<path fill="#0F223D" opacity="1.000000" stroke="none" 
	d="
M410.306030,339.581390 
	C362.518188,331.760345 327.808044,306.208984 308.935486,262.426910 
	C291.183136,221.243561 294.772522,180.077164 320.214203,142.580109 
	C342.127350,110.283546 372.941071,90.836060 412.163544,85.918808 
	C441.876373,82.193771 470.660065,85.353088 497.200989,99.988113 
	C532.092102,119.227554 556.144653,147.758224 563.447327,187.374115 
	C573.141357,239.963318 555.972229,283.316498 513.131775,315.663513 
	C482.707153,338.635803 447.861023,344.387482 410.306030,339.581390 
M424.059448,291.697693 
	C452.382904,294.000488 476.143677,284.649841 494.150452,262.676300 
	C523.561768,226.785965 516.886353,166.884445 468.346436,142.171310 
	C429.406769,122.345947 380.217224,136.803055 360.589813,179.285477 
	C349.086731,204.183212 350.105499,229.464630 364.183990,253.192078 
	C377.369720,275.414917 397.187988,288.469391 424.059448,291.697693 
z"/>
<path fill="#0F223D" opacity="1.000000" stroke="none" 
	d="
M1079.083374,187.062149 
	C1084.361206,217.745270 1081.651489,247.060730 1065.705811,273.725708 
	C1046.718018,305.477905 1018.703857,325.566803 982.163879,332.758148 
	C972.277466,334.703857 962.070190,335.717224 951.992004,335.857605 
	C923.006348,336.261536 894.011414,336.002075 865.020081,335.992279 
	C864.064453,335.991974 863.108826,335.873077 862.033569,335.801514 
	C862.033569,253.779602 862.033569,172.050827 862.033569,90.398689 
	C862.508911,90.168343 862.791199,89.911652 863.073364,89.911819 
	C895.726318,89.931030 928.415161,89.018837 961.023010,90.250282 
	C1000.622437,91.745766 1033.166382,108.517311 1057.712402,140.065338 
	C1068.494629,153.923370 1075.237305,169.596924 1079.083374,187.062149 
M914.515381,272.495850 
	C914.515381,277.107025 914.515381,281.718231 914.515381,286.928101 
	C934.661316,286.143555 954.348389,288.897400 973.621948,283.902985 
	C989.042419,279.907104 1001.693359,271.322113 1011.575256,258.836884 
	C1025.035156,241.831055 1028.826050,222.356323 1026.132080,201.192093 
	C1022.551514,173.063599 1000.846680,148.113022 973.140076,141.945694 
	C963.360413,139.768799 953.079529,139.582916 942.998169,139.098053 
	C933.582153,138.645187 924.127136,139.001221 914.515259,139.001221 
	C914.515259,183.566803 914.515259,227.531723 914.515381,272.495850 
z"/>
<path fill="#0E213C" opacity="1.000000" stroke="none" 
	d="
M807.957581,159.213989 
	C809.674255,173.339523 809.003418,186.873611 805.027283,200.106628 
	C799.200745,219.498596 787.225159,233.899216 769.295471,243.334503 
	C768.572876,243.714783 767.879761,244.150986 766.794312,244.780777 
	C783.628723,274.983429 800.398438,305.070068 817.637878,335.999451 
	C812.791016,335.999451 808.736145,335.999481 804.681213,335.999481 
	C791.018677,335.999481 777.354980,335.907410 763.694397,336.070801 
	C760.667725,336.106995 759.135620,335.266693 757.635315,332.464630 
	C744.473816,307.883606 731.048401,283.444061 717.788635,258.915314 
	C716.211365,255.997604 714.325073,254.844147 710.851135,254.899902 
	C696.197083,255.135025 681.537048,254.999420 666.433350,254.999420 
	C666.433350,281.903015 666.433350,308.638580 666.433350,335.685822 
	C648.598755,335.685822 631.208801,335.685822 613.725281,335.685822 
	C613.725281,253.786499 613.725281,172.051025 613.725281,90.060814 
	C615.053711,89.976982 616.183594,89.842224 617.313416,89.843552 
	C654.965942,89.887878 692.638000,89.217537 730.264709,90.231384 
	C760.245667,91.039215 784.646301,103.751999 799.164246,131.012299 
	C803.645630,139.426910 805.070190,149.469498 807.957581,159.213989 
M666.163452,188.498093 
	C666.163452,194.110077 666.163452,199.722076 666.163452,205.260925 
	C667.154846,205.549393 667.615112,205.799911 668.075745,205.800522 
	C686.224609,205.824539 704.385437,206.231171 722.518372,205.694977 
	C735.757996,205.303452 746.200623,199.258667 751.421509,186.505936 
	C759.746033,166.172165 749.788818,141.223831 725.154297,139.546432 
	C707.917480,138.372742 690.550476,139.110748 673.241577,138.999466 
	C670.979004,138.984909 668.716370,138.997452 666.163452,138.997452 
	C666.163452,155.585129 666.163452,171.542053 666.163452,188.498093 
z"/>
<path fill="#0E213C" opacity="1.000000" stroke="none" 
	d="
M1230.000000,89.834122 
	C1257.475952,89.834122 1284.451904,89.834122 1311.713379,89.834122 
	C1311.713379,106.166664 1311.713379,122.257874 1311.713379,138.905182 
	C1268.620361,138.905182 1225.413818,138.905182 1182.020874,138.905182 
	C1182.020874,154.902725 1182.020874,170.346649 1182.020874,186.297577 
	C1215.812012,186.297577 1249.547241,186.297577 1283.555176,186.297577 
	C1283.555176,202.374969 1283.555176,217.947388 1283.555176,233.997391 
	C1249.660034,233.997391 1215.924927,233.997391 1182.012329,233.997391 
	C1182.012329,251.739304 1182.012329,269.004791 1182.012329,286.739075 
	C1226.412964,286.739075 1270.659424,286.739075 1315.197266,286.739075 
	C1315.197266,303.290100 1315.197266,319.376251 1315.197266,335.731689 
	C1253.364136,335.731689 1191.442993,335.731689 1129.260986,335.731689 
	C1129.260986,253.950653 1129.260986,172.207367 1129.260986,89.834122 
	C1162.667114,89.834122 1196.083618,89.834122 1230.000000,89.834122 
z"/>
<path fill="#0F223D" opacity="1.000000" stroke="none" 
	d="
M1725.831177,311.875916 
	C1722.665771,320.110229 1719.648438,327.982849 1716.622681,335.877380 
	C1698.046387,335.877380 1679.564575,335.877380 1660.407959,335.877380 
	C1692.097290,253.715424 1723.658203,171.886368 1755.305420,89.833382 
	C1774.335571,89.833382 1793.322998,89.749557 1812.306030,89.993942 
	C1813.810425,90.013306 1816.041504,92.012581 1816.660400,93.591354 
	C1825.893555,117.143524 1834.884766,140.790298 1843.986694,164.394104 
	C1859.042969,203.439133 1874.150146,242.464523 1889.210938,281.507782 
	C1896.157349,299.515472 1903.044800,317.545837 1910.125366,335.999603 
	C1891.889771,335.999603 1874.096924,336.049042 1856.306030,335.882660 
	C1855.181519,335.872162 1853.496460,334.404266 1853.043579,333.237335 
	C1847.007324,317.684021 1841.147461,302.062286 1835.235840,286.460602 
	C1834.421875,284.312164 1833.565796,282.179565 1832.648193,279.832245 
	C1817.243530,279.832245 1801.925293,279.832214 1786.607056,279.832245 
	C1771.608398,279.832245 1756.609131,279.902832 1741.611572,279.771790 
	C1738.669678,279.746094 1737.261230,280.542816 1736.255005,283.506195 
	C1733.058472,292.919861 1729.436646,302.189148 1725.831177,311.875916 
M1761.230835,215.871368 
	C1759.370972,221.133698 1757.510986,226.396027 1755.605835,231.786407 
	C1775.644409,231.786407 1795.149170,231.786407 1815.036255,231.786407 
	C1805.205322,204.610138 1795.542114,177.897537 1785.878906,151.184937 
	C1785.445435,151.217178 1785.012085,151.249435 1784.578613,151.281693 
	C1776.881714,172.564468 1769.184692,193.847260 1761.230835,215.871368 
z"/>
<path fill="#FFFFFF" opacity="1.000000" stroke="none" 
	d="
M423.616852,291.601685 
	C397.187988,288.469391 377.369720,275.414917 364.183990,253.192078 
	C350.105499,229.464630 349.086731,204.183212 360.589813,179.285477 
	C380.217224,136.803055 429.406769,122.345947 468.346436,142.171310 
	C516.886353,166.884445 523.561768,226.785965 494.150452,262.676300 
	C476.143677,284.649841 452.382904,294.000488 423.616852,291.601685 
z"/>
<path fill="#FFFFFF" opacity="1.000000" stroke="none" 
	d="
M914.515320,271.996246 
	C914.515259,227.531723 914.515259,183.566803 914.515259,139.001221 
	C924.127136,139.001221 933.582153,138.645187 942.998169,139.098053 
	C953.079529,139.582916 963.360413,139.768799 973.140076,141.945694 
	C1000.846680,148.113022 1022.551514,173.063599 1026.132080,201.192093 
	C1028.826050,222.356323 1025.035156,241.831055 1011.575256,258.836884 
	C1001.693359,271.322113 989.042419,279.907104 973.621948,283.902985 
	C954.348389,288.897400 934.661316,286.143555 914.515381,286.928101 
	C914.515381,281.718231 914.515381,277.107025 914.515320,271.996246 
z"/>
<path fill="#FDFEFE" opacity="1.000000" stroke="none" 
	d="
M666.163452,187.998535 
	C666.163452,171.542053 666.163452,155.585129 666.163452,138.997452 
	C668.716370,138.997452 670.979004,138.984909 673.241577,138.999466 
	C690.550476,139.110748 707.917480,138.372742 725.154297,139.546432 
	C749.788818,141.223831 759.746033,166.172165 751.421509,186.505936 
	C746.200623,199.258667 735.757996,205.303452 722.518372,205.694977 
	C704.385437,206.231171 686.224609,205.824539 668.075745,205.800522 
	C667.615112,205.799911 667.154846,205.549393 666.163452,205.260925 
	C666.163452,199.722076 666.163452,194.110077 666.163452,187.998535 
z"/>
<path fill="#FEFEFE" opacity="1.000000" stroke="none" 
	d="
M1761.359375,215.500702 
	C1769.184692,193.847260 1776.881714,172.564468 1784.578613,151.281693 
	C1785.012085,151.249435 1785.445435,151.217178 1785.878906,151.184937 
	C1795.542114,177.897537 1805.205322,204.610138 1815.036255,231.786407 
	C1795.149170,231.786407 1775.644409,231.786407 1755.605835,231.786407 
	C1757.510986,226.396027 1759.370972,221.133698 1761.359375,215.500702 
z"/>
</svg>