<?xml version="1.0" encoding="UTF-8"?>
<svg id="_圖層_1" data-name="圖層 1" xmlns="http://www.w3.org/2000/svg" xmlns:xlink="http://www.w3.org/1999/xlink" viewBox="0 0 900.64 400.74">
  <defs>
    <style>
      .cls-1 {
        fill: url(#_未命名漸層_5);
      }

      .cls-2 {
        fill: url(#linear-gradient);
      }

      .cls-3 {
        fill: #231815;
      }
    </style>
    <linearGradient id="linear-gradient" x1="94.49" y1="155.19" x2="253.12" y2="155.19" gradientUnits="userSpaceOnUse">
      <stop offset="0" stop-color="#ed6c00"/>
      <stop offset="1" stop-color="#f6ac19"/>
    </linearGradient>
    <linearGradient id="_未命名漸層_5" data-name="未命名漸層 5" x1="82.05" y1="245.02" x2="230.32" y2="88.7" gradientUnits="userSpaceOnUse">
      <stop offset="0" stop-color="#004190"/>
      <stop offset="1" stop-color="#1bb8ce"/>
    </linearGradient>
  </defs>
  <g>
    <g>
      <g>
        <path class="cls-3" d="m373.35,258.13l4.51-2.3c3.17,4.97,6.83,7.45,11,7.45,1.78,0,3.44-.35,5.01-1.06,1.56-.7,2.75-1.65,3.57-2.83.81-1.19,1.23-2.44,1.23-3.78,0-1.51-.6-2.99-1.8-4.45-1.66-2-4.69-4.41-9.09-7.23-4.43-2.84-7.18-4.9-8.26-6.16-1.88-2.13-2.81-4.43-2.81-6.9,0-1.96.55-3.75,1.66-5.37,1.1-1.61,2.66-2.89,4.67-3.82,2-.93,4.18-1.39,6.55-1.39,2.5,0,4.83.52,7.01,1.58,2.17,1.05,4.47,2.98,6.91,5.81l-4.33,2.79c-2-2.25-3.7-3.72-5.1-4.44-1.41-.71-2.94-1.07-4.6-1.07-2.15,0-3.9.56-5.25,1.66-1.36,1.1-2.04,2.46-2.04,4.08,0,.98.23,1.93.72,2.85.48.92,1.35,1.92,2.63,3.01.69.57,2.98,2.07,6.85,4.5,4.59,2.89,7.74,5.45,9.45,7.7,1.7,2.25,2.56,4.51,2.56,6.77,0,3.27-1.46,6.11-4.38,8.52-2.92,2.42-6.47,3.63-10.66,3.63-3.23,0-6.15-.74-8.77-2.2-2.62-1.46-5.04-3.9-7.25-7.34Z"/>
        <path class="cls-3" d="m445.28,221.43h30.41v4.42h-25.1v14.13h24.89v4.42h-24.89v17.72h24.89v4.42h-30.19v-45.1Z"/>
        <path class="cls-3" d="m563.89,229.81l-4.18,2.72c-2.31-2.55-5.09-4.49-8.31-5.81-3.24-1.32-6.79-1.97-10.66-1.97-4.24,0-8.15.86-11.76,2.59-3.61,1.72-6.4,4.05-8.39,6.96-1.98,2.91-2.98,6.19-2.98,9.82,0,5.5,2.22,10.09,6.65,13.77,4.44,3.68,10.03,5.52,16.79,5.52,7.43,0,13.64-2.47,18.65-7.42l4.18,2.7c-2.65,2.87-5.95,5.08-9.9,6.64-3.96,1.57-8.38,2.35-13.26,2.35-9.29,0-16.61-2.63-21.97-7.88-4.5-4.44-6.74-9.79-6.74-16.07,0-6.6,2.72-12.15,8.17-16.66,5.45-4.51,12.26-6.75,20.47-6.75,4.95,0,9.42.83,13.42,2.5,3.99,1.66,7.26,3.99,9.81,7.01Z"/>
        <path class="cls-3" d="m604.33,221.43h5.3v27.23c0,3.23.07,5.24.22,6.03.26,1.79.88,3.26,1.84,4.46.96,1.2,2.43,2.2,4.44,3,1.99.81,4,1.22,6.02,1.22,1.75,0,3.44-.32,5.05-.96,1.6-.63,2.96-1.52,4.04-2.63,1.08-1.13,1.87-2.49,2.38-4.08.36-1.14.54-3.5.54-7.05v-27.23h5.3v27.23c0,4.02-.47,7.28-1.39,9.76-.93,2.49-2.78,4.65-5.55,6.49-2.78,1.84-6.14,2.76-10.08,2.76-4.28,0-7.95-.88-11-2.61-3.06-1.74-5.1-4.04-6.13-6.9-.65-1.76-.97-4.93-.97-9.5v-27.23Z"/>
        <path class="cls-3" d="m682.43,221.43h10.57c5.89,0,9.88.21,11.98.61,3.15.62,5.71,1.93,7.68,3.95,1.97,2.01,2.96,4.5,2.96,7.44,0,2.46-.68,4.62-2.04,6.48-1.36,1.86-3.3,3.26-5.83,4.22-2.52.95-6.01,1.43-10.46,1.46l19.08,20.94h-6.56l-19.08-20.94h-2.99v20.94h-5.3v-45.1Zm5.3,4.42v15.33l9.13.06c3.54,0,6.16-.29,7.86-.86,1.7-.58,3.02-1.49,3.98-2.75.95-1.25,1.42-2.66,1.42-4.21s-.49-2.89-1.44-4.13c-.96-1.24-2.24-2.12-3.8-2.65-1.57-.53-4.17-.79-7.81-.79h-9.35Z"/>
        <path class="cls-3" d="m755.83,221.43h5.3v45.1h-5.3v-45.1Z"/>
        <path class="cls-3" d="m797.65,225.85v-4.42h29.07v4.42h-11.83v40.69h-5.41v-40.69h-11.83Z"/>
        <path class="cls-3" d="m859.8,221.43h6.1l13.58,18.6,13.36-18.6h6.13l-16.81,23.55v21.55h-5.23v-21.55l-17.13-23.55Z"/>
      </g>
      <g>
        <path class="cls-3" d="m466.28,138.93c0-4.4.81-8.56,2.43-12.46,1.61-3.9,4.05-7.57,7.3-10.97,3.35-3.3,7.29-5.8,11.81-7.51,4.51-1.7,9.67-2.55,15.46-2.55.93,0,1.94.05,3.04.16,1.1.11,2.29.27,3.56.5s2.57.49,3.91.82c1.33.33,2.69.78,4.08,1.33,2.43.99,4.75,2.25,6.95,3.8,2.2,1.54,4.34,3.41,6.42,5.61,2.09,2.09,3.65,4.68,4.69,7.75,1.05,3.08,1.56,6.6,1.56,10.56v50.99h-16.5v-46.7c0-2.42-.38-4.81-1.13-7.18-.76-2.36-1.89-4.59-3.39-6.68-1.51-2.2-3.48-3.85-5.91-4.95-2.43-1.1-5.33-1.66-8.68-1.66-3.12,0-5.87.51-8.25,1.49-2.37.99-4.42,2.48-6.17,4.45-1.74,1.98-3.1,4.1-4.08,6.36-.98,2.25-1.65,4.65-1.99,7.18v47.69h-15.11v-48.02Z"/>
        <path class="cls-3" d="m568.5,107.74v50.66c0,2.09.26,4.04.78,5.86.52,1.81,1.3,3.54,2.34,5.19,1.04,1.65,2.43,2.87,4.17,3.63,1.73.77,3.82,1.15,6.26,1.15,2.66,0,5.03-.3,7.12-.91,2.08-.6,3.82-1.51,5.21-2.71,1.39-1.22,2.43-3.03,3.12-5.46.7-2.42,1.05-5.44,1.05-9.07v-48.35h16.33v50.66c0,3.42.4,6.16,1.2,8.25.82,2.09,2.09,3.63,3.83,4.63,1.62.98,3.35,1.73,5.21,2.22,1.85.51,3.76.75,5.73.75h.52c1.97,0,3.8-.39,5.47-1.15s3.16-1.93,4.43-3.46c1.28-1.54,2.23-3.44,2.87-5.7.64-2.25.95-4.87.95-7.84v-48.35h14.95v56.6c0,2.97-.53,5.75-1.56,8.33-1.05,2.59-2.61,4.98-4.69,7.18-2.08,2.09-4.29,3.86-6.6,5.28-2.32,1.43-4.75,2.52-7.3,3.3-.34.11-.67.19-.95.24-.3.05-.55.14-.78.25-.35,0-.67.03-.95.08-.3.05-.61.14-.96.24-.58.12-1.16.19-1.74.25-.57.05-1.15.08-1.73.08-3.02,0-5.73-.2-8.17-.58-2.43-.39-4.63-.97-6.6-1.73-1.85-.55-3.67-1.54-5.47-2.98-1.79-1.42-3.51-3.18-5.12-5.28-.12,0-.2-.03-.27-.08-.06-.05-.09-.14-.09-.25-.11-.11-.2-.19-.26-.24-.06-.05-.09-.14-.09-.25-.12.11-.23.23-.34.33-.12.11-.18.23-.18.32-.12.23-.23.39-.36.51-.11.11-.23.22-.34.32-.23.22-.46.47-.69.75-.23.27-.46.51-.69.73-1.15,1.11-2.49,2.15-3.99,3.14-1.51.99-3.18,1.87-5.04,2.64-1.85.88-3.88,1.54-6.08,1.98-2.2.44-4.52.66-6.94.66-3.82,0-7.21-.44-10.16-1.32-2.95-.88-5.47-2.09-7.56-3.63-2.2-1.65-4.08-3.41-5.64-5.28-1.57-1.88-2.81-3.86-3.74-5.94-.46-1.1-.9-2.17-1.3-3.22-.41-1.05-.73-2.12-.95-3.22-.24-1.1-.41-2.12-.53-3.06-.12-.93-.17-1.78-.17-2.56v-53.62h16.5Z"/>
        <path class="cls-3" d="m787.06,107.74v7.75c.23-.11.43-.27.61-.5.17-.22.43-.5.78-.82.24-.33.52-.66.87-1,.35-.32.7-.66,1.04-.98.92-.87,1.94-1.7,3.04-2.48,1.1-.77,2.4-1.48,3.91-2.14,1.39-.67,2.95-1.19,4.68-1.57,1.74-.39,3.59-.58,5.56-.58l5.56-.33v14.36h-4.16c-3.24.55-6.03,1.38-8.34,2.47-2.32,1.11-4.29,2.48-5.91,4.13-1.51,1.65-2.75,3.38-3.74,5.2-.98,1.81-1.76,3.65-2.34,5.53-.47,1.42-.81,2.8-1.05,4.12-.23,1.33-.35,2.59-.35,3.8-.12,1.32-.17,2.48-.17,3.46v38.78h-15.11v-79.21h15.11Z"/>
        <path class="cls-3" d="m412.16,190.37c-2.58,0-5.11-.69-7.31-1.98l-25.23-14.58c-4.48-2.61-7.24-7.4-7.24-12.52v-29.22c0-5.18,2.8-9.98,7.29-12.53l25.24-14.61c4.6-2.54,10.23-2.42,14.45-.02l25.37,14.66c4.45,2.56,7.21,7.35,7.21,12.5v29.22c0,5.09-2.73,9.86-7.13,12.49l-25.42,14.65c-2.09,1.25-4.63,1.95-7.23,1.95Zm-23.94-29.88l23.94,13.83,23.95-13.81v-27.64l-23.96-13.83-23.93,13.85v27.6Z"/>
        <path class="cls-3" d="m757.39,146.53c-.03-22.85-18.62-41.43-41.47-41.43s-41.49,18.61-41.49,41.49,18.04,40.64,40.92,40.64c9.78,0,18.65-3.57,25.67-9.35v9.07h16.38v-40.41h0Zm-41.91,24.75c-13.86,0-25.14-11.27-25.14-25.13s11.28-25.14,25.14-25.14,25.14,11.28,25.14,25.14-11.28,25.13-25.14,25.13Z"/>
        <path class="cls-3" d="m883.62,72.59v41.85c-7.02-5.77-15.89-9.34-25.67-9.34-22.88,0-40.91,17.76-40.91,40.64s18.6,41.49,41.48,41.49,41.22-18.38,41.46-41.05h.02v-73.59h-16.38Zm-25.54,98.72c-13.86,0-25.14-11.28-25.14-25.14s11.28-25.14,25.14-25.14,25.14,11.28,25.14,25.14-11.27,25.14-25.14,25.14Z"/>
      </g>
    </g>
    <g>
      <path class="cls-2" d="m289.67,72.45c.21.18.42.38.64.55,5.82,4.17,10.13,9.2,11.79,15.69,1.1,4.35.96,8.07-.07,11.31-1.05,3.3-2.55,6.55-5.45,9.62l-121.24,123.9c-.44.41-.92.74-1.39,1.1-.3.23-.56.49-.87.7-.54.36-1.11.63-1.68.91-.34.17-.65.37-1.01.51-.6.25-1.23.4-1.86.58-.35.09-.69.23-1.05.3-1.01.2-2.03.31-3.04.31s-2.06-.11-3.08-.31c-.46-.1-.9-.27-1.35-.41-.54-.16-1.07-.28-1.6-.5-.61-.25-1.16-.6-1.73-.93-.44-.25-.87-.49-1.29-.8-.72-.51-1.42-1.07-2.05-1.71-.34-.32-.51-.64-.74-.92-.41-.47-.82-.94-1.16-1.47-.31-.45-.52-.93-.77-1.41-.22-.42-.46-.83-.64-1.27-.23-.57-.37-1.16-.54-1.73-.11-.39-.26-.77-.33-1.17-.14-.74-.19-1.49-.23-2.25-.01-.24-.07-.49-.07-.74v-53.58l-58.95,64.15c-.08.07-.17.12-.24.21-.48.5-1.01.92-1.54,1.35-.3.23-.56.5-.87.71-.61.42-1.28.76-1.96,1.1-.26.13-.51.3-.77.43-1.88.79-3.95,1.25-6.13,1.25-1,0-1.99-.11-2.98-.3-.41-.08-.78-.23-1.18-.32-.55-.17-1.11-.31-1.65-.52-.43-.17-.83-.4-1.24-.61-.47-.23-.95-.46-1.4-.76-.37-.24-.72-.52-1.07-.8-.35-.27-.72-.48-1.05-.78-.09-.1-.16-.2-.26-.29-.34-.33-.62-.69-.92-1.05-.37-.43-.76-.84-1.08-1.31-.21-.3-.37-.64-.56-.97-.33-.55-.67-1.1-.92-1.68-.12-.29-.2-.59-.31-.9-.24-.66-.47-1.33-.61-2-.07-.29-.08-.59-.12-.87-.11-.73-.22-1.47-.23-2.21,0-.09-.02-.14-.02-.22v-98.99c0-8.62,6.96-15.6,15.59-15.6s15.62,6.98,15.62,15.6v58.96l58.94-64.15c.07-.08.16-.13.23-.21.43-.46.92-.85,1.41-1.26.31-.24.59-.52.92-.75.48-.33,1.01-.6,1.53-.88.37-.2.73-.44,1.11-.61.49-.2,1-.35,1.51-.5.46-.17.92-.35,1.39-.45.44-.09.88-.13,1.33-.18.59-.08,1.17-.18,1.76-.19.1,0,.19-.01.3-.01.32,0,.63.06.95.09.61.04,1.22.07,1.83.18.45.08.87.2,1.3.33.54.14,1.08.29,1.61.49.46.18.89.41,1.33.64.46.23.91.45,1.34.73.48.31.92.67,1.37,1.03.27.22.57.38.83.63.08.07.13.15.21.23.42.4.78.83,1.15,1.28.29.36.62.69.87,1.06.28.4.51.83.74,1.27.27.45.54.91.76,1.38.17.4.27.81.41,1.22.19.56.4,1.11.53,1.69.07.37.1.75.15,1.12.1.65.19,1.29.2,1.95,0,.1.02.18.02.28v55.38l84.97-86.9,2.33-2.38,22.32-22.35Z"/>
      <path class="cls-1" d="m275.42,149.2v84.49c0,4.28-2.3,8.27-6,10.41l-110.23,63.64c-1.84,1.05-3.94,1.57-6.03,1.57s-4.19-.51-5.99-1.54l-110.27-63.66c-3.71-2.14-6.01-6.14-6.01-10.42v-127.28c0-4.3,2.3-8.3,6.02-10.42l110.2-63.63c.66-.38,1.4-.62,2.14-.88,1.23-.4,2.52-.67,3.9-.67h0c2.18,0,4.26.53,6.01,1.54l108.17,62.45,22.32-22.35c-1.53-1.17-3.14-2.28-4.82-3.24L182.48,10.09l-7.83-4.52C168.2,1.86,160.69,0,153.17,0c-7.5,0-15.01,1.86-21.47,5.57L21.48,69.21C8.23,76.84,0,91.1,0,106.41v127.28c0,15.29,8.22,29.55,21.47,37.19l110.29,63.68c6.51,3.73,13.91,5.71,21.41,5.71s14.91-1.99,21.46-5.74l110.25-63.65c13.24-7.65,21.46-21.89,21.46-37.18v-116.17l-30.91,31.68Z"/>
    </g>
  </g>
  <g>
    <path class="cls-3" d="m405.89,384.12h-5.58v-4.53h-.12c-2.23,3.29-5.7,5.52-9.86,5.52-8.87,0-13.89-7.38-13.89-15.69s5.27-15.19,13.7-15.19c4.28,0,7.75,2.23,10.04,5.7h.12v-4.84h5.58v29.01Zm-5.27-14.51c0-5.64-3.41-10.42-9.42-10.42s-9.18,5.02-9.18,10.42,3.29,10.54,9.18,10.54,9.42-4.84,9.42-10.54Z"/>
    <path class="cls-3" d="m435.03,337.38h9.67c14.32,0,26.22,7.56,26.22,23.12s-11.66,23.62-26.41,23.62h-9.49v-46.75Zm5.83,41.41h2.05c11.9,0,22.19-4.46,22.19-18.04s-10.29-18.04-22.19-18.04h-2.05v36.08Z"/>
    <path class="cls-3" d="m478.67,337.38h25.11v5.33h-19.28v13.08h18.72v5.33h-18.72v17.67h19.28v5.33h-25.11v-46.75Z"/>
    <path class="cls-3" d="m538.56,337.38h7.62l-21.02,21.02,21.39,25.73h-7.87l-17.61-21.76-2.36,2.23v19.53h-5.83v-46.75h5.83v20.27l19.84-20.27Z"/>
    <path class="cls-3" d="m581.09,384.12h-7.07l-13.76-19.78h-2.42v19.78h-5.83v-46.75h7.07c4.15,0,8.62.06,12.34,2.17,3.91,2.29,6.14,6.7,6.14,11.16,0,6.7-4.46,12.28-11.22,13.08l14.75,20.33Zm-23.25-24.61h1.86c5.95,0,12.4-1.12,12.4-8.56s-6.94-8.37-12.71-8.37h-1.55v16.93Z"/>
    <path class="cls-3" d="m594.24,372.4l-5.33,11.72h-6.26l22.32-48.73,22.32,48.73h-6.26l-5.33-11.72h-21.45Zm10.73-24.24l-8.31,18.91h16.61l-8.31-18.91Z"/>
    <path class="cls-3" d="m673.66,363.35c-2.23-2.54-4.96-3.91-8.31-3.91-5.46,0-9.67,4.84-9.67,10.17,0,5.95,4.15,10.29,10.04,10.29,3.22,0,5.83-1.49,7.94-3.84v7.13c-2.54,1.36-5.08,1.92-8,1.92-8.56,0-15.56-6.57-15.56-15.25s6.94-15.62,15.87-15.62c2.6,0,5.46.62,7.69,1.92v7.19Z"/>
    <path class="cls-3" d="m709.99,369.68c0,8.74-6.82,15.44-15.5,15.44s-15.5-6.7-15.5-15.44,6.82-15.44,15.5-15.44,15.5,6.7,15.5,15.44Zm-25.42,0c0,5.46,4.4,10.11,9.92,10.11s9.92-4.65,9.92-10.11-4.4-10.11-9.92-10.11-9.92,4.59-9.92,10.11Z"/>
    <path class="cls-3" d="m722.39,358.76h.12c1.61-2.54,4.53-4.53,7.69-4.53,3.78,0,6.51,1.92,8.37,5.15,1.8-3.1,5.27-5.15,8.93-5.15,7.63,0,9.61,5.95,9.61,12.52v17.36h-5.58v-16.43c0-3.72-.5-8.49-5.39-8.49-5.95,0-6.39,6.2-6.39,10.66v14.26h-5.58v-15.38c0-3.78-.19-9.55-5.33-9.55-5.95,0-6.45,6.14-6.45,10.66v14.26h-5.58v-29.01h5.58v3.66Z"/>
    <path class="cls-3" d="m771.62,359.94h.12c2.29-3.47,5.77-5.7,10.11-5.7,8.37,0,13.64,7.25,13.64,15.19s-4.96,15.69-13.89,15.69c-4.09,0-7.62-2.23-9.86-5.52h-.12v21.14h-5.58v-45.63h5.58v4.84Zm18.29,9.67c0-5.64-3.41-10.42-9.42-10.42s-9.18,5.02-9.18,10.42,3.29,10.54,9.18,10.54,9.42-4.84,9.42-10.54Z"/>
    <path class="cls-3" d="m830.08,384.12h-5.58v-4.53h-.12c-2.23,3.29-5.7,5.52-9.86,5.52-8.87,0-13.89-7.38-13.89-15.69s5.27-15.19,13.7-15.19c4.28,0,7.75,2.23,10.04,5.7h.12v-4.84h5.58v29.01Zm-5.27-14.51c0-5.64-3.41-10.42-9.42-10.42s-9.18,5.02-9.18,10.42,3.29,10.54,9.18,10.54,9.42-4.84,9.42-10.54Z"/>
    <path class="cls-3" d="m844.84,359.01h.12c1.74-3.1,5.21-4.77,8.74-4.77,8.18,0,10.29,5.52,10.29,12.58v17.3h-5.58v-16.62c0-4.96-.68-8.31-6.39-8.31-7.19,0-7.19,6.32-7.19,11.59v13.33h-5.58v-29.01h5.58v3.91Z"/>
    <path class="cls-3" d="m868.96,355.11h6.51l9.79,18.41,9.11-18.41h6.26l-23.5,45.63h-6.32l11.41-21.58-13.27-24.05Z"/>
  </g>
  <rect class="cls-3" x=".04" y="372.72" width="339.91" height="2.13"/>
</svg>