<svg xmlns="http://www.w3.org/2000/svg" width="1168.16" height="246.831" data-name="图层 1" viewBox="214.978 176.687 1168.16 246.831"><defs><linearGradient id="a" x1="213.93" x2="513.92" y1="-1164.06" y2="-1164.06" gradientTransform="matrix(1 0 0 -1 0 -864.04)" gradientUnits="userSpaceOnUse"><stop offset="0" stop-color="#3fa9f5"/><stop offset=".9" stop-color="#7ac943"/></linearGradient></defs><path d="M458.84 313.51h-25a1 1 0 0 0-1 .91v.31a95 95 0 0 1-2 9.61l-.76 2.76-.34 1.18-.37 1.18-.73 2.19-.43 1.24-.87 2.28-.41 1.06-1.38 3.26-.42.89-1.2 2.55a97.1 97.1 0 0 1-14.93 21.8l-2.47 2.63-2.84 2.81-.45.41-2.61 2.42-1.07.91-2.14 1.75-1.24 1-2.12 1.59-1.28.92-2.3 1.55-1.18.78-3.06 1.88-.5.3-3.66 2-1.12.56-2.65 1.3-1.41.64-2.48 1.07-1.49.61-2.55 1-1.45.53-3 1-1.08.35-4.12 1.12-.91.21-3.29.73-1.49.27-2.79.48-1.64.24-2.77.34-1.64.17-3 .22-1.42.08-4.45.11a96.56 96.56 0 0 1 0-193.12l4.46.11 1.42.08 3 .22 1.63.17 2.77.33 1.64.24 2.79.48 1.5.28 3.29.73.91.21 4.11 1.12 1.08.34 3 1 1.44.53 2.56 1 1.49.61 2.47 1.07 1.42.64 2.65 1.3 1.12.56 3.66 2 .49.3 3.07 1.88 1.18.77 2.29 1.56 1.28.92 1.95 1.26.92.73 3.41 2.81q1.69 1.46 3.32 3l2.23 2.2a1 1 0 0 0 .72.29h32a1 1 0 0 0 .88-1.6 124 124 0 0 0-9-11.7l-3.08-3.34-.95-1-1-1.06-.35-.34-.46-.48c-1.4-1.39-2.83-2.76-4.29-4.08l-.12-.1-.08-.09-.59-.5-3.68-3.19-.79-.62-.54-.46-1.15-.87-2.14-1.68-1.66-1.22-1-.75h-.05l-.9-.6-1.33-.94-2.66-1.71-1.21-.81h-.05l-.46-.26-.61-.4c-1.69-1-3.42-2-5.17-3h-.09l-.07-.05c-1.1-.58-2.2-1.16-3.3-1.72l-1.31-.63-.55-.29-.49-.22-1-.48c-1.13-.53-2.26-1-3.41-1.53l-.35-.15-.21-.09-.5-.19-2.41-1-2.1-.79-.59-.23-.3-.1-.53-.2c-1.18-.42-2.38-.83-3.57-1.22l-.88-.27-.45-.15-.63-.18-1.65-.51-3.44-.94h-.2c-1.23-.31-2.47-.61-3.71-.89l-1.53-.32-.64-.14-.51-.1-1.07-.22c-1.26-.24-2.52-.45-3.79-.66l-.45-.06-.26-.05-.59-.07-2.58-.48-2.42-.27-.63-.08h-.29l-.53-.05c-1.29-.13-2.59-.23-3.9-.31l-1-.05H343l-1.71-.08c-1.32 0-2.63-.07-4-.07a123.42 123.42 0 0 0 0 246.83c1.33 0 2.65 0 4-.07h1.4l.84-.05 1.69-.08 1.91-.16.87-.16.45-.05.68-.05c1.29-.12 2.58-.26 3.86-.43h.24l.48-.07 3.11-.44 1-.17.6-.1.77-.15 1.44-.25 2.08-.43.82-.16.35-.08.51-.1c1.24-.27 2.48-.57 3.7-.89l.27-.07h.19l.66-.19 2.54-.69 1.1-.34.64-.18.69-.23 1.19-.36 2.26-.77.72-.24.24-.09.35-.12c1.18-.42 2.35-.86 3.52-1.31l.38-.16.27-.11.72-.3 2.09-.86 1.19-.53.67-.29.58-.27 1-.44 2.46-1.19.55-.26.15-.07.2-.1c1.11-.56 2.21-1.13 3.3-1.72l.31-.18.5-.27c1.47-.8 2.92-1.65 4.36-2.51l.78-.5.44-.26a.1.1 0 0 0 .05 0l.8-.52 2.14-1.5 2.39-1.65.76-.51h.06l.32-.24.59-.41c1.36-1 2.69-2 4-3l.59-.48.35-.26h.05l.71-.6 2.17-1.78 2-1.76.71-.61.36-.35.65-.57q1.83-1.69 3.59-3.47l.43-.44.25-.25h.05l.59-.65 2.14-2.23 1.6-1.8.64-.69v-.05l.36-.44.68-.76c1.07-1.27 2.13-2.56 3.16-3.88l.27-.37.17-.21.46-.64 2-2.73 1.24-1.81.57-.78.48-.73.55-.81a122.7 122.7 0 0 0 13.4-27.12l.1-.28v-.07l.48-1.51 1-3 .11-.38.11-.35.45-1.69.71-2.53.12-.52.17-.59.72-3.24.16-.69.33-1.51c.37-1.82.7-3.66 1-5.51l.53-4.13a1 1 0 0 0-.89-1.41m-81.58-30.35 1.09 3h27.79l-.05-.27a69.9 69.9 0 0 0-10.55-25.1l-1.15-1.6h-42.62l.48.16a43.47 43.47 0 0 1 25.01 23.81m18.28 56.09a69.7 69.7 0 0 0 10.55-25.09l.08-.54h-27.73l-1.19 3.25a43.47 43.47 0 0 1-23.05 23.05l-1.69.67h42.07ZM487 284.73l.15 2h26.73v-.22a178 178 0 0 0-3.08-22.06l-1.09-4.69h-27.43l.79 2.77a150.5 150.5 0 0 1 3.93 22.2m.15 28.74-.15 2a149 149 0 0 1-4 22.22l-.77 2.71h27.45l1.07-4.62a174 174 0 0 0 3.08-22.06v-.29ZM454 259.6l-.16-.42h-29l.6 1.25a96.1 96.1 0 0 1 7.3 24.77l.15 1.23H460l-.68-5.31A122.4 122.4 0 0 0 454 259.6" style="fill-rule:evenodd;fill:url(#a)"/><g style="isolation:isolate"><path d="M594.55 327.77a37.46 37.46 0 0 1-14.24-14.94 47.59 47.59 0 0 1-.06-43.65 36.44 36.44 0 0 1 14.42-15 46.06 46.06 0 0 1 43.24 0 37.27 37.27 0 0 1 14.23 15 47.14 47.14 0 0 1 .06 43.47 37.2 37.2 0 0 1-14.47 15.12 42.1 42.1 0 0 1-21.5 5.39 42.64 42.64 0 0 1-21.68-5.39m37.85-9a27.7 27.7 0 0 0 10.49-11.31 35.6 35.6 0 0 0 3.69-16.46 36.1 36.1 0 0 0-3.64-16.41 27.5 27.5 0 0 0-10.66-11.48 30.8 30.8 0 0 0-16-4.1q-9.5 0-16.17 4.21a27.66 27.66 0 0 0-10.49 11.31 35.66 35.66 0 0 0-3.74 16.47 36.2 36.2 0 0 0 3.63 16.4 27.1 27.1 0 0 0 10.6 11.54 31.1 31.1 0 0 0 16.12 4.06q9.49 0 16.17-4.25ZM674.53 357.89a5.4 5.4 0 0 1-1.59-3.87V276.8a5.41 5.41 0 0 1 5.39-5.39 5.35 5.35 0 0 1 3.87 1.59 5.1 5.1 0 0 1 1.64 3.81v2.81q8.45-8.79 19.92-8.79a27.69 27.69 0 0 1 24.55 14.65 34.15 34.15 0 0 1 3.93 16.52 32.5 32.5 0 0 1-4 16.52 28.54 28.54 0 0 1-10.48 10.84 27.27 27.27 0 0 1-14 3.81q-11.47 0-19.92-8.79V354a5.4 5.4 0 0 1-5.51 5.51 5.1 5.1 0 0 1-3.8-1.62m41.71-40.49q5.1-5.56 5.1-15.41t-5.1-15.41-14-5.56a22.1 22.1 0 0 0-9.9 2.34 29.4 29.4 0 0 0-8.5 6.33v24.61a29.6 29.6 0 0 0 8.5 6.32 22 22 0 0 0 9.9 2.35q8.9.03 14-5.57M751.28 325q-8-8.2-8-23a39.9 39.9 0 0 1 3-15.35 25.5 25.5 0 0 1 9.61-11.6 27.6 27.6 0 0 1 15.47-4.22 28.2 28.2 0 0 1 15.11 4 27.2 27.2 0 0 1 9.53 10.7 32.6 32.6 0 0 1 3.4 14.94 5.3 5.3 0 0 1-5.5 5.39h-39.63q1.05 8.33 6.27 12.71t14.12 4.4a36.7 36.7 0 0 0 8.38-.88 34.8 34.8 0 0 0 7.44-2.76 4.23 4.23 0 0 1 2.11-.46 4.85 4.85 0 0 1 3.34 1.34 4.37 4.37 0 0 1 1.46 3.34c0 1.8-1 3.28-3.16 4.46a44.5 44.5 0 0 1-9.38 3.92 42.6 42.6 0 0 1-11.13 1.23q-14.41 0-22.44-8.16m37.2-29.53a15.5 15.5 0 0 0-2.81-7.85 16.65 16.65 0 0 0-6.38-5.63 17.7 17.7 0 0 0-7.91-1.87 19.8 19.8 0 0 0-7.86 1.76 15.33 15.33 0 0 0-6.5 5.91 19.9 19.9 0 0 0-2.75 9.2h32.81a1.24 1.24 0 0 0 1.4-1.56ZM814.79 331a5.2 5.2 0 0 1-1.58-3.81v-50.28a5.4 5.4 0 0 1 1.58-3.86 5.1 5.1 0 0 1 3.81-1.64 5.6 5.6 0 0 1 5.51 5.5v4.46a37.3 37.3 0 0 1 10-7.85 24.9 24.9 0 0 1 11.72-2.7 21.15 21.15 0 0 1 11.36 3.05 19.9 19.9 0 0 1 7.21 8.32 26.8 26.8 0 0 1 2.52 11.72v33.27a5.1 5.1 0 0 1-1.64 3.81 5.38 5.38 0 0 1-3.87 1.59 5.41 5.41 0 0 1-5.39-5.4v-32.1q0-14.18-12.77-14.18a18.83 18.83 0 0 0-10.14 2.81 37.3 37.3 0 0 0-9 8.32v35.15a5.1 5.1 0 0 1-1.64 3.81 5.4 5.4 0 0 1-3.87 1.59 5.2 5.2 0 0 1-3.81-1.58M886.62 331a5.2 5.2 0 0 1-1.58-3.81v-72.3a5.4 5.4 0 0 1 1.58-3.86 5.1 5.1 0 0 1 3.81-1.64 5.6 5.6 0 0 1 5.51 5.5v31.06h44.18v-31.07a5.4 5.4 0 0 1 1.58-3.88 5.06 5.06 0 0 1 3.81-1.64 5.6 5.6 0 0 1 5.51 5.5v72.3a5.1 5.1 0 0 1-1.64 3.81 5.4 5.4 0 0 1-3.87 1.59 5.41 5.41 0 0 1-5.39-5.4v-31.03h-44.18v31.05a5.1 5.1 0 0 1-1.64 3.82 5.36 5.36 0 0 1-3.87 1.59 5.2 5.2 0 0 1-3.81-1.59M977.26 331.05a16.2 16.2 0 0 1-7.14-6.21 17.2 17.2 0 0 1-2.58-9.37q0-9.15 7.09-14.12t20-5h14.06v-.82q0-7.5-3.69-11t-11.9-3.46a41 41 0 0 0-7.61.65 63.5 63.5 0 0 0-8 2.16l-1.52.24a4.26 4.26 0 0 1-3.11-1.35 4.4 4.4 0 0 1-1.35-3.22 4.6 4.6 0 0 1 3.17-4.57 51 51 0 0 1 20.32-4.16 27.53 27.53 0 0 1 13.83 3.28 20.6 20.6 0 0 1 8.08 8.38 24.7 24.7 0 0 1 2.7 11.54v33.16a5.1 5.1 0 0 1-1.64 3.81 5.4 5.4 0 0 1-3.87 1.59 5.41 5.41 0 0 1-5.39-5.4v-2.81q-8.45 8.79-21.91 8.79a21.9 21.9 0 0 1-9.54-2.11m23.27-9.9a26.9 26.9 0 0 0 8.14-6.27v-9.73H996q-17.57 0-17.57 9.15t12.3 9.25a21.5 21.5 0 0 0 9.8-2.4M1038.84 331a5.2 5.2 0 0 1-1.58-3.81v-50.28a5.4 5.4 0 0 1 1.58-3.86 5.1 5.1 0 0 1 3.81-1.64 5.6 5.6 0 0 1 5.51 5.5v4.69q8.08-10.78 18.28-10.78h.59a5 5 0 0 1 3.75 1.58 5.33 5.33 0 0 1 1.52 3.81 4.81 4.81 0 0 1-1.58 3.69 5.57 5.57 0 0 1-3.93 1.47h-.58a20.2 20.2 0 0 0-10.14 2.63 23.5 23.5 0 0 0-7.91 7.56v35.62a5.1 5.1 0 0 1-1.64 3.81 5.36 5.36 0 0 1-3.87 1.59 5.2 5.2 0 0 1-3.81-1.58M1169.85 282.42a28.1 28.1 0 0 1 2.17 11v33.74a5.1 5.1 0 0 1-1.64 3.81 5.36 5.36 0 0 1-3.87 1.59 5.43 5.43 0 0 1-5.39-5.4v-31.61q0-7.86-2.75-11.25t-9.08-3.4a15.48 15.48 0 0 0-9.49 2.87 30.2 30.2 0 0 0-7.27 8.26v35.15a5.1 5.1 0 0 1-1.64 3.81 5.36 5.36 0 0 1-3.87 1.59 5.43 5.43 0 0 1-5.39-5.4v-31.63q0-7.86-2.75-11.25t-9.08-3.4a15.48 15.48 0 0 0-9.49 2.87A30.2 30.2 0 0 0 1093 292v35.15a5.1 5.1 0 0 1-1.64 3.81 5.36 5.36 0 0 1-3.87 1.59 5.41 5.41 0 0 1-5.39-5.4v-50.24a5.4 5.4 0 0 1 1.58-3.86 5.1 5.1 0 0 1 3.81-1.64 5.6 5.6 0 0 1 5.51 5.5v4.34a28 28 0 0 1 8.32-7.68 22.35 22.35 0 0 1 11.48-2.75 18.76 18.76 0 0 1 11.08 3.34 19 19 0 0 1 6.85 8.61q7.27-12 21.56-11.95 6.8 0 11.14 3.28a19.67 19.67 0 0 1 6.42 8.32M1200.38 329.29a27.3 27.3 0 0 1-10.55-11.13 37 37 0 0 1 0-32.46 26.5 26.5 0 0 1 10.61-11 31.5 31.5 0 0 1 15.76-3.87 31.16 31.16 0 0 1 15.7 3.87 27.2 27.2 0 0 1 10.66 11.07 34.2 34.2 0 0 1 3.75 16.23 33.85 33.85 0 0 1-3.75 16.17 26.9 26.9 0 0 1-10.72 11.13 33.9 33.9 0 0 1-31.46 0Zm25.08-8.32a17.25 17.25 0 0 0 7.26-7.2 24.2 24.2 0 0 0 2.7-11.9q0-7.38-2.82-11.95a17.6 17.6 0 0 0-6.85-6.8 19.6 19.6 0 0 0-9.55-2.34 21.35 21.35 0 0 0-9.26 2.11 17.3 17.3 0 0 0-7.26 7.15 23.84 23.84 0 0 0-2.7 11.83q0 7.5 2.81 12.07a17.43 17.43 0 0 0 6.86 6.92 19.55 19.55 0 0 0 9.55 2.34 20.4 20.4 0 0 0 9.26-2.2ZM1262.54 331a5.2 5.2 0 0 1-1.58-3.81v-50.28a5.4 5.4 0 0 1 1.58-3.86 5.1 5.1 0 0 1 3.81-1.64 5.6 5.6 0 0 1 5.51 5.5v4.46a37.3 37.3 0 0 1 10-7.85 24.9 24.9 0 0 1 11.72-2.7 21.2 21.2 0 0 1 11.37 3.05 19.94 19.94 0 0 1 7.2 8.32 26.8 26.8 0 0 1 2.52 11.72v33.27A5.1 5.1 0 0 1 1313 331a5.36 5.36 0 0 1-3.87 1.59 5.43 5.43 0 0 1-5.39-5.4v-32.1q0-14.18-12.77-14.18a18.83 18.83 0 0 0-10.14 2.81 37.5 37.5 0 0 0-9 8.32v35.15a5.1 5.1 0 0 1-1.64 3.81 5.36 5.36 0 0 1-3.87 1.59 5.2 5.2 0 0 1-3.78-1.59M1342.17 358a5.23 5.23 0 0 1-1.17-5.57l7.61-19.57-22-53.67a6 6 0 0 1-.46-2.23 5.35 5.35 0 0 1 1.58-3.86 5.06 5.06 0 0 1 3.81-1.64 5.4 5.4 0 0 1 3 .93 5.13 5.13 0 0 1 2 2.46l17.93 44.42 18.28-44.27q1.65-3.63 5-3.63a5.06 5.06 0 0 1 3.81 1.64 5.35 5.35 0 0 1 1.58 3.86 5.5 5.5 0 0 1-.35 2l-32 76.87q-1.63 3.75-5 3.75a4.88 4.88 0 0 1-3.62-1.49"/></g></svg>