<?xml version="1.0" encoding="UTF-8" standalone="no"?>
<!-- Created with Inkscape (http://www.inkscape.org/) -->

<svg
   width="24.534647mm"
   height="4.8345122mm"
   viewBox="0 0 24.534647 4.8345122"
   version="1.1"
   id="svg1"
   inkscape:version="1.4.3 (0d15f75, 2025-12-25)"
   sodipodi:docname="opentekr.svg"
   xmlns:inkscape="http://www.inkscape.org/namespaces/inkscape"
   xmlns:sodipodi="http://sodipodi.sourceforge.net/DTD/sodipodi-0.dtd"
   xmlns="http://www.w3.org/2000/svg"
   xmlns:svg="http://www.w3.org/2000/svg">
  <sodipodi:namedview
     id="namedview1"
     pagecolor="#ffffff"
     bordercolor="#000000"
     borderopacity="0.25"
     inkscape:showpageshadow="2"
     inkscape:pageopacity="0.0"
     inkscape:pagecheckerboard="0"
     inkscape:deskcolor="#d1d1d1"
     inkscape:document-units="mm"
     inkscape:zoom="2.75"
     inkscape:cx="40.545455"
     inkscape:cy="-38"
     inkscape:current-layer="layer1" />
  <defs
     id="defs1" />
  <g
     inkscape:label="Layer 1"
     inkscape:groupmode="layer"
     id="layer1"
     transform="translate(-60.558527,-99.270551)">
    <g
       id="text1"
       style="opacity:1">
      <path
         style="font-weight:bold;font-size:4.9389px;font-family:Arial;-inkscape-font-specification:'Arial, Bold';baseline-shift:baseline;display:inline;overflow:visible;vector-effect:none;enable-background:accumulate;stop-color:#000000;stop-opacity:1"
         d="m 60.690819,101.25252 q 0,-0.54019 0.161575,-0.90675 0.120579,-0.2701 0.327974,-0.484729 0.209807,-0.214629 0.458198,-0.318327 0.330386,-0.139871 0.762057,-0.139871 0.78135,0 1.249195,0.484726 0.470256,0.484721 0.470256,1.348071 0,0.85611 -0.465433,1.34083 -0.465434,0.48232 -1.244371,0.48232 -0.788585,0 -1.254018,-0.47991 -0.465433,-0.48231 -0.465433,-1.32636 z m 0.735529,-0.0241 q 0,0.60048 0.277331,0.91158 0.277331,0.30868 0.704179,0.30868 0.426848,0 0.699356,-0.30627 0.274919,-0.30868 0.274919,-0.92363 0,-0.60772 -0.267684,-0.90675 -0.265273,-0.29904 -0.706591,-0.29904 -0.441318,0 -0.711414,0.30386 -0.270096,0.30145 -0.270096,0.91157 z m 3.226684,-0.79099 h 0.631832 v 0.3762 q 0.12299,-0.19292 0.332797,-0.3135 0.209806,-0.12058 0.465433,-0.12058 0.446141,0 0.757234,0.34968 0.311093,0.34968 0.311093,0.97427 0,0.64148 -0.313505,0.99839 -0.313504,0.3545 -0.759645,0.3545 -0.212218,0 -0.385852,-0.0844 -0.171221,-0.0844 -0.361735,-0.28939 v 1.29019 h -0.677652 z m 0.670417,1.23713 q 0,0.43168 0.171221,0.63907 0.171222,0.20498 0.417202,0.20498 0.236335,0 0.393087,-0.1881 0.156752,-0.19051 0.156752,-0.62218 0,-0.40274 -0.161575,-0.59807 -0.161576,-0.19534 -0.400321,-0.19534 -0.248392,0 -0.412379,0.19292 -0.163987,0.19052 -0.163987,0.56672 z m 3.848869,0.50885 0.67524,0.11334 q -0.130224,0.37138 -0.412378,0.56672 -0.279743,0.19292 -0.701768,0.19292 -0.668005,0 -0.988745,-0.43649 -0.253215,-0.34968 -0.253215,-0.88264 0,-0.63665 0.332797,-0.99597 0.332797,-0.36174 0.841639,-0.36174 0.571543,0 0.901928,0.37862 0.330385,0.3762 0.315916,1.15514 h -1.697747 q 0.0072,0.30145 0.163987,0.47026 0.156752,0.16639 0.390675,0.16639 0.159164,0 0.267684,-0.0868 0.108521,-0.0868 0.163987,-0.27974 z m 0.03858,-0.68489 q -0.0072,-0.29421 -0.151929,-0.44614 -0.144694,-0.15434 -0.352089,-0.15434 -0.221865,0 -0.366559,0.16157 -0.144695,0.16158 -0.142283,0.43891 z m 3.554658,1.5 h -0.677652 v -1.30708 q 0,-0.41479 -0.04341,-0.53536 -0.04341,-0.12299 -0.142283,-0.19052 -0.09646,-0.0675 -0.233922,-0.0675 -0.176045,0 -0.315916,0.0965 -0.139872,0.0965 -0.192926,0.25563 -0.05064,0.15916 -0.05064,0.58842 v 1.15997 h -0.677652 v -2.56109 h 0.62942 v 0.3762 q 0.335209,-0.43408 0.844051,-0.43408 0.224276,0 0.409967,0.082 0.185691,0.0796 0.279742,0.20499 0.09646,0.1254 0.132637,0.28456 0.03859,0.15917 0.03859,0.45579 z m 1.48794,0 v -2.9373 h -1.049034 v -0.598068 h 2.809482 v 0.598068 h -1.046622 v 2.9373 z m 2.221058,0 v -3.535368 h 2.621379 v 0.598068 h -1.907554 v 0.78376 h 1.774917 v 0.59566 h -1.774917 v 0.96222 h 1.975078 v 0.59566 z m 3.303854,0 v -3.535368 h 0.713826 v 1.569938 l 1.44212,-1.569938 h 0.959806 l -1.331188,1.377008 1.403535,2.15836 H 82.04288 l -0.971864,-1.65916 -0.578777,0.59083 v 1.06833 z m 4.200959,0 H 83.30172 v -2.56109 h 0.629421 v 0.36414 q 0.161575,-0.25803 0.289388,-0.34003 0.130225,-0.082 0.294212,-0.082 0.231511,0 0.446141,0.12781 l -0.209807,0.59084 q -0.171221,-0.11093 -0.318327,-0.11093 -0.142283,0 -0.241157,0.0796 -0.09888,0.0772 -0.156753,0.28215 -0.05547,0.20499 -0.05547,0.85852 z"
         id="path2" />
      <path
         style="font-weight:bold;font-size:4.9389px;font-family:Arial;-inkscape-font-specification:'Arial, Bold';baseline-shift:baseline;display:inline;overflow:visible;vector-effect:none;fill:#ffffff;enable-background:accumulate;stop-color:#000000;stop-opacity:1"
         d="m 62.400391,99.271484 c -0.30207,0 -0.573195,0.04713 -0.8125,0.148438 -0.183318,0.07653 -0.351285,0.195477 -0.501954,0.349609 -0.14863,0.153815 -0.266937,0.327549 -0.353515,0.521489 v 0.002 h -0.002 c -0.117391,0.26632 -0.171875,0.58567 -0.171875,0.95898 0,0.58702 0.164887,1.06868 0.501953,1.41797 v 0.002 c 0.336284,0.34674 0.79705,0.51953 1.349609,0.51953 0.546597,0 1.003948,-0.17536 1.339844,-0.52344 0.337238,-0.35121 0.501953,-0.83693 0.501953,-1.43164 0,-0.59959 -0.166976,-1.09009 -0.507812,-1.441408 -0.337454,-0.34963 -0.795494,-0.523438 -1.34375,-0.523438 z m 10.671875,0.05859 v 0.863282 h 1.048828 v 2.9375 h 0.978515 v -2.9375 h 1.046875 v -0.863282 z m 3.269531,0 v 3.800782 h 2.953125 v -0.85938 h -1.97461 v -0.69921 h 1.775391 v -0.85938 h -1.775391 v -0.51953 h 1.908204 v -0.863282 z m 3.304687,0 v 3.800782 H 80.625 v -1.14648 l 0.419922,-0.42774 0.921875,1.57422 h 1.203125 0.04102 0.900391 v -0.92383 c 0,-0.43092 0.02315,-0.71918 0.05078,-0.82226 v -0.002 c 0.03432,-0.1202 0.08052,-0.18688 0.111328,-0.21093 v -0.002 h 0.002 c 0.04177,-0.0336 0.08802,-0.0508 0.158203,-0.0508 0.06482,0 0.146456,0.0253 0.246093,0.0898 l 0.140625,0.0918 0.300782,-0.85156 -0.0918,-0.0547 c -0.161053,-0.0959 -0.334987,-0.14648 -0.513672,-0.14648 -0.131375,0 -0.25723,0.0335 -0.365234,0.10156 h -0.002 c -0.03053,0.0196 -0.05715,0.073 -0.08594,0.0996 v -0.14453 h -0.892578 v 2.76367 l -1.439453,-2.21289 1.474609,-1.525392 H 81.876953 L 80.625,100.69336 v -1.363282 z m -17.246093,0.205078 c 0.493543,0 0.867956,0.146688 1.154296,0.44336 v 0.002 c 0.286172,0.294971 0.433594,0.704311 0.433594,1.255861 0,0.54676 -0.146348,0.95296 -0.429687,1.24805 -0.284683,0.29501 -0.656452,0.4414 -1.148438,0.4414 -0.498887,0 -0.87391,-0.14632 -1.158203,-0.43945 -0.283512,-0.29379 -0.429687,-0.69599 -0.429687,-1.23438 0,-0.34616 0.05277,-0.62935 0.15039,-0.85156 v -0.002 c 0.07413,-0.16559 0.175221,-0.31335 0.302735,-0.445315 0.129073,-0.13204 0.266192,-0.22733 0.414062,-0.289063 0.201209,-0.08518 0.437445,-0.128906 0.710938,-0.128906 z m 10.935546,0.06055 h 2.544922 v 0.333984 h -1.044922 v 2.937503 h -0.449218 v -2.937503 h -1.050782 z m 3.271485,0 h 2.355469 v 0.333984 h -1.90625 v 1.046873 h 1.773437 v 0.33203 h -1.773437 v 1.22657 h 1.974609 v 0.33203 h -2.423828 z m 3.302734,0 h 0.449219 v 1.777347 l 1.632812,-1.777347 h 0.589844 l -1.1875,1.228517 1.328125,2.04297 h -0.603515 l -1.021485,-1.74414 -0.738281,0.7539 v 0.99024 h -0.449219 z m -17.501953,0.285156 c -0.324574,0 -0.606714,0.118343 -0.810547,0.347661 -0.209664,0.234 -0.302734,0.57373 -0.302734,1 0,0.42068 0.09753,0.76104 0.310547,1 0.207438,0.23088 0.486279,0.35156 0.802734,0.35156 0.316206,0 0.592402,-0.1198 0.796875,-0.34961 0.212299,-0.23837 0.308594,-0.58204 0.308594,-1.01172 0,-0.42457 -0.09262,-0.7616 -0.300781,-0.99414 -0.201017,-0.226605 -0.480595,-0.343751 -0.804688,-0.343751 z m 0,0.263671 c 0.264332,0 0.454741,0.0837 0.607422,0.25586 0.148752,0.16617 0.234375,0.43264 0.234375,0.81836 0,0.39025 -0.08793,0.66273 -0.242188,0.83594 -0.15887,0.17855 -0.346684,0.26172 -0.599609,0.26172 -0.252676,0 -0.443132,-0.0849 -0.605469,-0.26563 -0.156109,-0.17586 -0.24414,-0.44314 -0.24414,-0.82226 0,-0.38723 0.08586,-0.65629 0.236328,-0.82422 0.156295,-0.17584 0.349431,-0.25977 0.613281,-0.25977 z m 3.675781,0.10352 c -0.191218,0 -0.373207,0.0448 -0.533203,0.13672 -0.05499,0.0316 -0.0851,0.0861 -0.132812,0.125 v -0.20508 h -0.896485 v 3.80078 h 0.941407 v -1.15234 c 0.05718,0.0434 0.113866,0.10812 0.171875,0.13671 v 0.002 c 0.134814,0.0655 0.284343,0.0976 0.443359,0.0976 0.332467,0 0.629742,-0.14073 0.859375,-0.40039 0.234937,-0.26746 0.345703,-0.63673 0.345703,-1.08593 0,-0.43836 -0.110356,-0.80016 -0.34375,-1.0625 -0.22827,-0.25659 -0.523478,-0.39258 -0.855469,-0.39258 z m 2.582032,0 c -0.370577,0 -0.694843,0.13841 -0.939454,0.40429 -0.248332,0.26813 -0.367187,0.6365 -0.367187,1.08399 0,0.37626 0.08981,0.70196 0.277344,0.96094 h 0.002 c 0.239776,0.3263 0.621552,0.49218 1.095703,0.49218 0.301508,0 0.5633,-0.0705 0.775391,-0.21679 0.21253,-0.14714 0.368599,-0.36391 0.46289,-0.63282 l 0.05078,-0.14843 -0.878906,-0.14649 h 0.869141 l 0.002,-0.1289 c 0.01,-0.5376 -0.09767,-0.95863 -0.347656,-1.24414 -0.245104,-0.28089 -0.591712,-0.42383 -1.001953,-0.42383 z m 3.238281,0 c -0.282327,0 -0.498353,0.18281 -0.710938,0.36328 v -0.30664 h -0.894531 v 2.82617 h 0.941406 v -1.29297 c 0,-0.27997 0.02168,-0.47097 0.04492,-0.54492 v -0.002 c 0.02692,-0.0798 0.07134,-0.13836 0.142578,-0.1875 0.07189,-0.0496 0.147044,-0.0723 0.240235,-0.0723 0.06999,0 0.118082,0.0149 0.158203,0.043 h 0.002 c 0.04247,0.029 0.07082,0.0656 0.0918,0.125 v 0.002 c 0.01256,0.0349 0.03516,0.21832 0.03516,0.49024 v 1.43945 h 0.943359 v -1.72461 c 0,-0.20267 -0.01307,-0.36019 -0.04297,-0.48437 v -0.002 c -0.02805,-0.12229 -0.08127,-0.23413 -0.15625,-0.33203 -0.07971,-0.10628 -0.192551,-0.18826 -0.332032,-0.24805 -0.141798,-0.0626 -0.29725,-0.0918 -0.46289,-0.0918 z m -5.820313,0.26367 c 0.262865,0 0.471683,0.095 0.658203,0.30469 0.181397,0.20389 0.277344,0.49229 0.277344,0.88672 0,0.4053 -0.09887,0.7018 -0.28125,0.91015 -0.188372,0.21301 -0.397768,0.31055 -0.660156,0.31055 -0.123941,0 -0.231428,-0.0233 -0.328125,-0.0703 -0.0935,-0.0461 -0.202547,-0.13291 -0.322266,-0.26172 l -0.228515,-0.2461 v 1.49414 h -0.414063 v -3.26953 h 0.367188 v 0.69727 l 0.24414,-0.38281 c 0.07038,-0.1104 0.163983,-0.19877 0.28711,-0.26954 0.119746,-0.0688 0.250773,-0.10351 0.40039,-0.10351 z m 2.582032,0 c 0.351816,0 0.607324,0.11004 0.802734,0.33398 0.166735,0.18986 0.232681,0.528 0.248047,0.93555 h -1.666016 l 0.0039,0.13477 c 0.0053,0.22329 0.06866,0.41607 0.199219,0.55664 v 0.002 c 0.127024,0.13483 0.299013,0.20703 0.486328,0.20703 0.130158,0 0.254579,-0.0377 0.351563,-0.11523 0.06967,-0.0557 0.102795,-0.14981 0.142578,-0.23828 l 0.386719,0.0644 c -0.07372,0.13844 -0.143564,0.27953 -0.261719,0.36133 -0.1609,0.11096 -0.363808,0.16992 -0.625,0.16992 -0.416523,0 -0.694936,-0.12714 -0.882813,-0.38281 -0.149425,-0.20705 -0.228515,-0.47109 -0.228515,-0.80469 0,-0.40138 0.103431,-0.69333 0.298828,-0.9043 v -0.002 c 0.199119,-0.21644 0.436262,-0.31836 0.744141,-0.31836 z m 3.238281,0 c 0.133394,0 0.251632,0.0236 0.357422,0.0703 v 0.002 c 0.108108,0.0464 0.180875,0.1012 0.226562,0.16211 l 0.002,0.002 c 0.05269,0.0685 0.08727,0.14377 0.107422,0.23242 v 0.002 c 0.02129,0.0878 0.03516,0.23182 0.03516,0.42383 v 1.46094 h -0.412109 v -1.17578 c 0,-0.28115 -0.0055,-0.45421 -0.05078,-0.58008 -0.03659,-0.10366 -0.103204,-0.19291 -0.191406,-0.25391 -0.08849,-0.0619 -0.197252,-0.0918 -0.310547,-0.0918 -0.141536,-1e-5 -0.276024,0.0401 -0.390625,0.11914 -0.11479,0.0792 -0.200276,0.19265 -0.244141,0.32421 v 0.002 c -0.04418,0.13885 -0.05664,0.33558 -0.05664,0.62695 v 1.0293 H 70.5625 v -2.29688 h 0.365234 v 0.63086 l 0.238282,-0.30664 c 0.203681,-0.26376 0.436671,-0.38281 0.738281,-0.38281 z m 12.611328,0 c 0.09499,0 0.18422,0.041 0.275391,0.0801 l -0.121094,0.34375 c -0.079,-0.0329 -0.156426,-0.0801 -0.236328,-0.0801 -0.119526,0 -0.234158,0.0349 -0.324219,0.10742 -0.100812,0.0787 -0.158416,0.19819 -0.201172,0.34961 v 0.002 h -0.002 c -0.04624,0.17088 -0.05859,0.45315 -0.05859,0.89258 v 0.66016 h -0.414062 v -2.29688 h 0.365234 v 0.69141 l 0.244141,-0.39063 c 0.102337,-0.16343 0.1945,-0.2622 0.248047,-0.29687 0.06563,-0.0413 0.137335,-0.0625 0.224609,-0.0625 z m -15.808594,0.25391 c -0.180023,0 -0.345963,0.0723 -0.464844,0.20507 -0.121799,0.13602 -0.177591,0.32119 -0.175781,0.5293 v 0.13086 h 1.279297 l -0.002,-0.13477 c -0.0053,-0.21725 -0.06431,-0.40378 -0.189453,-0.53515 -0.117903,-0.12504 -0.276812,-0.19532 -0.447266,-0.19531 z m -2.80664,0.0176 c -0.199844,0 -0.383,0.0846 -0.513672,0.23828 -0.13741,0.15965 -0.195313,0.38233 -0.195313,0.65235 0,0.30528 0.05833,0.5516 0.201172,0.72461 0.13413,0.16057 0.318798,0.25195 0.519531,0.25195 0.192654,0 0.368707,-0.0839 0.494141,-0.23437 v -0.002 c 0.13565,-0.16486 0.1875,-0.40128 0.1875,-0.70508 0,-0.28618 -0.05523,-0.51896 -0.191406,-0.68359 -0.128114,-0.15488 -0.30671,-0.24219 -0.501953,-0.24219 z m 2.80664,0.24805 c 0.105447,0 0.180967,0.0314 0.25586,0.11133 v 0.002 c 0.04228,0.0444 0.05254,0.14121 0.07227,0.22266 h -0.664062 c 0.01727,-0.0783 0.02386,-0.16906 0.06836,-0.21875 0.07404,-0.0827 0.151781,-0.11719 0.267578,-0.11719 z m -2.80664,0.0156 c 0.123083,0 0.209554,0.0429 0.296875,0.14843 0.07925,0.0958 0.132812,0.26287 0.132812,0.51367 0,0.27177 -0.0536,0.44796 -0.126953,0.53711 -0.08357,0.10028 -0.168556,0.14063 -0.291016,0.14063 -0.126611,0 -0.22075,-0.0467 -0.314453,-0.1582 -0.08546,-0.10351 -0.142578,-0.2844 -0.142578,-0.55469 0,-0.23158 0.05157,-0.38609 0.132813,-0.48047 0.08798,-0.1035 0.181154,-0.14649 0.3125,-0.14648 z m 2.46289,0.99804 h 0.675781 v 0.11133 c -0.03162,0.10247 -0.07172,0.16988 -0.113281,0.20313 -0.04771,0.0382 -0.103486,0.0586 -0.185547,0.0586 -0.123882,0 -0.211383,-0.039 -0.292968,-0.125 -0.05089,-0.0548 -0.06296,-0.15704 -0.08398,-0.24805 z"
         id="path3" />
    </g>
  </g>
</svg>
