<?xml version="1.0" encoding="UTF-8" standalone="no"?>
<svg
   version="1.1"
   id="svg1"
   sodipodi:docname="opensourcesense.svg"
   width="136.25391"
   height="13.207031"
   inkscape:version="1.4.3 (0d15f75, 2025-12-25)"
   xmlns:inkscape="http://www.inkscape.org/namespaces/inkscape"
   xmlns:sodipodi="http://sodipodi.sourceforge.net/DTD/sodipodi-0.dtd"
   xmlns="http://www.w3.org/2000/svg"
   xmlns:svg="http://www.w3.org/2000/svg">
  <defs
     id="defs1" />
  <sodipodi:namedview
     id="namedview1"
     pagecolor="#ffffff"
     bordercolor="#000000"
     borderopacity="0.25"
     inkscape:showpageshadow="2"
     inkscape:pageopacity="0.0"
     inkscape:pagecheckerboard="0"
     inkscape:deskcolor="#d1d1d1"
     inkscape:zoom="1.36"
     inkscape:cx="145.95588"
     inkscape:cy="82.720588"
     inkscape:current-layer="svg1" />
  <path
     d="m 8.1689453,1.3808594 q 0.6220703,0.6835937 0.9501953,1.6748047 0.334961,0.9912109 0.334961,2.2490234 0,1.2578125 -0.3417969,2.2558594 -0.3349609,0.9912109 -0.9433594,1.6542969 -0.6289062,0.6904296 -1.4902344,1.0390622 -0.8544922,0.348633 -1.9550781,0.348633 -1.0732422,0 -1.9550781,-0.355469 Q 1.8935547,9.8916016 1.2783203,9.2148438 0.66308594,8.5380859 0.328125,7.5537109 0,6.5693359 0,5.3046875 0,4.0605469 0.328125,3.0761719 0.65625,2.0849609 1.2851562,1.3808594 1.8867187,0.7109375 2.7753906,0.35546875 3.6708984,0 4.7236328,0 q 1.09375,0 1.9619141,0.36230469 0.875,0.35546875 1.4833984,1.01855471 z M 8.0458984,5.3046875 q 0,-1.9824219 -0.8886718,-3.0556641 -0.8886719,-1.0800781 -2.4267579,-1.0800781 -1.5517578,0 -2.4404296,1.0800781 -0.881836,1.0732422 -0.881836,3.0556641 0,2.0029297 0.9023438,3.0693359 0.9023437,1.0595704 2.4199218,1.0595704 1.5175782,0 2.413086,-1.0595704 Q 8.0458984,7.3076172 8.0458984,5.3046875 Z M 18.217773,6.4804687 q 0,0.9296875 -0.266601,1.7021485 -0.266602,0.765625 -0.751953,1.2988281 -0.451172,0.5058594 -1.066407,0.7861327 -0.608398,0.273438 -1.291992,0.273438 -0.594726,0 -1.080078,-0.129883 -0.478515,-0.129883 -0.977539,-0.40332 v 3.199218 H 11.498047 V 2.7548828 h 1.285156 v 0.7998047 q 0.512695,-0.4306641 1.148438,-0.7177734 0.642578,-0.2939453 1.367187,-0.2939453 1.380859,0 2.146484,1.0458984 0.772461,1.0390625 0.772461,2.8916015 z m -1.326171,0.03418 q 0,-1.3808593 -0.47168,-2.0644531 -0.47168,-0.6835937 -1.449219,-0.6835937 -0.553711,0 -1.114258,0.2392578 -0.560547,0.2392578 -1.073242,0.6289062 v 4.3271485 q 0.546875,0.2460937 0.936524,0.3349609 0.396484,0.088867 0.895507,0.088867 1.073243,0 1.674805,-0.7246094 0.601563,-0.7246094 0.601563,-2.1464844 z m 9.720703,0.1914063 h -5.625977 q 0,0.7041015 0.211914,1.2304687 0.211914,0.5195313 0.581055,0.8544922 0.355469,0.328125 0.84082,0.4921875 0.492188,0.1640625 1.080078,0.1640625 0.779297,0 1.56543,-0.3076172 0.792969,-0.3144531 1.12793,-0.6152343 h 0.06836 v 1.4013672 q -0.649414,0.2734377 -1.326172,0.4580077 -0.676758,0.18457 -1.421875,0.18457 -1.90039,0 -2.966797,-1.0253902 -1.066406,-1.0322266 -1.066406,-2.9257813 0,-1.8730469 1.018555,-2.9736328 1.02539,-1.1005859 2.693359,-1.1005859 1.544922,0 2.378906,0.9023437 0.840821,0.9023437 0.840821,2.5634766 z M 25.361328,5.7216797 Q 25.354492,4.7099609 24.848633,4.15625 24.349609,3.6025391 23.324219,3.6025391 q -1.032227,0 -1.647461,0.6083984 -0.608399,0.6083984 -0.69043,1.5107422 z m 9.583984,4.6689453 H 33.660156 V 6.0429687 q 0,-0.5263671 -0.06152,-0.984375 Q 33.537109,4.59375 33.373047,4.3339844 33.202148,4.046875 32.880859,3.9101563 32.55957,3.7666016 32.046875,3.7666016 q -0.526367,0 -1.100586,0.2597656 -0.574219,0.2597656 -1.100586,0.6630859 V 10.390625 H 28.560547 V 2.7548828 h 1.285156 v 0.8476563 q 0.601563,-0.4990235 1.244141,-0.7792969 0.642578,-0.2802734 1.319336,-0.2802734 1.237304,0 1.886718,0.7451171 0.649414,0.7451172 0.649414,2.1464844 z M 49.84082,7.4853516 q 0,0.5947265 -0.280273,1.1757812 -0.273438,0.5810547 -0.772461,0.984375 -0.546875,0.4375002 -1.27832,0.6835942 -0.72461,0.246093 -1.75,0.246093 -1.100586,0 -1.982422,-0.205078 -0.875,-0.205078 -1.78418,-0.6083982 V 8.0664063 h 0.0957 q 0.772461,0.6425781 1.78418,0.9912109 1.011719,0.3486328 1.90039,0.3486328 1.257813,0 1.955079,-0.4716797 Q 48.432617,8.4628906 48.432617,7.6767578 48.432617,7 48.097656,6.6787109 47.769531,6.3574219 47.092773,6.1796875 46.580078,6.0429687 45.978516,5.9541016 45.383789,5.8652344 44.713867,5.7285156 43.360352,5.4414062 42.704102,4.7509766 42.054687,4.0537109 42.054687,2.9394531 q 0,-1.2783203 1.080079,-2.09179685 1.080078,-0.8203125 2.741211,-0.8203125 1.073242,0 1.96875,0.20507813 Q 48.740234,0.4375 49.430664,0.73828125 V 2.3378906 h -0.0957 q -0.581055,-0.4921875 -1.53125,-0.8134765 -0.943359,-0.328125 -1.93457,-0.328125 -1.086914,0 -1.75,0.4511718 -0.65625,0.4511719 -0.65625,1.1621094 0,0.6357422 0.328125,0.9980469 0.328125,0.3623047 1.155273,0.5537109 0.4375,0.095703 1.244141,0.2324219 0.80664,0.1367187 1.367187,0.2802734 1.134766,0.3007813 1.708985,0.9091797 0.574218,0.6083985 0.574218,1.7021485 z m 8.579102,-0.9091797 q 0,1.8662109 -0.957031,2.946289 -0.957032,1.0800781 -2.563477,1.0800781 -1.620117,0 -2.577148,-1.0800781 -0.950196,-1.0800781 -0.950196,-2.946289 0,-1.866211 0.950196,-2.9462891 0.957031,-1.086914 2.577148,-1.086914 1.606445,0 2.563477,1.086914 0.957031,1.0800781 0.957031,2.9462891 z m -1.326172,0 q 0,-1.4833985 -0.581055,-2.2011719 -0.581054,-0.7246094 -1.613281,-0.7246094 -1.045898,0 -1.626953,0.7246094 -0.574219,0.7177734 -0.574219,2.2011719 0,1.4355469 0.581055,2.180664 0.581055,0.7382813 1.620117,0.7382813 1.025391,0 1.606445,-0.7314453 0.587891,-0.7382813 0.587891,-2.1875 z m 9.645508,3.8144531 H 65.454102 V 9.5429688 q -0.649415,0.5126952 -1.244141,0.7861332 -0.594727,0.273437 -1.3125,0.273437 -1.203125,0 -1.873047,-0.7314452 Q 60.354492,9.1328125 60.354492,7.7109375 V 2.7548828 h 1.285156 v 4.3476563 q 0,0.5810546 0.05469,0.9980468 0.05469,0.4101563 0.232422,0.7041016 0.18457,0.3007813 0.478515,0.4375 0.293946,0.1367188 0.854493,0.1367188 0.499023,0 1.086914,-0.2597657 0.594726,-0.2597656 1.107422,-0.6630859 V 2.7548828 h 1.285156 z M 74.033203,4.15625 h -0.06836 q -0.28711,-0.068359 -0.560547,-0.095703 -0.266602,-0.03418 -0.635742,-0.03418 -0.594727,0 -1.148438,0.2666015 -0.553711,0.2597657 -1.066406,0.6767579 V 10.390625 H 69.268555 V 2.7548828 h 1.285156 v 1.1279297 q 0.765625,-0.6152344 1.34668,-0.8681641 0.58789,-0.2597656 1.196289,-0.2597656 0.334961,0 0.485351,0.020508 0.150391,0.013672 0.451172,0.061523 z m 6.856445,5.7558594 q -0.642578,0.3076176 -1.223632,0.4785156 -0.574219,0.170898 -1.223633,0.170898 -0.827149,0 -1.517578,-0.239257 -0.69043,-0.246094 -1.182618,-0.7382816 -0.499023,-0.4921875 -0.77246,-1.2441406 -0.273438,-0.7519532 -0.273438,-1.756836 0,-1.8730469 1.025391,-2.9394531 1.032226,-1.0664063 2.720703,-1.0664063 0.65625,0 1.285156,0.1845704 0.635742,0.1845703 1.162109,0.4511718 v 1.428711 h -0.06836 Q 80.233398,4.1835937 79.604492,3.9375 78.982422,3.6914063 78.387695,3.6914063 q -1.09375,0 -1.729492,0.7382812 -0.628906,0.7314453 -0.628906,2.1533203 0,1.3808594 0.615234,2.1259766 0.622071,0.7382812 1.743164,0.7382812 0.389649,0 0.792969,-0.102539 0.40332,-0.1025391 0.724609,-0.2666016 0.280274,-0.1435547 0.526368,-0.3007812 0.246093,-0.1640625 0.389648,-0.2802735 h 0.06836 z m 8.039063,-3.2060547 h -5.625977 q 0,0.7041015 0.211914,1.2304687 0.211914,0.5195313 0.581055,0.8544922 0.355469,0.328125 0.84082,0.4921875 0.492188,0.1640625 1.080079,0.1640625 0.779296,0 1.565429,-0.3076172 0.792969,-0.3144531 1.12793,-0.6152343 h 0.06836 v 1.4013672 q -0.649414,0.2734377 -1.326172,0.4580077 -0.676757,0.18457 -1.421875,0.18457 -1.90039,0 -2.966796,-1.0253902 -1.066407,-1.0322266 -1.066407,-2.9257813 0,-1.8730469 1.018555,-2.9736328 1.025391,-1.1005859 2.693359,-1.1005859 1.544922,0 2.378907,0.9023437 0.84082,0.9023437 0.84082,2.5634766 z M 87.677734,5.7216797 Q 87.670898,4.7099609 87.165039,4.15625 86.666016,3.6025391 85.640625,3.6025391 q -1.032227,0 -1.647461,0.6083984 -0.608398,0.6083984 -0.69043,1.5107422 z m 15.620116,1.7636719 q 0,0.5947265 -0.28027,1.1757812 -0.27344,0.5810547 -0.77246,0.984375 -0.54688,0.4375002 -1.27832,0.6835942 -0.72461,0.246093 -1.750003,0.246093 -1.100586,0 -1.982422,-0.205078 -0.875,-0.205078 -1.78418,-0.6083982 V 8.0664063 h 0.0957 q 0.772461,0.6425781 1.78418,0.9912109 1.011719,0.3486328 1.900391,0.3486328 1.257811,0 1.955081,-0.4716797 0.7041,-0.4716797 0.7041,-1.2578125 Q 101.88965,7 101.55469,6.6787109 101.22656,6.3574219 100.5498,6.1796875 100.03711,6.0429687 99.435547,5.9541016 98.84082,5.8652344 98.170898,5.7285156 96.817383,5.4414062 96.161133,4.7509766 95.511719,4.0537109 95.511719,2.9394531 q 0,-1.2783203 1.080078,-2.09179685 1.080078,-0.8203125 2.741211,-0.8203125 1.073242,0 1.968752,0.20507813 0.89551,0.20507812 1.58594,0.50585937 V 2.3378906 h -0.0957 q -0.58105,-0.4921875 -1.53125,-0.8134765 -0.94336,-0.328125 -1.934568,-0.328125 -1.086914,0 -1.75,0.4511718 -0.65625,0.4511719 -0.65625,1.1621094 0,0.6357422 0.328125,0.9980469 0.328125,0.3623047 1.155273,0.5537109 0.4375,0.095703 1.244141,0.2324219 0.806639,0.1367187 1.367189,0.2802734 1.13476,0.3007813 1.70898,0.9091797 0.57422,0.6083985 0.57422,1.7021485 z m 8.46289,-0.7792969 h -5.62597 q 0,0.7041015 0.21191,1.2304687 0.21191,0.5195313 0.58105,0.8544922 0.35547,0.328125 0.84082,0.4921875 0.49219,0.1640625 1.08008,0.1640625 0.7793,0 1.56543,-0.3076172 0.79297,-0.3144531 1.12793,-0.6152343 h 0.0684 v 1.4013672 q -0.64941,0.2734377 -1.32617,0.4580077 -0.67676,0.18457 -1.42188,0.18457 -1.90039,0 -2.96679,-1.0253902 -1.06641,-1.0322266 -1.06641,-2.9257813 0,-1.8730469 1.01856,-2.9736328 1.02539,-1.1005859 2.69336,-1.1005859 1.54492,0 2.3789,0.9023437 0.84082,0.9023437 0.84082,2.5634766 z m -1.25097,-0.984375 q -0.007,-1.0117188 -0.5127,-1.5654297 -0.49902,-0.5537109 -1.52441,-0.5537109 -1.03223,0 -1.64746,0.6083984 -0.6084,0.6083984 -0.69043,1.5107422 z m 9.58398,4.6689453 h -1.28516 V 6.0429687 q 0,-0.5263671 -0.0615,-0.984375 -0.0615,-0.4648437 -0.22559,-0.7246093 -0.17089,-0.2871094 -0.49218,-0.4238281 -0.32129,-0.1435547 -0.83399,-0.1435547 -0.52636,0 -1.10058,0.2597656 -0.57422,0.2597656 -1.10059,0.6630859 v 5.7011719 h -1.28516 V 2.7548828 h 1.28516 v 0.8476563 q 0.60156,-0.4990235 1.24414,-0.7792969 0.64258,-0.2802734 1.31934,-0.2802734 1.2373,0 1.88672,0.7451171 0.64941,0.7451172 0.64941,2.1464844 z m 7.92969,-2.2011719 q 0,1.0458985 -0.86817,1.7158203 -0.86132,0.6699216 -2.35839,0.6699216 -0.84766,0 -1.5586,-0.198242 -0.7041,-0.205078 -1.18262,-0.4443358 V 8.4902344 h 0.0684 q 0.6084,0.4580078 1.35352,0.7314453 0.74512,0.2666016 1.42871,0.2666016 0.84766,0 1.32617,-0.2734375 0.47852,-0.2734375 0.47852,-0.8613282 0,-0.4511719 -0.25977,-0.6835937 -0.25976,-0.2324219 -0.99804,-0.3964844 -0.27344,-0.061523 -0.71778,-0.1435547 -0.4375,-0.082031 -0.7998,-0.1777344 -1.00489,-0.2666015 -1.42871,-0.7792968 -0.417,-0.5195313 -0.417,-1.2714844 0,-0.4716797 0.19141,-0.8886719 0.19824,-0.4169922 0.59473,-0.7451172 0.38281,-0.321289 0.9707,-0.5058593 0.59473,-0.1914063 1.32617,-0.1914063 0.6836,0 1.38086,0.1708984 0.7041,0.1640625 1.16895,0.4033204 v 1.3740234 h -0.0684 q -0.49219,-0.3623047 -1.19629,-0.6083984 -0.7041,-0.2529297 -1.38086,-0.2529297 -0.7041,0 -1.18945,0.2734375 -0.48536,0.2666015 -0.48536,0.7998046 0,0.4716797 0.29395,0.7109375 0.28711,0.2392579 0.92969,0.3896485 0.35547,0.082031 0.79297,0.1640625 0.44433,0.082031 0.73828,0.1503906 0.8955,0.2050781 1.38086,0.7041016 0.48535,0.5058593 0.48535,1.3398437 z m 8.23047,-1.4833984 h -5.62598 q 0,0.7041015 0.21191,1.2304687 0.21192,0.5195313 0.58106,0.8544922 0.35547,0.328125 0.84082,0.4921875 0.49219,0.1640625 1.08008,0.1640625 0.77929,0 1.56543,-0.3076172 0.79297,-0.3144531 1.12793,-0.6152343 h 0.0684 v 1.4013672 q -0.64942,0.2734377 -1.32618,0.4580077 -0.67675,0.18457 -1.42187,0.18457 -1.90039,0 -2.9668,-1.0253902 -1.0664,-1.0322266 -1.0664,-2.9257813 0,-1.8730469 1.01855,-2.9736328 1.02539,-1.1005859 2.69336,-1.1005859 1.54492,0 2.37891,0.9023437 0.84082,0.9023437 0.84082,2.5634766 z m -1.25098,-0.984375 q -0.007,-1.0117188 -0.5127,-1.5654297 -0.49902,-0.5537109 -1.52441,-0.5537109 -1.03223,0 -1.64746,0.6083984 -0.6084,0.6083984 -0.69043,1.5107422 z"
     id="text1"
     style="color:#0b689e;font-size:14px;line-height:1.2;font-family:'Open Sans';text-align:center;letter-spacing:0px"
     class="text-content element-text-container vertically-centered dir-ltr"
     aria-label="Open Source Sense" />
</svg>
