<?xml version="1.0" encoding="UTF-8" standalone="no"?>
<!-- Created with Inkscape (http://www.inkscape.org/) -->

<svg
   version="1.1"
   id="svg1"
   width="770"
   height="132"
   viewBox="0 0 770 132"
   sodipodi:docname="orcro.svg"
   inkscape:version="1.4.3 (0d15f75, 2025-12-25)"
   xmlns:inkscape="http://www.inkscape.org/namespaces/inkscape"
   xmlns:sodipodi="http://sodipodi.sourceforge.net/DTD/sodipodi-0.dtd"
   xmlns="http://www.w3.org/2000/svg"
   xmlns:svg="http://www.w3.org/2000/svg">
  <defs
     id="defs1" />
  <sodipodi:namedview
     id="namedview1"
     pagecolor="#ffffff"
     bordercolor="#000000"
     borderopacity="0.25"
     inkscape:showpageshadow="2"
     inkscape:pageopacity="0.0"
     inkscape:pagecheckerboard="0"
     inkscape:deskcolor="#d1d1d1"
     inkscape:zoom="0.35"
     inkscape:cx="384.28571"
     inkscape:cy="67.142857"
     inkscape:current-layer="g1" />
  <g
     inkscape:groupmode="layer"
     inkscape:label="Image"
     id="g1">
    <g
       id="g2">
      <path
         style="fill:#f9d7d2"
         d="M 32.998008,97.498007 1.507922,65.996015 33.253961,34.249976 65,2.503937 96.746039,34.249976 128.49208,65.996015 97.001992,97.498007 C 79.682444,114.8241 65.281548,129 65,129 64.718452,129 50.317556,114.8241 32.998008,97.498007 Z M 75.5,90.132659 C 85.49516,85.576324 91.014686,76.989662 90.978038,66.053656 90.926783,50.75872 80.199289,40 65,40 49.812745,40 39.043924,50.787044 39.043924,66 c 0,10.715263 4.890071,18.794929 14.17589,23.422248 6.440738,3.209555 16.120772,3.518206 22.280186,0.710411 z M 55.898537,83.215655 C 51.583848,80.961634 50.038366,79.416152 47.784345,75.101463 44.338504,68.505369 44.255675,63.886354 47.46765,57.44076 53.629963,45.07461 68.859036,42.595878 78.631579,52.368421 88.404122,62.140964 85.92539,77.370037 73.55924,83.53235 67.113646,86.744325 62.494631,86.661496 55.898537,83.215655 Z M 202,127.42392 C 180.31303,121.7283 162.04683,103.30184 156.51503,81.539901 155.68176,78.261847 155,71.268891 155,66 c 0,-5.268891 0.68176,-12.261847 1.51503,-15.539901 5.5889,-21.98659 23.95848,-40.356167 45.94507,-45.9450666 7.65157,-1.9449965 23.42823,-1.9449965 31.0798,0 21.98659,5.5888996 40.35617,23.9584766 45.94507,45.9450666 1.94499,7.651567 1.94499,23.428235 0,31.079802 -5.5889,21.986589 -23.95848,40.356169 -45.94507,45.945069 -7.49814,1.90599 -24.17297,1.87372 -31.5399,-0.0611 z m 29.0685,-19.01218 C 244.38984,104.51637 256.48293,92.420354 260.40465,79.068499 263.56755,68.300146 261.90304,52.600902 256.68653,44 253.47515,38.705125 246.35858,31.434761 241.15161,28.129367 c -12.99848,-8.251462 -33.30474,-8.251462 -46.30322,0 C 189.64142,31.434761 182.52485,38.705125 179.31347,44 c -7.054,11.63053 -7.05082,32.400402 0.007,44 5.57119,9.156653 15.34192,17.14515 24.58874,20.10362 7.12426,2.27936 19.92181,2.42455 27.15956,0.30812 z M 299,65.959071 V 2.9181417 L 329.75,3.2090708 360.5,3.5 l 5.71807,2.6800561 c 7.98459,3.7423781 15.13706,10.7645979 19.04065,18.6939149 3.03246,6.159803 3.24128,7.26179 3.24128,17.105002 0,9.277871 -0.31137,11.185083 -2.63517,16.141038 -1.44934,3.091006 -4.3142,7.478506 -6.36636,9.75 L 375.76728,72 l 3.73119,4.129989 c 2.05216,2.271494 4.91702,6.658994 6.36636,9.75 2.50676,5.346152 2.65031,6.533686 2.94578,24.370011 l 0.31061,18.75 h -8.94113 -8.94114 l -0.47002,-15.75 C 370.25874,96.154207 369.56339,93.281541 364.68867,88.130758 359.16566,82.294978 356.52551,81.662763 335.75,81.201046 L 317,80.784345 V 104.89217 129 h -9 -9 z m 58.5,-4.852342 c 4.05642,-1.662317 9.43421,-6.897604 11.11924,-10.82461 C 369.37866,48.512284 370,44.78533 370,42 370,35.698708 368.21648,31.425583 363.86924,27.311334 358.49547,22.225576 356.07096,21.700719 335.75,21.224109 L 317,20.784345 V 42 63.215655 l 18.75,-0.439764 c 11.5295,-0.270414 19.90528,-0.913197 21.75,-1.669162 z M 454,127.42392 C 432.31303,121.7283 414.04683,103.30184 408.51503,81.539901 407.68176,78.261847 407,71.268891 407,66 c 0,-18.23545 5.57407,-31.716931 18.42857,-44.571429 8.78801,-8.788012 17.86153,-14.0741714 29.03153,-16.9135386 7.65157,-1.9449965 23.42823,-1.9449965 31.0798,0 8.31241,2.1129802 19.22433,7.6450516 24.85367,12.6001966 l 4.75264,4.183442 -6.29422,6.350664 C 505.39017,31.142201 502.21641,34 501.79917,34 501.38194,34 498.66894,32.204009 495.77029,30.008909 488.5111,24.511662 480.58215,22 470.48733,22 456.68605,22 446.73952,26.198662 437.81651,35.79111 429.26444,44.984784 426,53.330325 426,66 c 0,13.299465 4.3147,23.368415 13.79111,32.18349 9.30112,8.65202 17.52165,11.81651 30.69622,11.81651 10.09482,0 18.02377,-2.51166 25.28296,-8.00891 C 498.66894,99.795991 501.38194,98 501.79917,98 c 0.41724,0 3.591,2.8578 7.05282,6.35066 l 6.29422,6.35067 -4.75264,4.18344 c -5.62934,4.95515 -16.54126,10.48722 -24.85367,12.6002 -7.49814,1.90599 -24.17297,1.87372 -31.5399,-0.0611 z M 533,65.959071 V 2.9181417 L 563.75,3.2090708 594.5,3.5 l 5.71807,2.6800561 c 7.98459,3.7423781 15.13706,10.7645979 19.04065,18.6939149 3.03246,6.159803 3.24128,7.26179 3.24128,17.105002 0,9.277871 -0.31137,11.185083 -2.63517,16.141038 -1.44934,3.091006 -4.3142,7.478506 -6.36636,9.75 L 609.76728,72 l 3.73119,4.129989 c 2.05216,2.271494 4.91702,6.658994 6.36636,9.75 2.50676,5.346152 2.65031,6.533686 2.94578,24.370011 l 0.31061,18.75 h -8.94113 -8.94114 l -0.47002,-15.75 C 604.25874,96.154207 603.56339,93.281541 598.68867,88.130758 593.16566,82.294978 590.52551,81.662763 569.75,81.201046 L 551,80.784345 V 104.89217 129 h -9 -9 z m 58.5,-4.852342 c 4.05642,-1.662317 9.43421,-6.897604 11.11924,-10.82461 C 603.37866,48.512284 604,44.78533 604,42 604,35.698708 602.21648,31.425583 597.86924,27.311334 592.49547,22.225576 590.07096,21.700719 569.75,21.224109 L 551,20.784345 V 42 63.215655 l 18.75,-0.439764 c 11.5295,-0.270414 19.90528,-0.913197 21.75,-1.669162 z M 688,127.42392 c -21.68697,-5.69562 -39.95317,-24.12208 -45.48497,-45.884019 -1.94499,-7.651567 -1.94499,-23.428235 0,-31.079802 5.5889,-21.98659 23.95848,-40.356167 45.94507,-45.9450666 7.65157,-1.9449965 23.42823,-1.9449965 31.0798,0 21.98659,5.5888996 40.35617,23.9584766 45.94507,45.9450666 1.94499,7.651567 1.94499,23.428235 0,31.079802 -5.5889,21.986589 -23.95848,40.356169 -45.94507,45.945069 -7.49814,1.90599 -24.17297,1.87372 -31.5399,-0.0611 z m 29.0685,-19.01218 C 730.38984,104.51637 742.48293,92.420354 746.40465,79.068499 749.56755,68.300146 747.90304,52.600902 742.68653,44 739.47515,38.705125 732.35858,31.434761 727.15161,28.129367 c -12.99848,-8.251462 -33.30474,-8.251462 -46.30322,0 C 675.64142,31.434761 668.52485,38.705125 665.31347,44 c -7.054,11.63053 -7.05082,32.400402 0.007,44 5.57119,9.156653 15.34192,17.14515 24.58874,20.10362 7.12426,2.27936 19.92181,2.42455 27.15956,0.30812 z"
         id="path8" />
      <path
         style="fill:#f6c1b9"
         d="M 32.998008,97.498007 1.507922,65.996015 33.253961,34.249976 65,2.503937 96.746039,34.249976 128.49208,65.996015 97.001992,97.498007 C 79.682444,114.8241 65.281548,129 65,129 64.718452,129 50.317556,114.8241 32.998008,97.498007 Z m 43.589937,-7.64435 c 5.074575,-2.385332 10.665976,-8.215531 13.025103,-13.581381 2.494858,-5.67457 2.242751,-15.690465 -0.540992,-21.492955 -2.602838,-5.425407 -8.337653,-10.990913 -13.79978,-13.392369 -4.949672,-2.176153 -15.59488,-2.176153 -20.544552,0 -17.709016,7.785873 -21.751757,31.324212 -7.579103,44.128354 8.330168,7.525805 19.238473,9.133317 29.439324,4.338351 z M 62.5,85.531065 C 61.95,85.335197 60.270753,84.904078 58.76834,84.573022 55.326706,83.81466 49.397088,78.664641 47.287413,74.601556 45.345942,70.862419 45.158333,61.47567 46.95552,57.995678 50.756575,50.635483 56.938362,46.8 65,46.8 c 8.010936,0 14.252418,3.843634 17.977814,11.07111 1.701766,3.301523 1.530216,13.251436 -0.288538,16.735171 -1.666192,3.191512 -6.08466,7.593693 -9.189276,9.155403 -2.274403,1.14409 -9.494618,2.305481 -11,1.769381 z m 140.13847,41.941995 c -22.56531,-5.68741 -40.88124,-24.34251 -46.21765,-47.073509 -2.38242,-10.148154 -1.5531,-25.567236 1.90274,-35.376981 6.35839,-18.048861 21.80143,-33.210305 39.84886,-39.1222259 10.5824,-3.4665465 29.07276,-3.4665465 39.65516,0 18.32976,6.0044079 34.25547,21.8973069 40.2328,40.1499219 C 280.11911,52.336895 280.5,55.451589 280.5,66 c 0,10.49313 -0.38537,13.676439 -2.40034,19.827575 -5.90998,18.041485 -21.05243,33.469035 -39.12223,39.858795 -9.33806,3.30208 -26.9005,4.16558 -36.33896,1.78669 z m 22.92787,-17.55685 C 244.27243,106.49952 258.72592,91.768336 262.03194,72.75 267.04023,43.93911 240.06089,16.959774 211.25,21.968064 191.87149,25.336693 177.33669,39.871494 173.96806,59.25 c -3.93635,22.644415 12.62024,46.20368 35.5421,50.57478 6.92901,1.32133 9.25023,1.33455 16.05618,0.0914 z M 299,65.946655 V 2.89331 L 329.75,3.196655 360.5,3.5 l 5.71807,2.6800561 c 7.98459,3.7423781 15.13706,10.7645979 19.04065,18.6939149 3.03246,6.159803 3.24128,7.26179 3.24128,17.105002 0,9.277871 -0.31137,11.185083 -2.63517,16.141038 -1.44934,3.091006 -4.3142,7.478506 -6.36636,9.75 L 375.76728,72 l 3.73119,4.129989 c 2.05216,2.271494 4.91702,6.658994 6.36636,9.75 2.50406,5.340399 2.65148,6.552879 2.96308,24.370011 l 0.32792,18.75 h -8.99188 -8.99187 l -0.33604,-16.25 c -0.3241,-15.672657 -0.43469,-16.417818 -3.11262,-20.973422 -1.80051,-3.06297 -4.43703,-5.699489 -7.5,-7.5 -4.6553,-2.736534 -5.00104,-2.781286 -23.97342,-3.10304 L 317,80.847075 V 104.92354 129 h -9 -9 z m 61.22342,-6.223233 c 13.70395,-8.05562 13.70395,-27.391224 0,-35.446844 -4.6553,-2.736534 -5.00104,-2.781286 -23.97342,-3.10304 L 317,20.847075 V 42 63.152925 l 19.25,-0.326463 c 18.97238,-0.321754 19.31812,-0.366506 23.97342,-3.10304 z m 94.41505,67.749638 C 432.07316,121.78565 413.75723,103.13055 408.42082,80.399551 406.0384,70.251397 406.86772,54.832315 410.32356,45.02257 416.68195,26.973709 432.12499,11.812265 450.17242,5.9003441 456.32356,3.8853743 459.50687,3.5 470,3.5 c 10.51513,0 13.67119,0.383608 19.87571,2.41582 7.20297,2.3592444 19.90269,9.828749 23.35051,13.733908 1.66536,1.886262 1.50067,2.178728 -4.6712,8.295745 l -6.39742,6.340552 -4.9163,-3.608893 c -18.57664,-13.636506 -42.68082,-12.020219 -58.6326,3.931564 -17.51714,17.51714 -17.51714,45.265468 0,62.782608 15.95178,15.951786 40.05596,17.568066 58.6326,3.931566 l 4.9163,-3.608895 6.4039,6.346975 6.4039,6.34698 -2.1476,2.28601 c -3.80761,4.05302 -14.50626,10.39695 -22.01101,13.05177 -9.16272,3.24133 -26.81633,4.08444 -36.16832,1.72735 z M 533,65.946655 V 2.89331 L 563.75,3.196655 594.5,3.5 l 5.71807,2.6800561 c 7.98459,3.7423781 15.13706,10.7645979 19.04065,18.6939149 3.03246,6.159803 3.24128,7.26179 3.24128,17.105002 0,9.277871 -0.31137,11.185083 -2.63517,16.141038 -1.44934,3.091006 -4.3142,7.478506 -6.36636,9.75 L 609.76728,72 l 3.73119,4.129989 c 2.05216,2.271494 4.91702,6.658994 6.36636,9.75 2.50406,5.340399 2.65148,6.552879 2.96308,24.370011 l 0.32792,18.75 h -8.99188 -8.99187 l -0.33604,-16.25 c -0.3241,-15.672657 -0.43469,-16.417818 -3.11262,-20.973422 -1.80051,-3.06297 -4.43703,-5.699489 -7.5,-7.5 -4.6553,-2.736534 -5.00104,-2.781286 -23.97342,-3.10304 L 551,80.847075 V 104.92354 129 h -9 -9 z m 61.22342,-6.223233 c 3.0652,-1.801821 5.69233,-4.429892 7.48334,-7.486011 5.75576,-9.821465 2.46634,-22.112096 -7.48334,-27.960833 -4.6553,-2.736534 -5.00104,-2.781286 -23.97342,-3.10304 L 551,20.847075 V 42 63.152925 l 19.25,-0.326463 c 18.97238,-0.321754 19.31812,-0.366506 23.97342,-3.10304 z m 94.41505,67.749638 c -22.56531,-5.68741 -40.88124,-24.34251 -46.21765,-47.073509 -2.38242,-10.148154 -1.5531,-25.567236 1.90274,-35.376981 6.35839,-18.048861 21.80143,-33.210305 39.84886,-39.1222259 10.5824,-3.4665465 29.07276,-3.4665465 39.65516,0 18.32976,6.0044079 34.25547,21.8973069 40.2328,40.1499219 C 766.11911,52.336895 766.5,55.451589 766.5,66 c 0,10.49313 -0.38537,13.676439 -2.40034,19.827575 -5.90998,18.041485 -21.05243,33.469035 -39.12223,39.858795 -9.33806,3.30208 -26.9005,4.16558 -36.33896,1.78669 z m 22.92787,-17.55685 C 730.27243,106.49952 744.72592,91.768336 748.03194,72.75 753.04023,43.93911 726.06089,16.959774 697.25,21.968064 677.87149,25.336693 663.33669,39.871494 659.96806,59.25 c -3.93635,22.644415 12.62024,46.20368 35.5421,50.57478 6.92901,1.32133 9.25023,1.33455 16.05618,0.0914 z"
         id="path7" />
      <path
         style="fill:#f2a79c"
         d="M 32.998008,97.498007 1.507922,65.996015 33.253961,34.249976 65,2.503937 96.746039,34.249976 128.49208,65.996015 97.001992,97.498007 C 79.682444,114.8241 65.281548,129 65,129 64.718452,129 50.317556,114.8241 32.998008,97.498007 Z M 72.96637,91.417347 C 83.0714,88.416475 92,76.493299 92,66 92,52.505299 78.494701,39 65,39 51.505299,39 38,52.505299 38,66 c 0,13.430319 13.015123,26.622701 26.568499,26.930348 1.687674,0.03831 5.466716,-0.642542 8.397871,-1.513001 z M 59.115476,84.530663 C 52.958197,82.565876 48.246013,77.65407 46.388536,71.264574 c -1.38106,-4.75068 -1.37642,-5.79443 0.04754,-10.69267 4.774712,-16.424431 27.435316,-18.671528 35.767814,-3.54685 1.481241,2.688665 1.837791,4.989524 1.575762,10.168578 -0.2869,5.670647 -0.802453,7.275357 -3.37339,10.5 -5.302782,6.651107 -13.561885,9.303322 -21.290783,6.837031 z M 203,127.42901 C 174.6633,120.0132 155,94.848679 155,66 155,31.174758 183.17476,3 218,3 c 34.82524,0 63,28.174758 63,63 0,29.066218 -19.83863,54.23906 -48.4601,61.49006 -7.41875,1.87948 -22.24197,1.84884 -29.5399,-0.061 z m 23.11351,-17.43429 c 23.2895,-4.34652 39.8866,-27.673852 36.0713,-50.698444 -4.03001,-24.320337 -27.22284,-41.402621 -50.88853,-37.481088 -24.32034,4.030011 -41.40262,27.222839 -37.48109,50.888536 4.14278,25.000868 27.7929,41.864446 52.29832,37.290996 z M 299,65.946655 V 2.89331 L 329.75,3.196655 360.5,3.5 l 6,2.9385716 C 374.15715,10.188753 381.81125,17.842849 385.56143,25.5 388.24533,30.98001 388.5,32.409982 388.5,42 c 0,9.405495 -0.28374,11.077197 -2.72198,16.037272 -1.4971,3.045499 -4.34466,7.432999 -6.32793,9.75 L 375.84415,72 l 3.60594,4.212728 c 1.98327,2.317001 4.83008,6.704501 6.32624,9.75 2.61901,5.331089 2.73257,6.235437 3.0499,24.287272 l 0.3296,18.75 h -8.99188 -8.99187 l -0.33604,-16.25 C 370.52281,97.603224 370.33027,96.197119 368,92.038702 365.24447,87.121396 360.66187,83.556068 355.11763,82.016032 353.12793,81.463349 343.7375,81.008644 334.25,81.005577 L 317,81 v 24 24 h -9 -9 z m 56.11763,-3.962687 C 364.42981,59.3973 370.44887,51.551577 370.44887,42 c 0,-9.551577 -6.01906,-17.3973 -15.33124,-19.983968 C 353.12793,21.463349 343.7375,21.008644 334.25,21.005577 L 317,21 v 21 21 l 17.25,-0.0056 c 9.4875,-0.0031 18.87793,-0.457772 20.86763,-1.010455 z M 455,127.42901 C 426.6633,120.0132 407,94.848679 407,66 c 0,-29.066218 19.83863,-54.239062 48.4601,-61.4900611 7.59526,-1.9241933 21.20609,-1.912652 29.42586,0.024952 7.75347,1.8276848 20.06728,8.1012225 25.92384,13.2074655 l 4.3098,3.757644 -6.4107,6.323338 -6.4107,6.323338 -5.78479,-4.052256 C 481.8877,19.849073 465.70623,18.489245 450,26.185612 c -16.99407,8.327437 -27.24575,28.045952 -24.18481,46.518112 2.35778,14.228781 11.67036,26.97833 24.18481,33.110666 15.70623,7.69637 31.8877,6.33654 46.51341,-3.90881 l 5.78479,-4.052256 6.4107,6.323336 6.4107,6.32334 -4.3098,3.75764 c -5.85656,5.10625 -18.17037,11.37978 -25.92384,13.20747 -7.97475,1.87985 -22.63255,1.86214 -29.88596,-0.0361 z M 533,65.946655 V 2.89331 L 563.75,3.196655 594.5,3.5 l 6,2.9385716 C 608.15715,10.188753 615.81125,17.842849 619.56143,25.5 622.24533,30.98001 622.5,32.409982 622.5,42 c 0,9.405495 -0.28374,11.077197 -2.72198,16.037272 -1.4971,3.045499 -4.34466,7.432999 -6.32793,9.75 L 609.84415,72 l 3.60594,4.212728 c 1.98327,2.317001 4.83008,6.704501 6.32624,9.75 2.61901,5.331089 2.73257,6.235437 3.0499,24.287272 l 0.3296,18.75 h -8.99188 -8.99187 l -0.33604,-16.25 C 604.52281,97.603224 604.33027,96.197119 602,92.038702 599.24447,87.121396 594.66187,83.556068 589.11763,82.016032 587.12793,81.463349 577.7375,81.008644 568.25,81.005577 L 551,81 v 24 24 h -9 -9 z m 56.11763,-3.962687 C 598.42981,59.3973 604.44887,51.551577 604.44887,42 c 0,-9.551577 -6.01906,-17.3973 -15.33124,-19.983968 C 587.12793,21.463349 577.7375,21.008644 568.25,21.005577 L 551,21 v 21 21 l 17.25,-0.0056 c 9.4875,-0.0031 18.87793,-0.457772 20.86763,-1.010455 z M 689,127.42901 C 660.6633,120.0132 641,94.848679 641,66 641,31.174758 669.17476,3 704,3 c 34.82524,0 63,28.174758 63,63 0,29.066218 -19.83863,54.23906 -48.4601,61.49006 -7.41875,1.87948 -22.24197,1.84884 -29.5399,-0.061 z m 23.11351,-17.43429 c 23.2895,-4.34652 39.8866,-27.673852 36.0713,-50.698444 -4.03001,-24.320337 -27.22284,-41.402621 -50.88853,-37.481088 -24.32034,4.030011 -41.40262,27.222839 -37.48109,50.888536 4.14278,25.000868 27.7929,41.864446 52.29832,37.290996 z"
         id="path6" />
      <path
         style="fill:#ee9284"
         d="M 32.998008,97.498007 1.507922,65.996015 33.253961,34.249976 65,2.503937 96.746039,34.249976 128.49208,65.996015 97.001992,97.498007 C 79.682444,114.8241 65.281548,129 65,129 64.718452,129 50.317556,114.8241 32.998008,97.498007 Z M 76.529412,90.217594 C 81.204599,87.80602 87.031777,81.92229 89.619964,77 c 1.312416,-2.495989 1.840334,-5.651451 1.840334,-11 0,-8.498576 -1.463548,-12.16415 -7.320483,-18.334734 C 78.278416,41.489977 73.696452,39.546356 65,39.546356 c -8.94647,0 -13.495391,2.012803 -19.657707,8.698126 -13.480119,14.624203 -6.89406,37.468127 12.651233,43.881143 4.128558,1.354623 14.225735,0.315249 18.535886,-1.908031 z M 56.009453,83.144734 C 54.106813,82.124337 51.209095,79.632601 49.570079,77.607543 47.13076,74.593683 46.517188,72.781347 46.188486,67.619173 45.408862,55.375411 53.05001,47 65,47 c 11.143221,0 19,7.856779 19,19 0,11.246709 -7.845418,19 -19.225764,19 -3.257738,0 -6.640617,-0.716064 -8.764783,-1.855266 z M 204.13086,127.52557 C 174.17819,120.71328 153.52735,93.196897 155.32964,62.5 156.2795,46.321841 162.30379,32.766214 173.535,21.535003 184.76621,10.303792 198.32184,4.2794996 214.5,3.3296393 243.38882,1.6335042 269.48392,19.705672 278.27928,47.5 c 3.14128,9.926787 3.14128,27.073213 0,37 -6.17509,19.51398 -22.05975,35.52618 -41.27928,41.61073 -8.54442,2.70501 -24.22814,3.38011 -32.86914,1.41484 z m 23.06992,-17.65083 C 250.207,104.98949 266.1232,81.83909 262.20096,58.966361 258.93431,39.9167 244.0833,25.065691 225.03364,21.799037 c -29.429,-5.046513 -56.28112,21.805608 -51.2346,51.234602 4.34152,25.317834 28.66008,42.094861 53.40174,36.841101 z M 299,65.934022 V 2.8680441 L 329.25,3.184022 359.5,3.5 l 6.70071,3.174396 c 8.53272,4.042291 15.08866,10.600742 19.11756,19.124892 2.86088,6.052887 3.16778,7.619173 3.1744,16.200712 0.006,8.304871 -0.34204,10.246029 -2.76981,15.430134 -1.52743,3.261574 -4.37006,7.874074 -6.31695,10.25 L 375.8661,72 l 3.53981,4.319866 c 1.94689,2.375926 4.78593,6.988426 6.30899,10.25 2.65175,5.678652 2.78417,6.704072 3.12252,24.180134 l 0.35333,18.25 h -9.01109 -9.01108 l -0.33429,-16.82639 c -0.32651,-16.434645 -0.39851,-16.923359 -3.09283,-20.991461 -1.51719,-2.29079 -4.63279,-5.406415 -6.92355,-6.923611 -4.14387,-2.74454 -4.26562,-2.760188 -23.99146,-3.083599 L 317,80.849878 V 104.92494 129 h -9 -9 z m 61.81791,-6.19256 c 2.29076,-1.517196 5.40636,-4.634333 6.92355,-6.926971 C 370.058,49.313964 370.5,47.581164 370.5,42 c 0,-5.581164 -0.442,-7.313964 -2.75854,-10.814491 -1.51719,-2.292638 -4.63279,-5.409775 -6.92355,-6.926971 -4.14387,-2.74454 -4.26562,-2.760188 -23.99146,-3.083599 L 317,20.849878 V 42 63.150122 l 19.82645,-0.325061 c 19.72584,-0.323411 19.84759,-0.339059 23.99146,-3.083599 z M 456.13086,127.459 C 426.41776,121.01176 405.52693,93.204091 407.32964,62.5 408.2795,46.321841 414.30379,32.766214 425.535,21.535003 444.4698,2.6002105 473.66449,-2.3153919 497.5,9.4180307 505.18311,13.20017 514,19.610873 514,21.415078 c 0,0.631141 -2.66599,3.785696 -5.92441,7.010122 l -5.92441,5.862593 -3.82559,-3.010823 c -18.53408,-14.586734 -43.46054,-13.272457 -59.89081,3.157813 -17.5436,17.543598 -17.5436,45.586836 0,63.130434 16.43027,16.430273 41.35673,17.744543 59.89081,3.157813 l 3.82559,-3.010823 5.92441,5.862593 c 3.25842,3.22443 5.92441,6.41644 5.92441,7.09337 0,1.67358 -11.47296,9.74337 -18.28832,12.86355 -11.39271,5.21575 -26.66089,6.73069 -39.58082,3.92728 z M 533,65.934022 V 2.8680441 L 563.25,3.184022 593.5,3.5 l 6.70071,3.174396 c 8.53272,4.042291 15.08866,10.600742 19.11756,19.124892 2.86088,6.052887 3.16778,7.619173 3.1744,16.200712 0.006,8.304871 -0.34204,10.246029 -2.76981,15.430134 -1.52743,3.261574 -4.37006,7.874074 -6.31695,10.25 L 609.8661,72 l 3.53981,4.319866 c 1.94689,2.375926 4.78593,6.988426 6.30899,10.25 2.65175,5.678652 2.78417,6.704072 3.12252,24.180134 l 0.35333,18.25 h -9.01109 -9.01108 l -0.33429,-16.82639 c -0.32651,-16.434645 -0.39851,-16.923359 -3.09283,-20.991461 -1.51719,-2.29079 -4.63279,-5.406415 -6.92355,-6.923611 -4.14387,-2.74454 -4.26562,-2.760188 -23.99146,-3.083599 L 551,80.849878 V 104.92494 129 h -9 -9 z m 61.81791,-6.19256 c 2.29076,-1.517196 5.40636,-4.634333 6.92355,-6.926971 C 604.058,49.313964 604.5,47.581164 604.5,42 c 0,-5.581164 -0.442,-7.313964 -2.75854,-10.814491 -1.51719,-2.292638 -4.63279,-5.409775 -6.92355,-6.926971 -4.14387,-2.74454 -4.26562,-2.760188 -23.99146,-3.083599 L 551,20.849878 V 42 63.150122 l 19.82645,-0.325061 c 19.72584,-0.323411 19.84759,-0.339059 23.99146,-3.083599 z m 95.31295,67.784108 C 660.17819,120.71328 639.52735,93.196897 641.32964,62.5 642.2795,46.321841 648.30379,32.766214 659.535,21.535003 670.76621,10.303792 684.32184,4.2794996 700.5,3.3296393 729.38882,1.6335042 755.48392,19.705672 764.27928,47.5 c 1.7526,5.538431 2.21511,9.401149 2.21511,18.5 0,9.098851 -0.46251,12.961569 -2.21511,18.5 -6.17509,19.51398 -22.05975,35.52618 -41.27928,41.61073 -8.54442,2.70501 -24.22814,3.38011 -32.86914,1.41484 z m 23.06992,-17.65083 C 736.207,104.98949 752.1232,81.83909 748.20096,58.966361 744.93431,39.9167 730.0833,25.065691 711.03364,21.799037 c -29.429,-5.046513 -56.28112,21.805608 -51.2346,51.234602 4.34152,25.317834 28.66008,42.094861 53.40174,36.841101 z"
         id="path5" />
      <path
         style="fill:#ec8170"
         d="M 204.22484,127.54474 C 174.39615,120.75017 153.593,93.047456 155.31103,62.408199 156.20247,46.510318 162.26662,33.032132 173.64937,21.649374 180.93527,14.363481 188.14289,9.8264224 198.1654,6.2170152 204.61629,3.8938523 207.00606,3.5756023 218,3.5756023 c 10.99394,0 13.38371,0.31825 19.8346,2.6414129 10.02251,3.6094072 17.23013,8.1464658 24.51603,15.4323588 7.28589,7.285894 11.82295,14.493517 15.43235,24.516022 2.32317,6.450896 2.64142,8.840663 2.64142,19.834604 0,10.993941 -0.31825,13.383708 -2.64142,19.834604 -3.6094,10.022505 -8.14646,17.230126 -15.43235,24.516026 -11.82273,11.82272 -25.16883,17.64525 -41.84716,18.25674 -6.37137,0.2336 -12.28188,-0.15222 -16.27863,-1.06263 z m 23.6605,-17.60463 c 7.68964,-1.77278 15.41205,-6.20945 21.62869,-12.426084 18.06313,-18.063136 18.06313,-44.964916 0,-63.028052 -18.06314,-18.063136 -44.96492,-18.063136 -63.02806,0 -18.06325,18.063258 -18.06325,44.985826 0,63.017554 11.28771,11.268002 26.56337,15.856882 41.39937,12.436582 z M 299,65.934022 V 2.8680441 L 329.25,3.184022 359.5,3.5 l 6.70071,3.174396 c 8.52501,4.038638 15.08626,10.599885 19.12489,19.124892 C 388.19848,31.863523 388.5,33.402372 388.5,42 c 0,8.581762 -0.30162,10.128268 -3.12052,16 -1.71628,3.575 -4.6478,8.236928 -6.51448,10.359841 l -3.39397,3.859841 3.43366,3.640159 C 380.7932,77.861928 383.72472,82.425 385.41918,86 c 3.03569,6.404781 3.08588,6.767346 3.42619,24.75 l 0.34538,18.25 h -9.02953 -9.02952 l -0.31585,-16.82741 c -0.30878,-16.450866 -0.37758,-16.920589 -3.07439,-20.991462 -1.51719,-2.290228 -4.63262,-5.405394 -6.92317,-6.92259 -4.14624,-2.746359 -4.25216,-2.759899 -23.99146,-3.066824 L 317,80.883427 V 104.94171 129 h -9 -9 z m 61.81829,-6.19256 c 2.29055,-1.517196 5.40598,-4.634333 6.92317,-6.926971 C 370.058,49.313964 370.5,47.581164 370.5,42 c 0,-5.581164 -0.442,-7.313964 -2.75854,-10.814491 -1.51719,-2.292638 -4.63262,-5.409775 -6.92317,-6.926971 -4.14624,-2.746359 -4.25216,-2.759899 -23.99146,-3.066824 L 317,20.883427 V 42 63.116573 l 19.82683,-0.308287 c 19.7393,-0.306925 19.84522,-0.320465 23.99146,-3.066824 z m 95.40655,67.803278 C 426.39615,120.75017 405.593,93.047456 407.31103,62.408199 c 0.89144,-15.897881 6.95559,-29.376067 18.33834,-40.758825 7.2859,-7.285893 14.49352,-11.8229516 24.51603,-15.4323588 6.48,-2.333646 8.79105,-2.6375633 19.8346,-2.6083735 10.87937,0.028756 13.45098,0.3712414 19.83492,2.6416064 7.81573,2.7795589 15.48005,7.0722329 21.13217,11.8358199 l 3.46709,2.922051 -6.33474,6.391545 -6.33473,6.391545 -5.04672,-3.819722 c -17.72792,-13.41776 -42.19673,-11.520795 -58.23202,4.514487 -18.06313,18.063136 -18.06313,44.964916 0,63.028052 16.03529,16.035284 40.5041,17.932244 58.23202,4.514484 l 5.04672,-3.819719 6.33473,6.391549 6.33474,6.39154 -3.46709,2.92205 c -5.70845,4.81106 -13.35704,9.07433 -21.12902,11.77716 -9.15623,3.18422 -24.14354,4.01072 -33.61323,1.85365 z M 533,65.934022 V 2.8680441 L 563.25,3.184022 593.5,3.5 l 6.70071,3.174396 c 8.52501,4.038638 15.08626,10.599885 19.12489,19.124892 C 622.19848,31.863523 622.5,33.402372 622.5,42 c 0,8.581762 -0.30162,10.128268 -3.12052,16 -1.71628,3.575 -4.6478,8.236928 -6.51448,10.359841 l -3.39397,3.859841 3.43366,3.640159 C 614.7932,77.861928 617.72472,82.425 619.41918,86 c 3.03569,6.404781 3.08588,6.767346 3.42619,24.75 l 0.34538,18.25 h -9.02953 -9.02952 l -0.31585,-16.82741 c -0.30878,-16.450866 -0.37758,-16.920589 -3.07439,-20.991462 -1.51719,-2.290228 -4.63262,-5.405394 -6.92317,-6.92259 -4.14624,-2.746359 -4.25216,-2.759899 -23.99146,-3.066824 L 551,80.883427 V 104.94171 129 h -9 -9 z m 61.81829,-6.19256 c 2.29055,-1.517196 5.40598,-4.634333 6.92317,-6.926971 C 604.058,49.313964 604.5,47.581164 604.5,42 c 0,-5.581164 -0.442,-7.313964 -2.75854,-10.814491 -1.51719,-2.292638 -4.63262,-5.409775 -6.92317,-6.926971 -4.14624,-2.746359 -4.25216,-2.759899 -23.99146,-3.066824 L 551,20.883427 V 42 63.116573 l 19.82683,-0.308287 c 19.7393,-0.306925 19.84522,-0.320465 23.99146,-3.066824 z m 95.40655,67.803278 C 660.39615,120.75017 639.593,93.047456 641.31103,62.408199 642.20247,46.510318 648.26662,33.032132 659.64937,21.649374 666.93527,14.363481 674.14289,9.8264224 684.1654,6.2170152 690.61629,3.8938523 693.00606,3.5756023 704,3.5756023 c 10.99394,0 13.38371,0.31825 19.8346,2.6414129 10.02251,3.6094072 17.23013,8.1464658 24.51603,15.4323588 7.28589,7.285894 11.82295,14.493517 15.43235,24.516022 2.32317,6.450896 2.64142,8.840663 2.64142,19.834604 0,10.993941 -0.31825,13.383708 -2.64142,19.834604 -3.6094,10.022505 -8.14646,17.230126 -15.43235,24.516026 -11.82273,11.82272 -25.16883,17.64525 -41.84716,18.25674 -6.37137,0.2336 -12.28188,-0.15222 -16.27863,-1.06263 z m 23.6605,-17.60463 c 15.92095,-3.67043 30.38434,-18.13382 34.05477,-34.054769 3.42133,-14.840451 -1.17263,-30.145909 -12.42608,-41.399367 -18.06314,-18.063136 -44.96492,-18.063136 -63.02806,0 -11.25345,11.253458 -15.84741,26.558916 -12.42608,41.399367 3.5982,15.607642 17.09884,29.442109 32.94011,33.754629 5.5482,1.5104 15.04377,1.64686 20.88534,0.30014 z M 33.497976,96.997975 2.5080496,65.99595 33.754025,34.749975 65,3.504 96.245975,34.749975 127.49195,65.99595 96.502024,96.997975 C 79.457564,114.04909 65.281654,128 65,128 64.718346,128 50.542436,114.04909 33.497976,96.997975 Z M 78.211561,89.284101 C 87.403294,84.152633 92.760551,73.773943 91.676932,63.197442 90.187301,48.658119 76.811761,37.825753 62.197442,39.323068 47.658119,40.812699 36.825753,54.188239 38.323068,68.802558 c 1.047943,10.228288 9.179143,20.121627 19.041642,23.168219 5.710072,1.763879 15.025202,0.563375 20.846851,-2.686676 z M 56.5,83.334803 C 49.507441,79.640118 46,73.849565 46,66 46,54.072858 54.992681,46.072227 67.091998,47.234818 79.755639,48.451634 87.470392,61.758421 82.461862,73.74552 80.47706,78.495819 78.372575,80.767475 73.789838,83.10641 69.228317,85.434516 60.687443,85.547339 56.5,83.334803 Z"
         id="path4" />
      <path
         style="fill:#e8634f"
         d="m 207.32234,127.96795 c -2.84771,-0.51187 -8.11114,-2.03484 -11.6965,-3.38436 C 177.74937,117.8549 164.89203,104.35427 158.39541,85.490402 156.01568,78.580508 155.64356,75.944904 155.64356,66 c 0,-9.944904 0.37212,-12.580508 2.75185,-19.490402 6.85417,-19.902057 20.21213,-33.260019 40.11419,-40.1141867 6.90989,-2.3797325 9.5455,-2.751854 19.4904,-2.751854 9.9449,0 12.58051,0.3721215 19.4904,2.751854 19.90206,6.8541677 33.26002,20.2121297 40.11419,40.1141867 2.37973,6.909894 2.75185,9.545498 2.75185,19.490402 0,9.944904 -0.37212,12.580508 -2.75185,19.490402 -6.82673,19.822388 -20.37962,33.419948 -39.81194,39.943158 -8.69568,2.91904 -22.11892,4.03553 -30.47031,2.53439 z m 23.5867,-18.86251 c 33.21952,-10.339076 43.0701,-52.512826 17.72274,-75.877206 -24.66966,-22.739695 -63.75466,-12.2113 -73.73722,19.862722 -10.46803,33.633858 22.38063,66.482514 56.01448,56.014484 z M 299,66 V 3 h 27.2899 c 21.43723,0 28.56812,0.3328466 33.25,1.5520008 15.31228,3.9872951 25.69672,15.3132092 28.66255,31.2611722 2.02334,10.879954 -1.85041,24.044669 -9.54806,32.448544 l -3.44031,3.755946 2.94616,3.15387 C 386.56496,84.168816 389,92.826116 389,113.7101 V 129 h -9 -9 l -0.022,-15.75 C 370.95379,95.857988 370.01286,92.08871 364.3761,86.803048 358.86511,81.635332 355.7072,81 335.53212,81 H 317 v 24 24 h -9 -9 z m 59.5,-4.895863 c 2.2,-1.018567 5.21363,-3.146184 6.69695,-4.728038 9.89541,-10.552713 6.53465,-27.354203 -6.69695,-33.480236 -3.43751,-1.591515 -6.63667,-1.855027 -22.75,-1.873901 L 317,21 v 21 21 l 18.75,-0.02196 c 16.11333,-0.01887 19.31249,-0.282386 22.75,-1.873901 z m 100.82234,66.797593 c -2.84771,-0.47545 -8.11114,-1.96862 -11.6965,-3.31814 C 429.74937,117.8549 416.89203,104.35427 410.39541,85.490402 408.01568,78.580508 407.64356,75.944904 407.64356,66 c 0,-9.944904 0.37212,-12.580508 2.75185,-19.490402 6.80212,-19.75091 20.42062,-33.455006 39.61419,-39.8631477 21.19833,-7.07747057 45.3468,-2.3866836 61.38542,11.9239807 l 2.89502,2.583118 -6.26266,6.31883 -6.26267,6.31883 -5.13235,-3.903527 C 482.86983,19.420287 462.9064,18.122532 448.0631,26.730356 c -26.60597,15.429138 -30.96148,51.516773 -8.69488,72.04141 9.63915,8.885064 20.26359,12.738904 33.04042,11.984864 9.66298,-0.57026 17.09498,-3.2224 24.22372,-8.64431 l 5.13235,-3.903529 6.26267,6.318829 6.26266,6.31883 -2.89502,2.58312 c -13.3975,11.95409 -33.572,17.56103 -52.07268,14.47216 z M 533,66 V 3 h 27.2899 c 21.43723,0 28.56812,0.3328466 33.25,1.5520008 15.31228,3.9872951 25.69672,15.3132092 28.66255,31.2611722 2.02334,10.879954 -1.85041,24.044669 -9.54806,32.448544 l -3.44031,3.755946 2.94616,3.15387 C 620.56496,84.168816 623,92.826116 623,113.7101 V 129 h -9 -9 l -0.022,-15.75 C 604.95379,95.857988 604.01286,92.08871 598.3761,86.803048 592.86511,81.635332 589.7072,81 569.53212,81 H 551 v 24 24 h -9 -9 z m 59.5,-4.895863 c 2.2,-1.018567 5.21363,-3.146184 6.69695,-4.728038 9.89541,-10.552713 6.53465,-27.354203 -6.69695,-33.480236 -3.43751,-1.591515 -6.63667,-1.855027 -22.75,-1.873901 L 551,21 v 21 21 l 18.75,-0.02196 c 16.11333,-0.01887 19.31249,-0.282386 22.75,-1.873901 z m 100.82234,66.863813 c -2.84771,-0.51187 -8.11114,-2.03484 -11.6965,-3.38436 C 663.74937,117.8549 650.89203,104.35427 644.39541,85.490402 642.01568,78.580508 641.64356,75.944904 641.64356,66 c 0,-9.944904 0.37212,-12.580508 2.75185,-19.490402 6.85417,-19.902057 20.21213,-33.260019 40.11419,-40.1141867 6.90989,-2.3797325 9.5455,-2.751854 19.4904,-2.751854 9.9449,0 12.58051,0.3721215 19.4904,2.751854 19.90206,6.8541677 33.26002,20.2121297 40.11419,40.1141867 2.37973,6.909894 2.75185,9.545498 2.75185,19.490402 0,9.944904 -0.37212,12.580508 -2.75185,19.490402 -6.82673,19.822388 -20.37962,33.419948 -39.81194,39.943158 -8.69568,2.91904 -22.11892,4.03553 -30.47031,2.53439 z m 23.5867,-18.86251 c 33.21952,-10.339076 43.0701,-52.512826 17.72274,-75.877206 -24.66966,-22.739695 -63.75466,-12.2113 -73.73722,19.862722 -10.46803,33.633858 22.38063,66.482514 56.01448,56.014484 z M 33.497976,96.997975 2.5080496,65.99595 33.754025,34.749975 65,3.504 96.245975,34.749975 127.49195,65.99595 96.502024,96.997975 C 79.457564,114.04909 65.281654,128 65,128 64.718346,128 50.542436,114.04909 33.497976,96.997975 Z m 42.968862,-6.513037 c 5.035616,-2.435542 10.53682,-7.916443 13.066324,-13.0181 C 90.961508,74.586063 91.5,71.446608 91.5,66 91.5,57.349638 89.64154,52.64154 84,47 78.35846,41.35846 73.650362,39.5 65,39.5 c -8.650362,0 -13.35846,1.85846 -19,7.5 -14.179443,14.179443 -8.855745,36.957749 10.453204,44.725724 4.329928,1.741927 15.245953,1.065165 20.013634,-1.240786 z M 56.168273,82.91076 C 43.718004,76.585681 42.583089,57.936657 54.18134,50.261297 c 5.621398,-3.720065 13.217269,-4.21493 19.323581,-1.258915 12.775866,6.184691 14.083834,24.94724 2.283498,32.756333 -5.561854,3.680661 -13.701994,4.15863 -19.620146,1.152045 z"
         id="path3" />
      <path
         style="fill:#e5513a"
         d="M 210.5,128.34779 C 195.51965,125.96483 184.28706,120.32787 173.97959,110.02041 161.37963,97.420451 155.66394,83.683169 155.66394,66 c 0,-17.683169 5.71569,-31.420451 18.31565,-44.020409 C 186.57955,9.3796332 200.31683,3.663936 218,3.663936 c 17.68317,0 31.42045,5.7156972 44.02041,18.315655 12.59996,12.599958 18.31565,26.33724 18.31565,44.020409 0,17.683169 -5.71569,31.420451 -18.31565,44.02041 -8.33313,8.33312 -17.52659,13.77883 -27.68665,16.40008 -6.62134,1.70827 -18.94561,2.70486 -23.83376,1.9273 z m 27.01366,-21.75709 c 9.73778,-4.81267 16.29466,-11.400554 21.17487,-21.274984 C 262.44177,77.721549 262.5,77.426446 262.5,66 262.5,54.573554 262.44177,54.278451 258.68853,46.684284 253.77211,36.736586 247.26341,30.227891 237.31572,25.311472 229.72155,21.558231 229.42645,21.5 218,21.5 c -11.42645,0 -11.72155,0.05823 -19.31572,3.811472 -9.94769,4.916419 -16.45639,11.425114 -21.37281,21.372812 C 173.55823,54.278451 173.5,54.573554 173.5,66 c 0,11.426446 0.0582,11.721549 3.81147,19.315716 4.53571,9.17739 10.95059,15.946324 19.3599,20.428444 8.28461,4.41565 12.22597,5.22963 23.57843,4.86949 8.91626,-0.28286 10.39221,-0.6268 17.26386,-4.02295 z M 299,65.92178 V 2.843559 L 328.75,3.1717795 358.5,3.5 l 6.67961,3.1645209 c 9.27057,4.3920111 15.08966,10.0780021 19.54996,19.1027981 3.40143,6.882328 3.69889,8.178216 3.69763,16.108555 -0.001,7.552688 -0.38664,9.446996 -3.10249,15.247504 -1.70562,3.642857 -4.77879,8.480357 -6.82928,10.75 L 374.76728,72 l 3.72815,4.126622 c 2.05049,2.269643 5.13073,7.107143 6.84499,10.75 3.05861,6.499648 3.12399,6.954962 3.49972,24.373378 l 0.38288,17.75 h -9.04705 -9.04705 L 370.81446,111.58223 370.5,94.164463 l -3,-4.255458 c -1.65,-2.340503 -4.98328,-5.302507 -7.40728,-6.582232 C 355.91874,81.123172 354.66149,81 336.34272,81 H 317 v 24 24 h -9 -9 z m 61.09272,-5.248553 c 2.424,-1.279725 5.75728,-4.243489 7.40728,-6.586142 2.71507,-3.85483 3,-5.002815 3,-12.087085 0,-7.08427 -0.28493,-8.232255 -3,-12.087085 -1.65,-2.342653 -4.98328,-5.306417 -7.40728,-6.586142 C 355.91874,21.123172 354.66149,21 336.34272,21 H 317 v 21 21 h 19.34272 c 18.31877,0 19.57602,-0.123172 23.75,-2.326773 z M 462.5,128.28545 C 448.24675,126.31431 436.29707,120.33788 425.97959,110.02041 413.37963,97.420451 407.66394,83.683169 407.66394,66 c 0,-17.683169 5.71569,-31.420451 18.31565,-44.020409 C 437.30244,10.656742 449.45511,5.0386104 466,3.4783071 480.0047,2.1575622 499.22546,8.4008738 509.81116,17.709105 l 4.31116,3.790895 -6.04766,5.955333 -6.04765,5.955333 -2.76351,-2.236791 C 497.74358,29.943639 493.125,27.263739 489,25.218541 481.65026,21.574501 481.26853,21.5 469.94667,21.5 c -11.36831,0 -11.6768,0.06104 -19.26385,3.811472 -9.94625,4.916637 -16.45556,11.426394 -21.37135,21.372812 C 425.55823,54.278451 425.5,54.573554 425.5,66 c 0,11.426446 0.0582,11.721549 3.81147,19.315716 4.91642,9.947698 11.42512,16.456394 21.37281,21.372814 7.58816,3.75027 7.89749,3.81147 19.26386,3.81147 11.32016,0 11.70229,-0.0746 19.05186,-3.71854 4.125,-2.0452 8.74358,-4.7251 10.2635,-5.95533 l 2.76351,-2.236796 6.04765,5.955336 6.04766,5.95533 -4.31116,3.79089 C 498.27354,124.43617 478.00929,130.4303 462.5,128.28545 Z M 533,65.92178 V 2.843559 L 562.75,3.1717795 592.5,3.5 l 6.67961,3.1645209 c 9.27057,4.3920111 15.08966,10.0780021 19.54996,19.1027981 3.40143,6.882328 3.69889,8.178216 3.69763,16.108555 -0.001,7.552688 -0.38664,9.446996 -3.10249,15.247504 -1.70562,3.642857 -4.77879,8.480357 -6.82928,10.75 L 608.76728,72 l 3.72815,4.126622 c 2.05049,2.269643 5.13073,7.107143 6.84499,10.75 3.05861,6.499648 3.12399,6.954962 3.49972,24.373378 l 0.38288,17.75 h -9.04705 -9.04705 L 604.81446,111.58223 604.5,94.164463 l -3,-4.255458 c -1.65,-2.340503 -4.98328,-5.302507 -7.40728,-6.582232 C 589.91874,81.123172 588.66149,81 570.34272,81 H 551 v 24 24 h -9 -9 z m 61.09272,-5.248553 c 2.424,-1.279725 5.75728,-4.243489 7.40728,-6.586142 2.71507,-3.85483 3,-5.002815 3,-12.087085 0,-7.08427 -0.28493,-8.232255 -3,-12.087085 -1.65,-2.342653 -4.98328,-5.306417 -7.40728,-6.586142 C 589.91874,21.123172 588.66149,21 570.34272,21 H 551 v 21 21 h 19.34272 c 18.31877,0 19.57602,-0.123172 23.75,-2.326773 z M 696.5,128.34779 C 681.51965,125.96483 670.28706,120.32787 659.97959,110.02041 647.37963,97.420451 641.66394,83.683169 641.66394,66 c 0,-17.683169 5.71569,-31.420451 18.31565,-44.020409 C 672.57955,9.3796332 686.31683,3.663936 704,3.663936 c 17.68317,0 31.42045,5.7156972 44.02041,18.315655 12.59996,12.599958 18.31565,26.33724 18.31565,44.020409 0,17.683169 -5.71569,31.420451 -18.31565,44.02041 -8.33313,8.33312 -17.52659,13.77883 -27.68665,16.40008 -6.62134,1.70827 -18.94561,2.70486 -23.83376,1.9273 z m 27.01366,-21.75709 c 9.73778,-4.81267 16.29466,-11.400554 21.17487,-21.274984 C 748.44177,77.721549 748.5,77.426446 748.5,66 748.5,54.573554 748.44177,54.278451 744.68853,46.684284 739.77211,36.736586 733.26341,30.227891 723.31572,25.311472 715.72155,21.558231 715.42645,21.5 704,21.5 c -11.42645,0 -11.72155,0.05823 -19.31572,3.811472 -9.94769,4.916419 -16.45639,11.425114 -21.37281,21.372812 C 659.55823,54.278451 659.5,54.573554 659.5,66 c 0,11.426446 0.0582,11.721549 3.81147,19.315716 4.53571,9.17739 10.95059,15.946324 19.3599,20.428444 8.28461,4.41565 12.22597,5.22963 23.57843,4.86949 8.91626,-0.28286 10.39221,-0.6268 17.26386,-4.02295 z M 33.497976,96.997975 2.5080496,65.99595 33.754025,34.749975 65,3.504 96.245975,34.749975 127.49195,65.99595 96.502024,96.997975 C 79.457564,114.04909 65.281654,128 65,128 64.718346,128 50.542436,114.04909 33.497976,96.997975 Z M 76,90.92146 C 93.068527,83.204151 97.53743,60.69164 84.693422,47.12754 74.437458,36.296581 55.562542,36.296581 45.306578,47.12754 35.213944,57.786012 35.595725,75.720721 46.12754,85.693422 53.799962,92.958531 66.556718,95.191116 76,90.92146 Z M 57.5,83.338367 C 47.456732,78.043696 43.541042,67.923012 47.890043,58.5 c 4.386639,-9.504563 14.681074,-13.795172 23.878428,-9.952272 16.010213,6.689494 16.010213,28.21505 0,34.904544 C 67.070843,85.415067 61.352628,85.369418 57.5,83.338367 Z"
         id="path2" />
    </g>
  </g>
</svg>
