<?xml version="1.0" encoding="UTF-8" standalone="no"?>
<svg
   width="160.106"
   height="37.8077"
   viewBox="0 0 160.106 37.8077"
   version="1.1"
   id="svg1"
   sodipodi:docname="osborne-clarke.svg"
   inkscape:version="1.4.3 (0d15f75, 2025-12-25)"
   xmlns:inkscape="http://www.inkscape.org/namespaces/inkscape"
   xmlns:sodipodi="http://sodipodi.sourceforge.net/DTD/sodipodi-0.dtd"
   xmlns="http://www.w3.org/2000/svg"
   xmlns:svg="http://www.w3.org/2000/svg">
  <sodipodi:namedview
     id="namedview1"
     pagecolor="#ffffff"
     bordercolor="#000000"
     borderopacity="0.25"
     inkscape:showpageshadow="2"
     inkscape:pageopacity="0.0"
     inkscape:pagecheckerboard="0"
     inkscape:deskcolor="#d1d1d1"
     inkscape:zoom="1.95"
     inkscape:cx="80"
     inkscape:cy="19.230769"
     inkscape:current-layer="Layer_2" />
  <defs
     id="defs1">
    <style
       id="style1">.cls-1,.cls-3{fill:#fff;}.cls-2{fill:#fb5a17;}.cls-3{fill-rule:evenodd;}</style>
  </defs>
  <g
     id="Layer_2"
     data-name="Layer 2">
    <g
       id="Layer_1-2"
       data-name="Layer 1">
      <path
         id="Path_8"
         data-name="Path 8"
         class="cls-1"
         d="M37.8,18.9A18.9,18.9,0,1,1,18.9,0h0A18.9139,18.9139,0,0,1,37.8,18.9"
         style="fill:#003145;fill-opacity:1" />
      <path
         id="Path_9"
         data-name="Path 9"
         class="cls-2"
         d="M59.742,21.073a2.1725,2.1725,0,0,1,0-4.345h.978V0h-.978a18.9,18.9,0,0,0,0,37.8h.978V21.073Z" />
      <path
         id="Path_10"
         data-name="Path 10"
         class="cls-1"
         d="M85.268,10.753a5.215,5.215,0,0,0-10.428-.2042q-.0019.1021,0,.2042a5.215,5.215,0,0,0,10.428.2042q.0019-.1022,0-.2042m3.259,0A8.473,8.473,0,1,1,79.9457,2.39c.0364,0,.0729-.0007.1093-.0007A8.2539,8.2539,0,0,1,88.5258,10.42q.0045.1664.0022.3327M93.959,18.9a11.0922,11.0922,0,0,1-4.345-.978l.434-2.5a8.059,8.059,0,0,0,3.8,1.086c1.086,0,1.955-.326,1.955-1.086,0-1.955-6.083-.652-6.083-5.105,0-1.738,1.3-3.585,4.779-3.585a9.7178,9.7178,0,0,1,3.693.76v2.5a6.62,6.62,0,0,0-3.476-.869c-1.086,0-1.629.434-1.629.869,0,1.955,5.866.652,5.866,5.105,0,1.629-1.086,3.8-5,3.8m12.6-9.776a2.765,2.765,0,0,0-3.0306,2.4711q-.0069.0678-.01.1359v4.128a5.6644,5.6644,0,0,0,2.5.543c2.5,0,3.693-1.629,3.693-3.8s-1.086-3.476-3.15-3.476m-.543,9.776a11.7786,11.7786,0,0,1-5.431-1.3V2.715h2.933V7.929a5.1249,5.1249,0,0,1,3.476-1.3c3.15,0,5.648,1.847,5.648,5.974,0,4.236-3.15,6.3-6.626,6.3m17.27-6.086a3.26,3.26,0,1,0-6.517-.1978q-.003.0989,0,.1978a3.26,3.26,0,0,0,6.517.1978q.003-.0988,0-.1978m-9.45,0a5.991,5.991,0,0,1,5.7841-6.191q.2034-.0069.4069,0a6.055,6.055,0,0,1,6.191,5.9159q.0032.1375,0,.2751a5.991,5.991,0,0,1-5.7841,6.191q-.2034.0069-.4069,0a6.12,6.12,0,0,1-6.191-6.0482q-.0009-.0714,0-.1428m16.95-2.281v8.147h-2.933V6.951h2.5l.109,1.086a6.831,6.831,0,0,1,4.019-1.3l-.543,2.824a5.7,5.7,0,0,0-3.15.978m13.035.652a1.891,1.891,0,0,0-1.9267-1.8546q-.0687.0014-.1373.0076a7.1929,7.1929,0,0,0-2.933.869v8.364h-2.94V6.951h2.5l.109,1.086a6.75,6.75,0,0,1,3.91-1.3c2.172,0,4.453.652,4.453,4.671v7.381h-2.933c-.105-.107-.105-7.6-.105-7.6Zm7.386.217h6.077a2.9589,2.9589,0,0,0-2.933-2.281,3.3281,3.3281,0,0,0-3.15,2.281m3.041-4.779c3.91,0,5.866,2.933,5.866,6.083v.869h-9.124c.326,1.629,1.629,2.824,3.91,2.824a8.3,8.3,0,0,0,4.019-1.195l.978,2.281a9.5712,9.5712,0,0,1-5.322,1.521c-4.454,0-6.517-2.824-6.517-6.083a6.145,6.145,0,0,1,5.9879-6.2982q.1016-.0025.2031-.0018M86.898,34.215A7.6761,7.6761,0,0,1,80.055,37.8a8.365,8.365,0,1,1-.2586-16.728q.1293-.002.2586,0a7.77,7.77,0,0,1,6.735,3.476l-2.172,1.955a4.7809,4.7809,0,0,0-4.453-2.5,4.9808,4.9808,0,0,0-5.214,5.322,5.307,5.307,0,0,0,9.667,3.041l2.281,1.847Z"
         style="fill:#003145;fill-opacity:1" />
      <path
         id="Path_11"
         data-name="Path 11"
         class="cls-3"
         d="M88.527,21.398H91.46V37.365H88.527Z"
         style="fill:#003145;fill-opacity:1" />
      <path
         id="Path_12"
         data-name="Path 12"
         class="cls-1"
         d="M99.063,35.193a2.847,2.847,0,0,0,3.041-3.041V28.893a5.5649,5.5649,0,0,0-2.933-.978c-2.39,0-3.259,1.955-3.259,3.8,0,1.738.978,3.476,3.15,3.476m-.217-9.885a5.8906,5.8906,0,0,1,3.585,1.195l.109-.869h2.5V37.365h-2.935v-.977a4.8931,4.8931,0,0,1-3.367,1.195c-3.15,0-5.757-1.847-5.757-5.974a6.0171,6.0171,0,0,1,5.7255-6.295q.07-.0033.1405-.005m11.188,3.91v8.147h-2.933V25.634h2.5l.109,1.086a6.8317,6.8317,0,0,1,4.019-1.3l-.543,2.824a6,6,0,0,0-3.15.978m7.929,8.147H115.03V21.398h2.933v9.233l4.453-5.105h3.476l-4.671,5.322,5.54,6.517h-3.91l-4.888-5.867v5.866Z"
         style="fill:#003145;fill-opacity:1" />
      <path
         id="Path_13"
         data-name="Path 13"
         class="cls-1"
         d="M128.608,30.088h6.083a2.9589,2.9589,0,0,0-2.933-2.279,3.328,3.328,0,0,0-3.15,2.281m3.041-4.779c3.91,0,5.866,2.933,5.866,6.083v.869h-9.124c.326,1.629,1.629,2.824,3.91,2.824a8.3,8.3,0,0,0,4.019-1.195l.978,2.281a9.5712,9.5712,0,0,1-5.322,1.521c-4.453,0-6.517-2.824-6.517-6.083a6.0811,6.0811,0,0,1,5.857-6.2971q.167-.006.334-.0029"
         style="fill:#003145;fill-opacity:1" />
    </g>
  </g>
</svg>
