<?xml version="1.0" encoding="UTF-8" standalone="no"?>
<!-- Created with Inkscape (http://www.inkscape.org/) -->

<svg
   version="1.1"
   id="svg1"
   width="930"
   height="294"
   viewBox="0 0 930 294"
   sodipodi:docname="osln.svg"
   inkscape:version="1.4.3 (0d15f75, 2025-12-25)"
   xmlns:inkscape="http://www.inkscape.org/namespaces/inkscape"
   xmlns:sodipodi="http://sodipodi.sourceforge.net/DTD/sodipodi-0.dtd"
   xmlns="http://www.w3.org/2000/svg"
   xmlns:svg="http://www.w3.org/2000/svg">
  <defs
     id="defs1" />
  <sodipodi:namedview
     id="namedview1"
     pagecolor="#ffffff"
     bordercolor="#000000"
     borderopacity="0.25"
     inkscape:showpageshadow="2"
     inkscape:pageopacity="0.0"
     inkscape:pagecheckerboard="0"
     inkscape:deskcolor="#d1d1d1"
     inkscape:zoom="0.35"
     inkscape:cx="464.28571"
     inkscape:cy="144.28571"
     inkscape:current-layer="g1" />
  <g
     inkscape:groupmode="layer"
     inkscape:label="Image"
     id="g1">
    <g
       id="g2">
      <path
         style="fill:#a0cfa0"
         d="M 83.5,291.41186 C 73.582723,288.72141 59.003334,282.09222 50.192518,276.26707 26.426639,260.5546 9.3801,232.21477 2.0453476,196.22252 0.19661486,187.15064 0,182.52892 0,148.14368 0,113.93991 0.20640031,109.03199 2.0456334,99.501298 7.4986072,71.244631 18.790752,48.43281 35.849123,31.213195 48.481212,18.461702 62.9606,9.7348057 82,3.3975233 90.430092,0.59155927 90.74187,0.56538671 119.90845,0.21525514 152.59411,-0.17712149 155.77641,0.21616436 171.69312,6.6150891 205.64916,20.266284 232.87731,53.117518 242.87729,92.5 c 4.17887,16.45747 5.32651,25.8119 5.85726,47.74263 1.39481,57.63301 -11.23658,95.73317 -41.38592,124.83271 -13.2863,12.82366 -27.71142,21.14066 -45.716,26.35819 -8.66796,2.51187 -9.49749,2.56491 -38.9945,2.4932 C 93.929952,293.85693 92.07298,293.73761 83.5,291.41186 Z m 66.48367,-34.35753 c 12.14514,-3.5555 20.55447,-8.54422 29.54928,-17.52971 12.48166,-12.46872 20.07134,-29.16535 24.62319,-54.16887 2.99136,-16.43168 3.24914,-57.60825 0.4561,-72.85575 C 199.9884,87.257931 192.67593,71.102998 179.54755,57.126287 165.70055,42.384516 148.21552,35.700299 123.5,35.700299 c -28.716598,0 -47.060634,8.676386 -63.34343,29.96026 -7.810795,10.209793 -14.475867,27.831577 -17.900657,47.327551 -2.61389,14.87983 -2.314009,56.59877 0.517776,72.03217 4.730954,25.78399 12.064314,41.99304 24.654594,54.49448 9.177936,9.11317 17.922501,14.24345 29.616784,17.37565 11.073133,2.96583 11.134483,2.97144 28.954933,2.65124 13.41825,-0.2411 17.89775,-0.70567 23.98367,-2.48732 z M 322.5,293.33327 c -10.11775,-2.19921 -22.25765,-5.69356 -26.87581,-7.73593 L 290,283.11006 v -19.66202 c 0,-18.35039 0.11674,-19.611 1.75,-18.89729 6.89768,3.01422 31.60337,10.76225 40.25,12.62294 14.19068,3.05373 48.70903,3.37278 58.95335,0.54491 8.73647,-2.41165 14.45205,-5.39324 20.15871,-10.51599 12.27805,-11.02176 15.30166,-33.4876 6.84604,-50.86706 -1.64955,-3.39044 -4.51465,-7.49504 -6.36689,-9.12132 C 407.32735,183.47051 393.34854,175.92931 376,168.0137 340.17885,151.66961 329.67287,145.48537 316.7441,133.1333 303.44487,120.42729 296.45191,106.43783 293.93323,87.5 292.52262,76.89366 293.25692,61.091999 295.55645,52.569541 300.69679,33.518589 314.15187,18.042564 333.5,8.9269167 347.6266,2.2713329 354.84175,0.86359843 377.80833,0.28200993 400.13593,-0.28339784 410.94209,0.65955308 427.17257,4.5895604 437.4254,7.0721548 457.52081,14.415645 458.53,16.048543 459.07194,16.925425 446.59914,47.854569 445.19172,49.123815 444.81128,49.466914 440,48.026274 434.5,45.922393 c -26.46749,-10.124447 -58.69801,-13.35048 -75.20283,-7.52724 -10.79091,3.807253 -18.5743,10.50781 -22.56901,19.429177 -2.61281,5.835178 -3.47798,19.77225 -1.80762,29.119016 1.91759,10.73018 5.49761,16.699574 13.08566,21.819284 6.48963,4.3786 37.03977,19.9041 59.39641,30.18509 31.78453,14.61654 48.53235,32.38809 54.09677,57.40352 2.58023,11.59968 1.72571,33.22515 -1.73135,43.81541 -4.04181,12.3816 -9.06057,20.33795 -19.16496,30.38264 -7.86484,7.81836 -10.53132,9.75141 -19.60307,14.2111 -18.0195,8.85842 -20.71264,9.25835 -61.43834,9.12361 C 340.27775,293.8202 323.6,293.57237 322.5,293.33327 Z M 517,147.5 V 2 h 20 20 V 129 256 H 613.5 670 V 274.5 293 H 593.5 517 Z M 713.24664,147.75 713.5,2.5 h 22.9697 22.96969 l 67.91089,115.28609 c 37.35098,63.40734 68.04761,115.14935 68.21473,114.98223 0.16712,-0.16712 -0.20211,-8.17086 -0.82052,-17.78609 C 894.04731,204.14215 893.5973,160.45613 893.56006,100 L 893.5,2.5 911.75,2.2274413 930,1.9548826 V 147.47744 293 H 908.11577 886.23154 L 817.43357,177.51553 c -37.83888,-63.51646 -68.85601,-115.378958 -68.92695,-115.25 -0.071,0.128959 0.2388,5.63447 0.68832,12.23447 0.44952,6.6 1.08167,58.4625 1.40477,115.25 L 751.18718,293 h -19.09695 -19.09694 z"
         id="path8" />
      <path
         style="fill:#a8d200"
         d="M 85.382063,291.57721 C 39.241555,279.48337 10.510554,245.17788 1.5269928,191.45228 0.10029871,182.92003 -0.08611265,175.69493 0.275945,142.96304 0.7436944,100.67607 0.99677123,98.574132 8.1578004,77.5 20.065498,42.456938 45.128238,16.370805 77.5,5.3263336 91.796631,0.4486648 95.623759,0 122.93383,0 c 24.04083,0 26.46657,0.16662389 35.39376,2.4311905 18.09651,4.5905565 32.95345,13.0349575 47.50436,27.0005705 25.33724,24.318068 38.2385,53.505391 42.2427,95.568239 1.43671,15.09225 0.67498,44.33616 -1.52072,58.38252 C 237.94046,238.48466 209.51557,275.4016 164,290.5998 l -8.5,2.83825 -30.5,0.26452 c -29.395227,0.25495 -30.830271,0.17796 -39.617937,-2.12536 z M 147,257.95701 c 31.65842,-7.59459 49.81369,-30.62996 57.50091,-72.95701 2.31432,-12.74306 3.16765,-48.25796 1.52102,-63.30378 C 200.92157,75.092555 180.38615,46.494858 145.5,37.413147 134.74646,34.61374 111.27719,34.821143 100.16342,37.813795 66.383185,46.909944 46.001365,75.796766 40.978073,121.69622 c -1.570312,14.34845 -0.773761,50.41134 1.387858,62.8336 8.083663,46.4547 29.288088,70.02373 67.903049,75.47521 9.11829,1.28728 26.97897,0.29142 36.73102,-2.04802 z m 172.93302,34.54588 c -8.46188,-1.68695 -19.5036,-4.98305 -25.33695,-7.56342 L 290,282.90641 V 263.4678 244.02918 l 5.25,2.10022 c 36.02643,14.41204 74.10795,18.56347 99.19784,10.814 12.50062,-3.86105 22.41719,-12.6556 26.14004,-23.18242 3.72716,-10.53897 2.7496,-26.90736 -2.2381,-37.47489 -4.68438,-9.9249 -9.97649,-13.14115 -63.48459,-38.5824 C 310.68236,136.69628 293.8035,113.73244 293.70889,74.5 293.65273,51.206139 298.65287,38.068645 312.99164,23.836081 320.46258,16.420474 323.2172,14.44326 332.1101,10.11322 349.12081,1.8305402 356.23096,0.50248145 383.5,0.51443471 c 19.96728,0.008753 24.4981,0.3119403 34.36152,2.29935969 18.7248,3.7729352 41.82856,12.0382646 40.78654,14.5913166 C 458.40228,18.0073 455.62906,24.575 452.48535,32 c -3.14372,7.425 -6.0927,14.48582 -6.55331,15.690711 l -0.83746,2.190712 -8.79729,-3.560509 c -25.88645,-10.476969 -58.117,-14.017952 -76.34575,-8.387665 -17.85241,5.514048 -26.32854,17.617668 -26.18233,37.387459 0.11114,15.02764 3.90114,25.909802 10.9378,31.405502 7.75709,6.05835 30.72858,18.13341 53.79299,28.27648 39.99463,17.58851 57.37923,34.9609 63.06484,63.02053 2.02842,10.01068 1.53251,29.06281 -1.00151,38.47678 -6.2284,23.13867 -22.94584,41.69359 -46.06333,51.12635 -14.53907,5.93246 -18.45053,6.38178 -54.66661,6.27968 -23.11012,-0.0651 -35.34747,-0.49548 -39.90037,-1.40314 z M 517,148 V 3 h 20 20 v 126.49167 126.49168 l 56.25,0.25832 56.25,0.25833 0.27256,18.25 0.27256,18.25 H 593.52256 517 Z m 197,0 V 3 l 22.75,0.014579 22.75,0.014579 67.96416,115.4379312 c 37.38029,63.49086 68.13442,115.26767 68.34251,115.05957 0.2081,-0.20809 -0.11327,-9.69732 -0.71416,-21.08717 C 894.45652,200.38404 894,152.29928 894,97.365341 V 3 h 18 18 v 145 145 l -21.75,-0.008 -21.75,-0.008 -69,-115.89453 C 779.55,113.34773 748.37309,61.31568 748.21798,61.462948 c -0.15511,0.147268 0.23172,8.31585 0.85963,18.152406 0.6551,10.262594 1.34823,59.543596 1.62639,115.634646 L 751.18874,293 H 732.59437 714 Z"
         id="path7" />
      <path
         style="fill:#60af60"
         d="M 85.382063,291.57721 C 39.241555,279.48337 10.510554,245.17788 1.5269928,191.45228 0.10029871,182.92003 -0.08611265,175.69493 0.275945,142.96304 0.7436944,100.67607 0.99677123,98.574132 8.1578004,77.5 20.065498,42.456938 45.128238,16.370805 77.5,5.3263336 91.796631,0.4486648 95.623759,0 122.93383,0 c 24.04083,0 26.46657,0.16662389 35.39376,2.4311905 18.09651,4.5905565 32.95345,13.0349575 47.50436,27.0005705 25.33724,24.318068 38.2385,53.505391 42.2427,95.568239 1.43671,15.09225 0.67498,44.33616 -1.52072,58.38252 C 237.94046,238.48466 209.51557,275.4016 164,290.5998 l -8.5,2.83825 -30.5,0.26452 c -29.395227,0.25495 -30.830271,0.17796 -39.617937,-2.12536 z M 136.30186,290.944 c 20.497,-1.79818 38.35957,-7.68235 53.38965,-17.58728 8.26237,-5.44495 23.30453,-20.26391 29.11771,-28.68563 C 236.33578,219.27981 244,189.71581 244,147.5 244,110.10648 237.59574,81.76835 223.95661,58.810296 219.18033,50.770626 207.05121,36.001018 200.21802,29.903846 192.81024,23.293976 178.24079,14.242962 169.7074,10.949664 153.56412,4.7194799 146.53413,3.5795154 124,3.5378785 101.73741,3.4967432 95.623726,4.289474 80.553396,9.1713804 68.870126,12.956077 57.692246,18.985258 48.037664,26.709878 22.856145,46.857584 8.3613574,77.502595 3.9114146,120.002 2.3539497,134.87664 3.2573902,175.33886 5.429674,188 11.055576,220.79053 20.896184,241.89618 39,260 c 21.041522,21.04152 44.821209,30.22185 82.5,31.84975 1.65,0.0713 8.31084,-0.3363 14.80186,-0.90575 z M 103,263.47823 C 86.33754,260.05898 74.6386,253.87417 63.5,242.596 48.178374,227.08238 39.135687,203.34183 36.038904,170.5 31.84243,125.99579 39.301507,86.731569 56.58009,62.372191 66.118736,48.924589 82.586139,37.568695 98.5,33.464289 c 13.85863,-3.574333 36.09978,-3.572671 50,0.0037 9.53469,2.453195 23.29027,9.734915 30.18216,15.97738 20.98671,19.009136 31.40976,47.141814 32.9944,89.054596 0.97748,25.85406 -2.04496,51.40357 -8.29312,70.10406 -10.42902,31.21357 -30.10367,49.17633 -60.22141,54.98154 -9.12688,1.75921 -31.3555,1.69978 -40.16203,-0.10737 z m 44,-5.52122 c 31.65842,-7.59459 49.81369,-30.62996 57.50091,-72.95701 2.31432,-12.74306 3.16765,-48.25796 1.52102,-63.30378 C 200.92157,75.092555 180.38615,46.494858 145.5,37.413147 134.74646,34.61374 111.27719,34.821143 100.16342,37.813795 66.383185,46.909944 46.001365,75.796766 40.978073,121.69622 c -1.570312,14.34845 -0.773761,50.41134 1.387858,62.8336 8.083663,46.4547 29.288088,70.02373 67.903049,75.47521 9.11829,1.28728 26.97897,0.29142 36.73102,-2.04802 z m 172.93302,34.54588 c -8.46188,-1.68695 -19.5036,-4.98305 -25.33695,-7.56342 L 290,282.90641 V 263.4678 244.02918 l 5.25,2.10022 c 36.02643,14.41204 74.10795,18.56347 99.19784,10.814 12.50062,-3.86105 22.41719,-12.6556 26.14004,-23.18242 3.72716,-10.53897 2.7496,-26.90736 -2.2381,-37.47489 -4.68438,-9.9249 -9.97649,-13.14115 -63.48459,-38.5824 C 310.68236,136.69628 293.8035,113.73244 293.70889,74.5 293.65273,51.206139 298.65287,38.068645 312.99164,23.836081 320.46258,16.420474 323.2172,14.44326 332.1101,10.11322 349.12081,1.8305402 356.23096,0.50248145 383.5,0.51443471 c 19.96728,0.008753 24.4981,0.3119403 34.36152,2.29935969 18.7248,3.7729352 41.82856,12.0382646 40.78654,14.5913166 C 458.40228,18.0073 455.62906,24.575 452.48535,32 c -3.14372,7.425 -6.0927,14.48582 -6.55331,15.690711 l -0.83746,2.190712 -8.79729,-3.560509 c -25.88645,-10.476969 -58.117,-14.017952 -76.34575,-8.387665 -17.85241,5.514048 -26.32854,17.617668 -26.18233,37.387459 0.11114,15.02764 3.90114,25.909802 10.9378,31.405502 7.75709,6.05835 30.72858,18.13341 53.79299,28.27648 39.99463,17.58851 57.37923,34.9609 63.06484,63.02053 2.02842,10.01068 1.53251,29.06281 -1.00151,38.47678 -6.2284,23.13867 -22.94584,41.69359 -46.06333,51.12635 -14.53907,5.93246 -18.45053,6.38178 -54.66661,6.27968 -23.11012,-0.0651 -35.34747,-0.49548 -39.90037,-1.40314 z m 58.36884,-1.55889 c 15.61756,-1.37011 29.08347,-4.86742 40.69814,-10.56995 8.05,-3.95235 10.88,-6.05396 18.54139,-13.76916 12.87567,-12.96609 18.35103,-24.45568 20.38784,-42.78217 C 460.18457,203.53006 455.49329,185.41683 444.24831,171 436.43954,160.98863 422.8611,151.41554 404.52924,142.9972 380.87973,132.13689 353.19813,118.01962 345.91789,113.10613 337.74296,107.58882 335.16097,104.2347 331.83523,94.812202 329.97659,89.546294 329.60316,86.345155 329.58236,75.5 c -0.0303,-15.826788 1.7731,-21.445279 9.6501,-30.063972 9.48457,-10.377626 21.86742,-14.598555 42.75134,-14.572595 18.1635,0.02258 31.99146,2.582743 51.38135,9.512958 l 9.23366,3.300237 4.72668,-11.324502 c 2.59967,-6.228476 4.96197,-11.937664 5.24955,-12.687085 C 453.58118,17.043091 429.66021,9.3227755 412,6.5697481 345.00298,-3.8743332 300.84662,20.360648 298.28155,68.983512 c -1.31576,24.941054 5.3452,44.397868 20.3367,59.403978 11.49992,11.51113 23.95549,19.02595 54.88175,33.11179 30.92006,14.08301 40.56693,19.83075 45.62686,27.18511 9.08057,13.19815 10.97201,32.28538 4.82687,48.70974 -4.22717,11.29812 -16.05125,20.66216 -31.40964,24.87474 -9.25427,2.53832 -34.59932,3.46913 -48.23988,1.77165 -11.12003,-1.38382 -32.48319,-6.60977 -42.58074,-10.41629 l -6.77654,-2.55458 0.27654,14.71518 L 295.5,280.5 l 7.5,2.65434 c 10.10748,3.57716 27.37558,6.78955 41.70671,7.75871 17.28604,1.16899 20.58823,1.17203 33.59515,0.031 z M 517,148 V 3 h 20 20 v 126.49167 126.49168 l 56.25,0.25832 56.25,0.25833 0.27256,18.25 0.27256,18.25 H 593.52256 517 Z M 665,274.50833 V 261.01665 L 608.75,260.75833 552.5,260.5 552.24617,133.75 551.99234,7 536.49617,7 521,7 V 147.5 288 h 72 72 z M 714,148 V 3 l 22.75,0.014579 22.75,0.014579 67.96416,115.4379312 c 37.38029,63.49086 68.13442,115.26767 68.34251,115.05957 0.2081,-0.20809 -0.11327,-9.69732 -0.71416,-21.08717 C 894.45652,200.38404 894,152.29928 894,97.365341 V 3 h 18 18 v 145 145 l -21.75,-0.008 -21.75,-0.008 -69,-115.89453 C 779.55,113.34773 748.37309,61.31568 748.21798,61.462948 c -0.15511,0.147268 0.23172,8.31585 0.85963,18.152406 0.6551,10.262594 1.34823,59.543596 1.62639,115.634646 L 751.18874,293 H 732.59437 714 Z m 31.98616,52.75 C 745.97371,122.22865 745.5173,97.627332 743.426,62.75 L 742.78141,52 l 2.85929,0.02378 c 2.72728,0.02268 6.09423,5.459422 72.92195,117.750005 L 888.6253,287.5 907.81265,287.77159 927,288.04319 V 147.52159 7 H 912.5 898 l 0.0263,84.25 c 0.0238,76.31698 0.44785,99.21504 2.57428,139 L 901.282,243 h -2.90057 c -2.79172,0 -5.50843,-4.42774 -72.391,-117.98417 L 756.5,7.0316628 737.25,7.0158314 718,7 V 147.5 288 h 14 14 z"
         id="path6" />
      <path
         style="fill:#92c700"
         d="M 89.5,292.39862 C 67.538984,287.14718 50.035905,277.71684 35.564869,263.33937 19.693863,247.57098 8.9264364,225.8427 2.7933662,197.20764 0.62445061,187.08105 0.5,184.38365 0.5,147.5 0.5,104.20417 0.8345238,101.04625 7.6409909,80.088745 20.966857,39.057626 49.179188,11.96091 88.5,2.427189 c 9.196256,-2.22972369 11.98047,-2.42470336 34.64052,-2.42589414 23.2,-0.0012191603 25.21693,0.14827934 34.5,2.55719914 11.09464,2.8790119 24.97225,9.099919 34.48209,15.457257 8.26028,5.522007 23.92106,21.499387 30.71418,31.335088 21.46674,31.081554 30.18689,77.671051 24.07925,128.649161 -4.20622,35.1077 -16.27505,62.67201 -36.5834,83.5538 -15.44137,15.87739 -33.23383,25.90087 -54.89202,30.92374 -9.03511,2.09538 -57.088412,2.03787 -65.94062,-0.0789 z m 46.80186,-1.45462 c 20.497,-1.79818 38.35957,-7.68235 53.38965,-17.58728 8.26237,-5.44495 23.30453,-20.26391 29.11771,-28.68563 C 236.33578,219.27981 244,189.71581 244,147.5 244,110.10648 237.59574,81.76835 223.95661,58.810296 219.18033,50.770626 207.05121,36.001018 200.21802,29.903846 192.81024,23.293976 178.24079,14.242962 169.7074,10.949664 153.56412,4.7194799 146.53413,3.5795154 124,3.5378785 101.73741,3.4967432 95.623726,4.289474 80.553396,9.1713804 68.870126,12.956077 57.692246,18.985258 48.037664,26.709878 22.856145,46.857584 8.3613574,77.502595 3.9114146,120.002 2.3539497,134.87664 3.2573902,175.33886 5.429674,188 11.055576,220.79053 20.896184,241.89618 39,260 c 21.041522,21.04152 44.821209,30.22185 82.5,31.84975 1.65,0.0713 8.31084,-0.3363 14.80186,-0.90575 z M 103,263.47823 C 86.33754,260.05898 74.6386,253.87417 63.5,242.596 48.178374,227.08238 39.135687,203.34183 36.038904,170.5 31.84243,125.99579 39.301507,86.731569 56.58009,62.372191 66.118736,48.924589 82.586139,37.568695 98.5,33.464289 c 13.85863,-3.574333 36.09978,-3.572671 50,0.0037 9.53469,2.453195 23.29027,9.734915 30.18216,15.97738 20.98671,19.009136 31.40976,47.141814 32.9944,89.054596 0.97748,25.85406 -2.04496,51.40357 -8.29312,70.10406 -10.42902,31.21357 -30.10367,49.17633 -60.22141,54.98154 -9.12688,1.75921 -31.3555,1.69978 -40.16203,-0.10737 z m 45.49925,-5.4699 c 12.57845,-3.40661 22.73107,-9.23865 31.70486,-18.21244 6.59627,-6.59627 8.55229,-9.40558 13.2414,-19.01772 C 203.49168,200.18463 207.32267,179.74546 207.27402,147 207.22099,111.31097 201.96091,88.156517 189.5468,68.966266 174.6753,45.97728 153.33017,35 123.5,35 94.15507,35 73.242475,45.516027 58.056069,67.908882 45.504984,86.41587 39.785796,110.89627 39.695367,146.5 c -0.0574,22.60034 1.229082,34.99365 5.313315,51.18569 6.721342,26.64693 19.141978,44.5223 37.491318,53.95628 14.639925,7.52685 24.2181,9.46875 44,8.92067 10.24984,-0.28398 16.14275,-0.9682 21.99925,-2.55431 z M 324,292.93192 c -10.00048,-1.88663 -18.89817,-4.29695 -26.25,-7.11092 L 290,282.85463 v -19.04395 c 0,-17.68758 0.12464,-19.00334 1.75,-18.4739 0.9625,0.31353 7.6505,2.62541 14.86223,5.13751 7.21173,2.51211 18.68673,5.77018 25.5,7.24016 10.94542,2.3615 14.60001,2.67517 31.38777,2.69397 14.68733,0.0165 20.54616,-0.36795 25.8118,-1.69351 14.99647,-3.77519 24.53229,-10.5902 29.80523,-21.30107 5.41635,-11.00216 5.24028,-29.69904 -0.385,-40.88316 -5.58215,-11.09836 -12.69214,-15.64929 -52.55954,-33.64204 -43.25166,-19.52011 -61.3852,-36.03283 -69.2581,-63.067642 C 293.96415,89.690155 293.16151,66.625224 295.38945,56 301.4644,27.02808 325.84918,6.8054309 361.2586,1.3737651 c 13.66861,-2.09671116 39.72786,-1.3516581 55.61842,1.5901714 11.70617,2.1671713 29.07547,7.4506335 37.26304,11.3348185 l 4.64006,2.201245 -6.31437,15 c -3.4729,8.25 -6.68593,15.595391 -7.14006,16.323091 -0.65695,1.052709 -2.46054,0.690335 -8.82569,-1.773253 -32.09941,-12.423851 -66.05077,-14.587027 -84.26958,-5.369151 -13.40251,6.781051 -20.3034,20.898795 -18.83326,38.528793 1.04251,12.501882 3.98203,20.499423 9.47936,25.79052 5.7355,5.52032 21.71374,14.62612 42.19193,24.04464 28.32113,13.02571 34.11251,15.94729 42.67275,21.52714 26.09823,17.01169 38.03335,42.49816 34.50324,73.67886 -3.87518,34.2286 -25.68486,58.38084 -60.75087,67.27606 -9.41416,2.3881 -10.83931,2.46953 -41.37179,2.36373 C 342.7298,293.83017 326.475,293.39884 324,292.93192 Z m 54.30186,-1.98792 c 15.61756,-1.37011 29.08347,-4.86742 40.69814,-10.56995 8.05,-3.95235 10.88,-6.05396 18.54139,-13.76916 12.87567,-12.96609 18.35103,-24.45568 20.38784,-42.78217 C 460.18457,203.53006 455.49329,185.41683 444.24831,171 436.43954,160.98863 422.8611,151.41554 404.52924,142.9972 380.87973,132.13689 353.19813,118.01962 345.91789,113.10613 337.74296,107.58882 335.16097,104.2347 331.83523,94.812202 329.97659,89.546294 329.60316,86.345155 329.58236,75.5 c -0.0303,-15.826788 1.7731,-21.445279 9.6501,-30.063972 9.48457,-10.377626 21.86742,-14.598555 42.75134,-14.572595 18.1635,0.02258 31.99146,2.582743 51.38135,9.512958 l 9.23366,3.300237 4.72668,-11.324502 c 2.59967,-6.228476 4.96197,-11.937664 5.24955,-12.687085 C 453.58118,17.043091 429.66021,9.3227755 412,6.5697481 345.00298,-3.8743332 300.84662,20.360648 298.28155,68.983512 c -1.31576,24.941054 5.3452,44.397868 20.3367,59.403978 11.49992,11.51113 23.95549,19.02595 54.88175,33.11179 30.92006,14.08301 40.56693,19.83075 45.62686,27.18511 9.08057,13.19815 10.97201,32.28538 4.82687,48.70974 -4.22717,11.29812 -16.05125,20.66216 -31.40964,24.87474 -9.25427,2.53832 -34.59932,3.46913 -48.23988,1.77165 -11.12003,-1.38382 -32.48319,-6.60977 -42.58074,-10.41629 l -6.77654,-2.55458 0.27654,14.71518 L 295.5,280.5 l 7.5,2.65434 c 10.10748,3.57716 27.37558,6.78955 41.70671,7.75871 17.28604,1.16899 20.58823,1.17203 33.59515,0.031 z M 517,148 V 3 h 20 20 V 129.5 256 h 56 56 V 274.5 293 H 593 517 Z M 665,274.50833 V 261.01665 L 608.75,260.75833 552.5,260.5 552.24617,133.75 551.99234,7 536.49617,7 521,7 V 147.5 288 h 72 72 z m 49,-126.5271 V 2.962451 L 736.71141,3.2312255 759.42282,3.5 827.03908,118.27767 c 37.18894,63.12771 68.0313,115.19455 68.53859,115.70407 0.56316,0.56565 0.62642,-3.24195 0.16245,-9.77766 -0.41794,-5.88725 -1.0191,-58.06658 -1.33592,-115.95408 L 893.82816,3 H 911.91408 930 V 148.0195 293.039 L 908.2785,292.7695 886.557,292.5 817.54811,176.69119 C 779.59321,112.99634 748.37564,61.373082 748.17572,61.972836 c -0.19992,0.599753 0.12876,10.9214 0.7304,22.936992 C 749.53373,97.444199 750,146.44986 750,199.87818 V 293 H 732 714 Z M 745.98616,200.75 C 745.97371,122.22865 745.5173,97.627332 743.426,62.75 L 742.78141,52 l 2.85929,0.02378 c 2.72728,0.02268 6.09423,5.459422 72.92195,117.750005 L 888.6253,287.5 907.81265,287.77159 927,288.04319 V 147.52159 7 H 912.5 898 l 0.0263,84.25 c 0.0238,76.31698 0.44785,99.21504 2.57428,139 L 901.282,243 h -2.90057 c -2.79172,0 -5.50843,-4.42774 -72.391,-117.98417 L 756.5,7.0316628 737.25,7.0158314 718,7 V 147.5 288 h 14 14 z"
         id="path5" />
      <path
         style="fill:#62b000"
         d="M 89.5,292.39862 C 67.538984,287.14718 50.035905,277.71684 35.564869,263.33937 19.693863,247.57098 8.9264364,225.8427 2.7933662,197.20764 0.62445061,187.08105 0.5,184.38365 0.5,147.5 0.5,104.20417 0.8345238,101.04625 7.6409909,80.088745 20.966857,39.057626 49.179188,11.96091 88.5,2.427189 c 9.196256,-2.22972369 11.98047,-2.42470336 34.64052,-2.42589414 23.2,-0.0012191603 25.21693,0.14827934 34.5,2.55719914 11.09464,2.8790119 24.97225,9.099919 34.48209,15.457257 8.26028,5.522007 23.92106,21.499387 30.71418,31.335088 21.46674,31.081554 30.18689,77.671051 24.07925,128.649161 -4.20622,35.1077 -16.27505,62.67201 -36.5834,83.5538 -15.44137,15.87739 -33.23383,25.90087 -54.89202,30.92374 -9.03511,2.09538 -57.088412,2.03787 -65.94062,-0.0789 z m 49.36894,-1.43311 c 49.39056,-5.06843 86.32917,-37.88074 99.16507,-88.08766 8.55743,-33.47188 8.76149,-76.86449 0.51119,-108.703429 C 228.97128,57.227488 205.44658,27.389087 174.43327,12.855758 157.4274,4.8865415 134.65497,1.3544974 111.44761,3.0865741 80.748627,5.3777873 56.217276,16.305848 37.693447,35.942082 19.198812,55.547371 8.4309179,81.353321 3.8708973,117 c -1.5663031,12.24413 -1.5672208,48.74521 -0.00153,61 1.6585621,12.98173 4.5830674,26.9239 7.6562253,36.5 3.972877,12.37966 12.679267,29.08542 19.920308,38.22294 22.706306,28.65323 62.571448,42.84521 107.423043,38.24257 z M 104.3602,263.58762 C 94.98811,261.8027 90.924224,260.43588 82.571146,256.25923 54.38023,242.16341 39.840171,214.11328 35.914152,166.25035 33.863239,141.24722 36.524118,111.05671 42.512767,91.382036 49.800382,67.439829 65.166715,48.278742 84.5,39.025953 c 11.250194,-5.384273 18.95621,-7.126022 34.28457,-7.749151 27.58836,-1.121524 46.61413,5.347215 62.728,21.327441 15.45775,15.329546 24.31777,35.574537 28.6198,65.395757 1.77343,12.29325 1.49075,48.99128 -0.4793,62.22265 -6.94826,46.66633 -25.97937,72.49527 -60.29409,81.83082 -10.10741,2.74979 -34.28726,3.57415 -44.99878,1.53415 z m 44.13905,-5.57929 c 12.57845,-3.40661 22.73107,-9.23865 31.70486,-18.21244 6.59627,-6.59627 8.55229,-9.40558 13.2414,-19.01772 C 203.49168,200.18463 207.32267,179.74546 207.27402,147 207.22099,111.31097 201.96091,88.156517 189.5468,68.966266 174.6753,45.97728 153.33017,35 123.5,35 94.15507,35 73.242475,45.516027 58.056069,67.908882 45.504984,86.41587 39.785796,110.89627 39.695367,146.5 c -0.0574,22.60034 1.229082,34.99365 5.313315,51.18569 6.721342,26.64693 19.141978,44.5223 37.491318,53.95628 14.639925,7.52685 24.2181,9.46875 44,8.92067 10.24984,-0.28398 16.14275,-0.9682 21.99925,-2.55431 z M 324,292.93192 c -10.00048,-1.88663 -18.89817,-4.29695 -26.25,-7.11092 L 290,282.85463 v -19.04395 c 0,-17.68758 0.12464,-19.00334 1.75,-18.4739 0.9625,0.31353 7.6505,2.62541 14.86223,5.13751 7.21173,2.51211 18.68673,5.77018 25.5,7.24016 10.94542,2.3615 14.60001,2.67517 31.38777,2.69397 14.68733,0.0165 20.54616,-0.36795 25.8118,-1.69351 14.99647,-3.77519 24.53229,-10.5902 29.80523,-21.30107 5.41635,-11.00216 5.24028,-29.69904 -0.385,-40.88316 -5.58215,-11.09836 -12.69214,-15.64929 -52.55954,-33.64204 -43.25166,-19.52011 -61.3852,-36.03283 -69.2581,-63.067642 C 293.96415,89.690155 293.16151,66.625224 295.38945,56 301.4644,27.02808 325.84918,6.8054309 361.2586,1.3737651 c 13.66861,-2.09671116 39.72786,-1.3516581 55.61842,1.5901714 11.70617,2.1671713 29.07547,7.4506335 37.26304,11.3348185 l 4.64006,2.201245 -6.31437,15 c -3.4729,8.25 -6.68593,15.595391 -7.14006,16.323091 -0.65695,1.052709 -2.46054,0.690335 -8.82569,-1.773253 -32.09941,-12.423851 -66.05077,-14.587027 -84.26958,-5.369151 -13.40251,6.781051 -20.3034,20.898795 -18.83326,38.528793 1.04251,12.501882 3.98203,20.499423 9.47936,25.79052 5.7355,5.52032 21.71374,14.62612 42.19193,24.04464 28.32113,13.02571 34.11251,15.94729 42.67275,21.52714 26.09823,17.01169 38.03335,42.49816 34.50324,73.67886 -3.87518,34.2286 -25.68486,58.38084 -60.75087,67.27606 -9.41416,2.3881 -10.83931,2.46953 -41.37179,2.36373 C 342.7298,293.83017 326.475,293.39884 324,292.93192 Z m 69.80992,-3.8894 c 31.01235,-6.3313 51.16822,-22.15943 60.38782,-47.42172 6.74687,-18.48687 5.90311,-41.62952 -2.11903,-58.1208 -9.60003,-19.73496 -21.96571,-29.43504 -58.68576,-46.03519 -30.36972,-13.72934 -49.5664,-24.48152 -55.23457,-30.93721 -3.54719,-4.04002 -6.73289,-12.174187 -8.12309,-20.740988 -4.57318,-28.181123 7.77455,-47.827363 33.48215,-53.27282 8.82737,-1.869838 27.40474,-1.924649 38.55999,-0.113768 10.36836,1.683144 25.11222,5.631189 33.8457,9.063054 3.53272,1.3882 6.55238,2.394744 6.71036,2.236765 C 443.1564,43.176935 453,19.591157 453,18.861151 453,18.04565 440.22487,13.003112 432,10.572133 412.92027,4.9328417 380.72325,2.531289 362.2586,5.3701716 328.1308,10.617216 305.19366,29.454781 299.39268,57 c -2.19495,10.422419 -1.41706,31.664041 1.5318,41.828631 7.33589,25.286509 25.56731,41.929899 65.20239,59.523019 27.99841,12.42786 45.37067,21.85571 50.56771,27.44286 3.56081,3.8281 7.84656,12.72585 9.32071,19.35093 0.77668,3.49053 1.07894,9.63036 0.79187,16.08508 -0.40565,9.12098 -0.87256,11.31309 -3.69648,17.35456 -5.59766,11.9756 -16.53073,20.03505 -32.71113,24.11341 -5.43038,1.36875 -11.15829,1.73463 -26.89955,1.71824 -17.75882,-0.0185 -21.34471,-0.3126 -32,-2.62464 -9.66015,-2.0961 -28.66368,-7.72605 -35.25,-10.4431 -0.96731,-0.39904 -1.25,2.87157 -1.25,14.46224 v 14.9779 l 9.75,3.07681 c 18.78166,5.92695 37.50163,8.20619 62.75,7.64012 11.09546,-0.24877 19.16034,-1.00392 26.30992,-2.46354 z M 517,148 V 3 h 20 20 V 129.5 256 h 56 56 V 274.5 293 H 593 517 Z M 665,274.5 V 260 H 609 553 V 133.5 7 h -16 -16 v 141 141 h 72 72 z M 714,147.98123 V 2.962451 L 736.71141,3.2312255 759.42282,3.5 827.03908,118.27767 c 37.18894,63.12771 68.0313,115.19455 68.53859,115.70407 0.56316,0.56565 0.62642,-3.24195 0.16245,-9.77766 -0.41794,-5.88725 -1.0191,-58.06658 -1.33592,-115.95408 L 893.82816,3 H 911.91408 930 V 148.0195 293.039 L 908.2785,292.7695 886.557,292.5 817.54811,176.69119 C 779.59321,112.99634 748.37564,61.373082 748.17572,61.972836 c -0.19992,0.599753 0.12876,10.9214 0.7304,22.936992 C 749.53373,97.444199 750,146.44986 750,199.87818 V 293 H 732 714 Z M 745.99726,199.25 c -0.002,-79.91896 -0.69679,-118.082727 -2.53806,-139.5 l -0.5803,-6.75 2.89679,0 c 2.78227,0 5.67556,4.665205 73.18199,118 l 70.28519,118 H 908.62143 928 V 148 7 h -15 -15 l 0.0136,87.75 c 0.0123,79.1643 0.4633,103.19987 2.58024,137.5 l 0.66348,10.75 -2.87866,-0.0411 c -2.7537,-0.0393 -5.89091,-5.16122 -72.27658,-118 L 756.70414,7 H 737.35207 718 v 141 141 h 14 14 z"
         id="path4" />
      <path
         style="fill:#198b0b"
         d="M 89.5,292.39862 C 67.538984,287.14718 50.035905,277.71684 35.564869,263.33937 19.693863,247.57098 8.9264364,225.8427 2.7933662,197.20764 0.62445061,187.08105 0.5,184.38365 0.5,147.5 0.5,104.20417 0.8345238,101.04625 7.6409909,80.088745 20.966857,39.057626 49.179188,11.96091 88.5,2.427189 c 9.196256,-2.22972369 11.98047,-2.42470336 34.64052,-2.42589414 23.2,-0.0012191603 25.21693,0.14827934 34.5,2.55719914 11.09464,2.8790119 24.97225,9.099919 34.48209,15.457257 8.26028,5.522007 23.92106,21.499387 30.71418,31.335088 21.46674,31.081554 30.18689,77.671051 24.07925,128.649161 -4.20622,35.1077 -16.27505,62.67201 -36.5834,83.5538 -15.44137,15.87739 -33.23383,25.90087 -54.89202,30.92374 -9.03511,2.09538 -57.088412,2.03787 -65.94062,-0.0789 z m 55.50416,-1.84316 c 25.6219,-3.8625 46.59527,-14.7639 63.83597,-33.18026 18.57021,-19.83652 28.59754,-42.21779 33.85777,-75.57144 2.76794,-17.55075 2.46362,-54.91744 -0.58885,-72.30376 C 236.45552,77.298616 224.90827,53.940532 204.60644,33.638696 186.11697,15.149228 164.43899,5.4329953 135.75,2.7767319 97.778689,-0.73896607 63.177865,10.253353 40.104521,33.162297 12.96387,60.109569 0.59550691,100.1625 2.3265817,155.5 3.2111684,183.7777 7.3486769,206.47458 14.996029,225 30.097867,261.58363 59.400642,284.27053 99.5,290.42497 c 11.98456,1.83939 33.75406,1.90182 45.50416,0.13049 z M 109.47203,264.0291 C 99.16651,262.56007 90.829217,260.04419 82,255.73909 75.09442,252.37196 71.800691,249.89745 64.440829,242.54726 56.570502,234.68728 54.704739,232.12207 50.223434,223 44.569633,211.49121 41.20047,200.82551 38.377648,185.5 36.045652,172.83925 35.681737,125.13308 37.8246,113 42.893682,84.298411 51.739175,65.97845 67.880033,50.751981 76.304592,42.804679 89.146398,36.148974 101.5,33.327283 c 11.72471,-2.678045 35.06285,-2.416168 46,0.516167 28.96101,7.764668 49.46539,29.905613 57.95513,62.580823 4.51883,17.392037 5.80736,31.375197 5.25943,57.075727 -0.5166,24.23155 -1.72246,33.82968 -6.24477,49.7056 -9.11526,31.99987 -28.34412,52.01265 -56.46979,58.77195 -9.67875,2.32605 -29.28025,3.3698 -38.52797,2.05155 z m 39.02722,-6.02077 c 12.57845,-3.40661 22.73107,-9.23865 31.70486,-18.21244 6.59627,-6.59627 8.55229,-9.40558 13.2414,-19.01772 C 203.49168,200.18463 207.32267,179.74546 207.27402,147 207.22099,111.31097 201.96091,88.156517 189.5468,68.966266 174.6753,45.97728 153.33017,35 123.5,35 94.15507,35 73.242475,45.516027 58.056069,67.908882 45.504984,86.41587 39.785796,110.89627 39.695367,146.5 c -0.0574,22.60034 1.229082,34.99365 5.313315,51.18569 6.721342,26.64693 19.141978,44.5223 37.491318,53.95628 14.639925,7.52685 24.2181,9.46875 44,8.92067 10.24984,-0.28398 16.14275,-0.9682 21.99925,-2.55431 z M 324,292.93192 c -10.00048,-1.88663 -18.89817,-4.29695 -26.25,-7.11092 L 290,282.85463 v -19.04395 c 0,-17.68758 0.12464,-19.00334 1.75,-18.4739 0.9625,0.31353 7.6505,2.62541 14.86223,5.13751 7.21173,2.51211 18.68673,5.77018 25.5,7.24016 10.94542,2.3615 14.60001,2.67517 31.38777,2.69397 14.68733,0.0165 20.54616,-0.36795 25.8118,-1.69351 14.99647,-3.77519 24.53229,-10.5902 29.80523,-21.30107 5.41635,-11.00216 5.24028,-29.69904 -0.385,-40.88316 -5.58215,-11.09836 -12.69214,-15.64929 -52.55954,-33.64204 -43.25166,-19.52011 -61.3852,-36.03283 -69.2581,-63.067642 C 293.96415,89.690155 293.16151,66.625224 295.38945,56 301.4644,27.02808 325.84918,6.8054309 361.2586,1.3737651 c 13.66861,-2.09671116 39.72786,-1.3516581 55.61842,1.5901714 11.70617,2.1671713 29.07547,7.4506335 37.26304,11.3348185 l 4.64006,2.201245 -6.31437,15 c -3.4729,8.25 -6.68593,15.595391 -7.14006,16.323091 -0.65695,1.052709 -2.46054,0.690335 -8.82569,-1.773253 -32.09941,-12.423851 -66.05077,-14.587027 -84.26958,-5.369151 -13.40251,6.781051 -20.3034,20.898795 -18.83326,38.528793 1.04251,12.501882 3.98203,20.499423 9.47936,25.79052 5.7355,5.52032 21.71374,14.62612 42.19193,24.04464 28.32113,13.02571 34.11251,15.94729 42.67275,21.52714 26.09823,17.01169 38.03335,42.49816 34.50324,73.67886 -3.87518,34.2286 -25.68486,58.38084 -60.75087,67.27606 -9.41416,2.3881 -10.83931,2.46953 -41.37179,2.36373 C 342.7298,293.83017 326.475,293.39884 324,292.93192 Z m 63.5,-2.43419 c 22.3744,-3.33486 37.41262,-10.3153 50.52838,-23.45426 13.76915,-13.79349 19.68747,-27.54606 20.68487,-48.066 0.91678,-18.86137 -3.05307,-33.49351 -12.52098,-46.14994 C 435.99655,159.19818 423.00826,150.23336 396.5,138.52877 378.34935,130.51444 355.64987,118.90953 346.71381,113.076 335.957,106.05388 331.8738,98.500674 330.02134,82.197807 326.1229,47.888953 346.87437,29.377143 387.05212,31.32222 c 14.05972,0.680656 28.77155,3.572107 42.3013,8.31386 5.58062,1.95583 10.98901,3.625325 12.01864,3.709988 1.4908,0.122582 2.9487,-2.391825 7.1585,-12.346068 L 453.817,18.5 451.43058,17.229633 C 447.32636,15.044824 428.84552,9.2063437 420.95414,7.6014978 398.16908,2.9677635 367.90243,2.8299731 350.93017,7.2827102 313.07869,17.213189 294.04591,44.627784 298.00201,83.519808 c 2.05647,20.216832 7.14566,31.576632 19.98994,44.620362 10.33405,10.49452 22.17903,18.33397 40.76255,26.97821 29.83133,13.87621 50.86784,24.79705 55.32742,28.72252 10.35459,9.11448 15.37312,28.40249 11.80214,45.35988 -3.62693,17.2231 -16.90744,29.17207 -36.88406,33.18595 -23.97088,4.81644 -54.88063,1.85284 -83.09164,-7.96677 C 300.50445,252.53898 295.61439,251 295.04154,251 294.36719,251 294,256.13172 294,265.55623 v 14.55623 l 4.55727,2.0159 c 6.91799,3.06015 22.66301,6.80419 34.94273,8.30909 15.21347,1.86443 41.69715,1.894 54,0.0603 z M 517,148 V 3 h 20 20 V 129.5 256 h 56 56 V 274.5 293 H 593 517 Z M 665,274.5 V 260 H 609 553 V 133.5 7 h -16 -16 v 141 141 h 72 72 z M 714,147.98123 V 2.962451 L 736.71141,3.2312255 759.42282,3.5 827.03908,118.27767 c 37.18894,63.12771 68.0313,115.19455 68.53859,115.70407 0.56316,0.56565 0.62642,-3.24195 0.16245,-9.77766 -0.41794,-5.88725 -1.0191,-58.06658 -1.33592,-115.95408 L 893.82816,3 H 911.91408 930 V 148.0195 293.039 L 908.2785,292.7695 886.557,292.5 817.54811,176.69119 C 779.59321,112.99634 748.37564,61.373082 748.17572,61.972836 c -0.19992,0.599753 0.12876,10.9214 0.7304,22.936992 C 749.53373,97.444199 750,146.44986 750,199.87818 V 293 H 732 714 Z M 746.97914,208.75 c -0.0189,-72.56575 -0.39696,-93.08528 -2.59814,-141 L 743.70339,53 l 2.39831,0.02862 c 2.11299,0.02521 10.73031,14.033153 72.43671,117.750005 L 888.57682,288.5 908.28841,288.77114 928,289.04228 V 148.02114 7 h -15 -15 l 0.006,92.25 c 0.006,81.83724 0.63559,116.432 2.5047,137.5698 l 0.55883,6.3198 -2.63625,-0.3198 C 896.07784,242.53401 888.43509,230.00473 826.56474,125 L 757.33198,7.5 737.66599,7.2288601 718,6.9577201 V 147.97886 289 h 14.5 14.5 z"
         id="path3" />
      <path
         style="fill:#007f00"
         d="M 86.893636,291.48989 C 66.541746,286.44784 50.220866,277.34193 35.938859,263.06068 19.426826,246.54953 9.2435145,226.24349 2.8099862,197 0.6156454,187.02566 0.5,184.54753 0.5,147.5 0.5,103.99493 0.81382536,101.2635 8.4260048,78.514832 22.009318,37.921691 51.322633,10.734325 91,1.9295195 c 6.987495,-1.55059534 12.7033,-1.89008637 32.12178,-1.90787742 21.67453,-0.01985803 24.40094,0.17600993 33.07377,2.37605352 24.08368,6.1093279 42.48976,17.8234894 58.98233,37.5380654 13.44441,16.070924 21.46574,31.79011 26.82127,52.560935 4.56173,17.692184 6.22793,32.407544 6.22793,55.003304 0,53.27727 -12.84532,89.62244 -41.37633,117.07216 -13.36857,12.86192 -30.57843,22.44459 -48.45163,26.9785 -9.07206,2.30132 -11.23417,2.44541 -35.77734,2.38424 -24.027237,-0.0599 -26.892055,-0.25593 -35.728144,-2.44501 z m 57.672034,-0.56231 c 24.06824,-3.34758 45.24738,-13.80777 61.94571,-30.59444 19.22152,-19.32322 30.67018,-43.37848 36.16051,-75.97841 2.8246,-16.77161 2.59727,-59.33961 -0.4059,-76.00495 C 238.21041,85.844369 230.10897,65.321753 219.29115,50.149796 213.01584,41.348696 196.99877,25.399286 189.51543,20.499861 177.31951,12.515054 163.29046,6.8346012 148.5,3.892454 137.7066,1.7454085 105.80095,2.0346976 95,4.3775396 44.903855,15.243931 14.995557,48.960338 4.8553165,106 2.2178672,120.83586 1.2061242,156.37478 2.9318887,173.56316 6.1946191,206.0595 15.235262,232.27999 29.839123,251.60197 44.788529,271.38113 69.497727,285.71202 96,289.97408 c 4.125,0.66338 8.175,1.33839 9,1.50003 4.0473,0.79296 32.78956,0.39594 39.56567,-0.54653 z m -31.13061,-27.0347 C 72.441188,260.86285 47.388642,234.69837 38.871879,186.02028 36.261418,171.10003 35.306496,141.68087 36.88701,124.87062 41.753942,73.106236 63.999324,42.098673 102.5,33.413482 c 10.7991,-2.43612 31.13335,-2.457119 41.73996,-0.04311 35.64992,8.113749 56.5473,33.774961 64.43974,79.129623 2.47054,14.19719 2.49653,54.49072 0.0452,70.07259 -3.29543,20.94741 -9.98734,39.07975 -19.10654,51.77093 -15.82043,22.01726 -41.79302,32.0913 -76.18331,29.54936 z M 140,259.95937 c 16.82176,-2.65403 29.06832,-8.80533 40.53697,-20.36125 6.51724,-6.56683 8.91721,-9.89449 12.69209,-17.59812 2.56032,-5.225 5.59469,-12.425 6.74303,-16 10.17032,-31.66197 10.37874,-82.58453 0.46668,-114.02028 C 191.4576,63.496277 172.57284,44.157442 147,37.256046 c -9.24624,-2.495301 -37.75376,-2.495301 -47,0 C 74.602709,44.110066 55.491294,63.568654 46.723847,91.5 36.216772,124.97345 36.587119,174.37849 47.594178,207.60406 52.122682,221.27366 57.64526,230.6111 66.5,239.56957 c 11.239168,11.37083 21.672108,16.84186 38,19.9272 8.54996,1.61561 26.69343,1.85204 35.5,0.4626 z m 180.13438,31.9983 C 310.11243,289.95262 303.35461,287.95619 295.75,284.75392 L 291,282.75371 v -18.83204 -18.83204 l 6.75,2.60546 c 9.83135,3.79485 24.21605,8.03733 35.70291,10.52984 13.6465,2.96114 46.43861,3.2559 56.54709,0.50829 22.89304,-6.22261 33.09017,-18.92912 33.09017,-41.23322 0,-15.51684 -4.87831,-26.81806 -14.40598,-33.37327 C 403.88527,180.82498 379.10535,168.26598 367,163.00028 342.36827,152.28572 327.83615,143.15255 315.5,130.63346 305.93065,120.92221 302.34412,115.30218 298.49621,103.98884 293.0212,87.891669 292.54146,64.456093 297.37918,49.421589 306.0327,22.528455 330.80035,5.0551801 366.10826,0.93407007 385.7526,-1.3588015 415.79745,1.522752 435.02028,7.5433125 445.62452,10.864545 458,15.936217 458,16.960776 c 0,0.425778 -2.98816,7.832695 -6.64035,16.459816 -5.39081,12.734056 -6.94324,15.558549 -8.25,15.010102 -7.24698,-3.041559 -22.36332,-8.019703 -30.60965,-10.080432 -13.42932,-3.355943 -38.57619,-4.371646 -48.75893,-1.969414 -15.93942,3.760299 -25.66605,12.448253 -29.19712,26.079251 -2.94691,11.375927 -1.29367,27.18008 3.9194,37.467574 2.13943,4.221957 4.00769,6.073017 10.2277,10.133477 8.04544,5.25212 34.36865,18.86994 45.30895,23.43973 11.70859,4.89072 28.31648,13.59821 35.78996,18.76462 23.21486,16.04842 34.99072,40.79917 32.69114,68.71089 -1.68389,20.4385 -8.13617,34.73377 -21.94104,48.61118 -7.85593,7.89721 -10.41543,9.76672 -19.54006,14.27246 -6.21199,3.06748 -14.53409,6.19668 -20.37822,7.66243 -9.48811,2.37969 -11.08758,2.47421 -40.5,2.39325 -25.69694,-0.0707 -32.12804,-0.38564 -39.9874,-1.95804 z m 77.04169,-2.79952 c 29.69013,-6.97662 50.05479,-24.24864 58.54965,-49.65815 2.45605,-7.34645 2.67862,-9.34795 2.72441,-24.5 0.0444,-14.69834 -0.20487,-17.26434 -2.28306,-23.5 -7.68366,-23.05498 -22.69264,-36.60779 -58.19673,-52.55047 -19.88315,-8.92829 -42.53891,-20.52157 -51.00005,-26.09747 -12.80911,-8.44121 -16.46468,-16.84752 -16.46809,-37.869896 -0.002,-13.257248 0.061,-13.646359 3.27837,-20.18482 C 341.6961,38.710928 356.43229,31.631767 382,31.63307 c 16.24291,8.28e-4 30.84628,2.57762 48,8.469687 6.325,2.172552 11.84517,4.050702 12.26705,4.173668 C 442.85474,44.447722 454,19.876315 454,18.409368 454,17.75312 444.49883,13.928691 436.92281,11.53543 409.47439,2.8644786 373.65002,0.99953314 350.58493,7.040852 324.05886,13.988687 305.83207,30.699834 299.36675,54 c -2.66571,9.606869 -2.40986,32.630135 0.48164,43.341953 4.28917,15.889597 11.82301,27.254017 25.12036,37.892767 11.2716,9.01803 21.69408,14.90903 45.99572,25.99775 25.95159,11.84159 39.25201,19.0457 44.16139,23.91981 15.94377,15.82926 15.26048,50.73213 -1.27638,65.19817 -12.62721,11.04599 -32.41727,15.40698 -61.34948,13.51914 -16.83227,-1.0983 -39.17248,-6.36741 -56.75,-13.38491 -1.62146,-0.64734 -1.75,0.44021 -1.75,14.80688 v 15.50553 l 7.25,2.57474 c 11.17636,3.96913 18.08295,5.45916 37.25,8.03633 1.65,0.22186 13.575,0.26507 26.5,0.096 19.37913,-0.25345 25.0214,-0.66484 32.17607,-2.34605 z M 517,148 V 3 h 20 20 v 127 127 h 56 56 v 18 18 H 593 517 Z M 666,274.5 V 260 H 609.50383 553.00766 L 552.75383,133.25 552.5,6.5 536.75,6.2246071 521,5.9492141 V 147.47461 289 H 593.5 666 Z M 714,147.98123 V 2.962451 L 736.56545,3.2312255 759.1309,3.5 826.41931,117.71359 c 37.00862,62.81748 68.02598,115.24248 68.92747,116.5 1.5751,2.19718 1.61931,2.05225 1.13284,-3.71359 C 894.74235,209.90935 894,168.12145 894,90.91832 V 3 h 18 18 V 148.0195 293.039 L 908.41016,292.7695 886.82032,292.5 817.66016,176.36335 C 758.3254,76.725921 748.45231,60.672318 748.1643,63.363351 747.97966,65.088508 748.31841,76.85 748.91708,89.5 c 0.60729,12.83212 1.08726,62.89788 1.08571,113.25 L 750,293 H 732 714 Z M 746.97801,203.75 c -0.0199,-77.02131 -0.48245,-101.98734 -2.57707,-139.08707 l -0.66831,-11.837069 2.27787,0.337069 c 1.85452,0.274425 15.30706,22.218864 72.38368,118.07581 L 888.5,288.97749 908.25345,288.98874 928.0069,289 927.75345,147.75 927.5,6.5 h -15 -15 l -0.31594,76 c -0.28606,68.81386 0.49746,112.89967 2.65255,149.25 0.64391,10.8609 0.59671,11.25 -1.36484,11.25 -1.6382,0 -15.46976,-22.81151 -71.39671,-117.75 C 788.92437,60.4875 757.21288,7.1693907 756.60508,6.7653128 755.99729,6.3612348 747.0625,6.0237348 736.75,6.0153128 L 718,6 V 147.5 289 h 14.5 14.5 z"
         id="path2" />
    </g>
  </g>
</svg>
