<?xml version="1.0" encoding="UTF-8" standalone="no"?>
<!-- Created with Inkscape (http://www.inkscape.org/) -->

<svg
   version="1.1"
   id="svg1"
   width="626.58966"
   height="132.05708"
   viewBox="0 0 626.58966 132.05708"
   sodipodi:docname="pelagicore.svg"
   inkscape:version="1.4.3 (0d15f75, 2025-12-25)"
   xmlns:inkscape="http://www.inkscape.org/namespaces/inkscape"
   xmlns:sodipodi="http://sodipodi.sourceforge.net/DTD/sodipodi-0.dtd"
   xmlns="http://www.w3.org/2000/svg"
   xmlns:svg="http://www.w3.org/2000/svg">
  <defs
     id="defs1" />
  <sodipodi:namedview
     id="namedview1"
     pagecolor="#ffffff"
     bordercolor="#000000"
     borderopacity="0.25"
     inkscape:showpageshadow="2"
     inkscape:pageopacity="0.0"
     inkscape:pagecheckerboard="0"
     inkscape:deskcolor="#d1d1d1"
     showgrid="false"
     inkscape:zoom="0.62"
     inkscape:cx="312.90323"
     inkscape:cy="66.935484"
     inkscape:current-layer="g1" />
  <g
     inkscape:groupmode="layer"
     inkscape:label="Image"
     id="g1"
     transform="translate(-41.410319,-114.66666)">
    <g
       id="g2">
      <path
         style="fill:#d1d1d1"
         d="M 75.068071,242.66606 C 60.869446,234.5229 48.405502,218.26 43.460505,201.42466 c -2.733581,-9.30653 -2.733581,-26.87613 0,-36.18266 6.88395,-23.43655 25.011613,-41.56421 48.448161,-48.44816 4.016386,-1.17973 12.074334,-2.12718 18.091334,-2.12718 18.8585,0 34.95499,6.71499 48.45333,20.21334 17.22089,17.22089 23.8303,40.93979 18.13805,65.09124 -2.82551,11.98822 -9.5259,23.2761 -19.50397,32.85753 -8.97548,8.61871 -19.5236,15.03485 -20.94262,12.73884 -0.45473,-0.73578 -1.93139,-6.37589 -3.28146,-12.53357 l -2.45467,-11.1958 8.67005,-8.67004 c 9.96427,-9.96427 12.88721,-17.11687 12.97214,-31.74354 0.0485,-8.35195 0.32659,-9.098 5.99801,-16.09133 L 163.99602,158 153.44581,156.66666 c -8.93569,-1.12929 -11.40746,-2.02503 -16.15207,-5.8533 -21.26324,-17.15664 -53.021174,-10.66665 -65.419877,13.36908 -4.454168,8.63471 -5.063705,24.68222 -1.314942,34.619 2.745321,7.27697 9.659621,15.97152 15.835059,19.91217 l 3.060649,1.95305 -2.0566,10 c -3.075516,14.95437 -3.365119,16.00107 -4.423434,15.98749 -0.536029,-0.007 -4.093964,-1.80153 -7.906524,-3.98809 z m 167.117899,1.74213 c -1.12795,-1.12794 -1.10503,-30.37803 0.0247,-31.50774 0.48252,-0.48253 1.62911,-0.25339 2.54796,0.50919 1.15747,0.96062 1.93605,0.95706 2.5347,-0.0116 1.59154,-2.57516 8.43696,-1.56727 10.63108,1.56527 5.80669,8.29021 -0.10213,22.23447 -8.62823,20.36182 -3.80927,-0.83665 -3.96283,-0.68849 -3.96283,3.82354 0,4.5784 -1.4333,6.97355 -3.14736,5.25949 z m 12.48069,-13.74153 c 3.13091,-3.13091 3.53728,-10.29969 0.79633,-14.04815 -1.5536,-2.12469 -2.5132,-2.3329 -5.66666,-1.22955 -3.38897,1.18575 -3.84121,2.03621 -4.21454,7.92549 -0.32215,5.08208 0.11915,6.99012 1.92151,8.30804 3.1355,2.29274 4.03479,2.17274 7.16336,-0.95583 z m 250.79285,13.5296 c -4.10009,-1.18073 -6.17303,-4.46812 -4.84389,-7.6817 0.57201,-1.38301 0.95112,-5.21457 0.84246,-8.51457 -0.10866,-3.3 -0.23737,-7.46696 -0.28603,-9.25991 -0.12796,-4.71538 3.60181,-6.74009 12.41611,-6.74009 6.85627,0 7.74516,0.30605 7.74516,2.66667 0,1.46667 -0.6,2.66667 -1.33333,2.66667 -0.73334,0 -1.33334,1.2 -1.33334,2.66666 0,3.69577 -4.66292,8 -8.66666,8 -1.83334,0 -3.33334,0.6 -3.33334,1.33334 0,0.73333 2.58,1.33333 5.73334,1.33333 6.42284,0 8.93333,1.75245 8.93333,6.23593 0,5.08759 -9.06726,9.2538 -15.87381,7.29367 z m 10.21557,-6.5296 c 0.3777,-1.15055 -1.13885,-1.66667 -4.89732,-1.66667 -5.15546,0 -6.62693,1.03974 -4.49236,3.17431 1.5048,1.5048 8.78447,0.33596 9.38968,-1.50764 z m -3.00843,-17.66667 c 0,-3.80083 -4.20837,-5.4124 -5.48002,-2.09854 -1.21306,3.16119 0.50334,6.35378 3.14266,5.84549 1.47603,-0.28426 2.33736,-1.66503 2.33736,-3.74695 z m -244.76922,12.10257 c -4.96865,-4.96865 -5.12112,-10.4437 -0.44558,-16.00027 5.45945,-6.48818 12.64744,-4.81667 14.71519,3.42189 1.19613,4.76579 -0.951,6.15027 -8.70528,5.61322 -3.73822,-0.25891 -6.79639,-0.28129 -6.79593,-0.0498 4.6e-4,0.23154 0.61458,1.56779 1.36472,2.96944 2.10781,3.93849 5.933,5.47756 9.88214,3.97609 4.05226,-1.54066 4.71984,0.51101 0.84162,2.58657 -4.15311,2.22268 -6.70978,1.62991 -10.85688,-2.51719 z m 12.10256,-11.18106 c 0,-0.95984 -0.84165,-2.89618 -1.87033,-4.30299 -1.53706,-2.10206 -2.52079,-2.32565 -5.52076,-1.25484 -2.00774,0.71664 -4.14675,2.65299 -4.75337,4.30299 -1.05019,2.85653 -0.78617,3 5.52076,3 4.56896,0 6.6237,-0.54137 6.6237,-1.74516 z m 33.23077,11.18106 c -4.38694,-4.38694 -4.95261,-8.86118 -1.87318,-14.81613 3.6178,-6.99607 14.27048,-6.55543 16.08276,0.66524 1.56196,6.22336 -0.0385,7.67566 -7.90311,7.17141 -6.33502,-0.40618 -7.04871,-0.19011 -6.48331,1.96278 1.06721,4.06371 6.05021,6.52207 10.09943,4.98256 4.11531,-1.56464 4.85431,0.4534 0.9343,2.55133 -4.15312,2.22268 -6.70979,1.62991 -10.85689,-2.51719 z m 12.10256,-10.85689 c 0,-3.26041 -2.96784,-6.57901 -5.88365,-6.57901 -3.22251,0 -5.0921,1.62137 -6.53419,5.66667 -0.72037,2.02075 0.0557,2.33333 5.79302,2.33333 3.8001,0 6.62482,-0.60589 6.62482,-1.42099 z m 35.08717,13.41168 c -6.50903,-2.62254 -7.95397,-13.91176 -2.48111,-19.38463 4.31219,-4.31218 12.72728,-4.25437 12.72728,0.0874 0,1.39197 -0.82621,1.43025 -4.11624,0.19068 -3.70053,-1.39422 -4.37382,-1.23295 -6.66667,1.59687 -2.93223,3.61892 -3.31695,9.29432 -0.858,12.65714 1.87755,2.5677 5.42563,3.16076 9.97424,1.66719 4.11992,-1.35281 3.79801,1.06965 -0.39607,2.9806 -3.90416,1.77886 -4.25473,1.78762 -8.18343,0.20471 z m 16.81027,-2.55479 c -8.11965,-8.11965 -1.99424,-22.2565 8.50212,-19.62208 3.6168,0.90776 7.07342,7.49512 5.7469,10.95199 -0.65111,1.69674 -2.36113,2.05131 -8.15366,1.69061 -4.03137,-0.25103 -7.32895,-0.26697 -7.32795,-0.0354 10e-4,0.23154 0.61557,1.56779 1.36571,2.96944 2.10781,3.93849 5.933,5.47756 9.88214,3.97609 4.05226,-1.54066 4.71984,0.51101 0.84162,2.58657 -4.15311,2.22268 -6.70978,1.62991 -10.85688,-2.51719 z m 12.10256,-10.01577 c 0,-0.31892 -0.58515,-2.11892 -1.30033,-4 -2.18357,-5.74322 -8.74169,-4.418 -11.11751,2.24654 -0.72037,2.02075 0.0557,2.33333 5.79302,2.33333 3.64365,0 6.62482,-0.26094 6.62482,-0.57987 z m 21.89461,12.02122 c -4.29358,-1.86955 -8.56127,-8.90222 -8.56127,-14.10802 0,-11.3842 12.27607,-19.30094 21.04515,-13.57185 2.47297,1.61566 0.49447,5.94698 -2.21721,4.8539 -1.1887,-0.47916 -2.8846,-1.1676 -3.76865,-1.52986 -2.4503,-1.00405 -8.39263,5.69246 -8.39263,9.4578 0,8.02735 5.44125,12.9199 11.03779,9.92473 1.98248,-1.06099 3.10805,-0.89364 4.7006,0.69891 1.90304,1.90304 1.64964,2.27959 -2.7794,4.13016 -5.79693,2.42211 -5.83197,2.42257 -11.06438,0.14423 z m 45.10539,-0.13309 c -6.09204,-4.3175 -2.71449,-11.05572 6.7025,-13.3715 2.89169,-0.71111 3.38005,-1.29903 2.23005,-2.6847 -1.08841,-1.31145 -2.37299,-1.4318 -4.92521,-0.46145 -2.51873,0.95762 -3.73257,0.86 -4.48711,-0.36089 -1.69917,-2.7493 1.46985,-5.09639 6.88112,-5.09639 7.53193,0 9.26532,2.51623 9.26532,13.44975 0,9.24509 -0.006,9.25907 -3.66667,9.12336 -2.01667,-0.0748 -4.86667,0.23845 -6.33333,0.69601 -1.53488,0.47885 -3.93993,-0.0704 -5.66667,-1.29419 z m 8.22428,-4.11758 c 1.15998,-0.44512 2.10905,-1.92579 2.10905,-3.29037 0,-2.0122 -0.56691,-2.27176 -3,-1.37354 -1.65,0.60913 -3.19399,2.0898 -3.4311,3.29037 -0.45461,2.30194 0.83482,2.71172 4.32205,1.37354 z m 64.10905,4.58713 c -6.5815,-3.90998 -8.09388,-12.75624 -3.23656,-18.93133 5.5386,-7.04119 17.23656,-2.51671 17.23656,6.66667 0,2.93599 -0.50909,3.15352 -7.38024,3.15352 -7.10099,0 -7.32314,0.10671 -5.87093,2.82018 1.22585,2.29052 2.35692,2.68262 6.02248,2.08779 4.54054,-0.73683 7.21987,0.96751 5.00418,3.1832 -2.06806,2.06806 -9.00053,2.66854 -11.77549,1.01997 z m 7.33333,-15.77781 c -1.71979,-3.21347 -3.12657,-3.34961 -5.90476,-0.57143 -2.9426,2.9426 -2.70366,3.2381 2.61834,3.2381 4.30041,0 4.58848,-0.23375 3.28642,-2.66667 z m -334.66665,0.66667 v -15.33334 h 8.77778 c 6.43432,0 8.6271,0.44496 8.21341,1.66667 -0.35392,1.04519 -3.13074,1.66667 -7.44681,1.66667 h -6.88244 l 0.002,5 0.002,5 h 6 c 3.3,0 6,0.6 6,1.33333 0,0.73333 -2.7,1.33333 -6,1.33333 h -6 v 6 6 h 7.33334 c 4.03333,0 7.33333,0.6 7.33333,1.33334 0,0.75213 -3.77778,1.33333 -8.66667,1.33333 h -8.66666 z m 20,14.25904 c 0,-0.59087 1.48006,-3.08041 3.28903,-5.53233 3.39146,-4.59687 3.36056,-4.9046 -1.1088,-11.04365 -1.46161,-2.00765 -2.20104,-4.1067 -1.64317,-4.66457 0.9317,-0.9317 3.0709,1.24015 6.21991,6.31484 1.06593,1.71777 1.53632,1.62369 3.33334,-0.66667 1.15074,-1.46666 2.60618,-3.56166 3.2343,-4.65556 0.62813,-1.09389 1.57485,-1.55608 2.10383,-1.0271 0.52899,0.52898 -0.54718,3.24201 -2.39149,6.02894 l -3.35328,5.06715 3.89788,5.62662 c 2.93627,4.23852 3.39491,5.62662 1.85907,5.62662 -1.12134,0 -2.96963,-1.8 -4.10729,-4 -1.13766,-2.2 -2.63766,-4 -3.33333,-4 -0.69567,0 -2.19567,1.8 -3.33334,4 -1.91323,3.69978 -4.66666,5.42601 -4.66666,2.92571 z m 66.66666,-8.92571 c 0,-5.5 0,-10.3 0,-10.66667 0,-0.36666 0.45,-0.51666 1,-0.33333 0.55,0.18333 0.80561,0.9165 0.56803,1.62925 -0.23759,0.71276 0.70966,0.26276 2.10499,-1 2.77025,-2.50704 6.99365,-3.08834 6.99365,-0.96258 0,0.73333 -1.08,1.33333 -2.4,1.33333 -4.19567,0 -5.6,2.90898 -5.6,11.6 0,4.71111 -0.58554,8.4 -1.33333,8.4 -0.77038,0 -1.33334,-4.22222 -1.33334,-10 z m 13.33333,-1.33333 c 0,-6.66667 0.54902,-11.33334 1.33334,-11.33334 0.78431,0 1.33333,4.66667 1.33333,11.33334 0,6.66666 -0.54902,11.33333 -1.33333,11.33333 -0.78432,0 -1.33334,-4.66667 -1.33334,-11.33333 z m 30.94608,0.33333 c 0.23833,-6.76972 0.90002,-10.74362 1.72059,-10.33333 0.73333,0.36666 1.13895,1.24983 0.90136,1.96258 -0.23758,0.71276 0.70966,0.26276 2.10499,-1 3.16294,-2.86242 7.48523,-2.94719 10.23175,-0.20068 2.39877,2.39877 3.07183,20.57143 0.7619,20.57143 -0.74951,0 -1.33333,-3.72336 -1.33333,-8.50341 0,-10.02039 -1.99872,-12.83647 -7.37282,-10.38787 -3.01277,1.37271 -3.29385,2.24278 -3.29385,10.19603 0,6.94168 -0.41421,8.69525 -2.05392,8.69525 -1.715,0 -1.99002,-1.81516 -1.66667,-11 z m 97.05392,-5 v -16 h 3.33333 c 2.97064,0 3.33334,0.55118 3.33334,5.0656 0,5.04858 0.0164,5.06368 4.89198,4.49449 6.71903,-0.78441 8.44135,1.94176 8.44135,13.36142 0,8.79483 -0.10415,9.07849 -3.33333,9.07849 -3.2173,0 -3.33334,-0.30493 -3.33334,-8.7594 0,-8.32118 -0.15008,-8.73809 -3,-8.33333 -2.69449,0.38267 -3.04042,1.2747 -3.39695,8.7594 -0.37388,7.84884 -0.58706,8.33333 -3.66667,8.33333 h -3.26971 z m 48,4.66667 c 0,-10.44445 0.20915,-11.33334 2.66667,-11.33334 1.46666,0 2.66666,0.72 2.66666,1.6 0,1.24445 0.35556,1.24445 1.6,0 0.88,-0.88 3.59485,-1.6 6.033,-1.6 5.46835,0 7.03367,3.28334 7.03367,14.75347 0,7.55186 -0.15221,7.9132 -3.33333,7.9132 -3.2173,0 -3.33334,-0.30493 -3.33334,-8.7594 0,-8.32118 -0.15008,-8.73809 -3,-8.33333 -2.69449,0.38267 -3.04042,1.2747 -3.39695,8.7594 -0.37388,7.84884 -0.58706,8.33333 -3.66667,8.33333 -3.21428,0 -3.26971,-0.19214 -3.26971,-11.33333 z M 300.7236,206.75879 c -0.42191,-0.68266 -0.15732,-1.61807 0.58798,-2.07869 1.59116,-0.98339 4.02174,0.26476 4.02174,2.06525 0,1.62241 -3.60882,1.63293 -4.60972,0.0134 z m -99.39027,-39.42546 v -24.66667 h 14.73288 c 20.58146,0 26.60045,3.73748 26.60045,16.51746 0,10.77732 -9.74074,17.82004 -22.9098,16.56417 l -5.0902,-0.48543 v 8.36857 8.36856 h -6.66667 -6.66666 z m 25.89014,-5.08813 c 1.31991,-0.96514 2.17897,-2.91514 1.90902,-4.33333 -0.39832,-2.09267 -1.80745,-2.65448 -7.47832,-2.98155 l -6.98751,-0.40302 v 4.73635 c 0,4.59724 0.14916,4.73635 5.07849,4.73635 2.79318,0 6.15842,-0.78966 7.47832,-1.7548 z m 178.10985,27.99724 c -7.71232,-4.02843 -10.69358,-6.78944 -13.42621,-12.43431 -3.72873,-7.70252 -3.12083,-17.6513 1.51674,-24.82271 4.003,-6.19012 14.28726,-11.66372 21.83793,-11.62281 7.01589,0.038 15.90408,4.12483 18.89353,8.6873 2.28038,3.4803 2.27234,3.67317 -0.2294,5.50297 -4.6103,3.37204 -8.23236,3.55327 -11.43237,0.57201 -7.13481,-6.64709 -19.82688,0.18372 -19.82688,10.67072 0,3.80028 3.57534,10.21662 6.59281,11.83153 3.28965,1.76056 8.86438,1.75718 12.16151,-0.007 4.17204,-2.23281 2.97343,-3.95309 -2.75433,-3.95309 h -5.33333 v -6 -6 h 12 12 v 9.76758 c 0,8.42284 -0.41553,10.15795 -3.0182,12.60303 -6.84077,6.42658 -21.57664,9.07316 -28.9818,5.20517 z m 79.27817,-0.74866 c -13.99076,-6.35513 -19.20879,-23.95491 -10.80116,-36.431 8.8728,-13.16634 27.21752,-15.65337 38.22496,-5.18224 2.91392,2.77194 5.29803,5.64178 5.29803,6.37742 0,0.73564 -2.41507,2.2862 -5.36683,3.44568 -5.23735,2.05729 -5.44498,2.03 -8.60606,-1.13108 -4.25111,-4.25111 -10.01207,-4.20165 -15.16012,0.13015 -5.13369,4.31971 -6.37356,9.79099 -3.56162,15.71671 3.7191,7.8374 13.06299,10.00009 18.72832,4.33476 3.20471,-3.20471 3.31351,-3.21737 8.5925,-1 2.94068,1.2352 5.35279,2.64978 5.36025,3.14351 0.007,0.49374 -1.47947,2.67207 -3.30428,4.84073 -6.86286,8.15604 -18.92237,10.5165 -29.40399,5.75536 z m 52,0 c -14.51953,-6.59531 -19.24332,-24.44601 -9.88702,-37.36201 9.43549,-13.02531 30.2058,-14.21841 41.12334,-2.36222 6.08214,6.60505 7.65859,21.28532 3.17472,29.56378 -5.91906,10.92821 -22.16227,15.72429 -34.41104,10.16045 z m 19.87334,-13.00894 c 2.81639,-2.81638 3.51515,-4.78069 3.51515,-9.88147 0,-5.47213 -0.57619,-6.85116 -4.1023,-9.81818 -5.55656,-4.67554 -11.03161,-4.52307 -16.00026,0.44557 -8.38068,8.38068 -3.26042,22.76923 8.10256,22.76923 3.59178,0 5.94433,-0.97462 8.48485,-3.51515 z m 59.51515,14.18806 -7.33333,-0.67291 -3.83299,-7.66666 c -2.62233,-5.24513 -4.62273,-7.66667 -6.33333,-7.66667 -2.16709,0 -2.50035,1.06628 -2.50035,8 v 8 h -6.66666 -6.66667 v -24 -24 l 15,0.005 c 12.51519,0.004 15.7058,0.43534 19.26071,2.6029 8.37704,5.10781 9.00257,20.98549 1.03249,26.20768 l -3.26319,2.13813 4.80496,8.59207 c 2.64273,4.72565 4.58598,8.71387 4.31833,8.86272 -0.26765,0.14886 -3.78663,-0.0322 -7.81997,-0.40225 z m -5.53416,-31.25144 c 0.67072,-3.52377 -3.28329,-6.08813 -9.38734,-6.08813 -4.92934,0 -5.0785,0.13911 -5.0785,4.73635 v 4.73634 l 6.98751,-0.40301 c 5.67087,-0.32708 7.08,-0.88888 7.47833,-2.98155 z m -359.79916,7.2452 v -24 h 18 18 V 148 v 5.33333 h -11.33333 c -11.2,0 -11.33334,0.0392 -11.33334,3.33333 0,3.27778 0.17778,3.33334 10.66667,3.33334 h 10.66667 v 6 6 h -10.66667 -10.66667 v 4 3.99999 h 11.33334 11.33333 v 5.33334 5.33333 h -18 -18 z m 46.66666,0 v -24 h 5.96238 5.96237 L 309.62903,161 l 0.37096,18.33333 9.66667,0.39174 9.66666,0.39175 v 5.27492 5.27492 h -16 -16 z m 37.55556,22.92842 c 0.24444,-0.58937 4.31713,-11.38937 9.0504,-24 l 8.60596,-22.92842 h 8.27622 8.27621 l 3.4203,9 c 9.48257,24.95196 12.57827,33.2603 13.41365,36 0.87222,2.86056 0.57087,3 -6.48304,3 -6.77898,0 -7.46777,-0.27882 -8.2344,-3.33333 -0.79151,-3.15362 -1.33381,-3.33334 -10.0584,-3.33334 -8.60973,0 -9.30591,0.22124 -10.48912,3.33334 -1.14389,3.00864 -1.99568,3.33333 -8.74478,3.33333 -4.11259,0 -7.27745,-0.48221 -7.033,-1.07158 z m 30.47039,-19.92842 c -0.61668,-2.01666 -1.87506,-5.73592 -2.79641,-8.265 l -1.67517,-4.59834 -1.58671,4.59834 c -3.80034,11.01345 -3.89474,10.38119 1.6359,10.95661 2.78471,0.28973 5.17123,0.62765 5.30337,0.75092 0.13214,0.12328 -0.2643,-1.42586 -0.88098,-3.44253 z m 82.64072,-3 v -24 h 6.66666 6.66667 v 24 24 h -6.66667 -6.66666 z m 183.99999,0 v -24 h 18 18 V 148 v 5.33333 h -11.33333 c -11.2,0 -11.33334,0.0392 -11.33334,3.33333 0,3.29412 0.13334,3.33334 11.33334,3.33334 h 11.33333 v 6 6 h -11.33333 -11.33334 v 4 3.99999 h 11.33334 11.33333 v 5.33334 5.33333 h -18 -18 z m -517.53213,15.06468 c -5.01854,-5.83487 -3.6341,-12.37246 3.22142,-15.21211 5.04662,-2.09038 10.31036,0.43333 12.21812,5.85803 2.79336,7.94287 -9.99133,15.68851 -15.43954,9.35408 z"
         id="path8" />
      <path
         style="fill:#f7d3a0"
         d="M 75.068071,242.66606 C 60.869446,234.5229 48.405502,218.26 43.460505,201.42466 c -2.733581,-9.30653 -2.733581,-26.87613 0,-36.18266 6.88395,-23.43655 25.011613,-41.56421 48.448161,-48.44816 10.193944,-2.99424 27.126014,-2.75844 37.617554,0.52388 23.16807,7.24822 41.724,26.71588 47.06516,49.37769 5.70117,24.1893 -0.74917,47.07119 -18.33617,65.04561 -6.7498,6.89847 -20.35485,15.93712 -21.80537,14.48659 -0.3989,-0.3989 -1.9422,-6.26319 -3.42956,-13.03177 l -2.70429,-12.30649 3.84201,-2.76941 c 11.80395,-8.5086 16.96524,-18.49664 17.63135,-34.11995 0.45461,-10.66274 0.76537,-11.68834 5.25213,-17.33333 2.62291,-3.3 5.29033,-6.69611 5.9276,-7.54692 0.84159,-1.12359 -1.68659,-1.80578 -9.23854,-2.49285 -9.19531,-0.83659 -11.06249,-1.48565 -16.15224,-5.61476 -15.20583,-12.33586 -36.05226,-13.3762 -51.717221,-2.58094 -19.054034,13.13079 -23.976444,39.18651 -11.081026,58.65504 2.281198,3.44398 6.486489,7.90847 9.345091,9.9211 5.754935,4.05183 5.638274,2.58971 1.648374,20.65933 -1.092995,4.95 -2.389172,8.99437 -2.880392,8.98749 -0.491221,-0.007 -4.012495,-1.80153 -7.825055,-3.98809 z M 242.66666,228.95237 c 0,-13.36606 0.26075,-15.06994 2.33333,-15.24741 1.28334,-0.10989 3.92462,-0.59718 5.86951,-1.08287 5.1605,-1.28872 9.13049,3.11683 9.13049,10.13223 0,9.2951 -4.96028,14.30151 -11.66666,11.77514 -2.79753,-1.05386 -3,-0.7724 -3,4.1702 0,2.91518 -0.6,5.30033 -1.33334,5.30033 -0.81012,0 -1.33333,-5.90476 -1.33333,-15.04762 z m 12.22835,2.17431 c 1.61512,-1.46167 2.43832,-4.0725 2.43832,-7.73334 0,-6.12916 -1.78592,-8.72668 -6,-8.72668 -4.42494,0 -6,2.66945 -6,10.1689 0,5.51587 0.4865,7.09604 2.33333,7.57867 4.10847,1.07365 4.74442,0.96037 7.22835,-1.28755 z m 247.43831,11.43318 c -2.56296,-1.49278 -3.13778,-5.90532 -0.94576,-7.26005 0.76316,-0.47166 1.01359,-2.03587 0.5565,-3.47601 -0.45708,-1.44014 -0.15235,-3.43623 0.67718,-4.43575 1.03738,-1.24997 1.07177,-2.08707 0.11016,-2.68138 -2.26512,-1.39991 -1.60031,-8.11036 1.04024,-10.50003 3.3074,-2.99315 17.56168,-3.16089 17.56168,-0.20665 0,1.1 -0.91143,2 -2.0254,2 -1.47525,0 -1.80604,0.87405 -1.21779,3.21779 1.08369,4.31778 -3.40783,8.78221 -8.8355,8.78221 -2.3796,0 -3.73541,0.55544 -3.25464,1.33334 0.45322,0.73333 2.92808,1.33333 5.49967,1.33333 2.5716,0 5.83619,0.62111 7.25465,1.38025 3.49858,1.87238 3.28716,7.30586 -0.38433,9.87748 -3.33414,2.33532 -12.49495,2.69833 -16.03666,0.63547 z m 13.37578,-5.02054 c 0.31389,-0.94166 -1.08308,-1.53933 -3.598,-1.53933 -2.26111,0 -4.5529,-0.15 -5.09285,-0.33333 -0.53996,-0.18333 -1.17421,0.66608 -1.40945,1.88758 -0.7451,3.86897 8.81037,3.85486 10.1003,-0.0149 z m -3.04245,-17.53933 c 0,-3.80083 -4.20837,-5.4124 -5.48002,-2.09854 -1.21306,3.16119 0.50334,6.35378 3.14266,5.84549 1.47603,-0.28426 2.33736,-1.66503 2.33736,-3.74695 z m -151.21237,14.45764 c -4.61673,-1.71813 -6.69673,-5.06438 -6.74522,-10.85158 -0.0304,-3.63282 0.88095,-5.98396 3.23032,-8.33333 3.73962,-3.73962 7.08126,-4.14048 10.80577,-1.29627 2.41348,1.84305 2.29325,1.92131 -1.78135,1.15943 -6.02044,-1.12572 -9.63048,2.26299 -9.63048,9.04003 0,6.63586 4.82576,10.42423 10.1744,7.98723 2.5939,-1.18186 3.27496,-1.17787 2.87671,0.0169 -0.81062,2.43186 -5.38248,3.59791 -8.93015,2.27763 z m 52.25789,0.48093 c -1.62497,-0.24499 -4.47497,-2.25243 -6.33334,-4.46097 -7.77881,-9.24459 -2.0227,-25.6776 8.99429,-25.6776 5.93793,0 9.67524,2.73187 7.43315,5.43342 -1.08224,1.30402 -1.98554,1.45399 -2.94977,0.48976 -4.4138,-4.4138 -11.52318,1.30966 -11.52318,9.27682 0,3.55556 0.88889,6.22223 2.66667,8 3.04989,3.0499 4.41708,3.25086 8.2308,1.20982 3.5365,-1.89268 6.30881,0.39681 3.93864,3.25269 -1.77544,2.13927 -6.02196,3.14475 -10.45726,2.47606 z m 44.07174,-0.35576 c -3.5795,-1.33705 -5.06108,-5.61741 -3.16845,-9.15382 0.78643,-1.46946 3.90275,-3.33762 6.92515,-4.15147 4.82679,-1.29972 5.25761,-1.71738 3.54157,-3.43341 -1.47651,-1.47652 -2.79653,-1.63325 -5.4045,-0.6417 -2.65611,1.00985 -3.61904,0.87362 -4.18127,-0.59153 -0.91167,-2.37578 3.06772,-4.61088 8.20927,-4.61088 6.19036,0 8.29431,3.53278 8.29431,13.92717 0,8.54772 -0.1561,9.0097 -2.80977,8.31575 -1.54536,-0.40413 -4.09536,-0.25069 -5.66666,0.34096 -1.5713,0.59165 -4.15414,0.59117 -5.73965,-10e-4 z m 8.64214,-7.58281 c 0.50703,-3.57006 -2.52252,-4.0464 -5.67641,-0.8925 -2.63592,2.63592 -1.41709,4.84264 2.37616,4.30208 1.80308,-0.25694 3.03297,-1.52757 3.30025,-3.40958 z m 64.6005,7.95661 c -7.82024,-1.23204 -11.04837,-13.72268 -5.08717,-19.68388 6.18903,-6.18903 15.17472,-3.02139 15.78742,5.56539 0.2654,3.71952 0.0736,3.84004 -6.73626,4.23189 -6.62078,0.38098 -6.92783,0.55584 -5.5376,3.15351 1.18853,2.22078 2.34531,2.60843 6.00945,2.01382 2.49568,-0.40499 4.53759,-0.17407 4.53759,0.51316 0,0.68723 -0.0114,1.6995 -0.0254,2.2495 -0.0348,1.37019 -5.32617,2.52723 -8.94808,1.95661 z m 6.30677,-14.79335 c 0,-2.52164 -4.17863,-4.70361 -6.36574,-3.32401 -4.06863,2.56642 -3.38751,4.49409 1.58796,4.49409 2.62778,0 4.77778,-0.52654 4.77778,-1.17008 z m -335.99999,-0.16326 v -14.66666 l 9,0.25211 9,0.25211 -7.66667,0.4811 -7.66667,0.48109 v 5.26679 5.2668 h 6 c 3.3,0 6,0.6 6,1.33333 0,0.73333 -2.7,1.33333 -6,1.33333 h -6 v 6 6 h 7.33334 c 4.03333,0 7.33333,0.6 7.33333,1.33334 0,0.75213 -3.77778,1.33333 -8.66667,1.33333 h -8.66666 z m 20,13.8725 c 0,-0.4368 1.10162,-2.3868 2.44804,-4.33334 1.34643,-1.94653 2.81989,-4.18893 3.27437,-4.98309 0.45447,-0.79416 -0.66878,-3.64416 -2.49612,-6.33333 -4.01633,-5.91057 -1.97147,-6.61714 2.19924,-0.75992 l 2.94046,4.12949 2.6146,-4.12949 c 1.43804,-2.27121 3.16322,-4.12948 3.83373,-4.12948 0.67052,0 -0.24672,2.32205 -2.03831,5.16012 l -3.25744,5.16012 3.24071,4.76914 c 3.42717,5.04353 3.86279,6.25422 2.24072,6.22745 -0.55,-0.009 -2.4155,-2.20058 -4.14555,-4.87001 l -3.14555,-4.8535 -2.78319,4.87 c -2.45888,4.30252 -4.92571,6.34373 -4.92571,4.07584 z m 45.90362,-1.979 c -3.98096,-4.39891 -3.37959,-12.76159 1.20103,-16.70167 2.04089,-1.75551 4.60453,-3.19183 5.69697,-3.19183 2.91056,0 8.53171,6.10938 8.53171,9.27273 0,2.44781 -0.82897,2.72727 -8.08985,2.72727 -7.76463,0 -8.05403,0.12061 -7.1987,3 1.38621,4.66659 4.70354,6.59037 9.75313,5.65602 2.99475,-0.55413 4.17598,-0.35914 3.58798,0.59228 -1.59013,2.57287 -10.76186,1.65123 -13.48227,-1.3548 z m 12.76304,-11.62683 c 0,-5.81738 -7.75731,-7.63421 -11.25773,-2.63666 -3.14258,4.48667 -2.64125,5.03666 4.59107,5.03666 5.53086,0 6.66666,-0.40889 6.66666,-2.4 z m 8.30858,3.73333 c -0.0539,-6.23333 0.21681,-10.54665 0.60163,-9.58515 0.54586,1.36384 1.24462,1.25501 3.17841,-0.49505 1.63683,-1.48131 3.28811,-1.88218 4.86172,-1.18025 2.1467,0.95756 2.09512,1.11374 -0.52018,1.57509 -4.52448,0.79813 -6.36373,4.07798 -7.22684,12.88735 -0.76701,7.82842 -0.80034,7.70913 -0.89474,-3.20199 z m 13.02475,0 c 0,-6.22222 0.55556,-10.66666 1.33334,-10.66666 0.77778,0 1.33333,4.44444 1.33333,10.66666 0,6.22223 -0.55555,10.66667 -1.33333,10.66667 -0.77778,0 -1.33334,-4.44444 -1.33334,-10.66667 z m 11.23696,7.8935 c -3.98096,-4.39891 -3.37959,-12.76159 1.20103,-16.70167 2.0409,-1.75551 4.60453,-3.19183 5.69697,-3.19183 2.91056,0 8.53171,6.10938 8.53171,9.27273 0,2.44445 -0.82963,2.72727 -8,2.72727 -4.4,0 -8,0.33945 -8,0.75433 0,1.43035 3.0694,6.58148 4.53294,7.60726 0.80688,0.56555 3.47612,0.67728 5.93164,0.2483 2.98352,-0.52122 4.17378,-0.30944 3.58798,0.63841 -1.59012,2.57287 -10.76186,1.65123 -13.48227,-1.3548 z m 12.76304,-10.64782 c 0,-6.3377 -7.63385,-8.78948 -11.25772,-3.61567 -3.14259,4.48667 -2.64125,5.03666 4.59106,5.03666 3.82971,0 6.66666,-0.60469 6.66666,-1.42099 z m 8.10527,2.42099 c 0.0579,-6.05 0.40762,-10.25081 0.77717,-9.33513 0.51766,1.28264 1.32688,1.20611 3.52475,-0.33334 7.2334,-5.06646 11.59281,-0.63912 11.59281,11.77346 0,5.04112 -0.57768,8.89501 -1.33333,8.89501 -0.73869,0 -1.33333,-3.51921 -1.33333,-7.89095 0,-9.88194 -0.84653,-12.10905 -4.60267,-12.10905 -5.27543,0 -7.71022,4.2593 -7.19241,12.58203 0.25396,4.08188 0.0117,7.42079 -0.53826,7.41979 -0.55,-10e-4 -0.95263,-4.95182 -0.89473,-11.00182 z m 42.65817,7.48686 c -3.96452,-5.04008 -3.55359,-10.5685 1.134,-15.25609 2.14359,-2.14359 4.87086,-3.89744 6.0606,-3.89744 3.05533,0 8.70863,6.0195 8.70863,9.27273 0,2.44445 -0.82963,2.72727 -8,2.72727 -8.90755,0 -10.24977,1.75023 -5.20839,6.79162 2.21982,2.21982 3.74876,2.61205 7.46458,1.91496 3.15541,-0.59196 4.38829,-0.41604 3.79637,0.54172 -0.48214,0.7801 -3.19765,1.41837 -6.03448,1.41837 -3.98403,0 -5.78677,-0.79952 -7.92131,-3.51314 z m 13.23656,-9.90785 c 0,-6.3377 -7.63385,-8.78948 -11.25773,-3.61567 -3.14258,4.48667 -2.64125,5.03666 4.59107,5.03666 3.82971,0 6.66666,-0.60469 6.66666,-1.42099 z m 40,-2.57901 v -16 h 3.33333 c 2.99113,0 3.33334,0.53892 3.33334,5.24951 0,5.21523 0.0293,5.24475 4.48905,4.52103 6.34921,-1.03034 8.84428,2.87957 8.84428,13.85947 0,7.41291 -0.29765,8.36999 -2.60304,8.36999 -2.26184,0 -2.65508,-1.09234 -3,-8.33333 -0.37604,-7.89415 -0.57263,-8.33334 -3.73029,-8.33334 -3.15766,0 -3.35426,0.43919 -3.73029,8.33334 -0.37388,7.84884 -0.58706,8.33333 -3.66667,8.33333 h -3.26971 z m 48,4.66667 c 0,-10.44445 0.20915,-11.33334 2.66667,-11.33334 1.46666,0 2.66666,0.62111 2.66666,1.38025 0,0.95144 0.80124,0.95144 2.57901,0 7.67879,-4.10956 12.08766,0.60159 12.08766,12.91643 0,7.87296 -0.18423,8.36999 -3.10241,8.36999 -2.68717,0 -3.02401,-0.53419 -2.51663,-3.99119 0.32218,-2.19516 0.18409,-6.13241 -0.30687,-8.74945 -0.73701,-3.92861 -1.40249,-4.6857 -3.8167,-4.34214 -2.60244,0.37035 -2.96772,1.3327 -3.32101,8.74945 -0.37388,7.84884 -0.58706,8.33333 -3.66667,8.33333 -3.21428,0 -3.26971,-0.19214 -3.26971,-11.33333 z m -176,-17.33334 c 0,-1.22222 0.6,-2.02222 1.33334,-1.77777 1.56838,0.52279 1.48574,2.12061 -0.16667,3.22222 -0.64167,0.42778 -1.16667,-0.22222 -1.16667,-1.44445 z m 103.33334,-16.52005 c -13.07206,-6.03314 -18.5919,-20.1773 -12.82712,-32.86844 7.07378,-15.57288 27.86806,-20.09432 40.05552,-8.70953 2.25771,2.10902 4.10493,4.38273 4.10493,5.05269 0,0.66996 -2.14215,2.23962 -4.76034,3.48815 -4.57782,2.18301 -4.89143,2.16692 -8.17981,-0.41972 -4.67759,-3.67939 -11.35026,-3.45894 -15.9855,0.52813 -3.20234,2.75453 -3.74102,4.21108 -3.74102,10.11544 0,5.90436 0.53868,7.36091 3.74102,10.11545 5.23778,4.50534 16.92565,4.32712 16.92565,-0.2581 0,-1.27802 -1.66354,-1.85735 -5.33334,-1.85735 h -5.33333 v -6 -6 h 12 12 v 9.88148 c 0,9.36507 -0.2112,10.05919 -4.04141,13.28209 -7.54109,6.34542 -19.48491,7.86825 -28.62525,3.64971 z m 81.54024,0.57519 c -10.45893,-3.72912 -15.96723,-11.92205 -15.97781,-23.76504 -0.006,-6.37701 0.66543,-8.66155 3.88201,-13.21459 5.23407,-7.40878 12.57509,-11.0968 21.88889,-10.99665 8.51849,0.0916 14.5963,2.87152 18.61399,8.51384 l 2.82423,3.96626 -5.3277,2.718 -5.32771,2.71799 -3.3308,-3.33081 c -8.77529,-8.77529 -23.35228,0.92686 -20.209,13.45069 2.38977,9.52163 15.04662,13.50856 20.57449,6.48101 l 2.67771,-3.40416 5.44452,2.77758 c 5.83362,2.97609 5.91858,4.72904 0.4683,9.66148 -6.61229,5.98404 -16.93702,7.7275 -26.20112,4.4244 z m 53.5149,0.70465 c -14.83238,-4.79008 -21.77237,-23.01976 -13.99292,-36.756 8.46836,-14.95264 32.69935,-16.21223 43.34637,-2.25327 3.17687,4.1651 3.5914,5.88675 3.5914,14.91615 0,9.12692 -0.39548,10.72608 -3.73559,15.10519 -2.05458,2.69369 -5.57209,5.8473 -7.81669,7.00803 -4.90003,2.53391 -16.38557,3.5969 -21.39257,1.9799 z m 15.87947,-12.76392 c 4.2928,-3.00679 6.28996,-10.26532 4.40008,-15.99173 -0.84633,-2.56439 -2.82636,-5.56439 -4.40008,-6.66667 -3.69453,-2.58774 -11.53386,-2.56966 -15.25279,0.0352 -6.26735,4.38982 -6.26735,18.19822 0,22.58804 3.71893,2.60485 11.55826,2.62293 15.25279,0.0352 z m -354.26794,-11.3292 v -24 h 14.13182 c 10.3176,0 15.37166,0.58834 18.72541,2.1798 8.27195,3.9253 10.93969,14.42987 5.80384,22.85344 -3.28669,5.39065 -7.22642,6.96676 -17.41454,6.96676 h -7.9132 v 8 8 h -6.66667 -6.66666 z m 25.89095,-3.47598 c 1.15997,-0.44513 2.10905,-2.25998 2.10905,-4.033 0,-3.59192 -4.12173,-5.82435 -10.75347,-5.82435 -3.67651,0 -3.9132,0.32258 -3.9132,5.33333 0,5.31478 0.0182,5.33334 5.22428,5.33334 2.87336,0 6.17336,-0.3642 7.33334,-0.80932 z m 23.44238,3.47598 v -24 h 18 18 V 148 v 5.33333 h -11.33333 -11.33334 v 4 4 h 10.66667 10.66667 V 166.66666 172 h -11.10241 -11.10241 l 0.58707,4 0.58708,3.99999 h 11.182 11.182 v 5.33334 5.33333 h -18 -18 z m 46.66666,0 v -24 h 6 6 v 18.66667 18.66666 h 10 10 v 5.33334 5.33333 h -16 -16 z m 40.62908,15.66667 c 1.74554,-4.58333 5.76808,-15.38174 8.93898,-23.99647 l 5.76528,-15.66313 8.11306,-0.004 8.11306,-0.004 L 377.29103,165 c 4.61904,12.28333 8.68235,23.08333 9.02959,23.99999 0.45752,1.20781 -1.38712,1.66667 -6.7001,1.66667 -6.70822,0 -7.40256,-0.28336 -8.16806,-3.33333 -0.79279,-3.15874 -1.32587,-3.33334 -10.17754,-3.33334 -8.73682,0 -9.4229,0.21558 -10.60826,3.33334 -1.13899,2.99576 -2.00716,3.33333 -8.57265,3.33333 h -7.30531 z m 28.37445,-10.66667 c -0.33831,-0.91666 -1.70063,-4.96666 -3.02737,-9 L 360.89721,155.33333 358.55194,162 c -3.66766,10.42567 -3.43348,11.33333 2.92403,11.33333 3.81996,0 5.28997,-0.50403 4.86088,-1.66667 z m 81.66314,-5 v -24 h 6.66666 6.66667 v 24 24 h -6.66667 -6.66666 z m 134.66666,0 v -24 h 14.79428 c 16.8977,0 21.06875,1.54188 24.66345,9.11714 2.924,6.16187 1.66751,12.92829 -3.36486,18.12038 l -4.0033,4.13036 4.60915,8.31606 4.60916,8.31606 h -7.30141 -7.30142 l -4.03838,-8 c -3.3059,-6.54895 -4.63951,-8 -7.35253,-8 -3.16173,0 -3.31414,0.36791 -3.31414,8 v 8 h -6 -6 z m 25.42099,-4.04691 c 1.41845,-0.75913 2.57901,-2.53802 2.57901,-3.95309 0,-3.379 -3.87654,-5.33333 -10.57901,-5.33333 -5.2549,0 -5.42099,0.13617 -5.42099,4.44444 0,2.44445 0.4,4.84445 0.88889,5.33334 1.37447,1.37447 9.6522,1.04992 12.5321,-0.49136 z m 23.91234,4.04691 v -24 h 18 18 V 148 v 5.33333 h -11.33333 -11.33334 v 4 4 h 11.33334 11.33333 V 166.66666 172 h -11.33333 -11.33334 v 4 3.99999 h 11.33334 11.33333 v 5.33334 5.33333 h -18 -18 z m -517.7348,14.95969 c -2.84114,-3.13942 -2.93419,-10.1002 -0.17195,-12.86245 8.10698,-8.10697 20.98464,1.99965 14.19215,11.13826 -3.29357,4.43117 -10.7415,5.34711 -14.0202,1.72419 z"
         id="path7" />
      <path
         style="fill:#a0a1a1"
         d="M 76.696995,243.0917 C 73.04701,241.19376 66.290933,235.87118 61.683491,231.26373 28.553495,198.13374 38.211594,141.94807 80.48763,121.87127 c 41.50437,-19.71034 89.8682,5.90706 96.91656,51.33485 4.23959,27.32478 -10.3646,57.05556 -34.30374,69.83456 l -6.89954,3.68306 -1.54991,-7.69521 c -0.85246,-4.23236 -2.06618,-10.08897 -2.69718,-13.01468 -0.90785,-4.20939 -0.72776,-5.55424 0.86294,-6.44444 5.62804,-3.14961 11.57054,-10.02891 15.42297,-17.8543 3.6039,-7.32057 4.30955,-10.29568 4.38795,-18.50033 0.0906,-9.48073 0.28104,-10.03095 6.28649,-18.16251 l 6.19307,-8.38561 -10.88463,-0.3926 c -9.92244,-0.3579 -11.23844,-0.73279 -14.88696,-4.2409 -2.20127,-2.11656 -7.30232,-5.52075 -11.33565,-7.56488 -9.63178,-4.88147 -25.18545,-5.26659 -34.900896,-0.86419 -8.78378,3.98024 -17.745461,12.72865 -22.065661,21.54056 -3.094031,6.3109 -3.687803,9.23945 -3.687803,18.18868 0,13.51762 4.212304,22.95787 14.28484,32.01395 l 6.82951,6.14032 -2.371186,12.58953 c -1.304152,6.92424 -2.457651,12.56159 -2.56333,12.52745 -0.105679,-0.0342 -3.178494,-1.61494 -6.828479,-3.51288 z M 242.66666,228.95237 c 0,-13.36606 0.26075,-15.06994 2.33333,-15.24741 1.28334,-0.10989 3.92462,-0.59718 5.86951,-1.08287 5.1605,-1.28872 9.13049,3.11683 9.13049,10.13223 0,9.2951 -4.96028,14.30151 -11.66666,11.77514 -2.79753,-1.05386 -3,-0.7724 -3,4.1702 0,2.91518 -0.6,5.30033 -1.33334,5.30033 -0.81012,0 -1.33333,-5.90476 -1.33333,-15.04762 z m 12.22835,2.17431 c 1.61512,-1.46167 2.43832,-4.0725 2.43832,-7.73334 0,-6.12916 -1.78592,-8.72668 -6,-8.72668 -4.42494,0 -6,2.66945 -6,10.1689 0,5.51587 0.4865,7.09604 2.33333,7.57867 4.10847,1.07365 4.74442,0.96037 7.22835,-1.28755 z m 247.43831,11.43318 c -2.56296,-1.49278 -3.13778,-5.90532 -0.94576,-7.26005 0.76316,-0.47166 1.01359,-2.03587 0.5565,-3.47601 -0.45708,-1.44014 -0.15235,-3.43623 0.67718,-4.43575 1.03738,-1.24997 1.07177,-2.08707 0.11016,-2.68138 -2.26512,-1.39991 -1.60031,-8.11036 1.04024,-10.50003 3.3074,-2.99315 17.56168,-3.16089 17.56168,-0.20665 0,1.1 -0.91143,2 -2.0254,2 -1.47525,0 -1.80604,0.87405 -1.21779,3.21779 1.08369,4.31778 -3.40783,8.78221 -8.8355,8.78221 -2.3796,0 -3.73541,0.55544 -3.25464,1.33334 0.45322,0.73333 2.92808,1.33333 5.49967,1.33333 2.5716,0 5.83619,0.62111 7.25465,1.38025 3.49858,1.87238 3.28716,7.30586 -0.38433,9.87748 -3.33414,2.33532 -12.49495,2.69833 -16.03666,0.63547 z m 13.37578,-5.02054 c 0.31389,-0.94166 -1.08308,-1.53933 -3.598,-1.53933 -2.26111,0 -4.5529,-0.15 -5.09285,-0.33333 -0.53996,-0.18333 -1.17421,0.66608 -1.40945,1.88758 -0.7451,3.86897 8.81037,3.85486 10.1003,-0.0149 z m -3.04245,-17.53933 c 0,-3.80083 -4.20837,-5.4124 -5.48002,-2.09854 -1.21306,3.16119 0.50334,6.35378 3.14266,5.84549 1.47603,-0.28426 2.33736,-1.66503 2.33736,-3.74695 z m -151.21237,14.45764 c -4.61673,-1.71813 -6.69673,-5.06438 -6.74522,-10.85158 -0.0304,-3.63282 0.88095,-5.98396 3.23032,-8.33333 3.73962,-3.73962 7.08126,-4.14048 10.80577,-1.29627 2.41348,1.84305 2.29325,1.92131 -1.78135,1.15943 -6.02044,-1.12572 -9.63048,2.26299 -9.63048,9.04003 0,6.63586 4.82576,10.42423 10.1744,7.98723 2.5939,-1.18186 3.27496,-1.17787 2.87671,0.0169 -0.81062,2.43186 -5.38248,3.59791 -8.93015,2.27763 z m 52.25789,0.48093 c -1.62497,-0.24499 -4.47497,-2.25243 -6.33334,-4.46097 -7.77881,-9.24459 -2.0227,-25.6776 8.99429,-25.6776 5.93793,0 9.67524,2.73187 7.43315,5.43342 -1.08224,1.30402 -1.98554,1.45399 -2.94977,0.48976 -4.4138,-4.4138 -11.52318,1.30966 -11.52318,9.27682 0,3.55556 0.88889,6.22223 2.66667,8 3.04989,3.0499 4.41708,3.25086 8.2308,1.20982 3.5365,-1.89268 6.30881,0.39681 3.93864,3.25269 -1.77544,2.13927 -6.02196,3.14475 -10.45726,2.47606 z m 44.07174,-0.35576 c -3.5795,-1.33705 -5.06108,-5.61741 -3.16845,-9.15382 0.78643,-1.46946 3.90275,-3.33762 6.92515,-4.15147 4.82679,-1.29972 5.25761,-1.71738 3.54157,-3.43341 -1.47651,-1.47652 -2.79653,-1.63325 -5.4045,-0.6417 -2.65611,1.00985 -3.61904,0.87362 -4.18127,-0.59153 -0.91167,-2.37578 3.06772,-4.61088 8.20927,-4.61088 6.19036,0 8.29431,3.53278 8.29431,13.92717 0,8.54772 -0.1561,9.0097 -2.80977,8.31575 -1.54536,-0.40413 -4.09536,-0.25069 -5.66666,0.34096 -1.5713,0.59165 -4.15414,0.59117 -5.73965,-10e-4 z m 8.64214,-7.58281 c 0.50703,-3.57006 -2.52252,-4.0464 -5.67641,-0.8925 -2.63592,2.63592 -1.41709,4.84264 2.37616,4.30208 1.80308,-0.25694 3.03297,-1.52757 3.30025,-3.40958 z m 64.6005,7.95661 c -7.82024,-1.23204 -11.04837,-13.72268 -5.08717,-19.68388 6.18903,-6.18903 15.17472,-3.02139 15.78742,5.56539 0.2654,3.71952 0.0736,3.84004 -6.73626,4.23189 -6.62078,0.38098 -6.92783,0.55584 -5.5376,3.15351 1.18853,2.22078 2.34531,2.60843 6.00945,2.01382 2.49568,-0.40499 4.53759,-0.17407 4.53759,0.51316 0,0.68723 -0.0114,1.6995 -0.0254,2.2495 -0.0348,1.37019 -5.32617,2.52723 -8.94808,1.95661 z m 6.30677,-14.79335 c 0,-2.52164 -4.17863,-4.70361 -6.36574,-3.32401 -4.06863,2.56642 -3.38751,4.49409 1.58796,4.49409 2.62778,0 4.77778,-0.52654 4.77778,-1.17008 z m -335.99999,-0.16326 v -14.66666 l 9,0.25211 9,0.25211 -7.66667,0.4811 -7.66667,0.48109 v 5.26679 5.2668 h 6 c 3.3,0 6,0.6 6,1.33333 0,0.73333 -2.7,1.33333 -6,1.33333 h -6 v 6 6 h 7.33334 c 4.03333,0 7.33333,0.6 7.33333,1.33334 0,0.75213 -3.77778,1.33333 -8.66667,1.33333 h -8.66666 z m 20,13.8725 c 0,-0.4368 1.10162,-2.3868 2.44804,-4.33334 1.34643,-1.94653 2.81989,-4.18893 3.27437,-4.98309 0.45447,-0.79416 -0.66878,-3.64416 -2.49612,-6.33333 -4.01633,-5.91057 -1.97147,-6.61714 2.19924,-0.75992 l 2.94046,4.12949 2.6146,-4.12949 c 1.43804,-2.27121 3.16322,-4.12948 3.83373,-4.12948 0.67052,0 -0.24672,2.32205 -2.03831,5.16012 l -3.25744,5.16012 3.24071,4.76914 c 3.42717,5.04353 3.86279,6.25422 2.24072,6.22745 -0.55,-0.009 -2.4155,-2.20058 -4.14555,-4.87001 l -3.14555,-4.8535 -2.78319,4.87 c -2.45888,4.30252 -4.92571,6.34373 -4.92571,4.07584 z m 45.90362,-1.979 c -3.98096,-4.39891 -3.37959,-12.76159 1.20103,-16.70167 2.04089,-1.75551 4.60453,-3.19183 5.69697,-3.19183 2.91056,0 8.53171,6.10938 8.53171,9.27273 0,2.44781 -0.82897,2.72727 -8.08985,2.72727 -7.76463,0 -8.05403,0.12061 -7.1987,3 1.38621,4.66659 4.70354,6.59037 9.75313,5.65602 2.99475,-0.55413 4.17598,-0.35914 3.58798,0.59228 -1.59013,2.57287 -10.76186,1.65123 -13.48227,-1.3548 z m 12.76304,-11.62683 c 0,-5.81738 -7.75731,-7.63421 -11.25773,-2.63666 -3.14258,4.48667 -2.64125,5.03666 4.59107,5.03666 5.53086,0 6.66666,-0.40889 6.66666,-2.4 z m 8.30858,3.73333 c -0.0539,-6.23333 0.21681,-10.54665 0.60163,-9.58515 0.54586,1.36384 1.24462,1.25501 3.17841,-0.49505 1.63683,-1.48131 3.28811,-1.88218 4.86172,-1.18025 2.1467,0.95756 2.09512,1.11374 -0.52018,1.57509 -4.52448,0.79813 -6.36373,4.07798 -7.22684,12.88735 -0.76701,7.82842 -0.80034,7.70913 -0.89474,-3.20199 z m 13.02475,0 c 0,-6.22222 0.55556,-10.66666 1.33334,-10.66666 0.77778,0 1.33333,4.44444 1.33333,10.66666 0,6.22223 -0.55555,10.66667 -1.33333,10.66667 -0.77778,0 -1.33334,-4.44444 -1.33334,-10.66667 z m 11.23696,7.8935 c -3.98096,-4.39891 -3.37959,-12.76159 1.20103,-16.70167 2.0409,-1.75551 4.60453,-3.19183 5.69697,-3.19183 2.91056,0 8.53171,6.10938 8.53171,9.27273 0,2.44445 -0.82963,2.72727 -8,2.72727 -4.4,0 -8,0.33945 -8,0.75433 0,1.43035 3.0694,6.58148 4.53294,7.60726 0.80688,0.56555 3.47612,0.67728 5.93164,0.2483 2.98352,-0.52122 4.17378,-0.30944 3.58798,0.63841 -1.59012,2.57287 -10.76186,1.65123 -13.48227,-1.3548 z m 12.76304,-10.64782 c 0,-6.3377 -7.63385,-8.78948 -11.25772,-3.61567 -3.14259,4.48667 -2.64125,5.03666 4.59106,5.03666 3.82971,0 6.66666,-0.60469 6.66666,-1.42099 z m 8.10527,2.42099 c 0.0579,-6.05 0.40762,-10.25081 0.77717,-9.33513 0.51766,1.28264 1.32688,1.20611 3.52475,-0.33334 7.2334,-5.06646 11.59281,-0.63912 11.59281,11.77346 0,5.04112 -0.57768,8.89501 -1.33333,8.89501 -0.73869,0 -1.33333,-3.51921 -1.33333,-7.89095 0,-9.88194 -0.84653,-12.10905 -4.60267,-12.10905 -5.27543,0 -7.71022,4.2593 -7.19241,12.58203 0.25396,4.08188 0.0117,7.42079 -0.53826,7.41979 -0.55,-10e-4 -0.95263,-4.95182 -0.89473,-11.00182 z m 42.65817,7.48686 c -3.96452,-5.04008 -3.55359,-10.5685 1.134,-15.25609 2.14359,-2.14359 4.87086,-3.89744 6.0606,-3.89744 3.05533,0 8.70863,6.0195 8.70863,9.27273 0,2.44445 -0.82963,2.72727 -8,2.72727 -8.90755,0 -10.24977,1.75023 -5.20839,6.79162 2.21982,2.21982 3.74876,2.61205 7.46458,1.91496 3.15541,-0.59196 4.38829,-0.41604 3.79637,0.54172 -0.48214,0.7801 -3.19765,1.41837 -6.03448,1.41837 -3.98403,0 -5.78677,-0.79952 -7.92131,-3.51314 z m 13.23656,-9.90785 c 0,-6.3377 -7.63385,-8.78948 -11.25773,-3.61567 -3.14258,4.48667 -2.64125,5.03666 4.59107,5.03666 3.82971,0 6.66666,-0.60469 6.66666,-1.42099 z m 40,-2.57901 v -16 h 3.33333 c 2.99113,0 3.33334,0.53892 3.33334,5.24951 0,5.21523 0.0293,5.24475 4.48905,4.52103 6.34921,-1.03034 8.84428,2.87957 8.84428,13.85947 0,7.41291 -0.29765,8.36999 -2.60304,8.36999 -2.26184,0 -2.65508,-1.09234 -3,-8.33333 -0.37604,-7.89415 -0.57263,-8.33334 -3.73029,-8.33334 -3.15766,0 -3.35426,0.43919 -3.73029,8.33334 -0.37388,7.84884 -0.58706,8.33333 -3.66667,8.33333 h -3.26971 z m 48,4.66667 c 0,-10.44445 0.20915,-11.33334 2.66667,-11.33334 1.46666,0 2.66666,0.62111 2.66666,1.38025 0,0.95144 0.80124,0.95144 2.57901,0 7.67879,-4.10956 12.08766,0.60159 12.08766,12.91643 0,7.87296 -0.18423,8.36999 -3.10241,8.36999 -2.68717,0 -3.02401,-0.53419 -2.51663,-3.99119 0.32218,-2.19516 0.18409,-6.13241 -0.30687,-8.74945 -0.73701,-3.92861 -1.40249,-4.6857 -3.8167,-4.34214 -2.60244,0.37035 -2.96772,1.3327 -3.32101,8.74945 -0.37388,7.84884 -0.58706,8.33333 -3.66667,8.33333 -3.21428,0 -3.26971,-0.19214 -3.26971,-11.33333 z m -176,-17.33334 c 0,-1.22222 0.6,-2.02222 1.33334,-1.77777 1.56838,0.52279 1.48574,2.12061 -0.16667,3.22222 -0.64167,0.42778 -1.16667,-0.22222 -1.16667,-1.44445 z m 103.33334,-16.52005 c -13.07206,-6.03314 -18.5919,-20.1773 -12.82712,-32.86844 7.07378,-15.57288 27.86806,-20.09432 40.05552,-8.70953 2.25771,2.10902 4.10493,4.38273 4.10493,5.05269 0,0.66996 -2.14215,2.23962 -4.76034,3.48815 -4.57782,2.18301 -4.89143,2.16692 -8.17981,-0.41972 -4.67759,-3.67939 -11.35026,-3.45894 -15.9855,0.52813 -3.20234,2.75453 -3.74102,4.21108 -3.74102,10.11544 0,5.90436 0.53868,7.36091 3.74102,10.11545 5.23778,4.50534 16.92565,4.32712 16.92565,-0.2581 0,-1.27802 -1.66354,-1.85735 -5.33334,-1.85735 h -5.33333 v -6 -6 h 12 12 v 9.88148 c 0,9.36507 -0.2112,10.05919 -4.04141,13.28209 -7.54109,6.34542 -19.48491,7.86825 -28.62525,3.64971 z m 81.54024,0.57519 c -10.45893,-3.72912 -15.96723,-11.92205 -15.97781,-23.76504 -0.006,-6.37701 0.66543,-8.66155 3.88201,-13.21459 5.23407,-7.40878 12.57509,-11.0968 21.88889,-10.99665 8.51849,0.0916 14.5963,2.87152 18.61399,8.51384 l 2.82423,3.96626 -5.3277,2.718 -5.32771,2.71799 -3.3308,-3.33081 c -8.77529,-8.77529 -23.35228,0.92686 -20.209,13.45069 2.38977,9.52163 15.04662,13.50856 20.57449,6.48101 l 2.67771,-3.40416 5.44452,2.77758 c 5.83362,2.97609 5.91858,4.72904 0.4683,9.66148 -6.61229,5.98404 -16.93702,7.7275 -26.20112,4.4244 z m 53.5149,0.70465 c -14.83238,-4.79008 -21.77237,-23.01976 -13.99292,-36.756 8.46836,-14.95264 32.69935,-16.21223 43.34637,-2.25327 3.17687,4.1651 3.5914,5.88675 3.5914,14.91615 0,9.12692 -0.39548,10.72608 -3.73559,15.10519 -2.05458,2.69369 -5.57209,5.8473 -7.81669,7.00803 -4.90003,2.53391 -16.38557,3.5969 -21.39257,1.9799 z m 15.87947,-12.76392 c 4.2928,-3.00679 6.28996,-10.26532 4.40008,-15.99173 -0.84633,-2.56439 -2.82636,-5.56439 -4.40008,-6.66667 -3.69453,-2.58774 -11.53386,-2.56966 -15.25279,0.0352 -6.26735,4.38982 -6.26735,18.19822 0,22.58804 3.71893,2.60485 11.55826,2.62293 15.25279,0.0352 z m -354.26794,-11.3292 v -24 h 14.13182 c 10.3176,0 15.37166,0.58834 18.72541,2.1798 8.27195,3.9253 10.93969,14.42987 5.80384,22.85344 -3.28669,5.39065 -7.22642,6.96676 -17.41454,6.96676 h -7.9132 v 8 8 h -6.66667 -6.66666 z m 25.89095,-3.47598 c 1.15997,-0.44513 2.10905,-2.25998 2.10905,-4.033 0,-3.59192 -4.12173,-5.82435 -10.75347,-5.82435 -3.67651,0 -3.9132,0.32258 -3.9132,5.33333 0,5.31478 0.0182,5.33334 5.22428,5.33334 2.87336,0 6.17336,-0.3642 7.33334,-0.80932 z m 23.44238,3.47598 v -24 h 18 18 V 148 v 5.33333 h -11.33333 -11.33334 v 4 4 h 10.66667 10.66667 V 166.66666 172 h -11.10241 -11.10241 l 0.58707,4 0.58708,3.99999 h 11.182 11.182 v 5.33334 5.33333 h -18 -18 z m 46.66666,0 v -24 h 6 6 v 18.66667 18.66666 h 10 10 v 5.33334 5.33333 h -16 -16 z m 40.62908,15.66667 c 1.74554,-4.58333 5.76808,-15.38174 8.93898,-23.99647 l 5.76528,-15.66313 8.11306,-0.004 8.11306,-0.004 L 377.29103,165 c 4.61904,12.28333 8.68235,23.08333 9.02959,23.99999 0.45752,1.20781 -1.38712,1.66667 -6.7001,1.66667 -6.70822,0 -7.40256,-0.28336 -8.16806,-3.33333 -0.79279,-3.15874 -1.32587,-3.33334 -10.17754,-3.33334 -8.73682,0 -9.4229,0.21558 -10.60826,3.33334 -1.13899,2.99576 -2.00716,3.33333 -8.57265,3.33333 h -7.30531 z m 28.37445,-10.66667 c -0.33831,-0.91666 -1.70063,-4.96666 -3.02737,-9 L 360.89721,155.33333 358.55194,162 c -3.66766,10.42567 -3.43348,11.33333 2.92403,11.33333 3.81996,0 5.28997,-0.50403 4.86088,-1.66667 z m 81.66314,-5 v -24 h 6.66666 6.66667 v 24 24 h -6.66667 -6.66666 z m 134.66666,0 v -24 h 14.79428 c 16.8977,0 21.06875,1.54188 24.66345,9.11714 2.924,6.16187 1.66751,12.92829 -3.36486,18.12038 l -4.0033,4.13036 4.60915,8.31606 4.60916,8.31606 h -7.30141 -7.30142 l -4.03838,-8 c -3.3059,-6.54895 -4.63951,-8 -7.35253,-8 -3.16173,0 -3.31414,0.36791 -3.31414,8 v 8 h -6 -6 z m 25.42099,-4.04691 c 1.41845,-0.75913 2.57901,-2.53802 2.57901,-3.95309 0,-3.379 -3.87654,-5.33333 -10.57901,-5.33333 -5.2549,0 -5.42099,0.13617 -5.42099,4.44444 0,2.44445 0.4,4.84445 0.88889,5.33334 1.37447,1.37447 9.6522,1.04992 12.5321,-0.49136 z m 23.91234,4.04691 v -24 h 18 18 V 148 v 5.33333 h -11.33333 -11.33334 v 4 4 h 11.33334 11.33333 V 166.66666 172 h -11.33333 -11.33334 v 4 3.99999 h 11.33334 11.33333 v 5.33334 5.33333 h -18 -18 z m -517.33332,14.66667 c -5.52001,-5.52001 -1.79043,-14.66667 5.98037,-14.66667 5.71561,0 8.6863,2.97069 8.6863,8.6863 0,7.77081 -9.14666,11.50038 -14.66667,5.98037 z"
         id="path6" />
      <path
         style="fill:#ec8b02"
         d="M 76.696995,243.0917 C 73.04701,241.19376 66.290933,235.87118 61.683491,231.26373 28.553495,198.13374 38.211594,141.94807 80.48763,121.87127 c 41.50437,-19.71034 89.8682,5.90706 96.91656,51.33485 4.23959,27.32478 -10.3646,57.05556 -34.30374,69.83456 l -6.89954,3.68306 -1.54991,-7.69521 c -0.85246,-4.23236 -2.06618,-10.08897 -2.69718,-13.01468 -0.90785,-4.20939 -0.72776,-5.55424 0.86294,-6.44444 5.62804,-3.14961 11.57054,-10.02891 15.42297,-17.8543 3.6039,-7.32057 4.30955,-10.29568 4.38795,-18.50033 0.0906,-9.48073 0.28104,-10.03095 6.28649,-18.16251 l 6.19307,-8.38561 -10.88463,-0.3926 c -9.92244,-0.3579 -11.23844,-0.73279 -14.88696,-4.2409 -2.20127,-2.11656 -7.30232,-5.52075 -11.33565,-7.56488 -9.63178,-4.88147 -25.18545,-5.26659 -34.900896,-0.86419 -8.78378,3.98024 -17.745461,12.72865 -22.065661,21.54056 -3.094031,6.3109 -3.687803,9.23945 -3.687803,18.18868 0,13.51762 4.212304,22.95787 14.28484,32.01395 l 6.82951,6.14032 -2.371186,12.58953 c -1.304152,6.92424 -2.457651,12.56159 -2.56333,12.52745 -0.105679,-0.0342 -3.178494,-1.61494 -6.828479,-3.51288 z M 243.00487,228.66666 c -0.0702,-8.8 0.15468,-15.31082 0.49978,-14.46848 0.45376,1.10755 1.70291,0.99501 4.51233,-0.40651 3.11454,-1.55374 4.48947,-1.61955 6.93394,-0.33191 4.26969,2.24908 5.00536,3.74231 5.02866,10.2069 0.0283,7.84798 -3.72513,11.56408 -10.73104,10.62439 l -5.10854,-0.68519 -0.50373,5.5304 c -0.27705,3.04172 -0.56118,-1.6696 -0.6314,-10.4696 z m 12.89835,1.15352 c 6.572,-8.35494 -0.34819,-18.5771 -9.32422,-13.77327 -3.5444,1.8969 -3.72922,13.81731 -0.24567,15.84629 3.84944,2.24209 6.6534,1.6347 9.56989,-2.07302 z m 246.11532,12.00789 c -1.31545,-1.31545 -1.79401,-3.02423 -1.21357,-4.33333 0.52709,-1.18878 0.91457,-3.66141 0.86107,-5.49475 -0.0535,-1.83333 0.41542,-3.95345 1.04206,-4.71138 0.63549,-0.76863 0.59246,-2.24274 -0.0973,-3.33333 -2.21392,-3.50047 -1.37384,-7.83067 1.9405,-10.00231 3.79181,-2.48449 15.60233,-2.2115 16.45557,0.38036 0.30177,0.91666 -0.39426,1.66666 -1.54672,1.66666 -1.18121,0 -2.01008,1.01799 -1.89985,2.33334 0.42597,5.08305 -0.38009,6.7399 -4.01059,8.2437 -2.08099,0.86197 -4.33099,1.38476 -5,1.16176 -0.66902,-0.223 -1.51639,0.19454 -1.88306,0.92787 -0.3767,0.7534 2.12843,1.65444 5.75955,2.0716 8.8455,1.0162 11.4305,5.40502 6.24045,10.59507 -3.38568,3.38568 -13.45785,3.685 -16.64811,0.49474 z m 11.93031,-2.29247 c 3.41352,-2.49603 1.45067,-4.86894 -4.02755,-4.86894 -3.6326,0 -4.58798,0.53216 -4.58798,2.55556 0,4.01014 4.6043,5.24646 8.61553,2.31338 z m -1.2822,-19.53561 c 0,-2.38185 -0.80789,-3.4486 -2.83029,-3.73716 -3.08899,-0.44074 -4.90564,2.4699 -3.62482,5.80766 1.32739,3.45915 6.45511,1.81442 6.45511,-2.0705 z m -310.44443,13.77778 c -0.48889,-0.48889 -0.88889,-7.08889 -0.88889,-14.66667 v -13.77777 l 9,0.25211 9,0.25211 -7.66667,0.4811 -7.66667,0.48109 v 5.26679 c 0,5.24256 0.0242,5.2668 5.25465,5.2668 2.89005,0 5.62546,0.6 6.07869,1.33333 0.50333,0.81442 -1.54171,1.33333 -5.25465,1.33333 h -6.07869 v 6.60013 6.60013 l 7.66667,0.48109 7.66667,0.48109 -8.11111,0.25212 c -4.46111,0.13866 -8.51111,-0.14789 -9,-0.63678 z m 22.39771,-4.91109 3.39901,-5.79997 -3.30262,-4.86669 c -1.81645,-2.67668 -2.6928,-4.86669 -1.94746,-4.86669 0.74534,0 2.37725,1.7962 3.62648,3.99157 2.84322,4.99661 3.69124,4.99775 6.27132,0.008 1.13766,-2.2 2.6747,-4 3.41564,-4 0.74094,0 -0.14793,2.20023 -1.97527,4.8894 -1.82734,2.68917 -2.95059,5.53917 -2.49611,6.33333 0.45447,0.79416 1.92794,3.03656 3.27436,4.98309 2.65943,3.84476 3.01415,5.12751 1.41792,5.12751 -0.56657,0 -2.16105,-2.1 -3.5433,-4.66667 -1.38224,-2.56666 -2.9242,-4.66666 -3.42657,-4.66666 -0.50238,0 -2.04434,2.1 -3.42658,4.66666 -1.38224,2.56667 -3.00202,4.66667 -3.5995,4.66667 -0.59748,0 0.44322,-2.60999 2.31268,-5.79998 z m 42.789,2.83664 c -4.50962,-6.43839 -1.51083,-16.95267 5.40523,-18.95167 3.57819,-1.03422 8.11111,2.67172 9.27352,7.58168 l 0.86807,3.66666 h -8.14455 c -9.07005,0 -10.41882,1.72572 -5.32778,6.81677 2.16737,2.16737 3.86494,2.64667 7.36322,2.07898 2.68471,-0.43567 4.22899,-0.22414 3.77121,0.51657 -0.42638,0.68989 -3.1058,1.25435 -5.95428,1.25435 -3.84038,0 -5.71553,-0.76595 -7.25464,-2.96334 z m 12.59106,-11.43666 c 0,-5.81738 -7.75731,-7.63421 -11.25773,-2.63666 -3.14258,4.48667 -2.64125,5.03666 4.59107,5.03666 5.53086,0 6.66666,-0.40889 6.66666,-2.4 z m 8.35738,3.73333 c -0.0808,-6.23333 0.15551,-10.58414 0.52506,-9.66846 0.51766,1.28264 1.32688,1.20611 3.52475,-0.33334 3.31804,-2.32404 4.92614,-2.54108 4.92614,-0.66486 0,0.73333 -0.807,1.33333 -1.79335,1.33333 -3.62993,0 -6.05436,4.69965 -6.54535,12.68784 -0.3953,6.43156 -0.51888,5.78105 -0.63725,-3.35451 z m 12.97595,0 c 0,-6.22222 0.55556,-10.66666 1.33334,-10.66666 0.77778,0 1.33333,4.44444 1.33333,10.66666 0,6.22223 -0.55555,10.66667 -1.33333,10.66667 -0.77778,0 -1.33334,-4.44444 -1.33334,-10.66667 z m 11.37014,8.04067 c -1.39753,-1.54425 -2.43597,-4.89408 -2.52086,-8.13189 -0.11726,-4.47195 0.55456,-6.10708 3.57753,-8.70733 2.04704,-1.7608 4.52197,-3.20145 5.49983,-3.20145 2.91501,0 7.23171,4.40782 8.16105,8.33334 l 0.86807,3.66666 h -8.14455 c -9.07005,0 -10.41882,1.72572 -5.32777,6.81677 2.16736,2.16737 3.86494,2.64667 7.36321,2.07898 2.68471,-0.43567 4.22899,-0.22414 3.77121,0.51657 -1.46022,2.36267 -10.73749,1.40212 -13.24772,-1.37165 z m 12.62986,-11.774 c 0,-5.81738 -7.75731,-7.63421 -11.25772,-2.63666 -3.14259,4.48667 -2.64125,5.03666 4.59106,5.03666 5.53086,0 6.66666,-0.40889 6.66666,-2.4 z m 8.35738,3.73333 c -0.0808,-6.23333 0.1383,-10.63578 0.48681,-9.78322 0.4655,1.13874 1.58754,1.05246 4.22807,-0.32512 4.66005,-2.43118 5.09576,-2.3903 8.26108,0.77501 2.11965,2.11966 2.66666,4.44444 2.66666,11.33333 0,11.84251 -2.45496,11.00794 -2.94158,-1 -0.37494,-9.25186 -0.53777,-9.68367 -3.79465,-10.06311 -5.15037,-0.60002 -7.70479,3.23591 -8.26913,12.41762 -0.39531,6.43156 -0.51889,5.78105 -0.63726,-3.35451 z m 23.79554,7.2249 c -6.70403,-8.52279 0.42028,-21.47563 9.8418,-17.89357 4.59319,1.74633 4.19412,2.77311 -0.69757,1.79477 -5.59389,-1.11878 -9.29715,2.41589 -9.29715,8.8739 0,7.60225 7.11165,12.18399 11.9,7.66667 1.42576,-1.34505 1.6503,-1.28073 1.1636,0.33333 -0.35456,1.17587 -2.55793,2.16677 -5.34708,2.40471 -3.82874,0.32662 -5.28801,-0.28687 -7.5636,-3.17981 z m 19.08404,0.6686 c -4.0054,-4.42591 -3.37972,-12.76148 1.25729,-16.75007 5.54147,-4.76656 11.69925,-2.4102 13.56256,5.18991 l 0.89895,3.66666 h -8.14455 c -9.07005,0 -10.41882,1.72572 -5.32778,6.81677 2.16737,2.16737 3.86494,2.64667 7.36322,2.07898 2.68471,-0.43567 4.22899,-0.22414 3.77121,0.51657 -1.50808,2.44011 -10.74718,1.39142 -13.3809,-1.51882 z m 12.76304,-11.62683 c 0,-5.81738 -7.75731,-7.63421 -11.25773,-2.63666 -3.14258,4.48667 -2.64125,5.03666 4.59107,5.03666 5.53086,0 6.66666,-0.40889 6.66666,-2.4 z m 18.5641,10.50256 c -3.2994,-3.2994 -3.89743,-4.95186 -3.89743,-10.76923 0,-5.81736 0.59803,-7.46983 3.89743,-10.76923 2.9936,-2.99359 5.1202,-3.89743 9.17008,-3.89743 6.0814,0 9.41535,2.71945 6.40097,5.22117 -1.29535,1.07505 -2.17201,1.1312 -2.7618,0.17691 -1.519,-2.4578 -7.14305,-1.511 -9.29774,1.56526 -2.97497,4.24736 -2.66639,12.44588 0.59106,15.70332 2.95963,2.95963 5.59383,3.33466 9.34007,1.32973 1.69417,-0.90669 2.77562,-0.8879 3.36046,0.0584 1.60195,2.592 -2.28291,5.27853 -7.63302,5.27853 -4.04988,0 -6.17648,-0.90384 -9.17008,-3.89744 z m 22.76923,-12.20033 c 0,-14.62222 0.21388,-16.05447 2.33334,-15.62549 1.80251,0.36482 2.30715,1.75204 2.21825,6.09776 -0.11017,5.38572 1.02417,7.13599 2.78175,4.29217 0.45322,-0.73334 2.25461,-1.33334 4.00308,-1.33334 4.91082,0 7.33025,4.71879 7.33025,14.29668 0,7.4811 -0.2832,8.36999 -2.66667,8.36999 -2.36419,0 -2.66666,-0.88889 -2.66666,-7.83674 0,-5.33939 -0.63735,-8.36569 -2,-9.49659 -3.64538,-3.0254 -6,0.70141 -6,9.49659 0,6.94785 -0.30247,7.83674 -2.66667,7.83674 -2.51942,0 -2.66667,-0.88889 -2.66667,-16.09777 z m 24.88889,15.20888 c -0.48889,-0.48889 -0.88889,-2.79258 -0.88889,-5.11931 0,-4.42772 3.71656,-7.32513 9.39607,-7.32513 3.10647,0 3.50368,-3.73843 0.51891,-4.8838 -1.14677,-0.44005 -3.49633,-0.15706 -5.22125,0.62886 -2.47667,1.12845 -3.29464,1.01613 -3.88951,-0.53407 -0.48745,-1.27029 0.44467,-2.41849 2.64138,-3.25368 9.47703,-3.60316 13.88774,0.4333 13.88774,12.70935 0,6.81482 -0.42735,8.66667 -2,8.66667 -1.1,0 -2,-0.72 -2,-1.6 0,-1.24444 -0.35556,-1.24444 -1.6,0 -1.70098,1.70098 -9.35282,2.20274 -10.84445,0.71111 z m 10.87051,-6.77778 c 0.4884,-3.43888 -1.94779,-3.95199 -5.70826,-1.20227 -3.05643,2.23492 -1.52287,5.17202 2.40801,4.61185 1.80308,-0.25694 3.03297,-1.52757 3.30025,-3.40958 z m 10.90727,-2.92131 c 0,-10.31143 1.37381,-13.90487 4.22569,-11.053 0.88,0.88 2.57033,0.85724 5.02054,-0.0676 7.39715,-2.79211 10.75377,1.72198 10.75377,14.46206 0,6.35764 -0.3271,7.24653 -2.66667,7.24653 -2.3642,0 -2.66666,-0.88889 -2.66666,-7.83674 0,-9.01677 -2.0391,-11.97319 -6.58144,-9.54221 -2.30813,1.23528 -2.7519,2.75528 -2.7519,9.42586 0,7.0642 -0.29804,7.95309 -2.66666,7.95309 -2.4428,0 -2.66667,-0.88889 -2.66667,-10.58798 z m 47.96982,6.92131 c -5.58584,-7.08602 -0.87592,-19 7.51122,-19 4.39358,0 8.51896,4.51976 8.51896,9.33334 0,3.91111 -0.14815,4 -6.66667,4 -3.66667,0 -6.66667,0.52653 -6.66667,1.17007 0,2.42885 4.1217,4.44806 7.93664,3.88815 4.23197,-0.62112 6.75587,2.13491 3.20346,3.4981 -5.13789,1.97159 -10.96399,0.75489 -13.83694,-2.88966 z m 12.03018,-10.83674 c 0,-2.52164 -4.17863,-4.70361 -6.36574,-3.32401 -4.06863,2.56642 -3.38751,4.49409 1.58796,4.49409 2.62778,0 4.77778,-0.52654 4.77778,-1.17008 z m -236,-14.16326 c 0,-1.1 0.6,-2 1.33334,-2 0.73333,0 1.33333,0.9 1.33333,2 0,1.1 -0.6,2 -1.33333,2 -0.73334,0 -1.33334,-0.9 -1.33334,-2 z m 105.52424,-15.92147 c -10.86751,-3.51948 -16.62158,-11.62423 -16.62158,-23.41186 0,-8.65672 2.69571,-14.54097 8.79165,-19.19057 10.51134,-8.01738 27.84767,-6.49807 35.26329,3.09039 2.35925,3.05053 2.18968,3.37709 -3.05127,5.87633 -4.57782,2.18301 -4.89143,2.16692 -8.17981,-0.41972 -8.30204,-6.53039 -20.39318,-0.34127 -20.39318,10.43871 0,7.73331 5.1494,13.53819 12.00947,13.53819 6.33847,0 9.32386,-1.08719 9.32386,-3.39549 0,-1.09081 -1.93053,-1.93664 -5,-2.19068 -4.85338,-0.40169 -5.01202,-0.57999 -5.41,-6.08049 l -0.41,-5.66667 h 12.07667 12.07666 v 9.79335 c 0,10.64071 -0.68625,11.86905 -8.97702,16.06822 -6.14562,3.11268 -14.75694,3.73365 -21.49874,1.55029 z m 81.14243,0.42306 c -6.62623,-1.97975 -12.57833,-6.88416 -15.29005,-12.59869 -3.27764,-6.90711 -2.38184,-19.80996 1.78124,-25.65647 8.94021,-12.55537 31.2062,-13.42619 39.97667,-1.56349 l 2.89434,3.91481 -5.43349,2.77196 -5.4335,2.77196 -2.67771,-3.40417 c -3.63905,-4.6263 -11.4799,-4.71353 -16.74315,-0.18627 -3.20234,2.75453 -3.74102,4.21108 -3.74102,10.11544 0,5.90436 0.53868,7.36091 3.74102,10.11545 4.78969,4.11991 12.78407,4.39094 16.25898,0.55122 2.89652,-3.20062 4.86324,-3.32299 10.07677,-0.62697 l 3.94435,2.03971 -2.74505,3.71288 c -5.5882,7.55845 -16.84368,10.96039 -26.6094,8.04263 z m 51.67877,-0.32848 c -8.07585,-2.9962 -11.7442,-6.03294 -14.42789,-11.94371 -8.05561,-17.74238 3.41192,-36.02441 22.57878,-35.99608 15.34356,0.0227 25.50367,9.83187 25.50367,24.62279 0,9.07761 -5.22551,18.19014 -12.37705,21.58376 -6.74984,3.20301 -15.4137,3.90876 -21.27751,1.73324 z m 16.7585,-12.89755 c 6.40397,-5.03736 5.89555,-17.22313 -0.91771,-21.99532 -4.43681,-3.10767 -12.44199,-2.47902 -16.19262,1.2716 -8.8321,8.83211 -3.57575,23.44816 8.43264,23.44816 3.23205,0 6.53075,-1.03565 8.67769,-2.72444 z M 201.6359,167 l 0.36409,-23.66667 12.66515,-0.38776 c 15.84572,-0.48514 22.75583,1.7363 25.87988,8.31976 2.6626,5.61099 2.69349,10.42792 0.0991,15.44498 -2.83003,5.47268 -8.42123,7.95635 -17.91122,7.95635 h -8.06621 v 8 8 h -6.69743 -6.69743 z m 26.93552,-5.09524 c 1.15238,-1.15238 2.09524,-2.61836 2.09524,-3.25773 0,-2.36638 -6.08098,-5.3137 -10.96334,-5.3137 -4.98721,0 -5.03666,0.0524 -5.03666,5.33333 V 164 h 5.90476 c 3.59019,0 6.72606,-0.82131 8,-2.09524 z m 22.09524,4.7619 v -24 h 17.66667 17.66666 V 148 v 5.33333 h -11.66666 -11.66667 v 4 4 h 11.33333 11.33334 V 166.66666 172 h -11.33334 -11.33333 v 4 3.99999 h 11.66667 11.66666 v 5.33334 5.33333 h -17.66666 -17.66667 z m 46.66666,0 v -24 h 6 6 v 18.66667 18.66666 h 10 10 v 5.33334 5.33333 h -16 -16 z M 343.93713,167 l 8.97964,-23.66667 7.95365,-0.39035 7.95366,-0.39035 4.83375,13.05702 c 2.65856,7.18136 6.65805,18.00701 8.88775,24.05701 l 4.054,11 h -7.15525 c -6.52028,0 -7.2295,-0.2958 -7.99187,-3.33333 -0.79775,-3.17849 -1.29326,-3.33334 -10.66666,-3.33334 -9.37341,0 -9.86892,0.15485 -10.66667,3.33334 -0.7625,3.03805 -1.4711,3.33333 -7.99913,3.33333 h -7.16251 z m 22.39972,4.66666 c -0.33831,-0.91666 -1.70152,-4.96666 -3.02936,-9 -1.34211,-4.07666 -2.70338,-6.44515 -3.0653,-5.33333 -0.35807,1.1 -1.72673,5.15 -3.04147,9 l -2.39043,7 h 6.07083 c 4.29584,0 5.89099,-0.4873 5.45573,-1.66667 z m 81.66314,-5 v -24 h 6.66666 6.66667 v 24 24 h -6.66667 -6.66666 z m 134.66666,0 v -24 h 14.46949 c 12.86414,0 14.97214,0.33825 19,3.04874 8.43753,5.67792 9.40029,18.78488 1.81792,24.74917 -1.80808,1.42224 -3.28741,2.99857 -3.28741,3.50297 0,0.50439 2.08116,4.46804 4.6248,8.8081 l 4.6248,7.89102 h -7.27227 -7.27228 l -4.03838,-8 c -3.3059,-6.54895 -4.63951,-8 -7.35253,-8 -3.16173,0 -3.31414,0.36791 -3.31414,8 v 8 h -6 -6 z M 609.85584,161 c 2.59305,-4.13329 -0.57239,-6.94765 -8.32652,-7.40302 l -6.86267,-0.40301 v 5.47269 5.47269 l 6.86267,-0.40301 c 4.77461,-0.28039 7.30807,-1.11296 8.32652,-2.73634 z m 23.47748,5.66666 v -24 h 17.33333 17.33333 V 148 v 5.33333 h -11.33333 -11.33334 v 4 4 h 11.33334 11.33333 V 166.66666 172 h -11.33333 -11.33334 v 4 3.99999 h 11.33334 11.33333 v 5.33334 5.33333 h -17.33333 -17.33333 z m -518.66666,14.66667 c -5.52001,-5.52001 -1.79043,-14.66667 5.98037,-14.66667 5.71561,0 8.6863,2.97069 8.6863,8.6863 0,7.77081 -9.14666,11.50038 -14.66667,5.98037 z"
         id="path5" />
      <path
         style="fill:#5f5f5f"
         d="m 243.00487,228.66666 c -0.0702,-8.8 0.15468,-15.31082 0.49978,-14.46848 0.45376,1.10755 1.70291,0.99501 4.51233,-0.40651 3.11454,-1.55374 4.48947,-1.61955 6.93394,-0.33191 4.26969,2.24908 5.00536,3.74231 5.02866,10.2069 0.0283,7.84798 -3.72513,11.56408 -10.73104,10.62439 l -5.10854,-0.68519 -0.50373,5.5304 c -0.27705,3.04172 -0.56118,-1.6696 -0.6314,-10.4696 z m 12.89835,1.15352 c 6.572,-8.35494 -0.34819,-18.5771 -9.32422,-13.77327 -3.5444,1.8969 -3.72922,13.81731 -0.24567,15.84629 3.84944,2.24209 6.6534,1.6347 9.56989,-2.07302 z m 246.11532,12.00789 c -1.31545,-1.31545 -1.79401,-3.02423 -1.21357,-4.33333 0.52709,-1.18878 0.91457,-3.66141 0.86107,-5.49475 -0.0535,-1.83333 0.41542,-3.95345 1.04206,-4.71138 0.63549,-0.76863 0.59246,-2.24274 -0.0973,-3.33333 -2.21392,-3.50047 -1.37384,-7.83067 1.9405,-10.00231 3.79181,-2.48449 15.60233,-2.2115 16.45557,0.38036 0.30177,0.91666 -0.39426,1.66666 -1.54672,1.66666 -1.18121,0 -2.01008,1.01799 -1.89985,2.33334 0.42597,5.08305 -0.38009,6.7399 -4.01059,8.2437 -2.08099,0.86197 -4.33099,1.38476 -5,1.16176 -0.66902,-0.223 -1.51639,0.19454 -1.88306,0.92787 -0.3767,0.7534 2.12843,1.65444 5.75955,2.0716 8.8455,1.0162 11.4305,5.40502 6.24045,10.59507 -3.38568,3.38568 -13.45785,3.685 -16.64811,0.49474 z m 11.93031,-2.29247 c 3.41352,-2.49603 1.45067,-4.86894 -4.02755,-4.86894 -3.6326,0 -4.58798,0.53216 -4.58798,2.55556 0,4.01014 4.6043,5.24646 8.61553,2.31338 z m -1.2822,-19.53561 c 0,-2.38185 -0.80789,-3.4486 -2.83029,-3.73716 -3.08899,-0.44074 -4.90564,2.4699 -3.62482,5.80766 1.32739,3.45915 6.45511,1.81442 6.45511,-2.0705 z m -310.44443,13.77778 c -0.48889,-0.48889 -0.88889,-7.08889 -0.88889,-14.66667 v -13.77777 l 9,0.25211 9,0.25211 -7.66667,0.4811 -7.66667,0.48109 v 5.26679 c 0,5.24256 0.0242,5.2668 5.25465,5.2668 2.89005,0 5.62546,0.6 6.07869,1.33333 0.50333,0.81442 -1.54171,1.33333 -5.25465,1.33333 h -6.07869 v 6.60013 6.60013 l 7.66667,0.48109 7.66667,0.48109 -8.11111,0.25212 c -4.46111,0.13866 -8.51111,-0.14789 -9,-0.63678 z m 22.39771,-4.91109 3.39901,-5.79997 -3.30262,-4.86669 c -1.81645,-2.67668 -2.6928,-4.86669 -1.94746,-4.86669 0.74534,0 2.37725,1.7962 3.62648,3.99157 2.84322,4.99661 3.69124,4.99775 6.27132,0.008 1.13766,-2.2 2.6747,-4 3.41564,-4 0.74094,0 -0.14793,2.20023 -1.97527,4.8894 -1.82734,2.68917 -2.95059,5.53917 -2.49611,6.33333 0.45447,0.79416 1.92794,3.03656 3.27436,4.98309 2.65943,3.84476 3.01415,5.12751 1.41792,5.12751 -0.56657,0 -2.16105,-2.1 -3.5433,-4.66667 -1.38224,-2.56666 -2.9242,-4.66666 -3.42657,-4.66666 -0.50238,0 -2.04434,2.1 -3.42658,4.66666 -1.38224,2.56667 -3.00202,4.66667 -3.5995,4.66667 -0.59748,0 0.44322,-2.60999 2.31268,-5.79998 z m 42.789,2.83664 c -4.50962,-6.43839 -1.51083,-16.95267 5.40523,-18.95167 3.57819,-1.03422 8.11111,2.67172 9.27352,7.58168 l 0.86807,3.66666 h -8.14455 c -9.07005,0 -10.41882,1.72572 -5.32778,6.81677 2.16737,2.16737 3.86494,2.64667 7.36322,2.07898 2.68471,-0.43567 4.22899,-0.22414 3.77121,0.51657 -0.42638,0.68989 -3.1058,1.25435 -5.95428,1.25435 -3.84038,0 -5.71553,-0.76595 -7.25464,-2.96334 z m 12.59106,-11.43666 c 0,-5.81738 -7.75731,-7.63421 -11.25773,-2.63666 -3.14258,4.48667 -2.64125,5.03666 4.59107,5.03666 5.53086,0 6.66666,-0.40889 6.66666,-2.4 z m 8.35738,3.73333 c -0.0808,-6.23333 0.15551,-10.58414 0.52506,-9.66846 0.51766,1.28264 1.32688,1.20611 3.52475,-0.33334 3.31804,-2.32404 4.92614,-2.54108 4.92614,-0.66486 0,0.73333 -0.807,1.33333 -1.79335,1.33333 -3.62993,0 -6.05436,4.69965 -6.54535,12.68784 -0.3953,6.43156 -0.51888,5.78105 -0.63725,-3.35451 z m 12.97595,0 c 0,-6.22222 0.55556,-10.66666 1.33334,-10.66666 0.77778,0 1.33333,4.44444 1.33333,10.66666 0,6.22223 -0.55555,10.66667 -1.33333,10.66667 -0.77778,0 -1.33334,-4.44444 -1.33334,-10.66667 z m 11.37014,8.04067 c -1.39753,-1.54425 -2.43597,-4.89408 -2.52086,-8.13189 -0.11726,-4.47195 0.55456,-6.10708 3.57753,-8.70733 2.04704,-1.7608 4.52197,-3.20145 5.49983,-3.20145 2.91501,0 7.23171,4.40782 8.16105,8.33334 l 0.86807,3.66666 h -8.14455 c -9.07005,0 -10.41882,1.72572 -5.32777,6.81677 2.16736,2.16737 3.86494,2.64667 7.36321,2.07898 2.68471,-0.43567 4.22899,-0.22414 3.77121,0.51657 -1.46022,2.36267 -10.73749,1.40212 -13.24772,-1.37165 z m 12.62986,-11.774 c 0,-5.81738 -7.75731,-7.63421 -11.25772,-2.63666 -3.14259,4.48667 -2.64125,5.03666 4.59106,5.03666 5.53086,0 6.66666,-0.40889 6.66666,-2.4 z m 8.35738,3.73333 c -0.0808,-6.23333 0.1383,-10.63578 0.48681,-9.78322 0.4655,1.13874 1.58754,1.05246 4.22807,-0.32512 4.66005,-2.43118 5.09576,-2.3903 8.26108,0.77501 2.11965,2.11966 2.66666,4.44444 2.66666,11.33333 0,11.84251 -2.45496,11.00794 -2.94158,-1 -0.37494,-9.25186 -0.53777,-9.68367 -3.79465,-10.06311 -5.15037,-0.60002 -7.70479,3.23591 -8.26913,12.41762 -0.39531,6.43156 -0.51889,5.78105 -0.63726,-3.35451 z m 23.79554,7.2249 c -6.70403,-8.52279 0.42028,-21.47563 9.8418,-17.89357 4.59319,1.74633 4.19412,2.77311 -0.69757,1.79477 -5.59389,-1.11878 -9.29715,2.41589 -9.29715,8.8739 0,7.60225 7.11165,12.18399 11.9,7.66667 1.42576,-1.34505 1.6503,-1.28073 1.1636,0.33333 -0.35456,1.17587 -2.55793,2.16677 -5.34708,2.40471 -3.82874,0.32662 -5.28801,-0.28687 -7.5636,-3.17981 z m 19.08404,0.6686 c -4.0054,-4.42591 -3.37972,-12.76148 1.25729,-16.75007 5.54147,-4.76656 11.69925,-2.4102 13.56256,5.18991 l 0.89895,3.66666 h -8.14455 c -9.07005,0 -10.41882,1.72572 -5.32778,6.81677 2.16737,2.16737 3.86494,2.64667 7.36322,2.07898 2.68471,-0.43567 4.22899,-0.22414 3.77121,0.51657 -1.50808,2.44011 -10.74718,1.39142 -13.3809,-1.51882 z m 12.76304,-11.62683 c 0,-5.81738 -7.75731,-7.63421 -11.25773,-2.63666 -3.14258,4.48667 -2.64125,5.03666 4.59107,5.03666 5.53086,0 6.66666,-0.40889 6.66666,-2.4 z m 18.5641,10.50256 c -3.2994,-3.2994 -3.89743,-4.95186 -3.89743,-10.76923 0,-5.81736 0.59803,-7.46983 3.89743,-10.76923 2.9936,-2.99359 5.1202,-3.89743 9.17008,-3.89743 6.0814,0 9.41535,2.71945 6.40097,5.22117 -1.29535,1.07505 -2.17201,1.1312 -2.7618,0.17691 -1.519,-2.4578 -7.14305,-1.511 -9.29774,1.56526 -2.97497,4.24736 -2.66639,12.44588 0.59106,15.70332 2.95963,2.95963 5.59383,3.33466 9.34007,1.32973 1.69417,-0.90669 2.77562,-0.8879 3.36046,0.0584 1.60195,2.592 -2.28291,5.27853 -7.63302,5.27853 -4.04988,0 -6.17648,-0.90384 -9.17008,-3.89744 z m 22.76923,-12.20033 c 0,-14.62222 0.21388,-16.05447 2.33334,-15.62549 1.80251,0.36482 2.30715,1.75204 2.21825,6.09776 -0.11017,5.38572 1.02417,7.13599 2.78175,4.29217 0.45322,-0.73334 2.25461,-1.33334 4.00308,-1.33334 4.91082,0 7.33025,4.71879 7.33025,14.29668 0,7.4811 -0.2832,8.36999 -2.66667,8.36999 -2.36419,0 -2.66666,-0.88889 -2.66666,-7.83674 0,-5.33939 -0.63735,-8.36569 -2,-9.49659 -3.64538,-3.0254 -6,0.70141 -6,9.49659 0,6.94785 -0.30247,7.83674 -2.66667,7.83674 -2.51942,0 -2.66667,-0.88889 -2.66667,-16.09777 z m 24.88889,15.20888 c -0.48889,-0.48889 -0.88889,-2.79258 -0.88889,-5.11931 0,-4.42772 3.71656,-7.32513 9.39607,-7.32513 3.10647,0 3.50368,-3.73843 0.51891,-4.8838 -1.14677,-0.44005 -3.49633,-0.15706 -5.22125,0.62886 -2.47667,1.12845 -3.29464,1.01613 -3.88951,-0.53407 -0.48745,-1.27029 0.44467,-2.41849 2.64138,-3.25368 9.47703,-3.60316 13.88774,0.4333 13.88774,12.70935 0,6.81482 -0.42735,8.66667 -2,8.66667 -1.1,0 -2,-0.72 -2,-1.6 0,-1.24444 -0.35556,-1.24444 -1.6,0 -1.70098,1.70098 -9.35282,2.20274 -10.84445,0.71111 z m 10.87051,-6.77778 c 0.4884,-3.43888 -1.94779,-3.95199 -5.70826,-1.20227 -3.05643,2.23492 -1.52287,5.17202 2.40801,4.61185 1.80308,-0.25694 3.03297,-1.52757 3.30025,-3.40958 z m 10.90727,-2.92131 c 0,-10.31143 1.37381,-13.90487 4.22569,-11.053 0.88,0.88 2.57033,0.85724 5.02054,-0.0676 7.39715,-2.79211 10.75377,1.72198 10.75377,14.46206 0,6.35764 -0.3271,7.24653 -2.66667,7.24653 -2.3642,0 -2.66666,-0.88889 -2.66666,-7.83674 0,-9.01677 -2.0391,-11.97319 -6.58144,-9.54221 -2.30813,1.23528 -2.7519,2.75528 -2.7519,9.42586 0,7.0642 -0.29804,7.95309 -2.66666,7.95309 -2.4428,0 -2.66667,-0.88889 -2.66667,-10.58798 z m 47.96982,6.92131 c -5.58584,-7.08602 -0.87592,-19 7.51122,-19 4.39358,0 8.51896,4.51976 8.51896,9.33334 0,3.91111 -0.14815,4 -6.66667,4 -3.66667,0 -6.66667,0.52653 -6.66667,1.17007 0,2.42885 4.1217,4.44806 7.93664,3.88815 4.23197,-0.62112 6.75587,2.13491 3.20346,3.4981 -5.13789,1.97159 -10.96399,0.75489 -13.83694,-2.88966 z m 12.03018,-10.83674 c 0,-2.52164 -4.17863,-4.70361 -6.36574,-3.32401 -4.06863,2.56642 -3.38751,4.49409 1.58796,4.49409 2.62778,0 4.77778,-0.52654 4.77778,-1.17008 z m -236,-14.16326 c 0,-1.1 0.6,-2 1.33334,-2 0.73333,0 1.33333,0.9 1.33333,2 0,1.1 -0.6,2 -1.33333,2 -0.73334,0 -1.33334,-0.9 -1.33334,-2 z m 105.52424,-15.92147 c -10.86751,-3.51948 -16.62158,-11.62423 -16.62158,-23.41186 0,-8.65672 2.69571,-14.54097 8.79165,-19.19057 10.51134,-8.01738 27.84767,-6.49807 35.26329,3.09039 2.35925,3.05053 2.18968,3.37709 -3.05127,5.87633 -4.57782,2.18301 -4.89143,2.16692 -8.17981,-0.41972 -8.30204,-6.53039 -20.39318,-0.34127 -20.39318,10.43871 0,7.73331 5.1494,13.53819 12.00947,13.53819 6.33847,0 9.32386,-1.08719 9.32386,-3.39549 0,-1.09081 -1.93053,-1.93664 -5,-2.19068 -4.85338,-0.40169 -5.01202,-0.57999 -5.41,-6.08049 l -0.41,-5.66667 h 12.07667 12.07666 v 9.79335 c 0,10.64071 -0.68625,11.86905 -8.97702,16.06822 -6.14562,3.11268 -14.75694,3.73365 -21.49874,1.55029 z m 81.14243,0.42306 c -6.62623,-1.97975 -12.57833,-6.88416 -15.29005,-12.59869 -3.27764,-6.90711 -2.38184,-19.80996 1.78124,-25.65647 8.94021,-12.55537 31.2062,-13.42619 39.97667,-1.56349 l 2.89434,3.91481 -5.43349,2.77196 -5.4335,2.77196 -2.67771,-3.40417 c -3.63905,-4.6263 -11.4799,-4.71353 -16.74315,-0.18627 -3.20234,2.75453 -3.74102,4.21108 -3.74102,10.11544 0,5.90436 0.53868,7.36091 3.74102,10.11545 4.78969,4.11991 12.78407,4.39094 16.25898,0.55122 2.89652,-3.20062 4.86324,-3.32299 10.07677,-0.62697 l 3.94435,2.03971 -2.74505,3.71288 c -5.5882,7.55845 -16.84368,10.96039 -26.6094,8.04263 z m 51.67877,-0.32848 c -8.07585,-2.9962 -11.7442,-6.03294 -14.42789,-11.94371 -8.05561,-17.74238 3.41192,-36.02441 22.57878,-35.99608 15.34356,0.0227 25.50367,9.83187 25.50367,24.62279 0,9.07761 -5.22551,18.19014 -12.37705,21.58376 -6.74984,3.20301 -15.4137,3.90876 -21.27751,1.73324 z m 16.7585,-12.89755 c 6.40397,-5.03736 5.89555,-17.22313 -0.91771,-21.99532 -4.43681,-3.10767 -12.44199,-2.47902 -16.19262,1.2716 -8.8321,8.83211 -3.57575,23.44816 8.43264,23.44816 3.23205,0 6.53075,-1.03565 8.67769,-2.72444 z M 201.6359,167 l 0.36409,-23.66667 12.66515,-0.38776 c 15.84572,-0.48514 22.75583,1.7363 25.87988,8.31976 2.6626,5.61099 2.69349,10.42792 0.0991,15.44498 -2.83003,5.47268 -8.42123,7.95635 -17.91122,7.95635 h -8.06621 v 8 8 h -6.69743 -6.69743 z m 26.93552,-5.09524 c 1.15238,-1.15238 2.09524,-2.61836 2.09524,-3.25773 0,-2.36638 -6.08098,-5.3137 -10.96334,-5.3137 -4.98721,0 -5.03666,0.0524 -5.03666,5.33333 V 164 h 5.90476 c 3.59019,0 6.72606,-0.82131 8,-2.09524 z m 22.09524,4.7619 v -24 h 17.66667 17.66666 V 148 v 5.33333 h -11.66666 -11.66667 v 4 4 h 11.33333 11.33334 V 166.66666 172 h -11.33334 -11.33333 v 4 3.99999 h 11.66667 11.66666 v 5.33334 5.33333 h -17.66666 -17.66667 z m 46.66666,0 v -24 h 6 6 v 18.66667 18.66666 h 10 10 v 5.33334 5.33333 h -16 -16 z M 343.93713,167 l 8.97964,-23.66667 7.95365,-0.39035 7.95366,-0.39035 4.83375,13.05702 c 2.65856,7.18136 6.65805,18.00701 8.88775,24.05701 l 4.054,11 h -7.15525 c -6.52028,0 -7.2295,-0.2958 -7.99187,-3.33333 -0.79775,-3.17849 -1.29326,-3.33334 -10.66666,-3.33334 -9.37341,0 -9.86892,0.15485 -10.66667,3.33334 -0.7625,3.03805 -1.4711,3.33333 -7.99913,3.33333 h -7.16251 z m 22.39972,4.66666 c -0.33831,-0.91666 -1.70152,-4.96666 -3.02936,-9 -1.34211,-4.07666 -2.70338,-6.44515 -3.0653,-5.33333 -0.35807,1.1 -1.72673,5.15 -3.04147,9 l -2.39043,7 h 6.07083 c 4.29584,0 5.89099,-0.4873 5.45573,-1.66667 z m 81.66314,-5 v -24 h 6.66666 6.66667 v 24 24 h -6.66667 -6.66666 z m 134.66666,0 v -24 h 14.46949 c 12.86414,0 14.97214,0.33825 19,3.04874 8.43753,5.67792 9.40029,18.78488 1.81792,24.74917 -1.80808,1.42224 -3.28741,2.99857 -3.28741,3.50297 0,0.50439 2.08116,4.46804 4.6248,8.8081 l 4.6248,7.89102 h -7.27227 -7.27228 l -4.03838,-8 c -3.3059,-6.54895 -4.63951,-8 -7.35253,-8 -3.16173,0 -3.31414,0.36791 -3.31414,8 v 8 h -6 -6 z M 609.85584,161 c 2.59305,-4.13329 -0.57239,-6.94765 -8.32652,-7.40302 l -6.86267,-0.40301 v 5.47269 5.47269 l 6.86267,-0.40301 c 4.77461,-0.28039 7.30807,-1.11296 8.32652,-2.73634 z m 23.47748,5.66666 v -24 h 17.33333 17.33333 V 148 v 5.33333 h -11.33333 -11.33334 v 4 4 h 11.33334 11.33333 V 166.66666 172 h -11.33333 -11.33334 v 4 3.99999 h 11.33334 11.33333 v 5.33334 5.33333 h -17.33333 -17.33333 z"
         id="path4" />
      <path
         style="fill:#2d2e2e"
         d="m 242.89655,228.66666 c -0.10398,-8.8 0.26759,-15.28167 0.82572,-14.40371 0.66926,1.05277 1.68376,1.17322 2.97958,0.35375 3.56161,-2.25234 9.04297,-1.4318 11.22254,1.67997 4.85366,6.92957 0.32245,18.36999 -7.27581,18.36999 -2.1035,0 -4.30995,-0.75 -4.90323,-1.66667 -0.66418,-1.02621 -1.38247,0.89515 -1.86922,5 -0.53301,4.49502 -0.85211,1.45471 -0.97958,-9.33333 z m 14.22128,0.21992 c 2.67653,-5.61132 0.99814,-12.63935 -3.27456,-13.71173 -1.85529,-0.46565 -4.82901,-0.18335 -6.60827,0.62734 -2.77334,1.26362 -3.23501,2.39139 -3.23501,7.90255 0,7.55102 1.83351,9.89513 7.3175,9.35536 2.86882,-0.28237 4.50631,-1.46059 5.80034,-4.17352 z m 245.81549,13.51341 c -1.94547,-1.94547 -2.09402,-5.9373 -0.26306,-7.06889 0.85043,-0.5256 0.88429,-1.67206 0.093,-3.15053 -0.70805,-1.323 -0.74968,-3.12394 -0.0966,-4.18058 0.66483,-1.0757 0.57803,-2.91994 -0.20641,-4.38567 -1.79432,-3.35272 -0.38511,-8.53726 2.7811,-10.23176 2.84027,-1.52007 14.75865,-0.33674 14.75865,1.46533 0,0.63366 -0.6,1.1521 -1.33334,1.1521 -0.73333,0 -1.33333,1.72654 -1.33333,3.83674 0,4.5064 -2.36863,6.83792 -7.50285,7.38531 -6.06786,0.64694 -5.0656,3.03374 1.58889,3.7838 7.11866,0.80237 10.56878,3.49716 9.3587,7.3098 -1.55923,4.91271 -14.13745,7.79164 -17.84474,4.08435 z m 11.59429,-2.28585 c 1.02352,-0.64809 1.49236,-2.1389 1.04184,-3.31291 -1.03522,-2.69777 -9.64264,-2.9377 -10.65595,-0.29704 -1.48983,3.88243 5.21049,6.3983 9.61411,3.60995 z m -1.86096,-20.11415 c 0,-2.38185 -0.80789,-3.4486 -2.83029,-3.73716 -3.08899,-0.44074 -4.90564,2.4699 -3.62482,5.80766 1.32739,3.45915 6.45511,1.81442 6.45511,-2.0705 z m -309.99999,0 v -14.66666 l 8.33333,0.25211 8.33334,0.25211 -7.66667,0.4811 -7.66667,0.48109 v 5.8604 5.86041 l 6.33334,0.49939 6.33333,0.49939 -6.33333,0.24033 -6.33334,0.24033 v 6.60013 6.60013 l 7.66667,0.48109 7.66667,0.48109 -8.33334,0.25212 -8.33333,0.25211 z m 20.31794,12 c 1.06763,-1.83333 2.72883,-4.60591 3.69156,-6.1613 1.52136,-2.4579 1.35452,-3.38395 -1.275,-7.07676 -1.66397,-2.33684 -2.71842,-4.5558 -2.3432,-4.93101 0.37522,-0.37522 1.77004,1.15932 3.0996,3.4101 3.02417,5.11952 3.91163,5.11525 6.57317,-0.0316 1.17291,-2.26815 2.4127,-3.84377 2.75509,-3.50138 0.34239,0.3424 -0.65277,2.78402 -2.21148,5.42583 -2.8085,4.76006 -2.81096,4.83657 -0.2728,8.50137 3.94811,5.70061 4.84721,8.05372 1.71358,4.48477 -1.55176,-1.76733 -3.39747,-4.16733 -4.10159,-5.33334 -1.17017,-1.93779 -1.39024,-1.93779 -2.56041,0 -0.70411,1.16601 -2.56933,3.56601 -4.14494,5.33334 l -2.86473,3.21332 z m 45.01539,0 c -3.25744,-3.25744 -3.56603,-11.45596 -0.59106,-15.70332 1.43634,-2.05066 3.43933,-2.96334 6.50341,-2.96334 4.89544,0 6.62088,1.52324 7.9292,7 l 0.87592,3.66666 h -8.0254 c -8.72602,0 -9.67207,1.0557 -5.84388,6.52121 1.85935,2.65459 2.98134,3.00727 7.59737,2.38813 3.54532,-0.47553 4.74902,-0.30455 3.48514,0.49504 -3.28579,2.07875 -9.13623,1.39009 -11.9307,-1.40438 z m 12,-11.73333 c 0,-5.40586 -6.45104,-7.41509 -10.89501,-3.39335 -4.37219,3.95678 -3.03174,5.79335 4.22835,5.79335 5.53086,0 6.66666,-0.40889 6.66666,-2.4 z m 8.34583,3.73333 c -0.0882,-6.30771 0.2879,-10.19406 0.84806,-8.76415 0.90057,2.29885 1.09674,2.33393 1.86444,0.33333 0.47258,-1.23151 2.22436,-2.19788 3.89983,-2.15133 2.91119,0.0809 2.92532,0.13175 0.32888,1.18419 -4.49111,1.82042 -5.77967,4.43667 -6.29315,12.77741 -0.39545,6.42346 -0.52014,5.77321 -0.64806,-3.37945 z m 12.9875,0 c 0,-6.22222 0.55556,-10.66666 1.33334,-10.66666 0.77778,0 1.33333,4.44444 1.33333,10.66666 0,6.22223 -0.55555,10.66667 -1.33333,10.66667 -0.77778,0 -1.33334,-4.44444 -1.33334,-10.66667 z m 12,8 c -3.25744,-3.25744 -3.56603,-11.45596 -0.59106,-15.70332 1.45448,-2.07656 3.43545,-2.96334 6.61976,-2.96334 4.82008,0 7.30464,2.69126 7.30464,7.91234 0,2.44968 -0.8111,2.75432 -7.33334,2.75432 -6.2391,0 -7.33333,0.36707 -7.33333,2.46002 0,4.4051 4.68552,7.32641 10.30317,6.42379 3.44773,-0.55397 4.40099,-0.40709 3.03016,0.4669 -3.33879,2.12869 -9.17784,1.47145 -12,-1.35071 z m 12,-11.73333 c 0,-5.40586 -6.45103,-7.41509 -10.89501,-3.39335 -4.37219,3.95678 -3.03174,5.79335 4.22835,5.79335 5.53086,0 6.66666,-0.40889 6.66666,-2.4 z m 8.36641,3.73333 c -0.0857,-6.23333 0.14515,-10.58812 0.51308,-9.67732 0.49322,1.22097 1.35859,1.28694 3.29401,0.25114 1.44378,-0.77269 4.24537,-1.21789 6.22577,-0.98935 3.56539,0.41146 3.60195,0.52022 3.72488,11.0822 l 0.12414,10.66667 -0.79081,-10 c -0.71148,-8.99688 -1.08485,-10.04184 -3.72203,-10.41706 -6.22411,-0.88557 -8.24512,1.7557 -8.74704,11.43154 -0.43737,8.43149 -0.47572,8.28673 -0.622,-2.34782 z m 24.20388,7.8935 c -1.54025,-1.70195 -2.50968,-4.75102 -2.50968,-7.8935 0,-6.62721 3.56003,-10.66666 9.40069,-10.66666 2.40973,0 4.73018,0.56446 5.15656,1.25435 0.46238,0.74815 -1.20078,0.93369 -4.12124,0.45977 -5.96793,-0.96846 -8.49662,1.71026 -8.49662,9.00073 0,7.45819 7.22684,12.19165 11.73334,7.68515 1.07042,-1.07043 1.6,-1.11765 1.6,-0.14265 0,3.8394 -9.36147,4.06151 -12.76305,0.30281 z m 19.42971,0.1065 c -3.25744,-3.25744 -3.56603,-11.45596 -0.59106,-15.70332 1.45448,-2.07656 3.43545,-2.96334 6.61976,-2.96334 4.82008,0 7.30464,2.69126 7.30464,7.91234 0,2.44968 -0.8111,2.75432 -7.33334,2.75432 -6.2391,0 -7.33333,0.36707 -7.33333,2.46002 0,4.4051 4.68552,7.32641 10.30317,6.42379 3.44773,-0.55397 4.40098,-0.40709 3.03016,0.4669 -3.33879,2.12869 -9.17784,1.47145 -12,-1.35071 z m 12,-11.73333 c 0,-5.40586 -6.45104,-7.41509 -10.89501,-3.39335 -4.37219,3.95678 -3.03174,5.79335 4.22835,5.79335 5.53086,0 6.66666,-0.40889 6.66666,-2.4 z m 19.07435,11.18211 c -3.34761,-2.87949 -3.74101,-4.08345 -3.74101,-11.44878 0,-7.36533 0.3934,-8.56928 3.74101,-11.44877 3.97993,-3.4234 9.96942,-4.18027 14.38398,-1.81766 3.89955,2.08697 1.81779,3.86435 -3.51292,2.99929 -6.76069,-1.09711 -9.94541,2.19063 -9.94541,10.26714 0,8.98715 5.15795,12.99509 12.00674,9.32973 3.48433,-1.86476 5.15896,1.187 1.94212,3.53921 -3.8848,2.84064 -10.6747,2.19237 -14.87451,-1.42016 z m 22.25898,-12.78211 c 0,-13.33333 0.33334,-16 2,-16 1.48837,0 2,1.57141 2,6.14265 0,5.3272 0.30976,6.01513 2.33334,5.18206 4.91893,-2.02503 6.41578,-2.05858 8.9482,-0.20058 2.06324,1.51377 2.72785,3.91808 3.15046,11.39718 0.50445,8.92755 0.37179,9.47869 -2.28153,9.47869 -2.57974,0 -2.81713,-0.73385 -2.81713,-8.70851 0,-9.44033 -1.48142,-11.39989 -6.56248,-8.68058 -2.33016,1.24706 -2.77086,2.74784 -2.77086,9.436 0,6.18052 -0.44575,7.95309 -2,7.95309 -1.66666,0 -2,-2.66667 -2,-16 z m 25.6,14.4 c -4.26158,-4.26158 0.48963,-11.73333 7.46111,-11.73333 2.27288,0 3.007,-0.64135 2.67083,-2.33334 -0.33948,-1.70868 -1.75962,-2.33333 -5.30485,-2.33333 -6.51212,0 -7.49847,-1.36565 -2.29618,-3.17917 5.91119,-2.06066 7.47045,-1.88614 10.53576,1.17917 3.4497,3.4497 4.00138,20 0.66667,20 -1.1,0 -2,-0.62111 -2,-1.38024 0,-0.95144 -0.80124,-0.95144 -2.57901,0 -3.43083,1.83612 -7.18866,1.74591 -9.15433,-0.21976 z m 10.1594,-6.06667 c 0.3115,-2.19326 -0.24425,-3 -2.06666,-3 -2.92769,0 -5.69274,2.43921 -5.69274,5.0219 0,1.20091 1.24977,1.6781 3.66667,1.4 2.62534,-0.30208 3.78767,-1.27389 4.09273,-3.4219 z m 12.2406,-3 c 0,-8.59259 0.38889,-10.66666 2,-10.66666 1.1,0 2,0.61383 2,1.36407 0,0.75024 1.52458,0.36513 3.38795,-0.8558 2.71307,-1.77767 4.04109,-1.92229 6.66667,-0.72599 3.05971,1.39409 3.27872,2.16375 3.27872,11.52247 0,8.0254 -0.3995,10.02858 -2,10.02858 -1.55093,0 -2,-1.75964 -2,-7.83674 0,-9.01677 -2.0391,-11.97319 -6.58144,-9.54221 -2.30813,1.23528 -2.7519,2.75528 -2.7519,9.42586 0,6.18052 -0.44575,7.95309 -2,7.95309 -1.61111,0 -2,-2.07407 -2,-10.66667 z m 48.43891,8.71157 c -3.67906,-2.60346 -5.14529,-9.12058 -3.14074,-13.96001 1.5055,-3.6346 6.16735,-6.75156 10.0979,-6.75156 3.06459,0 7.2706,5.01363 7.2706,8.66667 0,3.11111 -0.44445,3.33333 -6.66667,3.33333 -4.77367,0 -6.66667,0.52154 -6.66667,1.83674 0,3.06111 3.73831,5.171 8.04264,4.53926 3.17813,-0.46645 3.97979,-0.13564 3.66779,1.51354 -0.54835,2.89847 -8.90079,3.44318 -12.60485,0.82203 z m 10.22776,-13.42008 c 0,-4.29406 -7.57511,-3.89949 -9.03175,0.47044 -0.33714,1.01142 1.17881,1.57141 4.25397,1.57141 3.40154,0 4.77778,-0.58815 4.77778,-2.04185 z m -236,-12.62482 c 0,-0.73333 0.6,-1.33333 1.33334,-1.33333 0.73333,0 1.33333,0.6 1.33333,1.33333 0,0.73333 -0.6,1.33333 -1.33333,1.33333 -0.73334,0 -1.33334,-0.6 -1.33334,-1.33333 z m -98.66666,-40.17127 v -24.17126 l 14.7045,0.60585 c 16.76024,0.69055 20.601,2.45155 23.8257,10.92418 1.51009,3.9676 1.55991,5.92057 0.26162,10.25388 -2.23082,7.44582 -7.65514,10.54718 -18.45849,10.55364 l -8.33333,0.005 v 8 8 h -6 -6 z m 26.4,-4.09539 c 4.22043,-4.22043 -0.32037,-9.06667 -8.49524,-9.06667 h -5.90476 V 158.66666 164 h 6.4 c 3.52,0 7.12,-0.72 8,-1.6 z m 21.6,4.26666 v -24 h 17.33333 17.33334 V 148 v 5.33333 h -11.33334 -11.33333 v 4 4 h 11.33333 11.33334 V 166.66666 172 h -11.33334 -11.33333 v 4 3.99999 h 11.33333 11.33334 v 5.33334 5.33333 h -17.33334 -17.33333 z m 46.66666,0 v -24 h 6 6 v 18.66667 18.66666 h 9.66667 9.66667 v 5.33334 5.33333 h -15.66667 -15.66667 z m 38.66667,22.91138 c 0,-0.59874 3.8535,-11.24874 8.56333,-23.66667 l 8.56333,-22.57804 h 7.74468 7.74468 L 374.94987,160 c 3.48362,9.16666 7.52458,19.81666 8.97992,23.66666 l 2.64606,7 h -7.14339 c -6.50762,0 -7.21784,-0.29666 -7.98,-3.33333 -0.79775,-3.17849 -1.29326,-3.33334 -10.66666,-3.33334 -9.37341,0 -9.86892,0.15485 -10.66667,3.33334 -0.75231,2.99743 -1.50585,3.33333 -7.47788,3.33333 -3.65269,0 -6.64126,-0.48988 -6.64126,-1.08862 z m 30.66667,-17.34053 c 0,-1.86869 -4.29805,-14.17494 -5.36363,-15.35725 -0.55505,-0.61586 -2.0627,2.08414 -3.35032,6 -1.28763,3.91585 -2.61794,7.86974 -2.95625,8.7864 -0.43592,1.18117 1.17425,1.66667 5.52754,1.66667 3.37846,0 6.14266,-0.49312 6.14266,-1.09582 z m 35.45868,15.48032 c -8.76207,-5.13339 -10.79202,-9.04874 -10.79202,-20.81561 0,-8.67027 0.48958,-10.922 3.20143,-14.72426 4.14403,-5.81033 12.26979,-9.44502 21.19812,-9.48201 7.72239,-0.032 12.60945,1.94243 17.33705,7.0044 l 3.06993,3.28706 -4.91796,2.90166 -4.91796,2.90167 -2.90457,-2.72871 c -4.33739,-4.07476 -12.26432,-3.67635 -16.99308,0.85409 -6.89689,6.60763 -4.34178,19.88536 4.41402,22.93764 4.5844,1.59813 11.11398,0.63526 13.26457,-1.95604 2.32947,-2.80684 0.21285,-4.56439 -5.4969,-4.56439 -5.11642,0 -5.25465,-0.12276 -5.25465,-4.66667 V 164 h 12 12 v 9.31441 9.31442 l -5.5464,3.67043 c -7.84982,5.19476 -22.05635,5.87419 -29.66158,1.41857 z m 45.87465,-21.05117 v -24 h 6.33333 6.33333 v 24 24 h -6.33333 -6.33333 z m 34.14652,20.92094 c -14.86683,-9.21215 -15.57499,-31.07555 -1.32286,-40.84127 4.91094,-3.36502 16.1063,-5.13929 22.42363,-3.55374 3.61504,0.90732 12.75271,8.28786 12.75271,10.30043 0,0.66923 -2.09539,2.216 -4.65641,3.43727 -4.49757,2.14474 -4.76203,2.12126 -7.7526,-0.68824 -7.65741,-7.19375 -20.92433,-0.76314 -20.92433,10.14224 0,5.98199 3.79769,11.76452 9.03382,13.7553 4.06557,1.54572 11.70308,-0.64393 13.51037,-3.87339 1.14162,-2.03996 1.57996,-2.03424 6.01029,0.0784 2.62837,1.25338 4.77886,2.77089 4.77886,3.37223 0,0.60134 -2.12247,3.15052 -4.7166,5.66485 -4.35759,4.22354 -5.44856,4.60378 -14.33333,4.99568 -8.27988,0.36521 -10.33778,-0.0226 -14.80355,-2.7898 z m 54.49535,1.22097 c -18.2402,-7.94776 -18.04942,-36.67595 0.29447,-44.34051 5.15937,-2.15573 16.09824,-2.35245 21.31019,-0.38324 17.96686,6.78835 20.34691,33.59459 3.84159,43.26735 -6.4713,3.79244 -18.50443,4.48115 -25.44625,1.4564 z m 20.69146,-12.20451 c 2.64819,-2.6466 3.33333,-4.67332 3.33333,-9.86028 0,-8.90685 -4.08302,-13.41045 -12.15807,-13.41045 -7.92892,0 -12.5539,4.14568 -13.43646,12.04399 -1.4849,13.28882 12.9259,20.55646 22.2612,11.22674 z m 25.33333,-9.9374 v -24 h 13.37616 c 20.468,0 26.62384,3.79176 26.62384,16.39924 0,5.47907 -0.64308,7.11564 -4.18969,10.66224 l -4.18969,4.18969 3.85636,7.26259 c 2.12099,3.99442 4.05635,7.7629 4.3008,8.37441 0.24444,0.61151 -2.51058,1.11183 -6.12226,1.11183 h -6.56671 l -3.91226,-7.66667 c -3.14104,-6.15532 -4.62828,-7.74983 -7.54441,-8.08856 -3.60118,-0.4183 -3.63214,-0.35294 -3.63214,7.66667 v 8.08856 h -6 -6 z M 609.85584,161 c 2.59305,-4.13329 -0.57239,-6.94765 -8.32652,-7.40302 l -6.86267,-0.40301 v 5.47269 5.47269 l 6.86267,-0.40301 c 4.77461,-0.28039 7.30807,-1.11296 8.32652,-2.73634 z m 23.47748,5.66666 v -24 h 17.33333 17.33333 V 148 v 5.33333 h -11.33333 -11.33334 v 4 4 h 10.66667 10.66667 V 166.66666 172 h -10.66667 -10.66667 v 4 3.99999 h 11.33334 11.33333 v 5.33334 5.33333 h -17.33333 -17.33333 z"
         id="path3" />
      <path
         style="fill:#101111"
         d="m 243.05098,228.66666 c -0.0956,-8.8 0.13008,-15.24626 0.50149,-14.32503 0.37141,0.92124 1.37404,1.25607 2.22807,0.74406 1.09516,-0.65656 1.07675,-0.34229 -0.0625,1.06637 -0.94363,1.16681 -1.79781,7.51033 -2.05428,15.25595 l -0.43901,13.25865 z m 260.61567,13.8932 c -2.30835,-1.34449 -3.14136,-5.30739 -1.46748,-6.98127 1.35656,-1.35657 1.39122,-10.72835 0.0464,-12.56128 -1.89851,-2.58769 0.19035,-8.33478 3.45827,-9.51477 3.63377,-1.31209 14.2961,-0.33941 14.2961,1.30417 0,0.65631 -0.8168,1.19328 -1.81511,1.19328 -1.21825,0 -1.60509,1.0986 -1.17643,3.341 0.88146,4.61105 -1.81234,7.32567 -7.26949,7.32567 -3.66198,0 -4.51073,0.47628 -4.15808,2.33333 0.33376,1.75762 2.00083,2.43353 6.75644,2.7394 8.39246,0.53978 10.661,4.05014 5.77496,8.93619 -3.5402,3.54019 -10.12739,4.39942 -14.44563,1.88428 z m 10.22429,-2.03585 c 1.15997,-0.44513 2.10905,-1.94513 2.10905,-3.33334 0,-2.04949 -0.98789,-2.52401 -5.25465,-2.52401 -5.81736,0 -7.82047,1.76466 -5.36355,4.72507 1.69813,2.04612 4.98718,2.48378 8.50915,1.13228 z m -1.31953,-17.28592 c 2.6309,-2.6309 2.63139,-3.8448 0.003,-6.47355 -1.57958,-1.57957 -2.72365,-1.75486 -4.66667,-0.71499 -2.9023,1.55326 -3.37509,5.28276 -0.97407,7.68378 2.10861,2.10861 3.12338,2.01947 5.63809,-0.49524 z m -309.01586,10.53968 c -0.48889,-0.48889 -0.88889,-7.08889 -0.88889,-14.66667 v -13.77777 l 7.66667,0.24664 7.66666,0.24664 -7.08435,0.49263 -7.08435,0.49263 0.41769,13.93021 c 0.22972,7.66161 0.36768,13.92894 0.30657,13.92739 -0.0611,-0.002 -0.51111,-0.40281 -1,-0.8917 z m 19.79282,-2.28028 c 1.26041,-1.92362 2.54375,-3.4975 2.85188,-3.4975 0.96451,0 -2.13987,5.13864 -3.67906,6.08991 -0.80546,0.4978 -0.43323,-0.66878 0.82718,-2.59241 z m 11.82664,1.5025 c -0.54029,-0.91666 -1.839,-3.16666 -2.88601,-5 -1.82767,-3.20029 -1.81431,-3.2269 0.33471,-0.66666 2.7082,3.22642 5.04273,7.33333 4.16855,7.33333 -0.34919,0 -1.07695,-0.75 -1.61725,-1.66667 z m 13.82498,0.78363 c 0.91667,-0.36988 2.41667,-0.36988 3.33334,0 0.91666,0.36988 0.16666,0.67251 -1.66667,0.67251 -1.83333,0 -2.58333,-0.30263 -1.66667,-0.67251 z m 24,0 c 0.91667,-0.36988 2.41667,-0.36988 3.33334,0 0.91666,0.36988 0.16666,0.67251 -1.66667,0.67251 -1.83333,0 -2.58333,-0.30263 -1.66667,-0.67251 z m 15,-9.78363 c 0,-6.11111 0.38467,-10.72644 0.85482,-10.25629 0.94772,0.94772 0.72681,19.78578 -0.2434,20.75599 -0.33628,0.33628 -0.61142,-4.38859 -0.61142,-10.4997 z m 14.43486,-0.003 c -0.23917,-5.86839 0.0151,-10.66839 0.56514,-10.66666 0.55,0.002 1,4.80313 1,10.66979 0,5.86667 -0.25431,10.66667 -0.56514,10.66667 -0.31082,0 -0.76082,-4.80141 -1,-10.6698 z m 15.89847,9.78676 c 0.91667,-0.36988 2.41667,-0.36988 3.33334,0 0.91666,0.36988 0.16666,0.67251 -1.66667,0.67251 -1.83333,0 -2.58333,-0.30263 -1.66667,-0.67251 z m 15.36217,-9.78363 c -0.0834,-6.23333 0.14939,-10.58812 0.51732,-9.67732 0.49738,1.23126 1.41087,1.2938 3.56141,0.24385 l 2.89244,-1.41217 -2.94495,2.42282 c -2.37084,1.95051 -3.03555,4.11234 -3.40976,11.08949 -0.41367,7.71301 -0.4815,7.41958 -0.61646,-2.66667 z m 27.74894,10.19152 c 0.30556,-0.26133 2.65556,-0.86049 5.22223,-1.33147 3.28323,-0.60246 4.07376,-0.46766 2.66666,0.45473 -1.80751,1.18488 -9.21123,2.0077 -7.88889,0.87674 z m 16.14031,-2.24346 c -1.60495,-1.49523 -2.88005,-3.74523 -2.83357,-5 0.0684,-1.84517 0.29478,-1.76266 1.18418,0.43157 1.44996,3.57713 3.98506,5.56099 8.06464,6.31104 l 3.33333,0.61285 -3.41525,0.18157 c -1.87839,0.0999 -4.72839,-1.04179 -6.33333,-2.53703 z m 33.10819,1.00601 c -6.40618,-3.24137 -8.64993,-13.30209 -4.67914,-20.98075 3.24199,-6.26932 10.575,-8.55943 16.77786,-5.23975 3.94406,2.11079 1.85337,3.76587 -3.79929,3.00769 -6.64005,-0.89062 -10.33359,2.90293 -10.13671,10.41121 0.23262,8.8714 4.50112,11.70153 13.64434,9.04656 3.38761,-0.98368 2.94011,2.32428 -0.52821,3.90456 -4.35855,1.98588 -7.13112,1.94913 -11.27885,-0.14952 z m 19.97372,-13.66258 c 0,-12.70354 0.33849,-15.29149 2,-15.29149 1.47635,0 2,1.54421 2,5.89781 v 5.89781 l 3.95093,-1.97098 c 2.99386,-1.49354 4.60878,-1.61891 6.66667,-0.51757 2.3268,1.24527 2.71574,2.76296 2.71574,10.59719 0,6.89781 -0.49126,9.33229 -2,9.91125 -1.65137,0.63368 -2,-0.74329 -2,-7.8992 0,-9.39664 -1.48751,-11.35477 -6.56248,-8.63873 -2.27629,1.21823 -2.77086,2.75798 -2.77086,8.62668 0,5.12003 -0.56657,7.36119 -2,7.91125 -1.70613,0.6547 -2,-1.47938 -2,-14.52402 z m 25.6,13.77518 c -2.13874,-2.13874 -2.0318,-7.04845 0.19375,-8.89549 0.98656,-0.81877 3.71501,-1.87293 6.06323,-2.34257 6.18486,-1.23697 5.08896,-5.16194 -1.44128,-5.16194 -6.68878,0 -7.6295,-1.53951 -1.90633,-3.11975 9.6367,-2.66082 12.82397,0.78722 12.82397,13.87322 0,5.08611 -0.49689,7.14715 -1.66667,6.9132 -0.91667,-0.18334 -2.04036,-0.84528 -2.4971,-1.471 -0.45674,-0.62571 -2.0673,-0.47571 -3.57901,0.33334 -3.55358,1.90181 -5.99922,1.86233 -7.99056,-0.12901 z m 9.29502,-3.27332 c 3.17636,-2.87457 3.11626,-5.79335 -0.1193,-5.79335 -4.21739,0 -6.77572,1.48025 -6.77572,3.92043 0,4.51091 3.06123,5.34245 6.89502,1.87292 z m 13.10498,-5.79335 c 0,-9.71545 1.1373,-12.88659 3.34217,-9.31903 0.5272,0.85302 1.88837,0.60834 3.7087,-0.66667 3.65466,-2.55982 5.56535,-2.54093 8.18723,0.0809 2.89718,2.89719 2.97309,18.61593 0.0952,19.72027 -1.65137,0.63368 -2,-0.74329 -2,-7.8992 0,-6.79375 -0.47138,-8.84755 -2.18123,-9.50368 -4.17739,-1.60301 -6.45427,1.49258 -7.15211,9.72381 -0.40454,4.77176 -1.32197,7.99462 -2.33333,8.1969 -1.22222,0.24444 -1.66667,-2.51111 -1.66667,-10.33334 z m 49.42628,8.98035 c -3.54749,-1.80311 -5.76598,-7.82929 -4.59698,-12.48698 2.60083,-10.36252 17.83737,-9.99681 17.83737,0.42814 0,2.8053 -0.59161,3.07849 -6.66667,3.07849 -5.73798,0 -6.66667,0.36494 -6.66667,2.61976 0,3.32684 4.61761,5.84897 8.79086,4.80155 3.53993,-0.88847 4.45915,1.14705 1.10009,2.43604 -3.17969,1.22016 -6.20467,0.9494 -9.798,-0.877 z m 8.99979,-13.31368 c -0.33372,-2.34976 -1.29305,-3 -4.42607,-3 -3.13302,0 -4.09235,0.65024 -4.42607,3 -0.37488,2.63958 0.15687,3 4.42607,3 4.2692,0 4.80095,-0.36042 4.42607,-3 z m -280.95887,11.39397 c 0.97086,-1.61665 2.05219,-2.65236 2.40297,-2.30159 0.35078,0.35078 -0.44356,1.67349 -1.7652,2.93937 -2.29592,2.19905 -2.32433,2.17063 -0.63777,-0.63778 z m 11.40613,-0.16562 c -2.78264,-3.07478 -2.85552,-10.90877 -0.1331,-14.30684 2.00304,-2.50016 2.02571,-2.48914 0.66667,0.32417 -2.37631,4.9191 -1.67319,5.60453 6.25978,6.10234 l 7.66666,0.48109 -7.66666,0.25211 c -8.26884,0.27192 -9.23631,1.4178 -5.59107,6.62211 2.51211,3.58653 1.83567,3.88192 -1.20228,0.52502 z m 45.62327,0.10498 c -1.65849,-2.11474 -1.61133,-2.1619 0.50341,-0.5034 1.28333,1.00646 2.33333,2.05646 2.33333,2.33333 0,1.09738 -1.09491,0.39107 -2.83674,-1.82993 z m 44.20728,0.37817 c -0.89246,-1.07535 -1.39324,-2.6434 -1.11285,-3.48456 0.28039,-0.84117 1.22425,0.0387 2.09747,1.95517 1.77969,3.906 1.43375,4.44335 -0.98462,1.52939 z m -46.5492,-6.93578 c -0.20636,-5.63591 0.91685,-8.22075 4.33553,-9.97731 2.74463,-1.41022 2.7392,-1.36095 -0.15687,1.42232 -5.04269,4.84628 -3.90121,6.58964 4.66667,7.12729 l 7.66666,0.48109 -7.5689,0.25211 c -5.95524,0.19836 -7.6989,0.74957 -8.17866,2.58545 -0.33537,1.28333 -0.67937,0.4324 -0.76443,-1.89095 z m -51.89474,-1.10905 c 0.0272,-2.2 0.326,-2.93858 0.66406,-1.64129 0.33805,1.29729 0.31582,3.09729 -0.0494,4 -0.36523,0.90271 -0.64182,-0.15871 -0.61465,-2.35871 z m -31.09667,-1.66667 c -1.65849,-2.11474 -1.61133,-2.1619 0.50341,-0.50341 1.28333,1.00646 2.33333,2.05646 2.33333,2.33334 0,1.09738 -1.09491,0.39107 -2.83674,-1.82993 z m 146.9914,-0.66667 c 0.11112,-2.15517 0.32292,-2.36093 0.75211,-0.73065 0.45362,1.72302 2.42256,2.38455 8.17867,2.74789 l 7.58122,0.47854 -8.33333,0.25211 c -7.86856,0.23805 -8.32471,0.0848 -8.17867,-2.74789 z m -142.95546,-1.66666 c 2.24763,-4.34902 4.09395,-6.7601 4.08407,-5.33334 -0.005,0.73334 -1.23616,2.83334 -2.73574,4.66667 -1.81095,2.21401 -2.26372,2.43788 -1.34833,0.66667 z m 48.2394,0.42857 c -0.0579,-1.23095 -1.04813,-3.18095 -2.20051,-4.33333 -1.15238,-1.15239 -1.47349,-2.09524 -0.71357,-2.09524 1.85008,0 4.48062,5.07421 3.66721,7.07392 -0.36597,0.89971 -0.69367,0.61891 -0.75313,-0.64535 z m 109.22806,0.23197 c 0,-0.98115 -1.01636,-2.90697 -2.25858,-4.2796 -2.0629,-2.27949 -2.0673,-2.4223 -0.0507,-1.64848 2.33307,0.89528 4.43288,5.58844 3.09774,6.92357 -0.43362,0.43363 -0.78841,-0.0143 -0.78841,-0.99549 z m -65.72891,-3.4578 c -1.31757,-1.76151 -1.78868,-3.20274 -1.04691,-3.20274 1.34922,0 4.71648,5.18772 3.88385,5.9836 -0.24275,0.23204 -1.51937,-1.01935 -2.83694,-2.78086 z m 32.39558,2.2896 c 0,-1.30022 5.18423,-6.15113 5.74224,-5.37306 0.21591,0.30106 -0.98776,1.87594 -2.67484,3.49974 -1.68707,1.62379 -3.0674,2.46679 -3.0674,1.87332 z m -132,-2.82568 c -0.78493,-1.46666 -1.12715,-2.66666 -0.76049,-2.66666 0.36667,0 1.30889,1.2 2.09383,2.66666 0.78493,1.46667 1.12715,2.66667 0.76049,2.66667 -0.36667,0 -1.30889,-1.2 -2.09383,-2.66667 z m 31.66667,-0.22222 c -1.28333,-1.34444 -1.8068,-2.44444 -1.16326,-2.44444 1.34476,0 4.80757,3.85625 4.01993,4.47666 -0.28784,0.22673 -1.57334,-0.68777 -2.85667,-2.03222 z m 89.93822,0.16159 c -0.89512,-1.43332 -1.0866,-2.60603 -0.42551,-2.60603 1.19704,0 3.25856,4.0065 2.4682,4.79686 -0.22836,0.22836 -1.14756,-0.75752 -2.04269,-2.19083 z m 32.03003,-0.711 c 1.26587,-1.32163 2.58859,-2.11597 2.93936,-1.76519 0.35078,0.35077 -0.68494,1.43211 -2.30159,2.40297 -2.80841,1.68656 -2.83682,1.65814 -0.63777,-0.63778 z m -76.30159,-8.5617 c 0,-0.73333 0.6,-1.33333 1.33334,-1.33333 0.73333,0 1.33333,0.6 1.33333,1.33333 0,0.73333 -0.6,1.33333 -1.33333,1.33333 -0.73334,0 -1.33334,-0.6 -1.33334,-1.33333 z M 202.66666,167.33333 V 144 h 15.03666 c 16.94336,0 19.9043,1.13968 23.15143,8.91116 2.56031,6.12769 1.17173,12.59251 -3.70915,17.26868 -3.46401,3.31874 -5.14043,3.8354 -13.87614,4.27654 l -9.93613,0.50175 v 7.85426 7.85427 h -5.33334 -5.33333 z m 26.4,-4.93333 c 4.39285,-4.39285 -0.33006,-9.06667 -9.1619,-9.06667 h -6.57143 V 158.66666 164 h 7.06666 c 3.88667,0 7.78667,-0.72 8.66667,-1.6 z m 21.6,4.26666 v -24 h 17.33333 17.33334 V 148 v 5.33333 h -11.33334 -11.33333 v 4 4 h 11.33333 11.33334 V 166 v 4.66666 h -11.33334 -11.33333 v 4.66667 4.66666 h 11.33333 11.33334 v 5.33334 5.33333 h -17.33334 -17.33333 z m 46.66666,0 v -24 h 6 6 v 18.66667 18.66666 h 9.33334 9.33333 v 5.33334 5.33333 h -15.33333 -15.33334 z m 39.05796,21.66667 c 0.38627,-1.28334 3.4552,-9.53334 6.81984,-18.33333 3.36465,-8.8 7.07896,-18.57815 8.25403,-21.72921 l 2.13649,-5.7292 7.41691,0.39587 7.41691,0.39587 8.92494,23.66667 8.92494,23.66666 h -6.54537 c -6.07387,0 -6.64581,-0.28814 -7.93977,-4 -1.36997,-3.92988 -1.55776,-4 -10.71313,-4 -9.12972,0 -9.34934,0.0811 -10.82855,4 -1.39448,3.69441 -2.0087,4 -8.03969,4 -5.59757,0 -6.42959,-0.33314 -5.82755,-2.33333 z m 28.07798,-24 c -1.6869,-4.95 -3.11191,-9.3 -3.16669,-9.66667 -0.1471,-0.98469 -6.63591,16.12312 -6.63591,17.49566 0,0.64405 2.89568,1.17101 6.43485,1.17101 h 6.43485 z m 38.76366,23.71441 c -8.15726,-4.14728 -11.71019,-9.79251 -12.3372,-19.60251 -0.42282,-6.61534 0.0383,-9.22455 2.36045,-13.35624 4.06382,-7.2306 10.75077,-11.42627 19.34702,-12.13914 8.8002,-0.72978 15.17676,1.28285 19.99366,6.31062 l 3.70338,3.86549 -5.35546,2.73215 c -4.30913,2.19836 -5.49248,2.37509 -6.05677,0.90456 -0.38573,-1.00517 -2.84689,-2.53569 -5.46926,-3.40115 -6.89805,-2.27656 -14.12599,1.38725 -16.38433,8.30514 -3.80333,11.65055 5.66986,21.87514 17.09581,18.45184 3.74842,-1.12305 5.2031,-2.28947 5.2031,-4.17203 0,-2.15978 -0.9253,-2.61314 -5.33333,-2.61314 -5.20635,0 -5.33334,-0.11111 -5.33334,-4.66667 V 164 h 10.66667 10.66667 l -0.009,9.66666 c -0.009,9.61726 -0.0339,9.68354 -4.85416,12.96701 -6.80941,4.63842 -20.22465,5.31826 -27.9038,1.41407 z m 46.1004,-21.38108 v -24 h 5.33333 5.33334 v 24 24 h -5.33334 -5.33333 z m 35.30854,22.14191 c -14.26275,-6.21468 -18.36558,-26.46544 -7.74389,-38.22237 5.62048,-6.2212 11.75567,-8.41669 21.30673,-7.62464 7.46862,0.61936 12.59857,3.38856 16.12998,8.70715 1.82546,2.7493 1.66419,3.04163 -2.87124,5.20442 -4.44842,2.12131 -4.92882,2.12892 -6.46773,0.10256 -0.91432,-1.20393 -3.19276,-2.75564 -5.06321,-3.44825 -11.61192,-4.29979 -21.42179,9.23495 -15.28904,21.09438 3.7553,7.26193 16.86491,8.26033 20.60926,1.56954 1.08307,-1.93533 1.61731,-1.92161 5.96841,0.15328 2.62837,1.25338 4.77886,2.77633 4.77886,3.38433 0,1.48154 -6.61218,7.57469 -10.24568,9.44144 -3.92111,2.01451 -16.13928,1.80511 -21.11245,-0.36184 z m 51.92122,-0.0331 c -6.12403,-2.66661 -12.32462,-10.94142 -13.35688,-17.82501 -2.52711,-16.85199 10.17998,-29.49416 28.14791,-28.00412 8.21318,0.6811 12.9317,3.44718 17.61341,10.32529 8.27604,12.1587 3.32743,29.88906 -9.92471,35.55928 -5.40813,2.31398 -17.10448,2.28514 -22.47973,-0.0554 z m 16.61179,-8.92 c 8.60977,-3.00138 10.93356,-15.37415 4.28503,-22.81515 -11.34014,-12.69182 -30.49322,4.81116 -19.94243,18.22432 4.50051,5.72147 8.7988,6.98175 15.6574,4.59083 z m 30.15845,-13.18878 v -24 l 12,0.007 c 6.6,0.004 14.22414,0.62515 16.94253,1.38014 6.63409,1.8425 10.3908,7.30804 10.3908,15.11729 0,5.17803 -0.67143,6.73206 -4.47036,10.34672 l -4.47035,4.25352 4.47035,7.90887 c 2.4587,4.34987 4.47036,8.15123 4.47036,8.44744 0,0.29622 -2.88968,0.53858 -6.42151,0.53858 h -6.42151 l -3.82365,-8 c -3.33553,-6.97875 -4.30298,-8 -7.57849,-8 -3.70036,0 -3.75484,0.11608 -3.75484,8 v 8 h -5.66667 -5.66666 z m 27.28642,-5.24568 c 1.78506,-3.33541 1.76379,-3.51363 -0.715,-5.99241 -1.33793,-1.33794 -4.47041,-2.09524 -8.66666,-2.09524 h -6.57143 v 5.3333 V 164 h 7.28642 c 5.83926,0 7.56055,-0.51222 8.66667,-2.57902 z m 22.71358,5.24568 v -24 h 17.33333 17.33333 V 148 v 5.33333 h -11.33333 -11.33334 v 4 4 h 10.66667 10.66667 V 166 v 4.66666 h -10.66667 -10.66667 v 4.66667 4.66666 h 11.33334 11.33333 v 5.33334 5.33333 h -17.33333 -17.33333 z"
         id="path2" />
    </g>
  </g>
</svg>
