<?xml version="1.0" encoding="UTF-8" standalone="no"?>
<svg
   width="297px"
   height="58px"
   viewBox="0 0 297 58"
   version="1.1"
   id="svg8"
   sodipodi:docname="revenera.svg"
   inkscape:version="1.4.3 (0d15f75, 2025-12-25)"
   xmlns:inkscape="http://www.inkscape.org/namespaces/inkscape"
   xmlns:sodipodi="http://sodipodi.sourceforge.net/DTD/sodipodi-0.dtd"
   xmlns="http://www.w3.org/2000/svg"
   xmlns:svg="http://www.w3.org/2000/svg">
  <defs
     id="defs8" />
  <sodipodi:namedview
     id="namedview8"
     pagecolor="#ffffff"
     bordercolor="#000000"
     borderopacity="0.25"
     inkscape:showpageshadow="2"
     inkscape:pageopacity="0.0"
     inkscape:pagecheckerboard="0"
     inkscape:deskcolor="#d1d1d1"
     inkscape:zoom="0.44827586"
     inkscape:cx="148.34615"
     inkscape:cy="27.884615"
     inkscape:current-layer="Page-1" />
  <g
     id="Page-1"
     stroke="none"
     stroke-width="1"
     fill="none"
     fill-rule="evenodd">
    <g
       id="logo-revenera-rev"
       fill-rule="nonzero">
      <path
         d="M13.58,23.18 C12.3392334,23.1671062 11.1001291,23.274272 9.88,23.5 C8.97666265,23.6779062 8.08760618,23.9218953 7.22,24.23 C6.63730799,24.4385386 6.07768003,24.7066239 5.55,25.03 C5.28652148,25.1952777 5.03276897,25.3755755 4.79,25.57 L4.79,56.01 L0,56.01 L0,23.4 L1.12,22.56 C1.95421612,21.9803505 2.84958683,21.4941005 3.79,21.11 C5.12713684,20.5302043 6.5124131,20.0684455 7.93,19.73 C9.77409394,19.2929685 11.6649959,19.0847342 13.56,19.11 C15.4350652,19.0564528 17.3102004,19.2141117 19.15,19.58 C20.0850383,19.7768179 20.9784812,20.1355487 21.79,20.64 C22.511079,21.0466403 22.9550923,21.8121803 22.95,22.64 C22.9568586,23.1462689 22.8328547,23.6457289 22.59,24.09 C22.4129938,24.4670315 22.1651643,24.806524 21.86,25.09 C20.9371926,24.5523754 19.9490927,24.1356258 18.92,23.85 C17.1826603,23.3651471 15.3832698,23.1393809 13.58,23.18 L13.58,23.18 Z"
         id="Path"
         fill="#FFFFFF"
         style="fill:#323e48;fill-opacity:1" />
      <path
         d="M30.34,40.83 C30.82,44.95 32.2133333,47.95 34.52,49.83 C36.8266667,51.71 40.01,52.6666667 44.07,52.7 C46.2410729,52.7282898 48.4013692,52.3902153 50.46,51.7 C51.8975618,51.2506735 53.2849116,50.6541802 54.6,49.92 L56.6,53.48 C56.21,53.73 55.6,54.05 54.82,54.48 C53.8868826,54.9484879 52.9169763,55.339795 51.92,55.65 C50.6563662,56.0391256 49.3707785,56.3530094 48.07,56.59 C46.5457802,56.8666418 44.9990853,57.0005548 43.45,56.99 C41.0053876,57.0073497 38.5751229,56.6152625 36.26,55.83 C31.8439423,54.3509455 28.2914748,51.0211918 26.53,46.71 C25.5144366,44.2096749 25.0209917,41.5280572 25.08,38.83 C25.0465183,36.0986986 25.524759,33.3852766 26.49,30.83 C27.3693404,28.5142403 28.6905171,26.3915271 30.38,24.58 C32.0364945,22.8301878 34.0389245,21.4441522 36.26,20.51 C38.5826226,19.5326114 41.080192,19.0392224 43.6,19.06 C48.54,19.06 52.2933333,20.2466667 54.86,22.62 C57.4266667,24.9933333 58.71,28.31 58.71,32.57 C58.8521569,34.7877668 58.1075653,36.9711829 56.64,38.64 C55.26,40.0666667 53.02,40.78 49.92,40.78 L30.34,40.83 Z M47.92,36.98 C49.4669461,37.0679659 51.0095085,36.7435792 52.39,36.04 C53.39,35.41 53.9500563,34.04 53.9500563,32.04 C53.9537737,30.8907549 53.7679458,29.7487582 53.4,28.66 C53.0461686,27.583291 52.4510271,26.6016496 51.66,25.79 C50.7533173,24.8962132 49.6607143,24.2133363 48.46,23.79 C46.9102006,23.2418294 45.2734232,22.9808939 43.63,23.02 C41.6718074,22.9797875 39.7320156,23.4047596 37.97,24.26 C36.3730174,25.0304425 34.9505236,26.119433 33.79,27.46 C32.6641691,28.7798905 31.7897286,30.2949096 31.21,31.93 C30.6074709,33.5313364 30.2697179,35.2201014 30.21,36.93 L47.92,36.98 Z"
         id="Shape"
         fill="#FFFFFF"
         style="fill:#323e48;fill-opacity:1" />
      <path
         d="M64.66,26.74 C64.42,26.21 64.13,25.5 63.79,24.63 C63.4960328,23.9625385 63.3233344,23.248041 63.28,22.52 C63.2598273,21.9016053 63.4660664,21.2971113 63.86,20.82 C64.354705,20.3182973 65.0484172,20.0650373 65.75,20.13 C66.1777117,20.1191354 66.6049253,20.1662298 67.02,20.27 C67.231186,20.3299135 67.4382835,20.4033997 67.64,20.49 C68.7,23.3966667 69.8633333,26.3133333 71.13,29.24 C72.3966667,32.1666667 73.6666667,34.99 74.94,37.71 C76.22,40.42 77.45,42.97 78.61,45.37 L81.73,51.8 C82.65,50.06 83.73,47.92 84.89,45.41 C86.05,42.9 87.29,40.24 88.52,37.41 C89.75,34.58 90.96,31.86 92.12,29.09 C93.28,26.32 94.3,23.86 95.12,21.69 C95.3014613,21.2978259 95.548316,20.9393793 95.85,20.63 C96.3321034,20.2202697 96.9606315,20.0252093 97.59,20.09 C98.2179281,20.0562403 98.8405894,20.2206509 99.37,20.56 C99.6642478,20.7466324 99.9449462,20.9538145 100.21,21.18 C99.87,22.34 99.35,23.79 98.64,25.53 C97.93,27.27 97.14,29.19 96.25,31.27 C95.36,33.35 94.37,35.54 93.3,37.81 C92.23,40.08 91.17,42.32 90.11,44.49 C89.05,46.66 88,48.76 86.98,50.74 C85.96,52.72 85.05,54.47 84.22,55.97 L78.92,55.97 C77.81,53.97 76.55,51.55 75.14,48.82 C73.73,46.09 72.36,43.33 71,40.57 C69.64,37.81 68.4,35.2 67.26,32.73 C66.12,30.26 65.29,28.29 64.66,26.74 Z"
         id="path1"
         fill="#FFFFFF"
         style="fill:#323e48;fill-opacity:1" />
      <path
         d="M107.4,40.83 C107.88,44.95 109.27,47.95 111.57,49.83 C113.87,51.71 117.056667,52.6666667 121.13,52.7 C123.301073,52.7282898 125.461369,52.3902153 127.52,51.7 C128.957562,51.2506735 130.344912,50.6541802 131.66,49.92 L133.66,53.48 C133.27,53.73 132.66,54.05 131.88,54.48 C130.946883,54.9484879 129.976976,55.339795 128.98,55.65 C127.716035,56.0379241 126.430519,56.3517905 125.13,56.59 C123.60578,56.8666418 122.059085,57.0005548 120.51,56.99 C118.065388,57.0073497 115.635123,56.6152625 113.32,55.83 C108.903942,54.3509455 105.351475,51.0211918 103.59,46.71 C102.571016,44.2103925 102.074163,41.5287494 102.13,38.83 C102.099712,36.0980652 102.581348,33.3846228 103.55,30.83 C104.426805,28.5129856 105.748272,26.3898063 107.44,24.58 C109.094765,22.8281736 111.097648,21.4418244 113.32,20.51 C115.642623,19.5326114 118.140192,19.0392224 120.66,19.06 C125.6,19.06 129.353333,20.2466667 131.92,22.62 C134.486667,24.9933333 135.77,28.31 135.77,32.57 C135.912157,34.7877668 135.167565,36.9711829 133.7,38.64 C132.32,40.0666667 130.08,40.78 126.98,40.78 L107.4,40.83 Z M124.98,36.98 C126.523859,37.0695647 128.063614,36.7450423 129.44,36.04 C130.44,35.41 131.01,34.04 131.01,32.04 C131.008795,30.8911546 130.823097,29.7499577 130.46,28.66 C130.106169,27.583291 129.511027,26.6016496 128.72,25.79 C127.813317,24.8962132 126.720714,24.2133363 125.52,23.79 C123.970201,23.2418294 122.333423,22.9808939 120.69,23.02 C118.728704,22.9808637 116.785916,23.4057415 115.02,24.26 C113.440004,25.0392589 112.032266,26.1273654 110.88,27.46 C109.760838,28.782865 108.890158,30.2972379 108.31,31.93 C107.712358,33.5327307 107.374766,35.2206941 107.31,36.93 L124.98,36.98 Z"
         id="path2"
         fill="#FFFFFF"
         style="fill:#323e48;fill-opacity:1" />
      <path
         d="M170.79,56.12 L170.79,36.12 C170.79,32.06 169.79,28.9266667 167.79,26.72 C165.79,24.5133333 162.533333,23.41 158.02,23.41 C156.682545,23.4027145 155.346139,23.4862399 154.02,23.66 C152.83,23.84 151.8,24.03 150.93,24.25 C150.223332,24.4094966 149.530994,24.6268975 148.86,24.9 C148.35,25.12 148.02,25.25 147.86,25.3 L147.86,56.12 L143.06,56.12 L143.06,22.05 C143.21,22.05 143.68,21.82 144.48,21.51 C145.534431,21.1086829 146.613266,20.7746785 147.71,20.51 C149.07,20.17 150.71,19.87 152.51,19.6 C154.530989,19.3193738 156.56967,19.1856898 158.61,19.2 C161.049012,19.1594296 163.477102,19.5348028 165.79,20.31 C167.738756,20.9472195 169.540652,21.9671603 171.09,23.31 C172.531089,24.5961072 173.671404,26.1836715 174.43,27.96 C175.223674,29.8176148 175.62212,31.8200587 175.6,33.84 L175.6,56.12 L170.79,56.12 Z"
         id="path3"
         fill="#FFFFFF"
         style="fill:#323e48;fill-opacity:1" />
      <path
         d="M189.4,40.94 C189.88,45.06 191.27,48.06 193.57,49.94 C195.87,51.82 199.053333,52.7766667 203.12,52.81 C205.294395,52.8390337 207.458103,52.5009544 209.52,51.81 C210.957562,51.3606735 212.344912,50.7641802 213.66,50.03 L215.66,53.59 C215.27,53.84 214.66,54.16 213.88,54.59 C212.944148,55.0600762 211.970787,55.4514277 210.97,55.76 C209.706657,56.1501801 208.421006,56.4640793 207.12,56.7 C205.59915,56.9766572 204.055772,57.1105728 202.51,57.1 C200.065315,57.1182936 197.634895,56.7261812 195.32,55.94 C190.903942,54.4609455 187.351475,51.1311918 185.59,46.82 C184.571016,44.3203925 184.074163,41.6387494 184.13,38.94 C184.094702,36.2076544 184.576503,33.4932845 185.55,30.94 C186.426805,28.6229856 187.748272,26.4998063 189.44,24.69 C191.094765,22.9381736 193.097648,21.5518244 195.32,20.62 C197.642623,19.6426114 200.140192,19.1492224 202.66,19.17 C207.6,19.17 211.353333,20.3566667 213.92,22.73 C216.486667,25.1033333 217.77,28.42 217.77,32.68 C217.912157,34.8977668 217.167565,37.0811829 215.7,38.75 C214.32,40.18 212.07,40.89 208.98,40.89 L189.4,40.94 Z M206.97,37.09 C208.517128,37.1803889 210.060318,36.8558702 211.44,36.15 C212.44,35.52 213.00002,34.15 213.00002,32.15 C213.002193,31.0016831 212.81987,29.8604725 212.46,28.77 C212.102054,27.6951895 211.507441,26.7144202 210.72,25.9 C209.813317,25.0062132 208.720714,24.3233363 207.52,23.9 C205.970201,23.3518294 204.333423,23.0908939 202.69,23.13 C200.728704,23.0908637 198.785916,23.5157415 197.02,24.37 C195.440893,25.1463142 194.033221,26.2309694 192.88,27.56 C191.761375,28.8849652 190.887727,30.3986106 190.3,32.03 C189.706751,33.6339771 189.3693,35.321233 189.3,37.03 L206.97,37.09 Z"
         id="path4"
         fill="#FFFFFF"
         style="fill:#323e48;fill-opacity:1" />
      <path
         d="M239.41,23.29 C238.169233,23.2771062 236.930129,23.384272 235.71,23.61 C234.809589,23.7864454 233.92375,24.0304692 233.06,24.34 C232.474349,24.5490769 231.911459,24.8171202 231.38,25.14 C231.116521,25.3052777 230.862769,25.4855755 230.62,25.68 L230.62,56.12 L225.79,56.12 L225.79,23.51 L226.91,22.67 C227.728446,22.0935321 228.606898,21.6073662 229.53,21.22 C230.868292,20.6432294 232.253304,20.181559 233.67,19.84 C235.514094,19.4029685 237.404996,19.1947342 239.3,19.22 C241.175065,19.1664528 243.0502,19.3241117 244.89,19.69 C245.842373,19.8812144 246.753195,20.2401259 247.58,20.75 C248.301079,21.1566403 248.745092,21.9221803 248.74,22.75 C248.746859,23.2562689 248.622855,23.7557289 248.38,24.2 C248.197642,24.5591692 247.950103,24.8813084 247.65,25.15 C246.750855,24.6289794 245.790062,24.2224898 244.79,23.94 C243.038777,23.4579733 241.225633,23.2389132 239.41,23.29 Z"
         id="path5"
         fill="#FFFFFF"
         style="fill:#323e48;fill-opacity:1" />
      <path
         d="M265.97,23.22 C263.777048,23.1203761 261.587344,23.4779481 259.54,24.27 C258.375394,24.7489212 257.287185,25.3957819 256.31,26.19 C255.940705,25.9232633 255.630829,25.5827402 255.4,25.19 C255.134579,24.7385599 254.996355,24.2236726 255,23.7 C254.986662,23.2096065 255.126477,22.7272452 255.4,22.32 C255.675999,21.9338801 256.01388,21.5959993 256.4,21.32 C257.298273,20.741254 258.279554,20.3028813 259.31,20.02 C261.390301,19.4521824 263.545235,19.2060007 265.7,19.29 C271.513333,19.29 275.896667,20.4766667 278.85,22.85 C281.803333,25.2233333 283.28,29.05 283.28,34.33 L283.28,55.98 C281.866667,56.22 279.976667,56.4733333 277.61,56.74 C274.472838,57.0433108 271.321575,57.1768389 268.17,57.14 C265.164901,57.2372003 262.162825,56.8695302 259.27,56.05 C257.423137,55.5029198 255.717143,54.561211 254.27,53.29 C253.174528,52.2868052 252.393046,50.9878091 252.02,49.55 C251.690592,48.2418704 251.519368,46.8989347 251.509821,45.55 C251.502055,43.9684482 251.758939,42.3967251 252.27,40.9 C252.762204,39.4199873 253.630586,38.0932933 254.79,37.05 C256.248782,35.8446961 257.9563,34.977277 259.79,34.51 C262.363068,33.8497652 265.014174,33.5436096 267.67,33.6 C268.74,33.6 269.83,33.6 270.94,33.68 L274.07,33.82 L276.68,33.97 C277.45,33.97 278.06,34.04 278.5,34.04 L278.5,33.89 C278.5,30.41 277.53,27.7433333 275.59,25.89 C273.65,24.0366667 270.443333,23.1466667 265.97,23.22 Z M278.54,38.22 C278.29,38.22 277.81,38.11 277.08,38.04 C276.35,37.97 275.51,37.89 274.54,37.82 C273.57,37.75 272.54,37.69 271.38,37.64 C270.22,37.59 269.17,37.57 268.15,37.57 C265.167531,37.4309034 262.196708,38.0285025 259.5,39.31 C257.373333,40.47 256.31,42.5533333 256.31,45.56 C256.155399,47.8307837 257.132204,50.0314029 258.92,51.44 C260.673333,52.7733333 263.796667,53.44 268.29,53.44 C270.645479,53.4820528 273.001057,53.361768 275.34,53.08 C276.422118,52.947934 277.492113,52.7305913 278.54,52.43 L278.54,38.22 Z"
         id="path6"
         fill="#FFFFFF"
         style="fill:#323e48;fill-opacity:1" />
      <polygon
         id="polygon6"
         fill="#FFFFFF"
         points="290.34 51.35 288.73 51.35 288.73 56.12 288.01 56.12 288.01 51.35 286.4 51.35 286.4 50.69 290.34 50.69"
         style="fill:#323e48;fill-opacity:1" />
      <polygon
         id="polygon7"
         fill="#FFFFFF"
         points="296.73 56.12 296.02 56.12 296.02 51.61 294.27 56.12 293.79 56.12 292.04 51.6 292.04 56.12 291.35 56.12 291.35 50.69 292.43 50.69 294.06 54.96 295.7 50.69 296.77 50.69"
         style="fill:#323e48;fill-opacity:1" />
      <path
         d="M183.49,0 C182.67,1.49 180.84,5.6 180.49,13 L180.49,26.31 C180.50886,26.378149 180.532245,26.444964 180.56,26.51 C181.626737,24.4240497 182.97242,22.4929935 184.56,20.77 C186.903244,18.2930597 189.736762,16.3313936 192.88,15.01 C196.103313,13.6622488 199.566379,12.9818822 203.06,13.01 L203.61,13.01 C199.300099,5.77209567 191.858985,0.960520459 183.49,0 Z"
         id="path7"
         fill="#1ED65F" />
      <path
         d="M177.54,0 C178.37,1.49 180.19,5.6 180.54,13 L180.54,26.31 L180.46,26.51 C179.381278,24.418984 178.018348,22.4873251 176.41,20.77 C174.068526,18.2955315 171.238812,16.3341417 168.1,15.01 C164.873182,13.6622527 161.406854,12.9819136 157.91,13.01 L157.36,13.01 C161.682308,5.75645943 169.149076,0.94265104 177.54,0 L177.54,0 Z"
         id="path8"
         fill="#89EE46" />
    </g>
  </g>
</svg>
