<?xml version="1.0" encoding="UTF-8" standalone="no"?>
<!-- Created with Inkscape (http://www.inkscape.org/) -->

<svg
   version="1.1"
   id="svg1"
   width="112"
   height="26"
   viewBox="0 0 112 26"
   sodipodi:docname="s-core.svg"
   inkscape:version="1.4.3 (0d15f75, 2025-12-25)"
   xmlns:inkscape="http://www.inkscape.org/namespaces/inkscape"
   xmlns:sodipodi="http://sodipodi.sourceforge.net/DTD/sodipodi-0.dtd"
   xmlns="http://www.w3.org/2000/svg"
   xmlns:svg="http://www.w3.org/2000/svg">
  <defs
     id="defs1" />
  <sodipodi:namedview
     id="namedview1"
     pagecolor="#ffffff"
     bordercolor="#000000"
     borderopacity="0.25"
     inkscape:showpageshadow="2"
     inkscape:pageopacity="0.0"
     inkscape:pagecheckerboard="0"
     inkscape:deskcolor="#d1d1d1"
     inkscape:zoom="2.3"
     inkscape:cx="56.086957"
     inkscape:cy="12.826087"
     inkscape:current-layer="g1" />
  <g
     inkscape:groupmode="layer"
     inkscape:label="Image"
     id="g1">
    <g
       id="g2">
      <path
         style="fill:#d4eff8"
         d="m 0,24.047717 c 0,-1.693289 0.81860528,-1.991778 6.170631,-2.25 3.4342259,-0.165692 6.335283,-0.796948 6.541924,-1.423489 0.204211,-0.619174 -2.572573,-3.439266 -6.170631,-6.26687 C 0.85835964,9.6408183 0,8.5354833 0,5.6831298 0,0.79967195 1.4352398,0 10.2,0 17.266798,0 18,0.1833095 18,1.9500961 c 0,1.6689578 -0.817567,1.9933323 -5.670996,2.25 C 9.2099566,4.3650433 6.5016042,4.9750573 6.3104433,5.5556829 6.1192824,6.1363086 8.8962305,8.9620074 12.481439,11.835014 17.806122,16.101947 19,17.589659 19,19.957902 19,24.822506 16.842382,26 7.9285714,26 0.73126299,26 0,25.819938 0,24.047717 Z M 32.556704,23.777494 C 31.442269,22.186415 31,19.124465 31,13 31,0.92808977 31.789355,0 42.056704,0 49.333333,0 50,0.16785643 50,2 50,3.7777778 49.333333,4 44,4 h -6 v 9 9 h 6.5 c 5.833333,0 6.5,0.205128 6.5,2 0,1.842084 -0.666667,2 -8.443296,2 -7.591445,0 -8.600353,-0.224231 -10,-2.222506 z M 54.75,24.919901 C 53.305021,24.078278 53,22.44909 53,15.572755 53,5.619819 53.65137,4.7975044 62.014447,4.192574 67.253857,3.8135893 68.127309,4.0364004 70.430305,6.3393958 72.648021,8.5571123 73,9.7751636 73,15.232039 73,24.50616 71.628435,26.007913 63.193296,25.969591 59.511983,25.952867 55.7125,25.480506 54.75,24.919901 Z M 66,15.5 V 9 H 62.5 59 v 5.833333 c 0,3.208334 0.3,6.133334 0.666667,6.5 C 60.033333,21.7 61.608333,22 63.166667,22 65.987179,22 66,21.970588 66,15.5 Z m 10.015313,1.813358 c 0.0084,-4.847347 0.345922,-9.3084912 0.75,-9.913654 C 78.166964,5.3005363 81.892368,4 86.503809,4 c 4.234985,0 4.607696,0.1943117 4.315742,2.25 -0.255953,1.802199 -1.058024,2.311301 -4.030046,2.5580101 L 83.07901,9.1160202 82.789505,17.30801 82.5,25.5 79.25,25.813358 76,26.126717 Z M 94.2,24.8 C 93.460764,24.060764 93,20.434823 93,15.356704 c 0,-7.3847705 0.23147,-8.4054242 2.222506,-9.8 2.914888,-2.041667 11.640104,-2.041667 14.554984,0 C 111.49107,6.756941 112,8.1028321 112,11.434259 c 0,5.480233 -1.64313,6.857605 -8.00962,6.714171 C 99.643956,18.050507 99,18.291756 99,20.018 99,21.773778 99.68483,22 105,22 c 5.33333,0 6,0.222222 6,2 0,1.82906 -0.66667,2 -7.8,2 -4.733333,0 -8.271795,-0.471795 -9,-1.2 z M 106,11.5 C 106,9.3095238 105.56667,9 102.5,9 99.433333,9 99,9.3095238 99,11.5 c 0,2.190476 0.433333,2.5 3.5,2.5 3.06667,0 3.5,-0.309524 3.5,-2.5 z M 21.184865,13.25 C 21.4032,12.097452 22.623136,11.393019 24.758189,11.186642 27.46776,10.92473 28,11.212045 28,12.936642 28,14.636164 27.369908,15 24.426676,15 c -2.86279,0 -3.507405,-0.347977 -3.241811,-1.75 z"
         id="path8" />
      <path
         style="fill:#b5e4f3"
         d="M 0,24 C 0,22.205128 0.66666667,22 6.5,22 11.578251,22 13,21.675594 13,20.51687 13,19.701149 10.075,16.735072 6.5,13.925589 1.2275208,9.7821084 0,8.2816168 0,5.9801472 0,1.2547306 2.218055,0 10.571429,0 17.333333,0 18,0.17948718 18,2 18,3.7777778 17.333333,4 12,4 4.4937167,4 4.2332729,5.3591043 10.75,10.523022 17.172671,15.612408 19,17.812462 19,20.455796 19,24.564534 16.066842,26 7.6712593,26 0.66666667,26 0,25.826191 0,24 Z m 33,0 C 31.296296,22.296296 31,20.666667 31,13 31,1.0865814 31.961207,0 42.5,0 49.333333,0 50,0.17777778 50,2 50,3.7777778 49.333333,4 44,4 h -6 v 9 9 h 6.5 c 5.833333,0 6.5,0.205128 6.5,2 0,1.833333 -0.666667,2 -8,2 -6.666667,0 -8.333333,-0.333333 -10,-2 z m 21.654988,0.171259 C 53.422666,22.80956 53,20.414631 53,14.793704 53,5.4566969 53.88293,4.5 62.5,4.5 71.257624,4.5 72,5.3664119 72,15.587261 72,25.426127 71.461039,26 62.220729,26 57.764478,26 55.90272,25.549988 54.654988,24.171259 Z M 66,15.5 V 9 H 62.5 59 v 6.5 6.5 h 3.5 3.5 z m 10,1.654988 C 76,6.2754938 77.236164,4.6006827 85.311468,4.5393849 89.846462,4.5049609 90.5,4.7519165 90.5,6.5 c 0,1.5892684 -0.770122,2.0637384 -3.75,2.3103653 L 83,9.1207305 V 15.978578 C 83,24.732715 82.48064,26 78.893011,26 H 76 Z m 18.571429,7.273583 C 92.27407,22.131213 92.33763,7.794608 94.653695,5.8724447 c 2.208397,-1.8328069 13.484215,-1.8328069 15.692615,0 2.12055,1.7599013 2.24604,9.3910623 0.18259,11.1035733 -0.87462,0.72587 -3.5104,1.079617 -6.50062,0.872444 C 99.375752,17.52612 98.998803,17.668652 98.999378,19.75 98.999954,21.833264 99.444629,22 105,22 c 5.33333,0 6,0.222222 6,2 0,1.820513 -0.66667,2 -7.42857,2 -5.419915,0 -7.853481,-0.424908 -9.000001,-1.571429 z M 106,11.5 C 106,9.3095238 105.56667,9 102.5,9 99.433333,9 99,9.3095238 99,11.5 c 0,2.190476 0.433333,2.5 3.5,2.5 3.06667,0 3.5,-0.309524 3.5,-2.5 z M 22,13.066422 C 22,11.426108 22.633737,11 25.073324,11 c 2.386737,0 2.999183,0.390954 2.74145,1.75 -0.200164,1.055477 -1.419875,1.875579 -3.073325,2.066422 C 22.535209,15.07107 22,14.72942 22,13.066422 Z"
         id="path7" />
      <path
         style="fill:#92d7ef"
         d="m 0,24 c 0,-1.794872 0.66666667,-2 6.5,-2 8.06601,0 8.42361,-1.350445 1.75,-6.608733 C 1.7779711,10.29181 0,8.1696527 0,5.5442036 0,1.5149742 2.9589936,0 10.828741,0 17.333333,0 18,0.18592736 18,2 18,3.7777778 17.333333,4 12,4 4.4665878,4 4.1936799,5.4428605 10.75,10.608733 17.222029,15.70819 19,17.830347 19,20.455796 19,24.564534 16.066842,26 7.6712593,26 0.66666667,26 0,25.826191 0,24 Z m 33.75,0.919901 C 32.252474,24.047672 32,22.325888 32,12.985494 32,0.07201148 32.060636,0 42.934259,0 49.333333,0 50,0.18870395 50,2 50,3.7777778 49.333333,4 44,4 h -6 v 8.952283 8.952282 l 6.239957,0.297718 c 5.005612,0.238825 6.305901,0.64389 6.573324,2.047717 0.294879,1.547958 -0.569857,1.746489 -7.489957,1.719591 C 39.020496,25.952867 34.7125,25.480506 33.75,24.919901 Z M 54.654988,24.171259 C 52.976565,22.316623 52.263596,11.082613 53.602823,7.5926443 54.890762,4.2363271 67.015474,3.2889525 70.75,6.252835 c 1.937096,1.5373639 1.678218,16.17609 -0.321429,18.175736 -2.361472,2.361473 -13.569073,2.178645 -15.773583,-0.257312 z M 66,15.5 V 9 H 62.5 59 v 6.5 6.5 h 3.5 3.5 z m 10,2.110784 C 76,7.1198063 77.240974,5.2095418 84.614793,4.3497987 89.912783,3.732085 91.49343,4.5505682 90.417457,7.354507 90.07156,8.2559022 88.315954,9.0154961 86.164213,9.1947491 L 82.5,9.5 82.209558,17.75 81.919115,26 H 78.959558 76 Z m 18.654988,6.560475 c -2.310552,-2.553131 -2.368439,-16.3342575 -0.0766,-18.2363143 2.091451,-1.7357503 13.751773,-1.7357503 15.843223,0 2.04907,1.700578 2.12357,9.3677033 0.10729,11.0410733 -0.87462,0.72587 -3.5104,1.079617 -6.50062,0.872444 C 99.375752,17.52612 98.998803,17.668652 98.999378,19.75 98.999954,21.833264 99.444629,22 105,22 c 5.33333,0 6,0.222222 6,2 0,1.818471 -0.66667,2 -7.34501,2 -5.845739,0 -7.682834,-0.373285 -9.000002,-1.828741 z M 106,11.5 C 106,9.3095238 105.56667,9 102.5,9 99.433333,9 99,9.3095238 99,11.5 c 0,2.190476 0.433333,2.5 3.5,2.5 3.06667,0 3.5,-0.309524 3.5,-2.5 z M 22,13.066422 C 22,11.426108 22.633737,11 25.073324,11 c 2.386737,0 2.999183,0.390954 2.74145,1.75 -0.200164,1.055477 -1.419875,1.875579 -3.073325,2.066422 C 22.535209,15.07107 22,14.72942 22,13.066422 Z"
         id="path6" />
      <path
         style="fill:#6ccae9"
         d="M 0,24 C 0,22.205128 0.66666667,22 6.5,22 12.132679,22 13,21.755752 13,20.16952 13,19.132828 10.952975,16.868977 8.2795468,14.949067 1.6377964,10.179322 0,8.340839 0,5.6549876 0,1.5020124 2.8956803,0 10.902065,0 17.261875,0 18.105974,0.2137257 17.813606,1.75 17.550894,3.1304408 16.26835,3.5633327 11.740282,3.7999039 4.4439768,4.1811029 4.1739181,6.0804085 10.716514,11 19.495547,17.601243 20.767401,20.232599 17,24 15.355556,25.644444 13.666667,26 7.5,26 0.66666667,26 0,25.822222 0,24 Z m 33.654988,0.171259 C 32.359058,22.739274 32,20.277913 32,12.826247 32,0.76865501 32.648948,0 42.828741,0 49.274907,0 50,0.19739718 50,1.9522826 c 0,1.6963768 -0.819252,1.9913075 -6.25,2.25 L 37.5,4.5 v 8.5 8.5 l 6.25,0.297717 c 5.430748,0.258693 6.25,0.553624 6.25,2.25 C 50,25.806896 49.273491,26 42.654988,26 c -5.845737,0 -7.682832,-0.373285 -9,-1.828741 z m 21.567518,0.272037 C 53.271518,23.076771 53,21.996197 53,15.598284 53,6.3845819 54.227315,5 62.394482,5 71.352169,5 72,5.6663561 72,14.880196 c 0,6.296044 -0.354466,8.130616 -1.828741,9.464816 -2.41339,2.184089 -11.88197,2.246342 -14.948753,0.09828 z M 66.805075,16.168824 C 67.157665,10.00732 65.829321,7.7642591 62.085596,8.1994419 59.621269,8.4859034 59.486064,8.8195487 59.20287,15.313175 L 58.90574,22.12635 62.70287,21.813175 66.5,21.5 Z M 77,16.7 C 77,10.8 77.43871,6.9612903 78.2,6.2 80.035988,4.3640118 90,4.6173341 90,6.5 90,7.4198048 89.064643,8 87.581787,8 82.364832,8 82,8.6279233 82,17.606989 82,25.892867 81.968089,26 79.5,26 77.012545,26 77,25.953333 77,16.7 Z m 17.654988,7.471259 C 93.442123,22.831059 93,20.44583 93,15.242688 93,6.076784 93.998707,5 102.5,5 c 7.60218,0 9.5,1.4056366 9.5,7.036245 0,4.819705 -2.40298,6.403867 -8.64643,5.70014 C 99.322031,17.281972 99,17.41782 99,19.572933 c 0,2.131231 0.483511,2.352521 5.74028,2.627163 4.52807,0.236571 5.81061,0.669463 6.07333,2.049904 0.29295,1.539328 -0.56001,1.75 -7.0853,1.75 -5.91677,0 -7.753325,-0.37016 -9.073322,-1.828741 z M 106.41026,12.373252 C 107.31615,10.012554 105.07718,7.8516901 102.0856,8.1994419 100.10075,8.4301673 99.426481,9.1389446 99.183578,11.25 98.892351,13.781026 99.14262,14 102.32659,14 c 2.27236,0 3.67364,-0.558205 4.08367,-1.626748 z M 22,13 c 0,-1.466667 0.666667,-2 2.5,-2 1.833333,0 2.5,0.533333 2.5,2 0,1.466667 -0.666667,2 -2.5,2 C 22.666667,15 22,14.466667 22,13 Z"
         id="path5" />
      <path
         style="fill:#47bde4"
         d="M 0.18671906,24.25 C 0.45414208,22.846173 1.7544305,22.441108 6.7600432,22.202283 15.00786,21.808767 14.954845,20.12171 6.4784543,13.241486 1.7208759,9.3797949 0,7.3362198 0,5.5481902 0,1.8104682 3.498935,0 10.722506,0 16.333333,0 17,0.21239899 17,2 17,3.7575758 16.333333,4 11.5,4 6.8004302,4 6,4.2712729 6,5.8639991 6,6.9146848 7.7720438,8.9560253 10.061273,10.542463 14.796063,13.823674 19,18.542848 19,20.576725 19,21.359526 18.1,22.9 17,24 15.352113,25.647887 13.666667,26 7.4266758,26 0.75365572,26 -0.10701817,25.791963 0.18671906,24.25 Z M 34.222506,24.443296 C 32.180669,23.013137 32,22.082906 32,13 32,0.87395543 32.754459,0 43.222506,0 49.278115,0 50,0.20794165 50,1.9522826 c 0,1.6963768 -0.819252,1.9913075 -6.25,2.25 L 37.5,4.5 v 8.5 8.5 l 6.25,0.297717 c 5.430748,0.258693 6.25,0.553624 6.25,2.25 C 50,25.792058 49.278115,26 43.222506,26 c -4.515694,0 -7.519193,-0.519507 -9,-1.556704 z M 55,24 C 53.389578,22.389578 53,20.666667 53,15.154988 53,6.3380352 54.285637,5 62.757312,5 71.024757,5 72,6.1094622 72,15.514725 c 0,6.48426 -0.2676,7.559301 -2.222506,8.928571 C 66.431079,26.787216 57.519898,26.519898 55,24 Z M 66.5,15 V 8.5 H 63 59.5 L 59.20287,15.313175 58.90574,22.12635 62.70287,21.813175 66.5,21.5 Z M 77,16.535184 C 77,5.6790307 77.496492,5 85.434259,5 88.740942,5 90,5.3969967 90,6.4396347 c 0,0.9417352 -1.296942,1.546975 -3.75,1.75 L 82.5,8.5 82.211067,17.25 C 81.928689,25.801487 81.866299,26 79.461067,26 77.019659,26 77,25.924393 77,16.535184 Z m 18.222506,7.908112 C 93.271518,23.076771 93,21.996197 93,15.598284 93,6.2890492 94.186763,5 102.75731,5 109.89252,5 112,6.4821013 112,11.5 c 0,5.194591 -2.33933,6.847993 -8.75247,6.186099 -5.087105,-0.525036 -5.353,-0.439363 -5.058436,1.629868 0.270486,1.900096 1.089798,2.249036 6.302116,2.684033 4.6697,0.389712 6.06447,0.886008 6.32333,2.25 0.29011,1.528689 -0.53427,1.75 -6.51871,1.75 -4.582058,0 -7.586837,-0.515528 -9.073324,-1.556704 z M 106.5,11 c 0,-2.1121118 -0.52677,-2.5502987 -3.39514,-2.8241831 -3.541172,-0.3381277 -5.06214,0.8965893 -5.089547,4.1316811 -0.01279,1.509886 0.684465,1.756867 4.234687,1.5 C 106.03467,13.533668 106.5,13.226275 106.5,11 Z M 22,13 c 0,-1.466667 0.666667,-2 2.5,-2 1.833333,0 2.5,0.533333 2.5,2 0,1.466667 -0.666667,2 -2.5,2 C 22.666667,15 22,14.466667 22,13 Z"
         id="path4" />
      <path
         style="fill:#30b5e1"
         d="M 0.16550063,24.360178 C 0.45839843,22.823619 1.6056646,22.448205 6.7600432,22.202283 12.078995,21.948508 13,21.628983 13,20.037451 13,18.952658 10.902457,16.630599 7.993927,14.495542 -0.08558167,8.5646375 -1.5376046,5.5376046 2,2 3.5897436,0.41025641 5.3333333,0 10.5,0 16.333333,0 17,0.20512821 17,2 17,3.7549462 16.333333,4 11.559017,4 8.5664763,4 5.8339715,4.4596228 5.486784,5.021384 c -0.3471876,0.5617612 1.0757762,2.4742612 3.1621417,4.25 8.8520183,7.534094 10.5315633,9.579865 9.8139243,11.953861 -1.141698,3.776812 -2.223138,4.249041 -10.6020043,4.629545 -7.41090614,0.336547 -8.02178293,0.217901 -7.69534507,-1.494612 z M 34.222506,24.443296 C 32.180669,23.013137 32,22.082906 32,13 32,0.85752527 32.745112,0 43.29583,0 c 5.984919,0 6.808683,0.22118866 6.517451,1.75 -0.267423,1.4038274 -1.567712,1.8088923 -6.573324,2.0477174 L 37,4.0954348 V 13.047717 22 h 6.5 c 5.833333,0 6.5,0.205128 6.5,2 0,1.80327 -0.666667,2 -6.777494,2 -4.515694,0 -7.519193,-0.519507 -9,-1.556704 z M 57,25.306019 C 54.075296,24.260756 53,21.573282 53,15.30887 53,6.8391919 54.756436,5 62.845012,5 70.778955,5 72,6.4367191 72,15.772037 72,21.990398 71.720039,23.082684 69.777494,24.443296 67.633379,25.945092 60.193684,26.447413 57,25.306019 Z M 66.79569,15.25 66.5,8.5 63.104865,8.1758169 c -2.041856,-0.1949657 -3.729776,0.2036281 -4.234688,1 C 57.871878,10.750384 57.710727,20.377393 58.666667,21.333333 59.033333,21.7 61.078894,22 63.212357,22 H 67.09138 Z M 77,16.535184 C 77,5.6790307 77.496492,5 85.434259,5 88.740942,5 90,5.3969967 90,6.4396347 c 0,0.9417352 -1.296942,1.546975 -3.75,1.75 L 82.5,8.5 82.211067,17.25 C 81.928689,25.801487 81.866299,26 79.461067,26 77.019659,26 77,25.924393 77,16.535184 Z M 95,24 C 93.389578,22.389578 93,20.666667 93,15.154988 93,6.3591434 94.294735,5 102.67375,5 109.61472,5 112,6.7282465 112,11.757312 c 0,4.978108 -2.41266,6.587081 -8.75892,5.841203 -5.176846,-0.608437 -5.372262,-0.545356 -5.062882,1.634311 0.283936,2.000397 1.026784,2.326009 6.313012,2.767174 4.6697,0.389712 6.06447,0.886008 6.32333,2.25 0.29093,1.53303 -0.54486,1.75 -6.74122,1.75 C 98.333333,26 96.622997,25.622997 95,24 Z m 10.83749,-9.878403 c 0.73562,-0.466277 1.18562,-1.921887 1,-3.234687 C 106.54619,8.826657 105.95446,8.5 102.5137,8.5 c -4.095345,0 -5.439125,1.645997 -4.129658,5.058413 0.602129,1.569124 5.305728,1.924528 7.453448,0.563184 z M 22,12.5 C 22,11.566667 22.944444,11 24.5,11 26.055556,11 27,11.566667 27,12.5 27,13.433333 26.055556,14 24.5,14 22.944444,14 22,13.433333 22,12.5 Z"
         id="path3" />
      <path
         style="fill:#01a4db"
         d="M 0,24.5 C 0,23.336805 1.3197284,23 5.8775553,23 10.064414,23 12.140074,22.536147 13.093403,21.387456 14.251891,19.991563 13.966046,19.378009 10.965848,16.820747 -1.1210042,6.5183438 -1.3314579,6.2031365 1.3909817,2.4799785 2.4728459,1.000441 4.3617981,0.4884291 9.8909817,0.17600226 16.535448,-0.19944369 17,-0.09088638 17,1.8372495 17,3.6434035 16.294092,3.9375234 11.329004,4.2000961 8.2099566,4.3650433 5.4905259,5.008292 5.285825,5.6295379 5.081124,6.2507837 7.8580721,9.1020302 11.456821,11.965641 17.106694,16.461382 18,17.616374 18,20.425588 18,24.625601 15.153017,26 6.452947,26 1.3836608,26 0,25.678365 0,24.5 Z m 35,0.208098 C 32.614566,23.503531 32.487016,22.984083 32.216674,13.372942 31.870926,1.0809772 32.189176,0.6808061 42.73402,0.14831561 c 6.840617,-0.34543548 7.427227,-0.22255208 7.101237,1.48757209 -0.294096,1.5428138 -1.43722,1.9155919 -6.632182,2.162787 L 36.926237,4.0973495 37.213118,13.298675 37.5,22.5 l 6.25,0.297717 c 4.660953,0.222024 6.25,0.666957 6.25,1.75 0,1.880708 -11.352811,2.002093 -15,0.160381 z m 21.25,0.127195 C 54.188637,23.790024 54,22.997506 54,15.382369 54,5.7596577 54.637422,5 62.711752,5 70.35773,5 72,6.7443483 72,14.865574 72,23.692703 70.856155,25.214672 63.899858,25.643408 60.929936,25.826452 57.4875,25.462801 56.25,24.835293 Z M 66.5,15.5 v -7 h -4 -4 l -0.302421,5.834373 c -0.358616,6.918478 0.857565,8.89213 5.217246,8.466692 L 66.5,22.5 Z M 77,17.224539 C 77,9.8582462 77.317614,8.0225388 78.828741,6.6549876 81.214663,4.4957579 90,4.3263995 90,6.4396347 c 0,0.9417352 -1.296942,1.546975 -3.75,1.75 L 82.5,8.5 82,17 c -0.46332,7.876438 -0.66506,8.523442 -2.75,8.819551 C 77.061033,26.130434 77,25.897286 77,17.224539 Z m 20,8.08148 C 94.075296,24.260756 93,21.573282 93,15.30887 93,6.9448527 94.792253,5 102.5,5 c 4.16667,0 5.98485,0.4848485 7.5,2 2.58489,2.5848912 2.54978,6.450216 -0.0825,9.082492 -1.78243,1.782424 -2.80209,1.983523 -7.07649,1.395642 l -4.994005,-0.686851 0.326493,2.854359 c 0.312171,2.729155 0.578709,2.867513 6.076492,3.154262 4.21862,0.220031 5.75,0.686104 5.75,1.75 0,1.107821 -1.35721,1.431462 -5.75,1.371149 -3.1625,-0.04342 -6.425,-0.320187 -7.25,-0.615034 z M 106.5,11.5 c 0,-2.8333333 -0.22222,-3 -4,-3 -3.797214,0 -4.016116,0.1678465 -4.317894,3.310815 l -0.317895,3.310816 4.317899,-0.310816 C 106.24403,14.518426 106.5,14.322156 106.5,11.5 Z M 22,12.5 C 22,11.566667 22.944444,11 24.5,11 26.055556,11 27,11.566667 27,12.5 27,13.433333 26.055556,14 24.5,14 22.944444,14 22,13.433333 22,12.5 Z"
         id="path2" />
    </g>
  </g>
</svg>
