<?xml version="1.0" encoding="UTF-8" standalone="no"?>
<!-- Created with Inkscape (http://www.inkscape.org/) -->

<svg
   version="1.1"
   id="svg1"
   width="221.41052"
   height="131.76944"
   viewBox="0 0 221.41052 131.76944"
   sodipodi:docname="saic.svg"
   inkscape:version="1.4.3 (0d15f75, 2025-12-25)"
   xmlns:inkscape="http://www.inkscape.org/namespaces/inkscape"
   xmlns:sodipodi="http://sodipodi.sourceforge.net/DTD/sodipodi-0.dtd"
   xmlns="http://www.w3.org/2000/svg"
   xmlns:svg="http://www.w3.org/2000/svg">
  <defs
     id="defs1" />
  <sodipodi:namedview
     id="namedview1"
     pagecolor="#ffffff"
     bordercolor="#000000"
     borderopacity="0.25"
     inkscape:showpageshadow="2"
     inkscape:pageopacity="0.0"
     inkscape:pagecheckerboard="0"
     inkscape:deskcolor="#d1d1d1"
     inkscape:zoom="0.98"
     inkscape:cx="109.69388"
     inkscape:cy="67.857143"
     inkscape:current-layer="g1" />
  <g
     inkscape:groupmode="layer"
     inkscape:label="Image"
     id="g1"
     transform="translate(-37.236365,-84.034704)">
    <path
       style="fill:#000000"
       d="m 110.81457,215.59956 c -0.732,-0.10826 -2.19783,-0.62362 -3.25742,-1.14525 -5.67512,-2.79385 -7.741241,-10.02661 -4.45443,-15.59338 2.10599,-3.56686 5.43025,-5.40639 9.77001,-5.40639 6.89461,0 11.68466,5.03173 11.28944,11.85903 -0.39186,6.76911 -6.30676,11.32727 -13.3476,10.28599 z m 4.89229,-3.84585 c 0.93572,-0.3539 3.18142,-2.49541 3.74134,-3.56777 0.26226,-0.50227 0.54168,-1.90076 0.62095,-3.10775 0.12049,-1.83483 0.0378,-2.44169 -0.50456,-3.70242 -1.94588,-4.52331 -7.64123,-5.93432 -11.30272,-2.80022 -1.9392,1.65988 -2.50943,3.00819 -2.50943,5.93353 0,1.97567 0.12575,2.70664 0.62556,3.63637 1.83138,3.40662 5.8017,4.94228 9.32886,3.60826 z m 49.17474,3.80109 c -2.07919,-0.3503 -4.41089,-1.54152 -5.86641,-2.99704 -5.86759,-5.86759 -3.45377,-16.06323 4.41584,-18.6519 2.3359,-0.76838 6.36795,-0.54606 8.5472,0.47129 4.49206,2.09704 7.22661,7.15439 6.40143,11.83899 -0.87574,4.97165 -4.436,8.56631 -9.26816,9.3577 -1.89902,0.31102 -2.28101,0.3093 -4.2299,-0.019 z m 5.44568,-4.03942 c 1.34282,-0.58767 2.84857,-2.1872 3.52486,-3.7444 0.62598,-1.44135 0.61914,-4.80692 -0.0127,-6.26335 -0.7109,-1.63861 -2.64399,-3.58754 -4.11595,-4.14968 -1.86421,-0.71195 -4.83993,-0.45708 -6.4374,0.55135 -2.11387,1.33443 -3.57696,4.01691 -3.57696,6.55813 0,1.31967 0.74563,3.66187 1.51838,4.76959 1.9348,2.77349 5.77274,3.73442 9.0998,2.27836 z m 29.44916,4.04837 c -5.7278,-1.00889 -10.08763,-7.18905 -8.97609,-12.72381 0.68147,-3.39327 2.28315,-5.87997 4.82588,-7.49245 2.13331,-1.35284 4.00381,-1.89295 6.55559,-1.89295 4.65794,0 8.47446,2.41664 10.37599,6.57013 1.94192,4.2417 0.67151,10.07694 -2.84142,13.05122 -2.40604,2.0371 -6.57504,3.08055 -9.93995,2.48786 z m 5.31447,-3.96982 c 5.23923,-2.17879 5.77863,-10.31968 0.90083,-13.59565 -0.99102,-0.66558 -1.68143,-0.87465 -3.26174,-0.98772 -2.43715,-0.17437 -4.07856,0.36757 -5.60591,1.85092 -5.13282,4.98493 -1.25975,14.12625 5.63955,13.31063 0.72,-0.0851 1.76727,-0.3453 2.32727,-0.57818 z m -167.656358,3.78001 c -0.109003,-0.10901 -0.198187,-0.82582 -0.198187,-1.59293 0,-1.5696 -0.0033,-1.5649 5.943701,-8.54465 1.772226,-2.08 3.873339,-4.56728 4.669139,-5.52728 0.7958,-0.96 1.576948,-1.83652 1.735883,-1.94782 0.696173,-0.48752 -0.456063,-0.6003 -5.757898,-0.56361 -6.378871,0.0442 -6.395178,0.0388 -6.244966,-2.04889 l 0.0905,-1.25786 8.654546,-0.077 8.654546,-0.0771 v 1.44755 c 0,1.29 -0.14817,1.63085 -1.361352,3.1316 -2.123467,2.62682 -8.801314,10.56635 -10.035946,11.9321 -0.611486,0.67642 -1.111794,1.3637 -1.111794,1.52727 0,0.19341 2.192288,0.29741 6.269063,0.29741 h 6.269064 l -0.08725,1.67273 -0.08724,1.67272 -8.601813,0.077 c -4.730997,0.0423 -8.690997,-0.0122 -8.8,-0.12121 z m 22.400332,3.3e-4 c -0.109186,-0.10919 -0.198519,-5.02034 -0.198519,-10.91367 v -10.71515 h 8.014518 8.014518 l -0.08724,1.67272 -0.08725,1.67273 -3.054545,0.0649 c -1.680001,0.0357 -4.401277,0.0684 -6.047281,0.0727 l -2.992735,0.008 0.08364,2.6909 0.08364,2.69091 5.381818,0.14546 5.381819,0.14545 v 1.6 1.6 l -5.465002,0.0792 -5.465003,0.0792 0.08318,2.82991 0.08318,2.8299 6.196162,0.0786 6.196162,0.0786 -0.08707,1.6669 -0.08707,1.6669 -7.874209,0.0773 c -4.330815,0.0425 -7.963542,-0.012 -8.072727,-0.12121 z m 20.662659,0.008 c -0.113648,-0.11365 -0.206632,-5.02845 -0.206632,-10.92178 v -10.71515 h 5.765382 c 6.909613,0 8.272155,0.28825 10.126151,2.14225 2.627251,2.62725 2.4897,7.27211 -0.287564,9.71058 -0.588051,0.51632 -1.394056,1.0203 -1.791122,1.11995 -1.03048,0.25864 -0.906598,0.80997 0.672205,2.99163 2.670804,3.69065 3.822867,5.48524 3.639213,5.6689 -0.39263,0.39263 -3.823476,0.18955 -4.265511,-0.25248 -0.240543,-0.24055 -1.526257,-2.01015 -2.857143,-3.93246 l -2.419792,-3.49512 -2.327273,0.0779 -2.327273,0.0779 -0.145455,3.78182 -0.145454,3.78181 -1.61155,0.0854 c -0.886353,0.047 -1.704535,-0.008 -1.818182,-0.12121 z m 11.404,-11.39636 c 1.897584,-0.94668 2.627424,-2.93707 1.805008,-4.92256 -0.634329,-1.5314 -1.576918,-1.8271 -5.824161,-1.8271 h -3.809661 v 3.44242 c 0,1.89333 0.08727,3.5297 0.19394,3.63636 0.106667,0.10667 1.644848,0.18766 3.418182,0.17997 2.431664,-0.0105 3.468205,-0.13568 4.216692,-0.50909 z m 51.128767,11.38367 c -0.10667,-0.10667 -0.19394,-4.22615 -0.19394,-9.15441 v -8.96046 l -3.41818,-0.082 L 136,197.0909 v -1.6 -1.6 h 8.87273 8.87273 v 1.6 1.6 l -3.41818,0.082 -3.41819,0.082 v 8.69425 c 0,4.78183 -0.0795,8.90132 -0.17657,9.1544 -0.13257,0.34547 -0.59176,0.46016 -1.84243,0.46016 -0.91621,0 -1.75312,-0.0873 -1.85978,-0.19394 z m 75.06724,0.0127 c -0.11365,-0.11365 -0.20664,-5.02845 -0.20664,-10.92178 v -10.71515 l 1.81819,0.01 1.81818,0.01 3.2,4.10971 c 5.84303,7.50412 8.04696,10.26972 8.24267,10.34332 0.10653,0.0401 0.19369,-3.16721 0.19369,-7.12728 v -7.20011 h 1.89091 1.89091 l 0.0764,10.59874 c 0.0597,8.28574 -0.004,10.64962 -0.29091,10.83191 -0.20202,0.12824 -0.91838,0.23517 -1.59191,0.23762 -1.52918,0.006 -1.31412,0.23363 -7.87094,-8.34658 -2.83746,-3.71307 -5.25499,-6.75671 -5.37228,-6.76364 -0.1173,-0.007 -0.24821,3.35831 -0.29091,7.47831 l -0.0776,7.49091 -1.61155,0.0854 c -0.88635,0.047 -1.70454,-0.008 -1.81818,-0.12121 z m 24.40207,-0.0662 c -0.0872,-0.14117 -0.16813,-5.01963 -0.17973,-10.841 l -0.0211,-10.58432 8.02889,-0.0773 8.0289,-0.0774 -0.0874,1.66663 -0.0874,1.66664 -1.45454,0.0576 c -0.8,0.0317 -3.52128,0.0692 -6.04728,0.0834 l -4.59274,0.0259 0.0837,2.6909 0.0836,2.69091 5.38182,0.14546 5.38182,0.14545 0.0139,1.30909 c 0.008,0.72 -0.0391,1.47273 -0.10386,1.67273 -0.0886,0.27349 -1.44679,0.36364 -5.47901,0.36364 h -5.36123 l 0.0833,2.83636 0.0833,2.83636 6.19616,0.0786 6.19617,0.0786 -0.0871,1.6669 -0.0871,1.6669 -7.90723,0.0774 c -4.35072,0.0426 -7.97859,-0.0381 -8.06588,-0.17932 z M 185.3091,177.29247 c -0.4,-0.0675 -1.84,-0.26537 -3.2,-0.43968 -8.04157,-1.03073 -16.92842,-4.83812 -22.98182,-9.8461 -2.36829,-1.95929 -4.94546,-4.43774 -4.94546,-4.75603 0,-0.15343 0.68628,-1.40986 1.52507,-2.79208 1.48443,-2.44617 2.98877,-5.37356 4.28133,-8.33131 0.34961,-0.8 0.82504,-1.8723 1.05652,-2.38289 0.39087,-0.86218 2.44617,-6.4818 2.44617,-6.68834 0,-0.0508 0.11479,-0.0924 0.25509,-0.0924 0.1403,0 0.5226,0.62182 0.84957,1.38182 2.2431,5.21389 7.25027,10.29263 12.74937,12.93162 4.54093,2.17918 6.82606,2.6578 12.6187,2.64301 4.33483,-0.0111 5.05092,-0.0873 7.38921,-0.78667 5.49463,-1.64339 9.48502,-4.11221 13.14174,-8.13068 6.78799,-7.45951 9.14521,-18.50438 6.03072,-28.25728 -0.79069,-2.476 -1.97985,-4.83657 -3.82818,-7.59922 -3.73786,-5.58687 -9.36955,-9.43279 -16.41534,-11.21015 -3.06025,-0.77198 -9.12448,-0.83029 -12.53432,-0.12053 -8.03165,1.67179 -14.57369,6.68754 -18.99878,14.56626 -1.62356,2.89071 -3.62038,7.75103 -5.199,12.65455 -5.51833,17.14108 -7.7911,22.52069 -11.95538,28.29823 -2.69191,3.73477 -4.50854,5.75726 -7.22007,8.03823 -2.92633,2.46166 -4.36947,3.43937 -7.45544,5.05098 -3.67107,1.91717 -5.80849,2.64275 -11.78892,4.00191 -3.24047,0.73645 -9.12694,0.88228 -32.402605,0.80275 l -24.29091,-0.083 -0.07789,-7.05224 -0.07789,-7.05223 9.69067,-12.14776 c 5.329868,-6.68128 12.557034,-15.74777 16.060368,-20.14777 3.503335,-4.4 8.402232,-10.55273 10.886437,-13.67273 2.48421,-3.12 5.40482,-6.73599 6.49026,-8.03553 1.08543,-1.29954 1.97351,-2.51203 1.97351,-2.69442 0,-0.24536 -5.73181,-0.32978 -22.036365,-0.32456 -12.12,0.004 -22.201893,0.005 -22.404205,0.004 -0.290147,-0.003 -0.351591,-1.89295 -0.290909,-8.948996 l 0.07693,-8.945455 h 35.927279 35.92727 l 0.0779,7.057683 0.0779,7.057688 -6.91427,8.65467 c -3.80284,4.76007 -8.36494,10.48593 -10.13799,12.72413 -1.77306,2.23821 -5.50959,6.94946 -8.30342,10.46946 -2.79383,3.52 -6.77588,8.54923 -8.849,11.17605 -2.07312,2.62683 -5.307496,6.7056 -7.187496,9.06394 -1.88,2.35835 -3.418182,4.36549 -3.418182,4.46032 0,0.30344 19.069918,0.18427 21.433498,-0.13394 9.5325,-1.28337 15.72024,-6.01151 20.76095,-15.86378 0.94219,-1.84153 1.83854,-3.76752 1.9919,-4.27996 0.15335,-0.51244 0.8634,-2.56808 1.57788,-4.56808 0.71448,-2 1.9751,-5.74796 2.80137,-8.32881 2.94777,-9.20725 5.27823,-14.59395 8.21848,-18.99646 4.75341,-7.117409 10.84082,-12.542708 18.12502,-16.153602 5.95969,-2.954315 9.695,-4.114529 15.9815,-4.963967 9.99685,-1.350781 20.25829,0.240316 29.07768,4.508666 2.78013,1.345509 7.43486,4.256075 9.33055,5.834321 7.32398,6.097522 12.56055,14.418322 15.16346,24.094402 1.79569,6.67534 1.71449,16.99202 -0.18975,24.10756 -1.10362,4.12384 -3.49836,9.56992 -5.59951,12.73425 -7.47268,11.25389 -18.50537,18.49755 -31.941,20.97127 -2.3096,0.42524 -11.76344,0.80721 -13.3502,0.53939 z"
       id="path1" />
  </g>
</svg>
