<?xml version="1.0" encoding="UTF-8" standalone="no"?>
<svg
   xmlns:dc="http://purl.org/dc/elements/1.1/"
   xmlns:cc="http://creativecommons.org/ns#"
   xmlns:rdf="http://www.w3.org/1999/02/22-rdf-syntax-ns#"
   xmlns:svg="http://www.w3.org/2000/svg"
   xmlns="http://www.w3.org/2000/svg"
   viewBox="0 0 570.00002 70.000002"
   version="1.1"
   id="svg8"
   width="570"
   height="70">
  <metadata
     id="metadata14">
    <rdf:RDF>
      <cc:Work
         rdf:about="">
        <dc:title></dc:title>
      </cc:Work>
    </rdf:RDF>
  </metadata>
  <defs
     id="defs12" />
  <path
     id="path31"
     style="fill:#16458e;stroke-width:0.712209"
     d="m 469.96289,2.7357126 v 33.1356904 33.13569 l 13.55664,-0.03197 c 9.52168,-0.02221 14.34782,-0.322177 16.21875,-1.00496 6.20515,-2.264535 10.07807,-6.691036 12.32813,-14.091409 1.71179,-5.629949 1.64286,-28.526615 -0.10547,-35.277472 C 508.5256,5.3366582 503.48477,2.7799771 480.70117,2.7496981 Z M 483.3418,13.540524 h 5.1875 c 9.73335,0 11.28163,3.410162 10.90039,24.009141 -0.21942,11.856171 -0.39327,13.400034 -1.83789,16.39902 -0.88402,1.835217 -2.38857,3.68102 -3.37696,4.141711 -0.98077,0.457112 -3.82893,0.83114 -6.32812,0.83114 H 483.3418 V 36.23103 Z" />
  <path
     id="path23"
     style="fill:#16458e;stroke-width:0.711984"
     d="M 86.699219,2.93494 H 77.820312 68.941406 L 61.724609,29.772582 C 57.755439,44.42207 53.74465,59.243198 52.8125,62.707607 l -1.695312,6.299486 h 6.601562 6.599609 l 1.046875,-3.779691 c 0.57632,-2.07865 1.414552,-5.31931 1.863282,-7.199982 l 0.816406,-3.418295 h 9.296875 9.294922 l 1.662109,7.197986 1.66211,7.199982 h 7.158203 7.158199 L 97.689453,44.35025 C 94.066133,30.789587 90.111101,15.87918 88.900391,11.215558 Z m -9.666016,14.24067 c 0.36531,0 6.341891,25.283476 6.337891,26.81524 -6.4e-4,0.296956 -2.874929,0.5391 -6.386719,0.5391 -5.74747,0 -6.348524,-0.125917 -6.027344,-1.259896 0.19624,-0.692881 1.546503,-6.84734 3.001953,-13.677171 1.45545,-6.829831 2.838709,-12.417273 3.074219,-12.417273 z" />
  <path
     style="fill:#16458e;stroke-width:0.711913"
     d="M 287.58128,35.899388 V 3.1516211 h 9.07904 c 6.603,0 9.17642,-0.6543206 9.43647,0 0.19668,0.4948135 3.88403,10.7967089 8.19409,22.2333989 4.31007,11.43669 8.13445,21.315012 8.49858,21.951824 0.4235,0.740616 0.66982,-7.086834 0.68348,-21.72166 l 0.0218,-22.4635629 h 6.16155 6.16156 l 0.18316,32.9277359 0.18308,32.927736 h -9.08375 -9.08375 l -8.70378,-23.931088 -8.70385,-23.931088 -0.18555,23.931088 -0.18555,23.931088 h -6.32816 -6.32809 V 35.899449 Z"
     id="path29" />
  <path
     style="fill:#16458e;stroke-width:0.712007"
     d="M 110.12851,35.871894 V 2.93494 h 10.7387 10.73871 l 4.92058,21.976893 c 2.7063,11.977707 5.09719,21.777656 5.31309,21.777656 0.21591,0 2.75482,-9.799949 5.64209,-21.777656 L 152.73125,2.93494 h 10.38662 10.38662 v 32.936463 33.13569 h -6.33759 -6.3376 l -0.0211,-25.017318 c -0.012,-13.759516 -0.28357,-24.53136 -0.60404,-23.937421 -0.32047,0.59393 -3.20134,11.851722 -6.40189,25.017308 l -5.81919,23.937431 h -6.60406 c -3.63215,0 -6.60399,0.261305 -6.60399,0 0,-1.144817 -10.67195,-47.299917 -11.24191,-48.594786 -0.39153,-0.889422 -0.652,8.123678 -0.68144,23.577468 l -0.0479,25.017318 h -6.3376 -6.3376 z"
     id="path27" />
  <path
     style="fill:#16458e;stroke-width:0.705747"
     d="m 249.55569,68.55371 c -7.01615,-1.278078 -11.45775,-4.250512 -14.3241,-9.586073 -1.46871,-2.734076 -1.52687,-3.72781 -1.72763,-29.530602 L 233.29622,2.7357127 h 6.68864 6.68856 l 0.20886,25.6403393 c 0.18832,23.11904 0.33096,25.820892 1.45095,27.476456 3.85545,5.698786 12.70084,4.020551 14.57733,-2.765725 0.42574,-1.539851 0.72248,-12.378649 0.72474,-26.479026 l 0.007,-23.8720443 h 6.68969 6.68969 l -0.007,24.9330273 c 0,14.133655 -0.30336,26.015868 -0.69537,27.433054 -0.38026,1.375018 -1.61757,3.966922 -2.74953,5.759796 -3.7977,6.015552 -14.46311,9.431858 -24.0138,7.69212 z"
     id="path21" />
  <path
     style="fill:#16458e;stroke-width:0.704636"
     d="m 532.46218,67.955959 c -6.43076,-1.980114 -10.38965,-8.31613 -10.38965,-16.628144 v -3.397497 h 6.6085 6.60855 l 0.4958,3.972624 c 0.6568,5.264363 2.6067,7.308891 6.9707,7.308891 4.1392,0 5.2187,-0.480214 6.4533,-2.870812 3.006,-5.820406 0.3992,-9.451486 -11.997,-16.711433 -10.95055,-6.413226 -15.25104,-12.989895 -14.1152,-21.585889 1.40103,-10.6028023 7.64765,-15.2537881 20.559,-15.3074979 12.8449,-0.05347 18.4797,4.2770197 19.1433,14.7120339 l 0.2829,4.448733 -6.5974,-0.203835 -6.5974,-0.203845 -0.2046,-2.11529 c -0.3458,-3.576939 -1.5859,-5.834634 -3.6824,-6.704154 -4.5237,-1.876229 -9.1403,1.367497 -9.1403,6.422168 0,3.814248 2.7076,6.600019 10.9273,11.242594 8.7468,4.940322 12.1052,7.850004 14.1599,12.268297 1.8942,4.073075 2.2377,10.66999 0.8055,15.469479 -1.3156,4.408711 -5.6868,8.374436 -10.8204,9.81674 -5.2057,1.462532 -14.8303,1.495565 -19.4704,0.06689 z"
     id="path19" />
  <path
     style="fill:#16458e;stroke-width:0.705294"
     d="m 429.0408,68.137131 c -6.47703,-2.08609 -10.48239,-8.712604 -10.48239,-17.341994 v -2.79088 h 6.60166 6.60167 l 0.44011,2.207544 c 0.24203,1.214141 0.44011,2.976958 0.44011,3.917373 0,2.855986 2.95952,5.177691 6.60005,5.177691 4.13916,0 5.21866,-0.481112 6.45322,-2.87618 2.71003,-5.257151 0.56736,-9.009904 -8.2419,-14.435318 -10.36381,-6.382803 -13.41635,-8.932188 -15.67113,-13.088066 -1.73748,-3.202542 -2.03824,-4.533743 -2.01021,-8.897729 0.0768,-11.9592147 6.5661,-17.2601952 21.14617,-17.2738383 6.74272,-0.00602 11.31058,1.2994309 14.50726,4.1469695 2.30139,2.0501159 3.94326,6.5788228 3.9598,10.9224138 l 0.0155,4.061881 h -6.29451 -6.29443 l -0.45004,-3.002258 c -0.24759,-1.651234 -0.8215,-3.506634 -1.27548,-4.123084 -3.79439,-5.1526008 -11.74012,-2.194714 -11.74012,4.370376 0,3.815611 2.65398,6.543863 10.92623,11.231914 12.48613,7.076116 15.83562,11.346276 15.82858,20.17918 -0.007,6.358948 -0.96156,9.641332 -3.73144,12.806134 -3.57243,4.081753 -7.32626,5.376419 -16.33368,5.633362 -5.44217,0.155231 -8.7123,-0.09029 -10.99503,-0.825491 z"
     id="path17" />
  <path
     style="fill:#16458e;stroke-width:0.704679"
     d="m 362.57628,68.607992 c -12.85723,-2.88472 -16.52395,-10.230842 -16.5424,-33.141729 -0.0155,-19.490465 4.01698,-28.7051326 13.86998,-31.6928395 3.56328,-1.0804958 12.64477,-1.3985579 16.1101,-0.564232 7.72709,1.8603945 12.76062,7.8034525 13.49698,15.9358515 l 0.37173,4.105837 h -6.69588 -6.69589 l -0.36624,-3.253876 c -0.70326,-6.248351 -5.61413,-9.557145 -10.62963,-7.16199 -4.33781,2.071505 -4.98685,4.631594 -5.26324,20.760059 -0.269,15.69538 0.40004,20.982556 3.0443,24.058118 1.47293,1.713205 2.11486,1.912228 6.10649,1.893211 7.05516,-0.03365 6.92517,0.117827 6.92517,-8.066196 v -7.073925 h -3.87298 -3.87298 v -4.936257 -4.936266 h 10.56267 10.56266 v 16.171617 c 0,14.792827 -0.10506,16.202651 -1.23231,16.535464 -4.87495,1.439326 -21.61523,2.323703 -25.87853,1.367153 z"
     id="path15" />
  <path
     style="fill:#16458e;stroke-width:0.704821"
     d="m 192.69172,67.86256 c -6.6154,-2.357356 -9.34162,-6.428466 -9.88476,-14.761102 l -0.33335,-5.114612 h 6.68377 6.68377 l 0.40864,3.966159 c 0.56763,5.510262 2.3442,7.321223 7.18226,7.321223 4.75292,0 6.87425,-2.021805 6.97389,-6.646834 0.0577,-2.680335 -0.29287,-3.523592 -2.34885,-5.648985 -1.32921,-1.374095 -5.41421,-4.29036 -9.07784,-6.480591 -12.41641,-7.423059 -15.23834,-11.195614 -15.24214,-20.376807 -0.007,-11.7266418 6.43921,-17.3195349 20.02991,-17.3842328 8.22473,-0.039171 11.65584,0.9927093 15.23982,4.583263 3.13711,3.1428578 4.48385,6.6118298 4.49033,11.5664098 l 0.007,2.998214 h -6.59807 -6.59815 L 209.93361,18.557 c -0.27435,-2.438223 -0.87396,-3.758169 -2.24344,-4.93825 -3.42906,-2.954955 -8.95038,-1.380145 -10.12685,2.888415 -1.52124,5.519569 0.68383,8.309073 11.27663,14.265218 7.41739,4.170681 11.65992,7.79671 13.66316,11.677693 1.7639,3.417198 2.09521,10.180964 0.72932,14.888163 -2.37076,8.16986 -7.50907,11.238092 -19.44524,11.611162 -5.86347,0.183254 -8.15937,-0.04168 -11.09241,-1.086871 z"
     id="path13" />
  <path
     style="fill:#16458e;stroke-width:0.704178"
     d="M 15.238927,67.705986 C 8.6460974,65.428416 5.8983774,61.343196 5.3542074,53.009636 l -0.33337,-5.10529 h 6.6837696 6.68377 l 0.4086,3.95892 c 0.56768,5.50027 2.34426,7.30793 7.1823,7.30793 4.75294,0 6.87423,-2.01813 6.97389,-6.63472 0.0577,-2.67546 -0.29287,-3.51718 -2.34888,-5.6387 -1.32922,-1.37158 -5.41422,-4.28253 -9.07778,-6.46877 C 9.1100874,33.019466 6.2881574,29.253796 6.2843274,20.089326 6.2793274,8.3840664 12.723517,2.8013564 26.314227,2.7367764 c 8.22476,-0.0391 11.65583,0.99091 15.23984,4.57492 3.13712,3.1371196 4.48386,6.5997796 4.49035,11.5453196 l 0.004,2.99276 h -6.59811 -6.5981 l -0.3744,-3.32161 c -0.27432,-2.43377 -0.87396,-3.75132 -2.24338,-4.92924 -3.42908,-2.94958 -8.95042,-1.37764 -10.12688,2.88314 -1.49802,5.42539 0.69921,8.2899 10.64635,13.87957 8.47483,4.76232 11.37535,7.10813 13.71944,11.09562 1.71451,2.91656 1.92717,3.9776 1.92717,9.61589 0,5.45291 -0.24575,6.77614 -1.76045,9.47915 -3.24216,5.78569 -9.54053,8.49298 -19.66874,8.45439 -3.94608,-0.0151 -7.31344,-0.46507 -9.73232,-1.3007 z"
     id="path36" />
</svg>
