<svg width="192" height="32" viewBox="0 0 192 32" fill="none" xmlns="http://www.w3.org/2000/svg">
<path d="M12.0636 0.455877C14.1436 -0.061354 16.378 -0.129328 18.4949 0.205581C20.6119 0.540491 22.64 1.29743 24.4587 2.43144C26.2774 3.56545 27.8496 5.0534 29.0821 6.80691C30.3145 8.56042 31.1819 10.5437 31.6329 12.639H29.3995C29.0089 10.8243 28.3973 9.55711 27.3299 8.03837C26.2625 6.51964 24.9007 5.23091 23.3255 4.24873C21.7503 3.26655 19.9938 2.61096 18.1603 2.32089C16.3268 2.03082 13.8651 2.24192 12.0636 2.6899V0.455877Z" fill="url(#paint0_linear_17137_3395)"/>
<path d="M11.0639 0.813293C8.39185 1.6793 5.99499 3.2086 4.11437 5.29495C2.23375 7.3813 0.935679 9.92608 0.350719 12.6733L2.59144 12.6734C3.09829 10.293 4.07143 8.5328 5.70092 6.72505C7.33041 4.9173 8.74866 3.79766 11.0639 3.0473V0.813293Z" fill="url(#paint1_linear_17137_3395)"/>
<path d="M0.182028 13.5983C-0.0627126 15.2066 -0.0606472 16.843 0.188153 18.4507H2.32337C2.10709 17.0531 2.04183 14.9964 2.25458 13.5983H0.182028Z" fill="url(#paint2_linear_17137_3395)"/>
<path d="M31.8032 18.4482C32.0524 16.8362 32.0535 15.1955 31.8066 13.5831L29.6797 13.5831C29.8935 14.9789 29.8833 17.0218 29.6676 18.4173L31.8032 18.4482Z" fill="url(#paint3_linear_17137_3395)"/>
<path d="M0.357178 19.3661C0.948413 22.1166 2.25461 24.6625 4.144 26.7469C6.03338 28.8314 8.4391 30.3806 11.1185 31.2384V29.0178C8.78954 28.2723 7.33635 27.1537 5.69409 25.3419C4.05182 23.5301 3.01599 21.7568 2.50208 19.3661L0.357178 19.3661Z" fill="url(#paint4_linear_17137_3395)"/>
<path d="M12.1177 31.5228C14.2011 32.0434 16.3679 32.1392 18.4891 31.8044C20.6102 31.4696 22.6423 30.7112 24.464 29.5743C26.2858 28.4373 27.86 26.9452 29.0927 25.1869C30.3255 23.4286 31.1915 21.4401 31.6393 19.3398L29.4562 19.3399C29.0681 21.1601 28.4151 22.4389 27.3467 23.9628C26.2783 25.4867 24.9139 26.7799 23.335 27.7652C21.7562 28.7506 19.995 29.4079 18.1566 29.6981C16.3183 29.9882 13.9234 29.8597 12.1178 29.4085L12.1177 31.5228Z" fill="url(#paint5_linear_17137_3395)"/>
<circle cx="15.9955" cy="16.1742" r="12.2423" fill="url(#paint6_linear_17137_3395)"/>
<path d="M13.5827 18.6763C13.5827 18.0543 13.7168 17.4385 13.9773 16.8639C14.2377 16.2892 14.6195 15.7671 15.1008 15.3274C15.5821 14.8876 16.1534 14.5387 16.7822 14.3007C17.4111 14.0627 18.085 13.9402 18.7656 13.9402C19.4463 13.9402 20.1202 14.0627 20.749 14.3007C21.3779 14.5387 21.9492 14.8876 22.4305 15.3274C22.9118 15.7671 23.2935 16.2892 23.554 16.8639C23.8145 17.4385 23.9485 18.0543 23.9485 18.6763L18.7656 18.6763L13.5827 18.6763Z" fill="#7DBFD7"/>
<path d="M18.5869 13.9402C18.5869 14.5739 18.4529 15.2013 18.1924 15.7868C17.9319 16.3722 17.5502 16.9042 17.0689 17.3523C16.5876 17.8004 16.0163 18.1558 15.3874 18.3983C14.7586 18.6408 14.0847 18.7656 13.404 18.7656C12.7234 18.7656 12.0494 18.6408 11.4206 18.3983C10.7918 18.1558 10.2204 17.8004 9.73917 17.3523C9.25789 16.9042 8.87613 16.3722 8.61566 15.7868C8.3552 15.2013 8.22114 14.5739 8.22114 13.9402L13.404 13.9402L18.5869 13.9402Z" fill="#FAFBFB"/>
<path d="M13.3147 19.5699C13.3147 20.1918 13.4487 20.8077 13.7092 21.3823C13.9697 21.9569 14.3514 22.479 14.8327 22.9188C15.314 23.3586 15.8853 23.7074 16.5142 23.9455C17.143 24.1835 17.8169 24.306 18.4976 24.306C19.1782 24.306 19.8522 24.1835 20.481 23.9455C21.1098 23.7074 21.6811 23.3586 22.1624 22.9188C22.6437 22.479 23.0255 21.9569 23.2859 21.3823C23.5464 20.8077 23.6805 20.1918 23.6805 19.5699L18.4976 19.5699H13.3147Z" fill="#7DBFD7"/>
<path d="M18.3189 24.306C18.3189 23.5729 18.1394 22.8494 17.7942 22.1905C17.449 21.5316 16.9471 20.9546 16.3266 20.5033C15.7061 20.052 14.9833 19.7382 14.2131 19.5859C13.4429 19.4335 12.6455 19.4466 11.8815 19.624L11.8815 24.306H18.3189Z" fill="#FAFBFB"/>
<path d="M10.8086 19.9944C9.94849 20.3968 9.22572 21.0144 8.72135 21.7778C8.21699 22.5412 7.86158 23.4204 7.8637 24.3166H10.8086V19.9944Z" fill="#FAFBFB"/>
<path d="M13.404 8.13177C13.404 8.75372 13.5381 9.36958 13.7986 9.94419C14.059 10.5188 14.4408 11.0409 14.9221 11.4807C15.4033 11.9205 15.9747 12.2693 16.6035 12.5073C17.2323 12.7454 17.9063 12.8679 18.5869 12.8679C19.2675 12.8679 19.9415 12.7454 20.5703 12.5073C21.1991 12.2693 21.7705 11.9205 22.2518 11.4807C22.7331 11.0409 23.1148 10.5188 23.3753 9.94419C23.6358 9.36958 23.7698 8.75372 23.7698 8.13177L18.5869 8.13177H13.404Z" fill="#7DBFD7"/>
<path d="M18.4082 12.8679C18.4082 12.2342 18.2741 11.6067 18.0137 11.0212C17.7532 10.4358 17.3714 9.90385 16.8902 9.45576C16.4089 9.00768 15.8375 8.65224 15.2087 8.40973C14.5799 8.16723 13.9059 8.04242 13.2253 8.04242C12.5447 8.04242 11.8707 8.16723 11.2419 8.40974C10.6131 8.65224 10.0417 9.00768 9.56045 9.45576C9.07918 9.90385 8.69741 10.4358 8.43694 11.0213C8.17648 11.6067 8.04242 12.2342 8.04242 12.8679L13.2253 12.8679H18.4082Z" fill="#FAFBFB"/>
<path d="M58.583 26H45.503V22.952H58.583C60.215 22.952 61.127 22.04 61.127 20.672C61.127 19.184 60.215 18.416 58.583 18.416H50.567C47.279 18.416 45.239 16.328 45.239 13.448C45.239 10.64 47.135 8.552 50.615 8.552H63.143V11.6H50.615C49.223 11.6 48.407 12.416 48.407 13.736C48.407 15.056 49.247 15.848 50.591 15.848H58.583C62.111 15.848 64.007 17.504 64.007 20.888C64.007 23.816 62.231 26 58.583 26ZM84.0342 26H74.5782C69.7062 26 66.1062 22.16 66.1062 17.096C66.1062 11.96 69.7062 8.552 74.5782 8.552H84.0342V11.6H74.5782C71.4582 11.6 69.1542 13.928 69.1542 17.24C69.1542 20.528 71.4342 22.952 74.5782 22.952H84.0342V26ZM108.363 26H104.691L102.075 21.608H93.8186L95.2586 19.136H100.611L96.7226 12.608L88.8026 26H85.3226L95.3546 9.296C95.7146 8.696 96.1706 8.312 96.8426 8.312C97.5146 8.312 97.9466 8.696 98.3066 9.296L108.363 26ZM125.327 25.568L113.063 13.232V26H110.159V10.16C110.159 9.032 110.759 8.336 111.719 8.336C112.175 8.336 112.559 8.504 113.015 8.96L125.327 21.176V8.408H128.231V24.392C128.231 25.544 127.607 26.216 126.719 26.216C126.215 26.216 125.759 26 125.327 25.568ZM139.814 26H136.766V11.6H130.142V8.552H146.438V11.6H139.814V26ZM151.653 26H148.605V8.552H151.653V26ZM167.906 26H154.826V22.952H167.906C169.538 22.952 170.45 22.04 170.45 20.672C170.45 19.184 169.538 18.416 167.906 18.416H159.89C156.602 18.416 154.562 16.328 154.562 13.448C154.562 10.64 156.458 8.552 159.938 8.552H172.466V11.6H159.938C158.546 11.6 157.73 12.416 157.73 13.736C157.73 15.056 158.57 15.848 159.914 15.848H167.906C171.434 15.848 173.33 17.504 173.33 20.888C173.33 23.816 171.554 26 167.906 26ZM184.573 26H181.525V11.6H174.901V8.552H191.197V11.6H184.573V26Z" fill="black"/>
<defs>
<linearGradient id="paint0_linear_17137_3395" x1="11.9743" y1="7.8637" x2="30.2037" y2="8.04242" gradientUnits="userSpaceOnUse">
<stop stop-color="#02ABC6"/>
<stop offset="1" stop-color="#3F6AA0"/>
</linearGradient>
<linearGradient id="paint1_linear_17137_3395" x1="11.0807" y1="8.31048" x2="-0.714884" y2="8.39984" gradientUnits="userSpaceOnUse">
<stop stop-color="#07B2C6"/>
<stop offset="1" stop-color="#24D9C6"/>
</linearGradient>
<linearGradient id="paint2_linear_17137_3395" x1="-2.42735e-08" y1="16.0848" x2="2.32337" y2="16.0848" gradientUnits="userSpaceOnUse">
<stop stop-color="#27DEC6"/>
<stop offset="1" stop-color="#21D6C6"/>
</linearGradient>
<linearGradient id="paint3_linear_17137_3395" x1="29.6676" y1="16.0849" x2="31.991" y2="16.0849" gradientUnits="userSpaceOnUse">
<stop stop-color="#D9D9D9"/>
<stop offset="0.0001" stop-color="#3E6AA1"/>
<stop offset="1" stop-color="#47649B"/>
</linearGradient>
<linearGradient id="paint4_linear_17137_3395" x1="0.982961" y1="25.3783" x2="11.0807" y2="25.3783" gradientUnits="userSpaceOnUse">
<stop stop-color="#63E1D2"/>
<stop offset="1" stop-color="#07B1C6"/>
</linearGradient>
<linearGradient id="paint5_linear_17137_3395" x1="12.153" y1="30.6505" x2="31.6335" y2="30.3825" gradientUnits="userSpaceOnUse">
<stop stop-color="#02ABC6"/>
<stop offset="1" stop-color="#45669D"/>
</linearGradient>
<linearGradient id="paint6_linear_17137_3395" x1="3.75313" y1="16.0848" x2="28.2378" y2="16.0848" gradientUnits="userSpaceOnUse">
<stop stop-color="#1BCDC6"/>
<stop offset="1" stop-color="#3273A9"/>
</linearGradient>
</defs>
</svg>
