<svg xmlns="http://www.w3.org/2000/svg" role="img" viewBox="-4.48 -4.48 232.70 194.70"><title>SCAN-OSS_negative.svg</title><g fill-opacity="1" stroke="none" transform="matrix(1.33333 0 0 -1.33333 0 186.667) scale(.1)"><path fill="#6366f1" fill-rule="nonzero" d="M998.75 79.0586c-1.801 9.1406-3.199 19.5703-4.262 31.2934-1.008 11.757-1.558 25.82-1.558 42.269 0 16.68.941 32.301 2.73 46.91 2.07 14.848 4.81 27.379 8.17 37.539 3.36 10.43 7.89 19.301 13.59 26.602 5.67 7.269 11.37 13.008 17.07 17.187 5.94 4.18 13.21 7.422 21.72 9.762 13.48 3.91 27.58 5.859 42.31 5.859 15.03 0 25.89-.23 32.61-.781 6.99-.5 14.26-1.679 21.76-3.508 7.73-1.57 14.34-3.91 19.81-7.031 5.42-3.129 10.85-7.148 16.28-12.109 5.71-4.692 10.36-10.821 13.99-18.403 3.59-7.308 6.83-15.738 9.69-25.386 5.7-19.301 8.55-41.883 8.55-67.66 0-25.821-1.05-45.782-3.12-59.84-1.8-13.8323-4.26-25.8206-7.39-35.9807-3.08-9.8829-7.34-18.5118-12.81-25.8204-5.16-7.0312-10.74-12.7695-16.68-17.1914-5.7-4.1797-12.66-7.4179-20.94-9.7578-19.18-5.74217-44.41-7.58201-75.7-5.47264-16.05.74219-27.69 2.73044-34.96 5.85934-7.23 3.1211-13.59 6.3711-19.02 9.7618-5.16 3.6406-9.57 7.9687-13.17 12.8906-3.63 5.2383-7.15 11.3711-10.51 18.3984-3.36 7.3125-6.05 15.5117-8.16 24.6094zm52.81 129.0624c-1.29-6.75-2.34-15-3.12-24.641-.74-9.648-1.14-21.761-1.14-36.371 0-14.57.51-27.109 1.53-37.539 1.05-10.1598 2.73-18.9098 5.08-26.1716 2.57-7.3086 6.32-12.7773 11.25-16.4492 8.79-6.5195 22.77-9.7578 41.91-9.7578 18.13 0 31.72 3.3984 40.74 10.1484 12.7 9.6485 19.03 37.0392 19.03 82.1092 0 30.512-1.68 50.711-5.04 60.633-3.09 9.918-6.06 16.949-8.91 21.129-2.62 4.141-6.37 7.418-11.29 9.769-8.01 3.399-17.46 5.071-28.32 5.071s-18.51-.27-22.89-.781c-4.14-.27-8.67-1.051-13.59-2.34-4.65-1.289-8.4-3.399-11.25-6.25-2.58-2.621-5.32-6.25-8.17-10.942-2.58-4.718-4.53-10.578-5.82-17.617z"/><path fill="#6366f1" fill-rule="nonzero" d="M1253.75 198.359v24.61c0 27.383 7.38 46.801 22.15 58.281 13.44 10.16 31.68 15.391 54.72 15.629h19.42c10.08 0 24.69-1.02 43.87-3.129 19.37-2.07 34.92-4.801 46.56-8.199v-43.012c-29.49 2.621-53.05 3.91-70.67 3.91h-27.92c-11.65 0-20.2-1.57-25.63-4.687-5.43-3.133-8.16-10.821-8.16-23.09v-14.063c0-10.937 2.22-18.238 6.6-21.91 4.41-3.64 12.3-5.469 23.71-5.469h45c29.49 0 49.3-11.839 59.41-35.589 5.16-11.993 7.78-25.391 7.78-40.27V82.2305c0-34.961-11.53-57.7813-34.57-68.4414-11.92-5.73832-26.53-8.62894-43.87-8.62894-46.84 0-83.44 3.89843-109.85 11.75004v43.0117c28.48-2.8906 53.29-4.3008 74.54-4.3008 21.21 0 33.51.2773 36.87.7891 3.63.5 7.23 1.5586 10.86 3.1211 7.77 3.3984 11.64 10.2695 11.64 20.7382v15.2422c0 13.5473-4.26 21.9103-12.81 25.0393-3.36 1.289-7.62 1.949-12.81 1.949h-43.48c-48.91 0-73.36 25.27-73.36 75.859z"/><path fill="#6366f1" fill-rule="nonzero" d="M1482.73 198.359v24.61c0 27.383 7.39 46.801 22.11 58.281 13.48 10.16 31.72 15.391 54.73 15.629h19.41c10.12 0 24.73-1.02 43.87-3.129 19.42-2.07 34.92-4.801 46.6-8.199v-43.012c-29.53 2.621-53.08 3.91-70.66 3.91h-27.97c-11.64 0-20.16-1.57-25.59-4.687-5.43-3.133-8.16-10.821-8.16-23.09v-14.063c0-10.937 2.19-18.238 6.6-21.91 4.42-3.64 12.27-5.469 23.67-5.469h45.04c29.5 0 49.3-11.839 59.38-35.589 5.19-11.993 7.77-25.391 7.77-40.27V82.2305c0-34.961-11.52-57.7813-34.53-68.4414-11.91-5.73832-26.56-8.62894-43.87-8.62894-46.87 0-83.47 3.89843-109.88 11.75004v43.0117c28.48-2.8906 53.32-4.3008 74.53-4.3008 21.25 0 33.52.2773 36.88.7891 3.63.5 7.26 1.5586 10.89 3.1211 7.74 3.3984 11.65 10.2695 11.65 20.7382v15.2422c0 13.5473-4.3 21.9103-12.82 25.0393-3.36 1.289-7.65 1.949-12.81 1.949h-43.48c-48.9 0-73.36 25.27-73.36 75.859z"/><path fill="#1e293b" fill-rule="nonzero" d="M0 198.16v24.649c0 27.39 7.37891 46.8 22.1094 58.281 13.4804 10.16 31.7187 15.359 54.7695 15.629H96.25c10.121 0 24.73-1.059 43.871-3.129 19.41-2.07 34.957-4.801 46.598-8.199V242.34c-29.489 2.621-53.047 3.949-70.668 3.949H88.1211c-11.6406 0-20.1914-1.559-25.6211-4.73-5.4297-3.118-8.1602-10.778-8.1602-23.039v-14.11c0-10.93 2.2188-18.238 6.6016-21.871 4.4102-3.668 12.2969-5.469 23.668-5.469h45.0386c29.493 0 49.301-11.871 59.411-35.59 5.16-11.992 7.742-25.429 7.742-40.269V82.0313c0-34.9219-11.531-57.7305-34.531-68.4415C150.352 7.85156 135.738 5 118.398 5 71.5586 5 34.9219 8.91016 8.55078 16.7188v43.0117c28.43752-2.8516 53.28902-4.3008 74.53902-4.3008 21.2112 0 33.5122.2695 36.8712.7812 3.59.5508 7.23 1.5586 10.859 3.1289 7.77 3.3907 11.641 10.3086 11.641 20.7383v15.2305c0 13.6014-4.262 21.9214-12.813 25.0434-3.359 1.328-7.617 1.949-12.808 1.949H73.3594C24.4492 122.301 0 147.582 0 198.16z"/><path fill="#1e293b" fill-rule="nonzero" d="M245.27 259.18c10.351 17.191 24.73 28.55 43.089 34.019 10.082 2.852 21.481 4.301 34.141 4.301 37.031 0 70-4.301 98.98-12.891v-43.05s-1.011.16-3.082.39c-1.796.281-4.418.551-7.777.821-3.082.242-6.832.511-11.242.781-4.418.508-9.301.898-14.77 1.179-5.16.5-10.347.891-15.507 1.168-12.153.782-23.051 1.172-32.622 1.172-9.57 0-17.07-.66-22.5-1.988-5.191-1.023-10.23-3.363-15.152-7.031-4.918-3.36-8.519-8.602-10.859-15.629-5.199-15.121-7.77-39.223-7.77-72.34 0-33.133 3.75-57.1132 11.25-71.9609 7.77-14.6016 22.379-21.9102 43.86-21.9102 24.339 0 48.91.7774 73.75 2.3399l12.421.789v-42.621c-23.281-7.30864-53.281-10.93755-90.031-10.93755H322.5c-34.648.26953-59.488 12.76955-74.531 37.53905-14.731 24.7695-22.11 61.5197-22.11 110.2697 0 49.031 6.481 84.219 19.411 105.59z"/><path fill="#1e293b" fill-rule="nonzero" d="M444.141 8.12109L540.039 294.379h61.723L694.141 8.12109h-57.852L616.09 71.4805h-93.16L502.379 8.12109zm93.16 111.83991h65.98l-31.832 102.461z"/><path fill="#1e293b" fill-rule="nonzero" d="M723.012 8.12109V294.379h55.109L890.699 109.41v184.969h54.34V8.12109h-54.34L777.73 191.129V8.12109z"/><path fill="#1e293b" fill-rule="nonzero" d="M607.34 1002.66h118.281c12.899 28.28 34.969 51.29 62.617 65.19 27.66 13.91 59.184 17.89 89.383 11.25 30.188-6.64 57.219-23.48 76.598-47.73 19.371-24.26 29.961-54.46 29.961-85.589 0-31.133-10.59-61.332-29.961-85.551-19.379-24.25-46.41-41.089-76.598-47.73-30.199-6.641-61.723-2.66-89.383 11.211-27.648 13.91-49.718 36.949-62.617 65.238H607.34c13.871-59.769 49.031-112.347 98.871-147.66 49.84-35.348 110.82-51.019 171.328-43.988 60.551 7.039 116.41 36.219 156.951 82.039 40.55 45.82 62.97 105.07 62.97 166.441 0 61.409-22.42 120.629-62.97 166.449-40.541 45.82-96.4 75.04-156.951 82.07-60.508 6.99-121.488-8.64-171.328-43.99s-85-87.89-98.871-147.65z"/><path fill="#1e293b" fill-rule="evenodd" d="M852.031 1292.89c-190.043 0-344.101-155.19-344.101-346.64 0-191.449 154.058-346.641 344.101-346.641 190.039 0 344.099 155.192 344.099 346.641 0 191.45-154.06 346.64-344.099 346.64zM401.602 946.25c0 250.59 201.679 453.75 450.429 453.75 248.789 0 450.429-203.16 450.429-453.75S1100.82 492.5 852.031 492.5c-248.75 0-450.429 203.16-450.429 453.75z"/><path fill="#6366f1" fill-rule="nonzero" d="M848.672 891.129c28.558 0 51.68 22.891 51.68 51.141 0 28.242-23.122 51.128-51.68 51.128-28.512 0-51.684-22.886-51.684-51.128 0-28.25 23.172-51.141 51.684-51.141z"/></g></svg>