<?xml version="1.0" encoding="UTF-8" standalone="no"?>
<!-- Created with Inkscape (http://www.inkscape.org/) -->

<svg
   version="1.1"
   id="svg1"
   width="677.77618"
   height="136.41542"
   viewBox="0 0 677.77618 136.41542"
   sodipodi:docname="scc.svg"
   inkscape:version="1.4.3 (0d15f75, 2025-12-25)"
   xmlns:inkscape="http://www.inkscape.org/namespaces/inkscape"
   xmlns:sodipodi="http://sodipodi.sourceforge.net/DTD/sodipodi-0.dtd"
   xmlns="http://www.w3.org/2000/svg"
   xmlns:svg="http://www.w3.org/2000/svg">
  <defs
     id="defs1" />
  <sodipodi:namedview
     id="namedview1"
     pagecolor="#ffffff"
     bordercolor="#000000"
     borderopacity="0.25"
     inkscape:showpageshadow="2"
     inkscape:pageopacity="0.0"
     inkscape:pagecheckerboard="0"
     inkscape:deskcolor="#d1d1d1"
     inkscape:zoom="0.48"
     inkscape:cx="330.20833"
     inkscape:cy="67.708333"
     inkscape:current-layer="g1" />
  <g
     inkscape:groupmode="layer"
     inkscape:label="Image"
     id="g1"
     transform="translate(-38.72381,-36.488094)">
    <g
       id="g2">
      <path
         style="fill:#98d4d1"
         d="m 91,171.41307 c -7.876546,-2.08414 -20.829723,-8.5578 -25.5,-12.74422 l -4,-3.5856 8.127555,-0.0416 c 6.043418,-0.031 8.446781,0.34301 9.372445,1.45837 0.684689,0.825 2.259689,1.5 3.5,1.5 1.240311,0 2.815311,-0.675 3.5,-1.5 1.060376,-1.27767 6.117902,-1.5 34.12244,-1.5 18.08266,0 32.86365,0.3375 32.84664,0.75 -0.12066,2.92667 -19.10128,13.0644 -29.42918,15.71841 C 116.00073,173.4058 98.417986,173.3759 91,171.41313 Z M 55.944414,149.75 C 50.948024,144.48077 43.511841,131.82149 44.709512,130.62382 45.052614,130.28072 59.604923,130 77.047978,130 h 31.714642 l 2.66958,3.5 c 2.24788,2.94712 3.28667,3.5 6.57606,3.5 3.26594,0 4.36438,-0.57388 6.69911,-3.49997 l 2.79263,-3.49997 21.08333,-3e-5 c 11.59584,-2e-5 21.36406,0.28069 21.70716,0.62379 1.19767,1.19767 -6.23851,13.85695 -11.2349,19.12618 -2.13175,2.24815 -2.16172,2.25 -36.43956,2.25 -33.036063,0 -34.373059,-0.074 -36.11603,-2 -0.995486,-1.1 -2.795486,-2 -4,-2 -1.204514,0 -3.004514,0.9 -4,2 -1.562969,1.72706 -3.079967,2 -11.116032,2 -8.351913,0 -9.524804,-0.23069 -11.439554,-2.25 z M 42.576155,126.12322 C 41.555888,124.47239 39.029576,112.50313 39.014781,109.25 L 39,106 h 12.47432 12.47432 l 1.474568,2.8515 c 4.266028,8.24959 16.420343,7.95059 19.626721,-0.48282 L 85.950498,106 h 27.720032 27.72003 l 2.73991,2.625 c 3.50149,3.35464 7.23757,3.35464 10.73906,0 2.55137,-2.44437 3.37264,-2.625 11.93519,-2.625 H 176 l -0.0682,3.75 c -0.0375,2.0625 -0.82503,6.675 -1.75,10.25 l -1.68178,6.5 -22.79866,0.2689 -22.79866,0.2689 -2.54023,-3.0189 C 122.33992,121.61526 121.03122,121 117.94104,121 c -3.15285,0 -4.29738,0.56296 -6.09916,3 l -2.218,3 H 76.370959 c -18.289109,0 -33.49677,-0.39455 -33.794804,-0.87678 z M 202,124.10524 c -1.94574,-0.54124 -2.5,-1.35052 -2.5,-3.65032 V 117.5 l 9,-0.5 c 10.07584,-0.55977 11.5,-1.1092 11.5,-4.43657 0,-3.03274 -1.17833,-3.86361 -9.22182,-6.50247 C 201.99547,103.17957 199,99.821627 199,92.857533 199,83.288239 202.56389,81 217.46788,81 H 227 v 3.962474 3.962474 L 217.75,89.212474 208.5,89.5 v 3.458436 c 0,3.137032 0.37173,3.58732 4,4.845291 2.2,0.76277 5.9506,2.070742 8.33466,2.906603 5.16592,1.81119 8.15616,6.05728 8.1616,11.58933 0.005,5.27224 -2.49696,9.59377 -6.53056,11.27912 -3.52084,1.4711 -15.92277,1.79013 -20.4657,0.52646 z m 37.5,0.17552 c -5.36966,-1.30815 -8.5,-7.32853 -8.5,-16.34751 0,-11.772535 4.79502,-16.550126 15.81079,-15.753317 7.32697,0.529985 10.62078,3.006019 12.31165,9.254937 1.4064,5.19764 0.54885,14.89167 -1.60863,18.1844 -2.86171,4.36753 -10.79436,6.42028 -18.01381,4.66149 z m 10.46482,-9.21502 c 1.33605,-2.49643 1.33605,-10.63505 0,-13.13148 -1.33444,-2.493412 -8.43367,-2.760811 -9.35783,-0.35247 -1.07208,2.79378 -0.64732,12.97788 0.59301,14.21821 1.95411,1.95411 7.5782,1.48296 8.76482,-0.73426 z m 19.4563,8.51534 C 264.75984,121.55142 263.5,117.38516 263.5,104 V 92.5 l 4.25,-0.307498 4.25,-0.307498 0.0136,10.307496 C 272.03114,115.3894 272.46056,117 275.96164,117 280.96579,117 282,114.53601 282,102.61376 V 91.885004 l 4.25,0.307498 L 290.5,92.5 v 16 16 l -3.31532,0.31823 c -1.82343,0.17503 -3.86352,-0.13673 -4.53354,-0.6928 -0.76374,-0.63384 -1.76531,-0.66501 -2.68468,-0.0835 -2.08545,1.31897 -6.94567,1.10659 -10.54534,-0.46081 z m 26.01958,0.12499 c -0.27309,-0.71167 -0.37147,-8.02417 -0.21861,-16.25 L 295.5,92.5 l 9.1699,-0.19898 c 9.93312,-0.215541 11.76714,0.588949 11.15686,4.893938 -0.27734,1.956423 -1.00438,2.353251 -4.80714,2.623797 -2.46421,0.175315 -5.05171,0.792915 -5.75,1.372445 C 304.37959,101.92985 304,105.64659 304,113.62244 V 125 h -4.03138 c -2.37562,0 -4.23532,-0.53144 -4.52792,-1.29393 z m 26.12064,-0.83648 C 317.81242,119.92069 316,115.23769 316,108.5 c 0,-6.73769 1.81242,-11.420692 5.56134,-14.369593 2.45295,-1.929486 3.813,-2.169426 10.87118,-1.9179 L 340.5,92.5 l 0.31037,3.75 0.31036,3.75 h -7.02518 C 325.94729,100 325,100.88526 325,108.5 c 0,7.61474 0.94729,8.5 9.09555,8.5 h 7.02518 l -0.31036,3.75 -0.31037,3.75 -8.06748,0.28749 c -7.05818,0.25153 -8.41823,0.0116 -10.87118,-1.9179 z m 28.73721,0.22671 c -4.70559,-2.9512 -6.29915,-6.82362 -6.29481,-15.29664 0.006,-11.694732 3.61286,-15.817009 13.81136,-15.784918 6.08241,0.01914 9.27398,1.693786 11.43335,5.999169 2.51078,5.006059 2.25453,9.574019 -0.703,12.531539 -2.10606,2.10607 -3.38383,2.45455 -9,2.45455 -3.6,0 -6.54545,0.36 -6.54545,0.8 0,2.16959 2.92752,3.2 9.09159,3.2 6.40131,0 6.72039,0.11473 7.35536,2.64464 0.96455,3.84308 -0.62772,4.78058 -8.72914,5.13963 -5.86911,0.26011 -7.81602,-0.0553 -10.41926,-1.68797 z m 11.521,-20.3463 c -0.26877,-1.89245 -0.93699,-2.25 -4.205,-2.25 -3.11607,0 -4.05026,0.44553 -4.71777,2.25 -0.79375,2.14571 -0.59885,2.25 4.205,2.25 4.6519,0 5.01287,-0.17215 4.71777,-2.25 z m 35.79975,21.23942 c -7.74727,-2.38375 -11.05541,-9.74335 -10.42862,-23.20047 0.71412,-15.332085 4.63221,-19.778495 17.43432,-19.785212 3.91875,-0.0021 8.55478,0.282218 10.30229,0.63172 2.93921,0.587841 3.15464,0.904268 2.875,4.222828 L 417.5,89.445657 408.97475,89.145746 c -11.05406,-0.388872 -12.27671,0.702235 -12.81893,11.439744 -0.43849,8.68322 0.16996,11.74029 2.87503,14.44536 1.77989,1.77989 2.83846,1.914 10.47457,1.32704 L 418,115.70495 v 3.58851 c 0,1.97368 -0.3375,3.78266 -0.75,4.01997 -1.69058,0.97256 -16.95815,1.4983 -19.6307,0.67599 z M 429,124.34793 c -6.86862,-2.26286 -9,-6.12272 -9,-16.29872 C 420,96.36101 423.80418,92 434,92 c 10.24582,0 14.31955,4.725965 14.32817,16.62224 0.006,8.72972 -2.22562,13.28928 -7.37755,15.07132 -3.53286,1.222 -9.27352,1.53634 -11.95062,0.65437 z m 10.37193,-12.00241 c 0.50742,-2.41769 0.49174,-5.76209 -0.0375,-8 -0.88574,-3.74526 -1.02497,-3.84552 -5.34031,-3.84552 -4.40708,0 -4.43532,0.0226 -5.26273,4.20652 -0.51843,2.62149 -0.41605,5.75081 0.27169,8.3049 1.08991,4.04761 1.15555,4.09459 5.30026,3.79347 4.04294,-0.29372 4.22861,-0.45708 5.0686,-4.45937 z M 458.5,124.04597 c -1.1,-0.45499 -3.12322,-2.03583 -4.49605,-3.51297 -2.1303,-2.29218 -2.54803,-3.83019 -2.85074,-10.49595 C 450.5723,97.245198 454.7011,92 465.35123,92 h 4.54896 L 470.2001,86.25 470.5,80.5 h 4 4 v 22 22 l -3.31532,0.31823 c -1.82343,0.17503 -3.98,-0.2334 -4.79239,-0.90762 -1.11878,-0.9285 -1.75785,-0.94505 -2.63467,-0.0682 -1.32078,1.32078 -6.29234,1.43011 -9.25762,0.20359 z m 9.67126,-8.70096 c 1.43236,-1.29626 1.82874,-3.13865 1.82874,-8.5 V 100 h -4.39301 c -3.08336,0 -4.57397,0.47156 -5,1.58179 -1.07208,2.79378 -0.64732,12.97788 0.59301,14.21821 1.69346,1.69346 4.82295,1.48921 6.97126,-0.45499 z m 21.93686,7.9386 c -4.91908,-2.42315 -7.51124,-8.74778 -6.84698,-16.70604 C 484.18389,95.522462 487.50369,92 497,92 c 9.14275,0 13,3.722859 13,12.54705 0,6.72322 -2.25093,8.45295 -11,8.45295 -3.85,0 -7,0.36 -7,0.8 0,2.22957 2.94162,3.2 9.7,3.2 h 7.3 v 3.375 c 0,2.98 -0.36574,3.44815 -3.125,4 -5.49336,1.09867 -12.27376,0.62933 -15.76688,-1.09139 z M 500.81955,102.75 c -0.24828,-1.74815 -1.07682,-2.32231 -3.71469,-2.57418 -3.33339,-0.318291 -5.05669,0.89191 -5.08955,3.57418 -0.01,0.81987 1.5571,1.25 4.55424,1.25 4.16681,0 4.54139,-0.19831 4.25,-2.25 z m 34.48912,20.34765 c -6.61171,-3.07186 -8.76394,-8.1278 -8.76809,-20.59765 -0.004,-11.124457 1.10318,-14.339567 6.50023,-18.880884 2.80628,-2.361327 3.9171,-2.617772 11.28592,-2.605461 11.59764,0.01937 12.67316,0.431209 12.67377,4.852976 l 5.1e-4,3.633369 -8.91437,-0.346283 c -8.82197,-0.342694 -8.93339,-0.317239 -10.7505,2.456021 -1.43331,2.187508 -1.83614,4.750604 -1.83614,11.682862 0,8.50541 0.11937,8.98324 2.82563,11.31107 2.65125,2.28051 3.31469,2.38973 10.75,1.76965 L 557,115.71245 v 3.58476 c 0,1.97161 -0.3375,3.78535 -0.75,4.03052 -0.4125,0.24517 -4.35,0.73185 -8.75,1.08151 -6.71916,0.53396 -8.67105,0.32397 -12.19133,-1.31159 z m 31.01681,0.44322 c -4.3814,-1.90582 -6.41768,-5.45646 -7.02827,-12.25512 -0.64932,-7.23004 0.908,-13.190454 4.27212,-16.35088 2.25842,-2.121677 3.53264,-2.43487 9.90625,-2.43487 8.1813,0 10.68961,1.375485 13.16244,7.217881 1.92835,4.556019 1.72611,14.046989 -0.38957,18.282119 -3.10569,6.21688 -12.41603,8.80623 -19.92297,5.54087 z m 11.63934,-8.47513 C 578.53417,114.0019 579,111.04732 579,108.5 c 0,-6.38776 -1.32579,-8.5 -5.33518,-8.5 -4.63538,0 -5.66482,1.54466 -5.66482,8.5 0,3.41111 0.52896,6.62896 1.2,7.3 1.95411,1.95411 7.5782,1.48296 8.76482,-0.73426 z m 14.47588,8.64033 c -0.27309,-0.71167 -0.37147,-8.02417 -0.21861,-16.25 L 592.5,92.5 602,92.242236 c 14.7647,-0.400612 16.85466,1.69456 17.74133,17.785564 C 620.48301,123.48775 620.00219,125 614.98095,125 H 611 l -0.0136,-10.25 C 610.9679,100.84642 610.68118,100 605.99041,100 c -2.52108,0 -3.97815,0.5258 -4.38337,1.58179 -0.33385,0.86998 -0.60699,6.49498 -0.60699,12.5 V 125 h -4.03138 c -2.37562,0 -4.23532,-0.53144 -4.52792,-1.29393 z m 38.57901,0.0501 C 627.1202,121.71927 626.03083,118.34423 626.01474,108.25 626.00107,99.671581 625.85479,99 624,99 c -1.61905,0 -2,-0.666667 -2,-3.5 0,-2.833333 0.38095,-3.5 2,-3.5 1.61905,0 2,-0.666667 2,-3.5 0,-3.481481 0.0238,-3.5 4.5,-3.5 4.47619,0 4.5,0.01852 4.5,3.5 0,3.416667 0.0952,3.5 4,3.5 3.90476,0 4,0.08333 4,3.5 0,3.416667 -0.0952,3.5 -4,3.5 h -4 v 9 9 h 4 c 3.90476,0 4,0.0833 4,3.5 0,2.75556 -0.39881,3.5 -1.875,3.5 -1.03125,0 -3.16875,0.23663 -4.75,0.52585 -1.58125,0.28922 -3.99113,-0.0571 -5.35529,-0.7697 z m 14.87233,-0.006 c -0.0943,-1.09147 -0.0348,-27.278916 0.0691,-30.428571 0.0447,-1.356055 16.80388,-1.702734 18.92551,-0.391494 0.7026,0.434228 1.12555,2.083345 0.94345,3.678572 -0.30347,2.658384 -0.69286,2.91543 -4.83008,3.188413 -6.38496,0.42129 -7,1.686 -7,14.39421 V 125 h -4 c -2.47575,0 -4.04114,-0.47633 -4.10796,-1.25 z m 29.49571,0.61366 c -1.16174,-0.25666 -3.40964,-1.82085 -4.99535,-3.47597 -2.5797,-2.69262 -2.92008,-3.82377 -3.23457,-10.74889 -0.63711,-14.029504 3.44564,-18.715416 15.63041,-17.939549 5.73445,0.365143 6.79444,0.769263 9.26228,3.531256 5.5407,6.201123 4.78846,22.083473 -1.25905,26.582893 -2.68456,1.99735 -10.77128,3.0737 -15.40372,2.05026 z m 10.637,-9.92876 c 1.27824,-3.36202 1.24612,-10.06025 -0.0599,-12.50064 -1.33444,-2.493412 -8.43367,-2.760811 -9.35783,-0.35247 -1.07208,2.79378 -0.64732,12.97788 0.59301,14.21821 0.66,0.66 2.69614,1.2 4.52475,1.2 2.64877,0 3.52304,-0.52153 4.3,-2.5651 z m 20.33225,9.5975 C 701.4518,121.99801 701,119.91642 701,99.350818 c 0,-20.902886 -0.0964,-20.575728 5.75,-19.522864 2.22293,0.400326 2.25016,0.599287 2.26365,16.538623 0.0166,19.554803 0.19793,20.425533 4.3384,20.827673 2.87275,0.27902 3.14795,0.61172 3.14795,3.80575 0,3.38157 -0.13535,3.50713 -4,3.7106 -2.2,0.11583 -4.96435,-0.18936 -6.143,-0.6782 z M 39.379458,96.600503 c 0.360606,-3.519724 1.255393,-8.132224 1.988416,-10.25 L 42.700642,82.5 l 33.235776,-0.263588 33.235772,-0.263588 2.93426,3.141128 c 2.5743,2.755796 3.39178,3.068038 6.6639,2.545313 2.29504,-0.366634 4.51931,-1.57706 5.78259,-3.146819 l 2.05293,-2.551004 22.94707,0.269279 L 172.5,82.5 174.18178,89 c 0.92497,3.575 1.71247,8.1875 1.75,10.25 L 176,103 h -9.09879 c -8.82034,0 -9.18455,-0.0918 -11.90121,-3 -3.6851,-3.944917 -7.3149,-3.944917 -11,0 l -2.80242,3 h -27.63017 c -25.413426,0 -27.679537,-0.1404 -28.245387,-1.75 -0.338364,-0.9625 -1.758432,-2.9875 -3.155707,-4.5 -4.65152,-5.035107 -13.265077,-3.327271 -16.697707,3.3107 L 63.94864,103 H 51.336225 38.72381 Z M 45,77.460162 C 45,76.038586 49.637579,67.947608 53.144968,63.25 L 57.06479,58 h 10.039034 c 7.590252,0 10.404922,0.365889 11.539033,1.5 0.825,0.825 2.560714,1.5 3.857143,1.5 1.296429,0 3.032143,-0.675 3.857143,-1.5 1.276188,-1.276188 6.722069,-1.5 36.498627,-1.5 h 34.99862 l 3.02219,3.666442 C 163.65857,65.041473 170,75.970461 170,77.389977 170,77.72549 160.39723,78 148.66052,78 h -21.33949 l -1.16275,-2.551961 c -2.76681,-6.07248 -12.63943,-6.28585 -15.71434,-0.339622 L 108.94864,78 H 76.97432 C 59.388444,78 45,77.757073 45,77.460162 Z M 64.958978,50.962071 C 69.564629,47.025276 82.059063,40.616029 89.5,38.373308 c 8.330294,-2.510776 27.6715,-2.51429 35.944,-0.0065 7.83836,2.376151 16.87795,6.858214 23.056,11.431769 l 5,3.701453 -32.95246,0.263924 c -28.571103,0.228832 -33.0651,0.06263 -33.799686,-1.25 -1.129228,-2.017818 -7.61313,-2.028583 -8.386228,-0.01392 -0.448328,1.168324 -2.376164,1.491014 -8.718615,1.459359 L 61.5,53.918719 Z"
         id="path8" />
      <path
         style="fill:#87cdb9"
         d="m 99.5,172.44218 c -1.1,-0.25403 -4.475,-0.94314 -7.5,-1.53137 -6.594591,-1.28234 -22.12093,-8.67602 -27,-12.85746 l -3.5,-2.99955 7.342271,-0.0269 c 5.855367,-0.0215 7.857177,0.37813 9.884858,1.9731 1.398424,1.1 3.096216,2 3.772871,2 0.676655,0 2.374447,-0.9 3.772871,-2 2.425274,-1.90772 4.034839,-1.99876 34.884859,-1.9731 l 32.34227,0.0269 -3.5,2.98559 c -4.56681,3.89561 -18.02919,10.62815 -25,12.50251 -5.63437,1.51501 -21.91473,2.72824 -25.5,1.90028 z M 54.625891,147.75 C 51.500748,143.64776 45,132.88205 45,131.80883 45,131.36397 59.205218,131 76.567152,131 H 108.1343 l 3.30093,3.5 c 2.46235,2.61086 4.13007,3.5 6.56477,3.5 2.4347,0 4.10242,-0.88914 6.56477,-3.5 l 3.30093,-3.5 h 21.06715 C 160.51978,131 170,131.24293 170,131.53984 c 0,1.42157 -4.63758,9.51255 -8.14497,14.21016 L 157.93521,151 H 123.09005 C 93.336525,151 88.062984,150.78082 87,149.5 86.315311,148.675 84.221088,148 82.34617,148 c -2.107678,0 -3.628659,0.57258 -3.984544,1.5 -0.460305,1.19954 -2.647219,1.5 -10.917724,1.5 H 57.101783 Z m -12.604758,-24.5 c -0.590081,-2.0625 -1.351305,-6.5625 -1.691608,-10 L 39.71079,107 h 11.928998 11.928997 l 1.775168,3.00512 c 2.401364,4.06519 7.056197,6.35391 11.466933,5.63814 C 80.435071,115.05514 86,110.61587 86,108.31291 86,107.26049 91.520719,107 113.82569,107 h 27.82568 L 144,109.5 c 1.40053,1.4908 3.45833,2.5 5.09759,2.5 1.51193,0 4.08595,-1.125 5.72004,-2.5 2.67378,-2.24983 3.84669,-2.5 11.72133,-2.5 h 8.75025 l -0.61873,6.25 c -0.34031,3.4375 -1.10153,7.9375 -1.69161,10 L 171.90599,127 H 149.88584 127.8657 l -3.42546,-3.63204 c -3.07797,-3.2636 -3.80662,-3.57198 -7.18285,-3.03996 -2.48891,0.39221 -4.62597,1.61837 -6.33022,3.63205 L 108.35435,127 H 75.724178 43.094008 Z m 51.70319,-4.1211 C 97.450945,115.8998 101.625,112.03747 103,110.54595 l 2.5,-2.71186 -6,0.2351 c -3.3,0.12931 -6.9,0.71224 -8,1.29541 -1.1,0.58317 -2.321305,0.9701 -2.714012,0.85985 -0.392706,-0.11025 -0.428734,0.54296 -0.08006,1.45159 0.425338,1.10841 0.248962,1.41411 -0.535988,0.92899 C 87.526472,112.20734 87,112.40667 87,113.04797 c 0,0.67026 -0.697882,0.89821 -1.641444,0.53613 -1.292666,-0.49605 -1.402266,-0.34169 -0.515811,0.72642 0.870194,1.04852 0.561897,1.84647 -1.358556,3.51628 C 82.117885,119.01478 81,120.38727 81,120.87676 c 0,0.48949 -1.0125,1.16745 -2.25,1.50658 -1.876942,0.51437 -2.001295,0.77988 -0.75,1.60132 0.825,0.54159 3.175945,0.99161 5.224323,1.00003 3.117326,0.0128 4.828637,-0.94157 10.5,-5.85579 z M 206.25,124.29508 200,123.90457 V 120.45228 117 h 8.8 c 9.3668,0 11.2,-0.76552 11.2,-4.67695 0,-2.71308 -2.54872,-4.46617 -9.98552,-6.86834 C 202.11124,102.90186 199,99.443628 199,93.211782 c 0,-6.074771 2.53764,-9.711481 7.79549,-11.17176 4.16543,-1.156882 12.37302,-1.356321 17.07951,-0.415022 2.75926,0.551852 3.125,1.02 3.125,4 V 89 h -9.43261 c -8.55436,0 -9.49172,0.186217 -10.06739,2 -1.31715,4.149984 0.33363,5.891901 7.70572,8.131103 3.90143,1.185027 8.45565,3.381527 10.14982,4.895267 2.73156,2.44064 3.07303,3.36229 3.07303,8.29417 0,5.56319 -1.54081,8.59893 -5.41738,10.67339 -2.19773,1.17606 -9.585,1.74953 -16.76119,1.30115 z m 65.16867,-0.37015 c -6.14139,-1.78322 -6.88348,-3.6869 -7.24736,-18.59174 l -0.32869,-13.463303 3.82869,0.315057 L 271.5,92.5 272,104.20447 c 0.27888,6.52829 0.98883,12.19132 1.60536,12.80536 1.2718,1.26666 5.8217,0.38544 7.31786,-1.41731 0.55289,-0.66619 1.13384,-6.13454 1.29101,-12.15189 L 282.5,92.5 l 3.77507,-0.31186 3.77507,-0.311859 -0.27507,16.311859 c -0.2728,16.17737 -0.29408,16.31455 -2.58011,16.63862 -1.26778,0.17972 -2.90054,-0.16745 -3.62837,-0.77149 -0.92643,-0.76888 -2.12911,-0.7919 -4.01005,-0.0768 -3.09251,1.17578 -3.92283,1.17031 -8.13787,-0.0536 z m 25.29539,0.4558 C 296.32133,123.98799 296,116.54167 296,107.83333 V 92 h 3.44098 c 1.89254,0 3.71985,0.451217 4.06069,1.002704 0.40896,0.661706 1.31504,0.630576 2.66432,-0.09154 1.12453,-0.601832 3.57222,-0.807659 5.43931,-0.457391 2.94996,0.553417 3.3947,1.023943 3.3947,3.591537 0,2.744916 -0.26624,2.955774 -3.75,2.97 -6.38964,0.02609 -6.69473,0.602405 -7.25,13.6952 l -0.5,11.78949 -3.03594,0.29739 c -1.66977,0.16357 -3.35727,-0.0239 -3.75,-0.41666 z m 26.60065,-0.84439 c -4.67316,-2.03249 -6.76193,-6.67724 -6.76193,-15.03634 0,-12.885643 4.73465,-17.184006 17.5385,-15.922347 L 341,93.258421 V 96.62921 100 h -6.8 c -3.95556,0 -7.30196,0.50196 -8,1.2 -0.67645,0.67645 -1.2,3.91746 -1.2,7.42857 0,8.36278 1.31191,9.64679 9.40454,9.20454 L 340.5,117.5 l 0.30268,3.10686 c 0.2924,3.00125 0.1432,3.12871 -4.38957,3.75 -6.72738,0.92209 -9.4896,0.74905 -13.0984,-0.82052 z m 28.0914,-0.37857 c -3.11699,-1.46199 -4.48909,-2.90788 -5.75,-6.05922 -2.19685,-5.49046 -2.07359,-13.58228 0.28605,-18.779512 1.5387,-3.389064 2.62362,-4.382387 5.72804,-5.244423 11.27062,-3.129631 18.61687,1.182483 18.7619,11.012895 0.1005,6.81135 -1.29052,7.91249 -9.99553,7.91249 -4.02519,0 -7.58651,0.43359 -7.91403,0.96353 -0.32752,0.52993 0.36828,1.92729 1.54621,3.10522 1.90663,1.90663 2.83007,2.06799 8.41323,1.47008 l 6.27153,-0.67162 0.45651,3.11042 c 0.25109,1.71074 0.15736,3.29531 -0.20827,3.52129 -0.36563,0.22597 -3.5531,0.6737 -7.08327,0.99495 -5.11278,0.46528 -7.25129,0.19348 -10.51237,-1.3361 z M 362,103.2 c 0,-2.39368 -1.92462,-4.203551 -4.45,-4.184687 -2.77023,0.02069 -4.14518,1.051287 -4.98261,3.734687 -0.66462,2.1297 -0.43123,2.25 4.36522,2.25 4.21304,0 5.06739,-0.30348 5.06739,-1.8 z m 98.20904,20.81556 c -6.22199,-1.47416 -9.19789,-6.49408 -9.19789,-15.51556 0,-10.932605 3.86717,-15.5 13.12371,-15.5 H 470 v -6.057498 -6.057498 l 4.25,0.307498 4.25,0.307498 0.27109,20.37212 c 0.18873,14.1824 -0.0763,20.79076 -0.87244,21.75 -1.57181,1.89392 -5.6006,1.73288 -6.72071,-0.26865 -0.85551,-1.52871 -1.08967,-1.52871 -3.2722,0 -2.55714,1.79109 -2.8318,1.81471 -7.6967,0.66209 z m 6.1067,-7.16526 c 3.27842,-1.72563 3.65228,-2.75288 3.66895,-10.08125 0.0146,-6.40255 -0.11026,-6.76246 -2.55843,-7.376914 -4.07517,-1.022802 -7.05188,0.913374 -7.71834,5.020334 -0.79768,4.91548 0.21123,10.82975 2.10464,12.33753 1.90942,1.52053 1.8092,1.5183 4.50318,0.1003 z m 26.30356,7.16657 c -4.61805,-1.46494 -7.41251,-4.82541 -8.59406,-10.33478 -2.21076,-10.3084 1.3607,-19.370602 8.27883,-21.006701 5.48366,-1.296857 12.00422,-0.04058 14.70369,2.832872 3.13738,3.33959 3.98585,11.736339 1.46715,14.519469 C 507.007,111.64974 505.38561,112 499.34501,112 493.53373,112 492,112.30841 492,113.47695 c 0,2.84485 4.48969,4.66935 10.6716,4.33669 5.47338,-0.29454 5.84879,-0.16956 6.16306,2.0517 0.18407,1.30093 -0.0409,2.73258 -0.5,3.18145 -1.31655,1.2873 -12.53278,1.97966 -15.71536,0.97008 z M 502,103.57143 C 502,101.42686 499.14844,99 496.62857,99 493.93581,99 492,100.75657 492,103.2 c 0,1.49333 0.85185,1.8 5,1.8 3.66667,0 5,-0.38095 5,-1.42857 z m 91.71406,20.8093 C 593.32133,123.98799 593,116.54167 593,107.83333 V 92 h 3.5 c 1.925,0 3.5,0.465833 3.5,1.035184 0,0.678311 0.73997,0.639166 2.14643,-0.113548 3.45404,-1.84855 10.6942,-0.53518 13.72127,2.489048 2.5779,2.575476 2.6323,2.903237 2.6323,15.859566 V 124.5 H 615 611.5 L 611,113 c -0.275,-6.325 -0.86406,-12.0625 -1.30902,-12.75 -1.06558,-1.646414 -6.1512,-1.605326 -7.53402,0.0609 -0.60208,0.72547 -1.21498,6.41925 -1.37244,12.75 L 600.5,124.5 l -3.03594,0.29739 c -1.66977,0.16357 -3.35727,-0.0239 -3.75,-0.41666 z m 53,0 C 646.32133,123.98799 646,116.54167 646,107.83333 V 92 h 3.44098 c 1.89254,0 3.70861,0.433031 4.03571,0.96229 0.37337,0.604123 1.504,0.548001 3.03767,-0.150785 3.83044,-1.745265 8.98564,0.105497 8.98564,3.225922 0,2.171791 -0.48912,2.498261 -4.14228,2.764808 -6.42333,0.468667 -7.24101,2.060105 -7.57175,14.736755 L 653.5,124.5 l -3.03594,0.29739 c -1.66977,0.16357 -3.35727,-0.0239 -3.75,-0.41666 z m -411.17724,-2.753 c -5.83003,-5.83003 -5.89356,-21.32199 -0.10791,-26.313647 3.39982,-2.933253 10.35305,-3.892824 15.73571,-2.171586 5.89435,1.884865 8.24714,6.120865 8.24714,14.848253 0,12.35222 -3.40537,16.00925 -14.90755,16.00925 -5.60677,0 -6.95063,-0.35551 -8.96739,-2.37227 z m 13.24067,-5.18443 C 250.67876,115.1116 251,113.96561 251,108.51472 251,101.55321 249.55623,99 245.6197,99 c -4.60693,0 -5.9947,2.19925 -5.9947,9.5 0,5.45306 0.36155,7.017 1.87863,8.12631 2.44643,1.78888 4.53357,1.73636 7.27386,-0.18301 z m 145.64247,5.67102 C 389.25805,118.96659 387.5,113.98348 387.5,102.5 c 0,-11.386315 1.48835,-15.199333 7.55407,-19.352778 3.18754,-2.182646 4.10863,-2.314471 12.28388,-1.75806 4.86087,0.330833 9.24837,0.85517 9.75,1.165193 0.50163,0.310024 0.91205,1.870826 0.91205,3.46845 v 2.904771 l -9.73903,0.286212 c -9.71719,0.28557 -9.74232,0.292938 -11.20883,3.286212 -0.89545,1.827701 -1.48075,6.00667 -1.49781,10.69429 -0.0229,6.30176 0.35373,8.20208 2.08128,10.5 2.03371,2.70518 2.42736,2.80571 10.98684,2.80571 H 417.5 l 0.31638,2.74951 c 0.41895,3.64098 -2.53666,4.75166 -12.63148,4.74675 -5.75395,-0.003 -8.45881,-0.47566 -10.76494,-1.88194 z m 30.69691,0.25499 C 421.86565,120.09206 420,115.0352 420,108.5 c 0,-6.30169 1.69004,-11.078213 4.9472,-13.982104 1.70787,-1.522643 3.67386,-1.986252 8.48122,-2 11.62404,-0.03324 15.0293,4.066288 14.4253,17.366404 -0.3587,7.89873 -0.53446,8.44125 -3.63111,11.2081 -2.91283,2.60262 -3.96341,2.9076 -10.01588,2.9076 -4.6328,0 -7.49473,-0.51342 -9.08986,-1.63069 z M 438,116 c 2.5199,-2.5199 2.78722,-11.43108 0.4433,-14.77749 -2.19804,-3.138136 -6.89577,-2.987775 -9.04309,0.28944 -2.24444,3.42545 -1.51097,13.20267 1.13562,15.13791 2.59864,1.90017 5.13496,1.67935 7.46417,-0.64986 z m 94.59585,4.95002 c -1.91056,-1.6775 -4.03272,-4.715 -4.71592,-6.75 -1.82362,-5.43192 -1.48087,-18.828154 0.61326,-23.968741 3.20941,-7.878365 8.2116,-9.962457 21.02884,-8.761383 L 557,82.17064 V 85.58532 89 h -8.84501 c -11.46057,0 -12.50181,0.953388 -12.99902,11.9023 -0.42892,9.44496 1.37115,14.68993 5.38753,15.69797 1.47141,0.36931 5.77607,0.4115 9.5659,0.0938 L 557,116.11636 v 3.32519 c 0,4.07523 -1.26046,4.52576 -12.7152,4.5448 -7.74103,0.0129 -8.41571,-0.16239 -11.68895,-3.03633 z m 31.77119,1.27774 c -3.47559,-2.81533 -4.36725,-5.65832 -4.3633,-13.91202 0.005,-9.974663 1.9745,-13.694248 8.12955,-15.351632 5.267,-1.418256 11.93206,-0.487142 15.26189,2.132097 6.16398,4.848588 6.12282,21.991375 -0.0645,26.858305 -3.48039,2.73767 -15.70385,2.9138 -18.96366,0.27325 z m 13.06153,-5.79919 C 578.52755,115.32959 579,112.94589 579,108.5 c 0,-7.00373 -1.44521,-9.5 -5.5,-9.5 -4.02876,0 -5.50159,2.50312 -5.48469,9.32143 0.008,3.39821 0.34592,6.6736 0.75,7.27863 1.72041,2.57599 6.46229,3.02948 8.66326,0.82851 z M 629,122 c -1.73399,-1.73399 -2,-3.33333 -2,-12.02475 0,-9.77294 -0.0628,-10.048628 -2.5,-10.97525 -3.32285,-1.263344 -3.48712,-5.699288 -0.25533,-6.894804 1.23456,-0.456696 2.29102,-1.454695 2.34768,-2.217776 0.37912,-5.105715 0.30061,-5.01701 4.15765,-4.697785 3.40832,0.282086 3.77817,0.601308 4.05912,3.503524 0.27995,2.891865 0.65738,3.222112 4,3.5 3.35765,0.279138 3.71917,0.600266 4.00424,3.556841 0.30708,3.184858 0.23191,3.25 -3.75,3.25 H 635 v 9 9 h 4 c 3.90476,0 4,0.0833 4,3.5 v 3.5 h -6 c -4.66667,0 -6.44444,-0.44444 -8,-2 z m 42.6693,-0.0455 c -6.1873,-4.86693 -6.22846,-22.009717 -0.0645,-26.858305 3.32983,-2.619239 9.99489,-3.550353 15.26189,-2.132097 6.2582,1.68516 8.12483,5.332714 8.12955,15.885892 0.004,8.16481 -0.0717,8.42541 -3.39626,11.75 -3.21581,3.21581 -3.77733,3.4 -10.36514,3.4 -5.50258,0 -7.51119,-0.42952 -9.56556,-2.04549 z m 13.10819,-5.51121 C 686.67876,115.1116 687,113.96561 687,108.51472 687,101.55321 685.55623,99 681.6197,99 c -4.64463,0 -6.1197,2.28985 -6.1197,9.5 0,5.43974 0.35595,6.9215 1.94113,8.08061 2.50771,1.83368 4.57769,1.79494 7.33636,-0.13731 z m 19.08329,5.64693 c -2.31881,-1.87581 -2.36626,-2.26693 -2.66907,-22 L 700.88343,80 H 704.94171 709 v 17.8 c 0,18.8399 0.31646,20.2 4.7,20.2 1.88889,0 2.3,0.53623 2.3,3 0,2.92427 -0.12342,3 -4.88922,3 -3.32143,0 -5.64622,-0.61239 -7.25,-1.90977 z M 40.329525,95.75 c 0.340303,-3.4375 1.101527,-7.9375 1.691608,-10 L 43.094008,82 H 75.547004 108 l 4,4 4,4 -2.11803,2.118034 c -1.72551,1.725508 -2.29363,1.864502 -3.06551,0.75 -0.67662,-0.976959 -0.77567,-0.753563 -0.34648,0.781469 0.43975,1.572768 -0.11548,2.713088 -2.06935,4.25 C 106.93194,99.054776 106.20416,100 106.78335,100 c 0.57919,0 1.71841,0.25531 2.53159,0.56736 0.9892,0.37959 2.8116,-1.294264 5.50651,-5.057664 2.21539,-3.093763 6.04342,-7.399075 8.50672,-9.56736 L 127.8069,82 h 22.05801 22.058 l 1.16118,4.25 c 0.63864,2.3375 1.4734,6.8375 1.85501,10 l 0.69383,5.75 h -9.28128 c -8.03005,0 -9.41569,-0.25113 -10.27825,-1.86285 -2.48348,-4.640424 -10.60171,-4.755541 -13.04778,-0.185018 C 141.9613,101.94083 141.12354,102 114.0322,102 87.811598,102 86.099638,101.88929 85.5502,100.15817 84.277862,96.149383 80.079782,93.5 75,93.5 c -5.079782,0 -9.277862,2.649383 -10.5502,6.65817 C 63.924469,101.81334 62.641256,102 51.788008,102 H 39.71079 Z M 46.394474,76.82677 C 45.854796,75.956764 49.385695,69.785748 53.876672,63.75 l 3.5343,-4.75 9.544514,0.0318 c 6.803513,0.02267 10.101969,0.453442 11.485644,1.5 2.609749,1.973915 6.476288,1.852773 8.994419,-0.281803 1.814852,-1.538419 3.636194,-1.684006 15.064451,-1.204163 7.15,0.300211 11.97338,0.637711 10.71862,0.75 -1.25477,0.11229 -2.57212,0.991663 -2.92745,1.954163 -0.35533,0.9625 -2.47871,3.552245 -4.71861,5.75499 -5.999413,5.899873 -7.679038,8.27565 -6.259436,8.853771 1.534396,0.624868 -3.99774,0.803347 -30.65708,0.989066 -12.014176,0.0837 -22.031882,-0.15078 -22.26157,-0.521057 z M 128.3761,76 c 0.26338,-0.825 1.92684,-5.001216 3.69659,-9.280479 l 3.21773,-7.780479 11.55017,0.280479 11.55018,0.280479 4.69422,7 c 7.97808,11.896895 9.17246,11 -14.64848,11 -17.80329,0 -20.47549,-0.199811 -20.06041,-1.5 z M 64,53.048041 c 0,-0.523578 1.9125,-2.263042 4.25,-3.865477 23.873762,-16.366264 54.62624,-16.366264 78.5,0 2.3375,1.602435 4.25,3.310318 4.25,3.795296 0,0.488194 -13.76961,0.918709 -30.84918,0.964516 -29.466321,0.07903 -30.963867,-0.0075 -33.407728,-1.929819 C 83.498462,49.46033 80.802087,49.456223 78.5,52 77.052302,53.599688 75.420033,54 70.345012,54 66.855256,54 64,53.571618 64,53.048041 Z"
         id="path7" />
      <path
         style="fill:#09b7cc"
         d="m 91,170.469 c -7.501583,-2.06121 -20.742335,-8.58564 -25,-12.31885 l -3.5,-3.06887 7.095012,-0.0406 c 5.857244,-0.0335 7.410774,0.30827 8.904988,1.95936 0.995486,1.1 2.795486,2 4,2 1.204514,0 3.004514,-0.9 4,-2 1.738142,-1.92063 3.079967,-2 33.80998,-2 h 32 l -1.89272,2.09142 c -2.81152,3.1067 -12.30779,8.40399 -20.60009,11.49132 -6.29547,2.34389 -9.13236,2.77128 -20.31717,3.06089 -9.40152,0.24343 -14.522433,-0.0817 -18.5,-1.17463 z M 54.692912,146.95434 c -1.904614,-2.22511 -4.891068,-6.72511 -6.636565,-10 L 44.882717,131 l 31.808642,3e-5 31.808641,3e-5 2.79263,3.49997 c 3.64012,4.56211 9.01723,4.91738 13.07101,0.86361 1.45,-1.45 2.63636,-3.025 2.63636,-3.5 0,-0.475 9.70139,-0.86364 21.55864,-0.86364 h 21.55864 l -3.17363,5.95434 c -1.74549,3.27489 -4.73195,7.77489 -6.63656,10 L 156.84415,151 h -34.01434 c -32.500155,0 -34.127538,-0.089 -36.556939,-2 -1.398424,-1.1 -3.096216,-2 -3.772871,-2 -0.676655,0 -2.374447,0.9 -3.772871,2 -2.115493,1.66405 -4.056784,2 -11.556935,2 h -9.014348 z m 10.958386,-8.31033 C 69.418084,136.7297 73.4,134.42072 74.5,133.51292 c 1.881,-1.55233 1.469316,-1.61557 -6.919037,-1.0629 -7.579627,0.49939 -9.142759,0.90704 -10.408789,2.71455 -0.819364,1.16981 -2.292451,2.81422 -3.273527,3.65424 -1.322676,1.13251 -1.535414,1.99138 -0.822982,3.32257 1.121611,2.09575 2.111944,1.82033 12.575633,-3.49737 z M 44.655471,126.18212 C 42.802628,125.81376 41.232828,120.92567 40.341772,112.75 L 39.715087,107 H 51.857544 C 58.994019,107 64,107.39793 64,107.9652 c 0,0.53087 1.360591,2.51484 3.023536,4.40883 1.662945,1.89398 2.675445,3.59714 2.25,3.78479 -0.425445,0.18765 -2.325105,2.14118 -4.221467,4.34118 l -3.44793,4 4.94793,0.5624 c 3.50849,0.39879 1.275737,0.68971 -7.674859,1 -6.942534,0.24068 -13.342317,0.29455 -14.221739,0.11972 z m 42.854034,-0.002 c -0.173537,-0.17582 4.028332,-4.56184 9.337486,-9.74671 l 9.653009,-9.42704 17.38533,-0.003 c 17.26175,-0.003 17.4018,0.0145 19.70225,2.49672 1.64365,1.77353 3.36173,2.5 5.91242,2.5 2.55069,0 4.26877,-0.72647 5.91242,-2.5 2.13233,-2.30082 3.01625,-2.5 11.09471,-2.5 h 8.77778 l -0.62668,5.75 c -0.34468,3.1625 -1.10253,7.42878 -1.68411,9.48061 l -1.05742,3.73062 -21.70835,0.26938 L 128.5,126.5 l -3.75288,-3.25 c -4.87283,-4.21988 -8.83416,-4.3168 -12.83688,-0.31408 -2.82556,2.82555 -3.3334,2.94772 -13.510565,3.25 -5.816057,0.17274 -10.716633,0.17023 -10.89017,-0.006 z M 200,120.62226 v -3.54984 l 9.75,-0.28621 9.75,-0.28621 v -3.96357 -3.96358 l -7.5,-2.75368 c -4.88663,-1.79416 -8.49779,-3.8602 -10.36351,-5.929237 -2.53701,-2.81349 -2.80938,-3.738876 -2.38877,-8.116194 0.28953,-3.013247 1.21697,-5.682873 2.37737,-6.843276 2.53342,-2.533422 9.76047,-3.778936 18.35782,-3.163798 C 226.92309,82.263232 227,82.300143 227,85.134367 V 88 h -7.4349 C 209.78207,88 207,89.074472 207,92.852804 c 0,3.584113 1.12703,4.538339 7.62182,6.453198 6.8496,2.019468 11.0991,4.304008 12.34854,6.638608 0.5663,1.05815 1.02964,4.1784 1.02964,6.93388 0,3.85238 -0.55714,5.65828 -2.41123,7.81575 -2.34586,2.7297 -2.72541,2.81487 -14,3.14181 L 200,124.17211 Z m 35.51216,0.0899 C 232.07746,117.27746 232,117.0224 232,109.14705 232,96.217769 234.77687,93 245.93456,93 c 5.25383,0 6.45609,0.377234 9.29966,2.917971 3.25645,2.909635 3.26578,2.94528 3.26578,12.477269 0,9.08607 -0.13562,9.69492 -2.73944,12.29875 -2.3529,2.35289 -3.72695,2.79524 -9.73784,3.13488 -6.88286,0.38892 -7.05639,0.33746 -10.51056,-3.11671 z M 249.8,116.8 c 0.70798,-0.70798 1.2,-4.11111 1.2,-8.3 0,-8.01882 -0.88511,-9.5 -5.67695,-9.5 -4.71746,0 -6.70396,3.39316 -6.11864,10.45133 0.24754,2.98509 1.03292,6.12971 1.74528,6.98805 1.53076,1.84445 7.13801,2.07292 8.85031,0.36062 z m 18.8563,6.06747 C 265.28695,120.9089 264,115.70303 264,104.03212 V 93 h 4 4 v 10.91821 c 0,6.00502 0.27314,11.63002 0.60699,12.5 0.8315,2.16686 5.69399,2.01168 7.73802,-0.24695 1.32235,-1.46117 1.65499,-3.97361 1.65499,-12.5 V 93 h 4 4 v 15.5 15.5 h -3.41667 c -1.87916,0 -3.62291,-0.5625 -3.875,-1.25 -0.36666,-1 -0.72333,-1 -1.78333,0 -1.61144,1.52023 -9.7219,1.59788 -12.2687,0.11747 z M 296,108.59683 V 93.193663 l 9.5,-0.05813 9.5,-0.05813 v 2.961302 C 315,98.861317 314.79862,99 310.7,99 c -2.365,0 -4.84,0.54 -5.5,1.2 -0.79174,0.79174 -1.2,5.04444 -1.2,12.5 V 124 h -4 -4 z m 24.97347,12.67077 c -6.21732,-5.55517 -6.09438,-20.46374 0.21251,-25.770639 2.81842,-2.37154 3.69785,-2.551211 11.18646,-2.285425 8.04171,0.285417 8.1309,0.317512 8.44398,3.038464 l 0.31642,2.75 h -6.49499 c -7.38227,0 -9.20033,1.15091 -10.19519,6.45397 -0.69335,3.69586 0.19977,9.31548 1.79526,11.29603 0.63102,0.78332 3.59948,1.25 7.95095,1.25 h 6.94397 l -0.31642,2.75 c -0.31331,2.72299 -0.39685,2.75284 -8.50646,3.03947 -7.75882,0.27424 -8.35572,0.14145 -11.33649,-2.52187 z m 27.59402,-0.50011 c -5.78587,-5.78587 -6.07162,-19.41721 -0.52334,-24.965482 C 350.55201,93.294145 351.54465,93 357.5,93 c 6.02092,0 6.9319,0.27805 9.57692,2.923077 C 369.52906,98.375215 370,99.652593 370,103.85165 370,110.91296 368.58971,112 359.42857,112 c -7.96764,0 -9.25852,1.03394 -5.51765,4.41938 1.46701,1.32763 3.38349,1.66926 8.25,1.47065 L 368.5,117.63132 v 2.93434 2.93434 l -8.30861,0.29139 c -8.23245,0.28872 -8.339,0.261 -11.6239,-3.0239 z m 14.0409,-16.18935 C 363.68179,101.78091 361.13507,99 357.5,99 c -3.47777,0 -5.5,1.99806 -5.5,5.43426 0,2.13403 9.79372,2.26686 10.60839,0.14388 z m 33.81005,18.45301 c -8.45671,-3.4211 -12.26276,-23.00115 -6.59429,-33.924026 3.31124,-6.380613 6.10706,-7.638838 16.3825,-7.372746 4.97793,0.128907 9.60491,0.694265 10.28218,1.256349 0.67727,0.562085 1.01425,2.157888 0.74886,3.546229 -0.4782,2.501547 -0.54864,2.518267 -7.82939,1.858504 -5.90935,-0.535492 -7.83229,-0.347671 -9.82795,0.959937 -5.41115,3.545523 -6.34793,20.296823 -1.43025,25.575343 1.65591,1.77741 3.12118,2.06926 10.38886,2.06926 H 417 v 2.86916 c 0,2.53861 -0.43203,2.94056 -3.75,3.48899 -5.20668,0.86061 -14.33421,0.68328 -16.83156,-0.327 z m 29.46961,-0.53079 c -4.30954,-2.34219 -6.47689,-9.63188 -5.40779,-18.18863 0.53731,-4.30055 1.38282,-6.328651 3.53603,-8.481867 C 426.5723,93.273849 427.50946,93 433.70057,93 c 4.7185,0 7.57989,0.508142 9.18256,1.630693 7.31223,5.121687 6.70939,24.296917 -0.88313,28.090657 -3.34902,1.6734 -12.86654,1.54286 -16.11195,-0.22099 z m 12.54052,-6.07179 C 439.50761,115.34954 440,112.97887 440,108.86283 440,100.76733 438.92486,99 434,99 c -2.86166,0 -4.21097,0.525683 -4.96482,1.93426 -1.59257,2.97575 -1.26523,12.29228 0.52152,14.84323 1.84865,2.63931 6.5394,2.98355 8.87187,0.65108 z m 18.45948,6.07179 c -3.51005,-1.90768 -5.36491,-6.74814 -5.36491,-14.00036 0,-11.167456 3.73921,-15.5 13.3773,-15.5 h 4.99975 L 470.2001,87.25 470.5,81.5 474.25,81.189635 478,80.879269 V 102.43963 124 h -3.5 c -2.50111,0 -3.5,-0.44428 -3.5,-1.5567 0,-1.40894 -0.21096,-1.40894 -2.22251,0 -2.74443,1.92227 -8.40751,1.94945 -11.88944,0.0571 z m 11.28321,-6.15535 c 1.47561,-1.3354 1.82874,-3.16987 1.82874,-9.5 V 99 h -3.97695 c -5.47476,0 -7.43605,3.00618 -6.81864,10.45133 0.24754,2.98509 1.03292,6.12971 1.74528,6.98805 1.68566,2.03109 4.91966,1.98883 7.22157,-0.0944 z m 21.20939,5.7454 C 485.57816,119.77174 484,115.58578 484,107.81866 c 0,-6.73582 1.918,-12.169226 4.8496,-13.738169 C 489.96,93.486221 493.62768,93 497,93 c 7.41627,0 9.72926,1.107788 11.58466,5.548373 1.84556,4.417067 1.7946,8.465137 -0.14136,11.229117 -1.37157,1.95819 -2.44193,2.22251 -9,2.22251 -6.7322,0 -7.4433,0.18771 -7.4433,1.96482 0,2.86094 3.35669,4.20998 9.7396,3.91431 4.99461,-0.23136 5.72238,-0.0109 6.62241,2.00614 1.43311,3.21172 -0.44945,4.08177 -8.86201,4.09568 -5.1354,0.008 -7.83091,-0.49509 -10.11935,-1.89054 z m 12.30988,-17.72633 c 1.00516,-2.6194 -1.11127,-4.839872 -4.92536,-5.167503 -3.1327,-0.269099 -3.64933,0.03237 -4.56707,2.664993 -1.30319,3.73833 -0.86814,4.13843 4.49995,4.13843 3.11844,0 4.54397,-0.46711 4.99248,-1.63592 z m 33.34349,17.88437 c -5.34094,-2.69429 -7.36606,-7.1606 -7.85161,-17.31641 -0.47332,-9.899816 0.77256,-15.053986 4.64059,-19.197989 3.44494,-3.690732 8.14173,-4.764896 17.177,-3.928405 l 7.5,0.694354 0.31838,3.31729 0.31837,3.317289 -7.00886,-0.690635 c -3.85487,-0.37985 -8.15245,-0.403611 -9.55018,-0.0528 -4.24603,1.065684 -5.81703,5.596669 -5.42224,15.638446 C 535.63299,116.1756 536.45924,117 548.15499,117 H 557 v 2.86408 c 0,2.64918 -0.34811,2.91179 -4.63957,3.5 -7.8923,1.08176 -13.71349,0.70694 -17.32641,-1.11563 z M 566.5,123.05464 c -4.90781,-2.00872 -6,-4.69217 -6,-14.74166 0,-9.439101 0.0131,-9.488719 3.26578,-12.395009 C 566.60935,93.377234 567.81161,93 573.06544,93 584.22313,93 587,96.217769 587,109.14705 c 0,7.82492 -0.0963,8.14922 -3.4,11.45295 -3.11434,3.11434 -3.89151,3.39467 -9.25,3.33661 -3.2175,-0.0349 -6.75,-0.43175 -7.85,-0.88197 z m 11.55031,-6.61526 c 1.84764,-2.22627 2.30559,-11.4236 0.71897,-14.43938 -1.66645,-3.16752 -7.67816,-4.019644 -9.85487,-1.39687 -1.87295,2.25677 -1.90292,13.50086 -0.042,15.74318 1.73852,2.09478 7.46837,2.15289 9.17787,0.0931 z M 593,108.59683 V 93.193663 l 9.63649,-0.05897 c 5.30007,-0.03243 10.51316,0.410214 11.58466,0.98366 C 617.68419,95.971718 619,101.16176 619,112.96788 V 124 h -4 -4 v -10.91821 c 0,-6.00502 -0.27314,-11.63002 -0.60699,-12.5 C 609.66683,98.689393 603.9758,98.424196 602.2,100.2 c -0.79174,0.79174 -1.2,5.04444 -1.2,12.5 V 124 h -4 -4 z m 36.07258,12.76831 C 627.29393,119.10395 627,117.33124 627,108.86514 627,99.666667 626.86484,99 625,99 c -1.53758,0 -2,-0.666667 -2,-2.883369 0,-2.042364 0.58335,-3.035917 2,-3.40638 1.4563,-0.38083 2,-1.364016 2,-3.616631 C 627,86.151063 627.19532,86 631,86 c 3.90476,0 4,0.08333 4,3.5 0,3.426195 0.0857,3.5 4.06642,3.5 3.84614,0 4.04928,0.148971 3.75,2.75 -0.27471,2.387501 -0.81074,2.790912 -4.06642,3.060365 L 635,99.120731 V 108.56037 118 h 4 c 3.55231,0 4,0.26783 4,2.39301 0,2.82619 -1.6255,3.60699 -7.50921,3.60699 -3.50358,0 -4.74723,-0.51055 -6.41821,-2.63486 z M 646,108.59683 V 93.193663 l 9.5,-0.05813 9.5,-0.05813 v 2.961302 C 665,98.861317 664.79862,99 660.7,99 c -2.365,0 -4.84,0.54 -5.5,1.2 -0.79174,0.79174 -1.2,5.04444 -1.2,12.5 V 124 h -4 -4 z m 26.88805,13.90353 C 669.37078,120.58875 667.625,115.94478 667.625,108.5 c 0,-11.666297 3.53927,-15.5 14.30956,-15.5 5.25382,0 6.45609,0.377237 9.29966,2.917958 3.12961,2.796291 3.27827,3.265375 3.56538,11.250002 0.46269,12.86749 -2.90884,16.87853 -14.1147,16.792 -2.85169,-0.022 -6.36028,-0.67884 -7.79685,-1.4596 z m 13.07677,-6.43462 C 686.53417,115.0019 687,111.59732 687,108.5 687,101.03349 685.82732,99 681.52152,99 676.99599,99 675,101.90759 675,108.5 c 0,6.59241 1.99599,9.5 6.52152,9.5 2.34605,0 3.73071,-0.60277 4.4433,-1.93426 z m 18.34094,5.52239 L 701.5,119.17625 V 99.838125 80.5 l 3.72772,-0.309037 3.72772,-0.309037 0.27228,18.809037 L 709.5,117.5 l 3.25,0.31336 c 2.85772,0.27553 3.25,0.66781 3.25,3.25 0,2.80834 -0.19417,2.93664 -4.44424,2.93664 -3.255,0 -5.19502,-0.64539 -7.25,-2.41187 z M 90.280173,107.26373 c 2.629095,-0.20668 6.679095,-0.20418 9,0.006 2.320907,0.20972 0.169827,0.37882 -4.780173,0.37577 -4.95,-0.003 -6.848922,-0.17464 -4.219827,-0.38131 z M 40.341772,96.25 c 0.344677,-3.1625 1.104934,-7.4375 1.68946,-9.5 L 43.094008,83 76.297004,83.19268 c 18.261648,0.105973 30.441986,0.35111 27.067426,0.544747 -5.938026,0.340732 -6.270137,0.508332 -10.315428,5.205672 -2.298925,2.669483 -4.784351,5.680292 -5.52317,6.690686 -1.294297,1.770057 -1.488421,1.755523 -5.320724,-0.398352 -6.913362,-3.885526 -14.773937,-2.089958 -17.464953,3.989468 L 63.511777,102 H 51.613432 39.715087 Z M 90.75,101.26276 c 2.8875,-0.202 7.6125,-0.202 10.5,0 2.8875,0.202 0.525,0.36728 -5.25,0.36728 -5.775,0 -8.1375,-0.16528 -5.25,-0.36728 z M 115.10527,96.25 c 2.29259,-3.1625 5.96366,-7.4375 8.15792,-9.5 L 127.25276,83 h 22.32662 22.32661 l 1.06278,3.75 c 0.58452,2.0625 1.34478,6.3375 1.68946,9.5 l 0.62668,5.75 h -8.56553 c -8.18393,0 -8.69919,-0.13365 -11.56553,-3 -1.82609,-1.826087 -4.03847,-3 -5.65385,-3 -1.61538,0 -3.82776,1.173913 -5.65385,3 l -3,3 h -14.95462 -14.95462 z"
         id="path6" />
      <path
         style="fill:#069dae"
         d="m 91,170.469 c -7.501583,-2.06121 -20.742335,-8.58564 -25,-12.31885 l -3.5,-3.06887 7.095012,-0.0406 c 5.857244,-0.0335 7.410774,0.30827 8.904988,1.95936 0.995486,1.1 2.795486,2 4,2 1.204514,0 3.004514,-0.9 4,-2 1.738142,-1.92063 3.079967,-2 33.80998,-2 h 32 l -1.89272,2.09142 c -2.81152,3.1067 -12.30779,8.40399 -20.60009,11.49132 -6.29547,2.34389 -9.13236,2.77128 -20.31717,3.06089 -9.40152,0.24343 -14.522433,-0.0817 -18.5,-1.17463 z M 54.687818,146.75 c -1.895345,-2.3375 -4.893428,-6.8375 -6.662408,-10 L 44.809083,131 H 76.904542 C 94.557044,131 109,131.38864 109,131.86364 c 0,0.475 1.18636,2.05 2.63636,3.5 3.57092,3.57091 9.43737,3.65353 12.90909,0.18181 1.35,-1.35 2.45455,-2.925 2.45455,-3.5 C 127,131.35051 134.22799,131 148.55864,131 h 21.55864 l -3.17363,5.95434 c -1.74549,3.27489 -4.73195,7.77489 -6.63656,10 L 156.84415,151 H 122.57706 C 89.579967,151 88.242895,150.9259 86.5,149 c -0.995486,-1.1 -2.795486,-2 -4,-2 -1.204514,0 -3.004514,0.9 -4,2 -1.562224,1.72624 -3.079967,2 -11.088038,2 h -9.278063 z m 10.96348,-8.10599 C 69.418084,136.7297 73.4,134.42072 74.5,133.51292 c 1.881,-1.55233 1.469316,-1.61557 -6.919037,-1.0629 -7.579627,0.49939 -9.142759,0.90704 -10.408789,2.71455 -0.819364,1.16981 -2.292451,2.81422 -3.273527,3.65424 -1.322676,1.13251 -1.535414,1.99138 -0.822982,3.32257 1.121611,2.09575 2.111944,1.82033 12.575633,-3.49737 z M 200,120.62226 v -3.54984 l 9.75,-0.28621 9.75,-0.28621 v -3.96357 -3.96358 l -7.5,-2.75368 c -4.88663,-1.79416 -8.49779,-3.8602 -10.36351,-5.929237 -2.53701,-2.81349 -2.80938,-3.738876 -2.38877,-8.116194 0.28953,-3.013247 1.21697,-5.682873 2.37737,-6.843276 2.53342,-2.533422 9.76047,-3.778936 18.35782,-3.163798 C 226.92309,82.263232 227,82.300143 227,85.134367 V 88 h -7.4349 C 209.78207,88 207,89.074472 207,92.852804 c 0,3.584113 1.12703,4.538339 7.62182,6.453198 6.8496,2.019468 11.0991,4.304008 12.34854,6.638608 0.5663,1.05815 1.02964,4.1784 1.02964,6.93388 0,3.85238 -0.55714,5.65828 -2.41123,7.81575 -2.34586,2.7297 -2.72541,2.81487 -14,3.14181 L 200,124.17211 Z m 35.51216,0.0899 C 232.07746,117.27746 232,117.0224 232,109.14705 232,96.217769 234.77687,93 245.93456,93 c 5.25383,0 6.45609,0.377234 9.29966,2.917971 3.25645,2.909635 3.26578,2.94528 3.26578,12.477269 0,9.08607 -0.13562,9.69492 -2.73944,12.29875 -2.3529,2.35289 -3.72695,2.79524 -9.73784,3.13488 -6.88286,0.38892 -7.05639,0.33746 -10.51056,-3.11671 z M 249.8,116.8 c 0.70798,-0.70798 1.2,-4.11111 1.2,-8.3 0,-8.01882 -0.88511,-9.5 -5.67695,-9.5 -4.71746,0 -6.70396,3.39316 -6.11864,10.45133 0.24754,2.98509 1.03292,6.12971 1.74528,6.98805 1.53076,1.84445 7.13801,2.07292 8.85031,0.36062 z m 18.8563,6.06747 C 265.28695,120.9089 264,115.70303 264,104.03212 V 93 h 4 4 v 10.91821 c 0,6.00502 0.27314,11.63002 0.60699,12.5 0.8315,2.16686 5.69399,2.01168 7.73802,-0.24695 1.32235,-1.46117 1.65499,-3.97361 1.65499,-12.5 V 93 h 4 4 v 15.5 15.5 h -3.41667 c -1.87916,0 -3.62291,-0.5625 -3.875,-1.25 -0.36666,-1 -0.72333,-1 -1.78333,0 -1.61144,1.52023 -9.7219,1.59788 -12.2687,0.11747 z M 296,108.59683 V 93.193663 l 9.5,-0.05813 9.5,-0.05813 v 2.961302 C 315,98.861317 314.79862,99 310.7,99 c -2.365,0 -4.84,0.54 -5.5,1.2 -0.79174,0.79174 -1.2,5.04444 -1.2,12.5 V 124 h -4 -4 z m 24.97347,12.67077 c -6.21732,-5.55517 -6.09438,-20.46374 0.21251,-25.770639 2.81842,-2.37154 3.69785,-2.551211 11.18646,-2.285425 8.04171,0.285417 8.1309,0.317512 8.44398,3.038464 l 0.31642,2.75 h -6.49499 c -7.38227,0 -9.20033,1.15091 -10.19519,6.45397 -0.69335,3.69586 0.19977,9.31548 1.79526,11.29603 0.63102,0.78332 3.59948,1.25 7.95095,1.25 h 6.94397 l -0.31642,2.75 c -0.31331,2.72299 -0.39685,2.75284 -8.50646,3.03947 -7.75882,0.27424 -8.35572,0.14145 -11.33649,-2.52187 z m 27.59402,-0.50011 c -5.78587,-5.78587 -6.07162,-19.41721 -0.52334,-24.965482 C 350.55201,93.294145 351.54465,93 357.5,93 c 6.02092,0 6.9319,0.27805 9.57692,2.923077 C 369.52906,98.375215 370,99.652593 370,103.85165 370,110.91296 368.58971,112 359.42857,112 c -7.96764,0 -9.25852,1.03394 -5.51765,4.41938 1.46701,1.32763 3.38349,1.66926 8.25,1.47065 L 368.5,117.63132 v 2.93434 2.93434 l -8.30861,0.29139 c -8.23245,0.28872 -8.339,0.261 -11.6239,-3.0239 z m 14.0409,-16.18935 C 363.68179,101.78091 361.13507,99 357.5,99 c -3.47777,0 -5.5,1.99806 -5.5,5.43426 0,2.13403 9.79372,2.26686 10.60839,0.14388 z m 33.81005,18.45301 c -8.45671,-3.4211 -12.26276,-23.00115 -6.59429,-33.924026 3.31124,-6.380613 6.10706,-7.638838 16.3825,-7.372746 4.97793,0.128907 9.60491,0.694265 10.28218,1.256349 0.67727,0.562085 1.01425,2.157888 0.74886,3.546229 -0.4782,2.501547 -0.54864,2.518267 -7.82939,1.858504 -5.90935,-0.535492 -7.83229,-0.347671 -9.82795,0.959937 -5.41115,3.545523 -6.34793,20.296823 -1.43025,25.575343 1.65591,1.77741 3.12118,2.06926 10.38886,2.06926 H 417 v 2.86916 c 0,2.53861 -0.43203,2.94056 -3.75,3.48899 -5.20668,0.86061 -14.33421,0.68328 -16.83156,-0.327 z m 29.46961,-0.53079 c -4.30954,-2.34219 -6.47689,-9.63188 -5.40779,-18.18863 0.53731,-4.30055 1.38282,-6.328651 3.53603,-8.481867 C 426.5723,93.273849 427.50946,93 433.70057,93 c 4.7185,0 7.57989,0.508142 9.18256,1.630693 7.31223,5.121687 6.70939,24.296917 -0.88313,28.090657 -3.34902,1.6734 -12.86654,1.54286 -16.11195,-0.22099 z m 12.54052,-6.07179 C 439.50761,115.34954 440,112.97887 440,108.86283 440,100.76733 438.92486,99 434,99 c -2.86166,0 -4.21097,0.525683 -4.96482,1.93426 -1.59257,2.97575 -1.26523,12.29228 0.52152,14.84323 1.84865,2.63931 6.5394,2.98355 8.87187,0.65108 z m 18.45948,6.07179 c -3.51005,-1.90768 -5.36491,-6.74814 -5.36491,-14.00036 0,-11.167456 3.73921,-15.5 13.3773,-15.5 h 4.99975 L 470.2001,87.25 470.5,81.5 474.25,81.189635 478,80.879269 V 102.43963 124 h -3.5 c -2.50111,0 -3.5,-0.44428 -3.5,-1.5567 0,-1.40894 -0.21096,-1.40894 -2.22251,0 -2.74443,1.92227 -8.40751,1.94945 -11.88944,0.0571 z m 11.28321,-6.15535 c 1.47561,-1.3354 1.82874,-3.16987 1.82874,-9.5 V 99 h -3.97695 c -5.47476,0 -7.43605,3.00618 -6.81864,10.45133 0.24754,2.98509 1.03292,6.12971 1.74528,6.98805 1.68566,2.03109 4.91966,1.98883 7.22157,-0.0944 z m 21.20939,5.7454 C 485.57816,119.77174 484,115.58578 484,107.81866 c 0,-6.73582 1.918,-12.169226 4.8496,-13.738169 C 489.96,93.486221 493.62768,93 497,93 c 7.41627,0 9.72926,1.107788 11.58466,5.548373 1.84556,4.417067 1.7946,8.465137 -0.14136,11.229117 -1.37157,1.95819 -2.44193,2.22251 -9,2.22251 -6.7322,0 -7.4433,0.18771 -7.4433,1.96482 0,2.86094 3.35669,4.20998 9.7396,3.91431 4.99461,-0.23136 5.72238,-0.0109 6.62241,2.00614 1.43311,3.21172 -0.44945,4.08177 -8.86201,4.09568 -5.1354,0.008 -7.83091,-0.49509 -10.11935,-1.89054 z m 12.30988,-17.72633 c 1.00516,-2.6194 -1.11127,-4.839872 -4.92536,-5.167503 -3.1327,-0.269099 -3.64933,0.03237 -4.56707,2.664993 -1.30319,3.73833 -0.86814,4.13843 4.49995,4.13843 3.11844,0 4.54397,-0.46711 4.99248,-1.63592 z m 33.34349,17.88437 c -5.34094,-2.69429 -7.36606,-7.1606 -7.85161,-17.31641 -0.47332,-9.899816 0.77256,-15.053986 4.64059,-19.197989 3.44494,-3.690732 8.14173,-4.764896 17.177,-3.928405 l 7.5,0.694354 0.31838,3.31729 0.31837,3.317289 -7.00886,-0.690635 c -3.85487,-0.37985 -8.15245,-0.403611 -9.55018,-0.0528 -4.24603,1.065684 -5.81703,5.596669 -5.42224,15.638446 C 535.63299,116.1756 536.45924,117 548.15499,117 H 557 v 2.86408 c 0,2.64918 -0.34811,2.91179 -4.63957,3.5 -7.8923,1.08176 -13.71349,0.70694 -17.32641,-1.11563 z M 566.5,123.05464 c -4.90781,-2.00872 -6,-4.69217 -6,-14.74166 0,-9.439101 0.0131,-9.488719 3.26578,-12.395009 C 566.60935,93.377234 567.81161,93 573.06544,93 584.22313,93 587,96.217769 587,109.14705 c 0,7.82492 -0.0963,8.14922 -3.4,11.45295 -3.11434,3.11434 -3.89151,3.39467 -9.25,3.33661 -3.2175,-0.0349 -6.75,-0.43175 -7.85,-0.88197 z m 11.55031,-6.61526 c 1.84764,-2.22627 2.30559,-11.4236 0.71897,-14.43938 -1.66645,-3.16752 -7.67816,-4.019644 -9.85487,-1.39687 -1.87295,2.25677 -1.90292,13.50086 -0.042,15.74318 1.73852,2.09478 7.46837,2.15289 9.17787,0.0931 z M 593,108.59683 V 93.193663 l 9.63649,-0.05897 c 5.30007,-0.03243 10.51316,0.410214 11.58466,0.98366 C 617.68419,95.971718 619,101.16176 619,112.96788 V 124 h -4 -4 v -10.91821 c 0,-6.00502 -0.27314,-11.63002 -0.60699,-12.5 C 609.66683,98.689393 603.9758,98.424196 602.2,100.2 c -0.79174,0.79174 -1.2,5.04444 -1.2,12.5 V 124 h -4 -4 z m 36.07258,12.76831 C 627.29393,119.10395 627,117.33124 627,108.86514 627,99.666667 626.86484,99 625,99 c -1.53758,0 -2,-0.666667 -2,-2.883369 0,-2.042364 0.58335,-3.035917 2,-3.40638 1.4563,-0.38083 2,-1.364016 2,-3.616631 C 627,86.151063 627.19532,86 631,86 c 3.90476,0 4,0.08333 4,3.5 0,3.426195 0.0857,3.5 4.06642,3.5 3.84614,0 4.04928,0.148971 3.75,2.75 -0.27471,2.387501 -0.81074,2.790912 -4.06642,3.060365 L 635,99.120731 V 108.56037 118 h 4 c 3.55231,0 4,0.26783 4,2.39301 0,2.82619 -1.6255,3.60699 -7.50921,3.60699 -3.50358,0 -4.74723,-0.51055 -6.41821,-2.63486 z M 646,108.59683 V 93.193663 l 9.5,-0.05813 9.5,-0.05813 v 2.961302 C 665,98.861317 664.79862,99 660.7,99 c -2.365,0 -4.84,0.54 -5.5,1.2 -0.79174,0.79174 -1.2,5.04444 -1.2,12.5 V 124 h -4 -4 z m 26.88805,13.90353 C 669.37078,120.58875 667.625,115.94478 667.625,108.5 c 0,-11.666297 3.53927,-15.5 14.30956,-15.5 5.25382,0 6.45609,0.377237 9.29966,2.917958 3.12961,2.796291 3.27827,3.265375 3.56538,11.250002 0.46269,12.86749 -2.90884,16.87853 -14.1147,16.792 -2.85169,-0.022 -6.36028,-0.67884 -7.79685,-1.4596 z m 13.07677,-6.43462 C 686.53417,115.0019 687,111.59732 687,108.5 687,101.03349 685.82732,99 681.52152,99 676.99599,99 675,101.90759 675,108.5 c 0,6.59241 1.99599,9.5 6.52152,9.5 2.34605,0 3.73071,-0.60277 4.4433,-1.93426 z m 18.34094,5.52239 L 701.5,119.17625 V 99.838125 80.5 l 3.72772,-0.309037 3.72772,-0.309037 0.27228,18.809037 L 709.5,117.5 l 3.25,0.31336 c 2.85772,0.27553 3.25,0.66781 3.25,3.25 0,2.80834 -0.19417,2.93664 -4.44424,2.93664 -3.255,0 -5.19502,-0.64539 -7.25,-2.41187 z M 40.706351,97 c 1.034004,-7.710819 2.735971,-13.327044 4.182845,-13.802736 0.959908,-0.31559 1.132353,-0.03037 0.558041,0.923004 -0.655996,1.088967 -0.527275,1.139391 0.610805,0.23927 0.941844,-0.744916 7.767701,-1.196675 19.680735,-1.30254 16.117355,-0.143226 18.169481,0.0185 17.643011,1.390462 C 83.054117,85.301357 81.934167,86 80.893011,86 79.851855,86 79,86.45 79,87 c 0,1.937014 -4.179917,5.186213 -6.044507,4.698612 -1.022779,-0.267463 -1.997991,-0.196567 -2.167137,0.157546 C 70.61921,92.210271 68.927321,93.85 67.028602,95.5 c -1.898719,1.65 -2.895418,2.265052 -2.214886,1.366783 1.01081,-1.334221 0.946447,-1.744839 -0.351575,-2.242937 C 63.588243,94.2885 63.153315,93.560947 63.495635,93.007063 63.837954,92.453178 63.641476,92 63.059017,92 c -1.264398,0 -1.411231,1.664286 -0.212211,2.405321 0.465743,0.287845 0.884907,1.863426 0.931476,3.50129 l 0.08467,2.977939 -11.88002,0.30772 L 40.102911,101.5 Z M 68,91 c 0,-0.55 -0.476558,-1 -1.059017,-1 -0.582459,0 -0.780902,0.45 -0.440983,1 0.339919,0.55 0.816476,1 1.059017,1 C 67.801558,92 68,91.55 68,91 Z m 1.25,-3.740397 c -3.4375,-0.195271 -9.0625,-0.195271 -12.5,0 -3.4375,0.195271 -0.625,0.355038 6.25,0.355038 6.875,0 9.6875,-0.159767 6.25,-0.355038 z m 96.82865,13.993637 c -6.50737,-0.26246 -8.70454,-0.72693 -9.66732,-2.043616 -0.9536,-1.304122 -0.97205,-2.039482 -0.0786,-3.133864 0.96776,-1.185463 0.86046,-1.260321 -0.6277,-0.43789 -0.98923,0.546703 -4.0193,0.70667 -6.75,0.356355 -3.853,-0.494288 -4.95503,-0.3288 -4.95503,0.744072 0,0.758855 -0.46115,1.094731 -1.02478,0.74639 -0.56362,-0.34834 -0.96033,-0.262398 -0.88158,0.190983 0.54729,3.15048 -0.21776,3.32433 -14.62882,3.32433 -14.37683,0 -14.52315,-0.0225 -13.43026,-2.064567 0.9441,-1.764085 1.34947,-1.873241 2.78518,-0.75 1.46501,1.146162 1.52377,1.113676 0.45874,-0.253583 -0.97646,-1.253544 -0.91258,-2.009237 0.31842,-3.76673 0.84697,-1.209219 2.02868,-1.896522 2.62603,-1.527341 0.66266,0.409545 0.79735,0.204056 0.34549,-0.527075 -0.40733,-0.659073 -0.16304,-1.894236 0.54288,-2.744809 1.14859,-1.38397 1.43124,-1.353093 2.68951,0.293805 1.3184,1.725581 1.36423,1.700042 0.73523,-0.4097 -0.55687,-1.867821 -0.27719,-2.26341 1.64657,-2.328947 1.27457,-0.04342 1.75489,-0.305921 1.06739,-0.583334 -0.6875,-0.277412 -1.25,-0.943443 -1.25,-1.480069 0,-0.536626 0.41157,-0.721323 0.91459,-0.410436 0.50302,0.310886 1.1425,-5.7e-5 1.42105,-0.690983 0.39873,-0.989014 0.52326,-0.982855 0.58541,0.02895 0.0604,0.983729 0.55943,1.028041 2.12735,0.188912 1.34371,-0.719128 8.65422,-0.98925 21.25,-0.785184 19.18113,0.310756 19.20152,0.313487 19.1222,2.561088 -0.0437,1.2375 0.25427,2.25 0.6621,2.25 0.70585,0 1.50479,3.616025 2.37515,10.75 0.21808,1.787503 0.31678,3.158403 0.21933,3.046453 -0.0974,-0.11195 -3.96679,-0.35639 -8.59853,-0.54321 z m -14.80962,-6.909177 c -0.67703,-0.273923 -2.02703,-0.290597 -3,-0.03705 -0.97297,0.253544 -0.41903,0.477663 1.23097,0.498042 1.65,0.02038 2.44606,-0.187065 1.76903,-0.460988 z M 125,93.559017 c 0,-0.242541 -0.45,-0.719098 -1,-1.059017 -0.55,-0.339919 -1,-0.141476 -1,0.440983 C 123,93.523442 123.45,94 124,94 c 0.55,0 1,-0.198442 1,-0.440983 z M 166.66796,87.75 c 0.001,-0.97026 -3.82211,-1.140994 -17.08333,-0.762912 L 132.5,87.474176 l 17,0.54968 c 9.35,0.302324 17.0375,0.645634 17.08333,0.762912 0.0458,0.117278 0.0839,-0.349268 0.0846,-1.036768 z"
         id="path5" />
      <path
         style="fill:#5b5a5b"
         d="M 91.159221,170.11517 C 83.354085,168.12928 71.462951,162.50799 66.5,158.45804 l -3,-2.44811 6.627555,-0.005 c 4.676005,-0.004 6.994126,0.43672 7.872445,1.49503 1.588619,1.91417 6.048252,1.93074 8.55887,0.0318 1.60951,-1.21737 7.322544,-1.47278 33.44113,-1.49503 l 31.5,-0.0268 -3,2.44995 c -4.37823,3.57547 -13.06564,8.04309 -20.5,10.54242 -9.32059,3.13345 -26.82153,3.66211 -36.840779,1.11287 z M 200,120.62226 v -3.54984 l 9.75,-0.28621 9.75,-0.28621 v -3.96357 -3.96358 l -7.5,-2.75368 c -4.88663,-1.79416 -8.49779,-3.8602 -10.36351,-5.929237 -2.53701,-2.81349 -2.80938,-3.738876 -2.38877,-8.116194 0.28953,-3.013247 1.21697,-5.682873 2.37737,-6.843276 2.53342,-2.533422 9.76047,-3.778936 18.35782,-3.163798 C 226.92309,82.263232 227,82.300143 227,85.134367 V 88 h -7.4349 C 209.78207,88 207,89.074472 207,92.852804 c 0,3.584113 1.12703,4.538339 7.62182,6.453198 6.8496,2.019468 11.0991,4.304008 12.34854,6.638608 0.5663,1.05815 1.02964,4.1784 1.02964,6.93388 0,3.85238 -0.55714,5.65828 -2.41123,7.81575 -2.34586,2.7297 -2.72541,2.81487 -14,3.14181 L 200,124.17211 Z m 35.51216,0.0899 C 232.07746,117.27746 232,117.0224 232,109.14705 232,96.217769 234.77687,93 245.93456,93 c 5.25383,0 6.45609,0.377234 9.29966,2.917971 3.25645,2.909635 3.26578,2.94528 3.26578,12.477269 0,9.08607 -0.13562,9.69492 -2.73944,12.29875 -2.3529,2.35289 -3.72695,2.79524 -9.73784,3.13488 -6.88286,0.38892 -7.05639,0.33746 -10.51056,-3.11671 z M 249.8,116.8 c 0.70798,-0.70798 1.2,-4.11111 1.2,-8.3 0,-8.01882 -0.88511,-9.5 -5.67695,-9.5 -4.71746,0 -6.70396,3.39316 -6.11864,10.45133 0.24754,2.98509 1.03292,6.12971 1.74528,6.98805 1.53076,1.84445 7.13801,2.07292 8.85031,0.36062 z m 18.8563,6.06747 C 265.28695,120.9089 264,115.70303 264,104.03212 V 93 h 4 4 v 10.91821 c 0,6.00502 0.27314,11.63002 0.60699,12.5 0.8315,2.16686 5.69399,2.01168 7.73802,-0.24695 1.32235,-1.46117 1.65499,-3.97361 1.65499,-12.5 V 93 h 4 4 v 15.5 15.5 h -3.41667 c -1.87916,0 -3.62291,-0.5625 -3.875,-1.25 -0.36666,-1 -0.72333,-1 -1.78333,0 -1.61144,1.52023 -9.7219,1.59788 -12.2687,0.11747 z M 296,108.59683 V 93.193663 l 9.5,-0.05813 9.5,-0.05813 v 2.961302 C 315,98.861317 314.79862,99 310.7,99 c -2.365,0 -4.84,0.54 -5.5,1.2 -0.79174,0.79174 -1.2,5.04444 -1.2,12.5 V 124 h -4 -4 z m 24.97347,12.67077 c -6.21732,-5.55517 -6.09438,-20.46374 0.21251,-25.770639 2.81842,-2.37154 3.69785,-2.551211 11.18646,-2.285425 8.04171,0.285417 8.1309,0.317512 8.44398,3.038464 l 0.31642,2.75 h -6.49499 c -7.38227,0 -9.20033,1.15091 -10.19519,6.45397 -0.69335,3.69586 0.19977,9.31548 1.79526,11.29603 0.63102,0.78332 3.59948,1.25 7.95095,1.25 h 6.94397 l -0.31642,2.75 c -0.31331,2.72299 -0.39685,2.75284 -8.50646,3.03947 -7.75882,0.27424 -8.35572,0.14145 -11.33649,-2.52187 z m 27.59402,-0.50011 c -5.78587,-5.78587 -6.07162,-19.41721 -0.52334,-24.965482 C 350.55201,93.294145 351.54465,93 357.5,93 c 6.02092,0 6.9319,0.27805 9.57692,2.923077 C 369.52906,98.375215 370,99.652593 370,103.85165 370,110.91296 368.58971,112 359.42857,112 c -7.96764,0 -9.25852,1.03394 -5.51765,4.41938 1.46701,1.32763 3.38349,1.66926 8.25,1.47065 L 368.5,117.63132 v 2.93434 2.93434 l -8.30861,0.29139 c -8.23245,0.28872 -8.339,0.261 -11.6239,-3.0239 z m 14.0409,-16.18935 C 363.68179,101.78091 361.13507,99 357.5,99 c -3.47777,0 -5.5,1.99806 -5.5,5.43426 0,2.13403 9.79372,2.26686 10.60839,0.14388 z m 33.81005,18.45301 c -8.45671,-3.4211 -12.26276,-23.00115 -6.59429,-33.924026 3.31124,-6.380613 6.10706,-7.638838 16.3825,-7.372746 4.97793,0.128907 9.60491,0.694265 10.28218,1.256349 0.67727,0.562085 1.01425,2.157888 0.74886,3.546229 -0.4782,2.501547 -0.54864,2.518267 -7.82939,1.858504 -5.90935,-0.535492 -7.83229,-0.347671 -9.82795,0.959937 -5.41115,3.545523 -6.34793,20.296823 -1.43025,25.575343 1.65591,1.77741 3.12118,2.06926 10.38886,2.06926 H 417 v 2.86916 c 0,2.53861 -0.43203,2.94056 -3.75,3.48899 -5.20668,0.86061 -14.33421,0.68328 -16.83156,-0.327 z m 29.46961,-0.53079 c -4.30954,-2.34219 -6.47689,-9.63188 -5.40779,-18.18863 0.53731,-4.30055 1.38282,-6.328651 3.53603,-8.481867 C 426.5723,93.273849 427.50946,93 433.70057,93 c 4.7185,0 7.57989,0.508142 9.18256,1.630693 7.31223,5.121687 6.70939,24.296917 -0.88313,28.090657 -3.34902,1.6734 -12.86654,1.54286 -16.11195,-0.22099 z m 12.54052,-6.07179 C 439.50761,115.34954 440,112.97887 440,108.86283 440,100.76733 438.92486,99 434,99 c -2.86166,0 -4.21097,0.525683 -4.96482,1.93426 -1.59257,2.97575 -1.26523,12.29228 0.52152,14.84323 1.84865,2.63931 6.5394,2.98355 8.87187,0.65108 z m 18.45948,6.07179 c -3.51005,-1.90768 -5.36491,-6.74814 -5.36491,-14.00036 0,-11.167456 3.73921,-15.5 13.3773,-15.5 h 4.99975 L 470.2001,87.25 470.5,81.5 474.25,81.189635 478,80.879269 V 102.43963 124 h -3.5 c -2.50111,0 -3.5,-0.44428 -3.5,-1.5567 0,-1.40894 -0.21096,-1.40894 -2.22251,0 -2.74443,1.92227 -8.40751,1.94945 -11.88944,0.0571 z m 11.28321,-6.15535 c 1.47561,-1.3354 1.82874,-3.16987 1.82874,-9.5 V 99 h -3.97695 c -5.47476,0 -7.43605,3.00618 -6.81864,10.45133 0.24754,2.98509 1.03292,6.12971 1.74528,6.98805 1.68566,2.03109 4.91966,1.98883 7.22157,-0.0944 z m 21.20939,5.7454 C 485.57816,119.77174 484,115.58578 484,107.81866 c 0,-6.73582 1.918,-12.169226 4.8496,-13.738169 C 489.96,93.486221 493.62768,93 497,93 c 7.41627,0 9.72926,1.107788 11.58466,5.548373 1.84556,4.417067 1.7946,8.465137 -0.14136,11.229117 -1.37157,1.95819 -2.44193,2.22251 -9,2.22251 -6.7322,0 -7.4433,0.18771 -7.4433,1.96482 0,2.86094 3.35669,4.20998 9.7396,3.91431 4.99461,-0.23136 5.72238,-0.0109 6.62241,2.00614 1.43311,3.21172 -0.44945,4.08177 -8.86201,4.09568 -5.1354,0.008 -7.83091,-0.49509 -10.11935,-1.89054 z m 12.30988,-17.72633 c 1.00516,-2.6194 -1.11127,-4.839872 -4.92536,-5.167503 -3.1327,-0.269099 -3.64933,0.03237 -4.56707,2.664993 -1.30319,3.73833 -0.86814,4.13843 4.49995,4.13843 3.11844,0 4.54397,-0.46711 4.99248,-1.63592 z m 33.34349,17.88437 c -5.34094,-2.69429 -7.36606,-7.1606 -7.85161,-17.31641 -0.47332,-9.899816 0.77256,-15.053986 4.64059,-19.197989 3.44494,-3.690732 8.14173,-4.764896 17.177,-3.928405 l 7.5,0.694354 0.31838,3.31729 0.31837,3.317289 -7.00886,-0.690635 c -3.85487,-0.37985 -8.15245,-0.403611 -9.55018,-0.0528 -4.24603,1.065684 -5.81703,5.596669 -5.42224,15.638446 C 535.63299,116.1756 536.45924,117 548.15499,117 H 557 v 2.86408 c 0,2.64918 -0.34811,2.91179 -4.63957,3.5 -7.8923,1.08176 -13.71349,0.70694 -17.32641,-1.11563 z M 566.5,123.05464 c -4.90781,-2.00872 -6,-4.69217 -6,-14.74166 0,-9.439101 0.0131,-9.488719 3.26578,-12.395009 C 566.60935,93.377234 567.81161,93 573.06544,93 584.22313,93 587,96.217769 587,109.14705 c 0,7.82492 -0.0963,8.14922 -3.4,11.45295 -3.11434,3.11434 -3.89151,3.39467 -9.25,3.33661 -3.2175,-0.0349 -6.75,-0.43175 -7.85,-0.88197 z m 11.55031,-6.61526 c 1.84764,-2.22627 2.30559,-11.4236 0.71897,-14.43938 -1.66645,-3.16752 -7.67816,-4.019644 -9.85487,-1.39687 -1.87295,2.25677 -1.90292,13.50086 -0.042,15.74318 1.73852,2.09478 7.46837,2.15289 9.17787,0.0931 z M 593,108.59683 V 93.193663 l 9.63649,-0.05897 c 5.30007,-0.03243 10.51316,0.410214 11.58466,0.98366 C 617.68419,95.971718 619,101.16176 619,112.96788 V 124 h -4 -4 v -10.91821 c 0,-6.00502 -0.27314,-11.63002 -0.60699,-12.5 C 609.66683,98.689393 603.9758,98.424196 602.2,100.2 c -0.79174,0.79174 -1.2,5.04444 -1.2,12.5 V 124 h -4 -4 z m 36.07258,12.76831 C 627.29393,119.10395 627,117.33124 627,108.86514 627,99.666667 626.86484,99 625,99 c -1.53758,0 -2,-0.666667 -2,-2.883369 0,-2.042364 0.58335,-3.035917 2,-3.40638 1.4563,-0.38083 2,-1.364016 2,-3.616631 C 627,86.151063 627.19532,86 631,86 c 3.90476,0 4,0.08333 4,3.5 0,3.426195 0.0857,3.5 4.06642,3.5 3.84614,0 4.04928,0.148971 3.75,2.75 -0.27471,2.387501 -0.81074,2.790912 -4.06642,3.060365 L 635,99.120731 V 108.56037 118 h 4 c 3.55231,0 4,0.26783 4,2.39301 0,2.82619 -1.6255,3.60699 -7.50921,3.60699 -3.50358,0 -4.74723,-0.51055 -6.41821,-2.63486 z M 646,108.59683 V 93.193663 l 9.5,-0.05813 9.5,-0.05813 v 2.961302 C 665,98.861317 664.79862,99 660.7,99 c -2.365,0 -4.84,0.54 -5.5,1.2 -0.79174,0.79174 -1.2,5.04444 -1.2,12.5 V 124 h -4 -4 z m 26.88805,13.90353 C 669.37078,120.58875 667.625,115.94478 667.625,108.5 c 0,-11.666297 3.53927,-15.5 14.30956,-15.5 5.25382,0 6.45609,0.377237 9.29966,2.917958 3.12961,2.796291 3.27827,3.265375 3.56538,11.250002 0.46269,12.86749 -2.90884,16.87853 -14.1147,16.792 -2.85169,-0.022 -6.36028,-0.67884 -7.79685,-1.4596 z m 13.07677,-6.43462 C 686.53417,115.0019 687,111.59732 687,108.5 687,101.03349 685.82732,99 681.52152,99 676.99599,99 675,101.90759 675,108.5 c 0,6.59241 1.99599,9.5 6.52152,9.5 2.34605,0 3.73071,-0.60277 4.4433,-1.93426 z m 18.34094,5.52239 L 701.5,119.17625 V 99.838125 80.5 l 3.72772,-0.309037 3.72772,-0.309037 0.27228,18.809037 L 709.5,117.5 l 3.25,0.31336 c 2.85772,0.27553 3.25,0.66781 3.25,3.25 0,2.80834 -0.19417,2.93664 -4.44424,2.93664 -3.255,0 -5.19502,-0.64539 -7.25,-2.41187 z"
         id="path4" />
      <path
         style="fill:#026595"
         d="M 91.159221,170.11517 C 83.354085,168.12928 71.462951,162.50799 66.5,158.45804 l -3,-2.44811 6.627555,-0.005 c 4.676005,-0.004 6.994126,0.43672 7.872445,1.49503 1.588619,1.91417 6.048252,1.93074 8.55887,0.0318 1.60951,-1.21737 7.322544,-1.47278 33.44113,-1.49503 l 31.5,-0.0268 -3,2.44995 c -4.37823,3.57547 -13.06564,8.04309 -20.5,10.54242 -9.32059,3.13345 -26.82153,3.66211 -36.840779,1.11287 z M 207.25,123.20619 c -6.95244,-0.28175 -7.25,-0.39462 -7.25,-2.75 C 200,118.03133 200.1139,118 208.92857,118 218.58763,118 221,116.92479 221,112.6197 c 0,-3.5857 -2.04763,-5.2452 -9.44032,-7.65092 -9.69013,-3.15335 -11.7413,-5.432362 -11.35945,-12.621279 0.25601,-4.819995 0.70277,-5.943855 3.06054,-7.698973 3.02267,-2.250067 12.9447,-3.395367 19.21852,-2.218392 2.87442,0.539244 3.52071,1.104207 3.52071,3.077651 0,2.361283 -0.21384,2.423808 -9.25,2.704687 L 207.5,88.5 v 4.5 4.5 l 7.91374,2.69152 c 9.25741,3.14851 11.55209,5.09935 12.24677,10.41173 1.33495,10.20881 -3.64283,13.28246 -20.41051,12.60294 z m 78,0.0188 c -1.2375,-0.20026 -2.25,-0.79865 -2.25,-1.32974 0,-0.59688 -0.73866,-0.57032 -1.93426,0.0696 -1.06384,0.56935 -3.93899,1.03518 -6.38921,1.03518 -8.40312,0 -10.61025,-4.29918 -10.65267,-20.75 L 264,93 h 3.5 3.5 v 10.77749 c 0,14.59871 2.7013,18.39171 9.36514,13.14993 2.55929,-2.01313 2.63486,-2.38601 2.63486,-13 V 93 h 2.94989 2.94989 l 0.30011,14.99066 c 0.18797,9.38907 -0.0736,15.10422 -0.69989,15.29456 -0.55,0.16715 -2.0125,0.14005 -3.25,-0.0602 z M 323,122.24845 c -4.49577,-2.24589 -6.35365,-7.3939 -5.71593,-15.83826 0.80806,-10.699788 5.38704,-14.225046 16.76219,-12.904821 C 339.47354,94.135272 340,94.408752 340,96.598187 340,98.904038 339.72173,99 333.03518,99 324.72053,99 324,99.792225 324,108.93426 c 0,4.84328 0.42645,6.49219 2.11604,8.18178 1.85946,1.85946 2.82947,2.03532 8,1.45034 5.73533,-0.64888 5.88396,-0.60481 5.88396,1.74467 0,2.161 -0.54314,2.47561 -5.25,3.04097 -7.40376,0.88929 -7.84338,0.848 -11.75,-1.10357 z m 30.4449,0.72558 c -1.68031,-0.51161 -4.15531,-2.10132 -5.5,-3.53268 -2.21498,-2.35774 -2.4449,-3.43913 -2.4449,-11.49919 0,-8.389842 0.15797,-9.054673 2.77273,-11.669433 2.45235,-2.452354 3.51183,-2.772727 9.16943,-2.772727 5.34494,0 6.8096,0.387885 8.9078,2.359046 2.91202,2.735702 4.2014,8.560574 2.74366,12.394724 -0.96938,2.54966 -1.36536,2.67654 -9.22276,2.95514 -9.27663,0.32891 -10.44038,1.31248 -6.36952,5.38334 2.45375,2.45375 3.07662,2.60069 8.44797,1.99299 5.27819,-0.59715 5.84668,-0.47338 6.33092,1.37835 0.2926,1.11893 0.23676,2.2149 -0.12411,2.43548 -1.64801,1.00738 -11.96654,1.41066 -14.71122,0.57496 z M 363,103.57143 c 0,-7.183278 -9.83303,-7.456837 -11.55367,-0.32143 l -0.66315,2.75 h 6.10841 C 362.69265,106 363,105.8778 363,103.57143 Z m 110.75,19.64785 c -1.69814,-0.21744 -2.75,-0.95974 -2.75,-1.94069 0,-1.42721 -0.18576,-1.42046 -1.82874,0.0664 -2.09593,1.89679 -9.22946,2.22939 -12.32166,0.5745 -2.91857,-1.56197 -4.84983,-6.99455 -4.84805,-13.63739 0.003,-10.931827 5.03717,-15.923516 14.74845,-14.623824 L 471,94.227088 V 88.113544 82 h 3.5 3.5 v 20.44098 c 0,11.24254 -0.3375,20.59611 -0.75,20.78571 -0.4125,0.1896 -1.9875,0.18627 -3.5,-0.007 z m -4.5,-7.41696 C 470.57118,114.27437 471,111.99399 471,106.4962 471,98.675824 470.54238,98 465.24695,98 460.47366,98 459,100.50014 459,108.59828 c 0,6.39479 0.27208,7.47889 2.21933,8.84279 2.59451,1.81727 5.56679,1.21074 8.03067,-1.63875 z m 23.06291,7.14634 c -6.6578,-2.03309 -9.64949,-10.39834 -7.36675,-20.59868 1.39882,-6.250611 3.77935,-8.339287 10.34843,-9.079717 5.57214,-0.628061 11.39143,1.773707 12.71177,5.246468 1.40281,3.689669 1.23385,10.039019 -0.30104,11.312869 -0.71208,0.59097 -4.64481,1.20857 -8.7394,1.37245 -8.03511,0.32158 -9.41661,1.43978 -6.56931,5.31729 1.23927,1.68767 2.50092,1.9522 8.5289,1.7883 6.88744,-0.18728 7.07449,-0.12779 7.07449,2.25 0,1.71462 -0.55435,2.44236 -1.86043,2.44236 -1.02323,0 -3.83573,0.20743 -6.25,0.46095 -2.41426,0.25353 -5.82376,0.023 -7.57666,-0.51229 z m 10.18458,-17.9446 c 0.33854,-0.54777 0.0243,-2.23527 -0.69837,-3.75 C 499.3008,96.017329 491,97.862816 491,103.65499 c 0,2.17269 0.39983,2.34501 5.44098,2.34501 2.99254,0 5.71797,-0.44817 6.05651,-0.99594 z M 595.25,123.22501 C 593.03339,122.8663 593,122.63933 593,107.93045 V 93 h 2.8 c 1.54,0 3.32093,0.520928 3.95762,1.157618 0.87682,0.876825 1.5337,0.8455 2.70807,-0.129142 2.29318,-1.903173 10.27017,-0.736421 12.89632,1.886277 1.91302,1.910505 2.17288,3.447846 2.46955,14.610207 L 618.16311,123 H 615.08156 612 V 112.72251 C 612,101.00931 610.79368,98 606.09828,98 601.04843,98 600,100.44503 600,112.22175 c 0,11.12427 -0.26134,11.72965 -4.75,11.00326 z M 647,108.32681 V 93 h 2.91667 c 1.60416,0 3.08817,0.514529 3.2978,1.143398 0.28096,0.842903 0.98756,0.818846 2.68863,-0.09154 C 659.24539,92.26312 665,93.524157 665,96.045313 665,97.659114 664.30242,98 661,98 c -6.81994,0 -8,2.12212 -8,14.3865 v 10.3865 l -3,0.44031 -3,0.4403 z m -410.69865,12.90095 c -3.00323,-2.36002 -4.30164,-6.29858 -4.2998,-13.04286 0.002,-8.08883 2.34989,-12.32148 7.78873,-14.042403 5.26377,-1.665526 12.58952,-0.762695 15.22905,1.876838 4.99308,4.993075 4.97221,19.142975 -0.0356,24.150805 -2.55992,2.55992 -3.48109,2.82774 -9.65679,2.80762 -4.92745,-0.016 -7.43866,-0.50295 -9.02557,-1.75 z m 14.13575,-4.26486 c 0.54978,-0.54978 1.1744,-4.09327 1.38806,-7.87444 0.33687,-5.96169 0.10863,-7.15467 -1.71835,-8.98165 -2.52494,-2.524941 -6.75944,-2.731153 -9.27807,-0.451822 C 239.37575,100.96993 239,102.80748 239,108.59828 c 0,6.4149 0.26963,7.48111 2.25,8.89711 2.33768,1.67148 7.26894,1.38567 9.1871,-0.53249 z M 296,108 V 93 h 3.41667 c 1.87916,0 3.58817,0.514529 3.7978,1.143398 0.28096,0.842903 0.98756,0.818846 2.68863,-0.09154 3.38392,-1.811019 9.00991,-0.547119 8.81945,1.981324 C 314.60327,97.616636 313.83621,98 310.7872,98 304.19052,98 303,100.21678 303,112.5 V 123 h -3.5 -3.5 z m 98.8728,13.31629 c -4.63936,-2.87929 -6.25552,-6.96258 -6.6958,-16.91717 -0.82154,-18.575054 5.55795,-24.316101 24.18343,-21.763196 4.06402,0.557036 4.63957,0.935698 4.63957,3.052425 0,2.3881 -0.0997,2.413122 -8.48717,2.129022 -7.3733,-0.24975 -8.7487,-0.02594 -10.47993,1.705289 -3.95484,3.954838 -4.73774,18.03418 -1.3742,24.71285 1.724,3.42318 4.71107,4.19124 13.4507,3.45854 6.71079,-0.56261 6.8906,-0.51701 6.8906,1.7475 0,2.91466 -2.11676,3.53526 -12,3.51819 -5.17386,-0.009 -8.31483,-0.51866 -10.1272,-1.64345 z m 30.87718,0.6036 c -3.12391,-1.81951 -4.75068,-6.49866 -4.73524,-13.62023 0.008,-3.73981 0.57687,-7.92466 1.26391,-9.29966 2.02031,-4.043291 7.31042,-6.207173 13.72135,-5.612615 4.57719,0.424495 5.97733,1.042505 8.34494,3.683382 2.74951,3.066853 2.83337,3.474043 2.5,12.138523 -0.32255,8.38339 -0.52703,9.1218 -3.1507,11.37796 -2.37216,2.03988 -3.84031,2.40805 -9.5,2.38234 -3.68183,-0.0167 -7.48175,-0.48909 -8.44426,-1.0497 z m 12.23834,-4.70935 c 4.6228,-3.74331 3.47352,-17.554554 -1.56602,-18.819398 -4.34865,-1.091442 -7.17145,0.318734 -8.46129,4.226988 C 425.41594,110.32977 428.61212,119 434,119 c 0.97814,0 2.77288,-0.80526 3.98832,-1.78946 z m 96.2015,3.76383 c -4.85321,-2.95893 -6.58991,-7.81372 -6.60882,-18.47437 -0.0263,-14.809902 4.46766,-20.51585 16.13688,-20.488994 2.63017,0.0061 6.46962,0.289932 8.53212,0.630842 3.13785,0.518655 3.75,1.01763 3.75,3.056697 0,2.380794 -0.1668,2.431257 -7.25,2.193327 -8.54149,-0.286914 -10.76409,0.300307 -12.66802,3.346954 -1.9327,3.09267 -2.62411,15.588484 -1.11546,20.159724 1.86893,5.66293 4.71831,6.98959 13.57361,6.31987 7.2865,-0.55108 7.45987,-0.51059 7.45987,1.74206 0,2.85731 -2.12732,3.50885 -11.5,3.52213 -5.27357,0.007 -7.8164,-0.48783 -10.31018,-2.00824 z m 29.81891,-0.81179 c -4.98165,-4.98165 -5.31437,-18.3827 -0.58316,-23.487767 2.92287,-3.153832 10.1314,-4.42373 15.678,-2.761929 5.72359,1.71483 7.39643,4.911766 7.39643,14.135216 0,12.11476 -2.58516,14.9519 -13.62398,14.9519 -5.28974,0 -6.37814,-0.34827 -8.86729,-2.83742 z M 578.75,116.27082 c 0.69323,-0.91677 1.25,-4.46316 1.25,-7.96195 C 580,101.21308 577.97408,98 573.5,98 c -4.51769,0 -6.5,3.20219 -6.5,10.5 0,5.17972 0.4087,6.9087 2.01213,8.51213 2.36096,2.36096 7.69935,1.95457 9.73787,-0.74131 z m 51.56256,5.94352 C 628.06937,120.78799 627,115.85544 627,106.9349 627,98.666667 626.85077,98 625,98 c -1.46667,0 -2,-0.666667 -2,-2.5 0,-1.833333 0.53333,-2.5 2,-2.5 1.61905,0 2,-0.666667 2,-3.5 0,-3.333333 0.16667,-3.5 3.5,-3.5 3.33333,0 3.5,0.166667 3.5,3.5 0,3.416667 0.0952,3.5 4,3.5 3.6,0 4,0.25 4,2.5 0,2.253738 -0.39759,2.5 -4.03621,2.5 h -4.03621 l 0.28621,9.75 0.28621,9.75 3.75,0.31037 c 3.22378,0.26681 3.75,0.6527 3.75,2.75 0,2.27832 -0.34712,2.43862 -5.25,2.42432 -2.8875,-0.008 -5.78435,-0.35508 -6.43744,-0.77035 z m 41.98879,-0.98658 c -3.00323,-2.36002 -4.30164,-6.29858 -4.2998,-13.04286 0.002,-8.08883 2.34989,-12.32148 7.78873,-14.042403 5.66226,-1.791613 12.25253,-0.790279 15.15874,2.303238 5.02206,5.345735 5.02591,18.733185 0.007,23.752255 -2.5282,2.5282 -3.46911,2.79984 -9.62893,2.77977 -4.92745,-0.016 -7.43866,-0.50295 -9.02557,-1.75 z m 14.1674,-4.29651 C 687.03594,116.36406 687.5,112.51122 687.5,108.36939 687.5,100.05925 686.20199,98 680.96386,98 c -4.52686,0 -6.4745,3.27818 -6.38921,10.75402 0.0644,5.64215 0.40361,6.80996 2.46263,8.47725 2.47782,2.00642 7.27772,1.85373 9.43147,-0.30002 z M 704,121 c -1.85965,-1.85965 -2,-3.33333 -2,-21 V 81 h 3 3 v 16.918213 c 0,9.305017 0.26845,17.617777 0.59655,18.472797 0.3281,0.85503 2.1281,1.84191 4,2.19308 2.44456,0.4586 3.40345,1.17062 3.40345,2.5272 0,2.80219 -9.17158,2.71713 -12,-0.11129 z"
         id="path3" />
      <path
         style="fill:#221f20"
         d="m 207.25,123.20619 c -6.95244,-0.28175 -7.25,-0.39462 -7.25,-2.75 C 200,118.03133 200.1139,118 208.92857,118 218.58763,118 221,116.92479 221,112.6197 c 0,-3.5857 -2.04763,-5.2452 -9.44032,-7.65092 -9.69013,-3.15335 -11.7413,-5.432362 -11.35945,-12.621279 0.25601,-4.819995 0.70277,-5.943855 3.06054,-7.698973 3.02267,-2.250067 12.9447,-3.395367 19.21852,-2.218392 2.87442,0.539244 3.52071,1.104207 3.52071,3.077651 0,2.361283 -0.21384,2.423808 -9.25,2.704687 L 207.5,88.5 v 4.5 4.5 l 7.91374,2.69152 c 9.25741,3.14851 11.55209,5.09935 12.24677,10.41173 1.33495,10.20881 -3.64283,13.28246 -20.41051,12.60294 z m 78,0.0188 c -1.2375,-0.20026 -2.25,-0.79865 -2.25,-1.32974 0,-0.59688 -0.73866,-0.57032 -1.93426,0.0696 -1.06384,0.56935 -3.93899,1.03518 -6.38921,1.03518 -8.40312,0 -10.61025,-4.29918 -10.65267,-20.75 L 264,93 h 3.5 3.5 v 10.77749 c 0,14.59871 2.7013,18.39171 9.36514,13.14993 2.55929,-2.01313 2.63486,-2.38601 2.63486,-13 V 93 h 2.94989 2.94989 l 0.30011,14.99066 c 0.18797,9.38907 -0.0736,15.10422 -0.69989,15.29456 -0.55,0.16715 -2.0125,0.14005 -3.25,-0.0602 z M 323,122.24845 c -4.49577,-2.24589 -6.35365,-7.3939 -5.71593,-15.83826 0.80806,-10.699788 5.38704,-14.225046 16.76219,-12.904821 C 339.47354,94.135272 340,94.408752 340,96.598187 340,98.904038 339.72173,99 333.03518,99 324.72053,99 324,99.792225 324,108.93426 c 0,4.84328 0.42645,6.49219 2.11604,8.18178 1.85946,1.85946 2.82947,2.03532 8,1.45034 5.73533,-0.64888 5.88396,-0.60481 5.88396,1.74467 0,2.161 -0.54314,2.47561 -5.25,3.04097 -7.40376,0.88929 -7.84338,0.848 -11.75,-1.10357 z m 30.4449,0.72558 c -1.68031,-0.51161 -4.15531,-2.10132 -5.5,-3.53268 -2.21498,-2.35774 -2.4449,-3.43913 -2.4449,-11.49919 0,-8.389842 0.15797,-9.054673 2.77273,-11.669433 2.45235,-2.452354 3.51183,-2.772727 9.16943,-2.772727 5.34494,0 6.8096,0.387885 8.9078,2.359046 2.91202,2.735702 4.2014,8.560574 2.74366,12.394724 -0.96938,2.54966 -1.36536,2.67654 -9.22276,2.95514 -9.27663,0.32891 -10.44038,1.31248 -6.36952,5.38334 2.45375,2.45375 3.07662,2.60069 8.44797,1.99299 5.27819,-0.59715 5.84668,-0.47338 6.33092,1.37835 0.2926,1.11893 0.23676,2.2149 -0.12411,2.43548 -1.64801,1.00738 -11.96654,1.41066 -14.71122,0.57496 z M 363,103.57143 c 0,-7.183278 -9.83303,-7.456837 -11.55367,-0.32143 l -0.66315,2.75 h 6.10841 C 362.69265,106 363,105.8778 363,103.57143 Z m 110.75,19.64785 c -1.69814,-0.21744 -2.75,-0.95974 -2.75,-1.94069 0,-1.42721 -0.18576,-1.42046 -1.82874,0.0664 -2.09593,1.89679 -9.22946,2.22939 -12.32166,0.5745 -2.91857,-1.56197 -4.84983,-6.99455 -4.84805,-13.63739 0.003,-10.931827 5.03717,-15.923516 14.74845,-14.623824 L 471,94.227088 V 88.113544 82 h 3.5 3.5 v 20.44098 c 0,11.24254 -0.3375,20.59611 -0.75,20.78571 -0.4125,0.1896 -1.9875,0.18627 -3.5,-0.007 z m -4.5,-7.41696 C 470.57118,114.27437 471,111.99399 471,106.4962 471,98.675824 470.54238,98 465.24695,98 460.47366,98 459,100.50014 459,108.59828 c 0,6.39479 0.27208,7.47889 2.21933,8.84279 2.59451,1.81727 5.56679,1.21074 8.03067,-1.63875 z m 23.06291,7.14634 c -6.6578,-2.03309 -9.64949,-10.39834 -7.36675,-20.59868 1.39882,-6.250611 3.77935,-8.339287 10.34843,-9.079717 5.57214,-0.628061 11.39143,1.773707 12.71177,5.246468 1.40281,3.689669 1.23385,10.039019 -0.30104,11.312869 -0.71208,0.59097 -4.64481,1.20857 -8.7394,1.37245 -8.03511,0.32158 -9.41661,1.43978 -6.56931,5.31729 1.23927,1.68767 2.50092,1.9522 8.5289,1.7883 6.88744,-0.18728 7.07449,-0.12779 7.07449,2.25 0,1.71462 -0.55435,2.44236 -1.86043,2.44236 -1.02323,0 -3.83573,0.20743 -6.25,0.46095 -2.41426,0.25353 -5.82376,0.023 -7.57666,-0.51229 z m 10.18458,-17.9446 c 0.33854,-0.54777 0.0243,-2.23527 -0.69837,-3.75 C 499.3008,96.017329 491,97.862816 491,103.65499 c 0,2.17269 0.39983,2.34501 5.44098,2.34501 2.99254,0 5.71797,-0.44817 6.05651,-0.99594 z M 595.25,123.22501 C 593.03339,122.8663 593,122.63933 593,107.93045 V 93 h 2.8 c 1.54,0 3.32093,0.520928 3.95762,1.157618 0.87682,0.876825 1.5337,0.8455 2.70807,-0.129142 2.29318,-1.903173 10.27017,-0.736421 12.89632,1.886277 1.91302,1.910505 2.17288,3.447846 2.46955,14.610207 L 618.16311,123 H 615.08156 612 V 112.72251 C 612,101.00931 610.79368,98 606.09828,98 601.04843,98 600,100.44503 600,112.22175 c 0,11.12427 -0.26134,11.72965 -4.75,11.00326 z M 647,108.32681 V 93 h 2.91667 c 1.60416,0 3.08817,0.514529 3.2978,1.143398 0.28096,0.842903 0.98756,0.818846 2.68863,-0.09154 C 659.24539,92.26312 665,93.524157 665,96.045313 665,97.659114 664.30242,98 661,98 c -6.81994,0 -8,2.12212 -8,14.3865 v 10.3865 l -3,0.44031 -3,0.4403 z m -410.69865,12.90095 c -3.00323,-2.36002 -4.30164,-6.29858 -4.2998,-13.04286 0.002,-8.08883 2.34989,-12.32148 7.78873,-14.042403 5.26377,-1.665526 12.58952,-0.762695 15.22905,1.876838 4.99308,4.993075 4.97221,19.142975 -0.0356,24.150805 -2.55992,2.55992 -3.48109,2.82774 -9.65679,2.80762 -4.92745,-0.016 -7.43866,-0.50295 -9.02557,-1.75 z m 14.13575,-4.26486 c 0.54978,-0.54978 1.1744,-4.09327 1.38806,-7.87444 0.33687,-5.96169 0.10863,-7.15467 -1.71835,-8.98165 -2.52494,-2.524941 -6.75944,-2.731153 -9.27807,-0.451822 C 239.37575,100.96993 239,102.80748 239,108.59828 c 0,6.4149 0.26963,7.48111 2.25,8.89711 2.33768,1.67148 7.26894,1.38567 9.1871,-0.53249 z M 296,108 V 93 h 3.41667 c 1.87916,0 3.58817,0.514529 3.7978,1.143398 0.28096,0.842903 0.98756,0.818846 2.68863,-0.09154 3.38392,-1.811019 9.00991,-0.547119 8.81945,1.981324 C 314.60327,97.616636 313.83621,98 310.7872,98 304.19052,98 303,100.21678 303,112.5 V 123 h -3.5 -3.5 z m 98.8728,13.31629 c -4.63936,-2.87929 -6.25552,-6.96258 -6.6958,-16.91717 -0.82154,-18.575054 5.55795,-24.316101 24.18343,-21.763196 4.06402,0.557036 4.63957,0.935698 4.63957,3.052425 0,2.3881 -0.0997,2.413122 -8.48717,2.129022 -7.3733,-0.24975 -8.7487,-0.02594 -10.47993,1.705289 -3.95484,3.954838 -4.73774,18.03418 -1.3742,24.71285 1.724,3.42318 4.71107,4.19124 13.4507,3.45854 6.71079,-0.56261 6.8906,-0.51701 6.8906,1.7475 0,2.91466 -2.11676,3.53526 -12,3.51819 -5.17386,-0.009 -8.31483,-0.51866 -10.1272,-1.64345 z m 30.87718,0.6036 c -3.12391,-1.81951 -4.75068,-6.49866 -4.73524,-13.62023 0.008,-3.73981 0.57687,-7.92466 1.26391,-9.29966 2.02031,-4.043291 7.31042,-6.207173 13.72135,-5.612615 4.57719,0.424495 5.97733,1.042505 8.34494,3.683382 2.74951,3.066853 2.83337,3.474043 2.5,12.138523 -0.32255,8.38339 -0.52703,9.1218 -3.1507,11.37796 -2.37216,2.03988 -3.84031,2.40805 -9.5,2.38234 -3.68183,-0.0167 -7.48175,-0.48909 -8.44426,-1.0497 z m 12.23834,-4.70935 c 4.6228,-3.74331 3.47352,-17.554554 -1.56602,-18.819398 -4.34865,-1.091442 -7.17145,0.318734 -8.46129,4.226988 C 425.41594,110.32977 428.61212,119 434,119 c 0.97814,0 2.77288,-0.80526 3.98832,-1.78946 z m 96.2015,3.76383 c -4.85321,-2.95893 -6.58991,-7.81372 -6.60882,-18.47437 -0.0263,-14.809902 4.46766,-20.51585 16.13688,-20.488994 2.63017,0.0061 6.46962,0.289932 8.53212,0.630842 3.13785,0.518655 3.75,1.01763 3.75,3.056697 0,2.380794 -0.1668,2.431257 -7.25,2.193327 -8.54149,-0.286914 -10.76409,0.300307 -12.66802,3.346954 -1.9327,3.09267 -2.62411,15.588484 -1.11546,20.159724 1.86893,5.66293 4.71831,6.98959 13.57361,6.31987 7.2865,-0.55108 7.45987,-0.51059 7.45987,1.74206 0,2.85731 -2.12732,3.50885 -11.5,3.52213 -5.27357,0.007 -7.8164,-0.48783 -10.31018,-2.00824 z m 29.81891,-0.81179 c -4.98165,-4.98165 -5.31437,-18.3827 -0.58316,-23.487767 2.92287,-3.153832 10.1314,-4.42373 15.678,-2.761929 5.72359,1.71483 7.39643,4.911766 7.39643,14.135216 0,12.11476 -2.58516,14.9519 -13.62398,14.9519 -5.28974,0 -6.37814,-0.34827 -8.86729,-2.83742 z M 578.75,116.27082 c 0.69323,-0.91677 1.25,-4.46316 1.25,-7.96195 C 580,101.21308 577.97408,98 573.5,98 c -4.51769,0 -6.5,3.20219 -6.5,10.5 0,5.17972 0.4087,6.9087 2.01213,8.51213 2.36096,2.36096 7.69935,1.95457 9.73787,-0.74131 z m 51.56256,5.94352 C 628.06937,120.78799 627,115.85544 627,106.9349 627,98.666667 626.85077,98 625,98 c -1.46667,0 -2,-0.666667 -2,-2.5 0,-1.833333 0.53333,-2.5 2,-2.5 1.61905,0 2,-0.666667 2,-3.5 0,-3.333333 0.16667,-3.5 3.5,-3.5 3.33333,0 3.5,0.166667 3.5,3.5 0,3.416667 0.0952,3.5 4,3.5 3.6,0 4,0.25 4,2.5 0,2.253738 -0.39759,2.5 -4.03621,2.5 h -4.03621 l 0.28621,9.75 0.28621,9.75 3.75,0.31037 c 3.22378,0.26681 3.75,0.6527 3.75,2.75 0,2.27832 -0.34712,2.43862 -5.25,2.42432 -2.8875,-0.008 -5.78435,-0.35508 -6.43744,-0.77035 z m 41.98879,-0.98658 c -3.00323,-2.36002 -4.30164,-6.29858 -4.2998,-13.04286 0.002,-8.08883 2.34989,-12.32148 7.78873,-14.042403 5.66226,-1.791613 12.25253,-0.790279 15.15874,2.303238 5.02206,5.345735 5.02591,18.733185 0.007,23.752255 -2.5282,2.5282 -3.46911,2.79984 -9.62893,2.77977 -4.92745,-0.016 -7.43866,-0.50295 -9.02557,-1.75 z m 14.1674,-4.29651 C 687.03594,116.36406 687.5,112.51122 687.5,108.36939 687.5,100.05925 686.20199,98 680.96386,98 c -4.52686,0 -6.4745,3.27818 -6.38921,10.75402 0.0644,5.64215 0.40361,6.80996 2.46263,8.47725 2.47782,2.00642 7.27772,1.85373 9.43147,-0.30002 z M 704,121 c -1.85965,-1.85965 -2,-3.33333 -2,-21 V 81 h 3 3 v 16.918213 c 0,9.305017 0.26845,17.617777 0.59655,18.472797 0.3281,0.85503 2.1281,1.84191 4,2.19308 2.44456,0.4586 3.40345,1.17062 3.40345,2.5272 0,2.80219 -9.17158,2.71713 -12,-0.11129 z"
         id="path2" />
    </g>
  </g>
</svg>
