<?xml version="1.0" encoding="UTF-8" standalone="no"?>
<svg
   width="166"
   height="24"
   viewBox="0 0 166 24"
   fill="none"
   version="1.1"
   id="svg35"
   sodipodi:docname="sectrend.svg"
   inkscape:version="1.4.3 (0d15f75, 2025-12-25)"
   xmlns:inkscape="http://www.inkscape.org/namespaces/inkscape"
   xmlns:sodipodi="http://sodipodi.sourceforge.net/DTD/sodipodi-0.dtd"
   xmlns="http://www.w3.org/2000/svg"
   xmlns:svg="http://www.w3.org/2000/svg">
  <defs
     id="defs35" />
  <sodipodi:namedview
     id="namedview35"
     pagecolor="#ffffff"
     bordercolor="#000000"
     borderopacity="0.25"
     inkscape:showpageshadow="2"
     inkscape:pageopacity="0.0"
     inkscape:pagecheckerboard="0"
     inkscape:deskcolor="#d1d1d1"
     inkscape:zoom="1.0833333"
     inkscape:cx="82.615385"
     inkscape:cy="11.538462"
     inkscape:current-layer="svg35" />
  <path
     d="M6.54387 4.95001H0.293747C0.131515 4.95001 0 5.08153 0 5.24376V8.84434C0 9.00657 0.131515 9.13809 0.293747 9.13809H6.54387C6.7061 9.13809 6.83762 9.00657 6.83762 8.84434V5.24376C6.83762 5.08153 6.7061 4.95001 6.54387 4.95001Z"
     fill="#E0244E"
     id="path1" />
  <path
     d="M14.2016 4.95001H7.95146C7.78923 4.95001 7.65771 5.08153 7.65771 5.24376V8.84434C7.65771 9.00657 7.78923 9.13809 7.95146 9.13809H14.2016C14.3638 9.13809 14.4953 9.00657 14.4953 8.84434V5.24376C14.4953 5.08153 14.3638 4.95001 14.2016 4.95001Z"
     fill="#E0244E"
     id="path2" />
  <path
     d="M21.8593 4.95001H15.6092C15.4469 4.95001 15.3154 5.08153 15.3154 5.24376V8.84434C15.3154 9.00657 15.4469 9.13809 15.6092 9.13809H21.8593C22.0215 9.13809 22.153 9.00657 22.153 8.84434V5.24376C22.153 5.08153 22.0215 4.95001 21.8593 4.95001Z"
     fill="#E0244E"
     id="path3" />
  <path
     d="M29.5146 4.95001H23.2644C23.1022 4.95001 22.9707 5.08153 22.9707 5.24376V8.84434C22.9707 9.00657 23.1022 9.13809 23.2644 9.13809H29.5146C29.6768 9.13809 29.8083 9.00657 29.8083 8.84434V5.24376C29.8083 5.08153 29.6768 4.95001 29.5146 4.95001Z"
     fill="#E0244E"
     id="path4" />
  <path
     d="M37.1718 4.95001H30.9217C30.7594 4.95001 30.6279 5.08153 30.6279 5.24376V8.84434C30.6279 9.00657 30.7594 9.13809 30.9217 9.13809H37.1718C37.334 9.13809 37.4655 9.00657 37.4655 8.84434V5.24376C37.4655 5.08153 37.334 4.95001 37.1718 4.95001Z"
     fill="#E0244E"
     id="path5" />
  <path
     d="M6.54387 9.90009H0.293747C0.131515 9.90009 0 10.0316 0 10.1938V13.7944C0 13.9566 0.131515 14.0882 0.293747 14.0882H6.54387C6.7061 14.0882 6.83762 13.9566 6.83762 13.7944V10.1938C6.83762 10.0316 6.7061 9.90009 6.54387 9.90009Z"
     fill="#E0244E"
     id="path6" />
  <path
     d="M29.5146 9.90009H23.2644C23.1022 9.90009 22.9707 10.0316 22.9707 10.1938V13.7944C22.9707 13.9566 23.1022 14.0882 23.2644 14.0882H29.5146C29.6768 14.0882 29.8083 13.9566 29.8083 13.7944V10.1938C29.8083 10.0316 29.6768 9.90009 29.5146 9.90009Z"
     fill="#E0244E"
     id="path7" />
  <path
     d="M14.2016 14.8502H7.95146C7.78923 14.8502 7.65771 14.9817 7.65771 15.1439V18.7445C7.65771 18.9067 7.78923 19.0382 7.95146 19.0382H14.2016C14.3638 19.0382 14.4953 18.9067 14.4953 18.7445V15.1439C14.4953 14.9817 14.3638 14.8502 14.2016 14.8502Z"
     fill="#E0244E"
     id="path8" />
  <path
     d="M29.5146 14.8502H23.2644C23.1022 14.8502 22.9707 14.9817 22.9707 15.1439V18.7445C22.9707 18.9067 23.1022 19.0382 23.2644 19.0382H29.5146C29.6768 19.0382 29.8083 18.9067 29.8083 18.7445V15.1439C29.8083 14.9817 29.6768 14.8502 29.5146 14.8502Z"
     fill="#E0244E"
     id="path9" />
  <path
     d="M6.54387 19.7974H0.293747C0.131515 19.7974 0 19.9289 0 20.0911V23.6917C0 23.8539 0.131515 23.9854 0.293747 23.9854H6.54387C6.7061 23.9854 6.83762 23.8539 6.83762 23.6917V20.0911C6.83762 19.9289 6.7061 19.7974 6.54387 19.7974Z"
     fill="#E0244E"
     id="path10" />
  <path
     d="M14.2016 19.7974H7.95146C7.78923 19.7974 7.65771 19.9289 7.65771 20.0911V23.6917C7.65771 23.8539 7.78923 23.9854 7.95146 23.9854H14.2016C14.3638 23.9854 14.4953 23.8539 14.4953 23.6917V20.0911C14.4953 19.9289 14.3638 19.7974 14.2016 19.7974Z"
     fill="#E0244E"
     id="path11" />
  <path
     d="M29.5146 19.7974H23.2644C23.1022 19.7974 22.9707 19.9289 22.9707 20.0911V23.6917C22.9707 23.8539 23.1022 23.9854 23.2644 23.9854H29.5146C29.6768 23.9854 29.8083 23.8539 29.8083 23.6917V20.0911C29.8083 19.9289 29.6768 19.7974 29.5146 19.7974Z"
     fill="#E0244E"
     id="path12" />
  <path
     d="M6.54387 0H0.293747C0.131515 0 0 0.131515 0 0.293747V3.89433C0 4.05656 0.131515 4.18808 0.293747 4.18808H6.54387C6.7061 4.18808 6.83762 4.05656 6.83762 3.89433V0.293747C6.83762 0.131515 6.7061 0 6.54387 0Z"
     fill="#7CCADB"
     id="path13" />
  <path
     d="M21.8593 -6.10352e-05H15.6092C15.4469 -6.10352e-05 15.3154 0.131454 15.3154 0.293686V3.89427C15.3154 4.0565 15.4469 4.18801 15.6092 4.18801H21.8593C22.0215 4.18801 22.153 4.0565 22.153 3.89427V0.293686C22.153 0.131454 22.0215 -6.10352e-05 21.8593 -6.10352e-05Z"
     fill="#7CCADB"
     id="path14" />
  <path
     d="M37.1718 -6.10352e-05H30.9217C30.7594 -6.10352e-05 30.6279 0.131454 30.6279 0.293686V3.89427C30.6279 4.0565 30.7594 4.18801 30.9217 4.18801H37.1718C37.334 4.18801 37.4655 4.0565 37.4655 3.89427V0.293686C37.4655 0.131454 37.334 -6.10352e-05 37.1718 -6.10352e-05Z"
     fill="#7CCADB"
     id="path15" />
  <path
     d="M14.2016 9.90009H7.95146C7.78923 9.90009 7.65771 10.0316 7.65771 10.1938V13.7944C7.65771 13.9566 7.78923 14.0882 7.95146 14.0882H14.2016C14.3638 14.0882 14.4953 13.9566 14.4953 13.7944V10.1938C14.4953 10.0316 14.3638 9.90009 14.2016 9.90009Z"
     fill="#7CCADB"
     id="path16" />
  <path
     d="M21.8593 9.90009H15.6092C15.4469 9.90009 15.3154 10.0316 15.3154 10.1938V13.7944C15.3154 13.9566 15.4469 14.0882 15.6092 14.0882H21.8593C22.0215 14.0882 22.153 13.9566 22.153 13.7944V10.1938C22.153 10.0316 22.0215 9.90009 21.8593 9.90009Z"
     fill="#7CCADB"
     id="path17" />
  <path
     d="M37.1718 9.90009H30.9217C30.7594 9.90009 30.6279 10.0316 30.6279 10.1938V13.7944C30.6279 13.9566 30.7594 14.0882 30.9217 14.0882H37.1718C37.334 14.0882 37.4655 13.9566 37.4655 13.7944V10.1938C37.4655 10.0316 37.334 9.90009 37.1718 9.90009Z"
     fill="#7CCADB"
     id="path18" />
  <path
     d="M6.54387 14.8502H0.293747C0.131515 14.8502 0 14.9817 0 15.1439V18.7445C0 18.9067 0.131515 19.0382 0.293747 19.0382H6.54387C6.7061 19.0382 6.83762 18.9067 6.83762 18.7445V15.1439C6.83762 14.9817 6.7061 14.8502 6.54387 14.8502Z"
     fill="#7CCADB"
     id="path19" />
  <path
     d="M21.8593 14.8502H15.6092C15.4469 14.8502 15.3154 14.9817 15.3154 15.1439V18.7445C15.3154 18.9067 15.4469 19.0382 15.6092 19.0382H21.8593C22.0215 19.0382 22.153 18.9067 22.153 18.7445V15.1439C22.153 14.9817 22.0215 14.8502 21.8593 14.8502Z"
     fill="#7CCADB"
     id="path20" />
  <path
     d="M37.1718 14.8502H30.9217C30.7594 14.8502 30.6279 14.9817 30.6279 15.1439V18.7445C30.6279 18.9067 30.7594 19.0382 30.9217 19.0382H37.1718C37.334 19.0382 37.4655 18.9067 37.4655 18.7445V15.1439C37.4655 14.9817 37.334 14.8502 37.1718 14.8502Z"
     fill="#7CCADB"
     id="path21" />
  <path
     d="M21.8593 19.7973H15.6092C15.4469 19.7973 15.3154 19.9288 15.3154 20.091V23.6916C15.3154 23.8539 15.4469 23.9854 15.6092 23.9854H21.8593C22.0215 23.9854 22.153 23.8539 22.153 23.6916V20.091C22.153 19.9288 22.0215 19.7973 21.8593 19.7973Z"
     fill="#7CCADB"
     id="path22" />
  <path
     d="M37.1718 19.7973H30.9217C30.7594 19.7973 30.6279 19.9288 30.6279 20.091V23.6916C30.6279 23.8539 30.7594 23.9854 30.9217 23.9854H37.1718C37.334 23.9854 37.4655 23.8539 37.4655 23.6916V20.091C37.4655 19.9288 37.334 19.7973 37.1718 19.7973Z"
     fill="#7CCADB"
     id="path23" />
  <path
     d="M49.0654 10.3887H46.3315C45.5376 10.3887 44.889 9.74301 44.889 8.94612V7.3465C44.889 6.55251 45.5347 5.90394 46.3315 5.90394H53.3873V2.48077H46.3315C43.65 2.48077 41.4658 4.66206 41.4658 7.3465V8.94612C41.4658 11.6276 43.6471 13.8118 46.3315 13.8118H49.0654C49.8594 13.8118 50.508 14.4575 50.508 15.2544V16.6766C50.508 17.4706 49.8623 18.1192 49.0654 18.1192H41.4658V21.5423H49.0654C51.747 21.5423 53.9312 19.361 53.9312 16.6766V15.2544C53.9312 12.5729 51.7499 10.3887 49.0654 10.3887Z"
     fill="white"
     id="path24"
     style="fill:#000000" />
  <path
     d="M117.002 8.94599V7.34638C117.002 4.66485 114.821 2.48065 112.137 2.48065H104.537V5.90382H112.137C112.931 5.90382 113.579 6.54948 113.579 7.34638V8.94599C113.579 9.73998 112.934 10.3886 112.137 10.3886H104.537V21.5422H107.96V13.8117H110.176L114.234 21.4986H118.105L113.873 13.4831C115.697 12.7822 116.997 11.0139 116.997 8.94599H117.002Z"
     fill="white"
     id="path25"
     style="fill:#000000" />
  <path
     d="M73.2773 7.34638V16.6765C73.2773 19.358 75.4586 21.5422 78.1431 21.5422H85.7427V18.119H78.1431C77.3491 18.119 76.7005 17.4734 76.7005 16.6765V7.34638C76.7005 6.55239 77.3462 5.90382 78.1431 5.90382H85.7427V2.48065H78.1431C75.4615 2.48065 73.2773 4.66194 73.2773 7.34638Z"
     fill="white"
     id="path26"
     style="fill:#000000" />
  <path
     d="M160.407 2.48065H152.807V5.90382H160.407C161.201 5.90382 161.849 6.54948 161.849 7.34638V16.6765C161.849 17.4705 161.204 18.119 160.407 18.119H152.807V21.5422H160.407C163.088 21.5422 165.272 19.3609 165.272 16.6765V7.34638C165.272 4.66485 163.091 2.48065 160.407 2.48065Z"
     fill="white"
     id="path27"
     style="fill:#000000" />
  <path
     d="M69.7027 18.0551H57.3711V21.4404H69.7027V18.0551Z"
     fill="white"
     id="path28"
     style="fill:#000000" />
  <path
     d="M69.8335 10.3886H57.3711V13.8118H69.8335V10.3886Z"
     fill="white"
     id="path29"
     style="fill:#000000" />
  <path
     d="M69.7027 2.58246H57.3711V5.96782H69.7027V2.58246Z"
     fill="white"
     id="path30"
     style="fill:#000000" />
  <path
     d="M133.458 18.119H120.995V21.5422H133.458V18.119Z"
     fill="white"
     id="path31"
     style="fill:#000000" />
  <path
     d="M133.458 10.3885H120.995V13.8117H133.458V10.3885Z"
     fill="white"
     id="path32"
     style="fill:#000000" />
  <path
     d="M133.458 2.48059H120.995V5.90376H133.458V2.48059Z"
     fill="white"
     id="path33"
     style="fill:#000000" />
  <path
     d="M89.1836 2.48065V5.90382H93.7061V21.5422H97.1264V5.90382H101.649V2.48065H89.1836Z"
     fill="white"
     id="path34"
     style="fill:#000000" />
  <path
     d="M146.025 13.5529L139.51 2.48358H136.82V20.8559V21.5393H139.9H140.243V21.4986V20.8151V10.4729L146.735 21.4986H149.448V2.48358H146.025V13.5529Z"
     fill="white"
     id="path35"
     style="fill:#000000" />
</svg>
