<?xml version="1.0" encoding="UTF-8" standalone="no"?>
<!-- Created with Inkscape (http://www.inkscape.org/) -->

<svg
   version="1.1"
   id="svg1"
   width="562.9165"
   height="157.67818"
   viewBox="0 0 562.9165 157.67818"
   sodipodi:docname="sector7g.svg"
   inkscape:version="1.4.3 (0d15f75, 2025-12-25)"
   xmlns:inkscape="http://www.inkscape.org/namespaces/inkscape"
   xmlns:sodipodi="http://sodipodi.sourceforge.net/DTD/sodipodi-0.dtd"
   xmlns="http://www.w3.org/2000/svg"
   xmlns:svg="http://www.w3.org/2000/svg">
  <defs
     id="defs1" />
  <sodipodi:namedview
     id="namedview1"
     pagecolor="#ffffff"
     bordercolor="#000000"
     borderopacity="0.25"
     inkscape:showpageshadow="2"
     inkscape:pageopacity="0.0"
     inkscape:pagecheckerboard="0"
     inkscape:deskcolor="#d1d1d1"
     inkscape:zoom="0.26666667"
     inkscape:cx="286.875"
     inkscape:cy="76.875"
     inkscape:current-layer="g1" />
  <g
     inkscape:groupmode="layer"
     inkscape:label="Image"
     id="g1"
     transform="translate(-3,-10.202704)">
    <path
       style="fill:#000000"
       d="m 471.96517,166.50882 c -27.12096,-5.40877 -49.58466,-24.643 -59.0405,-50.55262 -10.53041,-28.854015 -3.40973,-60.646046 18.48788,-82.543654 44.88612,-44.886119 121.20031,-21.204864 133.16375,41.322388 7.02891,36.736776 -14.20825,74.654436 -49.2069,87.855956 -13.91393,5.24834 -29.62299,6.66634 -43.40423,3.91793 z M 457.09105,97.249957 C 466.21612,86.937481 475.04324,76.925 476.70687,75 c 2.40276,-2.780262 3.1207,-4.682426 3.49123,-9.25 L 480.66455,60 H 449.33227 418 v 2.983928 2.983928 l 27.25,0.266072 c 19.36949,0.189126 27.25,0.591587 27.25,1.391668 0,0.619078 -8.55,10.725406 -19,22.458506 -10.45,11.733098 -19.82016,22.364078 -20.82258,23.624408 L 430.85484,116 l 4.82258,-4e-5 4.82258,-5e-5 z m 92.08168,16.416503 c 5.04948,-2.50363 6.6569,-6.44111 7.02263,-17.202436 L 556.5,87.5 538.25,87.227441 520,86.954883 V 90.477441 94 h 14.5 14.5 v 2.875 c 0,6.55096 -1.18317,9.30359 -4.61542,10.73767 -4.1487,1.73344 -38.42512,1.96636 -43.22326,0.29372 -4.48044,-1.56189 -5.39451,-5.61265 -4.99405,-22.131471 0.4647,-19.16865 -0.81795,-18.179179 24.10811,-18.597746 25.4081,-0.426661 26.70083,-0.04163 27.944,8.322827 0.2261,1.521273 1.19288,2.07429 4.03894,2.310365 3.72244,0.30877 3.74166,0.290776 3.73794,-3.5 -0.005,-4.79523 -2.93469,-9.681972 -7.20204,-12.011816 C 545.89337,60.714767 542.75354,60.5 522.5,60.5 c -21.28792,0 -23.26053,0.150948 -26.5,2.027836 -6.24819,3.620087 -7.5,7.788148 -7.5,24.972164 0,16.1081 0.90863,20.65635 4.8701,24.37797 3.52487,3.31144 9.29963,4.00499 31.6299,3.79879 17.56587,-0.1622 21.02567,-0.44993 24.17273,-2.0103 z M 13.5,115.38037 C 5.6592441,113.44939 3,110.19987 3,102.54966 3,98.016715 3.0128588,98 6.5,98 c 3.3931532,0 3.5,0.117379 3.5,3.84501 0,6.61239 1.878466,7.45188 17.780238,7.94608 15.959906,0.49601 24.885256,-0.76984 27.469762,-3.89594 2.335684,-2.82513 2.258332,-9.045818 -0.149456,-12.019311 C 53.243372,91.582329 52.732981,91.518645 32.173083,91.015055 12.837783,90.541461 10.917871,90.331245 8.3225392,88.403601 4.3566005,85.457959 3.0294836,82.34803 3.0294836,76 c 0,-7.370186 1.527653,-10.028568 7.4705164,-13 4.777778,-2.388889 5.8,-2.5 23,-2.5 23.667323,0 27.371074,1.560358 29.077266,12.25 L 63.255616,77 H 59.188173 C 55.211337,77 55.113817,76.916623 54.810365,73.257103 54.32593,67.414986 51.493753,66.497216 34,66.513484 c -20.073328,0.01867 -24,1.610548 -24,9.729645 0,7.459237 3.555099,8.570676 28,8.753702 17.757534,0.132956 21.544877,1.03173 24.300618,5.766779 2.530536,4.348089 2.583924,13.93039 0.101033,18.1336 -3.180705,5.3845 -7.592359,6.428 -28.401651,6.71794 -10.175,0.14177 -19.4,0.0361 -20.5,-0.23478 z M 71,88 V 60 H 98.5 126 V 63.5 67 H 102.5 79 v 8.5 8.5 h 22.5 22.5 v 3 3 H 101.5 79 v 9.5 9.5 h 23.5 23.5 v 3.5 3.5 H 98.5 71 Z m 72.22967,27.09864 C 132.95465,113.32171 130.76715,108.55125 130.80356,88 c 0.0386,-21.797119 1.84127,-25.143095 14.61742,-27.132159 10.24601,-1.595155 38.11868,-0.686242 42.86501,1.397805 C 192.65268,64.182998 195,68.623899 195,74.967881 195,78.90935 194.92131,79 191.5,79 188.10685,79 188,78.882621 188,75.154988 188,68.186516 186.33455,67.549294 167.14801,67.176726 138.04519,66.611602 138.5,66.289621 138.5,87.458042 c 0,7.723077 0.32671,15.202308 0.72602,16.620518 1.21227,4.30551 4.30282,4.92267 24.57103,4.9067 22.43994,-0.0177 23.56263,-0.35715 24.00774,-7.2591 L 188.10958,97 h 4.03905 4.03905 l -0.7181,5.25 c -1.72463,12.60885 -2.90592,13.16504 -28.46958,13.40449 -10.725,0.10046 -21.42165,-0.14968 -23.77033,-0.55585 z M 226,91.5 V 67 H 212 198 V 63.5 60 H 229.5 261 V 63.5 67 H 247 233 V 91.5 116 h -3.5 -3.5 z m 50.1228,23.53883 C 266.4242,112.63152 264.75282,108.18848 265.18121,85.952589 265.6742,60.363005 265.48679,60.5 300,60.5 c 34.09639,0 33.5,-0.491935 33.5,27.63269 0,17.4219 -0.14499,18.91652 -2.08993,21.54398 -4.00778,5.41417 -5.96027,5.80662 -29.91007,6.01187 -12.1,0.1037 -23.51974,-0.18867 -25.3772,-0.64971 z m 43.48991,-6.59594 c 6.26548,-0.97021 6.88729,-2.82256 6.88729,-20.516934 0,-21.613249 1.44711,-20.323389 -23.27532,-20.746165 -23.02933,-0.393823 -26.67926,0.05815 -28.99364,3.590346 -1.45042,2.21363 -1.73104,5.116685 -1.73104,17.908106 0,19.393397 0.0619,19.485247 13.76447,20.435867 9.1142,0.6323 27.2932,0.2664 33.34824,-0.67122 z M 342,87.916481 v -28.08352 l 27.25,0.337702 c 30.43365,0.377157 32.03994,0.70589 35.11516,7.186415 2.51161,5.292837 2.22789,16.61926 -0.50328,20.09138 -1.17596,1.494997 -3.08846,3.079111 -4.25,3.520253 -2.05119,0.779027 -2.03602,0.837275 0.52785,2.026955 C 403.92753,94.753269 405,97.964185 405,107.54705 V 116 h -3.39738 -3.39739 l -0.35271,-8.58843 C 397.54533,99.931386 397.20763,98.586548 395.23551,96.989624 392.23813,94.562492 384.1198,93.811219 365,94.191619 L 349.5,94.5 349.21617,105.25 348.93234,116 H 345.46617 342 Z m 53.77674,-2.212457 c 4.0615,-3.679655 3.53825,-15.39471 -0.79108,-17.711701 C 393.9198,67.421893 383.75009,67 371.06574,67 H 349 v 10.56874 10.56874 l 22.3972,-0.31874 c 19.8713,-0.282793 22.62075,-0.521285 24.37954,-2.114716 z"
       id="path1" />
  </g>
</svg>
