<?xml version="1.0" encoding="UTF-8"?>
<svg id="Layer_2" data-name="Layer 2" xmlns="http://www.w3.org/2000/svg" viewBox="0 0 572.72 216.02">
  <defs>
    <style>
      .cls-1 {
        fill: #455793;
      }

      .cls-2 {
        fill: #445793;
      }

      .cls-3 {
        fill: #414a5b;
      }
    </style>
  </defs>
  <g id="Layer_1-2" data-name="Layer 1">
    <g>
      <g>
        <path class="cls-3" d="M0,134.58l.18-24.75,1.38,.06c1.68,6.3,3.68,11.26,5.99,14.89,4.35,6.7,9.83,10.04,16.42,10.04,4.59,0,8.39-1.54,11.39-4.61,3-3.08,4.49-6.97,4.49-11.69,0-2.04-.33-4.11-.99-6.23-.66-2.12-1.55-3.93-2.67-5.45-1.16-1.56-2.79-3.06-4.88-4.49s-5.3-3.26-9.62-5.45c-3.8-1.92-6.7-3.54-8.72-4.85-2.02-1.32-3.65-2.66-4.88-4.02-3.44-3.76-5.15-8.33-5.15-13.72,0-3.32,.67-6.51,2.01-9.59,1.34-3.08,3.21-5.71,5.6-7.91,4.23-3.91,9.25-5.87,15.04-5.87,1.88,0,3.62,.19,5.21,.57,1.6,.38,3.73,1.13,6.41,2.25,2,.8,3.36,1.31,4.08,1.53,.72,.22,1.36,.33,1.92,.33,1.4,0,2.34-1.02,2.82-3.06h1.38l.42,23.79h-1.38c-1.08-3.79-2.01-6.7-2.78-8.72-.78-2.02-1.71-3.88-2.78-5.6-1.95-3.12-4.11-5.42-6.46-6.92-2.35-1.5-5.06-2.25-8.13-2.25-4.47,0-8,1.52-10.59,4.56-1.08,1.24-1.92,2.7-2.54,4.38-.62,1.68-.93,3.36-.93,5.04,0,6.68,4.29,12.06,12.87,16.14l8.44,4.08c6.5,3.08,11.19,6.48,14.06,10.2,3.27,4.16,4.91,9,4.91,14.52,0,3.67-.74,7.17-2.22,10.52-2.08,4.66-5.19,8.26-9.35,10.79-4.16,2.53-9.05,3.8-14.68,3.8-5.15,0-10.11-1.02-14.86-3.06-2.48-1.08-3.96-1.7-4.43-1.86-.48-.16-1.02-.24-1.62-.24-1.92,0-3.24,.96-3.96,2.88H0Z"/>
        <path class="cls-3" d="M71.91,102.22c-.16,1.96-.24,3.38-.24,4.25,0,3.48,.51,6.87,1.52,10.19,1.01,3.32,2.4,6.07,4.15,8.27,1.79,2.24,4.01,4,6.66,5.27,2.65,1.28,5.43,1.92,8.33,1.92,2.15,0,4.19-.36,6.12-1.08,1.93-.72,3.53-1.72,4.81-3,1.43-1.4,2.67-3.64,3.7-6.71l1.26,.42c-1.04,4.67-3.27,8.2-6.68,10.58-3.42,2.38-7.96,3.57-13.63,3.57-4.91,0-9.13-.78-12.64-2.34-3.52-1.56-6.49-3.96-8.93-7.19-3.4-4.51-5.09-10.07-5.09-16.66,0-8.99,3.22-16.04,9.65-21.15,4.67-3.72,10.01-5.57,16-5.57,3.2,0,6.15,.57,8.87,1.71,2.72,1.14,5.01,2.79,6.89,4.94,2.92,3.36,4.37,7.55,4.37,12.58h-35.12Zm26.13-2.34c-.28-3.99-1.01-7.07-2.21-9.23-1.07-1.96-2.51-3.51-4.3-4.64-1.79-1.14-3.7-1.71-5.73-1.71-3.42,0-6.41,1.48-8.98,4.43-2.57,2.96-4.09,6.67-4.56,11.15h25.77Z"/>
        <path class="cls-3" d="M175.65,134.94c2.36,1.57,5,2.81,7.94,3.7,2.94,.89,5.88,1.34,8.84,1.34,2.52,0,4.9-.29,7.16-.88,2.26-.59,4.06-1.39,5.42-2.41,1.2-.89,2.15-1.94,2.85-3.14,.7-1.2,1.33-2.85,1.89-4.96l.96,.12c-.16,2.94-.65,5.43-1.47,7.47-.82,2.03-2.13,4-3.93,5.89-4.75,5-11.63,7.5-20.62,7.5-5.23,0-9.63-.95-13.18-2.86-3.2-1.74-6.61-4.88-10.25-9.42l-.36-.43c-3.52,0-7.16-.55-10.94-1.65-3.78-1.1-7.32-2.65-10.64-4.65-6.55-3.92-11.64-9.05-15.25-15.41-3.62-6.36-5.42-13.27-5.42-20.75,0-6.68,1.44-12.88,4.31-18.62s7.07-10.74,12.58-15.02c4.03-3.16,8.45-5.59,13.24-7.29,4.79-1.7,9.61-2.55,14.44-2.55,5.67,0,11.19,1.14,16.54,3.42,4.08,1.8,7.88,4.21,11.42,7.23,3.54,3.02,6.52,6.43,8.96,10.22,4.31,6.72,6.47,14.03,6.47,21.95,0,5.08-.91,9.98-2.73,14.72-1.82,4.74-4.45,9.09-7.88,13.04-2.84,3.28-5.83,5.96-8.99,8.04-3.16,2.08-6.95,3.88-11.39,5.4Zm-33.44-10.43c2.92-.84,5.81-1.26,8.69-1.26,3.56,0,6.97,.7,10.25,2.1,1.4,.6,2.84,1.38,4.31,2.34,1.48,.96,3.88,2.64,7.19,5.03l.54,.42c2.6-1.4,4.84-3.04,6.74-4.92,1.9-1.88,3.75-4.34,5.54-7.38,4.43-7.32,6.65-15.87,6.65-25.67,0-6.4-.87-12.49-2.61-18.29-1.74-5.8-4.19-10.67-7.34-14.63-2.56-3.24-5.4-5.62-8.54-7.14-3.14-1.52-6.8-2.28-11-2.28s-7.92,.75-11.06,2.25c-3.14,1.5-5.98,3.89-8.54,7.17-3.12,3.96-5.54,8.83-7.28,14.61-1.74,5.78-2.61,11.87-2.61,18.26,0,5.92,.72,11.21,2.16,15.86,1.44,4.66,3.73,9.17,6.89,13.52Zm17.32,10.67l-.42-.48c-2.8-3.36-5.17-5.71-7.13-7.07-1.96-1.36-3.96-2.04-5.99-2.04-.76,0-1.6,.16-2.52,.48,2.52,2.92,4.98,5.05,7.4,6.41,2.42,1.36,5.3,2.26,8.66,2.7Z"/>
        <path class="cls-3" d="M257.09,135.9c-.52-2.43-.78-4.93-.78-7.48-4.99,4.99-10.91,7.48-17.74,7.48-4.99,0-9.01-1.22-12.05-3.65-2.96-2.39-4.43-5.79-4.43-10.18v-20.83l-.06-4.55c0-2.71-.16-4.69-.48-5.93-.32-1.24-.92-2.29-1.8-3.17-1.16-1.08-3.24-1.88-6.23-2.39v-1.32h17.62v30.38c0,4.28,.15,7.44,.45,9.5,.3,2.06,.85,3.75,1.64,5.06,.88,1.36,2.13,2.43,3.77,3.21,1.63,.78,3.47,1.17,5.5,1.17,2.23,0,4.32-.44,6.28-1.32,1.95-.88,3.49-2.07,4.6-3.59,1.16-1.56,1.92-3.35,2.3-5.39,.38-2.03,.57-5.39,.57-10.06v-11.73l-.06-4.43c0-2.71-.15-4.69-.45-5.93-.3-1.24-.91-2.29-1.83-3.17-1.12-1.08-3.2-1.88-6.23-2.39v-1.32h17.62v32.5c0,4.11,.11,6.99,.33,8.65,.22,1.66,.65,3,1.29,4.04,.72,1.12,1.56,1.93,2.52,2.42,.96,.5,2.34,.81,4.13,.93v1.26l-16.48,2.22Z"/>
        <path class="cls-3" d="M289.45,102.22c-.16,1.96-.24,3.38-.24,4.25,0,3.48,.51,6.87,1.52,10.19,1.01,3.32,2.4,6.07,4.15,8.27,1.79,2.24,4.01,4,6.66,5.27,2.65,1.28,5.43,1.92,8.33,1.92,2.15,0,4.19-.36,6.12-1.08,1.93-.72,3.53-1.72,4.81-3,1.43-1.4,2.67-3.64,3.7-6.71l1.26,.42c-1.04,4.67-3.27,8.2-6.68,10.58-3.42,2.38-7.96,3.57-13.63,3.57-4.91,0-9.13-.78-12.64-2.34-3.52-1.56-6.49-3.96-8.93-7.19-3.4-4.51-5.09-10.07-5.09-16.66,0-8.99,3.22-16.04,9.65-21.15,4.67-3.72,10.01-5.57,16-5.57,3.2,0,6.15,.57,8.87,1.71,2.72,1.14,5.01,2.79,6.89,4.94,2.92,3.36,4.37,7.55,4.37,12.58h-35.12Zm26.13-2.34c-.28-3.99-1.01-7.07-2.21-9.23-1.07-1.96-2.51-3.51-4.3-4.64-1.79-1.14-3.7-1.71-5.73-1.71-3.42,0-6.41,1.48-8.98,4.43-2.57,2.96-4.09,6.67-4.56,11.15h25.77Z"/>
        <path class="cls-3" d="M349.13,82.99c.56,2.33,.84,4.5,.84,6.51v.96c4.95-4.98,10.85-7.47,17.68-7.47,5.11,0,9.23,1.2,12.35,3.59,3.08,2.35,4.61,5.71,4.61,10.06v25.38c0,2.71,.16,4.7,.48,5.96,.32,1.26,.94,2.31,1.86,3.14,1.12,1.08,3.18,1.9,6.17,2.45v1.26h-26.49v-1.26c2.4-.32,4.11-.77,5.15-1.35,1.04-.58,1.88-1.57,2.52-2.96,.44-.92,.75-2.3,.93-4.16,.18-1.86,.27-4.52,.27-7.99v-12.69c0-4.35-.15-7.54-.45-9.58-.3-2.03-.87-3.67-1.7-4.91-.92-1.4-2.23-2.48-3.95-3.26s-3.61-1.17-5.68-1.17c-2.23,0-4.31,.44-6.25,1.32-1.93,.88-3.46,2.07-4.57,3.59-1.2,1.6-1.98,3.4-2.36,5.42-.38,2.01-.57,5.36-.57,10.03v11.73l.06,4.43c0,2.71,.16,4.7,.48,5.96,.32,1.26,.94,2.3,1.86,3.14,1.12,1.08,3.18,1.9,6.17,2.45v1.26h-26.49v-1.26c2.4-.32,4.11-.76,5.15-1.34,1.04-.58,1.88-1.56,2.52-2.95,.44-.91,.75-2.3,.93-4.14,.18-1.85,.27-4.52,.27-8.02v-14.73c0-4.09-.1-6.97-.3-8.61-.2-1.65-.64-2.99-1.32-4.02-.68-1.11-1.5-1.92-2.46-2.41-.96-.5-2.34-.8-4.13-.92v-1.26l16.42-2.16Z"/>
      </g>
      <g>
        <path class="cls-1" d="M9.44,156.89v5.17h-.41c-.14-.99-.37-1.78-.71-2.37s-.83-1.06-1.46-1.4-1.29-.52-1.97-.52c-.76,0-1.39,.23-1.89,.7s-.75,1-.75,1.6c0,.45,.16,.87,.48,1.24,.45,.55,1.54,1.29,3.25,2.21,1.39,.75,2.34,1.33,2.85,1.73s.91,.87,1.18,1.42,.42,1.11,.42,1.7c0,1.13-.44,2.11-1.32,2.93s-2.01,1.23-3.39,1.23c-.44,0-.84-.03-1.23-.1-.23-.05-.7-.18-1.42-.42s-1.17-.35-1.36-.35-.33,.06-.44,.17-.19,.34-.23,.69h-.41v-5.13h.41c.19,1.07,.45,1.87,.77,2.41s.81,.98,1.48,1.33,1.39,.53,2.19,.53c.92,0,1.64-.24,2.18-.73s.8-1.06,.8-1.72c0-.37-.1-.74-.31-1.12s-.52-.72-.95-1.05c-.28-.22-1.06-.69-2.34-1.4s-2.19-1.29-2.73-1.72-.95-.9-1.23-1.42-.42-1.08-.42-1.7c0-1.07,.41-1.99,1.23-2.77s1.87-1.16,3.15-1.16c.79,0,1.63,.2,2.52,.59,.41,.18,.7,.27,.87,.27,.19,0,.35-.06,.47-.17s.22-.34,.29-.69h.41Z"/>
        <path class="cls-1" d="M17.06,161.79c1.52,0,2.75,.58,3.68,1.74,.79,.99,1.18,2.13,1.18,3.42,0,.91-.22,1.82-.65,2.75s-1.03,1.62-1.79,2.09-1.6,.7-2.54,.7c-1.52,0-2.74-.6-3.63-1.81-.75-1.03-1.13-2.17-1.13-3.44,0-.93,.23-1.85,.69-2.76s1.06-1.59,1.81-2.03,1.55-.65,2.39-.65Zm-.34,.72c-.39,0-.78,.12-1.18,.35s-.71,.64-.95,1.22-.36,1.33-.36,2.23c0,1.47,.29,2.74,.87,3.81s1.35,1.6,2.31,1.6c.71,0,1.29-.29,1.76-.88s.69-1.6,.69-3.04c0-1.79-.39-3.2-1.16-4.23-.52-.7-1.18-1.05-1.99-1.05Z"/>
        <path class="cls-1" d="M27.05,162.88v6.64c0,.93,.1,1.53,.31,1.78,.26,.33,.63,.49,1.09,.49h.91v.39h-6.03v-.39h.45c.29,0,.56-.07,.8-.22s.41-.35,.5-.6,.14-.73,.14-1.45v-6.64h-1.96v-.79h1.96v-.67c0-1.01,.16-1.86,.48-2.56s.82-1.26,1.48-1.69,1.42-.64,2.25-.64c.77,0,1.48,.25,2.12,.75,.43,.33,.64,.69,.64,1.1,0,.23-.1,.44-.29,.63s-.4,.29-.63,.29c-.16,0-.34-.06-.52-.18s-.42-.38-.69-.78-.52-.67-.75-.82c-.24-.14-.49-.2-.76-.2-.34,0-.63,.09-.86,.27s-.4,.46-.5,.84-.16,1.35-.16,2.92v.74h2.6v.79h-2.6Z"/>
        <path class="cls-1" d="M32.37,158.77v3.32h2.36v.76h-2.36v6.56c0,.65,.09,1.09,.28,1.32s.43,.34,.73,.34c.25,0,.48-.07,.71-.22s.4-.37,.53-.67h.42c-.25,.73-.62,1.27-1.09,1.63s-.96,.54-1.46,.54c-.34,0-.67-.09-.99-.28s-.57-.45-.72-.8-.23-.89-.23-1.63v-6.79h-1.59v-.35c.41-.16,.82-.44,1.25-.82s.8-.84,1.12-1.37c.17-.28,.41-.79,.71-1.54h.34Z"/>
        <path class="cls-1" d="M34.48,162.09h4.23v.41c-.39,.03-.65,.1-.77,.2s-.18,.27-.18,.48c0,.23,.06,.5,.19,.83l2.16,5.81,2.16-4.74-.57-1.48c-.17-.44-.4-.75-.69-.93-.15-.1-.45-.16-.9-.18v-.41h4.81v.41c-.53,.02-.9,.11-1.13,.29-.15,.12-.22,.3-.22,.56,0,.15,.03,.29,.1,.45l2.29,5.8,2.14-5.58c.15-.4,.22-.72,.22-.95,0-.14-.07-.26-.22-.37s-.43-.17-.84-.18v-.41h3.19v.41c-.64,.09-1.11,.52-1.42,1.29l-3.36,8.7h-.46l-2.52-6.44-2.94,6.44h-.41l-3.25-8.48c-.21-.54-.42-.9-.62-1.09s-.53-.33-.97-.42v-.41Z"/>
        <path class="cls-1" d="M56.61,170.73c-1.03,.8-1.68,1.26-1.95,1.39-.4,.18-.82,.27-1.27,.27-.7,0-1.28-.24-1.73-.71s-.68-1.11-.68-1.89c0-.49,.11-.92,.33-1.28,.31-.5,.83-.97,1.58-1.41s1.98-.98,3.72-1.61v-.39c0-1.01-.16-1.7-.48-2.08s-.79-.56-1.4-.56c-.46,0-.83,.13-1.1,.38-.27,.25-.41,.53-.41,.86v.64c.01,.34-.07,.6-.25,.78s-.4,.28-.68,.28-.49-.1-.67-.29-.26-.45-.26-.79c0-.63,.32-1.2,.97-1.74s1.56-.8,2.73-.8c.9,0,1.63,.15,2.21,.45,.43,.23,.74,.59,.95,1.08,.14,.31,.2,.95,.2,1.93v3.43c0,.96,.02,1.55,.05,1.77s.1,.36,.18,.44,.18,.11,.3,.11,.22-.02,.3-.07c.15-.1,.45-.37,.9-.82v.63c-.83,1.1-1.61,1.65-2.36,1.65-.36,0-.65-.12-.86-.37s-.32-.67-.33-1.27Zm0-.72v-3.85c-1.11,.44-1.82,.76-2.15,.94-.58,.33-1,.67-1.25,1.02s-.37,.74-.37,1.16c0,.53,.16,.96,.48,1.31s.68,.52,1.09,.52c.56,0,1.3-.37,2.21-1.1Z"/>
        <path class="cls-1" d="M63.21,161.79v2.27c.85-1.52,1.72-2.27,2.61-2.27,.4,0,.73,.12,.99,.37s.39,.53,.39,.86c0,.28-.1,.52-.29,.72s-.42,.3-.68,.3-.54-.13-.86-.38-.56-.38-.71-.38c-.13,0-.27,.07-.42,.22-.34,.31-.68,.81-1.03,1.5v4.83c0,.56,.07,.99,.22,1.28,.09,.19,.26,.35,.5,.49s.59,.2,1.05,.2v.39h-5.17v-.39c.52,0,.9-.08,1.14-.25,.19-.12,.32-.31,.39-.57,.04-.12,.05-.47,.05-1.06v-3.92c0-1.17-.02-1.87-.07-2.1-.05-.23-.14-.39-.27-.49s-.29-.15-.48-.15c-.23,0-.49,.05-.78,.16l-.11-.39,3.05-1.24h.46Z"/>
        <path class="cls-1" d="M68.95,165.89c0,1.5,.35,2.67,1.09,3.53s1.6,1.28,2.6,1.28c.65,0,1.23-.18,1.72-.54s.9-.98,1.24-1.87l.34,.22c-.15,1.01-.6,1.92-1.35,2.75s-1.67,1.24-2.79,1.24c-1.22,0-2.26-.47-3.12-1.42s-1.29-2.21-1.29-3.81c0-1.72,.44-3.07,1.33-4.04s2-1.45,3.34-1.45c1.13,0,2.05,.37,2.78,1.12s1.1,1.74,1.1,3h-6.98Zm0-.64h4.67c-.04-.64-.11-1.1-.23-1.36-.18-.42-.45-.74-.82-.97s-.74-.35-1.14-.35c-.61,0-1.15,.24-1.63,.71s-.76,1.13-.84,1.97Z"/>
        <path class="cls-1" d="M92.43,172.35c.75,1.29,1.57,2.24,2.44,2.85s1.86,.96,2.97,1.06v.35c-1.02-.05-2.1-.25-3.25-.62s-2.25-.88-3.28-1.54-1.92-1.36-2.67-2.1c-1.06-.43-1.9-.88-2.52-1.36-.9-.71-1.6-1.58-2.09-2.63s-.74-2.27-.74-3.69c0-2.23,.72-4.09,2.17-5.57s3.2-2.22,5.26-2.22c1.95,0,3.64,.74,5.07,2.23s2.14,3.35,2.14,5.6c0,1.83-.51,3.44-1.52,4.83s-2.34,2.32-3.98,2.81Zm-1.85-14.61c-1.33,0-2.41,.48-3.23,1.43-1.03,1.2-1.55,3.03-1.55,5.5s.53,4.29,1.58,5.6c.81,1.01,1.87,1.51,3.2,1.51s2.5-.5,3.35-1.51c.99-1.19,1.48-2.95,1.48-5.27,0-1.79-.27-3.29-.82-4.52-.42-.93-.97-1.62-1.67-2.07s-1.48-.67-2.35-.67Z"/>
        <path class="cls-1" d="M107.87,162.09v6.11c0,1.17,.03,1.89,.08,2.15s.14,.44,.27,.54,.26,.15,.42,.15c.23,0,.49-.06,.78-.18l.15,.38-3.02,1.24h-.49v-2.14c-.87,.94-1.53,1.54-1.99,1.78s-.93,.36-1.44,.36c-.56,0-1.05-.16-1.47-.49s-.71-.75-.86-1.26-.24-1.24-.24-2.19v-4.51c0-.48-.05-.81-.16-.99s-.26-.32-.46-.42-.57-.15-1.1-.14v-.41h3.54v6.75c0,.94,.16,1.56,.49,1.86s.72,.44,1.18,.44c.32,0,.68-.1,1.08-.3s.88-.58,1.43-1.14v-5.72c0-.57-.1-.96-.31-1.16s-.64-.31-1.31-.32v-.41h3.44Z"/>
        <path class="cls-1" d="M115.52,170.73c-1.03,.8-1.68,1.26-1.95,1.39-.4,.18-.82,.27-1.27,.27-.7,0-1.28-.24-1.73-.71s-.68-1.11-.68-1.89c0-.49,.11-.92,.33-1.28,.31-.5,.83-.97,1.58-1.41s1.98-.98,3.72-1.61v-.39c0-1.01-.16-1.7-.48-2.08s-.79-.56-1.4-.56c-.46,0-.83,.13-1.1,.38-.27,.25-.41,.53-.41,.86v.64c.01,.34-.07,.6-.25,.78s-.4,.28-.68,.28-.49-.1-.67-.29-.26-.45-.26-.79c0-.63,.32-1.2,.97-1.74s1.56-.8,2.73-.8c.9,0,1.63,.15,2.21,.45,.43,.23,.74,.59,.95,1.08,.14,.31,.2,.95,.2,1.93v3.43c0,.96,.02,1.55,.05,1.77s.1,.36,.18,.44,.18,.11,.3,.11,.22-.02,.3-.07c.15-.1,.45-.37,.9-.82v.63c-.83,1.1-1.61,1.65-2.36,1.65-.36,0-.65-.12-.86-.37s-.32-.67-.33-1.27Zm0-.72v-3.85c-1.11,.44-1.82,.76-2.15,.94-.58,.33-1,.67-1.25,1.02s-.37,.74-.37,1.16c0,.53,.16,.96,.48,1.31s.68,.52,1.09,.52c.56,0,1.3-.37,2.21-1.1Z"/>
        <path class="cls-1" d="M122.77,156.51v13.4c0,.64,.05,1.06,.14,1.26s.23,.36,.42,.47,.54,.16,1.06,.16v.39h-4.94v-.39c.46,0,.78-.05,.95-.15s.3-.26,.39-.48,.14-.64,.14-1.27v-9.18c0-1.13-.02-1.83-.07-2.1s-.13-.44-.25-.54-.26-.14-.44-.14c-.19,0-.43,.06-.72,.18l-.19-.38,3.01-1.24h.5Z"/>
        <path class="cls-1" d="M128.61,161.79v8.11c0,.64,.05,1.06,.14,1.27s.23,.37,.41,.47,.51,.16,.99,.16v.39h-4.91v-.39c.5,0,.83-.05,1-.15s.3-.26,.4-.48,.15-.64,.15-1.27v-3.89c0-1.1-.04-1.81-.11-2.12-.05-.24-.12-.4-.24-.49s-.27-.14-.46-.14-.45,.05-.75,.16l-.15-.39,3.05-1.24h.48Zm-.91-5.28c.31,0,.57,.11,.79,.33s.33,.48,.33,.79-.11,.57-.33,.79-.48,.33-.79,.33-.57-.11-.8-.33-.33-.48-.33-.79,.11-.57,.33-.79,.49-.33,.8-.33Z"/>
        <path class="cls-1" d="M133.82,158.77v3.32h2.36v.76h-2.36v6.56c0,.65,.09,1.09,.28,1.32s.43,.34,.73,.34c.25,0,.48-.07,.71-.22s.4-.37,.53-.67h.42c-.25,.73-.62,1.27-1.09,1.63s-.96,.54-1.46,.54c-.34,0-.67-.09-.99-.28s-.57-.45-.72-.8-.23-.89-.23-1.63v-6.79h-1.59v-.35c.41-.16,.82-.44,1.25-.82s.8-.84,1.12-1.37c.17-.28,.41-.79,.71-1.54h.34Z"/>
        <path class="cls-1" d="M135.91,162.09h4.71v.41h-.23c-.34,0-.59,.07-.75,.21s-.25,.32-.25,.54c0,.28,.12,.68,.37,1.18l2.45,5.09,2.26-5.57c.13-.31,.19-.61,.19-.9,0-.14-.03-.24-.08-.3-.05-.08-.15-.15-.27-.19s-.34-.07-.65-.07v-.41h3.28v.41c-.27,.03-.48,.08-.63,.17s-.31,.25-.49,.5c-.06,.1-.19,.38-.37,.84l-4.11,10.09c-.4,.98-.92,1.72-1.57,2.22s-1.27,.75-1.87,.75c-.43,0-.78-.12-1.06-.37s-.42-.54-.42-.86c0-.31,.1-.56,.31-.74s.48-.28,.84-.28c.24,0,.56,.08,.98,.23,.3,.12,.49,.18,.56,.18,.22,0,.46-.12,.72-.35s.53-.67,.79-1.33l.72-1.74-3.63-7.62c-.11-.23-.29-.51-.53-.86-.18-.25-.33-.43-.45-.52-.17-.12-.44-.22-.82-.3v-.41Z"/>
        <path class="cls-1" d="M157.51,158.04v5.91h3.28c.85,0,1.42-.13,1.72-.38,.38-.34,.59-.93,.64-1.78h.41v5.2h-.41c-.11-.73-.21-1.19-.31-1.4-.14-.25-.35-.45-.65-.6s-.76-.22-1.39-.22h-3.28v4.93c0,.66,.03,1.06,.09,1.2s.16,.25,.31,.34,.42,.13,.83,.13h2.55c.84,0,1.46-.06,1.84-.18s.75-.35,1.1-.69c.45-.45,.92-1.14,1.4-2.07h.44l-1.29,3.76h-11.52v-.41h.53c.35,0,.69-.09,1.01-.26,.24-.12,.39-.29,.48-.53s.12-.72,.12-1.44v-9.71c0-.95-.1-1.54-.29-1.76-.26-.3-.7-.45-1.32-.45h-.53v-.41h11.52l.18,3.28h-.44c-.15-.79-.32-1.33-.51-1.63s-.47-.52-.84-.67c-.29-.11-.81-.16-1.55-.16h-4.1Z"/>
        <path class="cls-1" d="M169.68,163.93c1.19-1.42,2.32-2.14,3.39-2.14,.55,0,1.03,.14,1.42,.42s.71,.73,.95,1.35c.16,.44,.25,1.12,.25,2.03v4.32c0,.64,.05,1.08,.15,1.31,.08,.18,.21,.32,.39,.43s.51,.16,.99,.16v.39h-4.98v-.39h.2c.47,0,.8-.07,.99-.22s.32-.36,.39-.64c.03-.11,.04-.45,.04-1.03v-4.14c0-.92-.12-1.58-.35-1.99s-.64-.62-1.21-.62c-.87,0-1.74,.48-2.61,1.43v5.32c0,.68,.04,1.1,.12,1.27,.11,.22,.25,.38,.43,.48s.54,.15,1.1,.15v.39h-5v-.39h.22c.52,0,.87-.13,1.05-.39s.27-.76,.27-1.5v-3.74c0-1.22-.03-1.96-.08-2.22s-.14-.44-.26-.54-.27-.14-.46-.14-.44,.05-.74,.16l-.16-.39,3.05-1.24h.46v2.14Z"/>
        <path class="cls-1" d="M180.23,168.5c-.62-.3-1.09-.72-1.42-1.26s-.5-1.14-.5-1.79c0-1,.38-1.86,1.13-2.58s1.72-1.08,2.9-1.08c.96,0,1.79,.24,2.49,.71h2.15c.31,0,.49,0,.54,.03s.09,.05,.11,.1c.05,.06,.07,.18,.07,.35,0,.19-.02,.32-.05,.39-.02,.04-.06,.07-.12,.09s-.24,.03-.55,.03h-1.32c.42,.53,.63,1.2,.63,2.03,0,.93-.36,1.74-1.08,2.41s-1.69,1.01-2.91,1.01c-.5,0-1.01-.07-1.52-.22-.33,.27-.55,.52-.66,.73s-.17,.39-.17,.54c0,.12,.06,.24,.18,.35s.36,.2,.7,.26c.21,.03,.73,.05,1.55,.08,1.52,.04,2.5,.09,2.94,.15,.68,.1,1.23,.35,1.63,.76s.61,.92,.61,1.52c0,.83-.39,1.6-1.17,2.33-1.14,1.08-2.64,1.62-4.48,1.62-1.42,0-2.62-.32-3.59-.97-.55-.36-.83-.74-.83-1.14,0-.17,.04-.35,.12-.53,.13-.27,.39-.65,.78-1.13,.05-.07,.42-.47,1.12-1.2-.38-.23-.65-.43-.81-.61s-.24-.39-.24-.61c0-.25,.1-.55,.31-.9s.69-.83,1.46-1.47Zm-.11,3.69c-.34,.37-.61,.72-.78,1.04s-.27,.62-.27,.89c0,.35,.21,.66,.64,.93,.74,.46,1.8,.69,3.19,.69s2.3-.23,2.93-.7,.94-.97,.94-1.5c0-.38-.19-.65-.56-.82-.38-.15-1.14-.25-2.27-.29-1.65-.05-2.92-.13-3.81-.25Zm2.03-9.87c-.54,0-1,.22-1.37,.65s-.55,1.1-.55,1.99c0,1.16,.25,2.06,.75,2.71,.38,.48,.87,.72,1.46,.72,.55,0,1.01-.21,1.38-.63s.54-1.08,.54-1.97c0-1.17-.25-2.09-.76-2.75-.37-.48-.85-.72-1.44-.72Z"/>
        <path class="cls-1" d="M191.85,161.79v8.11c0,.64,.05,1.06,.14,1.27s.23,.37,.41,.47,.51,.16,.99,.16v.39h-4.91v-.39c.5,0,.83-.05,1-.15s.3-.26,.4-.48,.15-.64,.15-1.27v-3.89c0-1.1-.04-1.81-.11-2.12-.05-.24-.12-.4-.24-.49s-.27-.14-.46-.14-.45,.05-.75,.16l-.15-.39,3.05-1.24h.48Zm-.91-5.28c.31,0,.57,.11,.79,.33s.33,.48,.33,.79-.11,.57-.33,.79-.48,.33-.79,.33-.57-.11-.8-.33-.33-.48-.33-.79,.11-.57,.33-.79,.49-.33,.8-.33Z"/>
        <path class="cls-1" d="M197.05,163.93c1.19-1.42,2.32-2.14,3.39-2.14,.55,0,1.03,.14,1.42,.42s.71,.73,.95,1.35c.16,.44,.25,1.12,.25,2.03v4.32c0,.64,.05,1.08,.15,1.31,.08,.18,.21,.32,.39,.43s.51,.16,.99,.16v.39h-4.98v-.39h.2c.47,0,.8-.07,.99-.22s.32-.36,.39-.64c.03-.11,.04-.45,.04-1.03v-4.14c0-.92-.12-1.58-.35-1.99s-.64-.62-1.21-.62c-.87,0-1.74,.48-2.61,1.43v5.32c0,.68,.04,1.1,.12,1.27,.11,.22,.25,.38,.43,.48,.18,.1,.54,.15,1.1,.15v.39h-5v-.39h.22c.52,0,.87-.13,1.05-.39s.27-.76,.27-1.5v-3.74c0-1.22-.03-1.96-.08-2.22s-.14-.44-.26-.54-.27-.14-.46-.14-.44,.05-.74,.16l-.16-.39,3.05-1.24h.46v2.14Z"/>
        <path class="cls-1" d="M206.63,165.89c0,1.5,.35,2.67,1.09,3.53s1.6,1.28,2.6,1.28c.65,0,1.23-.18,1.72-.54s.9-.98,1.24-1.87l.34,.22c-.15,1.01-.6,1.92-1.35,2.75s-1.67,1.24-2.79,1.24c-1.22,0-2.26-.47-3.12-1.42s-1.29-2.21-1.29-3.81c0-1.72,.44-3.07,1.33-4.04s2-1.45,3.34-1.45c1.13,0,2.05,.37,2.78,1.12s1.1,1.74,1.1,3h-6.98Zm0-.64h4.67c-.04-.64-.11-1.1-.23-1.36-.18-.42-.45-.74-.82-.97s-.74-.35-1.14-.35c-.61,0-1.15,.24-1.63,.71s-.76,1.13-.84,1.97Z"/>
        <path class="cls-1" d="M216.31,165.89c0,1.5,.35,2.67,1.09,3.53s1.6,1.28,2.6,1.28c.65,0,1.23-.18,1.72-.54s.9-.98,1.24-1.87l.34,.22c-.15,1.01-.6,1.92-1.35,2.75s-1.67,1.24-2.79,1.24c-1.22,0-2.26-.47-3.12-1.42s-1.29-2.21-1.29-3.81c0-1.72,.44-3.07,1.33-4.04s2-1.45,3.34-1.45c1.13,0,2.05,.37,2.78,1.12s1.1,1.74,1.1,3h-6.98Zm0-.64h4.67c-.04-.64-.11-1.1-.23-1.36-.18-.42-.45-.74-.82-.97s-.74-.35-1.14-.35c-.61,0-1.15,.24-1.63,.71s-.76,1.13-.84,1.97Z"/>
        <path class="cls-1" d="M227.08,161.79v2.27c.85-1.52,1.72-2.27,2.61-2.27,.4,0,.73,.12,.99,.37s.39,.53,.39,.86c0,.28-.1,.52-.29,.72s-.42,.3-.68,.3-.54-.13-.86-.38-.56-.38-.71-.38c-.13,0-.27,.07-.42,.22-.34,.31-.68,.81-1.03,1.5v4.83c0,.56,.07,.99,.22,1.28,.09,.19,.26,.35,.5,.49s.59,.2,1.05,.2v.39h-5.17v-.39c.52,0,.9-.08,1.14-.25,.19-.12,.32-.31,.39-.57,.04-.12,.05-.47,.05-1.06v-3.92c0-1.17-.02-1.87-.07-2.1s-.14-.39-.27-.49-.29-.15-.48-.15c-.23,0-.49,.05-.78,.16l-.11-.39,3.05-1.24h.46Z"/>
        <path class="cls-1" d="M234.56,161.79v8.11c0,.64,.05,1.06,.14,1.27s.23,.37,.41,.47,.51,.16,.99,.16v.39h-4.91v-.39c.5,0,.83-.05,1-.15s.3-.26,.4-.48,.15-.64,.15-1.27v-3.89c0-1.1-.04-1.81-.11-2.12-.05-.24-.12-.4-.24-.49s-.27-.14-.46-.14-.45,.05-.75,.16l-.15-.39,3.05-1.24h.48Zm-.91-5.28c.31,0,.57,.11,.79,.33s.33,.48,.33,.79-.11,.57-.33,.79-.48,.33-.79,.33-.57-.11-.8-.33-.33-.48-.33-.79,.11-.57,.33-.79,.49-.33,.8-.33Z"/>
        <path class="cls-1" d="M239.76,163.93c1.19-1.42,2.32-2.14,3.39-2.14,.55,0,1.03,.14,1.42,.42s.71,.73,.95,1.35c.16,.44,.25,1.12,.25,2.03v4.32c0,.64,.05,1.08,.15,1.31,.08,.18,.21,.32,.39,.43s.51,.16,.99,.16v.39h-4.98v-.39h.2c.47,0,.8-.07,.99-.22s.32-.36,.39-.64c.03-.11,.04-.45,.04-1.03v-4.14c0-.92-.12-1.58-.35-1.99s-.64-.62-1.21-.62c-.87,0-1.74,.48-2.61,1.43v5.32c0,.68,.04,1.1,.12,1.27,.11,.22,.25,.38,.43,.48s.54,.15,1.1,.15v.39h-5v-.39h.22c.52,0,.87-.13,1.05-.39s.27-.76,.27-1.5v-3.74c0-1.22-.03-1.96-.08-2.22s-.14-.44-.26-.54-.27-.14-.46-.14-.44,.05-.74,.16l-.16-.39,3.05-1.24h.46v2.14Z"/>
        <path class="cls-1" d="M250.31,168.5c-.62-.3-1.09-.72-1.42-1.26s-.5-1.14-.5-1.79c0-1,.38-1.86,1.13-2.58s1.72-1.08,2.9-1.08c.96,0,1.79,.24,2.49,.71h2.15c.31,0,.49,0,.54,.03s.09,.05,.11,.1c.05,.06,.07,.18,.07,.35,0,.19-.02,.32-.05,.39-.02,.04-.06,.07-.12,.09s-.24,.03-.55,.03h-1.32c.42,.53,.63,1.2,.63,2.03,0,.93-.36,1.74-1.08,2.41s-1.69,1.01-2.91,1.01c-.5,0-1.01-.07-1.52-.22-.33,.27-.55,.52-.66,.73s-.17,.39-.17,.54c0,.12,.06,.24,.18,.35s.36,.2,.7,.26c.21,.03,.73,.05,1.55,.08,1.52,.04,2.5,.09,2.94,.15,.68,.1,1.23,.35,1.63,.76s.61,.92,.61,1.52c0,.83-.39,1.6-1.17,2.33-1.14,1.08-2.64,1.62-4.48,1.62-1.42,0-2.62-.32-3.59-.97-.55-.36-.83-.74-.83-1.14,0-.17,.04-.35,.12-.53,.13-.27,.39-.65,.78-1.13,.05-.07,.42-.47,1.12-1.2-.38-.23-.65-.43-.81-.61s-.24-.39-.24-.61c0-.25,.1-.55,.31-.9s.69-.83,1.46-1.47Zm-.11,3.69c-.34,.37-.61,.72-.78,1.04s-.27,.62-.27,.89c0,.35,.21,.66,.64,.93,.74,.46,1.8,.69,3.19,.69s2.3-.23,2.93-.7,.94-.97,.94-1.5c0-.38-.19-.65-.56-.82-.38-.15-1.14-.25-2.27-.29-1.65-.05-2.92-.13-3.81-.25Zm2.03-9.87c-.54,0-1,.22-1.37,.65s-.55,1.1-.55,1.99c0,1.16,.25,2.06,.75,2.71,.38,.48,.87,.72,1.46,.72,.55,0,1.01-.21,1.38-.63s.54-1.08,.54-1.97c0-1.17-.25-2.09-.76-2.75-.37-.48-.85-.72-1.44-.72Z"/>
        <path class="cls-1" d="M268.69,158.04v5.91h3.28c.85,0,1.42-.13,1.72-.38,.38-.34,.59-.93,.64-1.78h.41v5.2h-.41c-.11-.73-.21-1.19-.31-1.4-.14-.25-.35-.45-.65-.6s-.76-.22-1.39-.22h-3.28v4.93c0,.66,.03,1.06,.09,1.2s.16,.25,.31,.34,.42,.13,.83,.13h2.55c.84,0,1.46-.06,1.84-.18s.75-.35,1.1-.69c.45-.45,.92-1.14,1.4-2.07h.44l-1.29,3.76h-11.52v-.41h.53c.35,0,.69-.09,1.01-.26,.24-.12,.39-.29,.48-.53s.12-.72,.12-1.44v-9.71c0-.95-.1-1.54-.29-1.76-.26-.3-.7-.45-1.32-.45h-.53v-.41h11.52l.18,3.28h-.44c-.15-.79-.32-1.33-.51-1.63s-.47-.52-.84-.67c-.29-.11-.81-.16-1.55-.16h-4.1Z"/>
        <path class="cls-1" d="M277.55,162.09h4.75v.41c-.3,0-.51,.05-.63,.15s-.18,.24-.18,.41,.13,.44,.39,.82c.07,.12,.19,.3,.35,.54l.72,1.16,.83-1.16c.53-.73,.79-1.18,.79-1.38,0-.15-.06-.28-.19-.39s-.33-.16-.6-.16v-.41h3.42v.41c-.36,.02-.68,.12-.94,.3-.36,.25-.86,.79-1.48,1.62l-1.38,1.85,2.52,3.61c.62,.89,1.06,1.42,1.32,1.61s.6,.29,1.02,.31v.39h-4.76v-.39c.34,0,.59-.08,.78-.23,.14-.1,.2-.24,.2-.41,0-.16-.23-.59-.69-1.28l-1.48-2.15-1.62,2.15c-.5,.67-.75,1.07-.75,1.2,0,.17,.08,.33,.25,.48s.41,.23,.75,.25v.39h-3.29v-.39c.26-.05,.49-.14,.69-.29,.27-.21,.74-.75,1.4-1.63l2.12-2.8-1.92-2.78c-.54-.8-.97-1.3-1.27-1.5s-.67-.3-1.12-.3v-.41Z"/>
        <path class="cls-1" d="M297.39,168.35c-.27,1.33-.8,2.35-1.6,3.06-.79,.72-1.67,1.08-2.64,1.08-1.14,0-2.14-.48-3-1.44s-1.28-2.26-1.28-3.89,.47-2.88,1.42-3.87,2.08-1.49,3.4-1.49c.99,0,1.8,.26,2.44,.79s.96,1.07,.96,1.63c0,.28-.09,.51-.26,.68s-.43,.26-.76,.26c-.44,0-.76-.14-.98-.42-.13-.15-.21-.45-.25-.88s-.19-.76-.44-1c-.26-.22-.62-.33-1.08-.33-.74,0-1.33,.27-1.77,.82-.6,.72-.9,1.67-.9,2.86s.3,2.27,.89,3.19,1.4,1.38,2.4,1.38c.72,0,1.36-.25,1.93-.74,.41-.34,.8-.96,1.18-1.85l.31,.16Z"/>
        <path class="cls-1" d="M300.22,165.89c0,1.5,.35,2.67,1.09,3.53s1.6,1.28,2.6,1.28c.65,0,1.23-.18,1.72-.54s.9-.98,1.24-1.87l.34,.22c-.15,1.01-.61,1.92-1.35,2.75s-1.67,1.24-2.79,1.24c-1.22,0-2.26-.47-3.12-1.42s-1.29-2.21-1.29-3.81c0-1.72,.44-3.07,1.33-4.04s2-1.45,3.34-1.45c1.12,0,2.05,.37,2.78,1.12,.73,.74,1.1,1.74,1.1,3h-6.98Zm0-.64h4.67c-.04-.64-.11-1.1-.23-1.36-.18-.42-.45-.74-.82-.97s-.74-.35-1.14-.35c-.61,0-1.15,.24-1.63,.71s-.76,1.13-.84,1.97Z"/>
        <path class="cls-1" d="M311.64,156.51v13.4c0,.64,.05,1.06,.14,1.26s.23,.36,.42,.47,.54,.16,1.06,.16v.39h-4.94v-.39c.46,0,.78-.05,.95-.15s.3-.26,.4-.48c.09-.22,.14-.64,.14-1.27v-9.18c0-1.13-.03-1.83-.08-2.1s-.13-.44-.25-.54-.26-.14-.44-.14c-.19,0-.43,.06-.72,.18l-.19-.38,3.01-1.24h.5Z"/>
        <path class="cls-1" d="M317.47,156.51v13.4c0,.64,.05,1.06,.14,1.26s.23,.36,.42,.47,.54,.16,1.06,.16v.39h-4.94v-.39c.46,0,.78-.05,.95-.15s.3-.26,.4-.48c.09-.22,.14-.64,.14-1.27v-9.18c0-1.13-.03-1.83-.08-2.1s-.13-.44-.25-.54-.26-.14-.44-.14c-.19,0-.43,.06-.72,.18l-.19-.38,3.01-1.24h.5Z"/>
        <path class="cls-1" d="M321.57,165.89c0,1.5,.35,2.67,1.09,3.53,.74,.85,1.6,1.28,2.6,1.28,.65,0,1.23-.18,1.72-.54s.9-.98,1.24-1.87l.34,.22c-.15,1.01-.6,1.92-1.35,2.75s-1.67,1.24-2.79,1.24c-1.22,0-2.26-.47-3.12-1.42s-1.29-2.21-1.29-3.81c0-1.72,.44-3.07,1.33-4.04,.88-.97,2-1.45,3.34-1.45,1.13,0,2.05,.37,2.78,1.12,.73,.74,1.1,1.74,1.1,3h-6.98Zm0-.64h4.67c-.04-.64-.11-1.1-.23-1.36-.18-.42-.45-.74-.82-.97s-.74-.35-1.14-.35c-.61,0-1.15,.24-1.63,.71s-.76,1.13-.84,1.97Z"/>
        <path class="cls-1" d="M332.32,163.93c1.19-1.42,2.32-2.14,3.39-2.14,.55,0,1.03,.14,1.42,.42,.39,.28,.71,.73,.95,1.35,.16,.44,.25,1.12,.25,2.03v4.32c0,.64,.05,1.08,.15,1.31,.08,.18,.21,.32,.39,.43s.51,.16,.99,.16v.39h-4.98v-.39h.2c.47,0,.8-.07,.99-.22,.18-.15,.31-.36,.39-.64,.03-.11,.04-.45,.04-1.03v-4.14c0-.92-.12-1.58-.35-1.99s-.64-.62-1.21-.62c-.87,0-1.74,.48-2.61,1.43v5.32c0,.68,.04,1.1,.12,1.27,.11,.22,.25,.38,.43,.48,.18,.1,.54,.15,1.1,.15v.39h-5v-.39h.22c.52,0,.87-.13,1.05-.39s.27-.76,.27-1.5v-3.74c0-1.22-.03-1.96-.08-2.22s-.14-.44-.26-.54-.27-.14-.46-.14-.44,.05-.74,.16l-.16-.39,3.05-1.24h.46v2.14Z"/>
        <path class="cls-1" d="M348.76,168.35c-.27,1.33-.81,2.35-1.6,3.06-.8,.72-1.67,1.08-2.64,1.08-1.14,0-2.14-.48-3-1.44s-1.28-2.26-1.28-3.89,.47-2.88,1.42-3.87,2.08-1.49,3.4-1.49c.99,0,1.8,.26,2.44,.79,.64,.53,.96,1.07,.96,1.63,0,.28-.09,.51-.27,.68-.18,.17-.43,.26-.75,.26-.44,0-.76-.14-.98-.42-.13-.15-.21-.45-.25-.88-.04-.43-.19-.76-.44-1-.26-.22-.62-.33-1.08-.33-.74,0-1.33,.27-1.77,.82-.6,.72-.9,1.67-.9,2.86s.3,2.27,.89,3.19c.59,.92,1.4,1.38,2.4,1.38,.72,0,1.36-.25,1.93-.74,.41-.34,.8-.96,1.18-1.85l.31,.16Z"/>
        <path class="cls-1" d="M351.59,165.89c0,1.5,.35,2.67,1.09,3.53s1.6,1.28,2.6,1.28c.65,0,1.23-.18,1.72-.54s.9-.98,1.24-1.87l.34,.22c-.15,1.01-.6,1.92-1.35,2.75s-1.67,1.24-2.79,1.24c-1.22,0-2.26-.47-3.12-1.42-.86-.94-1.29-2.21-1.29-3.81,0-1.72,.44-3.07,1.33-4.04,.88-.97,2-1.45,3.34-1.45,1.13,0,2.05,.37,2.78,1.12,.73,.74,1.1,1.74,1.1,3h-6.98Zm0-.64h4.67c-.04-.64-.11-1.1-.23-1.36-.18-.42-.45-.74-.82-.97s-.74-.35-1.14-.35c-.61,0-1.15,.24-1.63,.71s-.76,1.13-.84,1.97Z"/>
      </g>
    </g>
    <path class="cls-2" d="M551,210.21c-4.25-.11-8.49-.19-12.74-.35-1.34-.05-2.67-.32-4-.52-3.73-.57-7.47-1.07-11.18-1.77-2.35-.44-4.65-1.17-6.96-1.79-2.26-.61-4.56-1.12-6.76-1.9-3.33-1.17-6.62-2.49-9.88-3.85-2.15-.9-4.22-1.99-6.33-2.99-.13-.06-.3-.11-.38-.21-.21-.27-.39-.57-.58-.86,.31-.09,.66-.31,.93-.24,1.35,.36,2.71,.71,4.01,1.22,2.58,1,5.06,2.34,7.71,3.09,2.34,.66,4.85,.71,7.28,1,.19,.02,.58-.14,.59-.24,.02-.22-.08-.54-.25-.68-.71-.56-1.4-1.19-2.2-1.56-3.23-1.5-6.49-2.95-9.76-4.36-1.18-.51-2.42-.89-3.65-1.24-3.67-1.02-6.98-2.82-10.22-4.77-2.03-1.22-4.1-2.38-6.11-3.63-1.12-.7-2.22-1.44-3.19-2.33-.69-.63-1.1-1.56-1.69-2.31-.42-.54-.87-1.09-1.43-1.47-.32-.22-.87-.1-1.32-.11-.11,0-.22,.08-.33,.11-1.92,.66-2.95,.05-3.36-1.95-.19-.92-.33-1.85-.63-2.73-.44-1.31-1.2-1.64-2.52-1.27-.96,.26-1.87,.21-2.81-.24-3.55-1.69-6.21-4.4-8.72-7.32-1.39-1.62-2.89-3.14-4.28-4.75-2-2.32-3.99-4.65-5.9-7.05-1.44-1.81-2.74-3.72-4.09-5.6-1.9-2.67-3.83-5.32-5.66-8.03-1.56-2.3-3.03-4.65-4.49-7.01-.71-1.15-.48-1.79,.76-2.43,.48-.24,.61-.53,.25-.96-.65-.79-1.34-1.54-1.97-2.35-1.04-1.34-2.57-2-3.91-2.93-.52-.36-.96-.08-1.3,.33-1.23,1.49-2.45,2.99-3.68,4.47-1,1.21-2.03,2.41-3.03,3.63-1.13,1.38-2.24,2.77-3.36,4.16-1.4,1.72-2.83,3.43-4.21,5.17-3.56,4.48-7.12,8.96-10.66,13.46-1.79,2.27-3.61,4.53-5.29,6.89-1.77,2.47-3.45,5.01-5.09,7.57-2.61,4.06-5.19,8.14-7.71,12.26-1.6,2.62-3.19,5.26-4.53,8.01-.75,1.54-1.74,3.07-1.76,4.91-.01,1.1,.14,1.25,1.23,1.28,1.71,.04,2.99-.96,4.33-1.76,3.47-2.07,6.92-4.16,10.31-6.34,3-1.93,5.91-4,8.87-5.99,1.36-.92,2.72-1.84,4.11-2.7,.3-.18,.93-.29,1.09-.13,.24,.26,.36,.82,.27,1.18-.31,1.18-.72,2.34-1.13,3.49-.09,.25-.31,.53-.55,.65-2.76,1.41-4.6,3.87-6.8,5.91-1.89,1.74-3.84,3.41-5.77,5.11-.13,.12-.26,.24-.39,.35-1.91,1.68-3.76,3.43-5.74,5.02-3.56,2.86-7.08,5.78-10.83,8.36-2.97,2.05-6.28,3.61-9.42,5.41-1.88,1.08-3.9,1.48-6.06,1.48-1.83,0-3.29-.59-4.36-2.1-.61-.87-.7-1.84-.65-2.85,.13-2.52,1.05-4.82,2.3-6.94,2.25-3.83,4.58-7.62,7.03-11.32,2.74-4.15,5.59-8.22,8.49-12.26,2.51-3.49,5.17-6.88,7.73-10.33,2.11-2.84,4.19-5.71,6.29-8.56,2.85-3.86,5.65-7.77,8.58-11.57,2.75-3.57,5.6-7.06,8.48-10.52,2.06-2.46,4.26-4.8,6.36-7.23,1.81-2.09,3.55-4.25,5.35-6.35,1.12-1.31,2.31-2.55,3.44-3.86,2-2.32,4.06-4.6,5.92-7.03,1.12-1.46,.66-2.34-1.08-3.05-1.4-.57-2.84-1.11-4.11-1.91-3.43-2.16-5.35-5.49-6.66-9.19-.53-1.5-.82-3.09-1.14-4.66-.53-2.57-1.9-4.77-2.95-7.11-.68-1.51-1.27-3.08-1.79-4.65-.37-1.1-.45-2.3-.87-3.38-.39-1.02-.91-2.07-1.64-2.85-1.28-1.39-2.77-2.59-4.17-3.88-.28-.25-.56-.52-.75-.84-1.63-2.74-2.61-5.65-3.08-8.86-.5-3.4-1.19-6.87-3.13-9.89-.74-1.15-1.3-2.42-1.9-3.66-.25-.52-.49-1.08-.58-1.64-.47-2.94,.7-4.59,3.81-5.17,3.1-.58,6.21-1.06,9.33-1.49,.81-.11,1.68,.17,2.52,.23,.24,.02,.59-.03,.69-.18,.1-.16,.02-.51-.08-.72-.64-1.28-1.32-2.54-1.97-3.82-.14-.28-.24-.6-.29-.91-.38-2.28-.84-4.55-1.09-6.85-.46-4.11-2.58-7.38-4.88-10.64-1.13-1.6-2.04-3.42-2.72-5.26-.63-1.7-.97-3.55-1.16-5.37-.11-1.06,.23-2.2,.5-3.26,.22-.84,.91-1.05,1.67-.57,1.4,.89,2.53,2.05,3.33,3.54,1.67,3.11,2.79,6.43,3.81,9.79,.88,2.91,1.87,5.79,2.88,8.66,1.18,3.33,2.43,6.64,3.68,9.95,.37,.99,1.05,1.71,2.04,2.19,.39,.19,.81,.64,.91,1.04,.37,1.41,.64,2.85,.88,4.28,.37,2.22,.74,4.44,1.02,6.67,.4,3.18,1.64,6.07,2.94,8.95,1.09,2.39,2.04,4.85,3.1,7.25,.53,1.2,1.2,2.34,1.78,3.52,1.43,2.94,2.9,5.87,4.24,8.85,.47,1.05,.66,2.24,.94,3.37,.72,2.83,1.57,5.64,2.08,8.51,.63,3.55,1.21,7.09,2.77,10.38,.17,.37,.52,.66,.79,.98,.3-.26,.64-.48,.89-.78,1.72-2.1,3.43-4.22,5.13-6.33,1.76-2.19,3.49-4.4,5.25-6.58,1.61-2,3.25-3.98,4.88-5.97,1.44-1.77,2.87-3.54,4.34-5.29,2.29-2.73,4.62-5.43,6.91-8.17,2.12-2.53,4.19-5.1,6.31-7.63,1.35-1.61,2.74-3.18,4.1-4.79,.64-.76,1.22-1.56,1.86-2.32,2.09-2.47,4.18-4.96,6.31-7.39,2.76-3.14,5.53-6.27,8.36-9.35,3.54-3.85,7.11-7.68,10.76-11.43,2.22-2.28,4.59-4.42,6.94-6.57,1.81-1.65,3.67-3.25,5.55-4.82,1.79-1.5,3.62-2.95,5.44-4.41,2.05-1.64,4.03-3.4,6.2-4.87,2.85-1.93,5.82-3.7,8.83-5.38,1.2-.67,2.62-.99,3.98-1.33,1.2-.29,2.86,.86,3.34,2.23,1.31,3.76,2.24,7.59,1.54,11.62-.34,1.98-.74,3.95-1.17,5.92-.22,.99-.89,1.19-1.57,.45-.63-.69-1.25-.67-1.95-.26-1.61,.95-3.21,1.93-4.82,2.88-3.3,1.93-6.56,3.95-9.95,5.71-3.36,1.75-6.87,3.24-10.31,4.85-1.06,.5-2.1,1.03-3.14,1.55-.18,.09-.38,.24-.56,.23-.32,0-.63-.11-.95-.17,.09-.34,.08-.77,.29-1.01,.76-.91,1.65-1.72,2.4-2.65,1.41-1.76,2.76-3.55,4.1-5.37,.53-.73,.99-1.52,1.4-2.32,.14-.28,.03-.69,.03-1.04-.35,.07-.74,.06-1.04,.22-2.74,1.52-4.7,3.92-6.92,6.03-1.01,.96-2.15,1.79-3.17,2.76-.56,.54-.93,1.28-1.49,1.83-.83,.81-1.84,1.45-2.63,2.3-1.73,1.85-3.38,3.79-5.06,5.69-.39,.44-.79,.86-1.18,1.3-1.86,2.05-3.71,4.11-5.57,6.16-1.49,1.64-3.03,3.25-4.49,4.92-1.17,1.34-2.27,2.74-3.38,4.14-1.61,2.04-3.23,4.08-4.78,6.17-1.87,2.54-3.72,5.09-5.48,7.71-1.76,2.62-3.54,5.25-5.04,8.02-2.04,3.78-3.88,7.67-5.69,11.56-2.08,4.49-3.53,9.21-4.72,14.02-.84,3.42-1.38,6.86-1.47,10.37-.02,.84-.32,1.69-.25,2.51,.2,2.41,.51,4.81,.8,7.21,.07,.58,.19,1.15,.29,1.73,.44,2.67,1.26,5.23,2.44,7.64,1.25,2.57,2.8,4.99,4.16,7.52,2.58,4.79,6.04,8.96,9.28,13.28,1.89,2.52,4.07,4.83,6.05,7.29,2.99,3.69,6.18,7.2,9.71,10.36,3.41,3.06,6.7,6.27,10.53,8.85,2.81,1.9,5.46,4.03,8.31,5.87,3.83,2.48,7.8,4.74,11.99,6.57,2.22,.97,4.41,2.04,6.67,2.91,2.45,.95,4.95,1.77,7.45,2.56,2.29,.72,4.59,1.42,6.92,1.96,2.45,.57,4.93,1.02,7.41,1.39,2.86,.42,5.74,.76,8.62,1.01,2.85,.25,5.72,.37,8.58,.53,3.41,.19,6.83,.37,10.24,.55,.38,.02,.78-.07,1.14,.03,.35,.1,.65,.37,.97,.56-.18,.3-.3,.77-.56,.87-1.52,.58-3.07,1.11-4.63,1.59-.98,.3-1.98,.53-2.99,.71-1.4,.26-2.81,.61-4.23,.66-3.1,.1-6.21,.03-9.32,.03,0,.05,0,.1,0,.14Zm-99.45-118.43c-.08-.03-.16-.06-.24-.09-.16,.13-.33,.24-.46,.39-1.12,1.23-2.24,2.46-3.35,3.69-.98,1.09-1.99,2.14-2.91,3.27-2.38,2.91-4.72,5.86-7.09,8.79-.88,1.09-.94,1.46-.19,2.66,.73,1.16,1.63,2.22,1.79,3.66,.02,.19,.15,.38,.27,.55,.71,1,1.41,2.01,2.15,2.99,.97,1.28,2.03,2.49,2.94,3.81,1.08,1.56,2.02,3.22,3.06,4.81,.25,.38,.61,.69,.93,1.04,.09-.04,.18-.08,.27-.11-3.72-12.19-3.42-24.06,2.85-35.45Z"/>
  </g>
</svg>