<?xml version="1.0" encoding="UTF-8" standalone="no"?>
<!-- Created with Inkscape (http://www.inkscape.org/) -->

<svg
   version="1.1"
   id="svg1"
   width="1000"
   height="133.33333"
   viewBox="0 0 1000 133.33333"
   sodipodi:docname="shareablee.svg"
   inkscape:version="1.4.3 (0d15f75, 2025-12-25)"
   xmlns:inkscape="http://www.inkscape.org/namespaces/inkscape"
   xmlns:sodipodi="http://sodipodi.sourceforge.net/DTD/sodipodi-0.dtd"
   xmlns="http://www.w3.org/2000/svg"
   xmlns:svg="http://www.w3.org/2000/svg">
  <defs
     id="defs1" />
  <sodipodi:namedview
     id="namedview1"
     pagecolor="#ffffff"
     bordercolor="#000000"
     borderopacity="0.25"
     inkscape:showpageshadow="2"
     inkscape:pageopacity="0.0"
     inkscape:pagecheckerboard="0"
     inkscape:deskcolor="#d1d1d1"
     showgrid="false"
     inkscape:zoom="0.387"
     inkscape:cx="500"
     inkscape:cy="65.891473"
     inkscape:current-layer="g1" />
  <g
     inkscape:groupmode="layer"
     inkscape:label="Image"
     id="g1">
    <g
       id="g2">
      <path
         style="fill:#a6e0f3"
         d="m 281.15226,128.28434 c -13.10449,-6.80789 -19.2408,-20.50066 -15.79126,-35.237136 1.29997,-5.553524 3.00557,-8.370603 8.04699,-13.290996 7.22858,-7.055049 12.71454,-9.071122 24.71344,-9.082108 9.46746,-0.0087 18.66165,2.46975 24.44867,6.590471 l 4.09657,2.917011 v -6.800284 c 0,-3.740156 -0.85274,-8.841162 -1.89497,-11.335568 -4.92253,-11.78128 -26.45773,-13.060472 -40.42228,-2.401087 l -6.10698,4.66156 -2.21223,-2.932822 c -1.21673,-1.613052 -3.35387,-5.052706 -4.74919,-7.643676 l -2.53697,-4.710855 3.96131,-3.203438 c 24.16662,-19.543112 67.32039,-13.81031 73.88114,9.814807 0.81152,2.922299 1.40175,19.728378 1.40606,40.036444 L 348,130.66666 h -10.66667 -10.66666 v -4.89908 -4.89909 l -3.14688,2.95634 c -5.12281,4.81263 -15.83684,8.17516 -26.0485,8.17516 -7.42951,0 -10.52226,-0.70418 -16.31903,-3.71565 z m 33.64878,-12.48828 c 2.49276,-0.8455 6.18229,-2.68636 8.19896,-4.09079 3.29926,-2.29766 3.66667,-3.34415 3.66667,-10.44381 0,-7.705934 -0.12254,-7.971387 -5.24448,-11.360925 -6.82063,-4.513678 -19.05529,-5.859656 -25.05611,-2.75651 -9.05478,4.682404 -12.24947,14.127625 -7.49867,22.170085 4.18701,7.08805 15.67853,9.96028 25.93363,6.48195 z m 149.63119,14.35684 c -8.17947,-2.66368 -14.22897,-6.79353 -21.0271,-14.35468 -13.32954,-14.82566 -15.2213,-42.353475 -4.10058,-59.669433 12.80475,-19.938154 38.00929,-27.685095 59.09609,-18.163945 15.94053,7.197496 25.13963,21.857879 26.58537,42.368488 l 0.72837,10.333333 -35.52386,0 c -39.63933,0 -37.87379,-0.50003 -32.86949,9.309208 4.44149,8.706039 14.74929,14.690789 25.3026,14.690789 7.11511,0 17.98422,-3.5617 22.52249,-7.38041 l 3.93925,-3.31466 4.92331,6.7069 c 2.70782,3.68879 4.60237,7.54325 4.21011,8.56546 -0.39226,1.02222 -5.34731,4.14888 -11.01123,6.94814 -9.61785,4.7534 -11.18672,5.11217 -23.7528,5.43177 -8.62076,0.21926 -15.45513,-0.30922 -19.02253,-1.47096 z M 504,71.783807 c 0,-5.411669 -6.29249,-14.031458 -12.40212,-16.989078 -6.29973,-3.049645 -15.82719,-3.650039 -21.84441,-1.376573 -7.24017,2.735525 -15.0868,12.365487 -15.0868,18.515628 0,2.656469 0.68967,2.73288 24.66666,2.73288 24.39438,0 24.66667,-0.03182 24.66667,-2.882857 z m 52.57218,57.041833 c -22.74002,-10.58882 -23.96983,-42.990655 -2.06601,-54.433347 5.92868,-3.097177 8.79041,-3.725629 16.96512,-3.725629 10.31395,0 21.21857,3.131046 26.01166,7.468735 C 599.92567,80.346034 600,80.15659 600,71.719792 600,61.222147 597.50496,57.304505 588.67054,53.93061 c -9.79712,-3.741555 -21.3541,-1.259588 -32.30691,6.938206 l -4.30303,3.220672 -4.02364,-6.378079 c -2.213,-3.507942 -3.87082,-7.278078 -3.68405,-8.378078 0.51563,-3.036804 12.38086,-10.409808 20.81516,-12.934451 8.62374,-2.581346 24.9908,-2.91294 32.84437,-0.665421 7.49931,2.146137 15.47269,7.623934 19.05761,13.092786 4.72063,7.201401 5.67553,16.219546 5.28842,49.944186 L 622,130 h -10.66667 -10.66666 l 0.008,-4.24522 c 0.007,-3.70047 -0.25056,-4.01157 -2.00434,-2.42442 -1.10658,1.00144 -5.31001,3.35592 -9.34096,5.23219 -9.98956,4.6498 -23.10983,4.75517 -32.75681,0.26309 z m 33.75518,-13.54316 C 598.59449,111.82825 600,109.80133 600,101.33333 c 0,-8.468006 -1.40551,-10.49492 -9.67264,-13.949149 -15.10124,-6.309703 -31.48149,2.31811 -29.84372,15.719299 0.34304,2.80692 1.72455,6.3389 3.07003,7.84884 5.55488,6.23387 17.5676,8.17671 26.77369,4.33016 z m 92.37723,14.03602 c -3.27915,-1.53229 -7.92915,-4.28633 -10.33334,-6.1201 L 668,119.86429 v 5.45727 5.45727 L 657.66667,130.38941 647.33333,130 646.98719,65.666664 646.64106,1.3333333 l 10.67947,0 10.67947,0 V 24.118524 46.903715 l 4.15984,-3.500275 c 13.07022,-10.997868 31.13977,-12.557835 46.03296,-3.974085 15.18361,8.751127 23.60604,30.485965 20.44645,52.763922 -2.45865,17.335733 -9.27352,28.462513 -21.51244,35.123763 -9.68756,5.27264 -25.45932,6.18967 -34.42222,2.00146 z m 20.06697,-19.08277 c 4.41217,-2.33321 6.79437,-4.88314 9.65361,-10.333333 3.4343,-6.546343 3.74981,-8.25201 3.31154,-17.9024 C 715.16877,69.494213 712.39848,62.789956 705.682,57.667053 699.12184,52.663373 688.19574,51.974179 679.58649,56.021007 668.77515,61.102937 668,62.946238 668,83.573748 c 0,17.306912 0.10725,17.988042 3.34163,21.222422 8.41949,8.41949 21.51042,10.68512 31.42993,5.43956 z m 126.91892,19.15725 c -8.68498,-3.12584 -13.34189,-6.40636 -20.27445,-14.28216 -9.72912,-11.05285 -13.39711,-31.044229 -8.63697,-47.073366 8.16528,-27.495464 38.18501,-41.419717 65.07521,-30.184272 7.79,3.254866 17.39067,13.280058 21.54825,22.501066 2.82688,6.269661 3.8934,11.015639 4.3399,19.312416 l 0.59198,10.999999 h -35.59038 -35.59039 l 0.89497,3 c 5.20703,17.454287 22.57163,25.220287 40.98641,18.330437 3.92427,-1.46826 8.3793,-3.82876 9.90005,-5.24556 2.73669,-2.54961 2.79164,-2.54617 5.3635,0.33623 1.42917,1.60172 3.89921,4.80844 5.48898,7.12603 l 2.89049,4.21381 -5.66629,4.16704 c -12.3043,9.04868 -36.25403,12.22121 -51.32126,6.79833 z m 40.94757,-58.826106 c -2.17396,-7.580143 -5.98329,-12.541988 -11.95107,-15.566876 -9.73888,-4.936338 -22.07512,-3.772067 -29.19621,2.755483 -3.17387,2.909331 -8.07286,12.09749 -8.12815,15.244516 -0.0224,1.27567 5.89204,1.666667 25.21097,1.666667 h 25.24026 z m 65.7191,58.826106 c -12.37762,-4.45486 -20.82294,-12.30512 -26.6006,-24.72632 -3.2853,-7.06293 -3.72324,-9.561776 -3.73886,-21.33333 -0.0158,-11.898454 0.39549,-14.227881 3.82167,-21.645748 8.96898,-19.418278 30.58525,-30.875708 51.09783,-27.083752 10.81774,1.999769 18.14185,5.980031 24.96171,13.565355 7.53943,8.38566 11.59978,18.875799 12.44958,32.164145 l 0.66081,10.333333 H 963.3601 927.71091 l 0.86731,3.666667 c 1.40248,5.92913 7.69506,13.89261 13.24217,16.75842 10.49061,5.41976 26.60474,3.80671 36.74089,-3.67782 l 4.56127,-3.36805 4.43873,6.59112 c 2.44129,3.62512 4.43872,7.15225 4.43872,7.83807 0,2.13214 -12.30916,9.18503 -19.90867,11.40725 -9.97836,2.91783 -26.91179,2.68594 -35.73418,-0.48934 z m 40.71739,-59.726316 c -3.0522,-11.081422 -11.89152,-17.580678 -23.98774,-17.637383 -10.87234,-0.05097 -17.65171,4.032984 -22.54989,13.584266 -4.776,9.313022 -5.42737,9.053117 22.68895,9.053117 h 25.22585 z M 1.9276585,128.95894 C 1.567235,128.01969 1.4360659,115.95208 1.6361715,102.14202 L 2,77.03283 32.561014,102.18308 C 49.369571,116.01572 63.369571,128.08333 63.672125,129 c 0.812522,2.46175 -60.7997695,2.42078 -61.7444665,-0.0411 z M 78,121.95691 c -5.866667,-4.89898 -13.366667,-11.15636 -16.666667,-13.90529 -3.3,-2.74892 -9.9,-8.250267 -14.666666,-12.225206 C 41.9,91.851476 31.544731,83.312272 23.654958,76.850406 6.0403189,62.423699 2.5047366,57.050715 1.627075,43.374883 1.2736633,37.867977 1.6666169,31.696846 2.5390063,29.05348 5.1937438,21.009547 11.39611,12.651297 17.914375,8.3337773 c 8.010556,-5.3059718 23.493537,-9.09815327 27.79289,-6.807196 2.790662,1.4870343 50.446309,40.3626907 70.896455,57.8346207 10.97356,9.375445 15.66734,17.522046 16.46726,28.580831 1.63226,22.565737 -13.25437,38.848067 -38.541855,42.155377 -5.688104,0.74394 -6.179694,0.50183 -16.529125,-8.1405 z m 84.22222,7.82086 c -0.48889,-0.48889 -0.88889,-29.58888 -0.88889,-64.666661 V 1.3333333 H 172 182.66667 V 24.008362 46.683391 l 5.4296,-3.933182 c 16.36838,-11.857195 42.38829,-11.335366 51.53299,1.033493 5.27867,7.139793 5.85339,12.449256 5.43563,50.216294 L 244.66667,130 234.33333,130.38941 224,130.77883 223.96819,100.38942 C 223.9507,83.675235 223.39345,67.659423 222.72988,64.79872 220.91261,56.964441 217.45261,54.27523 208.34223,53.616244 199.59295,52.983379 193.75143,54.890268 187,60.583138 l -4.33333,3.653909 v 33.214807 33.214806 h -9.77778 c -5.37778,0 -10.17778,-0.4 -10.66667,-0.88889 z M 373.33333,83.33333 V 35.887827 l 10.33334,0.389419 10.33333,0.389419 0.41693,5.052191 0.41693,5.052192 6.24974,-4.576297 c 5.20048,-3.807997 17.64672,-8.861419 21.82507,-8.861419 0.60023,0 1.09133,4.8 1.09133,10.666666 v 10.666667 l -4.84531,0 c -7.16123,0 -14.3982,2.543922 -19.72281,6.932918 l -4.71816,3.889103 -0.35686,32.255655 L 394,130 l -10.33333,0.38941 -10.33334,0.38942 z m 384.94006,46.49561 c -0.51703,-0.51703 -0.94006,-29.64005 -0.94006,-64.717831 V 1.3333333 h 11.34614 11.34614 L 779.67947,65.666664 779.33333,130 l -10.05994,0.38449 c -5.53297,0.21148 -10.48297,-0.0385 -11,-0.55555 z M 99.890449,27.737934 C 71.621963,4.4274308 69.151169,2.0622821 72.212606,1.2435277 76.669469,0.05157871 125.41094,-0.36597223 129.8562,0.74971547 l 3.47713,0.87270593 V 27.477876 c 0,14.460932 -0.52961,25.855455 -1.20176,25.855455 -0.66097,0 -15.16947,-11.517929 -32.241121,-25.595397 z"
         id="path8" />
      <path
         style="fill:#a3a3a3"
         d="m 284.40383,129.80712 c -8.23883,-2.91847 -15.84116,-10.92694 -18.33064,-19.30995 -2.60272,-8.76429 -2.59501,-11.50611 0.0547,-19.450577 2.70911,-8.122586 8.40896,-14.088777 16.98406,-17.777686 12.22888,-5.260721 33.12478,-2.17505 41.41562,6.115793 1.96325,1.963253 2.13911,1.468163 2.13911,-6.022345 0,-4.800391 -0.86006,-9.824618 -2.08843,-12.200015 -2.44842,-4.734723 -11.03379,-9.090169 -18.00291,-9.133059 -7.40909,-0.0456 -18.16487,3.6918 -23.10347,8.027951 -2.46981,2.168521 -4.81732,3.942766 -5.21669,3.942766 -0.39937,0 -2.65984,-3.379776 -5.02327,-7.510612 l -4.29713,-7.510612 3.19928,-2.583293 c 10.82819,-8.74333 31.12628,-14.111219 44.87695,-11.867841 15.18982,2.47817 22.98648,7.565553 27.8392,18.165298 3.14716,6.874304 3.18942,7.501619 2.83893,42.142617 L 347.33333,130 h -10 -10 l -0.41805,-4.33657 -0.41805,-4.33657 -4.34018,3.31041 c -9.42448,7.1884 -25.74552,9.42337 -37.75322,5.16985 z m 36.97016,-17.0091 c 5.18612,-3.43201 5.29268,-3.66282 5.29268,-11.46469 0,-7.868288 -0.0657,-8.005619 -5.5693,-11.647749 -4.82258,-3.191436 -6.89215,-3.685584 -15.43578,-3.685584 -9.69089,0 -9.94773,0.08864 -14.43071,4.980419 -5.11559,5.582079 -6.00091,11.707064 -2.63343,18.219064 4.57604,8.84908 21.9586,10.75751 32.77654,3.59854 z m 142.73148,17.08431 c -12.99221,-4.70925 -21.91023,-12.82745 -27.69995,-25.21567 -3.31366,-7.090212 -3.73885,-9.516305 -3.73885,-21.33333 0,-11.877468 0.41922,-14.240964 3.83936,-21.645748 9.02599,-19.541708 29.86661,-30.573218 50.85402,-26.918418 21.93518,3.819846 35.62866,20.367598 37.55799,45.386584 l 0.81054,10.510915 h -35.53096 c -32.95847,0 -35.52937,0.168936 -35.50902,2.333333 0.0408,4.335072 5.9661,12.864774 11.7709,16.944544 5.28725,3.71601 6.6813,4.05546 16.65536,4.05546 9.87521,0 11.6116,-0.41166 18.71498,-4.43683 4.30642,-2.44025 8.23952,-3.94025 8.74023,-3.33333 3.36607,4.08007 8.09509,11.10536 8.08749,12.01453 -0.0131,1.56194 -7.5593,6.46452 -15.32423,9.95573 -8.83653,3.97303 -30.36125,4.89608 -39.22786,1.68223 z m 39.86591,-59.315456 c -3.51131,-12.243216 -11.75301,-18.50919 -24.39237,-18.544942 -4.26488,-0.01206 -9.06488,0.651378 -10.66667,1.474315 -7.23855,3.718885 -14.24567,12.787888 -14.24567,18.437537 0,2.658707 0.68504,2.73288 25.24026,2.73288 h 25.24025 z m 52.6408,58.277296 c -12.24499,-5.70201 -18.93482,-17.54015 -17.54142,-31.040822 1.71264,-16.593895 13.96469,-27.136684 31.53625,-27.136684 10.18763,0 19.36133,2.371748 25.16892,6.507114 2.18298,1.554421 4.40858,2.826219 4.94578,2.826219 0.53719,0 0.65324,-4.029799 0.25789,-8.955108 -0.6512,-8.112582 -1.15792,-9.357506 -5.38588,-13.232141 -8.74494,-8.01414 -25.94704,-7.300382 -37.55233,1.558141 l -5.89313,4.498326 -4.07413,-6.621306 C 545.83336,53.606191 544,50.066153 544,49.381156 c 0,-0.684996 1.98303,-2.757981 4.40674,-4.606632 C 567.2281,30.41877 600.15073,30.471038 613.51445,44.877888 621.86948,53.885078 622,54.64066 622,93.999996 V 130 l -10.33333,0.38941 -10.33334,0.38942 v -4.69338 -4.69339 l -6.2873,3.98729 c -11.95392,7.58095 -26.73328,8.91331 -38.43385,3.46482 z m 33.74578,-13.57448 c 8.28087,-3.45997 10.97537,-6.88141 10.97537,-13.93636 0,-4.718649 -0.7218,-6.879933 -3.01819,-9.037278 -6.92405,-6.504802 -19.40188,-8.796365 -28.02463,-5.146743 -6.916,2.927228 -9.62384,6.918165 -9.62384,14.184021 0,7.15509 2.66202,11.18519 9.33333,14.12998 5.42223,2.39343 14.36996,2.30833 20.35796,-0.19362 z M 682,128.84262 c -3.66667,-1.72223 -7.80966,-4.41637 -9.20665,-5.98698 -3.56969,-4.01332 -4.57181,-3.58747 -5.0462,2.14436 l -0.41382,5 h -10 -10 l -0.34614,-64.333336 -0.34613,-64.3333307 10.67947,0 10.67947,0 V 23.932599 46.531865 l 7.66667,-5.259169 c 14.42931,-9.898197 30.43864,-9.745141 45.45749,0.434592 11.41613,7.737812 17.78493,22.644144 17.78493,41.626042 0,23.78625 -9.85056,40.32481 -27.83974,46.74142 -8.27979,2.95334 -21.33665,2.39991 -29.06935,-1.23213 z m 20.6075,-18.14577 c 9.09683,-4.64086 13.99537,-14.536948 13.8454,-27.970623 -0.20673,-18.517438 -9.50104,-29.392896 -25.11957,-29.392896 -7.19692,0 -13.05139,2.233885 -19,7.249807 L 668,64.237047 v 18.251466 c 0,21.229577 0.60164,22.717657 11.17553,27.641127 8.34333,3.88486 16.53992,4.08327 23.43197,0.56721 z m 130.05917,19.50729 c -14.52222,-4.80543 -23.5538,-12.59824 -29.59699,-25.53748 -3.31213,-7.091687 -3.73635,-9.51703 -3.73635,-21.361366 0,-12.405431 0.31295,-13.997051 4.3741,-22.246425 8.49258,-17.250874 23.78708,-26.75079 43.06381,-26.748347 25.48717,0.0032 42.89594,17.854713 44.88144,46.022808 l 0.72837,10.333333 h -35.6684 -35.6684 l 0.86731,3.666667 c 1.41447,5.97987 7.71016,13.89828 13.42177,16.88125 4.02732,2.10333 7.78211,2.78542 15.33334,2.78542 8.89768,0 10.87423,-0.49537 17.93086,-4.49384 l 7.93087,-4.49384 2.9621,3.71483 c 1.62915,2.04315 3.71539,5.12236 4.63608,6.84269 2.06216,3.85319 0.50382,5.32673 -12.12658,11.46672 -7.58389,3.68675 -10.24918,4.25804 -21.33333,4.57275 -7.88737,0.22394 -14.67901,-0.30625 -18,-1.40517 z m 37.7412,-60.537476 c -3.06704,-11.135313 -11.79242,-17.666666 -23.60129,-17.666666 -11.30589,0 -17.98918,3.966778 -22.93634,13.613549 -4.77599,9.313022 -5.42737,9.053117 22.68895,9.053117 h 25.22586 z m 68.92546,60.537476 c -14.49353,-4.79594 -23.5872,-12.74011 -29.81263,-26.04413 -3.05222,-6.522715 -3.50734,-9.224079 -3.51356,-20.854716 -0.007,-12.41275 0.30341,-13.992184 4.36696,-22.246425 17.97886,-36.520259 70.19644,-35.69184 84.39806,1.338953 1.66653,4.345491 3.19858,12.028856 3.57632,17.935508 l 0.66081,10.333333 H 963.3601 927.71091 l 0.89237,3.666667 c 1.42867,5.87027 6.80855,13.08418 12.30696,16.50245 4.25014,2.64224 6.84937,3.16422 15.75643,3.16422 9.63467,0 11.4267,-0.43068 18.5224,-4.45144 l 7.85574,-4.45144 3.06236,3.78477 c 1.6843,2.08162 3.80435,5.14176 4.71121,6.80029 2.03617,3.72388 0.40011,5.25259 -12.15171,11.35438 -7.5839,3.68675 -10.24919,4.25804 -21.33334,4.57275 -7.88737,0.22394 -14.679,-0.30625 -18,-1.40517 z M 977.83828,70.999997 C 974.43397,56.802288 961.97766,49.581266 946.0464,52.569989 c -5.79443,1.087043 -13.79375,7.832997 -16.24501,13.699686 -3.62471,8.675162 -4.40511,8.396989 23.55735,8.396989 h 25.35873 z m -815.5632,58.830633 c -0.51796,-0.51796 -0.94175,-29.64174 -0.94175,-64.719521 V 1.3333333 H 172 182.66667 v 22.7307197 22.73072 l 5.98535,-4.118032 c 8.70897,-5.991927 16.11929,-8.299348 26.68131,-8.308007 13.58827,-0.01114 21.59673,4.144558 26.98576,14.003269 2.08852,3.820739 2.34758,8.56159 2.34758,42.961327 V 130 h -10 -10 L 224,96.666663 c -0.46477,-23.238429 -1.17454,-34.221165 -2.34365,-36.264952 -2.86283,-5.004665 -7.14376,-7.06838 -14.66252,-7.06838 -8.13991,0 -13.84601,2.065888 -19.97075,7.23039 l -4.31026,3.634491 -0.35641,32.900892 L 182,130 l -9.39158,0.38619 c -5.16538,0.21241 -9.81538,-0.0376 -10.33334,-0.55556 z m 211.94714,-0.0529 c -0.48889,-0.48889 -0.88889,-21.78889 -0.88889,-47.333329 V 35.999999 h 10 10 v 6.112038 6.112039 l 5.22734,-4.140123 c 6.09888,-4.830403 15.08753,-9.000207 20.77266,-9.636362 l 4,-0.447592 0.38942,10.333333 0.38942,10.333333 -5.05608,0.0074 c -7.99313,0.01176 -14.12245,2.270931 -20.14323,7.424489 l -5.57953,4.77587 v 31.896102 31.896099 h -9.11111 c -5.01111,0 -9.51111,-0.4 -10,-0.88889 z m 385.3862,0.0529 c -0.51797,-0.51796 -0.94175,-29.64174 -0.94175,-64.719521 V 1.3333333 l 10.67947,0 10.67947,0 L 779.67947,65.666664 779.33333,130 l -9.39158,0.38619 c -5.16537,0.21241 -9.81537,-0.0376 -10.33333,-0.55556 z M 1.3333333,104 c 0,-13.933337 0.3581768,-25.333336 0.7959485,-25.333336 0.4377716,0 13.7510302,10.649999 29.5850182,23.666666 15.833989,13.01667 29.725812,24.39758 30.870719,25.29093 1.653189,1.28994 -4.4362,1.63299 -29.585019,1.66666 l -31.6666667,0.0424 z M 50.168899,97.908737 C 28.995127,80.463202 9.9785572,63.853053 7.9098557,60.997294 3.4894106,54.895047 0.70717148,43.11775 1.9096128,35.598095 4.9523446,16.569896 17.949577,4.6893142 38.824089,1.8551072 L 44.981511,1.019092 82.157422,31.72388 c 20.446748,16.887634 38.901318,32.352543 41.010158,34.366465 9.44696,9.021779 12.18004,26.649227 6.23782,40.231845 -5.45931,12.47879 -18.42715,21.30545 -33.254182,22.6347 l -7.484551,0.671 z M 100.81969,27.333332 69.130655,1.3333333 h 32.101335 32.10134 V 27.333332 c 0,14.3 -0.18553,25.999999 -0.4123,25.999999 -0.22677,0 -14.67237,-11.699999 -32.10134,-25.999999 z"
         id="path7" />
      <path
         style="fill:#58accd"
         d="m 287.99137,130.75421 c -10.03236,-3.05171 -18.45577,-10.72794 -21.33049,-19.43841 -0.89177,-2.7021 -1.38131,-8.68362 -1.08785,-13.292263 0.66271,-10.407715 5.06426,-17.664476 13.83022,-22.80167 11.75584,-6.889383 33.25181,-5.441478 43.17475,2.908124 l 4.08867,3.440389 v -9.272046 c 0,-7.492487 -0.55478,-9.977326 -2.89054,-12.946764 -3.76683,-4.788756 -10.11185,-7.351572 -18.20101,-7.351572 -7.96672,0 -13.83986,1.910109 -21.14869,6.878141 -3.06546,2.083689 -5.86399,3.788525 -6.21896,3.788525 -0.35497,0 -2.47536,-2.97405 -4.71196,-6.609001 l -4.06656,-6.609001 4.95219,-4.084736 c 7.4801,-6.16984 17.93516,-9.660664 31.08323,-10.378334 16.04886,-0.876006 25.13011,1.88609 33.35481,10.144986 C 347.20714,53.553415 348,58.067315 348,97.398958 v 31.934372 h -10.66667 -10.66666 v -3.94493 -3.94493 l -6.518,4.05182 c -9.63606,5.9901 -22.71958,8.12974 -32.1573,5.25892 z m 29.00266,-15.47173 c 8.26713,-3.45423 9.67264,-5.48115 9.67264,-13.94915 0,-8.201874 -1.06785,-9.856056 -8.93379,-13.839215 -6.0716,-3.074538 -18.60494,-2.838559 -24.00148,0.451902 -15.44503,9.417388 -7.76425,29.368833 11.31142,29.382323 3.87356,0.003 9.2516,-0.91789 11.95121,-2.04586 z m 148.72069,14.86849 c -17.72983,-5.8102 -28.63984,-17.97957 -32.38506,-36.123329 -6.22983,-30.180528 13.43313,-57.331678 42.78364,-59.076809 28.41087,-1.689261 47.0278,16.220897 48.21285,46.382498 l 0.34052,8.666667 -35.5438,0.666666 -35.54381,0.666667 1.7717,5.150319 c 3.7674,10.951841 14.59363,18.103401 27.4816,18.153731 8.32222,0.0325 16.60442,-2.43867 22.68528,-6.76863 l 4.00813,-2.85403 2.23711,3.073 c 1.23042,1.69016 3.31382,4.71095 4.62978,6.71287 l 2.39265,3.63987 -4.64721,3.5446 c -2.55597,1.94953 -7.83266,4.77464 -11.72599,6.27803 -9.07722,3.50512 -28.68438,4.5138 -36.69739,1.88788 z m 38.79023,-59.150973 c -2.27757,-9.498631 -9.24184,-16.933668 -17.27267,-18.44026 -2.57907,-0.483836 -7.91812,-0.611936 -11.86457,-0.284667 -10.88646,0.90279 -17.56624,6.981447 -21.30925,19.391594 l -0.90483,3 h 26.11526 26.11525 z M 559.0705,129.80712 C 535.17665,121.34313 532.20018,87.33858 554.27308,74.999086 565.48722,68.73 581.86004,69.41258 593.87941,76.650265 l 7.45392,4.488518 v -7.278884 c 0,-4.003387 -0.87973,-9.384388 -1.95496,-11.95778 -5.25808,-12.584352 -30.53289,-13.154571 -43.55631,-0.982664 l -3.51127,3.281692 -4.35468,-7.611186 -4.35468,-7.611187 3.19929,-2.583293 c 1.7596,-1.420811 7.09928,-4.468926 11.86595,-6.773588 7.30327,-3.531099 10.57658,-4.274157 20.80736,-4.723375 16.197,-0.711186 25.16319,1.858268 33.07554,9.478512 3.64647,3.511843 6.38862,7.625351 7.30371,10.956301 0.88764,3.231065 1.46811,18.866684 1.47262,39.666665 l 0.007,34.333334 h -10 -10 v -4 c 0,-2.2 -0.30519,-4 -0.67821,-4 -0.37301,0 -3.1034,1.7568 -6.06752,3.90399 -8.9979,6.51805 -24.41675,8.50191 -35.5171,4.5698 z M 595.81402,112.948 c 5.44626,-3.60416 5.51931,-3.75789 5.51931,-11.61467 0,-7.868288 -0.0657,-8.005619 -5.56929,-11.647749 -4.90233,-3.244208 -6.83072,-3.685584 -16.10245,-3.685584 -10.4608,0 -10.56452,0.03422 -15.09738,4.980419 -5.92367,6.463845 -6.27997,13.442584 -1.00629,19.709994 4.79844,5.70262 7.58005,6.67444 17.92277,6.26177 7.00301,-0.27941 9.94807,-1.10215 14.33333,-4.00418 z m 88.69978,16.89578 c -3.01741,-1.07013 -7.96741,-4.06952 -11,-6.6653 L 668,118.45887 v 5.43723 5.43723 H 657.33333 646.66667 V 65.333331 1.3333333 H 657.33333 668 V 24.821816 48.310298 l 5.12854,-4.633328 c 7.71004,-6.96556 15.57073,-9.489428 27.19179,-8.730597 11.27335,0.736126 18.08771,3.784133 25.20497,11.273979 9.66071,10.166439 13.90923,23.772328 12.79045,40.961445 -1.80723,27.766793 -17.90006,45.081433 -41.55775,44.712933 -3.7169,-0.0579 -9.22679,-0.98082 -12.2442,-2.05095 z m 17.29542,-18.34481 c 5.50084,-2.2984 12.008,-10.07262 14.00221,-16.728685 3.49208,-11.655554 0.76915,-26.539119 -6.19656,-33.870426 -5.37966,-5.662015 -9.98117,-7.566528 -18.28154,-7.566528 -8.06619,0 -13.81668,2.261697 -19.66666,7.735004 C 668.00162,64.497392 668,64.50723 668,83.33333 c 0,18.80703 0.005,18.83953 3.66667,22.34366 7.55315,7.22886 20.69866,9.76789 30.14255,5.82198 z m 131.42991,18.76314 c -18.44916,-5.23257 -30.34286,-19.08828 -33.43515,-38.950667 -3.3748,-21.67701 6.07412,-41.534352 24.428,-51.336562 7.25455,-3.874418 10.02039,-4.578799 19.76802,-5.034355 19.32111,-0.902973 32.64543,6.294464 41.13312,22.219005 4.39983,8.254922 8.22444,26.712872 6.47808,31.263822 -0.77633,2.023074 -4.2847,2.24331 -35.73602,2.24331 H 821 l 0.86559,4.327933 c 1.20925,6.046264 7.2245,13.128214 14.16088,16.672064 10.15911,5.19037 25.88086,3.51995 36.2302,-3.84943 l 4.08047,-2.90555 2.3555,3.12275 c 1.29552,1.71751 3.33062,4.7735 4.52243,6.79108 2.13333,3.61143 2.0954,3.72288 -2.44529,7.18623 -10.8648,8.28699 -33.53009,12.22123 -47.53065,8.25037 z M 872,73.23475 c 0,-2.717706 -4.2314,-11.30988 -7.06364,-14.343241 -4.71748,-5.052482 -9.58933,-6.891511 -18.2566,-6.891511 -9.25902,0 -17.33326,3.372129 -20.82154,8.695924 -2.4076,3.67447 -5.84422,12.912816 -5.19574,13.967251 C 821.47237,75.98007 872,74.574182 872,73.23475 Z m 68.97929,57.39887 c -23.80277,-6.00782 -38.78347,-30.0783 -34.56475,-55.53744 2.69527,-16.265474 10.71164,-27.771601 24.45031,-35.094232 6.84739,-3.64962 10.27728,-4.586245 18.54798,-5.065029 18.66812,-1.08068 32.41743,5.560857 40.95749,19.784316 5.49115,9.145505 7.31521,15.625531 7.491,26.612095 L 998,89.999997 963,90.355468 c -30.30392,0.307776 -35,0.627975 -35,2.38645 0,3.091878 4.68717,11.564092 8.22177,14.861112 9.96881,9.29874 29.80377,9.39824 42.70156,0.2142 l 4.08048,-2.90555 2.3555,3.12275 c 1.29552,1.71751 3.33061,4.7735 4.52243,6.79108 2.13332,3.61143 2.0954,3.72288 -2.44529,7.18623 -7.57291,5.77614 -17.60997,8.91964 -30.10312,9.42797 -6.23333,0.25363 -13.59265,-0.10911 -16.35404,-0.80609 z m 37.68738,-57.343114 c 0,-2.765734 -4.20487,-11.337216 -7.06364,-14.398997 -1.615,-1.729685 -4.55657,-3.987873 -6.53682,-5.018196 -4.96265,-2.582066 -18.90225,-2.392587 -24.65035,0.335068 -5.02372,2.383909 -10.40954,9.462654 -12.35153,16.23398 l -1.21151,4.224303 h 25.90692 c 16.91986,0 25.90693,-0.477387 25.90693,-1.376158 z M 1.3333333,104.74535 c 0,-13.523385 0.45,-24.857993 1,-25.188017 C 2.8833333,79.22731 15.333333,88.840367 30,100.91968 44.666667,112.999 58.466667,124.32695 60.666667,126.09291 l 4,3.21085 L 33,129.31854 1.3333333,129.33333 Z M 50.168899,97.908737 C 28.995127,80.463202 9.9785572,63.853053 7.9098557,60.997294 3.4894106,54.895047 0.70717148,43.11775 1.9096128,35.598095 4.9523446,16.569896 17.949577,4.6893142 38.824089,1.8551072 L 44.981511,1.019092 82.157422,31.72388 c 20.446748,16.887634 38.901318,32.352543 41.010158,34.366465 9.44696,9.021779 12.18004,26.649227 6.23782,40.231845 -5.45931,12.47879 -18.42715,21.30545 -33.254182,22.6347 l -7.484551,0.671 z M 161.33333,65.333331 V 1.3333333 H 172 182.66667 V 24.916121 48.498908 l 3.66666,-3.436097 c 6.85118,-6.420354 14.84831,-9.478288 26.45486,-10.115776 12.88544,-0.707731 20.81092,2.083163 26.28083,9.254577 5.35084,7.015316 6.1967,13.910408 6.23172,50.798384 l 0.0326,34.333334 H 234.66667 224 V 97.532294 C 224,77.696665 223.44393,64.136121 222.52211,61.491783 220.59458,55.96247 215.27017,53.333331 206,53.333331 c -8.0662,0 -13.81668,2.261697 -19.66667,7.735004 l -3.66666,3.430572 V 96.916118 129.33333 H 172 161.33333 Z M 373.64939,82.999997 374,36.666665 l 9.66667,-0.391746 9.66666,-0.391746 v 6.838395 6.838395 l 6.07396,-5.346514 c 6.03462,-5.311883 15.57052,-9.546784 21.4969,-9.546784 2.96368,0 3.09581,0.426816 3.09581,10 v 10 l -6.33333,0.02928 c -7.24116,0.03348 -16.11307,3.629236 -20.9917,8.507873 l -3.34164,3.341632 V 97.93939 129.33333 H 383.31606 373.29878 Z M 758.66667,65.333331 V 1.3333333 h 10 10 V 65.333331 129.33333 h -10 -10 z M 100.41964,26.999999 70.014132,1.9999999 99.976894,1.6403486 c 16.479516,-0.1978082 30.726336,-0.066639 31.659596,0.291487 2.06835,0.7936997 2.50408,50.0681624 0.44275,50.0681624 -0.68975,0 -14.93657,-11.25 -31.6596,-24.999999 z"
         id="path6" />
      <path
         style="fill:#28a9e0"
         d="m 287.99137,130.75421 c -10.03236,-3.05171 -18.45577,-10.72794 -21.33049,-19.43841 -0.89177,-2.7021 -1.38131,-8.68362 -1.08785,-13.292263 0.66271,-10.407715 5.06426,-17.664476 13.83022,-22.80167 11.75584,-6.889383 33.25181,-5.441478 43.17475,2.908124 l 4.08867,3.440389 v -9.272046 c 0,-7.492487 -0.55478,-9.977326 -2.89054,-12.946764 -3.76683,-4.788756 -10.11185,-7.351572 -18.20101,-7.351572 -7.96672,0 -13.83986,1.910109 -21.14869,6.878141 -3.06546,2.083689 -5.86399,3.788525 -6.21896,3.788525 -0.35497,0 -2.47536,-2.97405 -4.71196,-6.609001 l -4.06656,-6.609001 4.95219,-4.084736 c 7.4801,-6.16984 17.93516,-9.660664 31.08323,-10.378334 16.04886,-0.876006 25.13011,1.88609 33.35481,10.144986 C 347.20714,53.553415 348,58.067315 348,97.398958 v 31.934372 h -10.66667 -10.66666 v -3.94493 -3.94493 l -6.518,4.05182 c -9.63606,5.9901 -22.71958,8.12974 -32.1573,5.25892 z m 29.00266,-15.47173 c 8.26713,-3.45423 9.67264,-5.48115 9.67264,-13.94915 0,-8.201874 -1.06785,-9.856056 -8.93379,-13.839215 -6.0716,-3.074538 -18.60494,-2.838559 -24.00148,0.451902 -15.44503,9.417388 -7.76425,29.368833 11.31142,29.382323 3.87356,0.003 9.2516,-0.91789 11.95121,-2.04586 z m 148.72069,14.86849 c -17.72983,-5.8102 -28.63984,-17.97957 -32.38506,-36.123329 -6.22983,-30.180528 13.43313,-57.331678 42.78364,-59.076809 28.41087,-1.689261 47.0278,16.220897 48.21285,46.382498 l 0.34052,8.666667 -35.5438,0.666666 -35.54381,0.666667 1.7717,5.150319 c 3.7674,10.951841 14.59363,18.103401 27.4816,18.153731 8.32222,0.0325 16.60442,-2.43867 22.68528,-6.76863 l 4.00813,-2.85403 2.23711,3.073 c 1.23042,1.69016 3.31382,4.71095 4.62978,6.71287 l 2.39265,3.63987 -4.64721,3.5446 c -2.55597,1.94953 -7.83266,4.77464 -11.72599,6.27803 -9.07722,3.50512 -28.68438,4.5138 -36.69739,1.88788 z m 38.79023,-59.150973 c -2.27757,-9.498631 -9.24184,-16.933668 -17.27267,-18.44026 -2.57907,-0.483836 -7.91812,-0.611936 -11.86457,-0.284667 -10.88646,0.90279 -17.56624,6.981447 -21.30925,19.391594 l -0.90483,3 h 26.11526 26.11525 z M 559.0705,129.80712 C 535.17665,121.34313 532.20018,87.33858 554.27308,74.999086 565.48722,68.73 581.86004,69.41258 593.87941,76.650265 l 7.45392,4.488518 v -7.278884 c 0,-4.003387 -0.87973,-9.384388 -1.95496,-11.95778 -5.25808,-12.584352 -30.53289,-13.154571 -43.55631,-0.982664 l -3.51127,3.281692 -4.35468,-7.611186 -4.35468,-7.611187 3.19929,-2.583293 c 1.7596,-1.420811 7.09928,-4.468926 11.86595,-6.773588 7.30327,-3.531099 10.57658,-4.274157 20.80736,-4.723375 16.197,-0.711186 25.16319,1.858268 33.07554,9.478512 3.64647,3.511843 6.38862,7.625351 7.30371,10.956301 0.88764,3.231065 1.46811,18.866684 1.47262,39.666665 l 0.007,34.333334 h -10 -10 v -4 c 0,-2.2 -0.30519,-4 -0.67821,-4 -0.37301,0 -3.1034,1.7568 -6.06752,3.90399 -8.9979,6.51805 -24.41675,8.50191 -35.5171,4.5698 z M 595.81402,112.948 c 5.44626,-3.60416 5.51931,-3.75789 5.51931,-11.61467 0,-7.868288 -0.0657,-8.005619 -5.56929,-11.647749 -4.90233,-3.244208 -6.83072,-3.685584 -16.10245,-3.685584 -10.4608,0 -10.56452,0.03422 -15.09738,4.980419 -5.92367,6.463845 -6.27997,13.442584 -1.00629,19.709994 4.79844,5.70262 7.58005,6.67444 17.92277,6.26177 7.00301,-0.27941 9.94807,-1.10215 14.33333,-4.00418 z m 88.69978,16.89578 c -3.01741,-1.07013 -7.96741,-4.06952 -11,-6.6653 L 668,118.45887 v 5.43723 5.43723 H 657.33333 646.66667 V 65.333331 1.3333333 H 657.33333 668 V 24.821816 48.310298 l 5.12854,-4.633328 c 7.71004,-6.96556 15.57073,-9.489428 27.19179,-8.730597 11.27335,0.736126 18.08771,3.784133 25.20497,11.273979 9.66071,10.166439 13.90923,23.772328 12.79045,40.961445 -1.80723,27.766793 -17.90006,45.081433 -41.55775,44.712933 -3.7169,-0.0579 -9.22679,-0.98082 -12.2442,-2.05095 z m 17.29542,-18.34481 c 5.50084,-2.2984 12.008,-10.07262 14.00221,-16.728685 3.49208,-11.655554 0.76915,-26.539119 -6.19656,-33.870426 -5.37966,-5.662015 -9.98117,-7.566528 -18.28154,-7.566528 -8.06619,0 -13.81668,2.261697 -19.66666,7.735004 C 668.00162,64.497392 668,64.50723 668,83.33333 c 0,18.80703 0.005,18.83953 3.66667,22.34366 7.55315,7.22886 20.69866,9.76789 30.14255,5.82198 z m 131.42991,18.76314 c -18.44916,-5.23257 -30.34286,-19.08828 -33.43515,-38.950667 -3.3748,-21.67701 6.07412,-41.534352 24.428,-51.336562 7.25455,-3.874418 10.02039,-4.578799 19.76802,-5.034355 19.32111,-0.902973 32.64543,6.294464 41.13312,22.219005 4.39983,8.254922 8.22444,26.712872 6.47808,31.263822 -0.77633,2.023074 -4.2847,2.24331 -35.73602,2.24331 H 821 l 0.86559,4.327933 c 1.20925,6.046264 7.2245,13.128214 14.16088,16.672064 10.15911,5.19037 25.88086,3.51995 36.2302,-3.84943 l 4.08047,-2.90555 2.3555,3.12275 c 1.29552,1.71751 3.33062,4.7735 4.52243,6.79108 2.13333,3.61143 2.0954,3.72288 -2.44529,7.18623 -10.8648,8.28699 -33.53009,12.22123 -47.53065,8.25037 z M 872,73.23475 c 0,-2.717706 -4.2314,-11.30988 -7.06364,-14.343241 -4.71748,-5.052482 -9.58933,-6.891511 -18.2566,-6.891511 -9.25902,0 -17.33326,3.372129 -20.82154,8.695924 -2.4076,3.67447 -5.84422,12.912816 -5.19574,13.967251 C 821.47237,75.98007 872,74.574182 872,73.23475 Z m 68.97929,57.39887 c -23.80277,-6.00782 -38.78347,-30.0783 -34.56475,-55.53744 2.69527,-16.265474 10.71164,-27.771601 24.45031,-35.094232 6.84739,-3.64962 10.27728,-4.586245 18.54798,-5.065029 18.66812,-1.08068 32.41743,5.560857 40.95749,19.784316 5.49115,9.145505 7.31521,15.625531 7.491,26.612095 L 998,89.999997 963,90.355468 c -30.30392,0.307776 -35,0.627975 -35,2.38645 0,3.091878 4.68717,11.564092 8.22177,14.861112 9.96881,9.29874 29.80377,9.39824 42.70156,0.2142 l 4.08048,-2.90555 2.3555,3.12275 c 1.29552,1.71751 3.33061,4.7735 4.52243,6.79108 2.13332,3.61143 2.0954,3.72288 -2.44529,7.18623 -7.57291,5.77614 -17.60997,8.91964 -30.10312,9.42797 -6.23333,0.25363 -13.59265,-0.10911 -16.35404,-0.80609 z m 37.68738,-57.343114 c 0,-2.765734 -4.20487,-11.337216 -7.06364,-14.398997 -1.615,-1.729685 -4.55657,-3.987873 -6.53682,-5.018196 -4.96265,-2.582066 -18.90225,-2.392587 -24.65035,0.335068 -5.02372,2.383909 -10.40954,9.462654 -12.35153,16.23398 l -1.21151,4.224303 h 25.90692 c 16.91986,0 25.90693,-0.477387 25.90693,-1.376158 z M 161.33333,65.333331 V 1.3333333 H 172 182.66667 V 24.916121 48.498908 l 3.66666,-3.436097 c 6.85118,-6.420354 14.84831,-9.478288 26.45486,-10.115776 12.88544,-0.707731 20.81092,2.083163 26.28083,9.254577 5.35084,7.015316 6.1967,13.910408 6.23172,50.798384 l 0.0326,34.333334 H 234.66667 224 V 97.532294 C 224,77.696665 223.44393,64.136121 222.52211,61.491783 220.59458,55.96247 215.27017,53.333331 206,53.333331 c -8.0662,0 -13.81668,2.261697 -19.66667,7.735004 l -3.66666,3.430572 V 96.916118 129.33333 H 172 161.33333 Z M 373.64939,82.999997 374,36.666665 l 9.66667,-0.391746 9.66666,-0.391746 v 6.838395 6.838395 l 6.07396,-5.346514 c 6.03462,-5.311883 15.57052,-9.546784 21.4969,-9.546784 2.96368,0 3.09581,0.426816 3.09581,10 v 10 l -6.33333,0.02928 c -7.24116,0.03348 -16.11307,3.629236 -20.9917,8.507873 l -3.34164,3.341632 V 97.93939 129.33333 H 383.31606 373.29878 Z M 758.66667,65.333331 V 1.3333333 h 10 10 V 65.333331 129.33333 h -10 -10 z M 2.6666667,104.66666 c 0,-12.83333 0.4853862,-23.33333 1.0786359,-23.33333 0.8714913,0 15.4323744,11.560201 31.6025544,25.08995 1.474655,1.23386 7.624655,6.34516 13.666667,11.35843 C 55.056536,122.79499 60,127.14499 60,127.44838 60,127.75177 47.1,128 31.333333,128 H 2.6666667 Z m 72.6666663,13.16421 c -6.6,-5.4974 -12.905169,-10.70828 -14.011487,-11.57974 -2.835926,-2.23389 -17.673657,-14.646203 -19.426673,-16.251133 -0.800998,-0.733334 -4.089261,-3.433334 -7.307252,-6 C 8.6252982,63.292234 2.6724375,55.354722 2.6600719,41.427578 2.6453247,24.818093 13.22546,9.709441 28.170252,4.9985102 40.459766,1.1245824 44.360515,1.7477241 53.218816,8.9999997 91.71135,40.513769 121.07478,65.027375 123.02716,67.278413 c 6.83035,7.875197 9.50894,22.554625 6.38175,34.973827 -3.54426,14.07553 -19.28988,25.83099 -34.370888,25.66082 -7.587562,-0.0856 -7.887112,-0.23888 -19.704689,-10.08219 z M 125.85174,46.955639 c -1.54821,-1.258936 -4.30266,-3.488974 -6.121,-4.955641 C 97.687179,24.219741 74.666667,4.7079746 74.666667,3.8045082 c 0,-0.6258129 12.6,-1.1378416 28.000003,-1.1378416 h 28 V 25.999999 c 0,12.833333 -0.45,23.313371 -1,23.288973 -0.55,-0.0244 -2.26672,-1.074397 -3.81493,-2.333333 z"
         id="path5" />
      <path
         style="fill:#2da7da"
         d="m 287.99137,130.75421 c -10.03236,-3.05171 -18.45577,-10.72794 -21.33049,-19.43841 -0.89177,-2.7021 -1.38131,-8.68362 -1.08785,-13.292263 0.66271,-10.407715 5.06426,-17.664476 13.83022,-22.80167 11.75584,-6.889383 33.25181,-5.441478 43.17475,2.908124 l 4.08867,3.440389 v -9.272046 c 0,-7.492487 -0.55478,-9.977326 -2.89054,-12.946764 -3.76683,-4.788756 -10.11185,-7.351572 -18.20101,-7.351572 -7.96672,0 -13.83986,1.910109 -21.14869,6.878141 -3.06546,2.083689 -5.86399,3.788525 -6.21896,3.788525 -0.35497,0 -2.47536,-2.97405 -4.71196,-6.609001 l -4.06656,-6.609001 4.95219,-4.084736 c 7.4801,-6.16984 17.93516,-9.660664 31.08323,-10.378334 16.04886,-0.876006 25.13011,1.88609 33.35481,10.144986 C 347.20714,53.553415 348,58.067315 348,97.398958 v 31.934372 h -10.66667 -10.66666 v -3.94493 -3.94493 l -6.518,4.05182 c -9.63606,5.9901 -22.71958,8.12974 -32.1573,5.25892 z m 29.00266,-15.47173 c 8.26713,-3.45423 9.67264,-5.48115 9.67264,-13.94915 0,-8.201874 -1.06785,-9.856056 -8.93379,-13.839215 -6.0716,-3.074538 -18.60494,-2.838559 -24.00148,0.451902 -15.44503,9.417388 -7.76425,29.368833 11.31142,29.382323 3.87356,0.003 9.2516,-0.91789 11.95121,-2.04586 z m 148.72069,14.86849 c -17.72983,-5.8102 -28.63984,-17.97957 -32.38506,-36.123329 -6.22983,-30.180528 13.43313,-57.331678 42.78364,-59.076809 28.41087,-1.689261 47.0278,16.220897 48.21285,46.382498 l 0.34052,8.666667 -35.5438,0.666666 -35.54381,0.666667 1.7717,5.150319 c 3.7674,10.951841 14.59363,18.103401 27.4816,18.153731 8.32222,0.0325 16.60442,-2.43867 22.68528,-6.76863 l 4.00813,-2.85403 2.23711,3.073 c 1.23042,1.69016 3.31382,4.71095 4.62978,6.71287 l 2.39265,3.63987 -4.64721,3.5446 c -2.55597,1.94953 -7.83266,4.77464 -11.72599,6.27803 -9.07722,3.50512 -28.68438,4.5138 -36.69739,1.88788 z m 38.79023,-59.150973 c -2.27757,-9.498631 -9.24184,-16.933668 -17.27267,-18.44026 -2.57907,-0.483836 -7.91812,-0.611936 -11.86457,-0.284667 -10.88646,0.90279 -17.56624,6.981447 -21.30925,19.391594 l -0.90483,3 h 26.11526 26.11525 z M 559.0705,129.80712 C 535.17665,121.34313 532.20018,87.33858 554.27308,74.999086 565.48722,68.73 581.86004,69.41258 593.87941,76.650265 l 7.45392,4.488518 v -7.278884 c 0,-4.003387 -0.87973,-9.384388 -1.95496,-11.95778 -5.25808,-12.584352 -30.53289,-13.154571 -43.55631,-0.982664 l -3.51127,3.281692 -4.35468,-7.611186 -4.35468,-7.611187 3.19929,-2.583293 c 1.7596,-1.420811 7.09928,-4.468926 11.86595,-6.773588 7.30327,-3.531099 10.57658,-4.274157 20.80736,-4.723375 16.197,-0.711186 25.16319,1.858268 33.07554,9.478512 3.64647,3.511843 6.38862,7.625351 7.30371,10.956301 0.88764,3.231065 1.46811,18.866684 1.47262,39.666665 l 0.007,34.333334 h -10 -10 v -4 c 0,-2.2 -0.30519,-4 -0.67821,-4 -0.37301,0 -3.1034,1.7568 -6.06752,3.90399 -8.9979,6.51805 -24.41675,8.50191 -35.5171,4.5698 z M 595.81402,112.948 c 5.44626,-3.60416 5.51931,-3.75789 5.51931,-11.61467 0,-7.868288 -0.0657,-8.005619 -5.56929,-11.647749 -4.90233,-3.244208 -6.83072,-3.685584 -16.10245,-3.685584 -10.4608,0 -10.56452,0.03422 -15.09738,4.980419 -5.92367,6.463845 -6.27997,13.442584 -1.00629,19.709994 4.79844,5.70262 7.58005,6.67444 17.92277,6.26177 7.00301,-0.27941 9.94807,-1.10215 14.33333,-4.00418 z m 88.69978,16.89578 c -3.01741,-1.07013 -7.96741,-4.06952 -11,-6.6653 L 668,118.45887 v 5.43723 5.43723 H 657.33333 646.66667 V 65.333331 1.3333333 H 657.33333 668 V 24.821816 48.310298 l 5.12854,-4.633328 c 7.71004,-6.96556 15.57073,-9.489428 27.19179,-8.730597 11.27335,0.736126 18.08771,3.784133 25.20497,11.273979 9.66071,10.166439 13.90923,23.772328 12.79045,40.961445 -1.80723,27.766793 -17.90006,45.081433 -41.55775,44.712933 -3.7169,-0.0579 -9.22679,-0.98082 -12.2442,-2.05095 z m 17.29542,-18.34481 c 5.50084,-2.2984 12.008,-10.07262 14.00221,-16.728685 3.49208,-11.655554 0.76915,-26.539119 -6.19656,-33.870426 -5.37966,-5.662015 -9.98117,-7.566528 -18.28154,-7.566528 -8.06619,0 -13.81668,2.261697 -19.66666,7.735004 C 668.00162,64.497392 668,64.50723 668,83.33333 c 0,18.80703 0.005,18.83953 3.66667,22.34366 7.55315,7.22886 20.69866,9.76789 30.14255,5.82198 z m 131.42991,18.76314 c -18.44916,-5.23257 -30.34286,-19.08828 -33.43515,-38.950667 -3.3748,-21.67701 6.07412,-41.534352 24.428,-51.336562 7.25455,-3.874418 10.02039,-4.578799 19.76802,-5.034355 19.32111,-0.902973 32.64543,6.294464 41.13312,22.219005 4.39983,8.254922 8.22444,26.712872 6.47808,31.263822 -0.77633,2.023074 -4.2847,2.24331 -35.73602,2.24331 H 821 l 0.86559,4.327933 c 1.20925,6.046264 7.2245,13.128214 14.16088,16.672064 10.15911,5.19037 25.88086,3.51995 36.2302,-3.84943 l 4.08047,-2.90555 2.3555,3.12275 c 1.29552,1.71751 3.33062,4.7735 4.52243,6.79108 2.13333,3.61143 2.0954,3.72288 -2.44529,7.18623 -10.8648,8.28699 -33.53009,12.22123 -47.53065,8.25037 z M 872,73.23475 c 0,-2.717706 -4.2314,-11.30988 -7.06364,-14.343241 -4.71748,-5.052482 -9.58933,-6.891511 -18.2566,-6.891511 -9.25902,0 -17.33326,3.372129 -20.82154,8.695924 -2.4076,3.67447 -5.84422,12.912816 -5.19574,13.967251 C 821.47237,75.98007 872,74.574182 872,73.23475 Z m 68.97929,57.39887 c -23.80277,-6.00782 -38.78347,-30.0783 -34.56475,-55.53744 2.69527,-16.265474 10.71164,-27.771601 24.45031,-35.094232 6.84739,-3.64962 10.27728,-4.586245 18.54798,-5.065029 18.66812,-1.08068 32.41743,5.560857 40.95749,19.784316 5.49115,9.145505 7.31521,15.625531 7.491,26.612095 L 998,89.999997 963,90.355468 c -30.30392,0.307776 -35,0.627975 -35,2.38645 0,3.091878 4.68717,11.564092 8.22177,14.861112 9.96881,9.29874 29.80377,9.39824 42.70156,0.2142 l 4.08048,-2.90555 2.3555,3.12275 c 1.29552,1.71751 3.33061,4.7735 4.52243,6.79108 2.13332,3.61143 2.0954,3.72288 -2.44529,7.18623 -7.57291,5.77614 -17.60997,8.91964 -30.10312,9.42797 -6.23333,0.25363 -13.59265,-0.10911 -16.35404,-0.80609 z m 37.68738,-57.343114 c 0,-2.765734 -4.20487,-11.337216 -7.06364,-14.398997 -1.615,-1.729685 -4.55657,-3.987873 -6.53682,-5.018196 -4.96265,-2.582066 -18.90225,-2.392587 -24.65035,0.335068 -5.02372,2.383909 -10.40954,9.462654 -12.35153,16.23398 l -1.21151,4.224303 h 25.90692 c 16.91986,0 25.90693,-0.477387 25.90693,-1.376158 z M 161.33333,65.333331 V 1.3333333 H 172 182.66667 V 24.916121 48.498908 l 3.66666,-3.436097 c 6.85118,-6.420354 14.84831,-9.478288 26.45486,-10.115776 12.88544,-0.707731 20.81092,2.083163 26.28083,9.254577 5.35084,7.015316 6.1967,13.910408 6.23172,50.798384 l 0.0326,34.333334 H 234.66667 224 V 97.532294 C 224,77.696665 223.44393,64.136121 222.52211,61.491783 220.59458,55.96247 215.27017,53.333331 206,53.333331 c -8.0662,0 -13.81668,2.261697 -19.66667,7.735004 l -3.66666,3.430572 V 96.916118 129.33333 H 172 161.33333 Z M 373.64939,82.999997 374,36.666665 l 9.66667,-0.391746 9.66666,-0.391746 v 6.838395 6.838395 l 6.07396,-5.346514 c 6.03462,-5.311883 15.57052,-9.546784 21.4969,-9.546784 2.96368,0 3.09581,0.426816 3.09581,10 v 10 l -6.33333,0.02928 c -7.24116,0.03348 -16.11307,3.629236 -20.9917,8.507873 l -3.34164,3.341632 V 97.93939 129.33333 H 383.31606 373.29878 Z M 758.66667,65.333331 V 1.3333333 h 10 10 V 65.333331 129.33333 h -10 -10 z M 2.6666667,104.66666 c 0,-12.83333 0.4853862,-23.33333 1.0786359,-23.33333 0.8714913,0 15.4323744,11.560201 31.6025544,25.08995 1.474655,1.23386 7.624655,6.34516 13.666667,11.35843 C 55.056536,122.79499 60,127.14499 60,127.44838 60,127.75177 47.1,128 31.333333,128 H 2.6666667 Z m 50.2282923,20.21615 c 1.34368,-1.34368 -3.841297,-6.39413 -5.794836,-5.64449 -0.95414,0.36614 -1.591998,0.2373 -1.417462,-0.28631 0.174537,-0.52361 -0.231934,-1.25201 -0.903268,-1.61868 -0.671333,-0.36667 -3.857683,-3.22961 -7.080776,-6.3621 -3.223094,-3.13249 -6.438687,-5.33789 -7.145762,-4.90089 -0.707076,0.43699 -1.120727,0.29994 -0.919224,-0.30457 0.201503,-0.60451 -0.18658,-1.39911 -0.862407,-1.76577 -0.675827,-0.36667 -3.100037,-2.46667 -5.387133,-4.66667 -2.287095,-2.2 -6.156625,-5.5 -8.598953,-7.333334 C 12.342809,90.166663 9.4099912,87.6474 8.2677649,86.401633 7.1255386,85.155866 5.6980172,84.441276 5.0954949,84.813656 4.4929727,85.186035 4,94.413568 4,105.31928 c 0,19.54784 0.042475,19.83461 3,20.25465 5.510395,0.7826 45.016146,0.1877 45.894959,-0.69112 z m 22.438374,-7.05194 c -6.6,-5.4974 -12.905169,-10.70828 -14.011487,-11.57974 -2.835926,-2.23389 -17.673657,-14.646203 -19.426673,-16.251133 -0.800998,-0.733334 -4.089261,-3.433334 -7.307252,-6 C 8.6252982,63.292234 2.6724375,55.354722 2.6600719,41.427578 2.6453247,24.818093 13.22546,9.709441 28.170252,4.9985102 40.459766,1.1245824 44.360515,1.7477241 53.218816,8.9999997 91.71135,40.513769 121.07478,65.027375 123.02716,67.278413 c 3.60694,4.158699 6.53698,10.054106 5.87058,11.811972 -0.32865,0.866953 -1.89317,-1.273721 -3.47671,-4.757055 -1.58353,-3.483333 -3.38148,-6.333333 -3.99543,-6.333333 -0.61396,0 -4.18588,-3.102003 -7.93761,-6.89334 -3.75173,-3.791338 -6.82132,-6.509872 -6.82132,-6.041189 0,0.804743 -5.84231,-4.043489 -12.963342,-10.75762 -1.764862,-1.664015 -3.784966,-2.669417 -4.489119,-2.234226 -0.704154,0.43519 -1.115414,0.296658 -0.913911,-0.307851 0.201503,-0.604508 -0.202142,-1.399106 -0.896987,-1.765773 -0.694846,-0.366666 -4.594846,-3.808162 -8.666667,-7.647767 -4.071821,-3.839606 -8.008983,-6.989606 -8.749248,-7 -0.740266,-0.01039 -2.10989,-1.24218 -3.043609,-2.737303 -0.93372,-1.495122 -2.370753,-2.302417 -3.193407,-1.793988 -0.911151,0.563122 -1.123909,0.322786 -0.544369,-0.614929 0.552284,-0.893614 0.13923,-1.539345 -0.98467,-1.539345 -1.064821,0 -2.314354,-0.985877 -2.776741,-2.190837 -0.462386,-1.204961 -1.151607,-1.879934 -1.5316,-1.49994 -0.379994,0.379993 -3.215871,-1.92422 -6.301949,-5.1204739 C 44.14215,2.1198675 38.757866,1.8554282 24,8.4993489 19.630158,10.466631 9.3185736,20.230761 10.164815,21.600009 10.527392,22.18667 10.27015,22.666666 9.5931665,22.666666 7.4895917,22.666666 4,33.771446 4,40.465564 c 0,3.507026 0.7222612,7.686967 1.6050249,9.288756 0.8827636,1.60179 1.6327636,3.812345 1.6666666,4.912345 0.033903,1.1 0.8562397,1.835134 1.8274149,1.633631 0.9711756,-0.201503 1.4008486,0.224091 0.9548306,0.945764 -1.0844656,1.754701 2.132041,6.753938 4.345481,6.753938 0.966879,0 1.38714,0.6 0.933915,1.333333 -0.453225,0.733333 0.04717,1.333333 1.111993,1.333333 1.06482,0 2.295993,0.938029 2.735939,2.084509 0.44774,1.166792 1.481752,1.663102 2.348663,1.127322 0.962927,-0.595122 1.188898,-0.374915 0.597394,0.582158 -0.523252,0.846639 -0.362111,1.539344 0.358091,1.539344 0.720202,0 3.08865,1.65 5.263216,3.666667 8.870107,8.226029 12.63041,10.92669 14.069415,10.104699 0.833409,-0.476062 1.123755,-0.427837 0.645213,0.107166 -0.754932,0.844002 2.214366,3.891408 14.084305,14.454801 1.442065,1.28333 3.344605,2.33333 4.227868,2.33333 0.883263,0 1.951296,0.9 2.373405,2 0.42211,1.1 1.686303,2 2.809319,2 1.123015,0 1.891846,0.51226 1.708513,1.13835 -0.183334,0.62609 3.266666,4.05043 7.666666,7.60963 4.4,3.5592 8.430333,7.09694 8.956295,7.86165 0.538779,0.78334 5.777951,1.36879 12,1.34093 9.131442,-0.0409 12.025232,-0.60303 16.712202,-3.24655 3.16976,-1.78779 5.52075,-4.04779 5.33333,-5.12692 -0.19922,-1.14708 0.98797,-2.14151 2.92698,-2.45176 l 3.26215,-0.52194 -3.26215,3.49862 c -5.84567,6.26942 -17.54744,11.24229 -26.224118,11.14439 -7.587562,-0.0856 -7.887112,-0.23888 -19.704689,-10.08219 z M 124,110.82935 c 0,-0.95814 1.2744,-3.33671 2.832,-5.28571 L 129.664,102 l -0.9751,3.33333 C 127.50116,109.39358 124,113.4974 124,110.82935 Z m 4.69432,-13.829354 c -0.37941,-1.65 -0.16141,-5.999999 0.48443,-9.666666 l 1.17427,-6.666666 0.15682,9.666666 c 0.15755,9.71154 -0.53263,12.24591 -1.81552,6.666666 z m -2.84258,-50.044357 c -1.54821,-1.258936 -4.30266,-3.488974 -6.121,-4.955641 C 97.687179,24.219741 74.666667,4.7079746 74.666667,3.8045082 c 0,-0.6258129 12.6,-1.1378416 28.000003,-1.1378416 h 28 v 3.4120225 c 0,1.9351563 -0.57713,3.0553412 -1.33334,2.5879772 C 128.6,8.2134414 128,6.9780313 128,5.9213104 128,4.3134545 123.81258,4.0072369 102.33333,4.0443589 l -25.666663,0.044359 3.218978,2.6800157 C 82.423789,8.8819089 83.35879,9.084033 84.306321,7.7243745 85.097023,6.589757 85.219408,7.0260365 84.664159,8.9999997 84.116835,10.945787 84.398243,12 85.464966,12 c 0.904567,0 2.594999,0.894342 3.756517,1.987428 8.847319,8.326069 12.626517,11.185204 13.814267,10.451129 0.77219,-0.477234 0.97684,-0.204278 0.46625,0.621866 -0.50051,0.809846 0.26,2.098622 1.69002,2.863947 1.43002,0.765326 3.39683,2.186393 4.37068,3.157929 0.97385,0.971535 4.75236,4.040932 8.39669,6.820882 3.64433,2.77995 7.37525,6.038986 8.29093,7.242303 2.00747,2.63806 1.89947,3.650473 1.85867,-17.424466 -0.0168,-8.688493 0.54361,-15.966972 1.26372,-16.412022 0.81375,-0.502927 1.29396,6.404323 1.29396,18.612314 0,10.676612 -0.45,19.39206 -1,19.367662 -0.55,-0.0244 -2.26672,-1.074397 -3.81493,-2.333333 z"
         id="path4" />
      <path
         style="fill:#696969"
         d="m 287.99137,130.75421 c -10.03236,-3.05171 -18.45577,-10.72794 -21.33049,-19.43841 -0.89177,-2.7021 -1.38131,-8.68362 -1.08785,-13.292263 0.66271,-10.407715 5.06426,-17.664476 13.83022,-22.80167 11.75584,-6.889383 33.25181,-5.441478 43.17475,2.908124 l 4.08867,3.440389 v -9.272046 c 0,-7.492487 -0.55478,-9.977326 -2.89054,-12.946764 -3.76683,-4.788756 -10.11185,-7.351572 -18.20101,-7.351572 -7.96672,0 -13.83986,1.910109 -21.14869,6.878141 -3.06546,2.083689 -5.86399,3.788525 -6.21896,3.788525 -0.35497,0 -2.47536,-2.97405 -4.71196,-6.609001 l -4.06656,-6.609001 4.95219,-4.084736 c 7.4801,-6.16984 17.93516,-9.660664 31.08323,-10.378334 16.04886,-0.876006 25.13011,1.88609 33.35481,10.144986 C 347.20714,53.553415 348,58.067315 348,97.398958 v 31.934372 h -10.66667 -10.66666 v -3.94493 -3.94493 l -6.518,4.05182 c -9.63606,5.9901 -22.71958,8.12974 -32.1573,5.25892 z m 29.00266,-15.47173 c 8.26713,-3.45423 9.67264,-5.48115 9.67264,-13.94915 0,-8.201874 -1.06785,-9.856056 -8.93379,-13.839215 -6.0716,-3.074538 -18.60494,-2.838559 -24.00148,0.451902 -15.44503,9.417388 -7.76425,29.368833 11.31142,29.382323 3.87356,0.003 9.2516,-0.91789 11.95121,-2.04586 z m 148.72069,14.86849 c -17.72983,-5.8102 -28.63984,-17.97957 -32.38506,-36.123329 -6.22983,-30.180528 13.43313,-57.331678 42.78364,-59.076809 28.41087,-1.689261 47.0278,16.220897 48.21285,46.382498 l 0.34052,8.666667 -35.5438,0.666666 -35.54381,0.666667 1.7717,5.150319 c 3.7674,10.951841 14.59363,18.103401 27.4816,18.153731 8.32222,0.0325 16.60442,-2.43867 22.68528,-6.76863 l 4.00813,-2.85403 2.23711,3.073 c 1.23042,1.69016 3.31382,4.71095 4.62978,6.71287 l 2.39265,3.63987 -4.64721,3.5446 c -2.55597,1.94953 -7.83266,4.77464 -11.72599,6.27803 -9.07722,3.50512 -28.68438,4.5138 -36.69739,1.88788 z m 38.79023,-59.150973 c -2.27757,-9.498631 -9.24184,-16.933668 -17.27267,-18.44026 -2.57907,-0.483836 -7.91812,-0.611936 -11.86457,-0.284667 -10.88646,0.90279 -17.56624,6.981447 -21.30925,19.391594 l -0.90483,3 h 26.11526 26.11525 z M 559.0705,129.80712 C 535.17665,121.34313 532.20018,87.33858 554.27308,74.999086 565.48722,68.73 581.86004,69.41258 593.87941,76.650265 l 7.45392,4.488518 v -7.278884 c 0,-4.003387 -0.87973,-9.384388 -1.95496,-11.95778 -5.25808,-12.584352 -30.53289,-13.154571 -43.55631,-0.982664 l -3.51127,3.281692 -4.35468,-7.611186 -4.35468,-7.611187 3.19929,-2.583293 c 1.7596,-1.420811 7.09928,-4.468926 11.86595,-6.773588 7.30327,-3.531099 10.57658,-4.274157 20.80736,-4.723375 16.197,-0.711186 25.16319,1.858268 33.07554,9.478512 3.64647,3.511843 6.38862,7.625351 7.30371,10.956301 0.88764,3.231065 1.46811,18.866684 1.47262,39.666665 l 0.007,34.333334 h -10 -10 v -4 c 0,-2.2 -0.30519,-4 -0.67821,-4 -0.37301,0 -3.1034,1.7568 -6.06752,3.90399 -8.9979,6.51805 -24.41675,8.50191 -35.5171,4.5698 z M 595.81402,112.948 c 5.44626,-3.60416 5.51931,-3.75789 5.51931,-11.61467 0,-7.868288 -0.0657,-8.005619 -5.56929,-11.647749 -4.90233,-3.244208 -6.83072,-3.685584 -16.10245,-3.685584 -10.4608,0 -10.56452,0.03422 -15.09738,4.980419 -5.92367,6.463845 -6.27997,13.442584 -1.00629,19.709994 4.79844,5.70262 7.58005,6.67444 17.92277,6.26177 7.00301,-0.27941 9.94807,-1.10215 14.33333,-4.00418 z m 88.69978,16.89578 c -3.01741,-1.07013 -7.96741,-4.06952 -11,-6.6653 L 668,118.45887 v 5.43723 5.43723 H 657.33333 646.66667 V 65.333331 1.3333333 H 657.33333 668 V 24.821816 48.310298 l 5.12854,-4.633328 c 7.71004,-6.96556 15.57073,-9.489428 27.19179,-8.730597 11.27335,0.736126 18.08771,3.784133 25.20497,11.273979 9.66071,10.166439 13.90923,23.772328 12.79045,40.961445 -1.80723,27.766793 -17.90006,45.081433 -41.55775,44.712933 -3.7169,-0.0579 -9.22679,-0.98082 -12.2442,-2.05095 z m 17.29542,-18.34481 c 5.50084,-2.2984 12.008,-10.07262 14.00221,-16.728685 3.49208,-11.655554 0.76915,-26.539119 -6.19656,-33.870426 -5.37966,-5.662015 -9.98117,-7.566528 -18.28154,-7.566528 -8.06619,0 -13.81668,2.261697 -19.66666,7.735004 C 668.00162,64.497392 668,64.50723 668,83.33333 c 0,18.80703 0.005,18.83953 3.66667,22.34366 7.55315,7.22886 20.69866,9.76789 30.14255,5.82198 z m 131.42991,18.76314 c -18.44916,-5.23257 -30.34286,-19.08828 -33.43515,-38.950667 -3.3748,-21.67701 6.07412,-41.534352 24.428,-51.336562 7.25455,-3.874418 10.02039,-4.578799 19.76802,-5.034355 19.32111,-0.902973 32.64543,6.294464 41.13312,22.219005 4.39983,8.254922 8.22444,26.712872 6.47808,31.263822 -0.77633,2.023074 -4.2847,2.24331 -35.73602,2.24331 H 821 l 0.86559,4.327933 c 1.20925,6.046264 7.2245,13.128214 14.16088,16.672064 10.15911,5.19037 25.88086,3.51995 36.2302,-3.84943 l 4.08047,-2.90555 2.3555,3.12275 c 1.29552,1.71751 3.33062,4.7735 4.52243,6.79108 2.13333,3.61143 2.0954,3.72288 -2.44529,7.18623 -10.8648,8.28699 -33.53009,12.22123 -47.53065,8.25037 z M 872,73.23475 c 0,-2.717706 -4.2314,-11.30988 -7.06364,-14.343241 -4.71748,-5.052482 -9.58933,-6.891511 -18.2566,-6.891511 -9.25902,0 -17.33326,3.372129 -20.82154,8.695924 -2.4076,3.67447 -5.84422,12.912816 -5.19574,13.967251 C 821.47237,75.98007 872,74.574182 872,73.23475 Z m 68.97929,57.39887 c -23.80277,-6.00782 -38.78347,-30.0783 -34.56475,-55.53744 2.69527,-16.265474 10.71164,-27.771601 24.45031,-35.094232 6.84739,-3.64962 10.27728,-4.586245 18.54798,-5.065029 18.66812,-1.08068 32.41743,5.560857 40.95749,19.784316 5.49115,9.145505 7.31521,15.625531 7.491,26.612095 L 998,89.999997 963,90.355468 c -30.30392,0.307776 -35,0.627975 -35,2.38645 0,3.091878 4.68717,11.564092 8.22177,14.861112 9.96881,9.29874 29.80377,9.39824 42.70156,0.2142 l 4.08048,-2.90555 2.3555,3.12275 c 1.29552,1.71751 3.33061,4.7735 4.52243,6.79108 2.13332,3.61143 2.0954,3.72288 -2.44529,7.18623 -7.57291,5.77614 -17.60997,8.91964 -30.10312,9.42797 -6.23333,0.25363 -13.59265,-0.10911 -16.35404,-0.80609 z m 37.68738,-57.343114 c 0,-2.765734 -4.20487,-11.337216 -7.06364,-14.398997 -1.615,-1.729685 -4.55657,-3.987873 -6.53682,-5.018196 -4.96265,-2.582066 -18.90225,-2.392587 -24.65035,0.335068 -5.02372,2.383909 -10.40954,9.462654 -12.35153,16.23398 l -1.21151,4.224303 h 25.90692 c 16.91986,0 25.90693,-0.477387 25.90693,-1.376158 z M 161.33333,65.333331 V 1.3333333 H 172 182.66667 V 24.916121 48.498908 l 3.66666,-3.436097 c 6.85118,-6.420354 14.84831,-9.478288 26.45486,-10.115776 12.88544,-0.707731 20.81092,2.083163 26.28083,9.254577 5.35084,7.015316 6.1967,13.910408 6.23172,50.798384 l 0.0326,34.333334 H 234.66667 224 V 97.532294 C 224,77.696665 223.44393,64.136121 222.52211,61.491783 220.59458,55.96247 215.27017,53.333331 206,53.333331 c -8.0662,0 -13.81668,2.261697 -19.66667,7.735004 l -3.66666,3.430572 V 96.916118 129.33333 H 172 161.33333 Z M 373.64939,82.999997 374,36.666665 l 9.66667,-0.391746 9.66666,-0.391746 v 6.838395 6.838395 l 6.07396,-5.346514 c 6.03462,-5.311883 15.57052,-9.546784 21.4969,-9.546784 2.96368,0 3.09581,0.426816 3.09581,10 v 10 l -6.33333,0.02928 c -7.24116,0.03348 -16.11307,3.629236 -20.9917,8.507873 l -3.34164,3.341632 V 97.93939 129.33333 H 383.31606 373.29878 Z M 758.66667,65.333331 V 1.3333333 h 10 10 V 65.333331 129.33333 h -10 -10 z"
         id="path3" />
      <path
         style="fill:#010101"
         d="m 287.91839,130.18004 c -16.03416,-4.3238 -25.05393,-19.71079 -21.32414,-36.377243 4.78748,-21.392749 32.32019,-29.810316 53.82768,-16.456721 3.53206,2.19299 6.68206,3.987254 7,3.987254 1.57885,0 0.30421,-15.507436 -1.60541,-19.531667 -5.97542,-12.592265 -31.40479,-13.46188 -44.12799,-1.509057 -1.65624,1.555959 -3.22591,2.576652 -3.48815,2.268205 -0.26224,-0.308448 -2.16406,-3.48322 -4.22625,-7.05505 l -3.74945,-6.494237 3.221,-2.553204 c 18.82821,-14.924681 50.67076,-15.745387 64.74736,-1.668791 3.21637,3.216366 6.21498,7.796469 7.0329,10.742087 0.84137,3.030104 1.4289,19.20887 1.43329,39.46838 l 0.007,34.333334 H 337.33333 328 v -3.77778 c 0,-5.62126 -1.1294,-5.8451 -6.74048,-1.33591 -4.97433,3.99747 -16.88556,7.81562 -23.92619,7.66954 -1.83333,-0.038 -6.07006,-0.80716 -9.41494,-1.70914 z m 25.77314,-13.35383 c 3.36344,-1.01224 7.9588,-3.1531 10.21191,-4.75745 C 327.69132,109.37155 328,108.55356 328,101.21317 v -7.938571 l -6.02923,-3.823627 c -11.62398,-7.371709 -25.0388,-6.568301 -32.51564,1.947349 -8.32567,9.482419 -3.92894,22.046739 9.0963,25.994039 5.20219,1.57653 8.4204,1.45619 15.1401,-0.56615 z m 156.95892,13.83952 c -19.69817,-3.34168 -34.4297,-19.03872 -37.27623,-39.719334 -3.07534,-22.343018 7.54287,-43.259825 26.4285,-52.061481 10.32339,-4.811222 28.11829,-5.019955 38.19728,-0.448051 15.03537,6.820157 24.64848,21.970778 25.73742,40.563133 l 0.60521,10.333333 h -35.50465 c -27.52178,0 -35.50172,0.374734 -35.49162,1.666667 0.007,0.916666 1.46167,4.778045 3.23223,8.580841 5.06834,10.885732 18.31197,17.692052 30.57157,15.711712 6.43049,-1.03874 16.42548,-5.16188 19.70279,-8.1278 2.10083,-1.90123 2.66314,-1.55015 7.02197,4.38426 l 4.73826,6.45099 -2.97326,2.52759 c -4.81555,4.09374 -16.20415,8.81977 -24.54556,10.18589 -8.71134,1.42671 -11.79489,1.4195 -20.44391,-0.0478 z m 34.68288,-57.2456 c 0,-7.463378 -6.61524,-16.189302 -15.33333,-20.225647 -13.32668,-6.170052 -28.85013,0.01226 -34.60303,13.780886 -3.93188,9.410311 -4.95484,9.024628 23.93636,9.024628 24.81952,0 26,-0.117134 26,-2.579867 z m 54.92807,56.12039 c -13.22502,-4.69908 -20.20283,-14.67177 -20.20283,-28.87386 0,-15.401201 8.37896,-25.574306 23.68032,-28.750856 10.36373,-2.151502 23.52147,0.205703 30.87257,5.530812 2.951,2.137693 5.67065,3.886714 6.04366,3.886714 0.37302,0 0.67821,-4.153964 0.67821,-9.231032 0,-7.932969 -0.47486,-9.795381 -3.37696,-13.244331 -4.07545,-4.843395 -11.01515,-7.342308 -19.8432,-7.145331 -7.589,0.169332 -12.54395,1.925898 -20.41687,7.237932 l -5.63704,3.803434 -4.03789,-6.377002 -4.03789,-6.377002 4.8712,-4.310971 c 8.19431,-7.251884 17.69181,-10.127267 33.81199,-10.236629 15.6086,-0.105891 22.64719,2.097086 29.79047,9.323995 8.08277,8.177402 8.17156,8.673114 8.63826,48.223603 l 0.42873,36.333334 h -10.0954 -10.0954 v -4.89909 -4.89908 l -3.01661,2.83396 c -8.4952,7.98083 -26.32242,11.34031 -38.05532,7.1714 z m 27.07193,-12.34556 c 2.93334,-0.80126 7.28334,-2.92845 9.66667,-4.72709 4.02947,-3.04093 4.33333,-3.82172 4.33333,-11.13454 0,-7.334882 -0.29709,-8.090895 -4.41329,-11.230472 -12.76735,-9.738137 -33.26862,-6.044307 -36.76664,6.624453 -2.5281,9.156039 1.68487,16.533829 11.42501,20.007599 6.27824,2.23911 8.95573,2.31729 15.75492,0.46005 z m 98.53808,12.45013 c -3.73738,-1.33651 -9.22373,-4.35341 -12.19187,-6.70423 -2.96814,-2.35081 -5.76028,-4.2742 -6.20475,-4.2742 -0.44447,0 -0.80812,2.4 -0.80812,5.33334 v 5.33333 H 657.33333 648 V 65.333331 1.3333333 h 9.33333 9.33334 V 24.666666 c 0,12.833333 0.28782,23.333332 0.63962,23.333332 0.35179,0 3.76848,-2.36815 7.59265,-5.262556 8.15118,-6.169396 17.17166,-8.711788 27.22738,-7.673946 8.35345,0.862152 19.24813,6.358971 24.19709,12.208436 15.24983,18.02469 15.40146,52.382204 0.31523,71.430118 -8.48684,10.71551 -27.28964,15.7627 -40.76723,10.94304 z m 18.75717,-19.37473 c 11.91635,-6.51572 17.09238,-28.364812 10.12782,-42.751656 -7.24927,-14.975006 -23.42779,-19.514154 -38.3616,-10.762976 -9.15695,5.365951 -9.72813,6.909879 -9.72813,26.295266 0,9.418372 0.62579,18.293626 1.39066,19.722786 1.70706,3.18967 10.08695,8.60414 16.12862,10.42113 5.97452,1.7968 13.87502,0.66654 20.44263,-2.92455 z m 132.61357,20.38465 c -15.6423,-2.64851 -29.88555,-15.11802 -34.56172,-30.25769 -7.95941,-25.769563 2.62661,-51.928905 25.15636,-62.164473 9.11049,-4.139014 27.65473,-4.05403 36.82988,0.168783 15.57255,7.167188 24.47471,21.412029 26.62139,42.598367 l 0.84436,8.333333 h -36.21076 -36.21075 l 0.87903,3.666666 c 3.20835,13.382854 15.14625,22.415644 29.375,22.226554 8.11696,-0.10787 18.80953,-3.7675 23.55467,-8.0618 2.10084,-1.90123 2.66315,-1.55015 7.02198,4.38426 l 4.73826,6.45099 -2.97326,2.52759 c -4.81555,4.09374 -16.20415,8.81977 -24.54557,10.18589 -8.72435,1.42884 -11.7862,1.42011 -20.51887,-0.0585 z m 34.31914,-59.508578 c -3.87343,-23.869149 -38.88904,-27.582057 -49.05507,-5.201595 -4.76413,10.48821 -5.78346,10.05516 23.66824,10.05516 h 26.17445 z m 71.10538,59.069758 c -10.25987,-2.37941 -17.18503,-6.31059 -23.84541,-13.53625 -9.41542,-10.21452 -11.48793,-16.2305 -11.48793,-33.34661 0,-12.255872 0.47762,-15.700508 2.9057,-20.956303 4.074,-8.818526 14.08418,-19.017551 22.92825,-23.360807 6.51802,-3.200948 9.0697,-3.680144 19.49939,-3.66192 10.09392,0.01764 13.17892,0.57055 19.4221,3.480938 15.23867,7.103823 23.95219,20.884466 24.9747,39.498092 l 0.60427,11 h -35.64508 -35.64508 l 0.87903,3.666666 c 3.20835,13.382854 15.14625,22.415644 29.375,22.226554 8.18623,-0.1088 18.81688,-3.77416 23.66118,-8.1582 1.31463,-1.18971 2.58931,-1.91679 2.83265,-1.61574 0.24333,0.30106 2.35543,3.37843 4.69356,6.83859 l 4.25114,6.29121 -5.19422,3.43737 c -12.24895,8.10597 -30.22695,11.4391 -44.20925,8.19641 z M 978.22795,71.146432 C 975.18317,52.383608 950.90699,44.327865 935.7764,57.059419 c -4.21453,3.546291 -9.027,12.347817 -9.08045,16.607245 -0.0269,2.143976 2.09485,2.333333 26.14517,2.333333 h 26.17446 z M 162.66667,65.333331 V 1.3333333 H 172 181.33333 V 24.666666 c 0,12.833333 0.29861,23.333332 0.66358,23.333332 0.36497,0 3.51497,-2.042872 7,-4.539716 13.12716,-9.404929 31.33026,-11.464078 42.59407,-4.818272 11.47374,6.769673 12.18748,9.883346 12.30758,53.69132 l 0.10144,37 h -9.33333 -9.33334 l -0.0752,-31 c -0.0495,-20.405405 -0.61914,-32.552204 -1.66667,-35.541781 -2.50838,-7.158763 -7.64914,-10.136995 -17.36041,-10.057541 -8.69357,0.07113 -13.52942,1.937292 -20.73783,8.002765 l -4.15984,3.500274 V 96.785188 129.33333 H 172 162.66667 Z M 373.33333,83.33333 V 37.333332 h 10 10 v 6.138123 6.138122 l 4.70374,-4.129937 c 6.14606,-5.39631 13.72742,-9.19726 20.50724,-10.281397 L 424,34.325843 v 9.985515 c 0,9.827445 -0.0508,9.97581 -3.20711,9.372438 -5.01027,-0.957775 -16.95067,3.136281 -22.45956,7.700804 l -5,4.142875 v 31.902926 31.902929 h -10 -10 z M 758.66667,65.333331 V 1.3333333 h 10 10 V 65.333331 129.33333 h -10 -10 z"
         id="path2" />
    </g>
  </g>
</svg>
