<svg xmlns:inkscape="http://www.inkscape.org/namespaces/inkscape" xmlns:sodipodi="http://sodipodi.sourceforge.net/DTD/sodipodi-0.dtd" xmlns="http://www.w3.org/2000/svg" xmlns:svg="http://www.w3.org/2000/svg" version="1.1" id="svg19" sodipodi:docname="Logo_MEDIUM_COLOR notag.svg" inkscape:version="1.3 (0e150ed6c4, 2023-07-21)" viewBox="1.89 11.41 114.71 26.56">
  <defs id="defs19"/>
  <sodipodi:namedview id="namedview19" pagecolor="#ffffff" bordercolor="#000000" borderopacity="0.25" inkscape:showpageshadow="2" inkscape:pageopacity="0.0" inkscape:pagecheckerboard="0" inkscape:deskcolor="#d1d1d1" inkscape:document-units="mm" showguides="false" inkscape:zoom="5.942862" inkscape:cx="95.240307" inkscape:cy="32.896608" inkscape:window-width="1569" inkscape:window-height="817" inkscape:window-x="2911" inkscape:window-y="174" inkscape:window-maximized="0" inkscape:current-layer="svg19"/>
  <path d="m 28.1802,23.628022 -0.06,-0.1 c -0.81,-1.4 -1.771,-3.105 -2.62,-4.609 l -0.034,-0.061 c -0.621,-1.1 -1.179,-2.09 -1.567,-2.764 a 9.209,9.209 0 0 0 -5.641,-4.393 9.81,9.81 0 0 0 -7.429,1.11 9.448,9.448 0 0 0 -3.5230006,3.69 l -0.028,0.05 c -1.4,2.453 -3.313,5.812 -4.188,7.371 a 9.435,9.435 0 0 0 8.2270006,14.049 h 8.8 a 9.433,9.433 0 0 0 8.057,-14.344 z m -4,-3.6 a 13.214,13.214 0 0 0 -9.586,-0.536 12.877,12.877 0 0 0 -6.3000006,4.574 8.3,8.3 0 0 1 1.1320001,-8.012 5.812,5.812 0 0 1 0.6880005,-0.767 8.529,8.529 0 0 1 5.778,-2.317 7.67,7.67 0 0 1 1.953,0.25 7.548,7.548 0 0 1 4.68,3.66 c 0.364,0.631 0.877,1.541 1.452,2.56 l 0.335,0.594 0.056,0.1 c -0.064,-0.043 -0.128,-0.077 -0.192,-0.109 z m -14.9930005,5.564 a 10.88,10.88 0 0 1 5.8790005,-4.609 12.693,12.693 0 0 1 3.844,-0.571 l 0.044,0.055 a 10.337,10.337 0 0 1 1.409,7.374 12.56,12.56 0 0 1 -1.5,3.843 9.545,9.545 0 0 1 -7.169,-2.563 12.608,12.608 0 0 1 -2.5240005,-3.135 l -0.1000002,-0.158 z m 12.7110005,2.566 a 12.072,12.072 0 0 0 -0.785,-7 4.424,4.424 0 0 0 -0.311,-0.58 l 0.148,0.025 a 8.743,8.743 0 0 1 5.039,2.706 7.859,7.859 0 0 1 1.873,6.586 7.956,7.956 0 0 1 -7.945,6.514 h -3.407 a 13.33,13.33 0 0 0 5.388,-8.251 z m -4.206,5.151 a 8.7,8.7 0 0 1 -4.7,2.92 7.874,7.874 0 0 1 -8.5480006,-11.54 c 0.4,-0.715 1.017,-1.8 1.7,-3.008 0.025,-0.046 0.05,-0.092 0.074,-0.139 0,0.12 0,0.235 0.014,0.345 a 13.272,13.272 0 0 0 4.4120006,8.4 11.639,11.639 0 0 0 7.048,3.022 z" fill="#2ba5b1" id="path1" clip-path="none" style="display:inline"/>
  <g id="g19" transform="matrix(1.2073904,0,0,1.1535658,-17.255689,-0.61138787)" clip-path="none" style="stroke-width:1.02266;opacity:0.75182482">
    <polygon points="68.287,24.259 72.896,24.259 72.896,22.94 68.287,22.94 68.287,20.142 72.896,20.142 72.896,18.811 66.919,18.811 66.919,28.412 72.896,28.412 72.896,27.081 68.287,27.081 " id="polygon14" style="stroke-width:1.02266"/>
    <path d="m 76.584,24.327 h 1.421 a 24.432,24.432 0 0 1 2.307,4.035 l 0.021,0.05 h 1.613 L 81.9,28.3 a 19.3,19.3 0 0 0 -2.095,-4.011 2.769,2.769 0 0 0 2.146,-2.737 2.972,2.972 0 0 0 -3.211,-2.741 h -3.524 v 9.6 h 1.368 z M 78.9,23.014 h -2.316 v -2.9 h 2.106 c 1.185,0 1.893,0.729 1.893,1.434 0,1.002 -0.535,1.466 -1.683,1.466 z" id="path14" style="stroke-width:1.02266"/>
    <path d="m 91.979,26.83 v -3.59 h -4.788 l 0.452,1.332 h 2.851 l 0.015,1.775 a 3.72,3.72 0 0 1 -2.319,0.838 3.45,3.45 0 0 1 -3.474,-3.58 3.488,3.488 0 0 1 3.458,-3.59 2.994,2.994 0 0 1 2.526,1.175 l 0.117,0.152 1.249,-0.652 -0.176,-0.218 a 4.561,4.561 0 0 0 -3.7,-1.783 4.742,4.742 0 0 0 -4.89,4.916 4.748,4.748 0 0 0 4.888,4.929 4.945,4.945 0 0 0 3.732,-1.634 z" id="path15" style="stroke-width:1.02266"/>
    <path d="m 97.8,18.689 a 4.672,4.672 0 0 0 -4.732,4.923 4.736,4.736 0 1 0 9.465,0 4.673,4.673 0 0 0 -4.733,-4.923 z m 3.336,4.923 a 3.323,3.323 0 0 1 -3.336,3.6 3.287,3.287 0 0 1 -3.335,-3.6 3.345,3.345 0 1 1 6.671,0 z" id="path16" style="stroke-width:1.02266"/>
    <path d="m 48.254,25.669 c 0,-1.911 -1.669,-2.467 -2.774,-2.835 L 45.407,22.81 c -1.08,-0.356 -1.932,-0.636 -1.932,-1.527 0,-0.742 0.646,-1.24 1.608,-1.24 a 2.928,2.928 0 0 1 1.5,0.5 l 0.054,0.033 0.979,-0.978 -0.1,-0.052 C 47.435,19.504 47.354,19.458 47.269,19.41 a 4.1,4.1 0 0 0 -2.186,-0.645 c -1.731,0 -2.988,1.061 -2.988,2.522 0,1.812 1.619,2.353 2.489,2.643 0.085,0.03 0.168,0.057 0.249,0.083 1.1,0.359 2.053,0.67 2.053,1.66 a 1.646,1.646 0 0 1 -1.816,1.559 3.657,3.657 0 0 1 -2.252,-0.619 l -0.075,-0.053 -0.044,0.081 c -0.184,0.338 -0.36,0.686 -0.524,1.033 l -0.03,0.064 0.06,0.039 a 4.623,4.623 0 0 0 2.865,0.761 2.97,2.97 0 0 0 3.184,-2.869 z" id="path17" style="stroke-width:1.02266"/>
    <path d="m 59.049,21.794 a 20.132,20.132 0 0 1 4.584,6.569 l 0.021,0.049 h 0.99 v -9.6 h -1.335 v 6.012 A 24.527,24.527 0 0 0 57.845,18.89 l -0.13,-0.1 v 9.621 h 1.334 z" id="path18" style="stroke-width:1.02266"/>
    <path d="m 109.523,18.811 v 6.012 a 24.549,24.549 0 0 0 -5.464,-5.934 l -0.13,-0.1 v 9.621 h 1.334 v -6.616 a 20.167,20.167 0 0 1 4.583,6.569 l 0.021,0.049 h 0.991 v -9.6 z" id="path19" style="stroke-width:1.02266"/>
    <polygon points="48.591,19.152 52.12,24.145 52.12,28.412 53.479,28.412 53.479,24.145 56.927,19.263 57,19.161 55.364,18.83 52.836,22.546 52.799,22.613 50.26,18.865 50.229,18.82 " id="polygon19" style="display:inline;stroke-width:1.02266"/>
  </g>
</svg>