<?xml version="1.0" encoding="UTF-8"?>
<svg id="Layer_1" data-name="Layer 1" xmlns="http://www.w3.org/2000/svg" width="223.836" height="60.804" viewBox="0 0 223.863 60.804">
  <defs>
    <style>
      .cls-1 {
        isolation: isolate;
      }

      .cls-2 {
        fill: #0c2340;
      }
    </style>
  </defs>
  <g class="cls-1">
    <path class="cls-2" d="M1.831,38.5v-7.052H0v-.847c2.118-.465,2.897-1.982,3.143-4.264h1.203v3.881h3.075v1.23h-3.075v7.052c0,1.654.465,2.542,1.585,2.542s1.476-.424,2.296-1.203l.601.601c-.984,1.203-2.542,2.009-3.704,2.009-1.941,0-3.28-1.23-3.28-3.95h-.014Z"/>
    <path class="cls-2" d="M14.993,39.443c0-2.993,3.499-4.305,7.517-5.002,0-2.651-.355-3.704-2.364-3.704s-2.009.56-2.009,1.695-.533,1.23-1.203,1.23-1.23-.533-1.23-1.23c0-1.695,2.228-2.815,4.483-2.815,3.417,0,4.838,1.449,4.838,4.797v5.33c0,.888.287,1.38.806,1.38s.738-.287.984-.533l.492.67c-.67.711-1.558,1.093-2.323,1.093-1.38,0-2.228-.779-2.392-2.05-1.722,1.558-2.993,2.118-4.414,2.118s-3.171-1.093-3.171-2.966h0l-.014-.014ZM22.509,39.128v-3.594c-3.348.779-4.865,1.941-4.865,3.499s.779,1.804,1.654,1.804,1.585-.246,3.212-1.695h0v-.014Z"/>
    <path class="cls-2" d="M33.621,50.308c0-1.38,1.585-1.38,2.679-4.127l1.763-4.414-4.059-8.788c-.738-1.585-1.271-2.077-2.364-2.077v-.711h6.246v.711c-1.558,0-1.9.355-1.134,2.077l2.569,5.644,2.255-5.644c.629-1.626.424-2.077-1.025-2.077v-.711h4.934v.711c-1.093,0-1.872.492-2.501,2.077l-6.874,17.179c-.287.711-.738,1.298-1.298,1.298s-1.203-.287-1.203-1.162h0l.014.014Z"/>
    <path class="cls-2" d="M50.144,41.206c2.364,0,2.788-.601,2.788-4.127v-11.152c0-3.526-.424-4.127-2.788-4.127v-.738l5.289-.888v16.892c0,3.526.465,4.127,2.788,4.127v.738h-8.077v-.738h0v.014Z"/>
    <path class="cls-2" d="M65.56,36.067c0-3.567,3.212-6.451,7.12-6.451s7.12,2.897,7.12,6.451-3.212,6.492-7.12,6.492-7.12-2.925-7.12-6.492h0ZM76.958,36.067c0-2.815-1.339-5.111-4.264-5.111s-4.264,2.296-4.264,5.111,1.38,5.111,4.264,5.111,4.264-2.296,4.264-5.111Z"/>
    <path class="cls-2" d="M87.782,41.206c2.323,0,2.788-.601,2.788-4.127v-1.763c0-3.526-.465-4.086-2.788-4.086v-.738l4.688-.888c.178.355.492,1.804.601,2.542.711-1.408,2.296-2.542,3.704-2.542s2.788,1.298,2.788,2.187-.314,1.654-1.408,1.654-1.23-.601-1.23-1.271-.424-1.162-1.134-1.162-2.72,1.298-2.72,4.127v1.941c0,3.526.424,4.127,2.788,4.127v.738h-8.077v-.738h0Z"/>
  </g>
  <rect class="cls-2" x="115.677" width=".957" height="60.804"/>
  <g class="cls-1">
    <path class="cls-2" d="M131.694,36.067c0-3.567,2.788-6.451,6.136-6.451s3.239.779,4.305,2.077v-5.754c0-3.526-.424-4.127-2.788-4.127v-.738l5.289-.888v16.933c0,3.348.56,3.772,2.433,3.772v.67l-4.332.888c-.178-.355-.465-1.476-.56-2.05-.984,1.23-2.392,2.146-4.332,2.146-3.348,0-6.136-2.925-6.136-6.492h0l-.014.014ZM142.136,38.349v-4.551c-.629-1.654-1.982-2.788-3.567-2.788-2.747,0-4.018,2.228-4.018,5.043s1.271,5.084,4.018,5.084,2.925-1.134,3.567-2.788h0Z"/>
    <path class="cls-2" d="M156.855,37.256v-2.228c0-3.526-.424-4.127-2.788-4.127v-.711h5.289v6.874c0,2.296.779,3.772,2.679,3.772s3.813-1.298,3.813-3.499v-2.323c0-3.526-.465-4.127-2.815-4.127v-.711h5.289v6.915c0,3.348.56,3.772,2.433,3.772v.67l-4.332.888c-.178-.355-.492-1.558-.56-2.146-.888.916-2.569,2.255-4.619,2.255-3.239,0-4.373-2.296-4.373-5.289h0l-.014.014Z"/>
    <path class="cls-2" d="M178.435,41.206c2.323,0,2.788-.601,2.788-4.127v-1.763c0-3.526-.465-4.086-2.788-4.086v-.738l4.688-.888c.178.355.492,1.804.601,2.542.957-1.203,2.542-2.542,4.592-2.542s3.28,1.025,3.772,2.651c.806-1.162,2.856-2.651,4.934-2.651,3.143,0,4.059,2.255,4.059,5.262v2.228c0,3.526.465,4.127,2.788,4.127v.738h-7.476v-.738c1.941,0,2.187-.383,2.187-4.127v-2.05c0-2.296-.67-3.772-2.501-3.772s-3.663,1.339-3.663,3.526v2.296c0,3.745.246,4.127,2.228,4.127v.738h-6.943v-.738c1.941,0,2.228-.383,2.228-4.127v-2.05c0-2.296-.711-3.772-2.542-3.772s-3.635,1.339-3.635,3.526v2.296c0,3.663.246,4.127,2.187,4.127v.738h-7.476v-.738h-.027v-.014Z"/>
    <path class="cls-2" d="M211.55,39.443c0-2.993,3.499-4.305,7.517-5.002,0-2.651-.355-3.704-2.364-3.704s-2.009.56-2.009,1.695-.533,1.23-1.203,1.23-1.23-.533-1.23-1.23c0-1.695,2.228-2.815,4.483-2.815,3.417,0,4.838,1.449,4.838,4.797v5.33c0,.888.287,1.38.806,1.38s.738-.287.984-.533l.492.67c-.67.711-1.558,1.093-2.323,1.093-1.38,0-2.228-.779-2.392-2.05-1.722,1.558-2.993,2.118-4.414,2.118s-3.171-1.093-3.171-2.966h0l-.014-.014ZM219.066,39.128v-3.594c-3.348.779-4.865,1.941-4.865,3.499s.779,1.804,1.654,1.804,1.585-.246,3.212-1.695h0v-.014Z"/>
  </g>
</svg>