<?xml version="1.0" encoding="UTF-8"?> <svg xmlns="http://www.w3.org/2000/svg" xmlns:xlink="http://www.w3.org/1999/xlink" width="260" height="60.804" viewBox="0 0 260 60.804"><defs><clipPath id="clip-path"><rect id="Rectangle_2" data-name="Rectangle 2" width="260" height="60.804" fill="none"></rect></clipPath></defs><g id="Group_3" data-name="Group 3" transform="translate(0 0)"><rect id="Rectangle_1" data-name="Rectangle 1" width="0.976" height="60.804" transform="translate(117.192 0)" fill="#001a31"></rect><g id="Group_2" data-name="Group 2" transform="translate(0 0)"><g id="Group_1" data-name="Group 1" clip-path="url(#clip-path)"><path id="Path_1" data-name="Path 1" d="M0,41.517v-.858c2.143-.458,2.935-1.994,3.178-4.323H4.4v3.934H7.5v1.247H4.4v7.206c0,1.723.462,2.613,1.6,2.613a3.855,3.855,0,0,0,2.324-1.25l.6.612a5.5,5.5,0,0,1-3.75,2.071c-1.96,0-3.32-1.247-3.32-4.045V41.517Z" transform="translate(0 -13.285)" fill="#001a31"></path><path id="Path_2" data-name="Path 2" d="M32.1,47.573c-3.391.78-4.925,1.966-4.925,3.541a1.689,1.689,0,0,0,1.679,1.815c.749,0,1.6-.244,3.246-1.707Zm2.5,6.893a2.256,2.256,0,0,1-2.435-2.074c-1.748,1.578-3.031,2.144-4.46,2.144a2.979,2.979,0,0,1-3.211-2.99c0-3.042,3.533-4.363,7.6-5.076,0-2.679-.36-3.752-2.389-3.752-.822,0-2.034.57-2.034,1.717a1.233,1.233,0,1,1-2.466,0c0-1.717,2.251-2.862,4.536-2.862,3.462,0,4.888,1.467,4.888,4.857v5.4c0,.9.286,1.389.823,1.389a1.654,1.654,0,0,0,1-.53l.5.674A3.406,3.406,0,0,1,34.6,54.466" transform="translate(-8.957 -15.2)" fill="#001a31"></path><path id="Path_3" data-name="Path 3" d="M56,58.712l1.788-4.464-4.111-8.891c-.71-1.573-1.245-2.11-2.383-2.11v-.71h6.313v.71c-1.567,0-1.963.363-1.132,2.11l2.6,5.717,2.288-5.717c.686-1.606.431-2.11-1.037-2.11v-.71h5v.71c-1.107,0-1.895.537-2.536,2.11L55.829,62.749c-.284.713-.752,1.319-1.319,1.319a1.117,1.117,0,0,1-1.179-1.179c0-1.4,1.609-1.4,2.674-4.177" transform="translate(-18.756 -15.553)" fill="#001a31"></path><path id="Path_4" data-name="Path 4" d="M81.747,48.579v-.748c2.393,0,2.819-.6,2.819-4.175V32.371c0-3.568-.426-4.175-2.819-4.175v-.752l5.357-.888v17.1c0,3.574.468,4.175,2.822,4.175v.748Z" transform="translate(-29.889 -9.709)" fill="#001a31"></path><path id="Path_5" data-name="Path 5" d="M113,42.934c-2.929,0-4.319,2.317-4.319,5.178s1.39,5.182,4.319,5.182c2.964,0,4.319-2.324,4.319-5.182s-1.356-5.178-4.319-5.178m0,11.75c-3.964,0-7.215-2.964-7.215-6.573s3.251-6.536,7.215-6.536,7.213,2.931,7.213,6.536-3.252,6.573-7.213,6.573" transform="translate(-38.68 -15.201)" fill="#001a31"></path><path id="Path_6" data-name="Path 6" d="M151.754,45.472a1.3,1.3,0,0,1-1.252-1.284,1.061,1.061,0,0,0-1.141-1.181c-.82,0-2.754,1.321-2.754,4.177v1.965c0,3.573.429,4.182,2.822,4.182v.742H141.25V53.33c2.364,0,2.829-.608,2.829-4.182V47.364c0-3.577-.465-4.143-2.829-4.143v-.75l4.758-.894a14.75,14.75,0,0,1,.6,2.572,4.66,4.66,0,0,1,3.752-2.572c1.965,0,2.82,1.321,2.82,2.211,0,.785-.317,1.685-1.425,1.685" transform="translate(-51.646 -15.201)" fill="#001a31"></path><path id="Path_7" data-name="Path 7" d="M221.141,45.9c.384-1.147-.214-2.895-2.578-2.895A3.629,3.629,0,0,0,215.21,45.9Zm-1.5,7.283a6.637,6.637,0,0,0,3.927-1.637l.645.776a8.023,8.023,0,0,1-5.466,2.362,6.428,6.428,0,0,1-6.607-6.571,6.67,6.67,0,0,1,6.607-6.537c3.178,0,5.718,2.572,4.859,5.647h-8.613c-.425,3.353.97,5.961,4.648,5.961" transform="translate(-77.564 -15.201)" fill="#001a31"></path><path id="Path_8" data-name="Path 8" d="M252.969,41.576c3.216,0,4.64,2.283,4.64,5.331v2.241c0,3.574.428,4.176,2.829,4.176v.747h-8.18v-.747c2.316,0,2.819-.6,2.819-4.176V47.077c0-2.324-.825-3.818-2.961-3.818-1.972,0-4.109,1.607-4.109,3.566v2.323c0,3.683.287,4.176,2.5,4.176v.747h-7.861v-.747c2.36,0,2.823-.6,2.823-4.176V47.364c0-3.577-.463-4.143-2.823-4.143v-.747l4.751-.9a14.932,14.932,0,0,1,.608,2.572,6.343,6.343,0,0,1,4.962-2.572" transform="translate(-88.72 -15.201)" fill="#001a31"></path><path id="Path_9" data-name="Path 9" d="M286.282,42.718c-1.753,0-2.609,1.611-2.609,3.715,0,2.071.856,3.68,2.609,3.68s2.567-1.609,2.567-3.68c0-2.1-.823-3.715-2.567-3.715m-.07,11.429c4.925.389,6.5,2.5,6.5,4.672,0,2.969-2.82,4.788-6.323,4.788-6.031,0-8.386-4.426-4-6.709l.646.391c-2.966,3.315.533,4.921,3.35,4.921,2.217,0,4.431-1.068,4.431-2.741s-1.788-2.215-4.785-2.5c-2.928-.289-5.071-1.179-5.071-3.319,0-1.285,1.148-2.283,3.005-2.862a4.881,4.881,0,0,1-3.005-4.352,5.119,5.119,0,0,1,5.321-4.857,5.478,5.478,0,0,1,3.676,1.358,4.136,4.136,0,0,1,2.68-1.358c2.468,0,2.607,2.928,1.179,3-1.571.116-.679-1.6-2.144-1.6a1.738,1.738,0,0,0-1.108.573,4.616,4.616,0,0,1,1.04,2.893,5.2,5.2,0,0,1-4.645,4.856c-1.569.185-4,.537-4,1.5s2.069,1.252,3.249,1.36" transform="translate(-102.423 -15.201)" fill="#001a31"></path><path id="Path_10" data-name="Path 10" d="M311.278,48.579v-.748c2.391,0,2.82-.6,2.82-4.175V32.371c0-3.568-.429-4.175-2.82-4.175v-.752l5.353-.888v17.1c0,3.574.471,4.175,2.827,4.175v.748Z" transform="translate(-113.813 -9.709)" fill="#001a31"></path><path id="Path_11" data-name="Path 11" d="M338.831,34.229a1.591,1.591,0,1,1,1.566-1.6,1.592,1.592,0,0,1-1.566,1.6M334.76,50.222v-.748c2.355,0,2.819-.6,2.819-4.175V43.515c0-3.577-.464-4.142-2.819-4.142v-.748l5.355-.9V45.3c0,3.574.428,4.175,2.819,4.175v.748Z" transform="translate(-122.399 -11.352)" fill="#001a31"></path><path id="Path_12" data-name="Path 12" d="M363,54.685c-2.474,0-3.831-2.543-3.831,0h-.707V49.468h.707a4.074,4.074,0,0,0,3.932,4,1.892,1.892,0,0,0,2-1.818c0-.893-.75-1.535-2-2.18l-1.96-1.065a4.158,4.158,0,0,1-2.4-3.584,3.468,3.468,0,0,1,3.644-3.243c2.681,0,3.217,1.857,3.217,0h.747v4.145H365.6a2.9,2.9,0,0,0-2.9-3c-1.205,0-1.819.641-1.819,1.536,0,.858.613,1.315,2.184,2.178l1.708.931a4.188,4.188,0,0,1,2.465,3.425,3.964,3.964,0,0,1-4.243,3.9" transform="translate(-131.065 -15.201)" fill="#001a31"></path><path id="Path_13" data-name="Path 13" d="M392,48.579v-.748c2.249,0,2.543-.492,2.543-4.175V41.585c0-2.323-.853-3.818-2.716-3.818a3.912,3.912,0,0,0-3.858,3.566v2.323c0,3.715.287,4.175,2.253,4.175v.748h-7.607v-.748c2.391,0,2.817-.6,2.817-4.175V32.371c0-3.568-.426-4.175-2.817-4.175v-.752l5.355-.888v12.1a6.3,6.3,0,0,1,4.682-2.572c3.285,0,4.387,2.283,4.387,5.331v2.241c0,3.574.469,4.175,2.861,4.175v.748Z" transform="translate(-139.895 -9.709)" fill="#001a31"></path></g></g></g></svg> 