<?xml version="1.0" encoding="UTF-8"?>
<svg version="1.1" xmlns="http://www.w3.org/2000/svg" width="1787" height="163">
<path d="M0 0 C589.71 0 1179.42 0 1787 0 C1787 53.79 1787 107.58 1787 163 C1197.29 163 607.58 163 0 163 C0 109.21 0 55.42 0 0 Z " fill="#F9FAFB" transform="translate(0,0)"/>
<path d="M0 0 C17.49 0 34.98 0 53 0 C53.495 6.435 53.495 6.435 54 13 C54.73931729 17.13110543 54.73931729 17.13110543 55.52294922 21.25390625 C56.37106904 26.13602076 56.6933101 31.06248643 57.0625 36 C57.21669431 38.02109231 57.37409737 40.04194313 57.53515625 42.0625 C57.600979 42.94035156 57.66680176 43.81820312 57.73461914 44.72265625 C57.9401656 47.16098756 57.9401656 47.16098756 59 50 C59.28731304 52.29525781 59.53225289 54.59591129 59.75390625 56.8984375 C59.85166603 57.90639877 59.85166603 57.90639877 59.95140076 58.9347229 C60.08834898 60.3550831 60.22356711 61.77561102 60.35717773 63.19628906 C60.56113158 65.36047948 60.77134214 67.52399426 60.98242188 69.6875 C62.08998065 81.24290988 62.08998065 81.24290988 62 86 C62.66 86 63.32 86 64 86 C63.97715942 84.794646 63.97715942 84.794646 63.95385742 83.56494141 C63.87301839 76.04526168 64.32857485 68.82290916 65.3125 61.375 C66.85358102 49.0002393 67.93987989 36.6111232 68.90942383 24.18115234 C69.02424189 22.7587883 69.13906897 21.33642499 69.25390625 19.9140625 C69.35002197 18.6760791 69.4461377 17.4380957 69.54516602 16.16259766 C70.13707311 10.74551986 71.10413735 5.3751759 72 0 C89.49 0 106.98 0 125 0 C125 50.16 125 100.32 125 152 C114.11 152 103.22 152 92 152 C92 115.7 92 79.4 92 42 C91.34 42 90.68 42 90 42 C90.05220703 42.91265625 90.05220703 42.91265625 90.10546875 43.84375 C90.30592546 50.33472928 89.4946433 56.34497084 88.20776367 62.6784668 C87.23363318 67.54343918 86.53186769 72.38037489 86 77.3125 C85.34133917 83.38938033 84.49360686 89.40633713 83.5 95.4375 C82.33236185 102.53124687 81.4105816 109.61727209 80.734375 116.77514648 C80.37372562 120.3922726 79.84388252 123.85862179 79.0078125 127.3984375 C77.87809317 132.23561911 77.38072155 137.05904327 76.9375 142 C76.13058313 150.86941687 76.13058313 150.86941687 75 152 C73.14630389 152.08737645 71.28932459 152.10698153 69.43359375 152.09765625 C68.30888672 152.09443359 67.18417969 152.09121094 66.02539062 152.08789062 C64.84138672 152.07951172 63.65738281 152.07113281 62.4375 152.0625 C61.24962891 152.05798828 60.06175781 152.05347656 58.83789062 152.04882812 C55.89187774 152.03699675 52.94596319 152.02051287 50 152 C49.85900879 151.03811768 49.71801758 150.07623535 49.57275391 149.08520508 C49.04017433 145.45265041 48.50698679 141.82018518 47.97363281 138.18774414 C47.74463062 136.62754642 47.51578459 135.06732576 47.28710938 133.50708008 C46.05442876 125.09727881 44.80512144 116.69093264 43.50488281 108.29125977 C41.59969156 95.87158702 39.80378146 83.43473858 38 71 C37.82758789 69.81212891 37.65517578 68.62425781 37.47753906 67.40039062 C37.0411463 64.37195185 36.61228821 61.34258541 36.1875 58.3125 C36.06383057 57.45406494 35.94016113 56.59562988 35.81274414 55.71118164 C35.17572102 51.09007271 34.88134457 46.66503182 35 42 C34.34 42 33.68 42 33 42 C33 78.3 33 114.6 33 152 C22.11 152 11.22 152 0 152 C0 101.84 0 51.68 0 0 Z " fill="#021F6D" transform="translate(596,6)"/>
<path d="M0 0 C17.49 0 34.98 0 53 0 C53.495 6.435 53.495 6.435 54 13 C54.73931729 17.13110543 54.73931729 17.13110543 55.52294922 21.25390625 C56.37106904 26.13602076 56.6933101 31.06248643 57.0625 36 C57.21669431 38.02109231 57.37409737 40.04194313 57.53515625 42.0625 C57.600979 42.94035156 57.66680176 43.81820312 57.73461914 44.72265625 C57.9401656 47.16098756 57.9401656 47.16098756 59 50 C59.28731304 52.29525781 59.53225289 54.59591129 59.75390625 56.8984375 C59.85166603 57.90639877 59.85166603 57.90639877 59.95140076 58.9347229 C60.08834898 60.3550831 60.22356711 61.77561102 60.35717773 63.19628906 C60.56113158 65.36047948 60.77134214 67.52399426 60.98242188 69.6875 C62.08998065 81.24290988 62.08998065 81.24290988 62 86 C62.66 86 63.32 86 64 86 C63.98549805 85.19135498 63.97099609 84.38270996 63.95605469 83.54956055 C63.88092088 76.18483709 64.28854061 69.10731485 65.25 61.8125 C67.01575397 47.58788933 68.33251979 33.32849251 69.64160156 19.0559082 C69.72435333 18.16420929 69.8071051 17.27251038 69.8923645 16.35379028 C70.04843064 14.67136994 70.20226937 12.98874092 70.35348511 11.30587769 C70.42391022 10.5484024 70.49433533 9.79092712 70.56689453 9.01049805 C70.62668488 8.35389694 70.68647522 7.69729584 70.74807739 7.02079773 C71.04215216 4.66187634 71.53379642 2.33101788 72 0 C89.49 0 106.98 0 125 0 C125 50.16 125 100.32 125 152 C114.11 152 103.22 152 92 152 C92 115.7 92 79.4 92 42 C91.34 42 90.68 42 90 42 C90.05220703 42.91265625 90.05220703 42.91265625 90.10546875 43.84375 C90.30589836 50.33385176 89.4958197 56.34376705 88.20776367 62.67626953 C87.22854211 67.56267076 86.53122113 72.42076064 86 77.375 C85.36590102 83.25286872 84.5250734 89.05271001 83.5 94.875 C82.24570321 102.01598401 81.37051858 109.14628187 80.734375 116.36865234 C80.3085261 120.95355853 79.53228197 125.3072208 78.47924805 129.78833008 C77.72501746 133.26901012 77.32897376 136.77561966 76.9375 140.3125 C76.48742311 144.28879915 75.97381666 148.10473336 75 152 C66.75 152 58.5 152 50 152 C49.66226563 149.69644531 49.32453125 147.39289063 48.9765625 145.01953125 C48.64236042 142.74225303 48.3080036 140.46499759 47.97363281 138.18774414 C47.74463062 136.62754642 47.51578459 135.06732576 47.28710938 133.50708008 C46.95485726 131.24033372 46.62212202 128.97365911 46.2890625 126.70703125 C46.1781427 125.95192764 46.0672229 125.19682404 45.95294189 124.4188385 C45.33074439 120.19759975 44.68706018 115.98059078 44.0234375 111.765625 C42.3866867 101.19790791 41.02660704 90.58825727 39.60449219 79.98999023 C37.69368994 65.59607124 37.69368994 65.59607124 35.34423828 51.26879883 C34.86859562 48.13394264 34.85623054 45.16292821 35 42 C34.34 42 33.68 42 33 42 C33 78.3 33 114.6 33 152 C22.11 152 11.22 152 0 152 C0 101.84 0 51.68 0 0 Z " fill="#021F6D" transform="translate(211,6)"/>
<path d="M0 0 C17.16 0 34.32 0 52 0 C54.13992421 2.13992421 53.63941991 6.73556011 53.90625 9.70703125 C54.60411228 17.0681108 55.36164603 24.41741751 56.21875 31.76171875 C56.3233252 32.65875519 56.42790039 33.55579163 56.53564453 34.48001099 C56.85583155 37.2159907 57.17786033 39.95174958 57.5 42.6875 C57.71499571 44.52407076 57.92983971 46.36065928 58.14453125 48.19726562 C58.76081353 53.46510411 59.3800818 58.73258834 60 64 C60.20053577 65.70523913 60.40105689 67.41047998 60.6015625 69.11572266 C61.06742515 73.0771818 61.53360845 77.03860309 62 81 C62.33 81 62.66 81 63 81 C63.08040527 80.24082275 63.16081055 79.48164551 63.24365234 78.69946289 C63.61977075 75.15370183 63.9971885 71.60808106 64.375 68.0625 C64.51292969 66.76650879 64.65085937 65.47051758 64.79296875 64.13525391 C65.48093076 57.70811352 66.19575383 51.28852239 67 44.875 C67.68666538 39.08420589 68.2638176 33.29097246 68.75390625 27.48046875 C68.88864398 25.92138431 69.02341026 24.36230233 69.15820312 22.80322266 C69.42698483 19.6692376 69.6889221 16.53476343 69.94726562 13.39990234 C70.07025804 11.94498237 70.19330267 10.49006682 70.31640625 9.03515625 C70.42412354 7.7294165 70.53184082 6.42367676 70.64282227 5.07836914 C71 2 71 2 72 0 C89.16 0 106.32 0 124 0 C124 50.16 124 100.32 124 152 C113.11 152 102.22 152 91 152 C90.67 117.68 90.34 83.36 90 48 C87.16229595 67.86392837 84.34872011 87.6652743 81.89453125 107.5703125 C81.30268 112.12111536 80.50799768 116.53576175 79.4440918 120.99707031 C78.72492786 124.24062223 78.37429325 127.51404071 78 130.8125 C75.69526007 150.30473993 75.69526007 150.30473993 74 152 C72.21928754 152.08726223 70.4351686 152.10699041 68.65234375 152.09765625 C67.57275391 152.09443359 66.49316406 152.09121094 65.38085938 152.08789062 C64.24455078 152.07951172 63.10824219 152.07113281 61.9375 152.0625 C60.79732422 152.05798828 59.65714844 152.05347656 58.48242188 152.04882812 C55.65489649 152.03699747 52.8274736 152.0205141 50 152 C48.57322924 146.67984412 47.58334358 141.50399019 47.0234375 136.01953125 C46.16775866 128.24532641 45.10416227 120.51901739 43.94058228 112.78555298 C43.38856809 109.1156542 42.84553748 105.44441932 42.30078125 101.7734375 C42.19104477 101.03565567 42.08130829 100.29787384 41.96824646 99.53773499 C40.40085097 88.9903923 38.89489072 78.43428418 37.40673828 67.87548828 C37.04543747 65.32122603 36.67788469 62.76795952 36.30859375 60.21484375 C35.43907409 54.10299226 34.74768696 48.18166957 35 42 C34.34 42 33.68 42 33 42 C33 78.3 33 114.6 33 152 C22.11 152 11.22 152 0 152 C0 101.84 0 51.68 0 0 Z " fill="#011E6D" transform="translate(1519,6)"/>
<path d="M0 0 C7.43879995 6.10647757 12.10397108 14.73621569 13.28395462 24.30191803 C13.74791404 30.74918429 13.67578608 37.20428428 13.62890625 43.6640625 C13.6297367 45.74905521 13.63220271 47.83404785 13.63621521 49.91903687 C13.63905895 54.26784196 13.62450924 58.61612796 13.59692383 62.96484375 C13.56280138 68.51376489 13.56888737 74.06176155 13.5875864 79.61072731 C13.59819796 83.90898222 13.58918157 88.20702522 13.57420158 92.50526047 C13.56905268 94.55040226 13.56946115 96.59556649 13.57574654 98.64070511 C13.60351074 113.0957944 12.79036191 125.48060628 3 137 C-7.51144267 146.6074586 -19.06588485 148.38935149 -32.875 148.3125 C-33.93348145 148.30686035 -34.99196289 148.3012207 -36.08251953 148.29541016 C-48.5128688 148.10187458 -59.37111356 146.00410695 -68.8125 137.3359375 C-80.74599737 124.26875788 -80.16012713 107.02430562 -80.16796875 90.390625 C-80.17118949 88.77553275 -80.17455415 87.16044079 -80.17805481 85.54534912 C-80.18401787 82.16987432 -80.18589765 78.79442501 -80.18530273 75.41894531 C-80.18520133 71.1280964 -80.19884345 66.83741377 -80.21607494 62.54660416 C-80.22728278 59.21253737 -80.22921926 55.87850965 -80.22869301 52.54442596 C-80.22986032 50.96424538 -80.23421044 49.38406336 -80.24202538 47.80390167 C-80.3120777 32.17615321 -80.17314739 14.35527535 -68.47265625 2.4453125 C-50.3976903 -14.03118707 -19.72357033 -12.69338685 0 0 Z " fill="#021F6D" transform="translate(1053,12)"/>
<path d="M0 0 C1.3763562 0.0141394 1.3763562 0.0141394 2.78051758 0.02856445 C15.15915119 0.30315898 28.55175139 3.30175139 37.625 12.375 C47.62770522 24.42550314 48.21959846 38.14870024 48.0859375 53.0546875 C48.08354539 54.83863186 48.08264937 56.62257877 48.0831604 58.40652466 C48.08005203 62.12648543 48.06364337 65.84605548 48.03662109 69.56591797 C48.00269467 74.29144231 47.99499261 79.01653843 47.99651146 83.74217033 C47.99596277 87.42119296 47.98491575 91.10012533 47.97050858 94.77911758 C47.96422409 96.51951544 47.96022169 98.25992333 47.95872116 100.00033188 C47.89659245 134.39132265 47.89659245 134.39132265 36.546875 146.58984375 C26.32880666 156.08101698 14.64810063 157.55384614 1.3125 157.5625 C0.33087891 157.57474609 -0.65074219 157.58699219 -1.66210938 157.59960938 C-14.50519423 157.62510855 -25.47716247 155.00637291 -35.25 146.1875 C-46.01395034 134.46847493 -45.68208616 118.53209509 -45.640625 103.64453125 C-45.64197569 101.923558 -45.64391957 100.20258512 -45.64642334 98.48161316 C-45.64935955 94.88508449 -45.64512825 91.28865566 -45.63574219 87.69213867 C-45.62439178 83.12461472 -45.63088869 78.55732705 -45.64288712 73.9898119 C-45.65018351 70.43690782 -45.64778176 66.88405786 -45.64263153 63.33115196 C-45.64131417 61.64935972 -45.6428741 59.96756228 -45.64759064 58.28577614 C-45.72221234 24.1862086 -45.72221234 24.1862086 -34.125 11.4375 C-24.83572423 3.04652782 -12.23308127 -0.19586516 0 0 Z " fill="#011E6D" transform="translate(488.375,2.625)"/>
<path d="M0 0 C71.25 0 71.25 0 80.8125 8.5 C81.8953125 9.7375 81.8953125 9.7375 83 11 C83.556875 11.61875 84.11375 12.2375 84.6875 12.875 C89.00448429 19.86440314 88.33324978 27.88193433 88.3125 35.8125 C88.32861328 37.03259766 88.34472656 38.25269531 88.36132812 39.50976562 C88.36655624 49.23929531 87.64337814 58.26377299 80.671875 65.59765625 C76.38745007 69.19136781 71.43194018 70.33756827 66 71 C66.556875 71.07476562 67.11375 71.14953125 67.6875 71.2265625 C75.33608636 72.54439326 80.08799527 75.93473186 85.375 81.5 C88.4764249 86.27142293 89.25000439 90.74892353 89.22705078 96.37255859 C89.22689972 97.61339203 89.22674866 98.85422546 89.22659302 100.13265991 C89.21638225 101.47125411 89.2059503 102.80984663 89.1953125 104.1484375 C89.19157813 105.52991531 89.18873316 106.91139578 89.18673706 108.2928772 C89.17913392 111.91293771 89.15951437 115.53283543 89.1373291 119.15283203 C89.11679879 122.85316731 89.10761014 126.5535299 89.09765625 130.25390625 C89.0773286 137.50274751 89.0381742 144.75114288 89 152 C77.12 152 65.24 152 53 152 C52.96261719 147.51019531 52.92523437 143.02039063 52.88671875 138.39453125 C52.8485989 134.80924863 52.80752618 131.22402684 52.7644577 127.63880157 C52.71983847 123.85712206 52.68039481 120.07555229 52.65356445 116.29370117 C52.62750982 112.64952822 52.58709291 109.00576905 52.53681374 105.36185265 C52.52015947 103.97328536 52.5086362 102.58464652 52.50238609 101.19599342 C52.49273028 99.2474898 52.46295739 97.29911758 52.43237305 95.35083008 C52.41571846 93.68870232 52.41571846 93.68870232 52.39872742 91.99299622 C51.82140946 87.659433 50.05120964 85.05120964 47 82 C44.36 82 41.72 82 39 82 C38.67 105.1 38.34 128.2 38 152 C25.46 152 12.92 152 0 152 C0 101.84 0 51.68 0 0 Z " fill="#011E6D" transform="translate(875,6)"/>
<path d="M0 0 C7.18380467 6.49678801 11.68910794 15.47582443 13 25 C13.0790131 27.45467356 13.1078047 29.91126356 13.09765625 32.3671875 C13.0962413 33.04677521 13.09482635 33.72636292 13.09336853 34.42654419 C13.08781518 36.57607612 13.07527169 38.72550008 13.0625 40.875 C13.05747896 42.34114432 13.05291711 43.80729029 13.04882812 45.2734375 C13.03786111 48.84899283 13.02062919 52.42448586 13 56 C7.60653012 56.02464849 2.21309275 56.04283531 -3.18041992 56.05493164 C-5.01668875 56.05997231 -6.85295354 56.06680477 -8.68920898 56.07543945 C-11.32276401 56.08751672 -13.95626616 56.09323081 -16.58984375 56.09765625 C-17.82890724 56.10539818 -17.82890724 56.10539818 -19.09300232 56.11329651 C-21.06236368 56.11349205 -23.03161614 56.06204152 -25 56 C-26.96228114 54.03771886 -26.20763794 50.25650578 -26.24609375 47.5703125 C-26.27903519 46.03775477 -26.31224678 44.50520283 -26.34570312 42.97265625 C-26.39312063 40.54772984 -26.4375352 38.12282643 -26.47680664 35.69775391 C-26.5165138 33.36335318 -26.56806603 31.02944328 -26.62109375 28.6953125 C-26.6295079 27.97022491 -26.63792206 27.24513733 -26.64659119 26.49807739 C-26.73734935 22.80464581 -26.89781822 21.15327267 -29 18 C-32.58357241 17.74984127 -32.58357241 17.74984127 -36 18 C-37.5978689 20.83015304 -38.24976648 22.85424945 -38.24723816 26.09863281 C-38.25143265 26.90610962 -38.25562714 27.71358643 -38.25994873 28.54553223 C-38.25432922 29.42253784 -38.24870972 30.29954346 -38.24291992 31.203125 C-38.24481827 32.13362671 -38.24671661 33.06412842 -38.24867249 34.02282715 C-38.25237714 37.09863714 -38.24168004 40.17421099 -38.23046875 43.25 C-38.22927661 45.38704399 -38.22882386 47.52408851 -38.2290802 49.66113281 C-38.22751585 54.14000733 -38.21922994 58.61880186 -38.20581055 63.09765625 C-38.18882086 68.84118809 -38.18499627 74.58463201 -38.18575573 80.32818604 C-38.1854839 84.74105673 -38.18000062 89.15390817 -38.17275429 93.56677246 C-38.16957029 95.6846909 -38.16760084 97.80261152 -38.16686058 99.92053223 C-38.16469419 102.879351 -38.15594335 105.83807629 -38.14526367 108.796875 C-38.14571686 109.67388062 -38.14617004 110.55088623 -38.14663696 111.45446777 C-38.14237198 112.26194458 -38.13810699 113.06942139 -38.13371277 113.90136719 C-38.13203692 114.60042175 -38.13036108 115.29947632 -38.12863445 116.01971436 C-37.99258809 118.11410388 -37.56853151 119.98344429 -37 122 C-34.36 122 -31.72 122 -29 122 C-26.37877931 118.08196486 -26.65039395 113.83625498 -26.5859375 109.296875 C-26.56829346 108.5538916 -26.55064941 107.8109082 -26.5324707 107.04541016 C-26.46959316 104.28049014 -26.4232757 101.51521351 -26.375 98.75 C-26.25125 92.5625 -26.1275 86.375 -26 80 C-13.13 80 -0.26 80 13 80 C13.0825 85.15625 13.165 90.3125 13.25 95.625 C13.28641602 97.22037598 13.32283203 98.81575195 13.36035156 100.45947266 C13.46961122 114.73195575 11.2023358 126.61195093 0.9296875 137.1171875 C-10.76050027 148.23712221 -23.24769921 148.39308778 -38.65234375 148.21484375 C-49.7335389 147.90591346 -59.51170212 144.35835474 -67.75 136.8125 C-73.62774575 130.41653072 -76.17684882 123.9099127 -77.11791992 115.30810547 C-77.20122401 114.56736723 -77.2845281 113.82662899 -77.37035656 113.06344414 C-78.25516185 104.53034586 -78.30904447 96.01603122 -78.30078125 87.4453125 C-78.30468362 85.72476094 -78.30902135 84.00421033 -78.31376648 82.28366089 C-78.32115116 78.71218714 -78.32099188 75.14081242 -78.31567383 71.56933594 C-78.30984906 67.02060105 -78.32692013 62.47226938 -78.3500185 57.92360115 C-78.36481952 54.38373497 -78.3656196 50.84396498 -78.36250877 47.30407333 C-78.36301746 45.62734038 -78.3681687 43.95060138 -78.37832069 42.27389908 C-78.45289727 28.25617695 -77.32649632 13.59824623 -67 3 C-48.49724841 -12.47758688 -19.86291979 -13.74629943 0 0 Z " fill="#021E6D" transform="translate(423,12)"/>
<path d="M0 0 C5.10815977 3.95938148 8.40216283 8.96014215 11.1640625 14.76171875 C11.43839111 15.33253174 11.71271973 15.90334473 11.99536133 16.49145508 C15.17436313 24.26994343 14.49159637 32.58335758 14.3515625 40.82421875 C14.33648769 42.37303386 14.32280423 43.92186316 14.31054688 45.47070312 C14.27776388 49.23473053 14.22613748 52.99806513 14.1640625 56.76171875 C8.77059262 56.78636724 3.37715525 56.80455406 -2.01635742 56.81665039 C-3.85262625 56.82169106 -5.68889104 56.82852352 -7.52514648 56.8371582 C-10.15870151 56.84923547 -12.79220366 56.85494956 -15.42578125 56.859375 C-16.66484474 56.86711693 -16.66484474 56.86711693 -17.92893982 56.87501526 C-19.89830118 56.8752108 -21.86755364 56.82376027 -23.8359375 56.76171875 C-25.82923424 54.76842201 -25.04417996 50.81278483 -25.08203125 48.078125 C-25.11496578 46.4954371 -25.1481775 44.91275494 -25.18164062 43.33007812 C-25.22911356 40.82385169 -25.27354026 38.31764925 -25.31274414 35.8112793 C-25.35236701 33.39997838 -25.40393234 30.98916143 -25.45703125 28.578125 C-25.4654454 27.82600235 -25.47385956 27.0738797 -25.48252869 26.29896545 C-25.44476944 22.07124141 -25.44476944 22.07124141 -27.8359375 18.76171875 C-31.41937726 18.59494593 -31.41937726 18.59494593 -34.8359375 18.76171875 C-36.4338064 21.59187179 -37.08570398 23.6159682 -37.08317566 26.86035156 C-37.08737015 27.66782837 -37.09156464 28.47530518 -37.09588623 29.30725098 C-37.09026672 30.18425659 -37.08464722 31.06126221 -37.07885742 31.96484375 C-37.08075577 32.89534546 -37.08265411 33.82584717 -37.08460999 34.7845459 C-37.08831464 37.86035589 -37.07761754 40.93592974 -37.06640625 44.01171875 C-37.06521411 46.14876274 -37.06476136 48.28580726 -37.0650177 50.42285156 C-37.06345335 54.90172608 -37.05516744 59.38052061 -37.04174805 63.859375 C-37.02475836 69.60290684 -37.02093377 75.34635076 -37.02169323 81.08990479 C-37.0214214 85.50277548 -37.01593812 89.91562692 -37.00869179 94.32849121 C-37.00550779 96.44640965 -37.00353834 98.56433027 -37.00279808 100.68225098 C-37.00063169 103.64106975 -36.99188085 106.59979504 -36.98120117 109.55859375 C-36.98165436 110.43559937 -36.98210754 111.31260498 -36.98257446 112.21618652 C-36.97830948 113.02366333 -36.97404449 113.83114014 -36.96965027 114.66308594 C-36.96797442 115.3621405 -36.96629858 116.06119507 -36.96457195 116.78143311 C-36.82852559 118.87582263 -36.40446901 120.74516304 -35.8359375 122.76171875 C-33.1959375 122.76171875 -30.5559375 122.76171875 -27.8359375 122.76171875 C-25.26804382 118.89029315 -25.50498033 114.78903918 -25.45703125 110.3125 C-25.44003677 109.4992778 -25.4230423 108.6860556 -25.40553284 107.84819031 C-25.35249851 105.25694478 -25.3121309 102.66571501 -25.2734375 100.07421875 C-25.22954501 97.47208987 -25.18291553 94.8700863 -25.13063049 92.26811218 C-25.09860736 90.65005416 -25.07173798 89.03188471 -25.05039978 87.41365051 C-24.94770983 81.87349108 -24.94770983 81.87349108 -23.8359375 80.76171875 C-21.0243037 80.67309883 -18.23735495 80.6464952 -15.42578125 80.6640625 C-14.58374649 80.66547745 -13.74171173 80.6668924 -12.87416077 80.66835022 C-10.17388415 80.67396612 -7.47368922 80.68652127 -4.7734375 80.69921875 C-2.94726682 80.7042317 -1.12109484 80.70879496 0.70507812 80.71289062 C5.19143792 80.72394071 9.67773634 80.74121596 14.1640625 80.76171875 C14.21385362 85.31492557 14.24996548 89.86797056 14.27392578 94.42138672 C14.28392447 95.96731328 14.29752788 97.51322121 14.31494141 99.05908203 C14.33946201 101.2933413 14.35060701 103.5273485 14.359375 105.76171875 C14.36969757 106.44226318 14.38002014 107.12280762 14.39065552 107.82397461 C14.39325264 119.17237924 10.01115643 130.51444043 2.1640625 138.76171875 C-11.05353912 149.60064252 -26.50829114 149.63607832 -42.8359375 148.76171875 C-52.4631261 147.42402405 -61.61595415 143.06126576 -68.26953125 135.8828125 C-77.88203462 122.86638026 -77.14476247 105.15904946 -77.06640625 89.71484375 C-77.06520932 88.1259566 -77.06476237 86.53706873 -77.0650177 84.94818115 C-77.06346863 81.64721124 -77.05529974 78.3463522 -77.04174805 75.04541016 C-77.02470462 70.84425538 -77.02093637 66.64322099 -77.02169323 62.44203568 C-77.02141965 59.1715381 -77.01590932 55.90106609 -77.00869179 52.63057709 C-77.0055431 51.08224429 -77.00354677 49.53390864 -77.00279808 47.98557281 C-76.97065275 16.29011053 -76.97065275 16.29011053 -65.51953125 4.37109375 C-48.43579716 -11.95952909 -19.35565022 -13.05476834 0 0 Z " fill="#021E6D" transform="translate(853.8359375,11.23828125)"/>
<path d="M0 0 C6.81199315 5.98436781 11.05672924 11.90958649 11.9230957 21.14746094 C12.00059958 23.92775871 11.98409703 26.68820315 11.921875 29.46875 C11.91671875 30.42136719 11.9115625 31.37398437 11.90625 32.35546875 C11.82683983 39.31378517 11.82683983 39.31378517 10.671875 40.46875 C8.15093424 40.55722743 5.65756607 40.58402301 3.13671875 40.56640625 C2.00684288 40.56428383 2.00684288 40.56428383 0.85414124 40.56211853 C-1.5608206 40.55650376 -3.97569101 40.54394883 -6.390625 40.53125 C-8.02408721 40.5262369 -9.65755086 40.52167366 -11.29101562 40.51757812 C-15.30342085 40.50652954 -19.31575741 40.48925506 -23.328125 40.46875 C-23.37606201 39.21280029 -23.42399902 37.95685059 -23.47338867 36.6628418 C-23.50242279 35.91400726 -23.53145691 35.16517273 -23.56137085 34.39364624 C-23.61968968 32.83924832 -23.67009403 31.28454844 -23.71606445 29.72973633 C-23.9335731 25.27742419 -24.32721133 22.00005771 -27.328125 18.46875 C-30.87043309 17.88532647 -30.87043309 17.88532647 -34.328125 18.46875 C-37.36296264 21.50358764 -36.84561778 25.0159336 -36.890625 29.09375 C-36.9957585 36.45697264 -36.9957585 36.45697264 -33.890625 42.90625 C-28.71217081 47.5362732 -22.45022988 51.12568352 -16.5703125 54.796875 C-2.80431016 63.40292182 9.47218054 72.4986065 13.546875 88.96875 C16.165465 103.20830156 16.97699232 122.0288882 9 134.61328125 C3.39296213 142.44664298 -5.57871629 146.93945881 -14.90258789 149.1003418 C-20.2810053 149.91725492 -25.71300215 149.7956012 -31.140625 149.78125 C-32.34783203 149.79736328 -33.55503906 149.81347656 -34.79882812 149.83007812 C-45.40628108 149.83581498 -55.95966456 148.55257836 -64.328125 141.46875 C-74.32980415 130.87606253 -74.48803962 118.873609 -74.390625 105.03125 C-74.37 100.885625 -74.349375 96.74 -74.328125 92.46875 C-62.118125 92.46875 -49.908125 92.46875 -37.328125 92.46875 C-36.953125 106.78125 -36.953125 106.78125 -36.85009766 111.28637695 C-36.8144873 112.45644287 -36.77887695 113.62650879 -36.7421875 114.83203125 C-36.7107666 116.03126221 -36.6793457 117.23049316 -36.64697266 118.46606445 C-36.54383006 121.64757706 -36.54383006 121.64757706 -34.328125 124.46875 C-30.87062551 125.13551878 -30.87062551 125.13551878 -27.328125 124.46875 C-22.3176389 118.66957627 -23.52441138 109.83284264 -24.04394531 102.64404297 C-24.84535863 96.5095132 -28.14520549 93.31138023 -32.68359375 89.48046875 C-36.57814205 86.51785077 -40.65705017 83.88143589 -44.80078125 81.28515625 C-57.82171017 73.12575319 -69.31733028 64.66875996 -73.72827148 49.28930664 C-74.78167274 44.3361342 -74.7202816 39.45010563 -74.640625 34.40625 C-74.64384766 33.38208984 -74.64707031 32.35792969 -74.65039062 31.30273438 C-74.57413566 20.45373246 -73.12494035 11.67058302 -65.5390625 3.5546875 C-49.88679524 -11.09982567 -17.56471734 -12.74607807 0 0 Z " fill="#031F6D" transform="translate(1148.328125,10.53125)"/>
<path d="M0 0 C6.81199315 5.98436781 11.05672924 11.90958649 11.9230957 21.14746094 C12.00059958 23.92775871 11.98409703 26.68820315 11.921875 29.46875 C11.91671875 30.42136719 11.9115625 31.37398437 11.90625 32.35546875 C11.82683983 39.31378517 11.82683983 39.31378517 10.671875 40.46875 C8.15093424 40.55722743 5.65756607 40.58402301 3.13671875 40.56640625 C2.00684288 40.56428383 2.00684288 40.56428383 0.85414124 40.56211853 C-1.5608206 40.55650376 -3.97569101 40.54394883 -6.390625 40.53125 C-8.02408721 40.5262369 -9.65755086 40.52167366 -11.29101562 40.51757812 C-15.30342085 40.50652954 -19.31575741 40.48925506 -23.328125 40.46875 C-23.37606201 39.21280029 -23.42399902 37.95685059 -23.47338867 36.6628418 C-23.50242279 35.91400726 -23.53145691 35.16517273 -23.56137085 34.39364624 C-23.61968968 32.83924832 -23.67009403 31.28454844 -23.71606445 29.72973633 C-23.9335731 25.27742419 -24.32721133 22.00005771 -27.328125 18.46875 C-30.87043309 17.88532647 -30.87043309 17.88532647 -34.328125 18.46875 C-37.36296264 21.50358764 -36.84561778 25.0159336 -36.890625 29.09375 C-36.9957585 36.45697264 -36.9957585 36.45697264 -33.890625 42.90625 C-28.71217081 47.5362732 -22.45022988 51.12568352 -16.5703125 54.796875 C-2.80431016 63.40292182 9.47218054 72.4986065 13.546875 88.96875 C16.51950843 105.09836452 15.495394 121.82171201 8.109375 136.59375 C1.14434128 144.80891797 -10.34787433 148.73619142 -20.8269043 149.8359375 C-24.37764204 149.96637579 -27.90070495 149.96655943 -31.453125 149.90625 C-32.63777344 149.91333984 -33.82242187 149.92042969 -35.04296875 149.92773438 C-45.53711845 149.85252823 -56.05491335 148.45380808 -64.328125 141.46875 C-72.12551153 133.37010081 -74.48029192 123.20646777 -74.42578125 112.1953125 C-74.42328369 111.15455566 -74.42078613 110.11379883 -74.41821289 109.04150391 C-74.40910889 107.73874512 -74.40000488 106.43598633 -74.390625 105.09375 C-74.3596875 98.844375 -74.3596875 98.844375 -74.328125 92.46875 C-62.118125 92.46875 -49.908125 92.46875 -37.328125 92.46875 C-36.953125 106.78125 -36.953125 106.78125 -36.85009766 111.28637695 C-36.8144873 112.45644287 -36.77887695 113.62650879 -36.7421875 114.83203125 C-36.7107666 116.03126221 -36.6793457 117.23049316 -36.64697266 118.46606445 C-36.54383006 121.64757706 -36.54383006 121.64757706 -34.328125 124.46875 C-30.87062551 125.13551878 -30.87062551 125.13551878 -27.328125 124.46875 C-22.3176389 118.66957627 -23.52441138 109.83284264 -24.04394531 102.64404297 C-24.84535863 96.5095132 -28.14520549 93.31138023 -32.68359375 89.48046875 C-36.57814205 86.51785077 -40.65705017 83.88143589 -44.80078125 81.28515625 C-57.82171017 73.12575319 -69.31733028 64.66875996 -73.72827148 49.28930664 C-74.78167274 44.3361342 -74.7202816 39.45010563 -74.640625 34.40625 C-74.64384766 33.38208984 -74.64707031 32.35792969 -74.65039062 31.30273438 C-74.57413566 20.45373246 -73.12494035 11.67058302 -65.5390625 3.5546875 C-49.88679524 -11.09982567 -17.56471734 -12.74607807 0 0 Z " fill="#031F6D" transform="translate(1725.328125,10.53125)"/>
<path d="M0 0 C5.19249651 4.47036124 8.65391633 9.44623896 10.3125 16.125 C10.54799412 20.08805056 10.50053978 24.03184124 10.4375 28 C10.39625 31.67125 10.355 35.3425 10.3125 39.125 C-1.2375 39.125 -12.7875 39.125 -24.6875 39.125 C-25.0625 30.3125 -25.0625 30.3125 -25.16552734 27.54760742 C-25.2011377 26.82420166 -25.23674805 26.1007959 -25.2734375 25.35546875 C-25.3048584 24.61707764 -25.3362793 23.87868652 -25.36865234 23.11791992 C-25.59584614 20.81150412 -25.59584614 20.81150412 -27.6875 18.125 C-29.589494 17.64941794 -29.589494 17.64941794 -31.6875 17.75 C-32.739375 17.73839844 -32.739375 17.73839844 -33.8125 17.7265625 C-36.09808594 17.984086 -36.09808594 17.984086 -37.6875 21.125 C-37.93641491 23.77912755 -38.05768799 26.28367843 -38.0625 28.9375 C-38.09923828 29.98647461 -38.09923828 29.98647461 -38.13671875 31.05664062 C-38.16562356 36.20651381 -37.09097326 39.07136158 -33.6875 43.125 C-29.06190104 47.47333353 -23.83731328 50.634298 -18.4375 53.9375 C-5.01495797 62.32338805 8.89290572 71.9059446 12.84521484 88.34008789 C13.78158005 93.92060928 13.53996579 99.60518076 13.5625 105.25 C13.583125 106.5184375 13.60375 107.786875 13.625 109.09375 C13.67602948 121.46839982 12.0980634 131.03517466 3.3125 140.125 C-6.82812477 148.85065387 -21.23275693 149.31457316 -33.9375 149.375 C-35.00613281 149.395625 -36.07476563 149.41625 -37.17578125 149.4375 C-47.8400153 149.48933103 -57.43728937 147.93466715 -65.4609375 140.4765625 C-73.55474661 132.10954464 -75.1393576 122.81644863 -75.04785156 111.53833008 C-75.01143555 110.02005615 -74.97501953 108.50178223 -74.9375 106.9375 C-74.855 102.049375 -74.7725 97.16125 -74.6875 92.125 C-62.8075 92.125 -50.9275 92.125 -38.6875 92.125 C-38.3125 105.875 -38.3125 105.875 -38.20947266 110.19433594 C-38.1738623 111.32129883 -38.13825195 112.44826172 -38.1015625 113.609375 C-38.0701416 114.76147461 -38.0387207 115.91357422 -38.00634766 117.10058594 C-37.70348825 119.97334422 -37.1786762 121.68679611 -35.6875 124.125 C-32.31349422 124.54225678 -32.31349422 124.54225678 -28.6875 124.125 C-24.90532309 119.83101475 -25.20387082 115.16808188 -25.25 109.75 C-25.23001953 108.925 -25.21003906 108.1 -25.18945312 107.25 C-25.1948018 100.51066733 -26.83613006 96.50333197 -31.23046875 91.296875 C-35.88102697 87.2759648 -40.88991254 83.98579047 -46.0625 80.6875 C-59.55251293 72.07936493 -70.57870347 64.03331233 -75.03515625 47.890625 C-77.51131689 33.59709893 -76.86301728 17.50269156 -68.6875 5.125 C-53.38492929 -12.69959796 -18.4550042 -12.76070922 0 0 Z " fill="#021F6D" transform="translate(1337.6875,10.875)"/>
<path d="M0 0 C22.11 0 44.22 0 67 0 C67 9.9 67 19.8 67 30 C58.09 30 49.18 30 40 30 C40 39.57 40 49.14 40 59 C48.25 59 56.5 59 65 59 C65 68.57 65 78.14 65 88 C56.75 88 48.5 88 40 88 C40 99.22 40 110.44 40 122 C49.57 122 59.14 122 69 122 C69 131.9 69 141.8 69 152 C46.23 152 23.46 152 0 152 C0 101.84 0 51.68 0 0 Z " fill="#03206E" transform="translate(1444,6)"/>
<path d="M0 0 C21.78 0 43.56 0 66 0 C66 9.9 66 19.8 66 30 C57.09 30 48.18 30 39 30 C39 39.57 39 49.14 39 59 C47.25 59 55.5 59 64 59 C64 68.57 64 78.14 64 88 C55.75 88 47.5 88 39 88 C39 99.22 39 110.44 39 122 C48.57 122 58.14 122 68 122 C68 131.9 68 141.8 68 152 C45.56 152 23.12 152 0 152 C0 101.84 0 51.68 0 0 Z " fill="#011D6C" transform="translate(137,6)"/>
<path d="M0 0 C11.88 0 23.76 0 36 0 C40.14668775 18.90889613 43.53935414 37.95623505 47 57 C49.06176598 45.55295754 50.94190242 34.09582285 52.63671875 22.58789062 C52.80042969 21.49798828 52.96414063 20.40808594 53.1328125 19.28515625 C53.27605957 18.31457275 53.41930664 17.34398926 53.56689453 16.34399414 C54 14 54 14 55 12 C55.20222356 10.33727297 55.36411387 8.66945815 55.5 7 C55.88888889 2.22222222 55.88888889 2.22222222 57 0 C68.88 0 80.76 0 93 0 C91.7737314 6.13134301 90.5599876 11.95169811 88.7578125 17.88671875 C88.54816864 18.5916597 88.33852478 19.29660065 88.12252808 20.02290344 C87.46088648 22.24571651 86.79339994 24.46671081 86.125 26.6875 C85.24976036 29.60722957 84.37744974 32.52781568 83.5078125 35.44921875 C83.29469421 36.16439667 83.08157593 36.87957458 82.86199951 37.61642456 C81.08013893 43.63795812 79.46323027 49.6959486 77.86669922 55.76879883 C76.85098958 59.55553604 75.71022381 63.2712023 74.5 67 C72.41424174 73.51506512 70.59782954 80.07056934 68.89453125 86.6953125 C68 90 68 90 66.96401978 92.84268188 C65.99790554 96.00685968 65.72588359 98.52657552 65.68115234 101.82177734 C65.66128265 102.94248627 65.64141296 104.06319519 65.62094116 105.21786499 C65.60938995 106.41182892 65.59783875 107.60579285 65.5859375 108.8359375 C65.56657135 110.07042633 65.5472052 111.30491516 65.5272522 112.57681274 C65.46759903 116.50947212 65.42112737 120.442161 65.375 124.375 C65.33787457 127.04560453 65.29775475 129.71615364 65.2578125 132.38671875 C65.16029559 138.92441503 65.08061146 145.46198602 65 152 C52.46 152 39.92 152 27 152 C27.03222656 148.184375 27.06445312 144.36875 27.09765625 140.4375 C27.26841436 102.05332463 27.26841436 102.05332463 18.125 65.00488281 C16.51372852 60.70116551 15.17077515 56.3259163 13.8125 51.9375 C13.57917969 51.21916992 13.34585937 50.50083984 13.10546875 49.76074219 C10.7751473 42.56473558 8.9162064 35.2501094 7.09106445 27.91186523 C6.07097336 23.85903225 5.03848593 19.94326229 3.44921875 16.07421875 C2 12 2 12 0 0 Z " fill="#021F6D" transform="translate(1166,6)"/>
<path d="M0 0 C28.38 0 56.76 0 86 0 C86 9.9 86 19.8 86 30 C78.41 30 70.82 30 63 30 C63.00523682 33.6602124 63.01047363 37.3204248 63.01586914 41.09155273 C63.03240186 53.15353627 63.04352077 65.21551901 63.05181217 77.27751064 C63.05697506 84.59427402 63.06401762 91.9110267 63.07543945 99.2277832 C63.08538651 105.60283018 63.09185348 111.97786941 63.09408849 118.35292393 C63.09539557 121.73048014 63.09848119 125.10801416 63.10573006 128.48556328 C63.11293613 132.25007343 63.11399113 136.01453685 63.11352539 139.77905273 C63.11712067 140.90689682 63.12071594 142.03474091 63.12442017 143.19676208 C63.1230455 144.21624939 63.12167084 145.23573669 63.12025452 146.28611755 C63.12117631 147.17749137 63.1220981 148.06886518 63.12304783 148.98725033 C63 151 63 151 62 152 C49.46 152 36.92 152 24 152 C23.67 112.07 23.34 72.14 23 31 C11.615 30.505 11.615 30.505 0 30 C0 20.1 0 10.2 0 0 Z " fill="#021F6D" transform="translate(46,6)"/>
<path d="M0 0 C28.05 0 56.1 0 85 0 C85 9.9 85 19.8 85 30 C77.74 30.33 70.48 30.66 63 31 C62.67 70.93 62.34 110.86 62 152 C49.13 152 36.26 152 23 152 C23 111.74 23 71.48 23 30 C15.41 30 7.82 30 0 30 C0 20.1 0 10.2 0 0 Z " fill="#011E6C" transform="translate(1354,6)"/>
<path d="M0 0 C13.2 0 26.4 0 40 0 C40 50.16 40 100.32 40 152 C26.8 152 13.6 152 0 152 C0 101.84 0 51.68 0 0 Z " fill="#04216E" transform="translate(729,6)"/>
<path d="M0 0 C2.622731 0.13474581 3.73485098 0.25788293 5.9375 1.75 C8.59106568 5.96448666 8.15482863 10.42973277 8.16113281 15.2199707 C8.16609772 16.11785309 8.17106262 17.01573547 8.17617798 17.94082642 C8.190798 20.91498579 8.19760148 23.88909182 8.203125 26.86328125 C8.20887674 28.92970278 8.21463447 30.99612428 8.22039795 33.06254578 C8.23090759 37.39773813 8.23675045 41.73291193 8.24023438 46.06811523 C8.24571789 51.61987273 8.26974314 57.17138482 8.29820633 62.72306538 C8.31684143 66.99275933 8.32203879 71.26239429 8.32357025 75.53212547 C8.32659551 77.57862883 8.33461977 79.62513118 8.34775543 81.67159462 C8.36483336 84.53686752 8.3629313 87.40154238 8.35644531 90.2668457 C8.3656601 91.1101796 8.37487488 91.95351349 8.3843689 92.82240295 C8.34813464 97.93909871 7.84386022 102.59363978 4 106.4375 C-2.11466083 107.01435479 -2.11466083 107.01435479 -5.19911194 105.00463867 C-7.9063049 101.14557608 -7.55146066 97.66011854 -7.50170898 93.05078125 C-7.50711197 92.1007724 -7.51251495 91.15076355 -7.51808167 90.17196655 C-7.53059121 87.03099434 -7.51406277 83.89093474 -7.49609375 80.75 C-7.49624869 78.56811474 -7.49773676 76.38622921 -7.50050354 74.2043457 C-7.50188854 69.63122392 -7.48931238 65.05841538 -7.46655273 60.48535156 C-7.43816807 54.62061262 -7.44090422 48.75639428 -7.45364285 42.89161682 C-7.46059462 38.38606309 -7.45281643 33.88062989 -7.44038582 29.37509155 C-7.43586646 27.21251894 -7.43553874 25.04993341 -7.43945122 22.88735962 C-7.44235846 19.86604241 -7.4258793 16.84544505 -7.40405273 13.82421875 C-7.40855438 12.92851166 -7.41305603 12.03280457 -7.41769409 11.10995483 C-7.34506604 5.06554321 -7.34506604 5.06554321 -5.59584045 1.88183594 C-3.61711975 0.0909693 -2.64307006 -0.07508722 0 0 Z " fill="#F3F5F8" transform="translate(1020,28.5625)"/>
<path d="M0 0 C3.5 0.5625 3.5 0.5625 5.68640137 2.01771545 C8.40485095 5.83215839 8.05947619 9.26317335 8.01757812 13.84155273 C8.02809204 15.24952621 8.02809204 15.24952621 8.03881836 16.6859436 C8.05642729 19.7896277 8.04476413 22.89240032 8.03125 25.99609375 C8.0339443 28.15316442 8.0378262 30.31023391 8.04284668 32.46730042 C8.04874586 36.98914142 8.04016588 41.51066642 8.02148438 46.0324707 C7.99870852 51.82770448 8.011807 57.62219673 8.03577423 63.41740322 C8.05023236 67.87239665 8.04562585 72.32721447 8.03526306 76.78221321 C8.03259512 78.91884512 8.03586787 81.05549298 8.04518127 83.19210625 C8.05534531 86.17985082 8.0398466 89.16639733 8.01757812 92.15405273 C8.02567505 93.03681381 8.03377197 93.91957489 8.04211426 94.8290863 C7.98622798 98.87844636 7.79913473 101.06024832 5.68640137 104.6075592 C3.5 106.5625 3.5 106.5625 0 107.25 C-3.5 106.5625 -3.5 106.5625 -5.68640137 104.10218811 C-7.99297024 99.60034616 -8.06451855 96.2192659 -8.01757812 91.23999023 C-8.0245874 90.32055634 -8.03159668 89.40112244 -8.03881836 88.4538269 C-8.05637033 85.42593862 -8.04478634 82.39899092 -8.03125 79.37109375 C-8.03394548 77.26172202 -8.03782837 75.1523515 -8.04284668 73.04298401 C-8.04873775 68.62724958 -8.0401903 64.21183928 -8.02148438 59.79614258 C-7.9986813 54.13772288 -8.01182931 48.48006154 -8.03577423 42.82166958 C-8.05023068 38.46790353 -8.0456271 34.1143172 -8.03526306 29.76054573 C-8.03259609 27.67415337 -8.03586447 25.58774465 -8.04518127 23.50137138 C-8.05534568 20.58567971 -8.03984756 17.67121552 -8.01757812 14.75561523 C-8.02567505 13.89469772 -8.03377197 13.03378021 -8.04211426 12.14677429 C-7.98552374 8.14531906 -7.77915431 6.03033524 -5.68640137 2.52308655 C-3.5 0.5625 -3.5 0.5625 0 0 Z " fill="#F4F5F8" transform="translate(489.5,28.4375)"/>
<path d="M0 0 C3.9672797 0.26448531 5.67929288 0.7934343 8.75 3.25 C11.48257891 7.71361084 11.1176938 12.09872923 11.125 17.1875 C11.14949219 18.08146484 11.17398438 18.97542969 11.19921875 19.89648438 C11.21808738 24.13249149 11.16202571 26.5758558 8.9140625 30.25390625 C5.83786243 33.09133989 4.38340205 34.21723783 0.125 34.4375 C-3.25 34.25 -3.25 34.25 -4.25 33.25 C-4.3507812 30.88601532 -4.38973215 28.55188689 -4.3828125 26.1875 C-4.38376923 25.48101318 -4.38472595 24.77452637 -4.38571167 24.04663086 C-4.38639333 22.55029207 -4.38454005 21.05395033 -4.38037109 19.55761719 C-4.37502257 17.25969843 -4.38031651 14.96197514 -4.38671875 12.6640625 C-4.38605797 11.21354123 -4.3847768 9.76302009 -4.3828125 8.3125 C-4.38483673 7.6208374 -4.38686096 6.9291748 -4.38894653 6.21655273 C-4.35986031 0.33537387 -4.35986031 0.33537387 0 0 Z " fill="#ECEFF4" transform="translate(917.25,29.75)"/>
<path d="M0 0 C0.33 0 0.66 0 1 0 C1 5.61 1 11.22 1 17 C1.66 17 2.32 17 3 17 C3.33 11.72 3.66 6.44 4 1 C4.33 1 4.66 1 5 1 C5 50.17 5 99.34 5 150 C4.67 150 4.34 150 4 150 C3.67 110.07 3.34 70.14 3 29 C2.01 29.33 1.02 29.66 0 30 C0 20.1 0 10.2 0 0 Z " fill="#EFF1F6" transform="translate(1439,6)"/>
<path d="M0 0 C0.8566626 0.16226074 1.7133252 0.32452148 2.59594727 0.49169922 C5.94411785 0.99165555 9.08225348 1.12933477 12.46484375 1.1328125 C13.67720703 1.13410156 14.88957031 1.13539063 16.13867188 1.13671875 C17.39228516 1.13285156 18.64589844 1.12898437 19.9375 1.125 C21.18724609 1.12886719 22.43699219 1.13273438 23.72460938 1.13671875 C31.02042746 1.17340827 31.02042746 1.17340827 38.25390625 0.3671875 C39.16011719 0.24601563 40.06632812 0.12484375 41 0 C43 2 43 2 43 5 C27.82 5 12.64 5 -3 5 C-3 4.01 -3 3.02 -3 2 C-2.01 2 -1.02 2 0 2 C0 1.34 0 0.68 0 0 Z " fill="#F7F8FA" transform="translate(1674,158)"/>
<path d="M0 0 C0.66 0 1.32 0 2 0 C2.66 6.6 3.32 13.2 4 20 C3.34 20.33 2.68 20.66 2 21 C1.67 50.04 1.34 79.08 1 109 C0.67 109 0.34 109 0 109 C0 73.03 0 37.06 0 0 Z " fill="#B3BCD2" transform="translate(1552,48)"/>
<path d="M0 0 C0 0.99 0 1.98 0 3 C-12.21 3 -24.42 3 -37 3 C-37 1.68 -37 0.36 -37 -1 C-36.24904053 -0.99476318 -35.49808105 -0.98952637 -34.72436523 -0.98413086 C-31.29541879 -0.96324039 -27.86648579 -0.95030155 -24.4375 -0.9375 C-23.25607422 -0.92912109 -22.07464844 -0.92074219 -20.85742188 -0.91210938 C-13.80979596 -0.85298698 -13.80979596 -0.85298698 -6.8125 -1.5625 C-3.7282342 -2.04227468 -2.54628926 -1.7314767 0 0 Z " fill="#F9FAFB" transform="translate(412,160)"/>
<path d="M0 0 C1.12563103 0.00212242 1.12563103 0.00212242 2.27400208 0.00428772 C4.66838585 0.00988065 7.06267578 0.02243181 9.45703125 0.03515625 C11.08137886 0.04017217 12.70572793 0.04473491 14.33007812 0.04882812 C18.30993194 0.05984777 22.28971569 0.07710752 26.26953125 0.09765625 C26.26953125 1.41765625 26.26953125 2.73765625 26.26953125 4.09765625 C14.05953125 4.09765625 1.84953125 4.09765625 -10.73046875 4.09765625 C-10.73046875 3.10765625 -10.73046875 2.11765625 -10.73046875 1.09765625 C-7.09813773 -0.11312076 -3.77924888 -0.02678539 0 0 Z " fill="#F3F4F7" transform="translate(479.73046875,158.90234375)"/>
<path d="M0 0 C-0.97583008 1.97558594 -0.97583008 1.97558594 -3 4 C-5.92502152 4.35542824 -8.46785967 4.46653426 -11.38671875 4.390625 C-12.20372757 4.38496521 -13.02073639 4.37930542 -13.86250305 4.37347412 C-16.47143203 4.35108697 -19.07898636 4.30088846 -21.6875 4.25 C-23.45636037 4.22993792 -25.22524227 4.21168664 -26.99414062 4.1953125 C-31.32995656 4.1512148 -35.66474525 4.08217294 -40 4 C-40 3.01 -40 2.02 -40 1 C-39.09757568 0.97494385 -38.19515137 0.9498877 -37.26538086 0.92407227 C-33.89011166 0.82845373 -30.51498606 0.72925173 -27.13989258 0.62768555 C-25.6842047 0.58460067 -24.22847483 0.54290925 -22.77270508 0.50268555 C-20.66995639 0.44433589 -18.56741394 0.38083484 -16.46484375 0.31640625 C-15.202771 0.27974854 -13.94069824 0.24309082 -12.64038086 0.20532227 C-8.9542875 0.05460388 -8.9542875 0.05460388 -5.15844727 -0.58227539 C-2 -1 -2 -1 0 0 Z " fill="#F8F9FA" transform="translate(1325,159)"/>
<path d="M0 0 C0.33 0 0.66 0 1 0 C1 1.65 1 3.3 1 5 C2.98 4.01 4.96 3.02 7 2 C6.34 10.58 5.68 19.16 5 28 C4.34 28 3.68 28 3 28 C2.4932817 24.45926096 1.99582971 20.91727889 1.5 17.375 C1.35691406 16.37597656 1.21382813 15.37695312 1.06640625 14.34765625 C0.39647818 9.53055443 -0.19978289 4.87803213 0 0 Z " fill="#DCE0EB" transform="translate(270,64)"/>
<path d="M0 0 C-0.99 0.33 -1.98 0.66 -3 1 C-3 1.99 -3 2.98 -3 4 C-11.58 4 -20.16 4 -29 4 C-29.33 3.01 -29.66 2.02 -30 1 C-29.09290283 0.96241577 -29.09290283 0.96241577 -28.16748047 0.92407227 C-25.4031438 0.80736994 -22.63908634 0.68498266 -19.875 0.5625 C-18.92367187 0.52318359 -17.97234375 0.48386719 -16.9921875 0.44335938 C-13.09914242 0.26763165 -9.35371086 0.06053441 -5.5078125 -0.59765625 C-3 -1 -3 -1 0 0 Z " fill="#DFE3EC" transform="translate(842,159)"/>
<path d="M0 0 C0.66 0 1.32 0 2 0 C2 18.15 2 36.3 2 55 C1.67 55 1.34 55 1 55 C1 52.03 1 49.06 1 46 C0.34 46 -0.32 46 -1 46 C-1 45.01 -1 44.02 -1 43 C-0.34 43 0.32 43 1 43 C1 41.02 1 39.04 1 37 C0.34 37 -0.32 37 -1 37 C-0.91621094 36.37351563 -0.83242187 35.74703125 -0.74609375 35.1015625 C-0.59333984 33.87566406 -0.59333984 33.87566406 -0.4375 32.625 C-0.33308594 31.81289062 -0.22867187 31.00078125 -0.12109375 30.1640625 C0.18237328 27.95100814 0.18237328 27.95100814 -1 26 C-0.34 26 0.32 26 1 26 C1 24.02 1 22.04 1 20 C0.34 20 -0.32 20 -1 20 C-0.505 18.515 -0.505 18.515 0 17 C0.07973476 15.66474283 0.10771338 14.32587917 0.09765625 12.98828125 C0.09443359 12.23095703 0.09121094 11.47363281 0.08789062 10.69335938 C0.07532227 9.51483398 0.07532227 9.51483398 0.0625 8.3125 C0.05798828 7.51521484 0.05347656 6.71792969 0.04882812 5.89648438 C0.0370585 3.93095743 0.01912348 1.96546915 0 0 Z " fill="#EFF0F5" transform="translate(1191,100)"/>
<path d="M0 0 C0 1.32 0 2.64 0 4 C-5.61 4 -11.22 4 -17 4 C-17 3.34 -17 2.68 -17 2 C-20.63 2 -24.26 2 -28 2 C-28 1.67 -28 1.34 -28 1 C-27.39003174 0.97494385 -26.78006348 0.9498877 -26.15161133 0.92407227 C-23.37172102 0.8075942 -20.5921266 0.68510368 -17.8125 0.5625 C-16.85279297 0.52318359 -15.89308594 0.48386719 -14.90429688 0.44335938 C-13.97294922 0.40146484 -13.04160156 0.35957031 -12.08203125 0.31640625 C-11.22843018 0.27974854 -10.3748291 0.24309082 -9.49536133 0.20532227 C-6.95027345 0.05054951 -6.95027345 0.05054951 -4.30737305 -0.58227539 C-2 -1 -2 -1 0 0 Z " fill="#D7DBE7" transform="translate(1039,159)"/>
<path d="M0 0 C0.33 0 0.66 0 1 0 C1 8.58 1 17.16 1 26 C-0.32 26 -1.64 26 -3 26 C-3.33 26.66 -3.66 27.32 -4 28 C-3.42451004 22.14918545 -2.56667549 16.44003431 -1.4765625 10.6640625 C-0.84260012 7.12010889 -0.40491571 3.57675545 0 0 Z " fill="#EAECF2" transform="translate(686,51)"/>
<path d="M0 0 C1.97878634 3.39969298 2.54635491 6.53493793 3.10546875 10.41015625 C3.28400391 11.64701172 3.46253906 12.88386719 3.64648438 14.15820312 C3.82501953 15.44662109 4.00355469 16.73503906 4.1875 18.0625 C4.37763672 19.35478516 4.56777344 20.64707031 4.76367188 21.97851562 C4.93833984 23.21408203 5.11300781 24.44964844 5.29296875 25.72265625 C5.4530542 26.85453369 5.61313965 27.98641113 5.77807617 29.15258789 C6 32 6 32 5 35 C3.68 35 2.36 35 1 35 C1 34.01 1 33.02 1 32 C1.99 32 2.98 32 4 32 C3.67 27.38 3.34 22.76 3 18 C2.34 18 1.68 18 1 18 C-0.2062252 14.38132441 -0.10816918 11.07493749 -0.0625 7.3125 C-0.05798828 6.61060547 -0.05347656 5.90871094 -0.04882812 5.18554688 C-0.03706927 3.45699462 -0.01913454 1.72848635 0 0 Z " fill="#E6E9F0" transform="translate(245,51)"/>
<path d="M0 0 C0.33 0 0.66 0 1 0 C1 5.61 1 11.22 1 17 C1.99 17.33 2.98 17.66 4 18 C4 21.3 4 24.6 4 28 C2.02 28.99 2.02 28.99 0 30 C0 20.1 0 10.2 0 0 Z " fill="#C2C9DB" transform="translate(1439,6)"/>
<path d="M0 0 C0.74507812 0.15339844 1.49015625 0.30679688 2.2578125 0.46484375 C7.45254245 1.20772267 12.63487087 1.36567249 17.875 1.5625 C18.94492188 1.60568359 20.01484375 1.64886719 21.1171875 1.69335938 C23.74467754 1.79892817 26.37225422 1.90103791 29 2 C29 2.33 29 2.66 29 3 C22.07 3 15.14 3 8 3 C8 3.66 8 4.32 8 5 C4.37 5 0.74 5 -3 5 C-3 4.01 -3 3.02 -3 2 C-2.01 2 -1.02 2 0 2 C0 1.34 0 0.68 0 0 Z " fill="#D3D8E5" transform="translate(1674,158)"/>
<path d="M0 0 C-1.14453125 1.984375 -1.14453125 1.984375 -3 4 C-5.69921875 4.390625 -5.69921875 4.390625 -8.6875 4.25 C-9.68136719 4.21390625 -10.67523437 4.1778125 -11.69921875 4.140625 C-12.45847656 4.09421875 -13.21773437 4.0478125 -14 4 C-14 3.34 -14 2.68 -14 2 C-19.28 2 -24.56 2 -30 2 C-30 1.67 -30 1.34 -30 1 C-29.40050537 0.97494385 -28.80101074 0.9498877 -28.18334961 0.92407227 C-25.43456676 0.80714227 -22.68604625 0.68486053 -19.9375 0.5625 C-18.99455078 0.52318359 -18.05160156 0.48386719 -17.08007812 0.44335938 C-12.99529238 0.25833424 -8.98106365 0.0548474 -4.94140625 -0.59765625 C-2 -1 -2 -1 0 0 Z " fill="#C7CEDE" transform="translate(1325,159)"/>
<path d="M0 0 C1.74506836 0.07250977 1.74506836 0.07250977 3.52539062 0.14648438 C5.34780273 0.2305957 5.34780273 0.2305957 7.20703125 0.31640625 C8.43357422 0.36861328 9.66011719 0.42082031 10.92382812 0.47460938 C13.95598143 0.60439026 16.98781419 0.73936056 20.01953125 0.87890625 C20.01953125 1.20890625 20.01953125 1.53890625 20.01953125 1.87890625 C14.40953125 1.87890625 8.79953125 1.87890625 3.01953125 1.87890625 C3.01953125 2.53890625 3.01953125 3.19890625 3.01953125 3.87890625 C-0.94046875 3.87890625 -4.90046875 3.87890625 -8.98046875 3.87890625 C-8.98046875 2.88890625 -8.98046875 1.89890625 -8.98046875 0.87890625 C-5.67694976 -0.22226675 -3.46659703 -0.15219206 0 0 Z " fill="#D4D9E6" transform="translate(477.98046875,159.12109375)"/>
<path d="M0 0 C9.9 0 19.8 0 30 0 C26.20836973 2.52775351 23.19125969 2.22443035 18.8125 2.125 C18.06291016 2.11597656 17.31332031 2.10695312 16.54101562 2.09765625 C14.69387346 2.07412578 12.84689588 2.03825561 11 2 C11 2.66 11 3.32 11 4 C7.37 4 3.74 4 0 4 C0 2.68 0 1.36 0 0 Z " fill="#CED4E2" transform="translate(375,159)"/>
<path d="M0 0 C0.66 0 1.32 0 2 0 C2.66 6.6 3.32 13.2 4 20 C2.68 20.33 1.36 20.66 0 21 C0 14.07 0 7.14 0 0 Z " fill="#DBDFEA" transform="translate(1552,48)"/>
<path d="M0 0 C0.33 0 0.66 0 1 0 C1.33 5.28 1.66 10.56 2 16 C2.66 16 3.32 16 4 16 C4 19.63 4 23.26 4 27 C2.68 27.33 1.36 27.66 0 28 C0 18.76 0 9.52 0 0 Z " fill="#F0F2F6" transform="translate(132,7)"/>
<path d="M0 0 C0.99 0 1.98 0 3 0 C2.67 5.94 2.34 11.88 2 18 C1.34 18 0.68 18 0 18 C-0.83102978 14.37908451 -1.13513041 11.02529448 -1.125 7.3125 C-1.12757813 6.35988281 -1.13015625 5.40726562 -1.1328125 4.42578125 C-1 2 -1 2 0 0 Z " fill="#D8DCE8" transform="translate(658,74)"/>
<path d="M0 0 C0 1.32 0 2.64 0 4 C-3.63 4 -7.26 4 -11 4 C-11 3.34 -11 2.68 -11 2 C-15.95 2 -20.9 2 -26 2 C-26 1.67 -26 1.34 -26 1 C-22.04169483 0.83265991 -18.08335144 0.66624177 -14.125 0.5 C-12.43310547 0.42845703 -12.43310547 0.42845703 -10.70703125 0.35546875 C-9.63066406 0.31035156 -8.55429688 0.26523438 -7.4453125 0.21875 C-5.95281982 0.1559082 -5.95281982 0.1559082 -4.43017578 0.09179688 C-2.95418617 0.0360432 -1.47704224 0 0 0 Z " fill="#CFD4E2" transform="translate(1133,159)"/>
<path d="M0 0 C0.33 0 0.66 0 1 0 C1.0289337 3.79165074 1.04677601 7.58327327 1.0625 11.375 C1.07087891 12.45523438 1.07925781 13.53546875 1.08789062 14.6484375 C1.09111328 15.6796875 1.09433594 16.7109375 1.09765625 17.7734375 C1.10289307 18.72653809 1.10812988 19.67963867 1.11352539 20.66162109 C1 23 1 23 0 25 C-0.99 25 -1.98 25 -3 25 C-3 24.01 -3 23.02 -3 22 C-2.01 22 -1.02 22 0 22 C0 20.02 0 18.04 0 16 C-0.99 16 -1.98 16 -3 16 C-3 15.01 -3 14.02 -3 13 C-2.01 13 -1.02 13 0 13 C-0.34444881 10.52733235 -0.34444881 10.52733235 -1 8 C-1.66 7.67 -2.32 7.34 -3 7 C-3 6.34 -3 5.68 -3 5 C-2.01 5 -1.02 5 0 5 C0 3.35 0 1.7 0 0 Z " fill="#F1F2F6" transform="translate(1073,104)"/>
<path d="M0 0 C0.33 0 0.66 0 1 0 C1.36799953 9.46576558 0.22914592 18.63873691 -1 28 C-1.33 28 -1.66 28 -2 28 C-2 21.73 -2 15.46 -2 9 C-1.34 9 -0.68 9 0 9 C0 6.03 0 3.06 0 0 Z " fill="#A1ACC8" transform="translate(1587,31)"/>
<path d="M0 0 C0.33 0 0.66 0 1 0 C1.66 6.27 2.32 12.54 3 19 C1.35 19 -0.3 19 -2 19 C-2 18.01 -2 17.02 -2 16 C-1.01 16 -0.02 16 1 16 C0.835 15.030625 0.67 14.06125 0.5 13.0625 C-0.13396273 8.70512237 -0.0896672 4.39369296 0 0 Z " fill="#C2C9DB" transform="translate(248,67)"/>
<path d="M0 0 C0.66 0.33 1.32 0.66 2 1 C2 1.99 2 2.98 2 4 C0.36816893 5.05589069 -1.30792999 6.0436126 -3 7 C-5.05881333 8.60558511 -7.01993602 10.29622401 -9 12 C-7.55575365 8.76138697 -5.74227753 6.38030837 -3.375 3.75 C-2.74335937 3.04359375 -2.11171875 2.3371875 -1.4609375 1.609375 C-0.97882812 1.07828125 -0.49671875 0.5471875 0 0 Z " fill="#DDE1EA" transform="translate(530,142)"/>
<path d="M0 0 C0.66 0 1.32 0 2 0 C2.33 3.96 2.66 7.92 3 12 C2.34 12 1.68 12 1 12 C0.03929566 9.11788698 -0.10581883 7.30149956 -0.0625 4.3125 C-0.05347656 3.50425781 -0.04445313 2.69601563 -0.03515625 1.86328125 C-0.02355469 1.24839844 -0.01195312 0.63351563 0 0 Z " fill="#B3BCD3" transform="translate(1552,48)"/>
<path d="M0 0 C1.670625 0.061875 1.670625 0.061875 3.375 0.125 C3.375 0.455 3.375 0.785 3.375 1.125 C1.395 1.455 -0.585 1.785 -2.625 2.125 C-2.295 3.445 -1.965 4.765 -1.625 6.125 C-3.275 6.125 -4.925 6.125 -6.625 6.125 C-5.71577947 1.57889733 -4.95184304 0.17075321 0 0 Z " fill="#EDEFF4" transform="translate(1117.625,27.875)"/>
<path d="M0 0 C1.134375 0.020625 2.26875 0.04125 3.4375 0.0625 C1.4575 1.0525 1.4575 1.0525 -0.5625 2.0625 C-0.5625 3.0525 -0.5625 4.0425 -0.5625 5.0625 C-1.18125 4.876875 -1.8 4.69125 -2.4375 4.5 C-4.60410178 3.82563824 -4.60410178 3.82563824 -6.5625 5.0625 C-4.14811644 0.07277397 -4.14811644 0.07277397 0 0 Z " fill="#E5E8EF" transform="translate(489.5625,28.9375)"/>
<path d="M0 0 C-1.3125 2 -1.3125 2 -3 4 C-3.99 4 -4.98 4 -6 4 C-6 3.01 -6 2.02 -6 1 C-6.99 0.67 -7.98 0.34 -9 0 C-2.25 -1.125 -2.25 -1.125 0 0 Z " fill="#D0D6E3" transform="translate(1325,159)"/>
<path d="M0 0 C0 1.32 0 2.64 0 4 C-0.99 4 -1.98 4 -3 4 C-3 3.01 -3 2.02 -3 1 C-4.32 0.67 -5.64 0.34 -7 0 C-2.25 -1.125 -2.25 -1.125 0 0 Z " fill="#DFE3EC" transform="translate(1039,159)"/>
</svg>
