<?xml version="1.0" encoding="utf-8"?>
<!-- Generator: Adobe Illustrator 26.5.0, SVG Export Plug-In . SVG Version: 6.00 Build 0)  -->
<svg version="1.1" id="Ebene_1" xmlns="http://www.w3.org/2000/svg" xmlns:xlink="http://www.w3.org/1999/xlink" x="0px" y="0px"
	 viewBox="0 0 283.5 70" style="enable-background:new 0 0 283.5 70;" xml:space="preserve">
<style type="text/css">
	.st0{fill:#205EA7;}
	.st1{fill:#064A80;}
	.st2{fill:#098F9B;}
	.st3{fill:#006B76;}
	.st4{fill:#EF8124;}
	.st5{fill:#D37013;}
	.st6{clip-path:url(#SVGID_00000084511439434184565860000008231202259057397634_);fill:#225FA8;}
	.st7{clip-path:url(#SVGID_00000084511439434184565860000008231202259057397634_);fill:#2F3944;}
</style>
<g>
	<polygon class="st0" points="21.3,0.6 21.3,22.4 40.2,33.3 40.2,11.5 	"/>
	<polygon class="st1" points="2.3,33.3 21.3,44.3 40.2,33.3 21.3,22.4 	"/>
	<polygon class="st2" points="63,0.6 44,11.5 44,33.3 63,22.4 	"/>
	<polygon class="st3" points="44,33.3 63,22.4 82,33.3 63,44.3 	"/>
	<polygon class="st4" points="23.2,47.5 23.2,69.4 42.1,58.4 42.1,36.6 	"/>
	<polygon class="st5" points="42.1,58.4 61.1,69.4 61.1,47.5 42.1,36.6 	"/>
	<g>
		<defs>
			<rect id="SVGID_1_" x="2.3" y="0.6" width="279.9" height="68.8"/>
		</defs>
		<clipPath id="SVGID_00000059995280579381344470000003714642991401941390_">
			<use xlink:href="#SVGID_1_"  style="overflow:visible;"/>
		</clipPath>
		<path style="clip-path:url(#SVGID_00000059995280579381344470000003714642991401941390_);fill:#225FA8;" d="M153.6,22h11.8v-5
			h-11.8v-5.4h13.2V6.3h-19.1v26.4h19.5v-5.2h-13.6V22z M106.2,32.7h5.9V6.3h-5.9V32.7z M226.7,6.3l-11.4,26.4h6.3l2.5-5.7h11.1
			l2.5,5.7h6.3L232.4,6.3H226.7z M226.3,21.8l3.3-7.7l3.3,7.7H226.3z M82.9,11.4h7.5v21.3h5.9V11.4h7.5V6.3H82.9V11.4z M129.9,20.8
			l-6.8-14.5h-8v26.4h5.9V16.1l7.1,14.4h3.5l7.1-14.4v16.6h5.9V6.3h-7.9L129.9,20.8z M168.4,11.4h7.5v21.3h5.9V11.4h7.5V6.3h-20.9
			V11.4z M213.2,9.6c-2.7-2.6-6-3.9-9.9-3.9c-3.9,0-7.2,1.3-9.9,3.9c-2.7,2.6-4,5.9-4,9.7c0,3.9,1.3,7.1,4,9.7s6,3.9,9.9,3.9
			c3.9,0,7.2-1.3,9.9-3.9s4-5.9,4-9.7C217.2,15.5,215.9,12.2,213.2,9.6 M209,25.4c-1.5,1.7-3.4,2.5-5.6,2.5c-2.2,0-4.1-0.8-5.6-2.5
			c-1.5-1.7-2.3-3.7-2.3-6c0-2.4,0.8-4.4,2.3-6c1.5-1.7,3.4-2.5,5.6-2.5c2.2,0,4.1,0.8,5.6,2.5c1.5,1.7,2.3,3.7,2.3,6
			C211.2,21.7,210.5,23.7,209,25.4 M255.6,27.5c-2.1,0-3.9-0.7-5.4-2.2c-1.5-1.5-2.2-3.5-2.2-5.9c0-2.5,0.8-4.4,2.4-5.9
			c1.6-1.4,3.5-2.2,5.7-2.2c0.3,0,0.5,0,0.8,0V5.7c-0.3,0-0.7,0-1,0c-3.9,0-7.2,1.3-9.9,3.9c-2.7,2.6-4,5.9-4,9.8
			c0,3.9,1.3,7.2,4,9.7c2.6,2.6,6,3.9,10.1,3.9c4.1,0,7.6-1.7,10.6-5.1l-3.8-3.9C260.9,26.4,258.5,27.5,255.6,27.5 M261.4,6.3v5.1
			h7.5v21.3h5.9V11.4h7.5V6.3H261.4z"/>
		<path style="clip-path:url(#SVGID_00000059995280579381344470000003714642991401941390_);fill:#2F3944;" d="M132.2,46.3
			c0-3.1-0.9-5.3-2.6-6.7c-1.8-1.4-4.7-2.1-8.8-2.1h-10V64h5.9V49.6l0,0v-7h4.4c1.9,0,3.2,0.3,4,0.8c0.8,0.5,1.1,1.5,1.1,2.9
			c0,1.4-0.4,2.5-1.1,3.1c-0.7,0.7-2.1,1-4.1,1h-3.7l9.4,13.5h7.2l-6.7-9.5C130.5,53.3,132.2,50.6,132.2,46.3 M102.3,57.8
			c-1.4,0.8-3.1,1.2-5.1,1.2c-2,0-3.8-0.7-5.3-2.3c-1.5-1.5-2.2-3.5-2.2-6c0-2.5,0.8-4.5,2.3-6c1.5-1.5,3.4-2.3,5.7-2.3
			c1.2,0,2.2,0.2,3.2,0.6c1,0.4,2.1,1.1,3.3,2.1l3.1-4.4c-2.8-2.5-6.1-3.7-9.9-3.7c-3.8,0-7,1.3-9.7,3.9c-2.7,2.6-4,5.9-4,9.8
			c0,3.9,1.3,7.2,4,9.7c2.6,2.6,5.9,3.9,9.8,3.9c4.6,0,8.3-1.5,10.9-4.4v-9.4h-5.9V57.8z M207.8,39.9c-1.9-1.6-4.8-2.4-8.9-2.4h-9.3
			V64h5.9v-7.4h3.5c3.9,0,6.8-0.8,8.7-2.3c1.9-1.5,2.9-3.9,2.9-7.2C210.6,43.9,209.7,41.5,207.8,39.9 M203.5,50.3
			c-0.7,0.8-2,1.2-4,1.2h-4v-8.9h3.4c1.9,0,3.4,0.3,4.3,1c0.9,0.6,1.4,1.7,1.4,3.3C204.6,48.4,204.2,49.5,203.5,50.3 M181.1,52.1
			c0,2.1-0.5,3.8-1.5,5c-1,1.2-2.3,1.8-4,1.8c-1.7,0-3-0.6-4-1.8c-1-1.2-1.5-2.9-1.5-5V37.5h-5.9v14.8c0,3.8,1.1,6.7,3.2,8.8
			c2.1,2.1,4.8,3.1,8.2,3.1c3.3,0,6-1,8.1-3.1c2.1-2.1,3.2-5,3.2-8.8V37.5h-5.9V52.1z M148.5,36.9c-3.9,0-7.2,1.3-9.9,3.9
			c-2.7,2.6-4,5.9-4,9.7c0,3.9,1.3,7.1,4,9.7c2.7,2.6,6,3.9,9.9,3.9c3.9,0,7.2-1.3,9.9-3.9c2.7-2.6,4-5.9,4-9.7c0-3.9-1.3-7.1-4-9.7
			C155.7,38.2,152.4,36.9,148.5,36.9 M154.1,56.6c-1.5,1.7-3.4,2.5-5.6,2.5c-2.2,0-4.1-0.8-5.6-2.5c-1.5-1.7-2.3-3.7-2.3-6
			c0-2.4,0.8-4.4,2.3-6c1.5-1.7,3.4-2.5,5.6-2.5c2.2,0,4.1,0.8,5.6,2.5c1.5,1.7,2.3,3.7,2.3,6C156.4,53,155.6,55,154.1,56.6"/>
	</g>
</g>
</svg>
