<?xml version="1.0" encoding="UTF-8" standalone="no"?>
<svg
   id="Layer_2"
   data-name="Layer 2"
   viewBox="0 0 189.99943 55.771001"
   version="1.1"
   sodipodi:docname="logo.svg"
   inkscape:version="1.2.2 (b0a84865, 2022-12-01)"
   width="189.99944"
   height="55.771"
   xmlns:inkscape="http://www.inkscape.org/namespaces/inkscape"
   xmlns:sodipodi="http://sodipodi.sourceforge.net/DTD/sodipodi-0.dtd"
   xmlns="http://www.w3.org/2000/svg"
   xmlns:svg="http://www.w3.org/2000/svg">
  <sodipodi:namedview
     id="namedview166"
     pagecolor="#ffffff"
     bordercolor="#000000"
     borderopacity="0.25"
     inkscape:showpageshadow="2"
     inkscape:pageopacity="0.0"
     inkscape:pagecheckerboard="0"
     inkscape:deskcolor="#d1d1d1"
     showgrid="false"
     inkscape:zoom="2.9303856"
     inkscape:cx="231.02761"
     inkscape:cy="103.22873"
     inkscape:window-width="2242"
     inkscape:window-height="1205"
     inkscape:window-x="480"
     inkscape:window-y="195"
     inkscape:window-maximized="0"
     inkscape:current-layer="Layer_2" />
  <defs
     id="defs134">
    <style
       id="style132">
      .cls-1 {
        fill: #fcb328;
      }

      .cls-1, .cls-2 {
        stroke-width: 0px;
      }

      .cls-2 {
        fill: #343738;
      }
    </style>
  </defs>
  <g
     id="Layer_1-2"
     data-name="Layer 1"
     transform="matrix(0.44770485,0,0,0.44770485,0,7.3472869e-4)">
    <g
       id="g162">
      <g
         id="g144">
        <path
           class="cls-2"
           d="M 53.77,8.67 C 24.07,8.67 0,32.74 0,62.43 c 0,29.69 24.07,53.77 53.77,53.77 29.7,0 53.77,-24.07 53.77,-53.77 0,-29.7 -24.08,-53.76 -53.77,-53.76 z M 55.28,113.7 C 26.96,113.7 4.01,90.75 4.01,62.43 c 0,-28.32 22.96,-51.27 51.27,-51.27 28.31,0 51.27,22.95 51.27,51.27 0,28.32 -22.95,51.27 -51.27,51.27 z"
           id="path136" />
        <path
           class="cls-2"
           d="M 25.47,31.94 C 3.88,52.32 2.89,86.35 23.28,107.95 c 20.38,21.59 54.41,22.58 76,2.19 21.59,-20.38 22.58,-54.41 2.19,-76 -20.38,-21.59 -54.41,-22.58 -76,-2.19 v 0 z m 73.2,75.34 C 78.08,126.72 45.63,125.78 26.19,105.19 6.75,84.6 7.69,52.15 28.28,32.71 c 20.59,-19.44 53.04,-18.5 72.48,2.09 19.44,20.59 18.5,53.04 -2.09,72.48 z"
           id="path138" />
        <path
           class="cls-2"
           d="M 115.02,31.58 C 97.98,7.26 64.45,1.36 40.13,18.4 15.81,35.44 9.91,68.96 26.94,93.28 43.98,117.6 77.5,123.5 101.82,106.47 126.14,89.43 132.04,55.91 115.01,31.59 v 0 z M 29.86,93.09 C 13.61,69.9 19.24,37.93 42.43,21.68 65.62,5.43 97.59,11.06 113.84,34.25 130.09,57.44 124.46,89.41 101.27,105.66 78.08,121.91 46.11,116.28 29.86,93.09 Z"
           id="path140" />
        <path
           class="cls-2"
           d="M 99.1,93.04 C 120.79,72.76 121.93,38.74 101.65,17.05 81.37,-4.65 47.34,-5.79 25.65,14.5 3.96,34.78 2.82,68.8 23.11,90.49 c 20.28,21.69 54.3,22.83 75.99,2.55 z M 26.25,17.35 C 46.93,-1.99 79.38,-0.9 98.72,19.78 118.06,40.46 116.97,72.91 96.29,92.25 75.61,111.59 43.16,110.5 23.82,89.82 4.48,69.14 5.57,36.69 26.25,17.35 Z"
           id="path142" />
      </g>
      <polygon
         class="cls-2"
         points="157.46,84.66 157.46,43.65 144.49,43.65 144.49,35 180.13,35 180.13,43.65 167.16,43.65 167.16,84.66 "
         id="polygon146" />
      <path
         class="cls-2"
         d="m 189.65,85.08 c -5.37,0 -9.07,-1.39 -12.76,-5.09 l 6.42,-6.35 c 1.6,1.6 3.14,2.79 6.35,2.79 4.74,0 7.81,-2.79 7.81,-8.51 V 35 h 9.69 v 33.34 c 0,10.95 -8.3,16.74 -17.51,16.74 z"
         id="path148" />
      <path
         class="cls-2"
         d="m 243.87,84.66 -2.93,-8.79 h -17.65 l -3,8.79 H 210.18 L 228.24,35 h 7.6 l 18.13,49.66 H 243.86 Z M 232.3,49.65 226.02,67.71 h 12.35 z"
         id="path150" />
      <polygon
         class="cls-2"
         points="291.9,76.01 291.9,84.66 259.67,84.66 259.67,35 269.37,35 269.37,76.01 "
         id="polygon152" />
      <path
         class="cls-2"
         d="m 329.37,79.92 c -3.28,3.28 -7.95,4.74 -13.11,4.74 H 298.34 V 35 h 17.92 c 5.16,0 9.83,1.46 13.11,4.74 5.58,5.58 5.02,12.41 5.02,19.88 0,7.47 0.56,14.72 -5.02,20.3 z m -6.77,-33.2 c -1.67,-2.02 -3.91,-3.07 -7.25,-3.07 h -7.32 v 32.36 h 7.32 c 3.35,0 5.58,-1.05 7.25,-3.07 1.81,-2.23 2.09,-5.79 2.09,-13.32 0,-7.53 -0.28,-10.67 -2.09,-12.9 z"
         id="path154" />
      <path
         class="cls-2"
         d="m 360.15,85.08 c -10.18,0 -18.27,-6.9 -18.27,-17.44 V 35 h 9.69 v 32.29 c 0,5.72 3.35,9.14 8.58,9.14 5.23,0 8.65,-3.42 8.65,-9.14 V 35 h 9.62 v 32.64 c 0,10.53 -8.09,17.44 -18.27,17.44 z"
         id="path156" />
      <path
         class="cls-2"
         d="m 413.97,84.66 -9.7,-19.81 h -6.97 v 19.81 h -9.69 V 35 h 19.46 c 10.11,0 16.11,6.9 16.11,15.2 0,6.97 -4.25,11.3 -9.07,13.04 l 11.09,21.41 h -11.23 z m -7.53,-41.01 h -9.14 v 13.11 h 9.14 c 4.25,0 7.04,-2.72 7.04,-6.56 0,-3.84 -2.79,-6.56 -7.04,-6.56 v 0 z"
         id="path158" />
      <path
         class="cls-1"
         d="M 86.19,61.62 C 84.11,48.63 74.71,35.63 64.5,35.63 c -10.21,0 -19.62,13 -21.69,25.99 -2.57,16.07 6.67,29.62 21.69,29.62 15.02,0 24.26,-13.56 21.69,-29.62 z M 64.5,82.03 c -12.29,0 -19.85,-11.09 -17.75,-24.24 1.7,-10.63 9.39,-21.27 17.75,-21.27 8.36,0 16.05,10.64 17.75,21.27 2.1,13.15 -5.46,24.24 -17.75,24.24 z"
         id="path160" />
    </g>
  </g>
</svg>
