<?xml version="1.0" encoding="UTF-8" standalone="no"?>
<!-- Created with Inkscape (http://www.inkscape.org/) -->

<svg
   version="1.1"
   id="svg1"
   width="64"
   height="29.120001"
   viewBox="0 0 64 29.120001"
   sodipodi:docname="trustsource.svg"
   inkscape:version="1.4.3 (0d15f75, 2025-12-25)"
   xmlns:inkscape="http://www.inkscape.org/namespaces/inkscape"
   xmlns:sodipodi="http://sodipodi.sourceforge.net/DTD/sodipodi-0.dtd"
   xmlns="http://www.w3.org/2000/svg"
   xmlns:svg="http://www.w3.org/2000/svg">
  <defs
     id="defs1" />
  <sodipodi:namedview
     id="namedview1"
     pagecolor="#ffffff"
     bordercolor="#000000"
     borderopacity="0.25"
     inkscape:showpageshadow="2"
     inkscape:pageopacity="0.0"
     inkscape:pagecheckerboard="0"
     inkscape:deskcolor="#d1d1d1"
     inkscape:zoom="5.04"
     inkscape:cx="32.043651"
     inkscape:cy="14.384921"
     inkscape:current-layer="g1" />
  <g
     inkscape:groupmode="layer"
     inkscape:label="Image"
     id="g1">
    <g
       id="g2">
      <path
         style="fill:#a0d7cd"
         d="M 0.91545087,28.500645 C 0.21561829,27.926887 0.19848014,27.84213 0.68266725,27.349406 1.1066849,26.917912 1.336163,26.887541 1.8984923,27.18849 2.2797291,27.392522 2.9805288,27.514579 3.455825,27.459729 4.1347229,27.381382 4.32,27.190436 4.32,26.569112 4.32,25.930528 4.0575387,25.681272 2.957083,25.274767 1.1848658,24.620115 0.53333333,23.93676 0.53333333,22.732634 c 0,-1.186889 1.10864307,-2.460718 2.38574497,-2.741216 C 4.028753,19.747692 6.08,20.366921 6.08,20.945635 c 0,0.786621 -0.8183342,1.172386 -1.7420283,0.821198 -1.0465907,-0.397913 -2.1861887,0.09877 -2.0344485,0.886692 0.056174,0.291688 0.7379124,0.765197 1.514974,1.052241 2.6291914,0.971215 3.307681,2.817287 1.6461182,4.47885 -0.7545939,0.754594 -1.2116129,0.935385 -2.3645491,0.935385 -0.9397422,0 -1.6878714,-0.212101 -2.18461543,-0.619356 z M 8.2953846,28.184616 C 6.7211442,26.610376 7.0672089,24.178801 9.0083604,23.174993 11.168783,22.057795 13.76,23.593638 13.76,25.991343 c 0,2.845541 -3.434057,4.223831 -5.4646154,2.193273 z M 11.828741,26.901038 C 12.010934,26.560609 12.16,26.066894 12.16,25.803895 c 0,-0.662796 -0.885344,-1.483894 -1.6,-1.483894 -1.2957698,0 -2.1209821,1.911018 -1.216,2.816 0.60847,0.60847 2.109304,0.466548 2.484741,-0.234963 z M 15.68,28.480001 c -0.526222,-0.526222 -0.64,-1.066667 -0.64,-3.04 0,-2.346667 0.01778,-2.4 0.8,-2.4 0.771676,0 0.8,0.074 0.8,2.090043 0,1.639799 0.112773,2.133318 0.523495,2.290927 1.04053,0.399289 1.551675,-0.347803 1.651775,-2.414243 0.08954,-1.848404 0.14248,-1.966727 0.88,-1.966727 0.775047,0 0.78473,0.03566 0.78473,2.890043 0,2.284543 -0.10142,2.928961 -0.484075,3.0758 -0.266242,0.102167 -0.685422,0.01865 -0.931511,-0.185582 -0.306358,-0.254254 -0.512822,-0.265542 -0.654811,-0.0358 -0.348399,0.563721 -2.051371,0.373771 -2.729603,-0.304461 z m 6.306832,0.440165 C 21.862074,28.795408 21.76,27.415501 21.76,25.853704 v -2.83963 l 1.2,0.01909 c 0.66,0.0105 1.56,-0.01966 2,-0.06704 0.618373,-0.06658 0.823216,0.07733 0.902256,0.63387 0.08214,0.578374 -0.05178,0.72 -0.680817,0.72 -1.125194,0 -1.452533,0.571817 -1.563413,2.731068 -0.08418,1.639213 -0.190314,1.922143 -0.751194,2.00243 -0.359243,0.05142 -0.755243,-0.0086 -0.88,-0.133333 z m 5.23772,-0.628611 C 26.429075,27.622205 26.24,27.218719 26.24,26.190518 c 0,-1.623188 0.411447,-2.375893 1.64836,-3.015525 1.7997,-0.930661 4.188431,0.05575 3.153839,1.302359 -0.299493,0.360866 -0.53876,0.389266 -1.036278,0.123003 C 28.983209,24.053016 27.84,24.725245 27.84,25.873958 c 0,1.200443 0.708187,1.776405 1.892884,1.539466 1.272039,-0.254408 2.055496,0.601924 1.153876,1.261205 -0.971985,0.710732 -2.559661,0.544658 -3.662208,-0.383074 z m 5.710833,-0.106939 c -1.574241,-1.57424 -1.228176,-4.005815 0.712975,-5.009623 2.010063,-1.039444 4.426704,0.414218 4.430444,2.665008 0.0011,0.678209 -0.12882,0.72 -2.238804,0.72 -2.268,0 -2.789118,0.323603 -1.570967,0.975538 0.500863,0.268054 0.90833,0.258935 1.621036,-0.03628 0.798966,-0.330943 1.032177,-0.314158 1.450748,0.104413 0.451662,0.451662 0.405861,0.546779 -0.485144,1.007536 -1.533517,0.793013 -2.843196,0.650497 -3.920288,-0.426595 z m 3.34983,-3.359873 c -0.369699,-0.96342 -2.117342,-0.972251 -2.48561,-0.01256 -0.140873,0.36711 0.126152,0.467819 1.240395,0.467819 1.096379,0 1.380108,-0.103733 1.245215,-0.455258 z m 9.429184,3.655258 C 44.971481,27.349228 32.96,6.3828541 32.96,6.2168417 c 0,-0.075263 4.536,-0.1368415 10.08,-0.1368415 7.856336,0 10.077655,0.088241 10.069369,0.4 -0.0058,0.22 -0.40896,0.976 -0.895806,1.68 l -0.885176,1.2800001 h -6.307938 c -4.66048,0 -6.270616,0.097121 -6.165033,0.3718664 0.0786,0.2045263 1.813215,3.2879593 3.854705,6.8520733 l 3.711798,6.480208 -0.09096,3.067926 c -0.08807,2.970352 -0.107677,3.042483 -0.616561,2.267927 z M 47.04,26.126294 v -3.121706 l 5.6,-9.74719 c 3.08,-5.3609549 5.6,-9.8169872 5.6,-9.9022942 0,-0.085307 -2.866317,-0.1551037 -6.369593,-0.1551037 H 45.500814 L 44.642195,1.7348783 C 44.169955,0.92906129 43.846354,0.20697904 43.923082,0.13025106 43.99981,0.05352309 48.550636,0.02882788 54.036028,0.07537283 L 64.009469,0.16 55.8386,14.390135 C 51.344622,22.21671 47.526491,28.76151 47.353865,28.934136 47.148712,29.139289 47.04,28.166754 47.04,26.126294 Z M 12.06615,14.714863 C 11.254753,14.076618 11.2,13.87319 11.2,11.496775 c 0,-2.4925597 0.01394,-2.5367747 0.8,-2.5367747 0.769707,0 0.8,0.077279 0.8,2.0408177 0,2.267142 0.550177,3.173141 1.546823,2.54722 0.392091,-0.246244 0.558215,-0.897577 0.627798,-2.461444 0.08982,-2.0187743 0.13444,-2.1265937 0.88,-2.1265937 0.778906,0 0.785379,0.02514 0.785379,3.0500247 v 3.050024 l -1.04,-0.0536 c -0.572,-0.02948 -1.406233,0.04615 -1.85385,0.168064 -0.587479,0.160007 -1.054769,0.03216 -1.68,-0.459651 z m 6.606595,0.327279 c -1.004973,-0.405484 -1.134255,-0.807283 -0.456968,-1.42022 0.393861,-0.356439 0.673217,-0.426255 0.81134,-0.202767 0.115859,0.187465 0.574155,0.340845 1.018435,0.340845 1.125427,0 0.796659,-0.718053 -0.498889,-1.089611 -0.573757,-0.164551 -1.268437,-0.642948 -1.543734,-1.063103 -0.46261,-0.706033 -0.451982,-0.829214 0.140257,-1.6256025 0.765826,-1.0298129 2.755136,-1.333031 3.776814,-0.5756763 0.639644,0.4741586 0.639645,0.4746855 9.07e-4,0.9477488 -0.448246,0.331981 -0.757595,0.374978 -1.035925,0.143985 C 20.4497,10.136489 19.52,10.365751 19.52,10.834344 c 0,0.161937 0.50509,0.389186 1.122422,0.504998 2.268058,0.42549 2.663728,2.714702 0.61702,3.569871 -1.216878,0.508444 -1.606388,0.528461 -2.586697,0.132929 z m 6.038457,-0.180287 C 24.114635,14.444004 24,14.063175 24,12.499177 c 0,-1.595411 -0.09238,-1.888689 -0.64,-2.031896 -0.382913,-0.100134 -0.64,-0.436485 -0.64,-0.8373224 0,-0.456625 0.203794,-0.6699583 0.64,-0.6699583 0.469333,0 0.64,-0.2133334 0.64,-0.8000001 0,-0.64 0.16,-0.8 0.8,-0.8 0.64,0 0.8,0.16 0.8,0.8 0,0.6400001 0.16,0.8000001 0.8,0.8000001 0.64,0 0.8,0.16 0.8,0.8 C 27.2,10.404576 27.041169,10.56 26.382467,10.56 c -0.775658,0 -0.812538,0.07786 -0.72,1.52 0.08323,1.297118 0.203109,1.534995 0.817533,1.622257 0.838485,0.119084 0.991323,1.165154 0.213828,1.463507 -0.784715,0.301123 -1.212424,0.235562 -1.982626,-0.303909 z M 2.56,11.52 V 8.0000002 H 1.28 C 0.06793913,8.0000002 0,7.9484713 0,7.0291741 V 6.0583479 l 3.44,0.090826 c 3.4317797,0.090609 3.44,0.092738 3.44,0.8908262 0,0.712408 -0.1489065,0.8107738 -1.36,0.8983993 L 4.16,8.0367988 V 11.5384 15.04 H 3.36 2.56 Z M 6.4,12.039891 V 8.9972716 l 2,0.061364 c 1.762821,0.054087 2,0.1368889 2,0.6982218 0,0.4576663 -0.270113,0.6832233 -0.96,0.8016453 -0.9301663,0.159667 -0.9649723,0.229376 -1.12,2.243143 -0.1527095,1.983652 -0.200098,2.082968 -1.04,2.17961 L 6.4,15.082511 Z"
         id="path8" />
      <path
         style="fill:#6cc5b4"
         d="M 1.3139478,28.62356 C 0.2615469,28.166775 0.24544725,28.132775 0.79435304,27.526241 1.3041885,26.962879 1.4278621,26.947277 2.0316073,27.370156 c 0.8818437,0.617668 1.2654152,0.592988 2.1701618,-0.139631 0.7305463,-0.591561 0.7355993,-0.62834 0.1719001,-1.25122 -0.3194239,-0.35296 -0.9661728,-0.73737 -1.4372199,-0.854246 -3.32043714,-0.823863 -2.82830164,-4.965058 0.5900425,-4.965058 0.7235705,0 1.6060628,0.15546 1.961094,0.345467 0.6082463,0.325523 0.6143487,0.379901 0.1057077,0.941943 -0.42244,0.466791 -0.6612208,0.52065 -1.0982509,0.247721 C 3.69976,21.198469 2.24,21.633336 2.24,22.366915 c 0,0.722958 0.5246391,1.191624 1.6501673,1.474113 2.4974153,0.626812 3.061481,3.686312 0.8869458,4.810808 -1.1294992,0.584087 -2.0700137,0.576408 -3.4631653,-0.02828 z m 8.0902498,0.194929 C 8.1508808,28.289633 7.2833896,26.838457 7.480293,25.600101 c 0.380884,-2.39544 3.334189,-3.411515 5.21459,-1.794063 1.821114,1.566456 0.802319,4.729585 -1.654883,5.138038 -0.528,0.08777 -1.2641111,0.03125 -1.6358024,-0.125587 z m 2.1706054,-1.508084 c 0.664559,-0.601418 0.775034,-2.032567 0.201197,-2.606404 -0.503088,-0.503088 -2.0132563,-0.49305 -2.4071426,0.016 -0.6601504,0.853163 -0.6736623,1.503859 -0.047751,2.299576 0.74726,0.949987 1.428232,1.037863 2.253697,0.290828 z m 4.250652,1.024141 C 15.138707,27.647799 15.04,27.262968 15.04,25.27229 c 0,-2.178093 0.03122,-2.272369 0.72,-2.174546 0.783211,0.111234 0.781545,0.10602 0.84,2.62802 0.0434,1.872273 0.526701,2.390056 1.663181,1.78183 C 18.775663,27.233323 18.88,26.823782 18.88,25.086486 c 0,-1.93338 0.04987,-2.08329 0.661587,-1.988742 0.605248,0.09355 0.666561,0.34072 0.72,2.902561 0.05089,2.439526 -0.0113,2.800266 -0.482702,2.8 -0.297613,-1.67e-4 -0.631065,-0.145848 -0.741006,-0.323736 -0.126528,-0.204726 -0.453207,-0.146003 -0.890087,0.16 -0.954061,0.66825 -1.411563,0.608751 -2.322337,-0.302023 z m 12.166789,0.338753 c -1.88046,-0.819315 -2.297423,-3.21735 -0.816859,-4.697914 0.718462,-0.718462 1.228847,-0.935384 2.200817,-0.935384 1.388259,0 2.208762,0.607036 1.618429,1.197368 -0.192577,0.192578 -0.822991,0.273408 -1.40092,0.179623 -0.882138,-0.143151 -1.140152,-0.03412 -1.607638,0.679354 -0.440802,0.672749 -0.484771,1.008084 -0.210972,1.609008 0.415523,0.911972 1.41663,1.290034 2.243789,0.847352 0.420603,-0.2251 0.714715,-0.2111 0.972087,0.04627 0.570782,0.570781 0.451204,0.789766 -0.638728,1.169719 -1.218959,0.424931 -1.160328,0.427301 -2.360005,-0.0954 z m 6.051954,0.14519 c -0.371692,-0.156841 -0.996698,-0.693118 -1.388904,-1.191726 -1.48039,-1.882011 0.01702,-4.586762 2.539325,-4.586762 1.461962,0 2.565381,1.119666 2.565381,2.603155 0,0.916281 -0.0013,0.916845 -2.106667,0.916845 -1.475002,0 -2.068973,0.113081 -1.980954,0.377138 0.256691,0.770071 1.153103,1.063752 2.126012,0.69652 1.207428,-0.455753 2.025758,-0.04102 1.317323,0.667627 -0.618922,0.619105 -2.199346,0.885228 -3.071516,0.517203 z M 36.48,25.024001 c 0,-0.903963 -1.776519,-1.359481 -2.496,-0.64 -0.676628,0.676628 -0.418083,0.896 1.056,0.896 0.792,0 1.44,-0.1152 1.44,-0.256 z m -14.4,0.896 c 0,-2.624928 0.05432,-2.88 0.613333,-2.88 0.337334,0 0.679334,0.18 0.76,0.4 0.117334,0.32 0.231467,0.32 0.570667,0 0.667216,-0.629449 1.576,-0.491056 1.576,0.24 0,0.466897 -0.213333,0.64 -0.788741,0.64 -1.025729,0 -1.451259,0.838288 -1.451259,2.858963 0,1.407703 -0.08423,1.621037 -0.64,1.621037 -0.592593,0 -0.64,-0.213334 -0.64,-2.88 z m 17.6,-8.119654 C 36.248,11.812816 33.392,6.7982932 33.333333,6.6569634 33.274667,6.5156337 37.69253,6.4000002 43.150806,6.4000002 l 9.92414,0 -0.804831,1.44 -0.804832,1.4400001 -6.532641,0 c -3.592953,0 -6.532642,0.051633 -6.532642,0.1147408 0,0.063107 1.732938,3.1100559 3.850973,6.7709959 l 3.850972,6.656256 -0.09097,2.932387 -0.09097,2.932387 z m 7.68,8.02318 v -3.114421 l 5.579779,-9.754553 5.579778,-9.7545529 H 52.030636 45.541714 L 44.670885,1.6 43.800056,0 53.926127,0 64.052198,0 63.410492,1.04 C 63.057554,1.612 59.30181,8.1230384 55.064393,15.508974 L 47.36,28.937948 Z M 2.56,11.36 V 7.6800002 H 1.28 c -1.06666667,0 -1.28,-0.1066666 -1.28,-0.64 0,-0.5993651 0.21333333,-0.64 3.36,-0.64 3.1466667,0 3.36,0.040635 3.36,0.64 0,0.5333334 -0.2133333,0.64 -1.28,0.64 H 4.16 V 11.36 15.04 h -0.8 -0.8 z m 4.1381534,3.44 c -0.083957,-0.922328 0.094894,-5.6997133 0.2179884,-5.8228082 0.08413,-0.08413 0.4513928,0.033407 0.8161386,0.2611948 0.4756607,0.297055 0.7610833,0.31625 1.0094469,0.067886 C 9.4055043,8.642496 10.24,8.905728 10.24,9.7788857 c 0,0.4874343 -0.135219,0.7353153 -0.3340723,0.6124173 -0.1837398,-0.113557 -0.6877398,0.02526 -1.12,0.308492 C 8.096458,11.151553 8,11.449493 8,13.127377 8,14.826667 7.9286146,15.04 7.36,15.04 7.008,15.04 6.710169,14.932 6.6981534,14.8 Z M 11.67201,14.272717 c -0.363099,-0.55416 -0.476254,-1.376342 -0.407377,-2.96 C 11.349339,9.3651225 11.431545,9.1200003 12,9.1200003 c 0.56381,0 0.659048,0.2666666 0.8,2.2399997 0.140427,1.965971 0.24172,2.251676 0.828002,2.335443 0.989412,0.141364 1.364642,-0.537451 1.473972,-2.666511 0.08539,-1.6629231 0.180504,-1.9089317 0.738026,-1.9089317 0.587243,0 0.647585,0.2440027 0.732008,2.9599997 0.0837,2.692807 0.03893,2.96 -0.496,2.96 -0.323404,0 -0.744555,-0.156547 -0.93589,-0.347882 -0.25051,-0.25051 -0.408062,-0.25051 -0.562886,0 -0.118251,0.191335 -0.707185,0.347882 -1.30874,0.347882 -0.801103,0 -1.22825,-0.20529 -1.596482,-0.767283 z M 18.32,14.828071 c -0.467317,-0.188567 -0.532441,-0.948447 -0.103979,-1.213251 0.162811,-0.100622 0.67213,-0.01158 1.13182,0.197866 0.693053,0.315776 0.924612,0.292004 1.3558,-0.139184 0.564083,-0.564083 0.712637,-0.451252 -1.983641,-1.506641 -0.603027,-0.23604 -0.8,-0.546729 -0.8,-1.261855 0,-1.6492673 2.244491,-2.5542463 3.698335,-1.4911693 C 22.396984,9.9831986 22.004497,10.4 20.6897,10.4 c -1.36267,0 -1.561699,0.565007 -0.33833,0.960459 2.028022,0.655554 2.676753,2.051906 1.463433,3.149945 C 21.257596,15.01467 19.2375,15.19829 18.32,14.828071 Z m 6.336561,-0.09106 C 24.355102,14.546291 24.146342,13.70916 24.059282,12.341907 23.963013,10.830033 23.801165,10.24 23.482721,10.24 23.239225,10.24 23.04,9.9520003 23.04,9.6000003 c 0,-0.352 0.205985,-0.64 0.457744,-0.64 0.251759,0 0.503759,-0.3240001 0.56,-0.7200001 0.06453,-0.4543547 0.359375,-0.7566103 0.799145,-0.8192278 0.555699,-0.079124 0.71778,0.082957 0.8,0.8 0.07439,0.6487691 0.27991,0.8992279 0.737877,0.8992279 0.349796,0 0.683564,0.2514041 0.743463,0.56 C 27.219057,10.096416 27.03579,10.24 26.423464,10.24 25.638659,10.24 25.6,10.322627 25.6,12 c 0,1.664 0.04364,1.76 0.8,1.76 0.586667,0 0.8,0.170667 0.8,0.64 0,0.509724 -0.2117,0.639003 -1.04,0.6351 -0.572,-0.0027 -1.248548,-0.136837 -1.503439,-0.298093 z"
         id="path7" />
      <path
         style="fill:#45b9a4"
         d="M 2.0232386,28.900045 C 1.0400067,28.704649 0.43331642,27.918684 0.90309613,27.448905 1.1750586,27.176942 1.4731314,27.195215 2.0822161,27.521187 3.1695185,28.103093 4.600678,27.621756 4.7432183,26.62622 4.8294974,26.023626 4.552759,25.77544 3.0569292,25.113914 0.93061686,24.173557 0.34289732,23.249818 0.94542445,21.795189 1.5356565,20.370243 3.5900979,19.768255 5.2624421,20.530226 6.5023527,21.095167 5.7527794,21.71664 4.0614164,21.525998 3.0755605,21.414878 2.5807094,21.509471 2.2852088,21.865527 1.6991877,22.57164 2.3197506,23.576382 3.5023113,23.836116 4.98028,24.160732 6.08,25.188598 6.08,26.245382 c 0,1.756763 -1.9975101,3.063893 -4.0567614,2.654663 z M 8.4654545,28.014546 C 7.4556237,27.004715 7.3765988,24.943402 8.3118605,24.00814 10.260754,22.059247 13.44,23.253544 13.44,25.934546 c 0,1.785917 -1.085018,2.865455 -2.88,2.865455 -0.9632323,0 -1.5166061,-0.207515 -2.0945455,-0.785455 z M 11.84,27.200001 c 0.352,-0.352 0.64,-0.836581 0.64,-1.076845 0,-0.721834 -1.282565,-2.123155 -1.943226,-2.123155 -0.8044527,0 -1.896774,1.105696 -1.896774,1.92 0,0.352 0.288,0.928 0.64,1.28 0.352,0.352 0.928,0.64 1.28,0.64 0.352,0 0.928,-0.288 1.28,-0.64 z m 3.818405,1.09398 c -0.254232,-0.306332 -0.427545,-1.397642 -0.439182,-2.765429 -0.01629,-1.914388 0.06629,-2.272581 0.540777,-2.345666 0.475671,-0.07327 0.56,0.177681 0.56,1.666467 0,2.036807 0.409483,2.990648 1.283882,2.990648 0.977232,0 1.659815,-1.350244 1.553831,-3.073696 -0.07519,-1.222649 0.0111,-1.524199 0.454747,-1.589313 0.481771,-0.07071 0.54754,0.262178 0.54754,2.771324 0,2.246944 -0.09614,2.851685 -0.453333,2.851685 -0.249334,0 -0.519334,-0.18 -0.6,-0.4 -0.117334,-0.32 -0.231467,-0.32 -0.570667,0 -0.597077,0.56328 -2.376536,0.497719 -2.877595,-0.10602 z m 6.489136,-2.290379 c 0.07821,-2.365278 0.178794,-2.812906 0.652459,-2.903464 0.358621,-0.06856 0.56,0.09182 0.56,0.445995 0,0.515526 0.03972,0.517118 0.585197,0.02346 C 24.7643,22.828319 25.6,22.893612 25.6,23.698886 c 0,0.376274 -0.143291,0.570327 -0.334072,0.452418 -0.18374,-0.113558 -0.68774,0.02526 -1.12,0.308491 -0.68947,0.451758 -0.785928,0.749698 -0.785928,2.427583 0,1.711463 -0.06862,1.912623 -0.652459,1.912623 -0.613889,0 -0.646993,-0.165304 -0.56,-2.796399 z m 5.176858,2.046947 c -0.719565,-0.618944 -0.909854,-1.052082 -0.909854,-2.071026 0,-1.575437 0.777448,-2.528987 2.293876,-2.813471 1.455146,-0.272987 2.878578,0.334855 2.33054,0.995201 -0.27957,0.336861 -0.547743,0.378825 -0.971525,0.152023 -0.844181,-0.451791 -1.187774,-0.392937 -1.907436,0.326725 -1.377498,1.377497 -0.346787,3.339274 1.651965,3.144225 0.782353,-0.07635 1.068035,0.02417 1.068035,0.375775 0,0.333683 -0.403246,0.509441 -1.322874,0.576585 -1.030462,0.07524 -1.523991,-0.07641 -2.232727,-0.686037 z m 5.838756,0.08623 C 32.484929,27.603283 32.32,27.20335 32.32,26.092226 c 0,-1.803435 0.751472,-2.722235 2.408218,-2.944451 1.573354,-0.211031 2.615451,0.523683 2.910818,2.052226 l 0.200964,1.04 h -2.066667 c -2.289249,0 -2.610872,0.142451 -2.172208,0.962102 0.412149,0.770107 1.403376,0.967368 2.361965,0.470046 0.665182,-0.345101 0.865851,-0.342852 1.161191,0.01301 0.273822,0.329935 0.207956,0.509997 -0.282582,0.772525 -1.031228,0.551896 -2.760767,0.401015 -3.678544,-0.320909 z M 36.48,25.184001 c 0,-1.195664 -2.280875,-1.663475 -2.857482,-0.586075 -0.434713,0.812269 -0.156122,1.002075 1.470815,1.002075 0.924445,0 1.386667,-0.138667 1.386667,-0.416 z m 3.14912,-7.674927 -6.290879,-10.9490738 9.619448,-0.084765 c 5.290697,-0.046621 9.681089,-0.023125 9.756427,0.052213 0.07534,0.075338 -0.198518,0.724373 -0.608569,1.4423 L 51.36,9.2750709 l -6.48,0.00246 c -3.564,0.00136 -6.48,0.082233 -6.48,0.1797278 0,0.097495 1.733662,3.1896806 3.852582,6.8715246 l 3.852582,6.694262 -0.09258,2.717549 -0.09258,2.71755 z M 47.36,25.675117 V 22.742232 L 52.931637,13.051116 58.503274,3.3600001 52.148748,3.2734288 45.794222,3.1868576 45.182481,2.3134288 C 44.846024,1.833043 44.401258,1.116 44.194112,0.72000002 L 43.817482,0 53.888497,0 63.959512,0 60.581036,5.8400002 C 58.722875,9.0520003 55.110034,15.352 52.552503,19.840001 c -2.557532,4.488 -4.772108,8.2968 -4.921281,8.464 C 47.480542,28.472892 47.36,27.304514 47.36,25.675117 Z M 2.7843956,14.837729 C 2.660978,14.714312 2.56,13.053334 2.56,11.146667 V 7.6800002 H 1.28 c -1.06666667,0 -1.28,-0.1066666 -1.28,-0.64 0,-0.5993651 0.21333333,-0.64 3.36,-0.64 3.1466667,0 3.36,0.040635 3.36,0.64 0,0.5324528 -0.2133333,0.64 -1.2695196,0.64 l -1.2695197,0 -0.09048,3.5961688 c -0.074094,2.944878 -0.1802378,3.613355 -0.5860848,3.691063 -0.2725824,0.05219 -0.5965824,-0.0061 -0.72,-0.129503 z M 6.72,12.16 c 0,-2.6666664 0.047407,-2.8799997 0.64,-2.8799997 0.352,0 0.64,0.1663182 0.64,0.369596 0,0.2211334 0.2350671,0.1568632 0.585197,-0.16 C 9.3947507,8.7569603 10.24,8.813353 10.24,9.6000003 10.24,10.008746 10.026667,10.24 9.649596,10.24 8.5727267,10.24 8,11.276437 8,13.225197 8,14.826667 7.9247669,15.04 7.36,15.04 6.7674074,15.04 6.72,14.826667 6.72,12.16 Z m 5.268971,2.431507 C 11.500602,14.234402 11.350599,13.647543 11.252834,11.711506 11.13021,9.2832143 11.131132,9.2800003 11.950403,9.2800003 c 0.790106,0 0.823844,0.079647 0.914976,2.1599997 L 12.96,13.6 h 0.96 0.96 l 0.09462,-2.16 c 0.08999,-2.0542415 0.133074,-2.1599997 0.88,-2.1599997 0.772467,0 0.785379,0.044883 0.785379,2.7300427 0,2.208 -0.09796,2.767635 -0.512296,2.92663 -0.281763,0.108123 -0.635766,-0.0032 -0.786675,-0.247368 -0.218518,-0.35357 -0.355271,-0.363063 -0.671704,-0.04663 -0.530605,0.530606 -1.921031,0.504062 -2.680354,-0.05117 z m 6.239773,-0.04507 c -0.605335,-0.729385 0.04911,-1.279953 0.948988,-0.798355 0.78645,0.420895 2.037339,0.141014 1.855848,-0.415237 -0.06691,-0.205065 -0.581979,-0.525134 -1.144605,-0.711264 -1.596124,-0.528037 -2.155413,-1.242751 -1.788631,-2.28569 C 18.487427,9.2352266 20.098754,8.6835634 21.31197,9.2363414 22.420052,9.7412176 22.114818,10.4 20.772811,10.4 c -1.118796,0 -1.638749,0.490794 -0.877522,0.82831 1.991132,0.882836 2.3516,1.170688 2.44298,1.950842 0.06831,0.583175 -0.124137,0.994745 -0.631202,1.349907 -0.932749,0.653323 -2.942204,0.663363 -3.478323,0.01738 z m 6.402472,0.003 C 24.392366,14.261619 24.135323,13.174266 24.06001,12.133075 23.963811,10.803124 23.791735,10.24 23.481539,10.24 23.238693,10.24 23.04,10.024 23.04,9.7600003 c 0,-0.264 0.206435,-0.48 0.458745,-0.48 0.262569,0 0.502045,-0.37632 0.56,-0.8800001 0.07283,-0.6329149 0.280953,-0.88 0.741255,-0.88 0.460302,0 0.66843,0.2470851 0.741255,0.88 0.07953,0.69119 0.26834,0.8800001 0.88,0.8800001 0.478884,0 0.778745,0.184827 0.778745,0.48 C 27.2,10.058667 26.897778,10.24 26.4,10.24 c -0.756364,0 -0.8,0.096 -0.8,1.76 0,1.737915 0.130582,1.927036 1.227376,1.7776 0.253052,-0.03448 0.382509,0.178478 0.317379,0.522086 -0.148714,0.784581 -1.923324,0.960896 -2.513539,0.24973 z"
         id="path6" />
      <path
         style="fill:#41b29d"
         d="M 2.7065172,28.778185 C 2.5903277,28.590187 2.3298293,28.497408 2.1276318,28.57201 1.9254343,28.646612 1.5131399,28.469229 1.211422,28.177826 c -0.51580581,-0.498173 -0.50146818,-0.529825 0.24,-0.529825 0.4337179,0 0.788578,0.1152 0.788578,0.256 0,0.1408 0.4096818,0.256 0.910404,0.256 1.0383969,0 2.0779937,-0.966211 1.917645,-1.782278 C 4.9205714,25.627162 3.461612,24.58819 2.4716637,24.528753 1.5690255,24.474559 0.24457666,22.538239 0.83604801,22.137514 1.0126251,22.017881 1.3957268,21.571132 1.6873851,21.144737 2.1718468,20.436469 2.2369575,20.419728 2.44083,20.951011 2.5846381,21.325769 2.4748237,21.670869 2.1319936,21.921553 1.8393971,22.135504 1.6,22.401035 1.6,22.51162 c 0,0.404516 1.0818893,1.45082 1.3370812,1.293103 C 3.0816865,23.715352 3.2,23.810135 3.2,24.015352 c 0,0.205217 0.216,0.290235 0.48,0.188928 0.264,-0.101306 0.48,-0.02931 0.48,0.16 0,0.194009 0.2400925,0.252061 0.5502462,0.133044 0.3026354,-0.116132 0.4492544,-0.110157 0.3258201,0.01328 -0.1234343,0.123434 0.038314,0.455045 0.3594407,0.736913 1.1010787,0.966467 0.6563927,2.101389 -1.3042483,3.328684 -1.0211645,0.639215 -1.1068,0.651706 -1.3847415,0.201987 z M 9.28,28.381115 c 0,-0.142387 -0.144,-0.169888 -0.32,-0.06111 -0.176,0.108774 -0.32,0.05556 -0.32,-0.118258 0,-0.173815 -0.2171046,-0.533133 -0.4824546,-0.798483 -0.7822224,-0.782222 -0.00584,-0.887633 0.8263414,-0.112193 0.4184459,0.389913 1.1242542,0.722708 1.5684622,0.739543 0.878526,0.0333 2.017077,-0.74703 1.74122,-1.193376 -0.09424,-0.152478 -0.01884,-0.277233 0.167546,-0.277233 0.186387,0 0.338885,-0.288 0.338885,-0.64 0,-0.352 -0.152498,-0.64 -0.338885,-0.64 -0.186387,0 -0.259973,-0.127684 -0.163524,-0.283742 C 12.515367,24.643891 11.699943,23.926724 11.410557,24.21611 11.294751,24.331917 11.2,24.258667 11.2,24.053334 c 0,-0.205333 -0.288,-0.373333 -0.64,-0.373333 -0.352,0 -0.64,0.168 -0.64,0.373333 0,0.205333 -0.094751,0.278583 -0.210557,0.162776 -0.2893862,-0.289386 -1.1048096,0.427781 -0.8870342,0.780149 0.096449,0.156058 -0.040638,0.283742 -0.3046379,0.283742 -0.6886448,0 -0.9249704,-0.538066 -0.3356507,-0.764209 0.2741444,-0.105199 0.4272933,-0.306396 0.340331,-0.447104 C 8.4354889,23.92798 8.6762291,23.789362 9.0574295,23.760647 9.4386298,23.731932 9.8006538,23.558039 9.8619272,23.374219 10.004323,22.94703 11.2,22.934325 11.2,23.360001 c 0,0.176 0.157287,0.32 0.349527,0.32 0.876445,0 1.730473,1.145076 1.730473,2.32021 0,0.660115 -0.132,1.200115 -0.293333,1.2 -0.161334,-1.16e-4 -0.20599,0.08713 -0.09924,0.193888 0.25356,0.253559 -0.494568,1.062839 -0.807431,0.873429 -0.132,-0.07991 -0.24,-0.0288 -0.24,0.113587 0,0.142387 -0.576,0.258886 -1.28,0.258886 -0.704,0 -1.28,-0.116499 -1.28,-0.258886 z m 8.16,0.18371 c -0.352,-0.06726 -0.856,-0.208726 -1.12,-0.314363 -0.264,-0.105637 -0.552,-0.181205 -0.64,-0.167931 -0.088,0.01328 -0.16,-0.971864 -0.16,-2.189197 0,-1.217333 0.108,-2.213333 0.24,-2.213333 0.132,0 0.24,0.759997 0.24,1.688883 0,1.268049 0.152736,1.819659 0.612955,2.213711 0.337126,0.288656 0.704955,0.432829 0.8174,0.320385 0.112444,-0.112445 0.32485,-0.0096 0.472014,0.228493 0.404995,0.655296 1.396137,-1.045095 1.645973,-2.823814 0.173235,-1.233352 0.211418,-1.058964 0.239171,1.092342 0.02509,1.945214 -0.04845,2.419903 -0.306223,1.97663 C 19.186865,27.87034 19.071879,27.852313 18.611021,28.240191 18.318959,28.486003 17.792,28.632088 17.44,28.564825 Z m 4.6449,-2.207502 c -0.0044,-2.336346 0.06064,-2.619816 0.635542,-2.770157 0.40742,-0.106543 0.562966,-0.04212 0.427505,0.177058 -0.134685,0.217926 -0.01725,0.269447 0.319559,0.1402 C 23.818317,23.769805 24,23.863859 24,24.180087 c 0,0.264 -0.188828,0.55246 -0.419619,0.641023 -0.303797,0.116578 -0.381506,0.68792 -0.281539,2.069957 0.09244,1.278012 0.0196,1.908934 -0.220381,1.908934 -0.197154,0 -0.360666,-0.18 -0.363361,-0.4 -0.0033,-0.266667 -0.1083,-0.24 -0.3151,0.08 -0.214363,0.331703 -0.311714,-0.324101 -0.3151,-2.122678 z m 5.535422,1.600223 c -0.319177,-0.37535 -0.710571,-0.6051 -0.869765,-0.510557 -0.159193,0.09454 -0.203212,0.03237 -0.09782,-0.138157 0.105393,-0.17053 0.226407,-0.982014 0.26892,-1.803298 0.04251,-0.821285 0.142277,-1.428264 0.221698,-1.348843 0.07942,0.07942 0.542885,-0.139345 1.02992,-0.486145 1.050081,-0.747723 1.477925,-0.785058 2.081357,-0.181626 0.385225,0.385226 0.381982,0.474605 -0.02286,0.629957 -0.259477,0.09957 -0.471776,0.04156 -0.471776,-0.128919 0,-0.170477 -0.216,-0.309957 -0.48,-0.309957 -0.264,0 -0.48,0.168 -0.48,0.373333 0,0.205333 -0.09631,0.277019 -0.214032,0.159302 C 28.209393,23.83606 27.2,25.030656 27.2,25.852902 c 0,0.43654 0.332085,1.101476 0.737967,1.477634 0.773648,0.716993 2.142033,1.017683 2.142033,0.470692 0,-0.175449 0.137711,-0.233888 0.306024,-0.129865 0.625437,0.386541 -0.02914,0.968638 -1.08924,0.968638 -0.72413,0 -1.293091,-0.231613 -1.676462,-0.682455 z M 33.92,28.517772 c 0,-0.176 0.144,-0.408997 0.32,-0.517771 0.176,-0.108774 0.32,-0.05377 0.32,0.122229 0,0.176 -0.144,0.408997 -0.32,0.517771 -0.176,0.108774 -0.32,0.05377 -0.32,-0.122229 z m 2,0.05175 c -0.22,-0.07857 -0.4,-0.298858 -0.4,-0.489524 0,-0.190667 0.09376,-0.252905 0.208359,-0.138307 0.114598,0.114597 0.39712,-0.0414 0.627828,-0.346667 0.379382,-0.501987 0.4063,-0.482084 0.281675,0.208272 C 36.47357,28.713397 36.435781,28.753732 35.92,28.569525 Z M 33.119518,27.94151 c -0.41289,-0.97815 -0.714638,-3.301509 -0.428787,-3.301509 0.148098,0 0.233269,-0.160872 0.189269,-0.357493 -0.044,-0.19662 0.172,-0.399879 0.48,-0.451685 0.689115,-0.11591 0.707062,0.06783 0.06895,0.705938 -0.378246,0.378246 -0.405999,0.593519 -0.120817,0.937142 0.282719,0.340657 0.269276,0.567737 -0.05688,0.960726 -0.362926,0.4373 -0.335336,0.58173 0.183619,0.961199 0.431448,0.315482 0.510826,0.546467 0.270412,0.786881 -0.240415,0.240415 -0.412365,0.169612 -0.585774,-0.241199 z M 47.36,25.675117 V 22.742232 L 52.931637,13.051116 58.503274,3.3600001 52.148748,3.2734288 45.794222,3.1868576 45.182481,2.3134288 C 44.846024,1.833043 44.401258,1.116 44.194112,0.72000002 L 43.817482,0 53.888497,0 63.959512,0 60.581036,5.8400002 C 58.722875,9.0520003 55.110034,15.352 52.552503,19.840001 c -2.557532,4.488 -4.772108,8.2968 -4.921281,8.464 C 47.480542,28.472892 47.36,27.304514 47.36,25.675117 Z m -1.894074,1.417314 c -0.24974,-0.468837 -0.582238,-0.85243 -0.738885,-0.85243 -0.156647,0 -0.195815,-0.144 -0.08704,-0.32 0.108774,-0.176 0.03677,-0.32 -0.16,-0.32 -0.196774,0 -0.27202,-0.138748 -0.167214,-0.308328 0.104807,-0.169581 -0.0907,-0.589581 -0.434447,-0.933334 -0.343753,-0.343753 -0.541006,-0.709005 -0.438339,-0.811672 0.102667,-0.102666 0.01017,-0.186666 -0.205552,-0.186666 -0.21572,0 -0.306468,-0.138748 -0.201662,-0.308328 0.104807,-0.169581 -0.0907,-0.589581 -0.434447,-0.933334 -0.343753,-0.343753 -0.541006,-0.709005 -0.438339,-0.811672 0.102667,-0.102666 0.01017,-0.186666 -0.205552,-0.186666 -0.21572,0 -0.306468,-0.138748 -0.201662,-0.308329 0.104807,-0.16958 -0.0907,-0.58958 -0.434447,-0.933333 -0.343753,-0.343753 -0.541006,-0.709005 -0.438339,-0.811672 0.102667,-0.102666 0.01017,-0.186666 -0.205552,-0.186666 -0.21572,0 -0.306468,-0.138748 -0.201662,-0.308329 0.104807,-0.16958 -0.102695,-0.60158 -0.461114,-0.96 C 39.653252,17.253253 39.435698,16.96 39.528218,16.96 39.620737,16.96 39.473039,16.528 39.2,16 38.926961,15.472 38.539263,15.04 38.338449,15.04 38.137635,15.04 38.06359,14.949744 38.173904,14.839429 38.445303,14.568031 37.508151,12.8 37.092897,12.8 c -0.181867,0 -0.244917,-0.138747 -0.140111,-0.308328 0.104807,-0.16958 -0.102695,-0.60158 -0.461114,-0.96 C 36.133252,11.173253 35.915698,10.88 36.008218,10.88 c 0.09252,0 -0.05518,-0.432 -0.328218,-0.9599997 -0.273039,-0.528 -0.660737,-0.96 -0.861551,-0.96 -0.200814,0 -0.268611,-0.096505 -0.15066,-0.2144558 C 34.78574,8.6275939 34.654234,8.1830998 34.375554,7.7577801 34.096873,7.3324603 33.924226,6.9291072 33.991894,6.86144 34.222058,6.631276 52.54787,6.6810779 52.754458,6.9124289 52.867506,7.0390276 52.790367,7.0454306 52.583039,6.9266577 52.358337,6.7979319 52.11318,7.0034001 51.976084,7.4353536 51.849587,7.8339092 51.80322,8.1635398 51.873045,8.167866 51.94287,8.1721921 51.784,8.4112379 51.52,8.6990788 c -0.410221,0.4472663 -1.386491,0.5292181 -6.715598,0.5637326 -3.515043,0.022766 -6.370153,0.1749395 -6.544,0.3487872 -0.197869,0.1978689 -0.151659,0.3084017 0.128931,0.3084017 0.240534,0 0.347077,0.090257 0.236763,0.2005707 -0.271399,0.271399 0.665753,2.039429 1.081007,2.039429 0.181867,0 0.244917,0.138748 0.140111,0.308329 -0.104807,0.16958 0.09069,0.58958 0.434447,0.933333 0.343753,0.343753 0.541006,0.709005 0.438339,0.811672 C 40.617333,14.316 40.709832,14.4 40.925552,14.4 c 0.21572,0 0.306468,0.138748 0.201662,0.308329 -0.104807,0.16958 0.102695,0.60158 0.461114,0.96 0.35842,0.358419 0.575974,0.651671 0.483454,0.651671 -0.09252,0 0.05518,0.432 0.328218,0.96 0.273039,0.528001 0.660737,0.960001 0.861551,0.960001 0.200814,0 0.274859,0.09026 0.164545,0.20057 -0.271399,0.271399 0.665753,2.03943 1.081007,2.03943 0.181867,0 0.241671,0.144 0.132897,0.32 -0.108774,0.176 -0.03677,0.32 0.16,0.32 0.196774,0 0.27202,0.138747 0.167214,0.308328 -0.104807,0.16958 0.108645,0.60753 0.474337,0.973222 0.576876,0.576877 0.652553,0.987794 0.571672,3.104102 -0.08854,2.316764 -0.116017,2.396417 -0.547297,1.586778 z M 36.605764,25.413829 C 36.712594,25.135434 36.8,24.765148 36.8,24.590972 c 0,-0.174177 0.225181,-0.0915 0.500402,0.183717 0.560386,0.560385 0.359408,1.145312 -0.393524,1.145312 -0.320226,0 -0.426681,-0.178951 -0.301114,-0.506172 z M 24.3249,24.102858 c 0.0091,-0.490371 0.599128,-1.205496 0.815796,-0.988828 0.118522,0.118522 -0.01765,0.448637 -0.302601,0.73359 -0.284952,0.284952 -0.51589,0.399809 -0.513195,0.255238 z M 35.2,23.478891 c -0.786292,-0.422097 -0.787663,-0.429536 -0.08,-0.434173 0.396,-0.0026 0.72,0.154689 0.72,0.349519 0,0.19483 0.211388,0.273119 0.469752,0.173976 0.258364,-0.09914 0.536388,-0.07244 0.617831,0.05934 C 37.176942,24.03102 36.047471,23.93383 35.2,23.478891 Z M 4.9459938,21.417338 c -0.120026,-0.194206 -0.077097,-0.494234 0.095398,-0.666729 0.2048363,-0.204837 0.3790192,-0.143219 0.502142,0.177634 0.2238662,0.583386 -0.282905,0.998185 -0.5975401,0.489095 z M 3.0098137,21.013829 C 3.1144162,20.691434 3.2,20.367434 3.2,20.293829 3.2,19.911152 4.1197276,20.23349 4.2893926,20.67563 4.4373552,21.061214 4.35156,21.139186 3.9492129,20.984791 3.653288,20.871234 3.2780712,20.963201 3.1153976,21.189162 2.9071556,21.47842 2.8759098,21.426533 3.0098137,21.013829 Z m -0.2254181,-6.1761 C 2.660978,14.714312 2.56,13.053334 2.56,11.146667 V 7.6800002 H 1.28 c -1.06666667,0 -1.28,-0.1066666 -1.28,-0.64 0,-0.5993651 0.21333333,-0.64 3.36,-0.64 3.1466667,0 3.36,0.040635 3.36,0.64 0,0.5324528 -0.2133333,0.64 -1.2695196,0.64 l -1.2695197,0 -0.09048,3.5961688 c -0.074094,2.944878 -0.1802378,3.613355 -0.5860848,3.691063 -0.2725824,0.05219 -0.5965824,-0.0061 -0.72,-0.129503 z M 6.72,12.16 c 0,-2.6666664 0.047407,-2.8799997 0.64,-2.8799997 0.352,0 0.64,0.1663182 0.64,0.369596 0,0.2211334 0.2350671,0.1568632 0.585197,-0.16 C 9.3947507,8.7569603 10.24,8.813353 10.24,9.6000003 10.24,10.008746 10.026667,10.24 9.649596,10.24 8.5727267,10.24 8,11.276437 8,13.225197 8,14.826667 7.9247669,15.04 7.36,15.04 6.7674074,15.04 6.72,14.826667 6.72,12.16 Z m 5.268971,2.431507 C 11.500602,14.234402 11.350599,13.647543 11.252834,11.711506 11.13021,9.2832143 11.131132,9.2800003 11.950403,9.2800003 c 0.790106,0 0.823844,0.079647 0.914976,2.1599997 L 12.96,13.6 h 0.96 0.96 l 0.09462,-2.16 c 0.08999,-2.0542415 0.133074,-2.1599997 0.88,-2.1599997 0.772467,0 0.785379,0.044883 0.785379,2.7300427 0,2.208 -0.09796,2.767635 -0.512296,2.92663 -0.281763,0.108123 -0.635766,-0.0032 -0.786675,-0.247368 -0.218518,-0.35357 -0.355271,-0.363063 -0.671704,-0.04663 -0.530605,0.530606 -1.921031,0.504062 -2.680354,-0.05117 z m 6.239773,-0.04507 c -0.605335,-0.729385 0.04911,-1.279953 0.948988,-0.798355 0.78645,0.420895 2.037339,0.141014 1.855848,-0.415237 -0.06691,-0.205065 -0.581979,-0.525134 -1.144605,-0.711264 -1.596124,-0.528037 -2.155413,-1.242751 -1.788631,-2.28569 C 18.487427,9.2352266 20.098754,8.6835634 21.31197,9.2363414 22.420052,9.7412176 22.114818,10.4 20.772811,10.4 c -1.118796,0 -1.638749,0.490794 -0.877522,0.82831 1.991132,0.882836 2.3516,1.170688 2.44298,1.950842 0.06831,0.583175 -0.124137,0.994745 -0.631202,1.349907 -0.932749,0.653323 -2.942204,0.663363 -3.478323,0.01738 z m 6.402472,0.003 C 24.392366,14.261619 24.135323,13.174266 24.06001,12.133075 23.963811,10.803124 23.791735,10.24 23.481539,10.24 23.238693,10.24 23.04,10.024 23.04,9.7600003 c 0,-0.264 0.206435,-0.48 0.458745,-0.48 0.262569,0 0.502045,-0.37632 0.56,-0.8800001 0.07283,-0.6329149 0.280953,-0.88 0.741255,-0.88 0.460302,0 0.66843,0.2470851 0.741255,0.88 0.07953,0.69119 0.26834,0.8800001 0.88,0.8800001 0.478884,0 0.778745,0.184827 0.778745,0.48 C 27.2,10.058667 26.897778,10.24 26.4,10.24 c -0.756364,0 -0.8,0.096 -0.8,1.76 0,1.737915 0.130582,1.927036 1.227376,1.7776 0.253052,-0.03448 0.382509,0.178478 0.317379,0.522086 -0.148714,0.784581 -1.923324,0.960896 -2.513539,0.24973 z"
         id="path5" />
      <path
         style="fill:#3fb19c"
         d="M 2.7068421,28.778711 C 2.5908312,28.591001 2.5823328,28.351001 2.6879566,28.245378 2.7935805,28.139754 2.88,28.238966 2.88,28.46585 c 0,0.326529 0.1167292,0.32097 0.56,-0.02667 0.5075378,-0.398038 0.5188563,-0.38672 0.1208177,0.120818 -0.5142114,0.655669 -0.574394,0.671082 -0.8539756,0.21871 z M 22.08,28.498886 c 0,-0.165613 0.142351,-0.389092 0.316335,-0.49662 0.181395,-0.112108 0.235042,0.01634 0.125763,0.301115 C 22.309365,28.857754 22.08,28.959185 22.08,28.498886 Z M 16.500574,28.0662 c 0.12017,-0.315591 0.299101,-0.493191 0.397625,-0.394667 0.09852,0.09852 2.03e-4,0.356734 -0.218491,0.573801 -0.316037,0.313686 -0.352793,0.276929 -0.179134,-0.179134 z m 13.12237,0.173801 c 0.159286,-0.132 0.397081,-0.384 0.528433,-0.56 0.136291,-0.182617 0.240927,-0.07958 0.243723,0.24 0.0027,0.311293 -0.231963,0.56 -0.528433,0.56 -0.293334,0 -0.403009,-0.108 -0.243723,-0.24 z M 47.36,25.675117 V 22.742232 L 52.931637,13.051116 58.503274,3.3600001 52.148748,3.2734288 45.794222,3.1868576 45.182481,2.3134288 C 44.846024,1.833043 44.401258,1.116 44.194112,0.72000002 L 43.817482,0 53.888497,0 63.959512,0 60.581036,5.8400002 C 58.722875,9.0520003 55.110034,15.352 52.552503,19.840001 c -2.557532,4.488 -4.772108,8.2968 -4.921281,8.464 C 47.480542,28.472892 47.36,27.304514 47.36,25.675117 Z M 4.4983998,27.65783 C 4.7041639,27.4099 5.0097807,27.291881 5.1775482,27.395568 5.550059,27.625792 5.2734553,27.939951 4.6128794,28.036903 4.2273889,28.093481 4.2032309,28.013487 4.4983998,27.65783 Z M 22.933333,27.626667 C 22.596235,27.289569 22.68516,25.600001 23.04,25.600001 c 0.176,0 0.32,0.504 0.32,1.12 0,1.150946 -0.05836,1.274969 -0.426667,0.906666 z m -7.166176,-2.346666 c 0,-0.792 0.06241,-1.116 0.138678,-0.72 0.07627,0.396 0.07627,1.044 0,1.44 -0.07627,0.396 -0.138678,0.072 -0.138678,-0.72 z M 4.4739204,25.432675 C 4.1357495,25.025204 4.155547,24.978378 4.5947381,25.146912 4.8836321,25.257771 5.12,25.477067 5.12,25.634237 c 0,0.411507 -0.1852394,0.353717 -0.6460796,-0.201562 z M 44.4,24.565277 c -0.308,-0.310902 -0.484302,-0.565276 -0.391782,-0.565276 0.09252,0 -0.05518,-0.432 -0.328218,-0.96 -0.273039,-0.528 -0.660737,-0.96 -0.861551,-0.96 -0.200814,0 -0.274859,-0.09026 -0.164545,-0.200571 0.284371,-0.284371 -0.675549,-2.039429 -1.115455,-2.039429 -0.200814,0 -0.274156,-0.09096 -0.162984,-0.202132 0.111173,-0.111173 -0.163987,-0.826867 -0.611466,-1.590431 -0.47666,-0.813359 -0.711627,-1.557916 -0.567372,-1.797869 C 40.350656,15.99336 40.21712,16.019732 39.84,16.32 39.488648,16.599752 39.337401,16.633127 39.477459,16.4 39.612502,16.17522 39.56105,16 39.36,16 c -0.196774,0 -0.27202,-0.138747 -0.167214,-0.308328 0.104807,-0.16958 -0.102695,-0.60158 -0.461114,-0.96 C 38.373252,14.373253 38.082558,13.972 38.085685,13.84 c 0.01395,-0.588728 -0.747352,-1.974937 -0.999157,-1.819313 -0.153559,0.0949 -0.199174,-0.03599 -0.101367,-0.290865 0.09945,-0.259165 -0.112829,-0.667005 -0.48163,-0.925323 -0.362703,-0.254047 -0.564376,-0.556987 -0.448162,-0.673201 0.116214,-0.116214 0.0433,-0.2112977 -0.162036,-0.2112977 -0.205333,0 -0.344803,-0.108 -0.309933,-0.24 0.130049,-0.4922971 -0.440414,-1.6825346 -0.722773,-1.5080266 -0.161313,0.099697 -0.207539,-0.042212 -0.102725,-0.3153534 0.165426,-0.4310933 1.281349,-0.4966201 8.457449,-0.4966201 5.903645,0 8.33215,0.1056117 8.495206,0.3694427 0.134956,0.2183626 0.08843,0.2829778 -0.113783,0.1580063 -0.188161,-0.1162901 -0.394383,-0.054621 -0.458271,0.1370415 -0.07899,0.2369786 -2.080401,0.3361108 -6.255163,0.3098258 -5.778316,-0.036381 -6.177321,-3.35e-4 -6.791172,0.6135158 L 37.44,9.6000003 38.08,10.24 c 0.352,0.352 0.564302,0.64 0.471782,0.64 -0.09252,0 0.05518,0.432 0.328218,0.96 0.273039,0.528 0.632218,0.96 0.798175,0.96 0.165956,0 0.224585,0.20106 0.130286,0.446799 -0.09464,0.246633 0.156795,0.676712 0.561245,0.96 0.402984,0.282261 0.624959,0.513201 0.493278,0.513201 -0.13168,0 -0.01602,0.432 0.257016,0.96 0.273039,0.528 0.672737,0.962206 0.888218,0.964901 0.250269,0.0031 0.218405,0.116945 -0.08822,0.315099 -0.399457,0.258149 -0.372609,0.315262 0.16,0.340364 0.366557,0.01728 0.463456,0.101004 0.226796,0.195968 -0.296032,0.118787 -0.205289,0.361166 0.32,0.854737 0.403262,0.378912 0.733204,0.976932 0.733204,1.328932 0,0.362087 0.184024,0.601818 0.423786,0.552071 0.233082,-0.04836 0.335829,0.05439 0.228328,0.228328 -0.107502,0.173941 0.0978,0.609509 0.456214,0.967929 0.35842,0.358419 0.543672,0.653877 0.411672,0.656572 -0.132,0.0027 -0.096,0.110695 0.08,0.24 0.176,0.129305 0.248,0.813474 0.16,1.520376 -0.152667,1.226368 -0.185666,1.259368 -0.72,0.72 z M 1.7468421,23.658711 c -0.3283403,-0.531266 -0.033636,-0.604936 0.4257744,-0.106435 0.2269391,0.246248 0.2714375,0.447725 0.098885,0.447725 -0.172552,0 -0.408649,-0.153581 -0.5246598,-0.34129 z M 28.71273,23.445861 c 0.109172,-0.284498 0.320382,-0.30362 0.759258,-0.06874 0.780823,0.417884 0.76612,0.462881 -0.151246,0.462881 -0.469916,0 -0.70162,-0.150201 -0.608012,-0.39414 z m -18.590351,-0.01729 c -0.08547,-0.138286 0.111464,-0.251428 0.437621,-0.251428 0.326157,0 0.523086,0.113142 0.437621,0.251428 -0.08547,0.138286 -0.282395,0.251429 -0.437621,0.251429 -0.155226,0 -0.352155,-0.113143 -0.437621,-0.251429 z M 3.52,20.480001 c 0,-0.176 0.1524984,-0.32 0.3388854,-0.32 0.186387,0 0.2498886,0.144 0.1411146,0.32 -0.108774,0.176 -0.2612724,0.32 -0.3388854,0.32 -0.077613,0 -0.1411146,-0.144 -0.1411146,-0.32 z M 2.7843956,14.837729 C 2.660978,14.714312 2.56,13.053334 2.56,11.146667 V 7.6800002 H 1.28 c -1.06666667,0 -1.28,-0.1066666 -1.28,-0.64 0,-0.5993651 0.21333333,-0.64 3.36,-0.64 3.1466667,0 3.36,0.040635 3.36,0.64 0,0.5324528 -0.2133333,0.64 -1.2695196,0.64 l -1.2695197,0 -0.09048,3.5961688 c -0.074094,2.944878 -0.1802378,3.613355 -0.5860848,3.691063 -0.2725824,0.05219 -0.5965824,-0.0061 -0.72,-0.129503 z M 6.72,12.16 c 0,-2.6666664 0.047407,-2.8799997 0.64,-2.8799997 0.352,0 0.64,0.1663182 0.64,0.369596 0,0.2211334 0.2350671,0.1568632 0.585197,-0.16 C 9.3947507,8.7569603 10.24,8.813353 10.24,9.6000003 10.24,10.008746 10.026667,10.24 9.649596,10.24 8.5727267,10.24 8,11.276437 8,13.225197 8,14.826667 7.9247669,15.04 7.36,15.04 6.7674074,15.04 6.72,14.826667 6.72,12.16 Z m 5.268971,2.431507 C 11.500602,14.234402 11.350599,13.647543 11.252834,11.711506 11.13021,9.2832143 11.131132,9.2800003 11.950403,9.2800003 c 0.790106,0 0.823844,0.079647 0.914976,2.1599997 L 12.96,13.6 h 0.96 0.96 l 0.09462,-2.16 c 0.08999,-2.0542415 0.133074,-2.1599997 0.88,-2.1599997 0.772467,0 0.785379,0.044883 0.785379,2.7300427 0,2.208 -0.09796,2.767635 -0.512296,2.92663 -0.281763,0.108123 -0.635766,-0.0032 -0.786675,-0.247368 -0.218518,-0.35357 -0.355271,-0.363063 -0.671704,-0.04663 -0.530605,0.530606 -1.921031,0.504062 -2.680354,-0.05117 z m 6.239773,-0.04507 c -0.605335,-0.729385 0.04911,-1.279953 0.948988,-0.798355 0.78645,0.420895 2.037339,0.141014 1.855848,-0.415237 -0.06691,-0.205065 -0.581979,-0.525134 -1.144605,-0.711264 -1.596124,-0.528037 -2.155413,-1.242751 -1.788631,-2.28569 C 18.487427,9.2352266 20.098754,8.6835634 21.31197,9.2363414 22.420052,9.7412176 22.114818,10.4 20.772811,10.4 c -1.118796,0 -1.638749,0.490794 -0.877522,0.82831 1.991132,0.882836 2.3516,1.170688 2.44298,1.950842 0.06831,0.583175 -0.124137,0.994745 -0.631202,1.349907 -0.932749,0.653323 -2.942204,0.663363 -3.478323,0.01738 z m 6.402472,0.003 C 24.392366,14.261619 24.135323,13.174266 24.06001,12.133075 23.963811,10.803124 23.791735,10.24 23.481539,10.24 23.238693,10.24 23.04,10.024 23.04,9.7600003 c 0,-0.264 0.206435,-0.48 0.458745,-0.48 0.262569,0 0.502045,-0.37632 0.56,-0.8800001 0.07283,-0.6329149 0.280953,-0.88 0.741255,-0.88 0.460302,0 0.66843,0.2470851 0.741255,0.88 0.07953,0.69119 0.26834,0.8800001 0.88,0.8800001 0.478884,0 0.778745,0.184827 0.778745,0.48 C 27.2,10.058667 26.897778,10.24 26.4,10.24 c -0.756364,0 -0.8,0.096 -0.8,1.76 0,1.737915 0.130582,1.927036 1.227376,1.7776 0.253052,-0.03448 0.382509,0.178478 0.317379,0.522086 -0.148714,0.784581 -1.923324,0.960896 -2.513539,0.24973 z M 38.339361,6.8006122 c 2.518648,-0.054131 6.550648,-0.053999 8.96,2.931e-4 2.409351,0.054292 0.348639,0.098582 -4.579361,0.09842 -4.928,-1.612e-4 -6.899288,-0.044582 -4.380639,-0.098714 z"
         id="path4" />
      <path
         style="fill:#576e98"
         d="M 47.36,25.675117 V 22.742232 L 52.931637,13.051116 58.503274,3.3600001 52.148748,3.2734288 45.794222,3.1868576 45.182481,2.3134288 C 44.846024,1.833043 44.401258,1.116 44.194112,0.72000002 L 43.817482,0 53.888497,0 63.959512,0 60.581036,5.8400002 C 58.722875,9.0520003 55.110034,15.352 52.552503,19.840001 c -2.557532,4.488 -4.772108,8.2968 -4.921281,8.464 C 47.480542,28.472892 47.36,27.304514 47.36,25.675117 Z M 2.7843956,14.837729 C 2.660978,14.714312 2.56,13.053334 2.56,11.146667 V 7.6800002 H 1.28 c -1.06666667,0 -1.28,-0.1066666 -1.28,-0.64 0,-0.5993651 0.21333333,-0.64 3.36,-0.64 3.1466667,0 3.36,0.040635 3.36,0.64 0,0.5324528 -0.2133333,0.64 -1.2695196,0.64 l -1.2695197,0 -0.09048,3.5961688 c -0.074094,2.944878 -0.1802378,3.613355 -0.5860848,3.691063 -0.2725824,0.05219 -0.5965824,-0.0061 -0.72,-0.129503 z M 6.72,12.16 c 0,-2.6666664 0.047407,-2.8799997 0.64,-2.8799997 0.352,0 0.64,0.1663182 0.64,0.369596 0,0.2211334 0.2350671,0.1568632 0.585197,-0.16 C 9.3947507,8.7569603 10.24,8.813353 10.24,9.6000003 10.24,10.008746 10.026667,10.24 9.649596,10.24 8.5727267,10.24 8,11.276437 8,13.225197 8,14.826667 7.9247669,15.04 7.36,15.04 6.7674074,15.04 6.72,14.826667 6.72,12.16 Z m 5.268971,2.431507 C 11.500602,14.234402 11.350599,13.647543 11.252834,11.711506 11.13021,9.2832143 11.131132,9.2800003 11.950403,9.2800003 c 0.790106,0 0.823844,0.079647 0.914976,2.1599997 L 12.96,13.6 h 0.96 0.96 l 0.09462,-2.16 c 0.08999,-2.0542415 0.133074,-2.1599997 0.88,-2.1599997 0.772467,0 0.785379,0.044883 0.785379,2.7300427 0,2.208 -0.09796,2.767635 -0.512296,2.92663 -0.281763,0.108123 -0.635766,-0.0032 -0.786675,-0.247368 -0.218518,-0.35357 -0.355271,-0.363063 -0.671704,-0.04663 -0.530605,0.530606 -1.921031,0.504062 -2.680354,-0.05117 z m 6.239773,-0.04507 c -0.605335,-0.729385 0.04911,-1.279953 0.948988,-0.798355 0.78645,0.420895 2.037339,0.141014 1.855848,-0.415237 -0.06691,-0.205065 -0.581979,-0.525134 -1.144605,-0.711264 -1.596124,-0.528037 -2.155413,-1.242751 -1.788631,-2.28569 C 18.487427,9.2352266 20.098754,8.6835634 21.31197,9.2363414 22.420052,9.7412176 22.114818,10.4 20.772811,10.4 c -1.118796,0 -1.638749,0.490794 -0.877522,0.82831 1.991132,0.882836 2.3516,1.170688 2.44298,1.950842 0.06831,0.583175 -0.124137,0.994745 -0.631202,1.349907 -0.932749,0.653323 -2.942204,0.663363 -3.478323,0.01738 z m 6.402472,0.003 C 24.392366,14.261619 24.135323,13.174266 24.06001,12.133075 23.963811,10.803124 23.791735,10.24 23.481539,10.24 23.238693,10.24 23.04,10.024 23.04,9.7600003 c 0,-0.264 0.206435,-0.48 0.458745,-0.48 0.262569,0 0.502045,-0.37632 0.56,-0.8800001 0.07283,-0.6329149 0.280953,-0.88 0.741255,-0.88 0.460302,0 0.66843,0.2470851 0.741255,0.88 0.07953,0.69119 0.26834,0.8800001 0.88,0.8800001 0.478884,0 0.778745,0.184827 0.778745,0.48 C 27.2,10.058667 26.897778,10.24 26.4,10.24 c -0.756364,0 -0.8,0.096 -0.8,1.76 0,1.737915 0.130582,1.927036 1.227376,1.7776 0.253052,-0.03448 0.382509,0.178478 0.317379,0.522086 -0.148714,0.784581 -1.923324,0.960896 -2.513539,0.24973 z"
         id="path3" />
      <path
         style="fill:#325083"
         d="m 47.36,25.790007 v -2.817066 l 5.6,-9.724538 c 3.08,-5.3484953 5.6,-9.869407 5.6,-10.0464701 0,-0.2053462 -2.354337,-0.3219328 -6.501075,-0.3219328 H 45.55785 L 44.858925,1.6364306 C 44.474516,0.95246739 44.16,0.30446737 44.16,0.19643056 44.16,0.08839375 48.552,0 53.92,0 c 5.368,0 9.76,0.04904456 9.76,0.10898791 0,0.0599434 -3.672,6.49653459 -8.16,14.30353609 L 47.36,28.607072 Z M 12.24,14.55295 c -0.636569,-0.450231 -0.72,-0.785243 -0.72,-2.891095 0,-1.9038709 0.09633,-2.3818547 0.48,-2.3818547 0.366032,0 0.48,0.4009775 0.48,1.6887977 0,1.625702 0.619823,3.111202 1.298145,3.111202 0.16602,0 0.589855,-0.288 0.941855,-0.64 0.484848,-0.484848 0.64,-1.066666 0.64,-2.4 0,-1.3511108 0.111515,-1.7599997 0.48,-1.7599997 0.38902,0 0.48,0.5155555 0.48,2.7199997 0,2.133334 -0.09778,2.72 -0.453333,2.72 -0.249334,0 -0.526371,-0.18 -0.615638,-0.4 C 15.128543,14.018134 15.02308,14.01191 14.821157,14.29463 14.3461,14.959771 13.004963,15.093991 12.24,14.55295 Z m 6.363474,0.143567 c -0.628598,-0.251694 -0.689058,-0.384211 -0.357543,-0.783663 0.294514,-0.354868 0.508937,-0.389492 0.818913,-0.132235 0.597625,0.495985 1.869567,0.239374 1.991732,-0.401828 0.07474,-0.392289 -0.259747,-0.649925 -1.215607,-0.936307 -1.662121,-0.497984 -2.159061,-1.311448 -1.456335,-2.383942 0.374581,-0.5716833 0.79879,-0.7785417 1.596571,-0.7785417 1.60229,0 2.202503,0.2894628 1.744505,0.8413167 -0.273404,0.329432 -0.48137,0.354664 -0.792811,0.09619 -0.582971,-0.4838222 -1.793737,-0.04974 -1.668928,0.598341 0.05839,0.303175 0.604149,0.64031 1.304786,0.806006 2.087516,0.493686 2.393192,2.408088 0.490416,3.071399 -1.16804,0.407181 -1.446,0.407551 -2.455699,0.0033 z M 24.88,14.694369 C 24.438256,14.437077 24.32,13.93232 24.32,12.3041 c 0,-1.850766 -0.06615,-2.0641 -0.64,-2.0641 -0.355556,0 -0.64,-0.213333 -0.64,-0.4799997 0,-0.2666667 0.284444,-0.48 0.64,-0.48 0.469333,0 0.64,-0.2133334 0.64,-0.8000001 0,-1.0090882 0.876013,-1.0779473 1.017744,-0.08 0.06571,0.4627064 0.35955,0.7565416 0.822256,0.8222564 C 27.169257,9.365594 27.086157,10.24 26.063277,10.24 c -0.784202,0 -0.812872,0.0669 -0.72,1.68 0.07974,1.385041 0.223134,1.73546 0.816723,1.995882 0.396,0.173734 0.72,0.497734 0.72,0.72 0,0.482011 -1.212001,0.517454 -2,0.05849 z M 2.88,11.2 V 7.6800002 H 1.44 c -1.23491828,0 -1.44,-0.092742 -1.44,-0.6511946 0,-0.6184616 0.16468388,-0.6466106 3.2762475,-0.56 2.8230824,0.078581 3.2910775,0.1686529 3.3834638,0.6511946 0.089474,0.4673298 -0.1349616,0.56 -1.3562476,0.56 H 3.84 V 11.2 c 0,2.915556 -0.082424,3.52 -0.48,3.52 -0.3975758,0 -0.48,-0.604444 -0.48,-3.52 z M 6.72,12 c 0,-2.5326539 0.045382,-2.7199997 0.6588854,-2.7199997 0.362387,0 0.5698886,0.144 0.4611146,0.32 -0.108774,0.176 -0.053771,0.32 0.1222291,0.32 0.176,0 0.4089969,-0.144 0.5177709,-0.32 0.108774,-0.176 0.5492724,-0.32 0.9788854,-0.32 1.0896286,0 1.0096306,0.8909727 -0.091471,1.0187447 -1.1224194,0.130246 -1.7343456,1.290381 -1.6146937,3.061255 0.0756,1.118892 -0.0078,1.36 -0.4704152,1.36 C 6.7900005,14.72 6.72,14.381392 6.72,12 Z"
         id="path2" />
    </g>
  </g>
</svg>
