<?xml version="1.0" encoding="UTF-8" standalone="no"?>
<!-- Created with Inkscape (http://www.inkscape.org/) -->
<svg
   xmlns:svg="http://www.w3.org/2000/svg"
   xmlns="http://www.w3.org/2000/svg"
   version="1.0"
   width="522"
   height="245"
   viewBox="-0.917 -0.258 522 245"
   id="svg2"
   xml:space="preserve">
	<defs
   id="defs4">
	</defs>
	<g
   id="g6">
		<path
   d="M 107.55,192.91 L 103.503,211.097 C 100.834,222.521 96.359,230.939 90.081,236.363 C 83.806,241.791 76.331,244.481 67.652,244.44 C 58.96,244.481 52.695,241.791 48.857,236.363 C 45.015,230.939 44.321,222.521 46.769,211.097 L 50.812,192.91 L 73.077,192.91 L 69.632,208.389 C 68.815,211.561 68.484,214.258 68.641,216.48 C 68.791,218.698 70.285,219.86 73.108,219.959 C 75.986,219.859 78.013,218.697 79.189,216.48 C 80.365,214.258 81.247,211.561 81.828,208.389 L 85.27,192.91 L 107.55,192.91"
   style="fill:#034ea2"
   id="path8" />
		<path
   d="M 314.843,240.707 L 339.281,240.707 L 344.945,216.282 L 345.4,216.282 L 350.68,240.707 L 379.497,240.707 L 370.323,215.981 C 369.864,214.887 369.348,213.992 368.784,213.292 C 368.223,212.591 367.687,211.972 367.175,211.438 L 367.319,210.831 C 372.306,209.224 376.216,206.937 379.052,203.968 C 381.89,201.001 383.954,196.691 385.242,191.051 C 386.657,184.687 386.52,179.564 384.832,175.673 C 383.147,171.79 380.354,168.964 376.448,167.207 C 372.544,165.45 367.974,164.585 362.735,164.612 L 332.544,164.612 L 314.843,240.707 M 352.198,185.397 L 354.115,185.397 C 356.347,185.301 358.135,185.667 359.488,186.481 C 360.842,187.297 361.224,189.12 360.64,191.956 C 359.909,194.694 358.64,196.462 356.829,197.255 C 355.024,198.051 353.061,198.403 350.942,198.318 L 349.21,198.318 L 352.198,185.397 z "
   style="fill:#034ea2;fill-rule:evenodd"
   id="path10" />
		<path
   d="M 175.055,240.707 L 198.851,240.707 L 204.371,215.985 C 204.918,213.465 205.311,210.954 205.564,208.438 C 205.814,205.925 206.032,203.358 206.227,200.744 L 206.952,200.744 L 219.923,240.707 L 243.719,240.707 L 260.617,164.612 L 236.814,164.612 L 231.814,187.425 C 231.083,190.657 230.566,193.898 230.266,197.152 C 229.965,200.4 229.723,203.616 229.538,206.801 L 228.813,206.801 L 215.838,164.613 L 191.95,164.613 L 175.055,240.707"
   style="fill:#034ea2"
   id="path12" />
		<path
   d="M 297.387,162.408 C 291.098,162.456 285.034,164.144 279.197,167.483 C 273.363,170.819 268.249,175.53 263.864,181.614 C 259.475,187.694 256.314,194.876 254.379,203.157 C 252.574,211.596 252.509,218.815 254.188,224.82 C 255.863,230.825 258.891,235.429 263.27,238.632 C 267.648,241.839 272.987,243.452 279.284,243.483 C 285.593,243.453 291.657,241.839 297.464,238.632 C 303.271,235.43 308.357,230.825 312.712,224.82 C 317.066,218.815 320.218,211.596 322.169,203.157 C 323.956,194.876 324.019,187.694 322.351,181.614 C 320.686,175.53 317.675,170.819 313.32,167.483 C 308.964,164.145 303.656,162.456 297.387,162.408 M 291.631,188.245 C 295.175,188.36 297.626,189.875 298.993,192.78 C 300.356,195.688 300.589,199.284 299.694,203.574 C 298.603,208.127 296.719,211.766 294.037,214.491 C 291.357,217.221 288.295,218.624 284.849,218.692 C 281.431,218.624 278.991,217.221 277.518,214.491 C 276.044,211.766 275.795,208.127 276.766,203.574 C 277.737,199.284 279.558,195.688 282.227,192.78 C 284.898,189.875 288.033,188.36 291.631,188.245 z "
   style="fill:#034ea2;fill-rule:evenodd"
   id="path14" />
		<path
   d="M 378.318,240.68 L 405.625,240.68 C 411.477,240.642 416.965,239.124 422.092,236.13 C 427.219,233.133 431.666,228.881 435.426,223.374 C 439.19,217.868 441.947,211.329 443.697,203.759 C 445.711,194.476 445.826,186.956 444.046,181.191 C 442.262,175.424 439.028,171.213 434.339,168.55 C 429.652,165.895 423.955,164.582 417.246,164.612 L 395.285,164.612 L 378.318,240.68 M 411.558,188.415 L 412.898,188.415 C 416.877,188.382 419.703,189.585 421.377,192.021 C 423.056,194.461 423.312,198.34 422.153,203.656 C 420.953,208.622 418.929,212.242 416.079,214.522 C 413.228,216.797 409.981,217.922 406.327,217.888 L 404.991,217.888 L 411.558,188.415 z "
   style="fill:#034ea2;fill-rule:evenodd"
   id="path16" />
		<polyline
   fill="#034EA2"
   points="57.104,164.612 79.372,164.612 74.023,188.655 43.046,188.655 30.608,240.696 2.957,240.696     15.391,188.655 0,189.362 5.811,164.612 57.104,164.612 "
   id="polyline18"
   style="fill:#034ea2" />
		<path
   d="M 152.629,164.612 L 179.183,164.612 L 141.025,240.707 L 119.482,240.707 L 108.497,188.655 L 86.215,188.655 L 91.564,164.612 L 129.975,164.612 L 134.244,199.237 C 134.487,201.102 134.63,202.972 134.675,204.848 C 134.719,206.729 134.61,208.625 134.34,210.539 L 134.897,210.539 C 135.184,208.625 135.632,206.728 136.23,204.848 C 136.832,202.969 137.532,201.099 138.332,199.229 L 152.629,164.612"
   style="fill:#034ea2"
   id="path20" />
		<path
   d="M 255.955,81.72 C 278.165,34.06 324.556,0 380.608,0 C 457.701,0 520.198,62.494 520.198,139.593 C 520.198,173.882 506.177,203.574 485.663,227.869 C 484.709,229.042 483.637,229.089 482.778,228.413 C 481.906,227.722 481.879,226.543 482.631,225.62 L 482.751,225.479 C 501.905,202.658 511.869,171.715 511.869,139.592 C 511.869,67.097 453.099,8.332 380.608,8.332 C 327.9,8.332 280.533,38.578 259.65,83.397 C 259.1,84.405 257.835,84.969 256.827,84.453 C 255.931,83.997 255.401,82.776 255.955,81.72"
   style="fill:#034ea2"
   id="path22" />
	</g>
</svg>