<?xml version="1.0" encoding="UTF-8" standalone="no"?>
<svg
   height="172"
   viewBox="31.45 29.09 77.521152 41.83"
   width="892.68945"
   version="1.1"
   id="svg1"
   sodipodi:docname="visteon.svg"
   inkscape:version="1.4.3 (0d15f75, 2025-12-25)"
   xmlns:inkscape="http://www.inkscape.org/namespaces/inkscape"
   xmlns:sodipodi="http://sodipodi.sourceforge.net/DTD/sodipodi-0.dtd"
   xmlns="http://www.w3.org/2000/svg"
   xmlns:svg="http://www.w3.org/2000/svg">
  <defs
     id="defs1" />
  <sodipodi:namedview
     id="namedview1"
     pagecolor="#ffffff"
     bordercolor="#000000"
     borderopacity="0.25"
     inkscape:showpageshadow="2"
     inkscape:pageopacity="0.0"
     inkscape:pagecheckerboard="0"
     inkscape:deskcolor="#d1d1d1"
     inkscape:zoom="0.15116279"
     inkscape:cx="962.53846"
     inkscape:cy="82.692308"
     inkscape:current-layer="svg1" />
  <path
     d="m 3.3705765,37.09 h 5.6 v 32.45 h -5.6 z M 156.25057,36.29 c -5.37,0 -8.46,1.94 -11.2,3.66 v -2.86 h -5.6 v 32.45 h 5.6 v -26.4 c 1.94,-0.91 5.6,-2.17 9.71,-2.17 4,0 5.26,2.29 5.26,6.86 v 21.71 h 5.6 V 60.4 46.23 c 0,-4.57 -2.17,-9.94 -9.37,-9.94 z m -107.059996,0.91 1.26,-8.11 h 4.34 v 8.11 h 8.57 v 4 h -8.57 v 17.6 c 0,5.94 0.57,7.31 4,7.31 2.63,0 3.66,-0.34 5.48,-0.8 v 3.77 c -2.29,1.14 -4.34,1.83 -6.86,1.83 -5.94,0 -8.23,-3.88 -8.23,-9.71 v -20 h -4.8 v -4 z m -11.89,4.69 v -3.77 c -2.29,-1.03 -4.8,-1.6 -8.57,-1.6 -5.139997,0 -10.969997,2.29 -10.969997,8.68 0,4.8 3.2,6.86 6.17,8.57 l 4.109997,2.17 c 2.51,1.37 5.14,2.86 5.14,5.94 0,2.97 -1.94,4.46 -5.94,4.46 -4.229997,0 -6.169997,-0.46 -9.479997,-1.03 v 3.77 c 2.86,1.14 6.06,1.83 9.709997,1.83 4.68,0 11.31,-1.71 11.31,-9.71 0,-4.57 -3.43,-7.54 -6.51,-9.26 l -4.8,-2.63 c -3.199997,-1.71 -3.999997,-2.63 -3.999997,-4.46 0,-2.74 3.089997,-3.88 6.169997,-3.88 2.86,0 4.92,0.12 7.66,0.92 z m 36.79,8.22 c 0.11,-6.63 4,-9.37 7.66,-9.37 6.17,0 7.77,3.77 7.77,9.37 z m 8,-13.59 c -5.37,0 -14.28,3.88 -14.28,18.4 0,14.4 10.51,16 16,16 4.23,0 6.74,-0.57 10.17,-1.94 v -3.66 c -5.26,0.91 -5.71,1.03 -9.6,1.03 -7.54,0 -10.4,-4.34 -10.4,-11.88 v -0.8 h 21.02 V 50.7 c 0.01,-11.1 -7.65,-14.18 -12.91,-14.18 z m 25.709996,17.14 c 0,10.51 4.34,13.37 9.14,13.37 4.68,0 8.91,-2.86 8.91,-13.37 0,-10.4 -4.23,-13.25 -8.91,-13.25 -5.82,-0.01 -9.14,2.73 -9.14,13.25 z m 24.34,0 c 0,10.63 -5.94,17.25 -15.2,17.25 -9.26,0 -15.31,-6.63 -15.31,-17.25 0,-10.51 6.06,-17.14 15.31,-17.14 9.26,0 15.2,6.62 15.2,17.14 z m -170.479993,-24.57 15.08,40.91 h 5.94 L -2.5794235,29.09 h -6.05 l -11.5399995,33.25 -11.77,-33.25 z m 213.329993,9.83 h 1.14 l 0.23,0.23 0.11,0.23 -0.23,0.34 c -0.11,0.11 -0.34,0.11 -0.57,0.11 h -0.69 v -0.91 z m 0,2.74 v -1.37 h 0.34 c 0.23,0 0.34,0 0.46,0.11 0.11,0.11 0.23,0.34 0.46,0.69 l 0.34,0.57 h 0.57 l -0.34,-0.69 c -0.23,-0.23 -0.34,-0.46 -0.46,-0.57 l -0.34,-0.23 c 0.34,0 0.57,-0.11 0.69,-0.23 0.23,-0.23 0.23,-0.34 0.23,-0.69 0,-0.11 0,-0.23 -0.11,-0.46 -0.11,-0.11 -0.23,-0.23 -0.34,-0.23 -0.23,-0.11 -0.46,-0.11 -0.91,-0.11 h -1.03 v 3.2 h 0.44 z m -0.69,-4.23 c -0.46,0.23 -0.8,0.57 -1.03,1.14 -0.34,0.46 -0.46,0.91 -0.46,1.37 0,0.57 0.11,1.03 0.46,1.49 0.23,0.46 0.57,0.91 1.03,1.14 0.46,0.23 1.03,0.34 1.49,0.34 0.57,0 1.03,-0.11 1.49,-0.34 0.46,-0.23 0.8,-0.69 1.14,-1.14 0.23,-0.46 0.34,-0.91 0.34,-1.49 0,-0.46 -0.11,-0.91 -0.34,-1.37 -0.34,-0.57 -0.69,-0.91 -1.14,-1.14 -0.46,-0.23 -0.91,-0.34 -1.49,-0.34 -0.46,0 -0.92,0.11 -1.49,0.34 z m 2.75,0.46 c 0.34,0.23 0.69,0.46 0.91,0.91 0.23,0.34 0.34,0.8 0.34,1.14 0,0.46 -0.11,0.91 -0.34,1.26 -0.23,0.46 -0.57,0.69 -0.91,0.91 -0.34,0.22 -0.8,0.34 -1.26,0.34 -0.34,0 -0.8,-0.11 -1.26,-0.34 -0.34,-0.23 -0.69,-0.46 -0.91,-0.91 -0.11,-0.34 -0.23,-0.8 -0.23,-1.26 0,-0.34 0.11,-0.8 0.34,-1.14 0.11,-0.46 0.46,-0.69 0.91,-0.91 0.34,-0.23 0.8,-0.34 1.14,-0.34 0.47,0 0.81,0.11 1.27,0.34 z"
     fill="#f4901e"
     id="path1" />
</svg>
