<?xml version="1.0" encoding="UTF-8" standalone="no"?>
<svg
   version="1.1"
   width="2217"
   height="676.83594"
   id="svg33"
   sodipodi:docname="western-digital.svg"
   inkscape:version="1.4.3 (0d15f75, 2025-12-25)"
   xmlns:inkscape="http://www.inkscape.org/namespaces/inkscape"
   xmlns:sodipodi="http://sodipodi.sourceforge.net/DTD/sodipodi-0.dtd"
   xmlns="http://www.w3.org/2000/svg"
   xmlns:svg="http://www.w3.org/2000/svg">
  <defs
     id="defs33" />
  <sodipodi:namedview
     id="namedview33"
     pagecolor="#ffffff"
     bordercolor="#000000"
     borderopacity="0.25"
     inkscape:showpageshadow="2"
     inkscape:pageopacity="0.0"
     inkscape:pagecheckerboard="0"
     inkscape:deskcolor="#d1d1d1"
     inkscape:zoom="0.14"
     inkscape:cx="1110.7143"
     inkscape:cy="339.28571"
     inkscape:current-layer="svg33" />
  <path
     d="m 1265,377.65787 c 137.7304,0 137.7304,0 169.75,30.25 16.289,17.2138 25.6202,40.35489 28.25,63.75 0.1096,0.85207 0.2191,1.70414 0.332,2.58203 1.7576,16.38019 1.2411,33.16503 -1.332,49.41797 -0.2746,1.83691 -0.2746,1.83691 -0.5547,3.71094 -4.2947,24.86685 -16.3757,48.55103 -36.9453,63.78906 -46.4188,31.25582 -107.4394,20.5 -159.5,20.5 0,-77.22 0,-154.44 0,-234 z"
     fill="#070909"
     id="path2" />
  <path
     d="m 0,377.65787 c 16.5,0 33,0 50,0 5.432408,21.02723 10.848585,42.05859 16.253036,63.09302 0.779804,3.03478 1.559825,6.06952 2.33986,9.10424 3.139513,12.2158 6.274613,24.43271 9.402096,36.65159 1.426985,5.57491 2.855601,11.14939 4.288181,16.72287 1.364642,5.30957 2.724665,10.6203 4.081218,15.93194 0.506128,1.97848 1.01391,3.95653 1.523415,5.93415 0.700132,2.71867 1.394327,5.43879 2.087048,8.15936 0.207095,0.79844 0.414191,1.59687 0.627562,2.41951 0.877133,3.4687 1.397584,6.3803 1.397584,9.98332 0.66,0 1.32,0 2,0 0.09104,-1.0244 0.18208,-2.0488 0.275879,-3.10425 0.8253,-6.5398 2.645704,-12.86228 4.310058,-19.22778 0.373292,-1.44329 0.746091,-2.8867 1.118439,-4.33023 0.799844,-3.09741 1.602594,-6.19405 2.407684,-9.2901 1.93525,-7.44306 3.85562,-14.88997 5.77718,-22.33657 0.67092,-2.59945 1.34241,-5.19874 2.0139,-7.79803 3.19151,-12.36148 6.3472,-24.73179 9.47967,-37.10835 0.32532,-1.28533 0.32532,-1.28533 0.65721,-2.59662 2.10429,-8.31629 4.20463,-16.63357 6.30409,-24.95107 0.7755,-3.07153 1.55173,-6.14288 2.32807,-9.2142 0.52631,-2.08368 1.0514,-4.16767 1.57639,-6.25169 0.47927,-1.89678 0.47927,-1.89678 0.96823,-3.83188 0.41034,-1.62711 0.41034,-1.62711 0.82898,-3.2871 1.27391,-4.9024 2.62147,-9.7854 3.95422,-14.67213 19.47,0 38.94,0 59,0 3.37494,8.99984 3.37494,8.99984 4.21565,12.35708 0.29133,1.14879 0.29133,1.14879 0.58854,2.32078 0.30153,1.21834 0.30153,1.21834 0.60914,2.4613 0.22204,0.88097 0.44407,1.76195 0.67284,2.66962 0.73209,2.90903 1.45768,5.81964 2.18336,8.73028 0.51825,2.06368 1.03695,4.12724 1.55609,6.19069 1.09879,4.3705 2.19494,8.74165 3.28891,13.11336 2.54143,10.15495 5.09647,20.30647 7.65146,30.45802 0.56248,2.23504 1.12481,4.47012 1.68697,6.70525 4.63134,18.4126 9.32353,36.80811 14.10954,55.18112 0.29081,1.11683 0.58163,2.23366 0.88126,3.38434 1.51398,5.81064 3.03231,11.62012 4.55624,17.42816 2.28017,-3.90171 3.19691,-8.18801 4.28394,-12.52979 0.33046,-1.29646 0.33046,-1.29646 0.6676,-2.61911 0.73272,-2.87898 1.45891,-5.75956 2.18518,-8.64016 0.51689,-2.03583 1.03422,-4.07155 1.55195,-6.10716 1.10021,-4.32897 2.19769,-8.65862 3.29302,-12.98882 1.70227,-6.72897 3.41123,-13.45622 5.12183,-20.18308 0.56918,-2.23851 1.13836,-4.47702 1.70755,-6.71553 0.2808,-1.10432 0.56161,-2.20864 0.85092,-3.34643 0.84967,-3.34233 1.69877,-6.6848 2.5477,-10.02732 4.25417,-16.74876 8.52472,-33.49316 12.84173,-50.22584 0.63112,-2.44792 1.26082,-4.8962 1.8891,-7.34485 0.84981,-3.31157 1.70391,-6.62199 2.55948,-9.93207 0.24358,-0.95241 0.48715,-1.90482 0.73811,-2.88609 0.33073,-1.27274 0.33073,-1.27274 0.66814,-2.57118 0.28327,-1.09884 0.28327,-1.09884 0.57227,-2.21987 C 279,378.65787 279,378.65787 280,377.65787 c 1.4429,-0.093 2.8903,-0.11747 4.33618,-0.11353 0.92088,8e-5 1.84176,1.5e-4 2.79054,2.3e-4 1.00104,0.005 2.00207,0.0103 3.03344,0.0156 1.5294,0.002 1.5294,0.002 3.0897,0.004 3.27091,0.006 6.54175,0.0182 9.81264,0.0309 2.21159,0.005 4.42318,0.01 6.63477,0.0137 5.43426,0.0111 10.86849,0.0278 16.30273,0.0488 -2.60399,11.24831 -5.35206,22.44904 -8.25,33.625 -0.39397,1.52502 -0.78776,3.05009 -1.1814,4.57519 -0.80104,3.10247 -1.60306,6.20467 -2.406,9.30664 -1.08377,4.18726 -2.16479,8.37522 -3.24463,12.56348 -1.3165,5.10578 -2.63427,10.21123 -3.95313,15.31641 -1.324,5.12666 -2.64395,10.25434 -3.96093,15.38281 -3.21442,12.50926 -6.46611,25.00672 -9.81641,37.48047 -4.54695,16.94419 -8.86302,33.94677 -13.19513,50.94688 -2.42892,9.52617 -4.88794,19.04451 -7.35565,28.56069 -2.26146,8.73628 -4.44777,17.48664 -6.63672,26.24243 -19.8,0 -39.6,0 -60,0 -8.32041,-31.52381 -16.545,-63.06449 -24.42303,-94.70184 -5.42713,-21.7911 -11.00283,-43.54429 -16.57697,-65.29816 -1.65038,3.19211 -2.70438,6.20668 -3.62891,9.6875 -0.46152,1.72996 -0.46152,1.72996 -0.93237,3.49487 -0.3304,1.25982 -0.6608,2.51964 -1.00122,3.81763 -0.35646,1.34873 -0.71299,2.69744 -1.06958,4.04614 -2.98694,11.33947 -5.83472,22.71298 -8.66138,34.09326 -3.33078,13.40399 -6.72908,26.79033 -10.14404,40.1731 -0.27528,1.07895 -0.55055,2.15789 -0.83417,3.26953 -5.22554,20.47708 -10.47367,40.94834 -15.72833,61.41797 -20.79,0 -41.58,0 -63,0 -2.375441,-7.72018 -4.682069,-15.29862 -6.585938,-23.12109 -0.222091,-0.89813 -0.444182,-1.79625 -0.673004,-2.72159 -0.468035,-1.89308 -0.934603,-3.78651 -1.399749,-5.6803 -0.977173,-3.97592 -1.962786,-7.94972 -2.950837,-11.92296 -0.468046,-1.88224 -0.934763,-3.76482 -1.399841,-5.64779 -1.979731,-7.97753 -4.134203,-15.90332 -6.342194,-23.82033 -2.464058,-8.97507 -4.724108,-18.00512 -7.023437,-27.02344 -0.239574,-0.93954 -0.479149,-1.87907 -0.725983,-2.84708 -0.958119,-3.75817 -1.916,-7.5164 -2.873397,-11.27476 -2.0558,-8.06751 -4.129802,-16.13022 -6.21312,-24.19066 -0.321138,-1.2425 -0.642275,-2.48499 -0.973145,-3.76514 -0.635003,-2.4564 -1.270093,-4.91278 -1.905273,-7.36914 -0.929162,-3.59668 -1.855852,-7.19398 -2.781738,-10.7915 -0.311712,-1.21035 -0.623423,-2.4207 -0.94458,-3.66773 -0.636973,-2.47336 -1.273531,-4.94683 -1.909668,-7.42041 -1.857056,-7.2099 -3.736773,-14.41353 -5.6358035,-21.6125 C 8.5492934,414.56165 7.4396828,410.34096 6.329956,406.1203 5.7787782,404.02842 5.2258132,401.937 4.6710205,399.84607 3.8908948,396.90556 3.1167575,393.96354 2.34375,391.02115 2.1066632,390.13402 1.8695764,389.2469 1.6253052,388.33289 1.4105756,387.51112 1.1958459,386.68935 0.97460938,385.84268 0.7855603,385.12788 0.59651123,384.41308 0.4017334,383.67662 0,381.65787 0,381.65787 0,377.65787 Z"
     fill="#070909"
     id="path3" />
  <path
     d="m 1662.875,456.72037 c 2.125,1.9375 2.125,1.9375 6.125,6.9375 0.33,-4.62 0.66,-9.24 1,-14 15.51,0 31.02,0 47,0 0.091,20.42016 0.1641,40.84015 0.2072,61.26046 0.021,9.48324 0.049,18.96634 0.095,28.4495 0.04,8.2734 0.066,16.54671 0.075,24.82021 0.01,4.37363 0.017,8.74699 0.046,13.12054 0.1921,29.77402 -1.0805,56.16834 -22.7354,79.09929 -8.3156,7.9602 -17.789,12.75788 -28.6875,16.25 -1.4618,0.48146 -1.4618,0.48146 -2.9531,0.97266 -22.8346,6.16762 -50.336,3.39486 -71.0469,-7.97266 -3.2819,-2.08589 -6.1497,-4.36109 -9,-7 -0.6948,-0.61617 -1.3896,-1.23234 -2.1055,-1.86719 -5.0462,-4.71486 -8.8471,-9.92265 -11.8945,-16.13281 0,-0.66 0,-1.32 0,-2 3.5916,-2.08357 7.1846,-4.16478 10.7788,-6.2439 1.2204,-0.70639 2.4405,-1.41341 3.6602,-2.12109 1.7615,-1.02194 3.5244,-2.04157 5.2876,-3.06079 1.0578,-0.61271 2.1156,-1.22542 3.2055,-1.85669 2.9812,-1.66898 5.9997,-3.21561 9.0679,-4.71753 0.3777,0.56848 0.7554,1.13695 1.1445,1.72266 6.1875,8.67978 15.1587,15.40832 25.8555,17.27734 11.6195,1.1053 21.9896,-0.68549 31.2149,-8.16797 7.8511,-8.05731 10.0269,-17.11248 9.9609,-27.97851 -0.017,-1.08604 -0.034,-2.17207 -0.051,-3.29102 -0.01,-1.11311 -0.018,-2.22621 -0.027,-3.37305 -0.024,-2.73004 -0.056,-5.45963 -0.098,-8.18945 -0.6764,0.80099 -0.6764,0.80099 -1.3665,1.61816 -9.1833,10.71448 -19.5084,16.53792 -33.6335,18.38184 -19.2941,1.2418 -37.8962,-2.15908 -53.0625,-14.875 -16.9646,-16.57758 -23.6229,-41.18225 -24.2207,-64.26172 -0.2855,-24.8617 5.2571,-50.24146 22.9434,-68.68359 23.0158,-21.44045 58.2901,-21.99795 83.2148,-4.11719 z"
     fill="#070909"
     id="path4" />
  <path
     d="m 1754.6172,0.1891189 c 1.6237,-0.007113 3.2474,-0.0148134 4.8711,-0.0230713 3.3941,-0.0134029 6.788,-0.0150326 10.1821,-0.009155 4.3263,0.005891 8.6515,-0.0246908 12.9776,-0.06511688 3.3511,-0.02598638 6.702,-0.02874458 10.0533,-0.02510834 1.5938,-0.001681 3.1877,-0.0112256 4.7814,-0.0291443 10.1444,-0.10151482 18.8018,0.36274347 26.6486,7.58091742 6.3595,6.5205885 8.3264,13.6954015 8.2535,22.5599365 0.01,0.810946 0.011,1.621892 0.016,2.457413 0.01,1.747572 0.013,3.495193 0.01,5.24279 0,2.776575 0.01,5.552523 0.028,8.329033 0.037,5.900075 0.05,11.800084 0.061,17.700256 0.012,6.829318 0.034,13.65833 0.08,20.487511 0.013,2.716306 0.01,5.432211 0,8.148536 0.049,15.249354 2.051,30.749584 13.4154,42.113954 10.9339,8.9308 22.2684,13.15166 36.3252,13.14185 0.8138,0.003 1.6277,0.007 2.4662,0.0105 1.7597,0.007 3.5193,0.0127 5.279,0.0163 2.7925,0.007 5.5848,0.0229 8.3773,0.0414 7.9371,0.0523 15.8742,0.10041 23.8116,0.11592 4.8635,0.0101 9.7267,0.0395 14.5901,0.0813 1.8449,0.0122 3.69,0.0174 5.535,0.0152 12.3578,-0.0113 22.7635,0.0962 32.0453,9.30802 6.1899,8.94622 6.1776,17.70218 6.1367,28.20312 0.01,1.64471 0.012,3.28941 0.019,4.9341 0.01,3.43528 0.01,6.87015 -0.01,10.30541 -0.017,4.379 0.01,8.75668 0.042,13.13554 0.022,3.39321 0.021,6.78612 0.012,10.17938 -8e-4,1.61337 0.01,3.22677 0.021,4.84007 0.079,10.17926 -0.3377,18.95005 -7.6255,26.79836 -7.3361,6.99114 -13.4193,8.20033 -23.3301,8.36964 -9.5293,-1.2793 -15.3816,-6.45717 -21.9509,-13.11674 -0.8869,-0.87912 -1.7738,-1.75823 -2.6876,-2.66399 -2.446,-2.4252 -4.8762,-4.86562 -7.3041,-7.30898 -2.6269,-2.63831 -5.2683,-5.26214 -7.9078,-7.8879 -5.1623,-5.14014 -10.3111,-10.29366 -15.4551,-15.45215 -4.182,-4.19333 -8.3689,-8.38174 -12.5593,-12.56671 -0.5971,-0.59633 -1.1942,-1.19267 -1.8094,-1.80708 -1.2131,-1.21154 -2.4263,-2.42308 -3.6394,-3.6346 -11.3668,-11.35274 -22.7184,-22.7207 -34.0648,-34.09397 -9.7295,-9.75183 -19.472,-19.49047 -29.2242,-29.21961 -11.3334,-11.30666 -22.6587,-22.62142 -33.971,-33.94915 -1.2071,-1.2086 -2.4141,-2.41719 -3.6211,-3.625776 -0.8908,-0.891903 -0.8908,-0.891903 -1.7995,-1.801823 -4.179,-4.18329 -8.3637,-8.360762 -12.5507,-12.536003 -5.1046,-5.090561 -10.2002,-10.189978 -15.2845,-15.300844 -2.5927,-2.605878 -5.1893,-5.20765 -7.7969,-7.79868 -2.8298,-2.812056 -5.6397,-5.643173 -8.4481,-8.476536 -0.8227,-0.8115 -1.6453,-1.623001 -2.4929,-2.459093 -6.5416,-6.654549 -10.7015,-13.154207 -10.6903,-22.733976 0.294,-8.799204 2.9832,-14.948587 9.375,-20.9999998 8.3531,-7.2488064 18.4393,-6.5367832 28.8047,-6.53125001 z"
     fill="#4cb7d8"
     id="path5" />
  <path
     d="m 1918.8125,0.02896265 c 1.6209,-8.3053e-4 3.2417,-0.0032969 4.8625,-0.007309 3.3824,-0.0028445 6.7641,0.01170951 10.1463,0.03929138 4.3105,0.03408099 8.6198,0.02805194 12.9303,0.0093374 3.3426,-0.01062678 6.685,-0.0015811 10.0275,0.01338482 1.5883,0.0051408 3.1765,0.0047506 4.7648,-0.001545 10.5121,-0.02603596 20.0982,0.35309185 28.3311,7.70074655 7.895,8.8906352 7.6936,19.0598982 7.6414,30.3071712 -0.013,2.768441 0,5.535903 0.016,8.30431 0.027,4.884551 0.032,9.768858 0.031,14.653473 0,7.808618 0.012,15.616933 0.056,23.425434 0.01,2.707487 0,5.414484 -0.01,8.12196 0.02,15.388243 2.1339,30.475803 13.3897,42.062653 10.4193,9.22567 22.9123,13.33132 36.6658,13.25537 0.8143,0.004 1.6286,0.007 2.4676,0.011 1.7514,0.007 3.5028,0.009 5.2542,0.008 2.7802,-9.7e-4 5.56,0.0121 8.3402,0.029 7.8987,0.046 15.7974,0.0709 23.6963,0.0775 4.8475,0.005 9.6947,0.0294 14.5421,0.0653 1.8366,0.01 3.6733,0.0122 5.5099,0.007 21.6907,-0.06 21.6907,-0.06 30.3989,7.67199 7.8813,8.82749 7.7233,19.29729 7.6563,30.46875 0,1.59843 0.01,3.19686 0.012,4.79528 0.01,3.33517 0,6.6699 -0.021,10.00501 -0.023,4.24992 -0.01,8.49883 0.014,12.74871 0.014,3.29627 0.01,6.5923 -6e-4,9.88857 0,1.56591 6e-4,3.13184 0.01,4.69773 0.05,10.63399 -0.3421,20.05993 -7.9826,28.20845 -6.132,5.56856 -11.0429,7.20345 -19.25,7.375 -1.1589,0.0374 -2.3178,0.0748 -3.5118,0.11328 -9.5972,-1.07513 -15.4791,-6.3788 -22.0563,-13.04644 -0.8869,-0.87911 -1.7738,-1.75822 -2.6876,-2.66398 -2.446,-2.4252 -4.8763,-4.86563 -7.3041,-7.30898 -2.6269,-2.63831 -5.2683,-5.26214 -7.9078,-7.88791 -5.1623,-5.14013 -10.3111,-10.29365 -15.4551,-15.45215 -4.182,-4.19333 -8.3689,-8.38174 -12.5593,-12.5667 -0.5971,-0.59634 -1.1942,-1.19267 -1.8094,-1.80708 -1.2131,-1.21155 -2.4263,-2.42308 -3.6395,-3.63461 -11.3669,-11.35271 -22.7185,-22.72068 -34.0649,-34.09395 -9.7295,-9.75182 -19.472,-19.49047 -29.2242,-29.2196 -11.3334,-11.30666 -22.6587,-22.62142 -33.9711,-33.94915 -1.207,-1.2086 -2.414,-2.4172 -3.6211,-3.625776 -0.8908,-0.892062 -0.8908,-0.892062 -1.7995,-1.801983 -4.179,-4.18329 -8.3637,-8.360762 -12.5507,-12.536003 -5.1047,-5.090561 -10.2002,-10.189977 -15.2845,-15.300844 -2.5928,-2.605878 -5.1893,-5.207649 -7.7969,-7.798679 -2.8298,-2.812057 -5.6397,-5.643174 -8.4481,-8.476536 -0.8227,-0.811501 -1.6454,-1.623002 -2.4929,-2.459094 -5.7098,-5.80835 -9.5245,-11.302753 -10.6239,-19.491788 0.1693,-9.911591 1.3795,-15.99205 8.3687,-23.3300939 8.4451,-7.83841558 18.0962,-7.70476566 28.9399,-7.60350049 z"
     fill="#3c96e4"
     id="path6" />
  <path
     d="m 2021,448.65787 c 1.0854,0.37383 2.1708,0.74766 3.2891,1.13281 9.1688,3.50504 18.1764,8.42517 24.7109,15.86719 0.5401,0.54914 1.0802,1.09828 1.6367,1.66406 15.57,16.41436 14.7967,37.07564 14.6563,58.20313 -0.01,2.49105 -0.01,4.98211 -0.013,7.47317 -0.011,6.51339 -0.041,13.02658 -0.074,19.53989 -0.031,6.66359 -0.044,13.3272 -0.06,19.99084 -0.032,13.04308 -0.085,26.08594 -0.1465,39.12891 -15.18,0 -30.36,0 -46,0 -0.33,-4.62 -0.66,-9.24 -1,-14 -0.6187,0.84562 -1.2375,1.69125 -1.875,2.5625 -8.0862,9.55032 -20.0182,14.3173 -32.125,16.4375 -18.4958,1.37505 -34.0142,-0.99573 -49.0586,-12.58594 -9.5306,-8.70279 -15.4081,-22.14239 -16.1445,-34.94531 -0.1558,-13.1915 1.2341,-24.50432 9.2031,-35.46875 0.5143,-0.70899 1.0287,-1.41797 1.5586,-2.14844 12.1298,-15.18403 32.8333,-20.16362 51.2219,-22.4436 7.1996,-0.77991 14.4265,-0.61775 21.657,-0.53296 1.5215,0.0101 3.043,0.0192 4.5645,0.0273 3.6661,0.0217 7.332,0.056 10.998,0.0977 -0.2843,-1.89956 -0.5777,-3.79774 -0.875,-5.69531 -0.1624,-1.0572 -0.3248,-2.11439 -0.4922,-3.20362 -1.179,-5.77753 -3.2534,-10.19677 -7.9023,-13.91748 -7.6429,-4.87221 -15.1614,-6.56769 -24.1055,-6.49609 -0.7431,0.006 -1.4863,0.0113 -2.252,0.0171 -13.7221,0.30208 -22.3248,6.55234 -32.373,15.29541 -0.9552,-0.77344 -1.9104,-1.54688 -2.8945,-2.34375 -7.5613,-6.09924 -15.1701,-12.04702 -23.1055,-17.65625 1.4178,-7.64601 8.1974,-12.45538 14.25,-16.6875 5.6596,-3.81499 11.3268,-6.98301 17.75,-9.3125 1.0287,-0.39188 2.0573,-0.78375 3.1172,-1.1875 18.5646,-5.84967 43.5433,-5.23344 61.8828,1.1875 z"
     fill="#070909"
     id="path7" />
  <path
     d="m 857.8125,459.03287 c 1.41549,1.18524 2.81151,2.39412 4.1875,3.625 0.73605,0.64324 1.47211,1.28648 2.23047,1.94922 15.73348,14.65028 23.15232,35.11309 25.76953,56.05078 0,7.92 0,15.84 0,24 -37.95,0 -75.9,0 -115,0 4.37407,18.43087 4.37407,18.43087 16.65625,31.73438 10.27164,5.7985 19.96521,6.65498 31.53125,4.14062 10.33941,-2.89233 16.97585,-9.12003 22.8125,-17.875 5.74018,1.06196 10.72948,4.47277 15.78247,7.2644 1.90233,1.04661 3.81437,2.07375 5.7273,3.10083 1.20963,0.66484 2.41863,1.33082 3.62695,1.99805 1.65068,0.90166 1.65068,0.90166 3.33472,1.82153 2.52856,1.81519 2.52856,1.81519 3.48291,3.88306 0.13827,5.85185 -7.43502,12.57061 -11.26685,16.68213 -16.7659,15.89148 -38.84152,19.73669 -61.03516,19.45703 C 788.0415,616.38463 771.75328,610.72817 758,599.65787 c -1.11568,-0.85465 -1.11568,-0.85465 -2.25391,-1.72656 C 739.31129,584.49764 730.28015,563.41806 728,542.65787 c -1.36623,-26.73942 2.62169,-52.71155 20.92969,-73.4336 5.92347,-6.33152 12.4207,-11.45144 20.07031,-15.5664 1.00676,-0.54399 2.01352,-1.08797 3.05078,-1.64844 26.52664,-13.27951 61.89261,-10.77516 85.76172,7.02344 z"
     fill="#070909"
     id="path8" />
  <path
     d="m 444.375,461.34537 c 16.97786,15.13744 25.45,35.08752 28.625,57.3125 0,8.58 0,17.16 0,26 -37.95,0 -75.9,0 -115,0 4.07137,15.26765 6.56869,23.90392 19,33 9.16169,5.15345 19.14129,5.08023 29.25,2.8125 10.44272,-2.94084 16.79695,-8.88292 22.75,-17.8125 4.13456,0.59072 7.05103,1.96897 10.63281,4.08984 1.05317,0.6194 2.10633,1.23879 3.19141,1.87696 1.63389,0.97549 1.63389,0.97549 3.30078,1.9707 1.09699,0.64646 2.19398,1.29293 3.32422,1.95898 7.86888,4.64892 7.86888,4.64892 11.55078,7.10352 -0.83652,6.0462 -4.11432,9.48564 -8,14 -0.5891,0.68578 -1.1782,1.37156 -1.78516,2.07812 -12.53146,13.5159 -30.65923,20.18888 -48.78466,21.04297 -23.584,0.8131 -43.77856,-2.9293 -62.43018,-18.12109 -0.94553,-0.70189 -0.94553,-0.70189 -1.91016,-1.41797 -15.64856,-12.15526 -24.35761,-34.16925 -26.83984,-53.33203 -0.11615,-1.74813 -0.19336,-3.49893 -0.25,-5.25 -0.0258,-0.66484 -0.0516,-1.32967 -0.0781,-2.01465 -0.87512,-25.30188 5.13836,-48.57312 22.07812,-67.98535 0.51949,-0.61488 1.03898,-1.22977 1.57422,-1.86328 27.4324,-30.05819 79.13315,-29.56761 109.80076,-5.44922 z"
     fill="#070909"
     id="path9" />
  <path
     d="m 1156,454.65787 c 11.538,8.34653 18.0497,22.20282 20.5312,35.94093 0.7154,5.1802 0.5999,10.37463 0.5823,15.59398 2e-4,1.14219 3e-4,2.28438 5e-4,3.46118 -7e-4,3.76044 -0.01,7.52082 -0.016,11.28125 0,2.61317 0,5.22633 0,7.8395 0,6.16569 -0.011,12.33137 -0.021,18.49706 -0.011,7.023 -0.017,14.046 -0.022,21.06901 -0.01,14.43904 -0.029,28.87806 -0.05,43.31709 -15.84,0 -31.68,0 -48,0 -0.026,-7.52426 -0.052,-15.04852 -0.078,-22.80078 -0.025,-4.78063 -0.052,-9.5612 -0.082,-14.3418 -0.048,-7.57983 -0.092,-15.15953 -0.1108,-22.7395 -0.015,-6.11451 -0.05,-12.22864 -0.097,-18.34298 -0.015,-2.32701 -0.023,-4.65408 -0.024,-6.98114 0,-3.27193 -0.029,-6.54281 -0.062,-9.81455 0,-0.95163 0.01,-1.90326 0.015,-2.88373 -0.1382,-9.01286 -2.4707,-17.95044 -8.7798,-24.66193 -7.1275,-5.73638 -15.9002,-7.26001 -24.7813,-6.43359 -7.388,1.87106 -14.0816,5.47115 -18.2812,11.98828 -2.6851,5.09209 -3.8291,9.86799 -3.877,15.63716 -0.015,1.34816 -0.015,1.34816 -0.03,2.72356 -0.01,0.9732 -0.012,1.9464 -0.017,2.94909 -0.01,1.03461 -0.02,2.06922 -0.03,3.13518 -0.032,3.41415 -0.056,6.82831 -0.081,10.24251 -0.021,2.3694 -0.042,4.7388 -0.063,7.1082 -0.055,6.23227 -0.1046,12.46458 -0.1528,18.69692 -0.059,7.47989 -0.1253,14.95973 -0.1903,22.43958 -0.098,11.3598 -0.1869,22.71965 -0.2775,34.07952 -15.84,0 -31.68,0 -48,0 0,-53.79 0,-107.58 0,-163 15.51,0 31.02,0 47,0 0.495,9.405 0.495,9.405 1,19 0.825,-1.17563 1.65,-2.35125 2.5,-3.5625 19.402,-25.58353 55.8881,-24.63098 81.5,-9.4375 z"
     fill="#080a0a"
     id="path10" />
  <path
     d="m 585,448.65787 c 1.08797,0.36223 2.17594,0.72445 3.29687,1.09766 10.48983,3.92702 19.24351,10.61622 26.70313,18.90234 0.99,1.08281 0.99,1.08281 2,2.1875 1,1.8125 1,1.8125 0.79492,3.75049 -1.01824,2.6413 -2.14574,3.34784 -4.51367,4.8667 -0.76828,0.50144 -1.53656,1.00289 -2.32813,1.51953 -0.80953,0.51176 -1.61906,1.02351 -2.45312,1.55078 -0.77859,0.50402 -1.55719,1.00805 -2.35938,1.52734 -1.57558,1.01996 -3.15504,2.03395 -4.73828,3.04199 -3.20969,2.07848 -6.34468,4.26205 -9.47461,6.4585 C 590,494.65787 590,494.65787 587,494.65787 c -1.54297,-1.57422 -1.54297,-1.57422 -3.1875,-3.6875 -5.30485,-6.29672 -11.48091,-10.36032 -19.8125,-11.3125 -14.243,-0.89119 -14.243,-0.89119 -26.625,5.1875 -1.87189,3.82887 -1.58472,6.85268 -0.375,10.8125 3.20845,6.27106 10.57382,8.48398 16.91644,10.6564 5.83473,1.87556 11.71725,3.60591 17.6026,5.31503 17.70726,5.17052 35.10426,12.28484 45.23487,28.70044 6.74836,12.60823 8.33633,25.82277 4.18359,39.57813 -2.16788,6.64473 -5.01591,11.7785 -9.9375,16.75 -0.64582,0.6832 -1.29164,1.36641 -1.95703,2.07031 -17.27392,16.85729 -41.81026,18.36656 -64.58985,18.14453 -19.5214,-0.45444 -38.96764,-7.56452 -53.40625,-20.94922 -3.63131,-4.01939 -6.36629,-8.57676 -9.04687,-13.26562 2.89831,-3.15379 5.72694,-5.15392 9.5,-7.16406 1.05187,-0.56461 2.10375,-1.12922 3.1875,-1.71094 1.09312,-0.5775 2.18625,-1.155 3.3125,-1.75 1.63969,-0.87785 1.63969,-0.87785 3.3125,-1.77344 4.20644,-2.24756 8.41196,-4.48774 12.6875,-6.60156 0.81791,0.9958 0.81791,0.9958 1.65234,2.01172 4.96207,5.81029 9.37059,9.87329 16.34766,12.98828 1.155,0.59812 2.31,1.19625 3.5,1.8125 9.35319,3.28676 22.56145,2.27714 31.5,-1.8125 4.19944,-2.25385 4.19944,-2.25385 7,-6 0.50958,-4.25206 0.54825,-7.85128 -1.3125,-11.75 -8.99589,-7.53144 -22.13752,-10.00696 -33.20654,-13.22144 -17.80476,-5.19899 -37.11017,-12.88586 -46.59424,-30.05591 -5.35922,-11.92248 -7.16224,-25.70187 -3.32422,-38.34765 5.31616,-13.71794 15.39816,-23.13061 28.69141,-29.08203 20.38128,-8.57245 45.86486,-8.68285 66.74609,-1.54297 z"
     fill="#07090a"
     id="path11" />
  <path
     d="m 1316,417.65787 c 58.7183,0 58.7183,0 77,16 13.734,13.90059 18.4211,33.96847 19,53 0.052,1.23363 0.1031,2.46726 0.1563,3.73828 0.6464,22.39771 -2.2357,48.38196 -18.1954,65.42188 -21.1726,19.8652 -50.6198,16.83984 -77.9609,16.83984 0,-51.15 0,-102.3 0,-155 z"
     fill="#fefefe"
     id="path12" />
  <path
     d="m 1826,408.65787 c 15.51,0 31.02,0 47,0 0,13.2 0,26.4 0,40 12.21,0 24.42,0 37,0 0,10.89 0,21.78 0,33 -12.21,0 -24.42,0 -37,0 0.062,14.48359 0.062,14.48359 0.1602,28.9668 0.048,5.91398 0.092,11.82778 0.1108,17.74194 0.015,4.7724 0.05,9.54432 0.097,14.3165 0.015,1.81345 0.023,3.62696 0.024,5.44047 -0.3285,15.72154 -0.3285,15.72154 6.2991,29.51581 5.2835,5.15146 11.5701,6.25196 18.7502,6.19866 0.8237,-0.0182 1.6475,-0.0364 2.4963,-0.0552 3.9909,-0.0619 3.9909,-0.0619 8.0625,-0.125 0,9.24 0,18.48 0,28 -10.3365,3.87619 -19.3906,5.37746 -30.375,5.3125 -1.5077,-0.008 -1.5077,-0.008 -3.0459,-0.0171 -12.8878,-0.21012 -24.9223,-2.46315 -34.8643,-11.33444 -13.5825,-14.36961 -14.8749,-31.96117 -14.8283,-50.74024 3e-4,-1.59722 10e-5,-3.19443 -5e-4,-4.79165 -3e-4,-4.31759 0.01,-8.63514 0.013,-12.95271 0.01,-4.51901 0.01,-9.03802 0.01,-13.55703 0,-8.54915 0.011,-17.0983 0.021,-25.64744 0.011,-9.7364 0.017,-19.4728 0.022,-29.2092 0.01,-20.0209 0.029,-40.04178 0.05,-60.06267 z"
     fill="#070909"
     id="path13" />
  <path
     d="m 641,408.65787 c 15.51,0 31.02,0 47,0 0,13.53 0,27.06 0,41 12.21,0 24.42,0 37,0 0,10.56 0,21.12 0,32 -12.21,0 -24.42,0 -37,0 0.0618,14.68573 0.0618,14.68573 0.16016,29.37109 0.0482,5.99529 0.0923,11.99039 0.11084,17.98584 0.0152,4.83724 0.0498,9.67399 0.0973,14.51101 0.0148,1.83939 0.0227,3.67885 0.0236,5.5183 -0.35914,15.26606 -0.35914,15.26606 6.29909,28.53036 5.31244,5.18756 11.5144,6.3173 18.75018,6.26358 0.8238,-0.0182 1.64759,-0.0364 2.49634,-0.0552 3.99094,-0.0619 3.99094,-0.0619 8.0625,-0.125 0,9.24 0,18.48 0,28 -16.28478,6.10679 -37.6082,8.72958 -54.28125,2.32031 C 656.4532,607.536 649.22251,599.44119 644,585.65787 c -3.50458,-10.59036 -3.14124,-21.69956 -3.11353,-32.70923 2.9e-4,-1.57766 1.3e-4,-3.15532 -4.4e-4,-4.73298 -2.8e-4,-4.25968 0.006,-8.51932 0.0126,-12.77899 0.006,-4.46028 0.007,-8.92055 0.008,-13.38084 0.003,-8.43579 0.0113,-16.87156 0.0214,-25.30735 0.0112,-9.60824 0.0167,-19.21649 0.0217,-28.82474 0.0104,-19.7553 0.0288,-39.51058 0.0503,-59.26587 z"
     fill="#070909"
     id="path14" />
  <path
     d="m 2096,377.65787 c 16.17,0 32.34,0 49,0 0,77.22 0,154.44 0,234 -16.17,0 -32.34,0 -49,0 0,-77.22 0,-154.44 0,-234 z"
     fill="#080a0a"
     id="path15" />
  <path
     d="m 2067.8125,0.09146265 c 1.6209,-0.0052464 3.2417,-0.01152651 4.8625,-0.01878357 3.3823,-0.010357 6.7641,-0.0059103 10.1463,0.0087738 4.3106,0.01719356 8.6199,-0.0063381 12.9303,-0.0414896 3.3426,-0.0220738 6.6849,-0.02050881 10.0275,-0.01223468 1.5883,8.1382e-4 3.1766,-0.0059396 4.7648,-0.02077103 10.1167,-0.08002544 18.7646,0.41637056 26.5877,7.61134533 8.6209,8.8412041 8.3311,18.8003141 8.302,30.4380041 0,1.60129 0.01,3.202578 0.016,4.803863 0.01,3.347036 0.01,6.693833 0,10.040863 -0.012,4.265635 0.01,8.53044 0.038,12.795966 0.018,3.304825 0.018,6.609455 0.012,9.91432 -2e-4,1.571501 0.01,3.143017 0.018,4.714469 0.072,10.577482 -0.3946,19.854762 -7.6396,28.207082 -6.8975,6.18147 -14.3628,7.55579 -23.4062,7.7539 -12.387,-2.24583 -20.2349,-11.6611 -28.7071,-20.20312 -1.4527,-1.449363 -2.9062,-2.897985 -4.3604,-4.345901 -3.0346,-3.027281 -6.0601,-6.063346 -9.0793,-9.106003 -3.8541,-3.882579 -7.7302,-7.742273 -11.6135,-11.595629 -3.0024,-2.984241 -5.9926,-5.98038 -8.9795,-8.980155 -1.424,-1.427287 -2.8516,-2.850926 -4.2831,-4.270688 -16.1648,-16.061472 -16.1648,-16.061472 -18.0748,-26.596155 0.1981,-9.043383 1.5724,-16.508722 7.7539,-23.4062501 9.0308,-7.83232083 19.3525,-7.73633677 30.6875,-7.69140625 z"
     fill="#3f98f7"
     id="path16" />
  <path
     d="m 1009,444.65787 c 0,12.54 0,25.08 0,38 -5.61,0.66 -11.22,1.32 -17,2 -10.89028,3.33576 -19.91414,7.86316 -26.375,17.5625 -6.90659,13.2858 -7.22795,26.75011 -7.23438,41.37109 -0.015,1.97398 -0.0317,3.94795 -0.0501,5.92189 -0.0433,5.14384 -0.0636,10.28752 -0.0787,15.43151 -0.0232,6.19952 -0.0756,12.39886 -0.12294,18.59824 -0.0684,9.37164 -0.10018,18.74275 -0.13883,28.11477 -15.51,0 -31.02,0 -47,0 0,-53.46 0,-106.92 0,-162 13.86,0 27.72,0 42,0 0.495,11.385 0.495,11.385 1,23 1.45406,-2.475 1.45406,-2.475 2.9375,-5 7.41664,-11.55512 17.75572,-18.08381 30.875,-21.875 6.1875,-1.125 6.1875,-1.125 21.18745,-1.125 z"
     fill="#060808"
     id="path17" />
  <path
     d="m 1748,448.65787 c 16.17,0 32.34,0 49,0 0,53.79 0,107.58 0,163 -16.17,0 -32.34,0 -49,0 0,-53.79 0,-107.58 0,-163 z"
     fill="#090b0b"
     id="path18" />
  <path
     d="m 1488,449.65787 c 15.84,0 31.68,0 48,0 0,53.46 0,106.92 0,162 -15.84,0 -31.68,0 -48,0 0,-53.46 0,-106.92 0,-162 z"
     fill="#060808"
     id="path19" />
  <path
     d="m 1657.8672,486.05631 c 8.5914,7.55898 11.5187,19.63677 12.3699,30.67602 0.677,16.39585 1.0995,34.63205 -10.2371,47.92554 -4.9775,5.11277 -10.47,8.33988 -17.7092,8.46875 -0.6735,-0.0103 -1.3469,-0.0206 -2.0408,-0.0312 -0.7037,-0.009 -1.4075,-0.0181 -2.1326,-0.0273 -8.0854,-0.26701 -14.3102,-2.10449 -19.9924,-8.09766 -11.544,-14.66774 -11.3279,-35.63723 -9.5625,-53.3125 1.2187,-9.96193 5.044,-19.34383 12.5625,-26.25 2.8149,-2.15449 5.4132,-3.83899 8.875,-4.75 0.8456,-0.22687 1.6913,-0.45375 2.5625,-0.6875 9.5911,-0.87192 17.5624,0.28734 25.3047,6.08594 z"
     fill="#fefefe"
     id="path20" />
  <path
     d="m 1784.5,376.22037 c 7.6037,4.74407 12.2903,10.7033 14.5,19.4375 1.22,8.20022 -0.8852,14.45691 -5.5078,21.19922 -4.0129,5.04883 -8.1577,8.3103 -14.4922,9.80078 -9.4517,1.04056 -16.4376,0.42695 -23.8945,-5.50781 -6.2436,-5.65204 -9.2365,-11.89563 -9.7305,-20.30469 0.2954,-7.70893 3.156,-14.69816 8.6289,-20.20313 8.3578,-6.53401 20.5212,-8.98801 30.4961,-4.42187 z"
     fill="#080a0a"
     id="path21" />
  <path
     d="m 1521.9883,375.53678 c 7.0224,3.2288 12.7564,8.54534 15.5391,15.91015 1.6249,7.60107 1.7383,15.85199 -2.4024,22.60938 -0.3712,0.52852 -0.7425,1.05703 -1.125,1.60156 -0.5775,0.88688 -1.155,1.77375 -1.75,2.6875 -5.673,5.83064 -11.7243,8.45666 -19.8125,8.6875 -7.8094,-0.0725 -13.4193,-1.78342 -19.2773,-7.01953 -6.7187,-7.27723 -7.7917,-13.93678 -7.5703,-23.6875 0.8593,-7.68497 4.6253,-12.5634 10.4687,-17.3789 7.9789,-5.29786 16.6977,-6.12545 25.9297,-3.41016 z"
     fill="#080a0a"
     id="path22" />
  <path
     d="m 2005.9375,537.59537 c 1.1608,0.005 2.3216,0.009 3.5176,0.0137 2.8483,0.0117 5.6966,0.0281 8.5449,0.0488 0.3141,13.16465 0.2711,26.58581 -8.7891,37.07031 -5.7095,5.43659 -11.8511,7.96296 -19.7109,8.30469 -6.3068,-0.25315 -11.4825,-2.1188 -16.8125,-5.4375 -4.2488,-4.64409 -6.5372,-9.47175 -6.8125,-15.82031 0.4645,-7.10367 1.9967,-12.31896 7.25,-17.30469 9.3166,-7.50835 21.4831,-6.95873 32.8125,-6.875 z"
     fill="#fefefe"
     id="path23" />
  <path
     d="m 409,481.65787 c 11.84595,8.3208 14.46181,17.03992 17,31 -22.44,0 -44.88,0 -68,0 1.46448,-11.71584 4.91852,-21.10597 14,-29 9.90489,-6.47143 26.56269,-8.11775 37,-2 z"
     fill="#f9fafa"
     id="path24" />
  <path
     d="m 829.17187,484.06021 c 9.49427,7.29917 11.76098,17.22838 13.82813,28.59765 -22.44001,0 -44.88,0 -68,0 1.21113,-10.90019 4.286,-19.99585 12.375,-27.68749 11.94566,-9.34444 29.27785,-8.99348 41.79687,-0.91016 z"
     fill="#fafafa"
     id="path25" />
  <path
     d="m 2199.1875,577.34537 c 5.6505,3.15765 9.6075,7.16166 11.8125,13.3125 0.7726,6.29681 0.3648,12.49827 -3,18 -3.9772,4.41906 -8.249,7.58322 -14.25,8.25 -6.1274,0.2989 -10.7574,-0.5966 -15.75,-4.25 -5.1666,-4.74181 -7.4976,-9.26793 -8.4375,-16.25 0.7229,-6.1962 2.8854,-11.53313 7.668,-15.6875 7.008,-4.75584 13.9205,-7.14971 21.957,-3.375 z"
     fill="#f5f5f5"
     id="path26" />
  <path
     d="m 2199.1875,577.34537 c 5.6505,3.15765 9.6075,7.16166 11.8125,13.3125 0.7726,6.29681 0.3648,12.49827 -3,18 -3.9772,4.41906 -8.249,7.58322 -14.25,8.25 -6.1274,0.2989 -10.7574,-0.5966 -15.75,-4.25 -5.1666,-4.74181 -7.4976,-9.26793 -8.4375,-16.25 0.7229,-6.1962 2.8854,-11.53313 7.668,-15.6875 7.008,-4.75584 13.9205,-7.14971 21.957,-3.375 z m -19.7812,6.77734 c -4.253,5.05653 -4.755,8.32738 -4.6875,14.77344 0.522,5.12627 3.1568,7.74705 6.8437,11.07422 4.151,2.87374 7.48,3.018 12.4375,2.6875 5.8663,-1.82057 8.5496,-4.12886 12,-9 1.6662,-4.99858 1.6282,-9.31371 -0.1875,-14.1875 -3.4248,-5.31442 -6.5745,-8.35255 -12.8125,-9.8125 -5.1126,0 -9.7209,0.90519 -13.5937,4.46484 z"
     fill="#171a1a"
     id="path27" />
  <path
     d="m 2183,583.65787 c 11.5556,0 11.5556,0 15,2 1.3855,2.771 1.1877,4.93347 1,8 -0.99,1.485 -0.99,1.485 -2,3 0.99,1.485 0.99,1.485 2,3 0.2576,2.69452 0.089,5.28548 0,8 -1.32,0 -2.64,0 -4,0 -0.66,-2.97 -1.32,-5.94 -2,-9 -1.98,0 -3.96,0 -6,0 0,2.97 0,5.94 0,9 -1.32,0 -2.64,0 -4,0 0,-7.92 0,-15.84 0,-24 z"
     fill="#0f1111"
     id="path28" />
  <path
     d="m 2193,239.65787 c 2.475,0.495 2.475,0.495 5,1 1.3833,2.37347 2.3601,4.40198 3.3125,6.9375 0.2636,0.64646 0.5272,1.29293 0.7988,1.95898 1.8887,4.72414 1.8887,4.72414 1.8887,7.10352 0.66,0 1.32,0 2,0 0.1702,-0.55688 0.3403,-1.11375 0.5156,-1.6875 1.7176,-5.40841 3.8378,-10.29313 6.4844,-15.3125 1.32,0 2.64,0 4,0 0,7.92 0,15.84 0,24 -0.99,0 -1.98,0 -3,0 -0.33,-4.95 -0.66,-9.9 -1,-15 -2.31,4.95 -4.62,9.9 -7,15 -3,-1 -3,-1 -4.6055,-4.16016 -0.5404,-1.29538 -1.0651,-2.59739 -1.582,-3.90234 -0.9281,-2.28938 -1.8562,-4.57875 -2.8125,-6.9375 -0.33,4.95 -0.66,9.9 -1,15 -0.99,0 -1.98,0 -3,0 0,-7.92 0,-15.84 0,-24 z"
     fill="#1329ee"
     id="path29" />
  <path
     d="m 2170,239.65787 c 6.27,0 12.54,0 19,0 0,0.99 0,1.98 0,3 -2.31,0 -4.62,0 -7,0 0,6.93 0,13.86 0,21 -1.32,0 -2.64,0 -4,0 0,-6.93 0,-13.86 0,-21 -2.64,0 -5.28,0 -8,0 0,-0.99 0,-1.98 0,-3 z"
     fill="#2e41f0"
     id="path30" />
  <path
     d="m 2213,239.65787 c 1.32,0 2.64,0 4,0 0,7.92 0,15.84 0,24 -0.66,0 -1.32,0 -2,0 -0.33,-5.94 -0.66,-11.88 -1,-18 -0.99,0 -1.98,0 -3,0 0.875,-4.875 0.875,-4.875 2,-6 z"
     fill="#0920ed"
     id="path31" />
  <path
     d="m 2187,587.65787 c 2.31,0.33 4.62,0.66 7,1 0.33,1.32 0.66,2.64 1,4 -3.2279,2.15194 -4.284,2.20086 -8,2 0,-2.31 0,-4.62 0,-7 z"
     fill="#e5e6e6"
     id="path32" />
  <path
     d="m 2215,244.65787 c 0,6.27 0,12.54 0,19 -0.33,0 -0.66,0 -1,0 -0.33,-4.95 -0.66,-9.9 -1,-15 -0.66,1.65 -1.32,3.3 -2,5 -0.99,-0.33 -1.98,-0.66 -3,-1 0.3705,-2.74149 0.6859,-4.58593 2.375,-6.8125 1.625,-1.1875 1.625,-1.1875 4.625,-1.1875 z"
     fill="#2d40f0"
     id="path33" />
</svg>
