<?xml version="1.0" encoding="UTF-8" standalone="no"?>
<svg
   width="1732"
   height="366"
   viewBox="0 0 1732 366"
   fill="none"
   version="1.1"
   id="svg16"
   sodipodi:docname="yes-security.svg"
   inkscape:version="1.4.3 (0d15f75, 2025-12-25)"
   xmlns:inkscape="http://www.inkscape.org/namespaces/inkscape"
   xmlns:sodipodi="http://sodipodi.sourceforge.net/DTD/sodipodi-0.dtd"
   xmlns="http://www.w3.org/2000/svg"
   xmlns:svg="http://www.w3.org/2000/svg">
  <sodipodi:namedview
     id="namedview16"
     pagecolor="#ffffff"
     bordercolor="#000000"
     borderopacity="0.25"
     inkscape:showpageshadow="2"
     inkscape:pageopacity="0.0"
     inkscape:pagecheckerboard="0"
     inkscape:deskcolor="#d1d1d1"
     inkscape:zoom="0.13114754"
     inkscape:cx="865.4375"
     inkscape:cy="179.1875"
     inkscape:current-layer="g15" />
  <g
     clip-path="url(#clip0_2474_2722)"
     id="g15">
    <g
       clip-path="url(#clip1_2474_2722)"
       id="g3">
      <path
         d="M311 279L55 311V254L311 223V279Z"
         fill="#4F46E5"
         id="path1" />
      <path
         d="M311 195L55 227V170L311 139V195Z"
         fill="#6366F1"
         id="path2" />
      <path
         d="M311 111L55 143V86L311 55V111Z"
         fill="#818CF8"
         id="path3" />
    </g>
    <path
       d="M444.16 259.54V111.62H473.615V259.54H444.16ZM396 134.41V108.395H521.775V134.41H396Z"
       fill="#F8FAFC"
       id="path4"
       style="fill:#000000" />
    <path
       d="M517.539 259.54V155.695H545.704V259.54H517.539ZM545.704 202.135L534.739 194.825C536.029 182.068 539.756 172.035 545.919 164.725C552.082 157.271 560.969 153.545 572.579 153.545C577.596 153.545 582.111 154.405 586.124 156.125C590.137 157.701 593.792 160.353 597.089 164.08L579.459 184.29C577.882 182.57 575.947 181.28 573.654 180.42C571.504 179.56 568.995 179.13 566.129 179.13C560.109 179.13 555.164 181.065 551.294 184.935C547.567 188.661 545.704 194.395 545.704 202.135Z"
       fill="#F8FAFC"
       id="path5"
       style="fill:#000000" />
    <path
       d="M651.272 261.69C642.099 261.69 633.929 259.755 626.762 255.885C619.739 252.015 614.221 246.64 610.207 239.76C606.194 232.88 604.187 224.925 604.187 215.895V155.695H632.567V215.25C632.567 219.55 633.284 223.276 634.717 226.43C636.151 229.44 638.301 231.733 641.167 233.31C644.034 234.886 647.402 235.675 651.272 235.675C657.149 235.675 661.736 233.883 665.032 230.3C668.329 226.716 669.977 221.7 669.977 215.25V155.695H698.142V215.895C698.142 225.068 696.136 233.095 692.122 239.975C688.252 246.855 682.734 252.23 675.567 256.1C668.544 259.826 660.446 261.69 651.272 261.69Z"
       fill="#F8FAFC"
       id="path6"
       style="fill:#000000" />
    <path
       d="M756.261 261.905C750.384 261.905 744.579 261.116 738.846 259.54C733.256 257.963 728.096 255.813 723.366 253.09C718.636 250.223 714.551 246.783 711.111 242.77L727.881 225.785C731.464 229.798 735.621 232.808 740.351 234.815C745.081 236.821 750.313 237.825 756.046 237.825C760.633 237.825 764.073 237.18 766.366 235.89C768.803 234.6 770.021 232.665 770.021 230.085C770.021 227.218 768.731 224.996 766.151 223.42C763.714 221.843 760.489 220.553 756.476 219.55C752.463 218.403 748.234 217.185 743.791 215.895C739.491 214.461 735.334 212.67 731.321 210.52C727.308 208.226 724.011 205.145 721.431 201.275C718.994 197.261 717.776 192.101 717.776 185.795C717.776 179.201 719.353 173.468 722.506 168.595C725.803 163.721 730.461 159.923 736.481 157.2C742.501 154.476 749.596 153.115 757.766 153.115C766.366 153.115 774.106 154.62 780.986 157.63C788.009 160.64 793.814 165.155 798.401 171.175L781.416 188.16C778.263 184.29 774.679 181.495 770.666 179.775C766.796 178.055 762.568 177.195 757.981 177.195C753.824 177.195 750.599 177.84 748.306 179.13C746.156 180.42 745.081 182.211 745.081 184.505C745.081 187.085 746.299 189.091 748.736 190.525C751.316 191.958 754.613 193.248 758.626 194.395C762.639 195.398 766.796 196.616 771.096 198.05C775.539 199.34 779.696 201.203 783.566 203.64C787.579 206.076 790.804 209.301 793.241 213.315C795.821 217.328 797.111 222.488 797.111 228.795C797.111 238.971 793.456 247.07 786.146 253.09C778.836 258.966 768.874 261.905 756.261 261.905Z"
       fill="#F8FAFC"
       id="path7"
       style="fill:#000000" />
    <path
       d="M831.368 259.54V112.48H859.533V259.54H831.368ZM807.073 180.42V155.695H883.828V180.42H807.073Z"
       fill="#F8FAFC"
       id="path8"
       style="fill:#000000" />
    <path
       d="M946.813 261.69C935.92 261.69 926.245 259.396 917.788 254.81C909.332 250.08 902.595 243.63 897.578 235.46C892.705 227.29 890.268 217.973 890.268 207.51C890.268 197.19 892.633 188.016 897.363 179.99C902.237 171.82 908.83 165.37 917.143 160.64C925.457 155.766 934.702 153.33 944.878 153.33C954.912 153.33 963.727 155.623 971.323 160.21C979.063 164.653 985.083 170.816 989.383 178.7C993.827 186.44 996.048 195.255 996.048 205.145C996.048 207.008 995.905 208.943 995.618 210.95C995.475 212.813 995.117 214.963 994.543 217.4L907.253 217.615V196.545L981.428 196.33L970.033 205.145C969.747 198.981 968.6 193.821 966.593 189.665C964.73 185.508 961.935 182.355 958.208 180.205C954.625 177.911 950.182 176.765 944.878 176.765C939.288 176.765 934.415 178.055 930.258 180.635C926.102 183.071 922.877 186.583 920.583 191.17C918.433 195.613 917.358 200.916 917.358 207.08C917.358 213.386 918.505 218.905 920.798 223.635C923.235 228.221 926.675 231.805 931.118 234.385C935.562 236.821 940.722 238.04 946.598 238.04C951.902 238.04 956.703 237.18 961.003 235.46C965.303 233.596 969.03 230.873 972.183 227.29L988.738 243.845C983.722 249.721 977.558 254.165 970.248 257.175C963.082 260.185 955.27 261.69 946.813 261.69Z"
       fill="#F8FAFC"
       id="path9"
       style="fill:#000000" />
    <path
       d="M1057.33 261.69C1047.72 261.69 1039.12 259.325 1031.53 254.595C1023.93 249.865 1017.91 243.415 1013.47 235.245C1009.17 227.075 1007.02 217.901 1007.02 207.725C1007.02 197.405 1009.17 188.16 1013.47 179.99C1017.91 171.82 1023.86 165.37 1031.31 160.64C1038.91 155.91 1047.58 153.545 1057.33 153.545C1064.78 153.545 1071.44 155.05 1077.32 158.06C1083.34 161.07 1088.14 165.298 1091.73 170.745C1095.45 176.048 1097.46 182.068 1097.75 188.805V225.785C1097.46 232.521 1095.52 238.613 1091.94 244.06C1088.36 249.506 1083.56 253.806 1077.54 256.96C1071.52 260.113 1064.78 261.69 1057.33 261.69ZM1062.06 235.675C1067.36 235.675 1071.95 234.528 1075.82 232.235C1079.83 229.798 1082.91 226.501 1085.06 222.345C1087.35 218.045 1088.5 213.1 1088.5 207.51C1088.5 202.063 1087.35 197.261 1085.06 193.105C1082.91 188.805 1079.83 185.508 1075.82 183.215C1071.95 180.778 1067.43 179.56 1062.27 179.56C1056.97 179.56 1052.31 180.778 1048.3 183.215C1044.43 185.651 1041.34 188.948 1039.05 193.105C1036.9 197.261 1035.83 202.063 1035.83 207.51C1035.83 213.1 1036.9 218.045 1039.05 222.345C1041.34 226.501 1044.5 229.798 1048.51 232.235C1052.52 234.528 1057.04 235.675 1062.06 235.675ZM1114.95 259.54H1087V231.59L1091.51 206.22L1086.78 181.28V104.095H1114.95V259.54Z"
       fill="#F8FAFC"
       id="path10"
       style="fill:#000000" />
    <path
       d="M1186.73 261.69C1174.55 261.69 1164.09 259.611 1155.34 255.455C1146.74 251.298 1138.93 245.063 1131.91 236.75L1151.26 217.4C1155.7 223.276 1160.86 227.863 1166.74 231.16C1172.61 234.313 1179.78 235.89 1188.24 235.89C1195.83 235.89 1201.85 234.385 1206.3 231.375C1210.88 228.365 1213.18 224.208 1213.18 218.905C1213.18 214.318 1211.89 210.591 1209.31 207.725C1206.73 204.858 1203.29 202.421 1198.99 200.415C1194.83 198.408 1190.17 196.616 1185.01 195.04C1180 193.32 1174.91 191.385 1169.75 189.235C1164.73 187.085 1160.07 184.433 1155.77 181.28C1151.62 177.983 1148.25 173.826 1145.67 168.81C1143.09 163.65 1141.8 157.2 1141.8 149.46C1141.8 140.286 1144.02 132.475 1148.46 126.025C1152.91 119.575 1159 114.63 1166.74 111.19C1174.48 107.75 1183.22 106.03 1192.97 106.03C1203.29 106.03 1212.6 107.965 1220.92 111.835C1229.23 115.705 1236.04 120.721 1241.34 126.885L1221.99 146.235C1217.55 141.361 1212.96 137.778 1208.23 135.485C1203.65 133.191 1198.41 132.045 1192.54 132.045C1185.8 132.045 1180.5 133.335 1176.63 135.915C1172.76 138.495 1170.82 142.221 1170.82 147.095C1170.82 151.251 1172.11 154.62 1174.69 157.2C1177.27 159.78 1180.64 162.001 1184.8 163.865C1189.1 165.728 1193.76 167.52 1198.77 169.24C1203.93 170.96 1209.02 172.895 1214.04 175.045C1219.2 177.195 1223.86 179.99 1228.01 183.43C1232.31 186.87 1235.75 191.313 1238.33 196.76C1240.91 202.063 1242.2 208.656 1242.2 216.54C1242.2 230.586 1237.26 241.623 1227.37 249.65C1217.48 257.676 1203.93 261.69 1186.73 261.69Z"
       fill="#F8FAFC"
       id="path11"
       style="fill:#000000" />
    <path
       d="M1277.54 259.54V112.48H1305.7V259.54H1277.54ZM1253.24 180.42V155.695H1330V180.42H1253.24Z"
       fill="#F8FAFC"
       id="path12"
       style="fill:#000000" />
    <path
       d="M1386.75 261.69C1377.29 261.69 1368.76 259.325 1361.16 254.595C1353.56 249.865 1347.62 243.415 1343.32 235.245C1339.02 227.075 1336.87 217.901 1336.87 207.725C1336.87 197.405 1339.02 188.16 1343.32 179.99C1347.62 171.82 1353.56 165.37 1361.16 160.64C1368.76 155.91 1377.29 153.545 1386.75 153.545C1394.2 153.545 1400.86 155.05 1406.74 158.06C1412.62 161.07 1417.28 165.298 1420.72 170.745C1424.3 176.048 1426.23 182.068 1426.52 188.805V226.215C1426.23 233.095 1424.3 239.186 1420.72 244.49C1417.28 249.793 1412.62 254.021 1406.74 257.175C1400.86 260.185 1394.2 261.69 1386.75 261.69ZM1391.91 235.675C1399.79 235.675 1406.17 233.095 1411.04 227.935C1415.91 222.631 1418.35 215.823 1418.35 207.51C1418.35 202.063 1417.2 197.261 1414.91 193.105C1412.76 188.805 1409.68 185.508 1405.67 183.215C1401.8 180.778 1397.21 179.56 1391.91 179.56C1386.75 179.56 1382.16 180.778 1378.15 183.215C1374.28 185.508 1371.19 188.805 1368.9 193.105C1366.75 197.261 1365.68 202.063 1365.68 207.51C1365.68 213.1 1366.75 218.045 1368.9 222.345C1371.19 226.501 1374.28 229.798 1378.15 232.235C1382.16 234.528 1386.75 235.675 1391.91 235.675ZM1416.85 259.54V231.59L1421.36 206.22L1416.85 181.28V155.695H1444.8V259.54H1416.85Z"
       fill="#F8FAFC"
       id="path13"
       style="fill:#000000" />
    <path
       d="M1518.73 261.69C1508.12 261.69 1498.59 259.325 1490.14 254.595C1481.68 249.865 1475.02 243.415 1470.14 235.245C1465.27 227.075 1462.83 217.901 1462.83 207.725C1462.83 197.405 1465.27 188.16 1470.14 179.99C1475.02 171.82 1481.68 165.37 1490.14 160.64C1498.74 155.766 1508.27 153.33 1518.73 153.33C1526.9 153.33 1534.43 154.835 1541.31 157.845C1548.19 160.855 1554.14 165.155 1559.15 170.745L1541.09 189.02C1538.37 186.01 1535.07 183.716 1531.2 182.14C1527.47 180.563 1523.32 179.775 1518.73 179.775C1513.57 179.775 1508.91 180.993 1504.76 183.43C1500.74 185.723 1497.52 188.948 1495.08 193.105C1492.79 197.118 1491.64 201.92 1491.64 207.51C1491.64 212.956 1492.79 217.83 1495.08 222.13C1497.52 226.286 1500.74 229.583 1504.76 232.02C1508.91 234.313 1513.57 235.46 1518.73 235.46C1523.46 235.46 1527.69 234.671 1531.42 233.095C1535.29 231.375 1538.58 228.938 1541.31 225.785L1559.58 244.06C1554.28 249.793 1548.19 254.165 1541.31 257.175C1534.43 260.185 1526.9 261.69 1518.73 261.69Z"
       fill="#F8FAFC"
       id="path14"
       style="fill:#000000" />
    <path
       d="M1641.75 259.54L1601.55 206.005L1641.54 155.695H1674L1627.13 212.455L1628.21 198.695L1676.15 259.54H1641.75ZM1575.53 259.54V104.095H1603.7V259.54H1575.53Z"
       fill="#F8FAFC"
       id="path15"
       style="fill:#000000" />
  </g>
  <defs
     id="defs16">
    <clipPath
       id="clip0_2474_2722">
      <rect
         width="1731.15"
         height="366"
         fill="white"
         id="rect15" />
    </clipPath>
    <clipPath
       id="clip1_2474_2722">
      <rect
         width="256"
         height="256"
         fill="white"
         transform="translate(55 55)"
         id="rect16" />
    </clipPath>
  </defs>
</svg>
