<?xml version="1.0" encoding="UTF-8" standalone="no"?>
<!-- Created with Inkscape (http://www.inkscape.org/) -->

<svg
   version="1.1"
   id="svg1"
   width="291.02643"
   height="57.635536"
   viewBox="0 0 291.02643 57.635536"
   sodipodi:docname="yoma"
   inkscape:version="1.4.3 (0d15f75, 2025-12-25)"
   xmlns:inkscape="http://www.inkscape.org/namespaces/inkscape"
   xmlns:sodipodi="http://sodipodi.sourceforge.net/DTD/sodipodi-0.dtd"
   xmlns="http://www.w3.org/2000/svg"
   xmlns:svg="http://www.w3.org/2000/svg">
  <defs
     id="defs1" />
  <sodipodi:namedview
     id="namedview1"
     pagecolor="#ffffff"
     bordercolor="#000000"
     borderopacity="0.25"
     inkscape:showpageshadow="2"
     inkscape:pageopacity="0.0"
     inkscape:pagecheckerboard="0"
     inkscape:deskcolor="#d1d1d1"
     inkscape:zoom="1.08"
     inkscape:cx="145.83333"
     inkscape:cy="27.314815"
     inkscape:current-layer="g1" />
  <g
     inkscape:groupmode="layer"
     inkscape:label="Image"
     id="g1"
     transform="translate(-4.0507531,-3.3146366)">
    <g
       id="g2">
      <path
         style="fill:#a5a1a2"
         d="m 269.5,59.826459 c -0.55,-0.590447 -5.275,-4.280447 -10.5,-8.2 L 249.5,44.5 l -0.28859,-8.135113 -0.28858,-8.135113 4.28858,-3.158195 4.28859,-3.158195 0.29306,7.598807 0.29307,7.598807 6.45693,4.682768 L 271,46.476534 v 7.261733 c 0,3.993953 -0.1125,7.239233 -0.25,7.211733 -0.1375,-0.0275 -0.7,-0.533093 -1.25,-1.123541 z M 273,53.973515 V 47.04717 l 6.45892,-4.773585 6.45891,-4.773585 0.0411,-7.75 c 0.0226,-4.2625 0.31382,-7.75 0.64718,-7.75 0.33335,0 2.35835,1.387813 4.5,3.084029 L 295,28.168059 v 8.197957 8.197958 l -11,8.167943 -11,8.167943 z M 265.77651,40.677522 260.05301,36.5 260.02651,24.342561 260,12.185123 l 6.19569,-4.4352434 6.1957,-4.435243 5.8043,4.4142119 L 284,12.14306 V 24.358075 36.57309 l -5.03305,3.757524 c -2.76818,2.066638 -5.58068,3.930078 -6.25,4.140977 -0.66932,0.210899 -3.79252,-1.496432 -6.94044,-3.794069 z M 13,42.25 C 13,41.5625 13.666427,41 14.480948,41 16.341562,41 17.411834,36.925259 16.701291,32.5467 15.984092,28.127121 8.4955404,16.362849 5.9808561,15.705245 2.7010584,14.847558 3.7424448,13.219309 8.0345858,12.494157 12.986703,11.657502 13.984878,12.404211 18.409293,20.255213 l 3.367609,5.97573 4.155659,-7.115472 c 3.779845,-6.471988 5.682091,-8.167486 7.322729,-6.526847 0.323743,0.323742 -1.626257,3.98148 -4.333333,8.128305 C 24.329868,27.751303 24,28.68364 24,34.628305 24,39.625367 24.323611,41 25.5,41 c 0.825,0 1.5,0.5625 1.5,1.25 0,0.880952 -2.066667,1.25 -7,1.25 -4.933333,0 -7,-0.369048 -7,-1.25 z m 23.762571,0.184612 c -1.505586,-0.816923 -3.418086,-2.801559 -4.25,-4.410303 C 26.75323,26.886971 37.617483,15.470721 49.321752,20.361077 53.381884,22.057508 56,26.549822 56,31.819998 c 0,3.512094 -3.667831,9.199406 -7.030015,10.900691 -3.300275,1.669959 -8.841782,1.540095 -12.207414,-0.286077 z m 9.626718,-2.966758 c 2.235418,-2.235418 3.040047,-8.091491 1.71805,-12.503925 -1.939135,-6.472255 -7.28302,-6.447299 -9.227589,0.04309 C 36.981464,33.342936 39.5097,41 43.5,41 c 0.746429,0 2.046609,-0.689466 2.889289,-1.532146 z M 135.25,43.303809 C 130.10303,42.903494 128.52329,41.780643 131.5,40.638374 132.70825,40.174723 133,37.911082 133,29 133,20.088918 132.70825,17.825277 131.5,17.361626 127.73868,15.918273 130.76281,15 139.27749,15 150.3504,15 153,16.25505 153,21.5 c 0,2.305528 -0.66961,3.855606 -2.09766,4.855848 l -2.09765,1.469256 2.14552,1.14825 c 2.85976,1.530497 4.25025,5.369185 3.06967,8.474347 -1.85819,4.887408 -7.71812,6.715679 -18.76988,5.856108 z m 11.56823,-7.119133 C 147.19957,32.211894 145.6114,30 142.37756,30 140.18719,30 140,30.398647 140,35.063358 v 5.063359 l 3.25,-0.313359 c 2.87261,-0.276971 3.28695,-0.69833 3.56823,-3.628682 z M 144.8,25.8 c 1.73846,-1.738458 1.48701,-6.475888 -0.38179,-7.193011 C 140.7869,17.213522 140,17.906877 140,22.5 c 0,3.666667 0.33333,4.5 1.8,4.5 0.99,0 2.34,-0.54 3,-1.2 z m 52.19267,10.767251 c -3.57097,-4.088013 -6.83017,-7.463013 -7.24267,-7.5 -0.4125,-0.03699 -0.75,2.421872 -0.75,5.464134 0,3.994296 0.41683,5.691336 1.5,6.106989 2.96659,1.138388 1.4127,2.361626 -3,2.361626 -4.4127,0 -5.96659,-1.223238 -3,-2.361626 C 185.67173,40.188737 186,38.18886 186,31.5 186,24.81114 185.67173,22.811263 184.5,22.361626 181.74739,21.305353 182.95592,20 186.68644,20 c 3.26563,0 4.40171,0.770519 9.95245,6.75 l 6.266,6.75 0.0476,-5.75 C 202.98938,23.284421 202.66493,22 201.5,22 c -0.825,0 -1.5,-0.45 -1.5,-1 0,-0.55 2.25,-1 5,-1 4.83512,0 6.58223,1.178865 3.5,2.361626 -1.20194,0.461229 -1.5,2.668249 -1.5,11.106989 0,13.227591 -0.91263,13.510174 -10.00733,3.098636 z m 29.5334,2.094496 -5.04807,-5.338253 0.36603,3.838253 C 222.04535,39.272786 222.6128,41 223.10504,41 223.59727,41 224,41.45 224,42 c 0,0.555556 -2.66667,1 -6,1 -5.68594,0 -7.7844,-1.101284 -4.5,-2.361626 1.17173,-0.449637 1.5,-2.449514 1.5,-9.138374 0,-6.68886 -0.32827,-8.688737 -1.5,-9.138374 -3.42614,-1.314734 -1.07163,-2.359608 5.25,-2.329823 5.82785,0.02746 6.51092,0.213288 5,1.360243 -1.15084,0.873613 -1.73996,2.660202 -1.72069,5.218197 l 0.0293,3.889757 3.01671,-3.317293 c 2.06536,-2.271142 2.82327,-3.926797 2.4033,-5.25 C 226.92743,20.195997 227.37911,20 231.93261,20 234.71968,20 237,20.45 237,21 c 0,0.55 -0.4487,1 -0.99712,1 -0.54841,0 -2.79437,1.623711 -4.99102,3.608246 l -3.99389,3.608246 1.88813,2.641754 c 1.03847,1.452965 3.53408,4.332335 5.5458,6.3986 C 238.4264,42.339113 238.36167,44 234.22805,44 c -1.91003,0 -4.06888,-1.496303 -7.70198,-5.338253 z M 56,42.360243 c 0,-0.351867 0.674782,-1.139367 1.499516,-1.75 0.931081,-0.689374 1.882598,-4.142873 2.510078,-9.110243 0.857045,-6.784698 0.781162,-8.16866 -0.499516,-9.110243 -2.629135,-1.932998 -1.662149,-2.503068 3.718232,-2.192017 l 5.228309,0.30226 2.625008,6.839708 2.625007,6.839708 2.523323,-6.839708 L 78.75328,20.5 83.87664,20.19774 c 5.280859,-0.311551 6.232905,0.266013 3.613282,2.192017 -1.280678,0.941583 -1.356561,2.325545 -0.499516,9.110243 0.62748,4.96737 1.578997,8.420869 2.510078,9.110243 C 92.116089,42.546838 91.167864,43 84.5,43 80.833333,43 78,42.564103 78,42 c 0,-0.55 0.675,-1 1.5,-1 1.60304,0 1.876189,-4.665821 0.614697,-10.5 -0.60176,-2.783036 -0.853666,-2.439508 -3.483139,4.75 -3.759195,10.27839 -5.377322,10.335285 -9.25522,0.325423 -2.025885,-5.229337 -3.077311,-6.929452 -3.556053,-5.75 C 62.752446,32.456203 62.889851,41 64,41 c 0.55,0 1,0.45 1,1 0,0.55 -2.025,1 -4.5,1 C 58.025,43 56,42.712109 56,42.360243 Z m 37,-0.0315 c 0,-0.369193 0.637098,-1.381693 1.415772,-2.25 C 95.194447,39.210433 97.57033,34.225 99.695512,29 c 3.597498,-8.844858 4.058698,-9.5 6.687708,-9.5 2.6579,0 3.04066,0.579382 6.5171,9.864858 2.03134,5.425671 4.45977,10.425281 5.39651,11.110242 C 121.13664,42.551615 120.28479,43 113.5,43 c -6.10959,0 -8.37367,-1.067029 -5.00608,-2.359295 1.22003,-0.468167 1.28227,-1.037809 0.33949,-3.106988 C 107.9353,35.562591 106.94169,35 104.35854,35 c -2.77259,0 -3.43213,0.44504 -3.99743,2.697353 -0.427378,1.702816 -0.25005,2.839668 0.48095,3.083333 C 103.59572,41.698572 101.6359,43 97.5,43 95.025,43 93,42.697933 93,42.328741 Z M 105.85016,29 c -0.5752,-1.65 -1.18277,-3 -1.35016,-3 -0.16739,0 -0.77496,1.35 -1.35016,3 -0.97245,2.789586 -0.87775,3 1.35016,3 2.22791,0 2.32261,-0.210414 1.35016,-3 z M 154,42.360243 c 0,-0.351867 0.64821,-1.139367 1.44046,-1.75 C 156.23272,39.999609 158.65877,35 160.83169,29.5 c 3.69755,-9.359072 4.13099,-10 6.76263,-10 2.64254,0 3.03993,0.60218 6.5992,10 2.08303,5.5 4.46664,10.499609 5.2969,11.110243 C 182.12095,42.544903 181.17059,43 174.5,43 c -3.66667,0 -6.5,-0.435897 -6.5,-1 0,-0.55 0.675,-1 1.5,-1 1.75544,0 1.91127,-1.363019 0.46482,-4.065741 C 169.25701,35.611719 167.86815,35 165.57322,35 c -2.82003,0 -3.46569,0.435446 -4.04029,2.724839 -0.41297,1.64539 -0.25784,2.866857 0.39159,3.083333 C 164.60632,41.702107 162.57849,43 158.5,43 156.025,43 154,42.712109 154,42.360243 Z M 168,31.5651 c 0,-0.239196 -0.49956,-1.701696 -1.11013,-3.25 -1.0315,-2.615682 -1.16819,-2.673423 -1.92972,-0.8151 -1.34925,3.292541 -1.07023,4.5 1.03985,4.5 1.1,0 2,-0.195705 2,-0.4349 z"
         id="path8" />
      <path
         style="fill:#b27e85"
         d="M 259.75,51.920914 249,43.914845 l 0.0153,-7.207422 c 0.0172,-8.084759 0.0431,-8.144263 5.23469,-12.014003 l 3.75,-2.795203 0.0411,7.800892 0.0411,7.800891 6.45891,4.773585 L 271,47.04717 v 6.476415 c 0,3.562028 -0.1125,6.459986 -0.25,6.439906 -0.1375,-0.02008 -5.0875,-3.639239 -11,-8.042577 z M 273,53.614949 V 47.15953 l 6.46223,-4.744898 6.46222,-4.744897 0.28778,-7.877837 0.28777,-7.877836 4.28859,3.157856 4.28858,3.157856 -0.28858,8.135113 L 294.5,44.5 l -9,6.808337 C 272.18767,61.378872 273,61.228974 273,53.614949 Z M 266.09884,40.414865 260,35.977062 260.02915,24.238531 260.0583,12.5 l 6.01749,-4.3688257 6.0175,-4.3688257 5.70335,4.0184568 5.70336,4.0184566 0.24427,12.350369 0.24428,12.350369 -5.89543,4.176334 -5.89543,4.176334 z M 39.326888,43.33388 C 36.04892,42.650821 32.128619,38.202518 31.404939,34.344972 29.94366,26.555687 35.692338,19.5 43.5,19.5 c 5.516325,0 9.561057,2.879259 11.285914,8.033926 C 56.408301,32.382362 54.715242,38.453105 51,41.108951 48.315701,43.027825 42.853965,44.068848 39.326888,43.33388 Z m 8.116408,-4.556386 C 49.312963,36.10817 49.461861,28.476106 47.712087,25 45.989456,21.577816 41.716879,21.138425 39.596693,24.165414 37.515887,27.13618 37.492095,35.829852 39.556704,38.777494 40.425932,40.01849 42.167382,41 43.5,41 c 1.332618,0 3.074068,-0.98151 3.943296,-2.222506 z M 232.21461,43.289629 C 230.12412,42.888977 222,33.913675 222,32.004816 c 0,-0.448574 1.62069,-2.755433 3.60154,-5.126355 1.98085,-2.370921 3.10585,-4.475997 2.5,-4.677947 C 225.39705,21.299016 227.40324,20 231.5,20 c 4.54043,0 6.04557,1.37468 2.67607,2.444118 -1.00316,0.318392 -3.09902,1.909791 -4.65745,3.536444 l -2.83351,2.95755 2.83591,4.092218 c 1.55975,2.250719 4.18439,5.22689 5.83254,6.613714 2.4106,2.028387 2.71793,2.697877 1.57153,3.423413 -0.7838,0.496055 -1.65009,0.847526 -1.92509,0.781048 -0.275,-0.06648 -1.52843,-0.317972 -2.78539,-0.558876 z M 13,42 c 0,-0.55 0.9,-1 2,-1 1.743186,0 2,-0.666667 2,-5.191833 C 17,31.531869 16.288059,29.417959 12.962708,23.820565 10.742197,20.082892 7.752952,16.41048 6.3199409,15.65965 3.3809723,14.119768 3.9438946,13.476354 9.0717469,12.514363 13.23379,11.733559 13.69864,12.157179 18.461264,21.071083 l 3.293165,6.163609 3.872786,-7.110656 C 28.142041,15.50667 30.113622,13.011034 31.25,13.00669 c 0.9625,-0.0037 1.75,0.204393 1.75,0.462383 0,0.257991 -2.25,3.915728 -5,8.128306 -4.455809,6.825615 -5,8.254066 -5,13.124546 0,4.62431 0.30776,5.545795 2,5.988326 C 29.255266,41.823028 26.685177,43 20,43 16,43 13,42.571429 13,42 Z m 43,0 c 0,-0.55 0.639245,-1 1.420545,-1 1.583073,0 2.187876,-2.349126 3.153873,-12.25 C 61.142368,22.928858 61.01055,22 59.616497,22 58.727424,22 58,21.55 58,21 c 0,-0.55 2.210234,-1 4.911631,-1 h 4.91163 l 2.758195,7.030175 c 1.517007,3.866596 3.082019,6.679096 3.477804,6.25 C 74.455045,32.851079 75.78892,29.6875 77.023426,26.25 L 79.267981,20 h 4.86601 c 5.125905,0 5.870109,0.545299 3.304513,2.421309 -1.296488,0.948015 -1.441669,2.464133 -0.855441,8.933372 0.392064,4.326582 1.308833,8.394358 2.061495,9.14702 C 90.828012,42.685155 90.305698,43 84.5,43 79.358233,43 77.298757,41.866806 80.32795,40.704395 81.345772,40.31382 81.486199,38.755567 80.929251,34.03204 80.529593,30.642516 80.018792,27.685458 79.794136,27.460803 79.56948,27.236147 78.061395,30.64862 76.442835,35.044077 74.382511,40.639218 73.050173,42.952974 72,42.759566 71.16846,42.606424 69.077002,38.930865 67.306842,34.511742 63.957911,26.151289 63.509365,26.178654 62.62598,34.797314 62.207326,38.881871 62.416926,40.222759 63.541511,40.654303 66.470709,41.778342 64.886665,43 60.5,43 58.025,43 56,42.55 56,42 Z m 37,0.106989 c 0,-0.491156 0.578854,-1.115138 1.286342,-1.386627 0.707488,-0.271489 3.025454,-4.932134 5.151036,-10.356989 2.125582,-5.424855 3.910152,-9.939295 3.965712,-10.032089 0.0555,-0.09279 1.26605,-0.461124 2.68999,-0.818509 2.43295,-0.610632 2.72591,-0.268992 4.86099,5.668716 C 114.58193,35.270623 117.17853,41 118.12314,41 118.60541,41 119,41.45 119,42 c 0,0.555556 -2.66667,1 -6,1 -3.33333,0 -6,-0.444444 -6,-1 0,-0.55 0.675,-1 1.5,-1 1.75544,0 1.91127,-1.363019 0.46482,-4.065741 C 108.24497,35.589213 106.86664,35 104.44007,35 c -2.84589,0 -3.67356,0.483933 -4.487031,2.623517 -0.803473,2.113295 -0.6528,2.88503 0.774751,3.968197 1.56456,1.187125 1.21566,1.348406 -2.97779,1.376483 C 95.1375,42.985688 93,42.598145 93,42.106989 Z M 106.9549,31.75 c -0.0248,-0.6875 -0.61843,-2.594671 -1.31916,-4.238159 l -1.27404,-2.988158 -1.18085,3.387382 C 101.54847,32.593708 101.65379,33 104.5,33 c 1.375,0 2.4797,-0.5625 2.4549,-1.25 z M 130,42 c 0,-0.55 0.62686,-1 1.39301,-1 C 133.49692,41 134,38.684336 134,29 134,19.315664 133.49692,17 131.39301,17 130.62686,17 130,16.55 130,16 c 0,-1.402274 16.61182,-1.273527 19.31574,0.149704 4.31141,2.269348 4.97879,6.566345 1.52028,9.788437 l -2.16397,2.016051 2.66397,2.095484 c 4.18488,3.291826 3.49108,8.954135 -1.40754,11.487309 C 146.64368,43.235622 130,43.622319 130,42 Z m 16.75,-3.830866 C 149.51247,34.740596 147.00472,30 142.42857,30 140.18644,30 140,30.377451 140,34.916667 c 0,4.966933 0.99403,6.283105 4,5.296289 0.825,-0.270836 2.0625,-1.190556 2.75,-2.043822 z M 144.57294,26.234687 C 148.06676,23.842325 146.57109,18 142.46482,18 140.21022,18 140,18.383796 140,22.5 c 0,3.624881 0.34032,4.497022 1.75,4.484687 0.9625,-0.0084 2.23282,-0.345922 2.82294,-0.75 z M 154,42.5 c 0,-0.275 0.84676,-1.34676 1.88169,-2.381688 1.03493,-1.034929 3.31755,-5.647429 5.07249,-10.25 C 164.03022,21.801011 166.0042,19 168.6135,19 c 0.67719,0 2.89598,4.3875 4.93065,9.75 2.03467,5.3625 4.5446,10.497132 5.57763,11.410293 C 180.1548,41.073454 181,42.085954 181,42.410293 181,42.734632 178.3,43 175,43 c -5.29753,0 -7.95355,-1.182151 -4.92452,-2.191828 0.64943,-0.216476 0.80456,-1.437943 0.39159,-3.083333 C 169.86983,35.345208 169.29257,35 165.91064,35 c -3.37227,0 -3.95999,0.34845 -4.54953,2.697353 -0.42738,1.702816 -0.25005,2.839668 0.48095,3.083333 C 164.59572,41.698572 162.6359,43 158.5,43 156.025,43 154,42.775 154,42.5 Z m 14,-10.9349 c 0,-0.789196 -0.50227,-2.701696 -1.11616,-4.25 L 165.76767,24.5 164.45991,28 c -1.8105,4.845504 -1.77836,5 1.04009,5 1.50515,0 2.5,-0.571007 2.5,-1.4349 z M 183,42 c 0,-0.55 0.675,-1 1.5,-1 1.22807,0 1.5,-1.722222 1.5,-9.5 0,-7.777778 -0.27193,-9.5 -1.5,-9.5 -0.825,0 -1.5,-0.45 -1.5,-1 0,-0.55 1.54509,-1 3.43354,-1 2.98152,0 4.26508,0.92025 9.75,6.990301 3.47405,3.844665 6.65396,6.994665 7.06646,7 0.4125,0.0053 0.75,-2.479424 0.75,-5.521686 0,-3.994296 -0.41683,-5.691336 -1.5,-6.106989 -3.03574,-1.164924 -1.36763,-2.36074 3.25,-2.329823 4.16431,0.02788 4.53422,0.195604 3,1.360243 C 207.28573,22.503582 207,24.37607 207,32.860243 207,42.172486 206.84419,43 205.09085,43 c -1.10661,0 -4.88037,-3.257811 -8.97738,-7.75 l -7.06825,-7.75 -0.0226,6.281385 c -0.0168,4.676121 0.36073,6.428485 1.47739,6.856989 C 193.46659,41.776762 191.9127,43 187.5,43 185.025,43 183,42.55 183,42 Z m 29,0 c 0,-0.55 0.675,-1 1.5,-1 1.22807,0 1.5,-1.722222 1.5,-9.5 0,-7.777778 -0.27193,-9.5 -1.5,-9.5 -0.825,0 -1.5,-0.45 -1.5,-1 0,-0.555556 2.66667,-1 6,-1 5.68594,0 7.7844,1.101284 4.5,2.361626 -1.17173,0.449637 -1.5,2.449514 -1.5,9.138374 0,6.68886 0.32827,8.688737 1.5,9.138374 C 225.7844,41.898716 223.68594,43 218,43 c -3.33333,0 -6,-0.444444 -6,-1 z"
         id="path7" />
      <path
         style="fill:#eb1935"
         d="M 259.77787,51.690634 250.05573,44.5 l -0.0279,-8.131311 c -0.0278,-8.100247 -0.0148,-8.141316 3.40541,-10.75 C 255.32158,24.17841 257.12158,23 257.43328,23 257.74498,23 258,26.3355 258,30.412222 v 7.412223 l 6.5,4.638303 6.5,4.638304 v 5.949474 c 0,3.272211 -0.3375,5.922759 -0.75,5.890108 -0.4125,-0.03265 -5.12496,-3.295152 -10.47213,-7.25 z m 14.29198,1.12746 0.0699,-6.318094 6.11659,-4.5 6.11658,-4.5 -0.25353,-7.25 c -0.13976,-3.996637 0.1648,-7.25 0.67871,-7.25 1.04218,0 6.2987,3.863259 7.43664,5.465526 0.40408,0.568961 0.74158,4.242451 0.75,8.163312 l 0.0153,7.128839 -7.25,5.415129 c -3.9875,2.978321 -8.7125,6.438486 -10.5,7.689256 L 274,59.136188 Z M 38.5,42.597485 c -5.01395,-2.21321 -7,-5.228925 -7,-10.629142 0,-6.073022 2.720657,-9.996537 8.150675,-11.754257 8.288427,-2.683 15.728446,2.661457 15.59928,11.205574 -0.08839,5.846841 -3.099227,10.166598 -8.043053,11.539659 C 42.590978,44.241311 42.185894,44.224477 38.5,42.597485 Z m 8.943296,-3.819991 C 48.353821,37.477537 49,34.456692 49,31.5 49,25.574256 46.930694,22 43.5,22 40.069306,22 38,25.574256 38,31.5 c 0,5.925744 2.069306,9.5 5.5,9.5 1.332618,0 3.074068,-0.98151 3.943296,-2.222506 z M 266.23177,40.25 261.05891,36.5 261.02946,24.329077 261,12.158154 l 5.70108,-4.0443926 5.70109,-4.0443923 3.04891,2.2775949 c 1.67691,1.2526772 4.27228,3.1495691 5.7675,4.215315 2.68757,1.915627 2.71893,2.070326 2.75,13.567576 L 284,35.759709 278.54291,39.879855 C 275.54151,42.145935 272.70755,44 272.24522,44 c -0.46232,0 -3.16838,-1.6875 -6.01345,-3.75 z M 13.5,42 c 0.339919,-0.55 1.266476,-1 2.059017,-1 2.195219,0 1.882569,-9.221239 -0.46755,-13.789838 C 11.894986,20.996248 7.083447,15 5.2937276,15 2.4784711,15 5.1703039,13.216151 9.0641309,12.501394 13.233966,11.735973 13.701499,12.162529 18.465281,21.078601 l 3.297181,6.171126 3.750698,-6.706874 c 3.449809,-6.168835 5.789651,-8.573375 7.083581,-7.279445 0.280767,0.280767 -1.763641,3.994096 -4.543128,8.251844 C 23.542878,28.425006 23,29.843715 23,34.721925 c 0,4.62431 0.30776,5.545795 2,5.988326 C 29.268511,41.826492 26.675738,43 19.940983,43 15.489616,43 13.110272,42.630593 13.5,42 Z M 56,42 c 0,-0.55 0.644676,-1 1.432612,-1 1.816868,0 2.282616,-1.678084 3.122413,-11.25 C 61.147473,22.997338 61.026823,22 59.617488,22 58.727869,22 58,21.55 58,21 c 0,-0.55 2.210234,-1 4.911631,-1 h 4.91163 l 2.758195,7.030175 c 1.517007,3.866596 3.082019,6.679096 3.477804,6.25 C 74.455045,32.851079 75.78892,29.6875 77.023426,26.25 L 79.267981,20 h 4.86601 C 86.810296,20 89,20.45 89,21 c 0,0.55 -0.675,1 -1.5,1 -1.079645,0 -1.479542,1.050888 -1.426997,3.75 0.130706,6.714051 1.59267,14.638558 2.773213,15.032072 C 91.838729,41.779576 89.447207,43 84.5,43 79.318072,43 77.303349,41.865044 80.385646,40.682255 81.409168,40.289493 81.633284,38.889497 81.24321,35.325266 80.257899,26.322148 79.619881,26.234681 76.438023,34.666513 74.614156,39.49971 72.924808,42.5 72.027288,42.5 c -0.885467,0 -2.642759,-3.023868 -4.490979,-7.72787 -1.66997,-4.250329 -3.311309,-7.737829 -3.64742,-7.75 -0.336112,-0.01217 -0.876727,2.79037 -1.201369,6.22787 -0.454394,4.811403 -0.256188,6.505551 0.861111,7.360243 C 65.943992,42.442604 65.232917,43 60.5,43 58.025,43 56,42.55 56,42 Z m 37,0.106989 c 0,-0.491156 0.627539,-1.133821 1.39453,-1.428143 0.766992,-0.294322 3.087878,-4.954967 5.157524,-10.356989 2.069646,-5.402021 3.805526,-9.897779 3.857516,-9.990573 0.052,-0.09279 1.22615,-0.452734 2.60923,-0.799867 2.40811,-0.604397 2.68354,-0.179078 6.49795,10.03407 2.19079,5.86587 4.54575,10.886455 5.23325,11.156855 3.08623,1.213841 0.72379,2.27498 -5,2.245855 -5.48973,-0.02794 -6.03156,-0.197467 -4.45426,-1.393685 1.29629,-0.983104 1.61379,-2.086773 1.14159,-3.968197 C 108.87188,35.353382 108.25263,35 104.87015,35 c -3.21044,0 -4.11892,0.451893 -5.059755,2.516792 -0.970838,2.130758 -0.852513,2.739412 0.771435,3.968196 1.7642,1.334899 1.53688,1.453958 -2.83183,1.483209 C 95.1375,42.985688 93,42.598145 93,42.106989 Z M 106.9549,31.75 c -0.0248,-0.6875 -0.61843,-2.594671 -1.31916,-4.238159 l -1.27404,-2.988158 -1.18085,3.387382 C 101.54847,32.593708 101.65379,33 104.5,33 c 1.375,0 2.4797,-0.5625 2.4549,-1.25 z M 130,42.116631 c 0,-0.485852 0.9,-1.118724 2,-1.40638 1.832,-0.479078 2,-1.364016 2,-10.534844 C 134,19.333094 133.53836,17 131.39301,17 130.62686,17 130,16.55 130,16 c 0,-0.591466 3.62171,-1 8.86514,-1 7.45443,0 9.28443,0.32981 11.5,2.07258 3.32071,2.612071 3.39803,6.181946 0.18858,8.706501 l -2.44627,1.924241 2.94627,2.178277 c 4.49397,3.322534 3.9425,9.034756 -1.12524,11.655386 C 146.8056,43.151887 130,43.6407 130,42.116631 Z M 146,39 c 3.63888,-3.638882 1.83088,-9 -3.03518,-9 C 140.0804,30 140,30.133336 140,34.916667 c 0,4.508563 0.6622,5.731986 3.25,6.004386 C 143.6625,40.964474 144.9,40.1 146,39 Z m 0.0677,-14.126493 C 147.73164,21.764409 145.78946,18 142.52144,18 140.19973,18 140,18.356464 140,22.5 c 0,4.116204 0.21022,4.5 2.46482,4.5 1.49023,0 2.9148,-0.840811 3.60288,-2.126493 z M 154,42.240547 c 0,-0.417699 0.7875,-1.259597 1.75,-1.870883 0.9625,-0.611286 3.325,-5.273794 5.25,-10.361129 2.49047,-6.581748 4.1502,-9.550211 5.75423,-10.291558 1.23982,-0.573022 2.51099,-0.785092 2.82481,-0.471267 0.31383,0.313826 2.14759,4.774424 4.07502,9.912441 1.92743,5.138017 4.4472,10.354349 5.59949,11.591849 l 2.09508,2.25 h -6.17432 c -5.50401,0 -8.15534,-1.172988 -5.01637,-2.219314 0.731,-0.243665 0.90833,-1.380517 0.48095,-3.083333 C 170.04606,35.335349 169.46933,35 166,35 c -3.46933,0 -4.04606,0.335349 -4.63889,2.697353 -0.42738,1.702816 -0.25005,2.839668 0.48095,3.083333 C 164.59572,41.698572 162.6359,43 158.5,43 156.025,43 154,42.658246 154,42.240547 Z M 168.30144,32.25 c 0.23071,-0.4125 -0.2528,-2.325 -1.07447,-4.25 l -1.49393,-3.5 -1.29044,3.5 c -1.78576,4.843411 -1.75449,5 0.99838,5 1.34254,0 2.62975,-0.3375 2.86046,-0.75 z M 183,42 c 0,-0.55 0.675,-1 1.5,-1 1.22807,0 1.5,-1.722222 1.5,-9.5 0,-7.777778 -0.27193,-9.5 -1.5,-9.5 -0.825,0 -1.5,-0.45 -1.5,-1 0,-0.55 1.53412,-1 3.40915,-1 2.97757,0 4.30391,0.981077 10.47738,7.75 l 7.06825,7.75 0.0226,-6.281385 C 203.99422,24.542494 203.61666,22.79013 202.5,22.361626 199.66074,21.2721 201.00738,20 205,20 c 2.2,0 4,0.45 4,1 0,0.55 -0.45,1 -1,1 -0.60317,0 -1,4.166667 -1,10.5 0,13.261092 -0.80212,13.469161 -10.72122,2.781061 L 189.05757,27.5 l -0.0288,6.75 c -0.0228,5.346126 0.28319,6.75 1.47122,6.75 0.825,0 1.5,0.45 1.5,1 0,0.55 -2.025,1 -4.5,1 -2.475,0 -4.5,-0.45 -4.5,-1 z m 29,0 c 0,-0.55 0.675,-1 1.5,-1 1.22807,0 1.5,-1.722222 1.5,-9.5 0,-7.777778 -0.27193,-9.5 -1.5,-9.5 -0.825,0 -1.5,-0.45 -1.5,-1 0,-0.555556 2.66667,-1 6,-1 5.68594,0 7.7844,1.101284 4.5,2.361626 -1.17173,0.449637 -1.5,2.449514 -1.5,9.138374 0,6.68886 0.32827,8.688737 1.5,9.138374 C 225.7844,41.898716 223.68594,43 218,43 c -3.33333,0 -6,-0.444444 -6,-1 z m 18.22609,0.32975 C 228.7589,41.739656 222,33.136521 222,31.859079 c 0,-0.469325 1.6875,-2.726804 3.75,-5.016622 2.39095,-2.654471 3.29698,-4.316572 2.5,-4.586214 C 225.42407,21.300154 227.29688,20 231.5,20 c 4.54043,0 6.04557,1.37468 2.67607,2.444118 -1.00316,0.318392 -3.09902,1.909791 -4.65745,3.536444 l -2.83351,2.95755 2.83591,4.092218 c 1.55975,2.250719 4.1056,5.160592 5.65744,6.466383 1.55185,1.305792 2.82154,2.628219 2.82154,2.938727 0,0.688121 -6.00312,0.606505 -7.77391,-0.10569 z"
         id="path6" />
      <path
         style="fill:#5c5a5b"
         d="m 38.5,42.597485 c -5.01395,-2.21321 -7,-5.228925 -7,-10.629142 0,-6.073022 2.720657,-9.996537 8.150675,-11.754257 8.288427,-2.683 15.728446,2.661457 15.59928,11.205574 -0.08839,5.846841 -3.099227,10.166598 -8.043053,11.539659 C 42.590978,44.241311 42.185894,44.224477 38.5,42.597485 Z m 8.943296,-3.819991 C 48.353821,37.477537 49,34.456692 49,31.5 49,25.574256 46.930694,22 43.5,22 40.069306,22 38,25.574256 38,31.5 c 0,5.925744 2.069306,9.5 5.5,9.5 1.332618,0 3.074068,-0.98151 3.943296,-2.222506 z M 13.5,42 c 0.339919,-0.55 1.266476,-1 2.059017,-1 2.195219,0 1.882569,-9.221239 -0.46755,-13.789838 C 11.894986,20.996248 7.083447,15 5.2937276,15 2.4784711,15 5.1703039,13.216151 9.0641309,12.501394 13.233966,11.735973 13.701499,12.162529 18.465281,21.078601 l 3.297181,6.171126 3.750698,-6.706874 c 3.449809,-6.168835 5.789651,-8.573375 7.083581,-7.279445 0.280767,0.280767 -1.763641,3.994096 -4.543128,8.251844 C 23.542878,28.425006 23,29.843715 23,34.721925 c 0,4.62431 0.30776,5.545795 2,5.988326 C 29.268511,41.826492 26.675738,43 19.940983,43 15.489616,43 13.110272,42.630593 13.5,42 Z M 56,42 c 0,-0.55 0.644676,-1 1.432612,-1 1.816868,0 2.282616,-1.678084 3.122413,-11.25 C 61.147473,22.997338 61.026823,22 59.617488,22 58.727869,22 58,21.55 58,21 c 0,-0.55 2.210234,-1 4.911631,-1 h 4.91163 l 2.758195,7.030175 c 1.517007,3.866596 3.082019,6.679096 3.477804,6.25 C 74.455045,32.851079 75.78892,29.6875 77.023426,26.25 L 79.267981,20 h 4.86601 C 86.810296,20 89,20.45 89,21 c 0,0.55 -0.675,1 -1.5,1 -1.079645,0 -1.479542,1.050888 -1.426997,3.75 0.130706,6.714051 1.59267,14.638558 2.773213,15.032072 C 91.838729,41.779576 89.447207,43 84.5,43 79.318072,43 77.303349,41.865044 80.385646,40.682255 81.409168,40.289493 81.633284,38.889497 81.24321,35.325266 80.257899,26.322148 79.619881,26.234681 76.438023,34.666513 74.614156,39.49971 72.924808,42.5 72.027288,42.5 c -0.885467,0 -2.642759,-3.023868 -4.490979,-7.72787 -1.66997,-4.250329 -3.311309,-7.737829 -3.64742,-7.75 -0.336112,-0.01217 -0.876727,2.79037 -1.201369,6.22787 -0.454394,4.811403 -0.256188,6.505551 0.861111,7.360243 C 65.943992,42.442604 65.232917,43 60.5,43 58.025,43 56,42.55 56,42 Z m 37,0.106989 c 0,-0.491156 0.627539,-1.133821 1.39453,-1.428143 0.766992,-0.294322 3.087878,-4.954967 5.157524,-10.356989 2.069646,-5.402021 3.805526,-9.897779 3.857516,-9.990573 0.052,-0.09279 1.22615,-0.452734 2.60923,-0.799867 2.40811,-0.604397 2.68354,-0.179078 6.49795,10.03407 2.19079,5.86587 4.54575,10.886455 5.23325,11.156855 3.08623,1.213841 0.72379,2.27498 -5,2.245855 -5.48973,-0.02794 -6.03156,-0.197467 -4.45426,-1.393685 1.29629,-0.983104 1.61379,-2.086773 1.14159,-3.968197 C 108.87188,35.353382 108.25263,35 104.87015,35 c -3.21044,0 -4.11892,0.451893 -5.059755,2.516792 -0.970838,2.130758 -0.852513,2.739412 0.771435,3.968196 1.7642,1.334899 1.53688,1.453958 -2.83183,1.483209 C 95.1375,42.985688 93,42.598145 93,42.106989 Z M 106.9549,31.75 c -0.0248,-0.6875 -0.61843,-2.594671 -1.31916,-4.238159 l -1.27404,-2.988158 -1.18085,3.387382 C 101.54847,32.593708 101.65379,33 104.5,33 c 1.375,0 2.4797,-0.5625 2.4549,-1.25 z M 130,42.116631 c 0,-0.485852 0.9,-1.118724 2,-1.40638 1.832,-0.479078 2,-1.364016 2,-10.534844 C 134,19.333094 133.53836,17 131.39301,17 130.62686,17 130,16.55 130,16 c 0,-0.591466 3.62171,-1 8.86514,-1 7.45443,0 9.28443,0.32981 11.5,2.07258 3.32071,2.612071 3.39803,6.181946 0.18858,8.706501 l -2.44627,1.924241 2.94627,2.178277 c 4.49397,3.322534 3.9425,9.034756 -1.12524,11.655386 C 146.8056,43.151887 130,43.6407 130,42.116631 Z M 146,39 c 3.63888,-3.638882 1.83088,-9 -3.03518,-9 C 140.0804,30 140,30.133336 140,34.916667 c 0,4.508563 0.6622,5.731986 3.25,6.004386 C 143.6625,40.964474 144.9,40.1 146,39 Z m 0.0677,-14.126493 C 147.73164,21.764409 145.78946,18 142.52144,18 140.19973,18 140,18.356464 140,22.5 c 0,4.116204 0.21022,4.5 2.46482,4.5 1.49023,0 2.9148,-0.840811 3.60288,-2.126493 z M 154,42.240547 c 0,-0.417699 0.7875,-1.259597 1.75,-1.870883 0.9625,-0.611286 3.325,-5.273794 5.25,-10.361129 2.49047,-6.581748 4.1502,-9.550211 5.75423,-10.291558 1.23982,-0.573022 2.51099,-0.785092 2.82481,-0.471267 0.31383,0.313826 2.14759,4.774424 4.07502,9.912441 1.92743,5.138017 4.4472,10.354349 5.59949,11.591849 l 2.09508,2.25 h -6.17432 c -5.50401,0 -8.15534,-1.172988 -5.01637,-2.219314 0.731,-0.243665 0.90833,-1.380517 0.48095,-3.083333 C 170.04606,35.335349 169.46933,35 166,35 c -3.46933,0 -4.04606,0.335349 -4.63889,2.697353 -0.42738,1.702816 -0.25005,2.839668 0.48095,3.083333 C 164.59572,41.698572 162.6359,43 158.5,43 156.025,43 154,42.658246 154,42.240547 Z M 168.30144,32.25 c 0.23071,-0.4125 -0.2528,-2.325 -1.07447,-4.25 l -1.49393,-3.5 -1.29044,3.5 c -1.78576,4.843411 -1.75449,5 0.99838,5 1.34254,0 2.62975,-0.3375 2.86046,-0.75 z M 183,42 c 0,-0.55 0.675,-1 1.5,-1 1.22807,0 1.5,-1.722222 1.5,-9.5 0,-7.777778 -0.27193,-9.5 -1.5,-9.5 -0.825,0 -1.5,-0.45 -1.5,-1 0,-0.55 1.53412,-1 3.40915,-1 2.97757,0 4.30391,0.981077 10.47738,7.75 l 7.06825,7.75 0.0226,-6.281385 C 203.99422,24.542494 203.61666,22.79013 202.5,22.361626 199.66074,21.2721 201.00738,20 205,20 c 2.2,0 4,0.45 4,1 0,0.55 -0.45,1 -1,1 -0.60317,0 -1,4.166667 -1,10.5 0,13.261092 -0.80212,13.469161 -10.72122,2.781061 L 189.05757,27.5 l -0.0288,6.75 c -0.0228,5.346126 0.28319,6.75 1.47122,6.75 0.825,0 1.5,0.45 1.5,1 0,0.55 -2.025,1 -4.5,1 -2.475,0 -4.5,-0.45 -4.5,-1 z m 29,0 c 0,-0.55 0.675,-1 1.5,-1 1.22807,0 1.5,-1.722222 1.5,-9.5 0,-7.777778 -0.27193,-9.5 -1.5,-9.5 -0.825,0 -1.5,-0.45 -1.5,-1 0,-0.555556 2.66667,-1 6,-1 5.68594,0 7.7844,1.101284 4.5,2.361626 -1.17173,0.449637 -1.5,2.449514 -1.5,9.138374 0,6.68886 0.32827,8.688737 1.5,9.138374 C 225.7844,41.898716 223.68594,43 218,43 c -3.33333,0 -6,-0.444444 -6,-1 z m 18.22609,0.32975 C 228.7589,41.739656 222,33.136521 222,31.859079 c 0,-0.469325 1.6875,-2.726804 3.75,-5.016622 2.39095,-2.654471 3.29698,-4.316572 2.5,-4.586214 C 225.42407,21.300154 227.29688,20 231.5,20 c 4.54043,0 6.04557,1.37468 2.67607,2.444118 -1.00316,0.318392 -3.09902,1.909791 -4.65745,3.536444 l -2.83351,2.95755 2.83591,4.092218 c 1.55975,2.250719 4.1056,5.160592 5.65744,6.466383 1.55185,1.305792 2.82154,2.628219 2.82154,2.938727 0,0.688121 -6.00312,0.606505 -7.77391,-0.10569 z M 253.75,34.353793 C 251.6875,32.883524 250,30.905857 250,29.958977 c 0,-1.717974 6.69883,-7.593476 7.61407,-6.678245 0.26548,0.265489 0.34843,3.46701 0.18432,7.114492 L 257.5,37.027009 Z m 32.8899,1.95277 C 285.66686,35.333523 285.87563,23 286.86514,23 c 1.81714,0 8.08191,5.529021 8.11955,7.165971 0.0264,1.148616 -7.6719,6.813487 -8.34479,6.140592 z"
         id="path5" />
      <path
         style="fill:#8a191b"
         d="M 14.75,41.968838 C 16.711227,41.180521 17,40.339126 17,35.413035 17,30.701973 16.408605,28.78808 13.445777,23.910739 11.490954,20.692753 8.7380981,17.152548 7.3283193,16.043616 4.6952296,13.972427 4.8456722,13.758631 9.6806696,12.700663 12.389558,12.107918 14.867479,14.677696 18.406536,21.75 c 1.444936,2.8875 2.824479,5.25 3.065652,5.25 0.241173,0 2.309877,-3.15 4.59712,-7 2.287243,-3.85 4.834094,-7 5.659668,-7 1.63417,0 1.678499,-0.08619 -5.393491,10.486652 C 23.462794,27.781413 23,29.321131 23,34.583837 c 0,5.348662 0.280534,6.245831 2.25,7.195668 1.832972,0.884009 0.859905,1.08593 -5.25,1.089428 -5.460018,0.0031 -6.888005,-0.241697 -5.25,-0.900095 z M 34.923077,40.076923 C 32.534708,37.688554 32,36.307522 32,32.527263 32,24.224535 35.910728,20 43.596713,20 51.15927,20 55,24.097315 55,32.1651 c 0,3.255377 -0.656864,4.691764 -3.4,7.4349 -2.990986,2.990986 -4.022775,3.4 -8.576923,3.4 -4.388529,0 -5.622079,-0.445156 -8.1,-2.923077 z m 12.248182,-0.731911 c 2.37569,-2.149969 2.550533,-11.869497 0.272037,-15.122506 -1.815582,-2.592106 -5.616469,-2.906476 -7.871867,-0.651077 -2.22582,2.225819 -2.167506,13.112431 0.08356,15.59983 2.058152,2.274233 5.117129,2.344947 7.51627,0.173753 z M 57,42.360243 c 0,-0.351867 0.662404,-1.139367 1.472009,-1.75 0.973097,-0.733946 1.700615,-3.917498 2.146497,-9.392879 0.604327,-7.421052 0.47721,-8.431967 -1.222008,-9.718196 -1.729932,-1.309479 -1.455697,-1.438354 3.122407,-1.467365 L 67.53781,20 l 2.87296,7.524802 c 1.580127,4.138642 3.119727,7.278035 3.421332,6.976429 0.301606,-0.301605 1.70984,-3.575266 3.129409,-7.274802 L 79.542546,20.5 84.521273,20.242505 c 4.560971,-0.23589 4.819259,-0.133497 3.078219,1.220296 -1.696686,1.319305 -1.832209,2.365759 -1.263664,9.757496 0.434801,5.652917 1.117062,8.631934 2.150508,9.389946 2.591045,1.90048 1.71005,2.390843 -4.236336,2.357954 -5.025824,-0.0278 -5.527243,-0.200834 -3.9813,-1.373917 1.521544,-1.154567 1.676151,-2.337905 1.106401,-8.468196 C 81.010836,29.206738 80.429871,26 80.084068,26 c -0.345803,0 -2.010724,3.7125 -3.699826,8.25 -1.689101,4.5375 -3.641804,8.25 -4.339339,8.25 -0.697536,0 -2.60129,-3.375 -4.230565,-7.5 -1.629276,-4.125 -3.318022,-7.866498 -3.752769,-8.31444 -0.434747,-0.447942 -1.107648,2.404637 -1.495337,6.339064 -0.615728,6.248671 -0.474765,7.327947 1.11444,8.532636 1.638595,1.24213 1.397131,1.382293 -2.430672,1.410937 C 58.9125,42.985688 57,42.712109 57,42.360243 Z m 37.595012,-1.464808 c 1.047744,-1.157511 3.540057,-6.220011 5.538478,-11.25 3.09261,-7.784063 4.00136,-9.190452 6.10484,-9.44785 2.28237,-0.279289 2.76236,0.473407 6.27686,9.842917 2.09303,5.579933 4.40835,10.376665 5.14516,10.659404 C 120.70031,41.866447 118.64996,43 113.5,43 c -4.95026,0 -7.33829,-1.22057 -4.34206,-2.219314 0.731,-0.243665 0.90833,-1.380517 0.48095,-3.083333 C 109.03268,35.282024 108.50472,35 104.58936,35 c -3.92627,0 -4.44234,0.278105 -5.056435,2.724839 -0.412967,1.64539 -0.257837,2.866857 0.391592,3.083333 C 102.51318,41.671061 100.64603,43 96.845012,43 H 92.690025 Z M 107.92584,32.25 c -0.0408,-0.4125 -0.86375,-2.53945 -1.82881,-4.726556 L 104.3424,23.546888 102.7319,28.273444 101.1214,33 h 3.4393 c 1.89161,0 3.40593,-0.3375 3.36514,-0.75 z M 131,42.106989 c 0,-0.491156 0.675,-1.152033 1.5,-1.468615 C 133.70825,40.174723 134,37.911082 134,29 c 0,-8.911082 -0.29175,-11.174723 -1.5,-11.638374 -3.46749,-1.330601 -0.94839,-1.962611 7.59518,-1.905534 8.3049,0.05548 9.26068,0.265159 11,2.413119 2.53688,3.132916 2.40283,4.723687 -0.65579,7.782304 -1.40833,1.408333 -2.42083,2.625379 -2.25,2.704546 5.30337,2.457655 6.95921,6.242011 4.4241,10.111077 -0.94495,1.442173 -2.84885,3.052046 -4.23089,3.577497 C 145.20674,43.252095 131,43.303057 131,42.106989 Z m 15.41997,-3.018555 c 2.3983,-2.65009 1.70926,-7.230061 -1.31324,-8.728902 C 141.31123,28.477358 140,29.653547 140,34.940322 c 0,2.59949 0.3,5.026345 0.66667,5.393011 1.26147,1.261475 4.02652,0.663174 5.7533,-1.244899 z m -0.12358,-14.183657 c 1.57896,-2.523537 0.008,-6.79018 -2.75478,-7.483691 -3.54463,-0.889645 -4.11133,-0.116534 -3.70055,5.048415 0.3427,4.308825 0.5524,4.621 2.91325,4.336773 1.39918,-0.168451 2.99312,-1.024124 3.54208,-1.901497 z M 155,42.428571 c 0,-0.314285 0.58983,-1.161261 1.31074,-1.882168 0.72091,-0.720907 3.02346,-5.638764 5.11678,-10.928572 C 164.70239,21.34227 165.55534,20 167.53916,20 c 1.99576,0 2.80484,1.310191 6.02088,9.75 2.04342,5.3625 4.32835,10.249609 5.07763,10.860243 C 180.98834,42.525945 180.16756,43 174.5,43 c -4.95026,0 -7.33829,-1.22057 -4.34206,-2.219314 0.731,-0.243665 0.90833,-1.380517 0.48095,-3.083333 C 170.04462,35.329605 169.47282,35 165.95951,35 c -3.30591,0 -4.20193,0.437958 -5.14911,2.516792 -0.97084,2.130758 -0.85252,2.739412 0.77143,3.968196 1.77441,1.342629 1.59965,1.453789 -2.33183,1.483209 -2.3375,0.01749 -4.25,-0.22534 -4.25,-0.539626 z m 13.60272,-11.021472 c -0.33619,-0.876095 -0.88311,-2.676095 -1.21539,-4 -0.82367,-3.281739 -1.97752,-3.021424 -3.2895,0.742124 C 162.52156,32.670913 162.65786,33 166.10699,33 c 2.43146,0 2.97409,-0.346332 2.49573,-1.592901 z M 184,42.428571 c 0,-0.314285 0.675,-1.246428 1.5,-2.071428 1.06149,-1.061489 1.5,-3.650794 1.5,-8.857143 0,-5.206349 -0.43851,-7.795654 -1.5,-8.857143 -2.12618,-2.126182 -1.88277,-2.642008 1.25,-2.648957 2.1481,-0.0048 4.3267,1.691513 9.95369,7.75 l 7.20369,7.7561 0.0463,-6.75 C 203.99042,23.396083 203.68976,22 202.5,22 c -0.825,0 -1.5,-0.45 -1.5,-1 0,-0.55 1.8,-1 4,-1 3.99262,0 5.33926,1.2721 2.5,2.361626 -1.19539,0.458716 -1.5,2.612693 -1.5,10.606989 C 206,40.169939 205.65741,43 204.78566,43 c -0.66788,0 -4.47097,-3.4875 -8.4513,-7.75 l -7.23696,-7.75 -0.0487,6.389757 c -0.0377,4.951937 0.34508,6.688683 1.7013,7.718197 1.54344,1.171635 1.24835,1.332193 -2.5,1.360243 -2.3375,0.01749 -4.25,-0.22534 -4.25,-0.539626 z m 29.25,-0.820617 C 214.68291,40.520222 215,38.688704 215,31.5 c 0,-7.188704 -0.31709,-9.020222 -1.75,-10.107954 -1.51536,-1.150322 -0.912,-1.332703 4.5,-1.360243 3.5212,-0.01792 6.25,0.404805 6.25,0.968197 0,0.55 -0.675,1 -1.5,1 -2.39082,0 -2.16419,17.775325 0.25,19.607954 1.51207,1.147823 0.86625,1.328439 -4.75,1.328439 -5.61625,0 -6.26207,-0.180616 -4.75,-1.328439 z M 228.49121,40.25 c -1.52983,-1.5125 -3.58747,-4.059321 -4.57253,-5.659602 l -1.79101,-2.909603 3.45321,-4.214191 c 2.18372,-2.664943 3.2238,-4.812027 2.82918,-5.840397 C 227.89626,20.287275 228.51154,20 231.89301,20 234.15186,20 236,20.45 236,21 c 0,0.55 -0.58672,1 -1.30383,1 C 233.1215,22 227,28.138086 227,29.71702 c 0,0.616993 2.25,3.583664 5,6.592602 2.75,3.008938 5,5.745202 5,6.080587 0,1.825075 -6.0329,0.307622 -8.50879,-2.140209 z M 253.75,34.353793 C 251.6875,32.883524 250,30.905857 250,29.958977 c 0,-1.717974 6.69883,-7.593476 7.61407,-6.678245 0.26548,0.265489 0.34843,3.46701 0.18432,7.114492 L 257.5,37.027009 Z M 287,29.961585 c 0,-6.701401 0.12265,-7.113611 1.75,-5.881484 3.5333,2.675192 6.25,5.287654 6.25,6.010184 0,0.407911 -1.8,2.167283 -4,3.909715 l -4,3.168059 z"
         id="path4" />
      <path
         style="fill:#2e2b2c"
         d="M 14.75,41.968838 C 16.711227,41.180521 17,40.339126 17,35.413035 17,30.701973 16.408605,28.78808 13.445777,23.910739 11.490954,20.692753 8.7380981,17.152548 7.3283193,16.043616 4.6952296,13.972427 4.8456722,13.758631 9.6806696,12.700663 12.389558,12.107918 14.867479,14.677696 18.406536,21.75 c 1.444936,2.8875 2.824479,5.25 3.065652,5.25 0.241173,0 2.309877,-3.15 4.59712,-7 2.287243,-3.85 4.834094,-7 5.659668,-7 1.63417,0 1.678499,-0.08619 -5.393491,10.486652 C 23.462794,27.781413 23,29.321131 23,34.583837 c 0,5.348662 0.280534,6.245831 2.25,7.195668 1.832972,0.884009 0.859905,1.08593 -5.25,1.089428 -5.460018,0.0031 -6.888005,-0.241697 -5.25,-0.900095 z M 34.923077,40.076923 C 32.534708,37.688554 32,36.307522 32,32.527263 32,24.224535 35.910728,20 43.596713,20 51.15927,20 55,24.097315 55,32.1651 c 0,3.255377 -0.656864,4.691764 -3.4,7.4349 -2.990986,2.990986 -4.022775,3.4 -8.576923,3.4 -4.388529,0 -5.622079,-0.445156 -8.1,-2.923077 z m 12.248182,-0.731911 c 2.37569,-2.149969 2.550533,-11.869497 0.272037,-15.122506 -1.815582,-2.592106 -5.616469,-2.906476 -7.871867,-0.651077 -2.22582,2.225819 -2.167506,13.112431 0.08356,15.59983 2.058152,2.274233 5.117129,2.344947 7.51627,0.173753 z M 57,42.360243 c 0,-0.351867 0.662404,-1.139367 1.472009,-1.75 0.973097,-0.733946 1.700615,-3.917498 2.146497,-9.392879 0.604327,-7.421052 0.47721,-8.431967 -1.222008,-9.718196 -1.729932,-1.309479 -1.455697,-1.438354 3.122407,-1.467365 L 67.53781,20 l 2.87296,7.524802 c 1.580127,4.138642 3.119727,7.278035 3.421332,6.976429 0.301606,-0.301605 1.70984,-3.575266 3.129409,-7.274802 L 79.542546,20.5 84.521273,20.242505 c 4.560971,-0.23589 4.819259,-0.133497 3.078219,1.220296 -1.696686,1.319305 -1.832209,2.365759 -1.263664,9.757496 0.434801,5.652917 1.117062,8.631934 2.150508,9.389946 2.591045,1.90048 1.71005,2.390843 -4.236336,2.357954 -5.025824,-0.0278 -5.527243,-0.200834 -3.9813,-1.373917 1.521544,-1.154567 1.676151,-2.337905 1.106401,-8.468196 C 81.010836,29.206738 80.429871,26 80.084068,26 c -0.345803,0 -2.010724,3.7125 -3.699826,8.25 -1.689101,4.5375 -3.641804,8.25 -4.339339,8.25 -0.697536,0 -2.60129,-3.375 -4.230565,-7.5 -1.629276,-4.125 -3.318022,-7.866498 -3.752769,-8.31444 -0.434747,-0.447942 -1.107648,2.404637 -1.495337,6.339064 -0.615728,6.248671 -0.474765,7.327947 1.11444,8.532636 1.638595,1.24213 1.397131,1.382293 -2.430672,1.410937 C 58.9125,42.985688 57,42.712109 57,42.360243 Z m 37.595012,-1.464808 c 1.047744,-1.157511 3.540057,-6.220011 5.538478,-11.25 3.09261,-7.784063 4.00136,-9.190452 6.10484,-9.44785 2.28237,-0.279289 2.76236,0.473407 6.27686,9.842917 2.09303,5.579933 4.40835,10.376665 5.14516,10.659404 C 120.70031,41.866447 118.64996,43 113.5,43 c -4.95026,0 -7.33829,-1.22057 -4.34206,-2.219314 0.731,-0.243665 0.90833,-1.380517 0.48095,-3.083333 C 109.03268,35.282024 108.50472,35 104.58936,35 c -3.92627,0 -4.44234,0.278105 -5.056435,2.724839 -0.412967,1.64539 -0.257837,2.866857 0.391592,3.083333 C 102.51318,41.671061 100.64603,43 96.845012,43 H 92.690025 Z M 107.92584,32.25 c -0.0408,-0.4125 -0.86375,-2.53945 -1.82881,-4.726556 L 104.3424,23.546888 102.7319,28.273444 101.1214,33 h 3.4393 c 1.89161,0 3.40593,-0.3375 3.36514,-0.75 z M 131,42.106989 c 0,-0.491156 0.675,-1.152033 1.5,-1.468615 C 133.70825,40.174723 134,37.911082 134,29 c 0,-8.911082 -0.29175,-11.174723 -1.5,-11.638374 -3.46749,-1.330601 -0.94839,-1.962611 7.59518,-1.905534 8.3049,0.05548 9.26068,0.265159 11,2.413119 2.53688,3.132916 2.40283,4.723687 -0.65579,7.782304 -1.40833,1.408333 -2.42083,2.625379 -2.25,2.704546 5.30337,2.457655 6.95921,6.242011 4.4241,10.111077 -0.94495,1.442173 -2.84885,3.052046 -4.23089,3.577497 C 145.20674,43.252095 131,43.303057 131,42.106989 Z m 15.41997,-3.018555 c 2.3983,-2.65009 1.70926,-7.230061 -1.31324,-8.728902 C 141.31123,28.477358 140,29.653547 140,34.940322 c 0,2.59949 0.3,5.026345 0.66667,5.393011 1.26147,1.261475 4.02652,0.663174 5.7533,-1.244899 z m -0.12358,-14.183657 c 1.57896,-2.523537 0.008,-6.79018 -2.75478,-7.483691 -3.54463,-0.889645 -4.11133,-0.116534 -3.70055,5.048415 0.3427,4.308825 0.5524,4.621 2.91325,4.336773 1.39918,-0.168451 2.99312,-1.024124 3.54208,-1.901497 z M 155,42.428571 c 0,-0.314285 0.58983,-1.161261 1.31074,-1.882168 0.72091,-0.720907 3.02346,-5.638764 5.11678,-10.928572 C 164.70239,21.34227 165.55534,20 167.53916,20 c 1.99576,0 2.80484,1.310191 6.02088,9.75 2.04342,5.3625 4.32835,10.249609 5.07763,10.860243 C 180.98834,42.525945 180.16756,43 174.5,43 c -4.95026,0 -7.33829,-1.22057 -4.34206,-2.219314 0.731,-0.243665 0.90833,-1.380517 0.48095,-3.083333 C 170.04462,35.329605 169.47282,35 165.95951,35 c -3.30591,0 -4.20193,0.437958 -5.14911,2.516792 -0.97084,2.130758 -0.85252,2.739412 0.77143,3.968196 1.77441,1.342629 1.59965,1.453789 -2.33183,1.483209 -2.3375,0.01749 -4.25,-0.22534 -4.25,-0.539626 z m 13.60272,-11.021472 c -0.33619,-0.876095 -0.88311,-2.676095 -1.21539,-4 -0.82367,-3.281739 -1.97752,-3.021424 -3.2895,0.742124 C 162.52156,32.670913 162.65786,33 166.10699,33 c 2.43146,0 2.97409,-0.346332 2.49573,-1.592901 z M 184,42.428571 c 0,-0.314285 0.675,-1.246428 1.5,-2.071428 1.06149,-1.061489 1.5,-3.650794 1.5,-8.857143 0,-5.206349 -0.43851,-7.795654 -1.5,-8.857143 -2.12618,-2.126182 -1.88277,-2.642008 1.25,-2.648957 2.1481,-0.0048 4.3267,1.691513 9.95369,7.75 l 7.20369,7.7561 0.0463,-6.75 C 203.99042,23.396083 203.68976,22 202.5,22 c -0.825,0 -1.5,-0.45 -1.5,-1 0,-0.55 1.8,-1 4,-1 3.99262,0 5.33926,1.2721 2.5,2.361626 -1.19539,0.458716 -1.5,2.612693 -1.5,10.606989 C 206,40.169939 205.65741,43 204.78566,43 c -0.66788,0 -4.47097,-3.4875 -8.4513,-7.75 l -7.23696,-7.75 -0.0487,6.389757 c -0.0377,4.951937 0.34508,6.688683 1.7013,7.718197 1.54344,1.171635 1.24835,1.332193 -2.5,1.360243 -2.3375,0.01749 -4.25,-0.22534 -4.25,-0.539626 z m 29.25,-0.820617 C 214.68291,40.520222 215,38.688704 215,31.5 c 0,-7.188704 -0.31709,-9.020222 -1.75,-10.107954 -1.51536,-1.150322 -0.912,-1.332703 4.5,-1.360243 3.5212,-0.01792 6.25,0.404805 6.25,0.968197 0,0.55 -0.675,1 -1.5,1 -2.39082,0 -2.16419,17.775325 0.25,19.607954 1.51207,1.147823 0.86625,1.328439 -4.75,1.328439 -5.61625,0 -6.26207,-0.180616 -4.75,-1.328439 z M 228.49121,40.25 c -1.52983,-1.5125 -3.58747,-4.059321 -4.57253,-5.659602 l -1.79101,-2.909603 3.45321,-4.214191 c 2.18372,-2.664943 3.2238,-4.812027 2.82918,-5.840397 C 227.89626,20.287275 228.51154,20 231.89301,20 234.15186,20 236,20.45 236,21 c 0,0.55 -0.58672,1 -1.30383,1 C 233.1215,22 227,28.138086 227,29.71702 c 0,0.616993 2.25,3.583664 5,6.592602 2.75,3.008938 5,5.745202 5,6.080587 0,1.825075 -6.0329,0.307622 -8.50879,-2.140209 z"
         id="path3" />
      <path
         style="fill:#221e1f"
         d="M 15.25,41.919901 C 16.59665,41.13555 17,39.570939 17,35.131583 17,30.206945 16.433303,28.421216 13.12826,22.931273 10.998803,19.394073 8.2155113,15.966978 6.9431671,15.315507 L 4.629814,14.131015 7.235812,13.476951 c 4.555018,-1.143237 6.131995,-0.112574 9.995404,6.532686 2.075345,3.5697 4.124914,6.607892 4.554597,6.751539 0.429684,0.143647 2.485346,-2.893853 4.568139,-6.75 C 28.436745,16.155029 30.790543,13 31.584613,13 33.014288,13 32.484235,13.994954 25.250556,24.889547 23.504665,27.519021 23,29.712588 23,34.671771 c 0,5.694809 0.245625,6.491407 2.25,7.297067 1.668049,0.670473 0.439484,0.912919 -4.75,0.937367 -5.221183,0.0246 -6.555296,-0.226039 -5.25,-0.986304 z m 21.860071,-0.315408 c -5.751863,-3.188013 -6.961226,-12.501137 -2.30068,-17.717194 2.280639,-2.552479 3.78163,-3.237674 7.975157,-3.640619 4.86552,-0.467514 5.37064,-0.291492 8.69061,3.028478 4.18899,4.18899 4.720002,9.252337 1.520644,14.499768 -3.069304,5.034123 -10.486434,6.822168 -15.885731,3.829567 z M 46.86301,40.13699 c 4.321005,-4.321005 3.342737,-16.347868 -1.47885,-18.181032 -3.562931,-1.354624 -6.08723,0.32094 -7.478294,4.963898 -1.421809,4.745575 -0.478826,10.507184 2.149911,13.135921 2.440021,2.440021 4.424747,2.463699 6.807233,0.08121 z m 11.581893,0.923891 c 0.792478,-0.875677 1.886643,-5.182742 2.431479,-9.571255 0.807107,-6.501032 0.729247,-8.267919 -0.420308,-9.538163 -1.257504,-1.389527 -0.95622,-1.54764 2.770835,-1.454133 l 4.181754,0.104915 2.91218,7.198878 C 71.922542,31.760505 73.522892,35 73.877178,35 c 0.354285,0 1.802895,-3.239946 3.219133,-7.19988 l 2.574978,-7.199881 4.141778,-0.103912 c 3.681929,-0.09238 3.986444,0.0686 2.742714,1.44988 -1.785734,1.983228 -0.375627,16.490392 1.840952,18.939684 1.330686,1.470392 1.061294,1.585416 -2.963428,1.265317 -2.434947,-0.193659 -4.176402,-0.757869 -3.8699,-1.2538 C 82.338638,39.643056 80.910113,26 80.00354,26 c -0.405921,0 -2.181687,3.825 -3.946147,8.5 -1.76446,4.675 -3.584708,8.5 -4.044996,8.5 -0.460288,0 -2.338877,-3.823374 -4.174642,-8.496387 -1.835765,-4.673013 -3.639438,-8.498013 -4.008161,-8.5 -0.887762,-0.0048 -2.211825,12.557925 -1.514959,14.373928 0.374693,0.976437 -0.365556,1.549703 -2.38356,1.845883 -2.623765,0.385087 -2.777749,0.264634 -1.486172,-1.162543 z M 97,42 C 95.075,41.594805 94.012999,41.204044 94.639998,41.131641 95.266997,41.059239 97.678998,36.275 100,30.5 c 3.51879,-8.755284 4.57559,-10.499023 6.36,-10.494119 1.78836,0.0049 2.69247,1.524834 5.50227,9.25 1.84925,5.084266 4.18451,10.144119 5.18946,11.244119 1.80728,1.978228 1.76956,2 -3.46463,2 -4.70035,0 -5.17482,-0.187309 -4.24517,-1.675906 0.74019,-1.185235 0.70324,-2.429549 -0.12622,-4.25 C 108.27693,34.513699 107.33584,34 104.5,34 c -2.83584,0 -3.77693,0.513699 -4.715713,2.574094 -0.902333,1.980404 -0.895434,3.018285 0.02991,4.5 0.661513,1.059248 1.086433,1.866667 0.944273,1.794265 C 100.61631,42.795956 98.925,42.405195 97,42 Z M 107.43386,30.75 C 106.06289,26.349105 105.04187,24 104.5,24 c -0.54187,0 -1.56289,2.349105 -2.93386,6.75 -0.63837,2.049211 -0.37655,2.25 2.93386,2.25 3.31041,0 3.57223,-0.200789 2.93386,-2.25 z m 25.05107,10.639757 C 133.68704,40.508851 134,37.890303 134,28.713082 c 0,-10.174766 -0.21056,-11.621459 -1.75,-12.023756 -0.9625,-0.251528 2.1507,-0.509524 6.91821,-0.573325 10.09209,-0.135056 11.65938,0.30032 12.90854,3.585858 1.11535,2.933613 -0.22341,5.892528 -3.07569,6.797804 -2.72473,0.864798 -2.51598,2.154283 0.47008,2.903736 5.2556,1.319074 5.73726,8.104855 0.80448,11.333951 -2.02555,1.325962 -4.75055,1.76265 -10.9992,1.76265 -6.33067,0 -7.94617,-0.264095 -6.79149,-1.110243 z m 13.99764,-2.015189 c 2.44718,-2.447174 1.58856,-7.493182 -1.57575,-9.260539 C 140.74394,27.788936 139,29.173002 139,34.801949 c 0,2.675595 0.3,5.164718 0.66667,5.531384 1.23441,1.234417 5.17736,0.679779 6.8159,-0.958765 z M 145.17126,26.345012 C 149.15209,22.742407 146.6293,17 141.06574,17 139.26302,17 139,17.615394 139,21.833333 c 0,2.658334 0.3,5.133334 0.66667,5.5 1.1629,1.162901 3.61375,0.722863 5.50459,-0.988321 z M 158,42.104515 c -2.38387,-0.430596 -2.99307,-0.837328 -1.91035,-1.275441 0.87431,-0.353782 3.29328,-5.185052 5.3755,-10.736157 C 164.71471,21.42972 165.56855,20 167.49275,20 c 1.90551,0 2.72606,1.312391 5.47074,8.75 1.77595,4.8125 4.01626,9.875 4.97847,11.25 l 1.74949,2.5 -4.34266,-0.35045 c -2.38846,-0.192747 -4.12443,-0.703556 -3.8577,-1.135131 0.26673,-0.431575 -0.004,-2.186372 -0.60089,-3.89955 C 169.92341,34.341525 169.37379,34 165.87742,34 c -3.36224,0 -4.07819,0.395445 -4.97885,2.75 -0.74369,1.944208 -0.73396,3.262777 0.0332,4.5 0.59683,0.9625 0.96883,1.690761 0.82667,1.618359 C 161.61631,42.795956 159.925,42.452226 158,42.104515 Z M 169,32.36602 C 169,30.596547 166.58383,24 165.93571,24 c -0.41124,0 -1.43769,2.025 -2.28101,4.5 l -1.5333,4.5 h 3.4393 C 167.45231,33 169,32.714709 169,32.36602 Z m 16.50202,8.63175 c 2.04891,-2.264025 2.10165,-16.673243 0.0692,-18.919029 -1.2679,-1.401013 -1.12718,-1.578509 1.25,-1.576683 2.03254,0.0016 4.23851,1.690203 9.14453,7 3.55618,3.848868 6.81868,7.147942 7.25,7.331275 C 203.6471,35.016667 204,32.366276 204,28.943576 c 0,-4.532805 -0.43166,-6.53873 -1.58924,-7.385174 -1.29966,-0.95033 -0.84243,-1.152637 2.5092,-1.110243 3.25011,0.04111 3.78606,0.281649 2.58924,1.162084 -1.17338,0.863195 -1.5092,3.366503 -1.5092,11.25 0,7.483369 -0.32747,10.120978 -1.25,10.068075 -0.6875,-0.03942 -4.4,-3.636565 -8.25,-7.993644 -3.85,-4.357078 -7.3375,-7.924821 -7.75,-7.928317 -1.10328,-0.0094 -0.91405,10.818589 0.2263,12.949363 0.82807,1.547264 0.52472,1.890516 -1.99798,2.26077 -2.71401,0.398332 -2.8432,0.291686 -1.4763,-1.21872 z m 29.06774,-0.07485 c 1.98073,-2.188683 1.98596,-16.649085 0.007,-18.844176 C 213.29745,20.660054 213.68777,20.5 218.4266,20.5 c 3.89759,0 4.90205,0.271435 3.84989,1.040358 -1.1028,0.805933 -1.35067,3.210554 -1.10003,10.671491 l 0.32354,9.631133 -4.18024,0.330167 c -3.75632,0.296684 -4.0352,0.169897 -2.75,-1.250232 z m 15.5821,0.470893 c -1.26124,-0.883405 -3.60753,-3.420617 -5.21397,-5.638251 l -2.92081,-4.032061 3.54065,-3.919079 c 2.20464,-2.440268 3.33925,-4.557785 3.0069,-5.611749 -0.44109,-1.398773 0.18647,-1.702122 3.61432,-1.747105 3.39649,-0.04457 3.81286,0.13662 2.29799,1 -1.01755,0.579939 -3.31064,2.602804 -5.09574,4.495254 l -3.24564,3.44082 2.00322,2.813257 c 1.10177,1.547292 3.54627,4.449369 5.43222,6.44906 1.88595,1.999691 3.429,3.797857 3.429,3.995923 0,1.03041 -4.86074,0.145964 -6.84814,-1.246069 z"
         id="path2" />
    </g>
  </g>
</svg>
